# Export for compatibility
mtllib model.mtl
g base_1
usemtl white
v -19.37624 -2.15 4.875
v 19.22376 -2.15 4.875
v -0.07624 -0.35 4.875
v 19.22376 1.45 4.875
v -19.37624 1.45 4.875
v -20.07624 -2.85 3.875
v 19.92376 -2.85 3.875
v -21.06085 1.15 4.23906
v -21.06085 -1.85 4.23906
v -20.76894 0.8707 4.62923
v -20.76894 -1.5707 4.62923
v 20.90836 -1.85 4.23906
v 20.90836 1.15 4.23906
v 20.61645 -1.5707 4.62923
v 20.61645 0.8707 4.62923
v 19.92376 2.15 3.875
v -20.07624 2.15 3.875
v -10.7263 -2.85 2.82567
v 10.7263 -2.85 2.82567
v 19.92376 -2.85 2.82567
v 11.52912 -2.85 2.82567
v -11.68161 -2.85 2.82567
v -20.07624 -2.85 2.82567
v 20.91596 -1.10976 2.82567
v 20.91335 -1.85 2.82567
v 20.91335 1.15 2.82567
v 20.91596 0.40976 2.82567
v -21.06584 -1.85 2.82567
v -21.06845 -1.10976 2.82567
v -21.06845 0.40976 2.82567
v -21.06584 1.15 2.82567
v 11.52912 2.15 2.82567
v 8.09177 2.15 2.82567
v -20.33858 -2.58767 2.82567
v -20.07624 2.15 2.82567
v -20.80141 1.41349 2.82567
v 20.64893 -2.11349 2.82567
v 19.92376 2.15 2.82567
v 20.18609 1.88767 2.82567
v -8.09177 2.15 2.82567
v -11.68161 2.15 2.82567
v 20.91596 0.07662 2.82567
v -21.06845 0.23148 2.82567
v 17.91399 2.15 2.82567
v -17.98129 2.15 2.82567
v 0.0 0.0 2.82567
vn 0.0 0.0 1.0
vn 0.0 -0.81923246 0.5734617
vn -0.80070627 0.0 0.5990572
vn 0.80070627 0.0 0.5990572
vn 0.0 0.81923246 0.5734617
vn -0.37158027 -0.6180704 0.69276047
vn -0.37400755 -0.5986361 0.70834535
vn -0.37756205 0.6134033 0.6936738
vn -0.35916942 0.61059904 0.7058089
vn -0.17379047 0.0 0.9847827
vn 0.37756205 -0.6134033 0.6936738
vn 0.35916942 -0.61059904 0.7058089
vn 0.37158027 0.6180704 0.69276047
vn 0.37400755 0.5986361 0.70834535
vn 0.17379047 0.0 0.9847827
vn 0.0 -1.0 0.0
vn 0.99998754 -0.0035299915 0.0035299915
vn 0.99998754 0.0035299915 0.0035299915
vn 0.9999855 0.0 0.005379976
vn -0.99998754 -0.0035299915 0.0035299915
vn -0.9999855 0.0 0.005379976
vn -0.99998754 0.0035299915 0.0035299915
vn 0.0 1.0 0.0
vn -0.70710677 -0.70710677 0.0
vn -0.71211165 -0.70206165 0.002510006
vn -0.71257055 0.7016005 0.0
vn -0.7058585 0.70834845 0.0024899947
vn 0.71257055 -0.7016005 0.0
vn 0.7058585 -0.70834845 0.0024899947
vn 0.70710677 0.70710677 0.0
vn 0.71211165 0.70206165 0.002510006
vn 0.0 0.0 -1.0
f 1//1 2//1 3//1
f 2//1 4//1 3//1
f 4//1 5//1 3//1
f 5//1 1//1 3//1
f 6//2 7//2 1//2
f 1//2 7//2 2//2
f 8//3 9//3 10//3
f 10//3 9//3 11//3
f 12//4 13//4 14//4
f 14//4 13//4 15//4
f 16//5 17//5 4//5
f 4//5 17//5 5//5
f 6//6 1//6 9//6
f 9//7 1//7 11//7
f 5//8 17//8 10//8
f 10//9 17//9 8//9
f 1//10 5//10 11//10
f 11//10 5//10 10//10
f 2//11 7//11 14//11
f 14//12 7//12 12//12
f 16//13 4//13 13//13
f 13//14 4//14 15//14
f 4//15 2//15 15//15
f 15//15 2//15 14//15
f 6//16 18//16 19//16
f 6//16 19//16 7//16
f 20//16 7//16 21//16
f 22//16 6//16 23//16
f 24//17 12//17 25//17
f 26//18 13//18 27//18
f 12//19 27//19 13//19
f 28//20 9//20 29//20
f 8//21 29//21 9//21
f 30//22 8//22 31//22
f 16//23 32//23 33//23
f 17//23 16//23 33//23
f 23//24 6//24 34//24
f 9//25 28//25 34//25
f 9//25 34//25 6//25
f 17//26 35//26 36//26
f 17//26 36//26 8//26
f 31//27 8//27 36//27
f 7//28 20//28 37//28
f 7//28 37//28 12//28
f 25//29 12//29 37//29
f 38//30 16//30 39//30
f 13//31 26//31 39//31
f 13//31 39//31 16//31
f 6//16 22//16 18//16
f 21//16 7//16 19//16
f 17//23 33//23 40//23
f 41//23 17//23 40//23
f 24//19 42//19 12//19
f 42//19 27//19 12//19
f 30//21 43//21 8//21
f 43//21 29//21 8//21
f 38//23 44//23 16//23
f 44//23 32//23 16//23
f 41//23 45//23 17//23
f 45//23 35//23 17//23
f 46//32 19//32 18//32
f 46//32 40//32 33//32
f 27//32 21//32 26//32
f 20//32 21//32 27//32
f 19//32 46//32 21//32
f 46//32 33//32 32//32
f 21//32 46//32 32//32
f 29//32 23//32 28//32
f 23//32 43//32 30//32
f 22//32 23//32 30//32
f 22//32 45//32 41//32
f 46//32 22//32 41//32
f 46//32 18//32 22//32
f 24//32 25//32 37//32
f 20//32 24//32 37//32
f 20//32 42//32 24//32
f 21//32 44//32 38//32
f 26//32 21//32 38//32
f 42//32 20//32 27//32
f 44//32 21//32 32//32
f 28//32 23//32 34//32
f 43//32 23//32 29//32
f 22//32 30//32 31//32
f 40//32 46//32 41//32
f 26//32 38//32 39//32
f 45//32 22//32 35//32
f 22//32 31//32 36//32
f 35//32 22//32 36//32
g porte_neon_1_2
usemtl white
v -17.5 -1.1919 9.03253
v -17.5 -0.35 9.2
v -17.5 -0.35 7.0
v -17.5 -1.90563 8.55563
v -17.5 -2.38253 7.8419
v -17.5 -2.55 7.0
v -17.5 -2.38253 6.1581
v -17.5 -1.90563 5.44437
v -17.5 -1.1919 4.96747
v -17.5 -0.35 4.8
v -17.5 0.4919 4.96747
v -17.5 1.20563 5.44437
v -17.5 1.68253 6.1581
v -17.5 1.85 7.0
v -17.5 1.68253 7.8419
v -17.5 1.20563 8.55563
v -17.5 0.4919 9.03253
v -12.5 -0.35 9.2
v -12.5 -1.1919 9.03253
v -12.5 -1.90563 8.55563
v -12.5 -2.38253 7.8419
v -12.5 -2.55 7.0
v -12.5 -2.38253 6.1581
v -12.5 -1.90563 5.44437
v -12.5 -1.1919 4.96747
v -12.5 -0.35 4.8
v -12.5 0.4919 4.96747
v -12.5 1.20563 5.44437
v -12.5 1.68253 6.1581
v -12.5 1.85 7.0
v -12.5 1.68253 7.8419
v -12.5 1.20563 8.55563
v -12.5 0.4919 9.03253
v -12.5 -0.35 9.1
v -12.5 -0.51073 9.06803
v -12.5 -1.15364 8.94015
v -12.5 -1.28989 8.8491
v -12.5 -1.83492 8.48492
v -12.5 -1.92597 8.34867
v -12.5 -2.29015 7.80364
v -12.5 -2.32212 7.64291
v -12.5 -2.45 7.0
v -12.5 -2.41803 6.83927
v -12.5 -2.29015 6.19636
v -12.5 -2.1991 6.06011
v -12.5 -1.83492 5.51508
v -12.5 -1.69867 5.42403
v -12.5 -1.15364 5.05985
v -12.5 -0.99291 5.02788
v -12.5 -0.35 4.9
v -12.5 -0.18927 4.93197
v -12.5 0.45364 5.05985
v -12.5 0.58989 5.1509
v -12.5 1.13492 5.51508
v -12.5 1.22597 5.65133
v -12.5 1.59015 6.19636
v -12.5 1.62212 6.35709
v -12.5 1.75 7.0
v -12.5 1.71803 7.16073
v -12.5 1.59015 7.80364
v -12.5 1.4991 7.93989
v -12.5 1.13492 8.48492
v -12.5 0.99867 8.57597
v -12.5 0.45364 8.94015
v -12.5 0.29291 8.97212
v -16.5 -0.35 9.1
v -16.5 -1.15364 8.94015
v -16.5 -0.35 7.0
v -16.5 -1.83492 8.48492
v -16.5 -2.29015 7.80364
v -16.5 -2.45 7.0
v -16.5 -2.29015 6.19636
v -16.5 -1.83492 5.51508
v -16.5 -1.15364 5.05985
v -16.5 -0.35 4.9
v -16.5 0.45364 5.05985
v -16.5 1.13492 5.51508
v -16.5 1.59015 6.19636
v -16.5 1.75 7.0
v -16.5 1.59015 7.80364
v -16.5 1.13492 8.48492
v -16.5 0.45364 8.94015
vn -1.0 0.0 0.0
vn 0.0 -0.38268036 0.9238809
vn 0.0 -0.70710677 0.70710677
vn 0.0 -0.9238809 0.38268036
vn -0.0 -0.9238809 -0.38268036
vn -0.0 -0.70710677 -0.70710677
vn -0.0 -0.38268036 -0.9238809
vn 0.0 0.38268036 -0.9238809
vn 0.0 0.70710677 -0.70710677
vn 0.0 0.9238809 -0.38268036
vn 0.0 0.9238809 0.38268036
vn 0.0 0.70710677 0.70710677
vn 0.0 0.38268036 0.9238809
vn 1.0 0.0 0.0
vn 0.0 0.1950891 -0.9807855
vn 0.0 0.5555699 -0.8314699
vn 0.0 0.8314699 -0.5555699
vn 0.0 0.9807855 -0.1950891
vn 0.0 0.9807855 0.1950891
vn 0.0 0.8314699 0.5555699
vn 0.0 0.5555699 0.8314699
vn 0.0 0.1950891 0.9807855
vn 0.0 -0.1950891 0.9807855
vn 0.0 -0.5555699 0.8314699
vn 0.0 -0.8314699 0.5555699
vn 0.0 -0.9807855 0.1950891
vn -0.0 -0.9807855 -0.1950891
vn -0.0 -0.8314699 -0.5555699
vn -0.0 -0.5555699 -0.8314699
vn 0.0 -0.1950891 -0.9807855
f 47//33 48//33 49//33
f 50//33 47//33 49//33
f 51//33 50//33 49//33
f 52//33 51//33 49//33
f 53//33 52//33 49//33
f 54//33 53//33 49//33
f 55//33 54//33 49//33
f 56//33 55//33 49//33
f 57//33 56//33 49//33
f 58//33 57//33 49//33
f 59//33 58//33 49//33
f 60//33 59//33 49//33
f 61//33 60//33 49//33
f 62//33 61//33 49//33
f 63//33 62//33 49//33
f 48//33 63//33 49//33
f 64//1 48//1 47//34
f 65//34 47//34 50//35
f 66//35 50//35 51//36
f 67//36 51//36 52//16
f 68//16 52//16 53//37
f 69//37 53//37 54//38
f 70//38 54//38 55//39
f 71//39 55//39 56//32
f 72//32 56//32 57//40
f 73//40 57//40 58//41
f 74//41 58//41 59//42
f 75//42 59//42 60//23
f 76//23 60//23 61//43
f 77//43 61//43 62//44
f 78//44 62//44 63//45
f 79//45 63//45 48//1
f 64//1 47//34 65//34
f 65//34 50//35 66//35
f 66//35 51//36 67//36
f 67//36 52//16 68//16
f 68//16 53//37 69//37
f 69//37 54//38 70//38
f 70//38 55//39 71//39
f 71//39 56//32 72//32
f 72//32 57//40 73//40
f 73//40 58//41 74//41
f 74//41 59//42 75//42
f 75//42 60//23 76//23
f 76//23 61//43 77//43
f 77//43 62//44 78//44
f 78//44 63//45 79//45
f 79//45 48//1 64//1
f 80//46 64//46 81//46
f 64//46 65//46 81//46
f 82//46 65//46 83//46
f 65//46 66//46 83//46
f 84//46 66//46 85//46
f 66//46 67//46 85//46
f 86//46 67//46 87//46
f 67//46 68//46 87//46
f 88//46 68//46 89//46
f 68//46 69//46 89//46
f 90//46 69//46 91//46
f 69//46 70//46 91//46
f 92//46 70//46 93//46
f 70//46 71//46 93//46
f 94//46 71//46 95//46
f 71//46 72//46 95//46
f 96//46 72//46 97//46
f 72//46 73//46 97//46
f 98//46 73//46 99//46
f 73//46 74//46 99//46
f 100//46 74//46 101//46
f 74//46 75//46 101//46
f 102//46 75//46 103//46
f 75//46 76//46 103//46
f 104//46 76//46 105//46
f 76//46 77//46 105//46
f 106//46 77//46 107//46
f 77//46 78//46 107//46
f 108//46 78//46 109//46
f 78//46 79//46 109//46
f 110//46 79//46 111//46
f 79//46 64//46 111//46
f 65//46 82//46 81//46
f 66//46 84//46 83//46
f 67//46 86//46 85//46
f 68//46 88//46 87//46
f 69//46 90//46 89//46
f 70//46 92//46 91//46
f 71//46 94//46 93//46
f 72//46 96//46 95//46
f 73//46 98//46 97//46
f 74//46 100//46 99//46
f 75//46 102//46 101//46
f 76//46 104//46 103//46
f 77//46 106//46 105//46
f 78//46 108//46 107//46
f 79//46 110//46 109//46
f 64//46 80//46 111//46
f 112//46 113//46 114//46
f 113//46 115//46 114//46
f 115//46 116//46 114//46
f 116//46 117//46 114//46
f 117//46 118//46 114//46
f 118//46 119//46 114//46
f 119//46 120//46 114//46
f 120//46 121//46 114//46
f 121//46 122//46 114//46
f 122//46 123//46 114//46
f 123//46 124//46 114//46
f 124//46 125//46 114//46
f 125//46 126//46 114//46
f 126//46 127//46 114//46
f 127//46 128//46 114//46
f 128//46 112//46 114//46
f 81//47 113//40 80//32
f 80//32 113//40 112//32
f 83//48 115//41 82//40
f 82//40 115//41 113//40
f 85//49 116//42 84//41
f 84//41 116//42 115//41
f 87//50 117//23 86//42
f 86//42 117//23 116//42
f 89//51 118//43 88//23
f 88//23 118//43 117//23
f 91//52 119//44 90//43
f 90//43 119//44 118//43
f 93//53 120//45 92//44
f 92//44 120//45 119//44
f 95//54 121//1 94//45
f 94//45 121//1 120//45
f 97//55 122//34 96//1
f 96//1 122//34 121//1
f 99//56 123//35 98//34
f 98//34 123//35 122//34
f 101//57 124//36 100//35
f 100//35 124//36 123//35
f 103//58 125//16 102//36
f 102//36 125//16 124//36
f 105//59 126//37 104//16
f 104//16 126//37 125//16
f 107//60 127//38 106//37
f 106//37 127//38 126//37
f 109//61 128//39 108//38
f 108//38 128//39 127//38
f 111//62 112//32 110//39
f 110//39 112//32 128//39
f 113//40 81//47 82//40
f 115//41 83//48 84//41
f 116//42 85//49 86//42
f 117//23 87//50 88//23
f 118//43 89//51 90//43
f 119//44 91//52 92//44
f 120//45 93//53 94//45
f 121//1 95//54 96//1
f 122//34 97//55 98//34
f 123//35 99//56 100//35
f 124//36 101//57 102//36
f 125//16 103//58 104//16
f 126//37 105//59 106//37
f 127//38 107//60 108//38
f 128//39 109//61 110//39
f 112//32 111//62 80//32
g porte_neon_2_3
usemtl white
v 17.5 -1.1919 4.96747
v 17.5 -0.35 4.8
v 17.5 -0.35 7.0
v 17.5 -1.90563 5.44437
v 17.5 -2.38253 6.1581
v 17.5 -2.55 7.0
v 17.5 -2.38253 7.8419
v 17.5 -1.90563 8.55563
v 17.5 -1.1919 9.03253
v 17.5 -0.35 9.2
v 17.5 0.4919 9.03253
v 17.5 1.20563 8.55563
v 17.5 1.68253 7.8419
v 17.5 1.85 7.0
v 17.5 1.68253 6.1581
v 17.5 1.20563 5.44437
v 17.5 0.4919 4.96747
v 12.5 -0.35 4.8
v 12.5 -1.1919 4.96747
v 12.5 -1.90563 5.44437
v 12.5 -2.38253 6.1581
v 12.5 -2.55 7.0
v 12.5 -2.38253 7.8419
v 12.5 -1.90563 8.55563
v 12.5 -1.1919 9.03253
v 12.5 -0.35 9.2
v 12.5 0.4919 9.03253
v 12.5 1.20563 8.55563
v 12.5 1.68253 7.8419
v 12.5 1.85 7.0
v 12.5 1.68253 6.1581
v 12.5 1.20563 5.44437
v 12.5 0.4919 4.96747
v 12.5 -0.35 4.9
v 12.5 -0.51073 4.93197
v 12.5 -1.15364 5.05985
v 12.5 -1.28989 5.1509
v 12.5 -1.83492 5.51508
v 12.5 -1.92597 5.65133
v 12.5 -2.29015 6.19636
v 12.5 -2.32212 6.35709
v 12.5 -2.45 7.0
v 12.5 -2.41803 7.16073
v 12.5 -2.29015 7.80364
v 12.5 -2.1991 7.93989
v 12.5 -1.83492 8.48492
v 12.5 -1.69867 8.57597
v 12.5 -1.15364 8.94015
v 12.5 -0.99291 8.97212
v 12.5 -0.35 9.1
v 12.5 -0.18927 9.06803
v 12.5 0.45364 8.94015
v 12.5 0.58989 8.8491
v 12.5 1.13492 8.48492
v 12.5 1.22597 8.34867
v 12.5 1.59015 7.80364
v 12.5 1.62212 7.64291
v 12.5 1.75 7.0
v 12.5 1.71803 6.83927
v 12.5 1.59015 6.19636
v 12.5 1.4991 6.06011
v 12.5 1.13492 5.51508
v 12.5 0.99867 5.42403
v 12.5 0.45364 5.05985
v 12.5 0.29291 5.02788
v 16.5 -0.35 4.9
v 16.5 -1.15364 5.05985
v 16.5 -0.35 7.0
v 16.5 -1.83492 5.51508
v 16.5 -2.29015 6.19636
v 16.5 -2.45 7.0
v 16.5 -2.29015 7.80364
v 16.5 -1.83492 8.48492
v 16.5 -1.15364 8.94015
v 16.5 -0.35 9.1
v 16.5 0.45364 8.94015
v 16.5 1.13492 8.48492
v 16.5 1.59015 7.80364
v 16.5 1.75 7.0
v 16.5 1.59015 6.19636
v 16.5 1.13492 5.51508
v 16.5 0.45364 5.05985
f 129//46 130//46 131//46
f 132//46 129//46 131//46
f 133//46 132//46 131//46
f 134//46 133//46 131//46
f 135//46 134//46 131//46
f 136//46 135//46 131//46
f 137//46 136//46 131//46
f 138//46 137//46 131//46
f 139//46 138//46 131//46
f 140//46 139//46 131//46
f 141//46 140//46 131//46
f 142//46 141//46 131//46
f 143//46 142//46 131//46
f 144//46 143//46 131//46
f 145//46 144//46 131//46
f 130//46 145//46 131//46
f 146//32 130//32 129//39
f 147//39 129//39 132//38
f 148//38 132//38 133//37
f 149//37 133//37 134//16
f 150//16 134//16 135//36
f 151//36 135//36 136//35
f 152//35 136//35 137//34
f 153//34 137//34 138//1
f 154//1 138//1 139//45
f 155//45 139//45 140//44
f 156//44 140//44 141//43
f 157//43 141//43 142//23
f 158//23 142//23 143//42
f 159//42 143//42 144//41
f 160//41 144//41 145//40
f 161//40 145//40 130//32
f 146//32 129//39 147//39
f 147//39 132//38 148//38
f 148//38 133//37 149//37
f 149//37 134//16 150//16
f 150//16 135//36 151//36
f 151//36 136//35 152//35
f 152//35 137//34 153//34
f 153//34 138//1 154//1
f 154//1 139//45 155//45
f 155//45 140//44 156//44
f 156//44 141//43 157//43
f 157//43 142//23 158//23
f 158//23 143//42 159//42
f 159//42 144//41 160//41
f 160//41 145//40 161//40
f 161//40 130//32 146//32
f 162//33 146//33 163//33
f 146//33 147//33 163//33
f 164//33 147//33 165//33
f 147//33 148//33 165//33
f 166//33 148//33 167//33
f 148//33 149//33 167//33
f 168//33 149//33 169//33
f 149//33 150//33 169//33
f 170//33 150//33 171//33
f 150//33 151//33 171//33
f 172//33 151//33 173//33
f 151//33 152//33 173//33
f 174//33 152//33 175//33
f 152//33 153//33 175//33
f 176//33 153//33 177//33
f 153//33 154//33 177//33
f 178//33 154//33 179//33
f 154//33 155//33 179//33
f 180//33 155//33 181//33
f 155//33 156//33 181//33
f 182//33 156//33 183//33
f 156//33 157//33 183//33
f 184//33 157//33 185//33
f 157//33 158//33 185//33
f 186//33 158//33 187//33
f 158//33 159//33 187//33
f 188//33 159//33 189//33
f 159//33 160//33 189//33
f 190//33 160//33 191//33
f 160//33 161//33 191//33
f 192//33 161//33 193//33
f 161//33 146//33 193//33
f 147//33 164//33 163//33
f 148//33 166//33 165//33
f 149//33 168//33 167//33
f 150//33 170//33 169//33
f 151//33 172//33 171//33
f 152//33 174//33 173//33
f 153//33 176//33 175//33
f 154//33 178//33 177//33
f 155//33 180//33 179//33
f 156//33 182//33 181//33
f 157//33 184//33 183//33
f 158//33 186//33 185//33
f 159//33 188//33 187//33
f 160//33 190//33 189//33
f 161//33 192//33 191//33
f 146//33 162//33 193//33
f 194//33 195//33 196//33
f 195//33 197//33 196//33
f 197//33 198//33 196//33
f 198//33 199//33 196//33
f 199//33 200//33 196//33
f 200//33 201//33 196//33
f 201//33 202//33 196//33
f 202//33 203//33 196//33
f 203//33 204//33 196//33
f 204//33 205//33 196//33
f 205//33 206//33 196//33
f 206//33 207//33 196//33
f 207//33 208//33 196//33
f 208//33 209//33 196//33
f 209//33 210//33 196//33
f 210//33 194//33 196//33
f 163//54 195//45 162//1
f 162//1 195//45 194//1
f 165//53 197//44 164//45
f 164//45 197//44 195//45
f 167//52 198//43 166//44
f 166//44 198//43 197//44
f 169//51 199//23 168//43
f 168//43 199//23 198//43
f 171//50 200//42 170//23
f 170//23 200//42 199//23
f 173//49 201//41 172//42
f 172//42 201//41 200//42
f 175//48 202//40 174//41
f 174//41 202//40 201//41
f 177//47 203//32 176//40
f 176//40 203//32 202//40
f 179//62 204//39 178//32
f 178//32 204//39 203//32
f 181//61 205//38 180//39
f 180//39 205//38 204//39
f 183//60 206//37 182//38
f 182//38 206//37 205//38
f 185//59 207//16 184//37
f 184//37 207//16 206//37
f 187//58 208//36 186//16
f 186//16 208//36 207//16
f 189//57 209//35 188//36
f 188//36 209//35 208//36
f 191//56 210//34 190//35
f 190//35 210//34 209//35
f 193//55 194//1 192//34
f 192//34 194//1 210//34
f 195//45 163//54 164//45
f 197//44 165//53 166//44
f 198//43 167//52 168//43
f 199//23 169//51 170//23
f 200//42 171//50 172//42
f 201//41 173//49 174//41
f 202//40 175//48 176//40
f 203//32 177//47 178//32
f 204//39 179//62 180//39
f 205//38 181//61 182//38
f 206//37 183//60 184//37
f 207//16 185//59 186//16
f 208//36 187//58 188//36
f 209//35 189//57 190//35
f 210//34 191//56 192//34
f 194//1 193//55 162//1
g sweethome3d_window_pane_4
usemtl lightyellow
v -14.0 -2.10537 6.2729
v -14.0 -2.25 7.0
v -14.0 -0.35 7.0
v -14.0 -1.6935 5.6565
v -14.0 -1.0771 5.24463
v -14.0 -0.35 5.1
v -14.0 0.3771 5.24463
v -14.0 0.9935 5.6565
v -14.0 1.40537 6.2729
v -14.0 1.55 7.0
v -14.0 1.40537 7.7271
v -14.0 0.9935 8.3435
v -14.0 0.3771 8.75537
v -14.0 -0.35 8.9
v -14.0 -1.0771 8.75537
v -14.0 -1.6935 8.3435
v -14.0 -2.10537 7.7271
v 14.0 -2.25 7.0
v 14.0 -2.10537 6.2729
v 14.0 -1.6935 5.6565
v 14.0 -1.0771 5.24463
v 14.0 -0.35 5.1
v 14.0 0.3771 5.24463
v 14.0 0.9935 5.6565
v 14.0 1.40537 6.2729
v 14.0 1.55 7.0
v 14.0 1.40537 7.7271
v 14.0 0.9935 8.3435
v 14.0 0.3771 8.75537
v 14.0 -0.35 8.9
v 14.0 -1.0771 8.75537
v 14.0 -1.6935 8.3435
v 14.0 -2.10537 7.7271
v 14.0 -0.35 7.0
f 211//33 212//33 213//33
f 214//33 211//33 213//33
f 215//33 214//33 213//33
f 216//33 215//33 213//33
f 217//33 216//33 213//33
f 218//33 217//33 213//33
f 219//33 218//33 213//33
f 220//33 219//33 213//33
f 221//33 220//33 213//33
f 222//33 221//33 213//33
f 223//33 222//33 213//33
f 224//33 223//33 213//33
f 225//33 224//33 213//33
f 226//33 225//33 213//33
f 227//33 226//33 213//33
f 212//33 227//33 213//33
f 228//16 212//16 211//37
f 229//37 211//37 214//38
f 230//38 214//38 215//39
f 231//39 215//39 216//32
f 232//32 216//32 217//40
f 233//40 217//40 218//41
f 234//41 218//41 219//42
f 235//42 219//42 220//23
f 236//23 220//23 221//43
f 237//43 221//43 222//44
f 238//44 222//44 223//45
f 239//45 223//45 224//1
f 240//1 224//1 225//34
f 241//34 225//34 226//35
f 242//35 226//35 227//36
f 243//36 227//36 212//16
f 228//16 211//37 229//37
f 229//37 214//38 230//38
f 230//38 215//39 231//39
f 231//39 216//32 232//32
f 232//32 217//40 233//40
f 233//40 218//41 234//41
f 234//41 219//42 235//42
f 235//42 220//23 236//23
f 236//23 221//43 237//43
f 237//43 222//44 238//44
f 238//44 223//45 239//45
f 239//45 224//1 240//1
f 240//1 225//34 241//34
f 241//34 226//35 242//35
f 242//35 227//36 243//36
f 243//36 212//16 228//16
f 244//46 228//46 229//46
f 244//46 229//46 230//46
f 244//46 230//46 231//46
f 244//46 231//46 232//46
f 244//46 232//46 233//46
f 244//46 233//46 234//46
f 244//46 234//46 235//46
f 244//46 235//46 236//46
f 244//46 236//46 237//46
f 244//46 237//46 238//46
f 244//46 238//46 239//46
f 244//46 239//46 240//46
f 244//46 240//46 241//46
f 244//46 241//46 242//46
f 244//46 242//46 243//46
f 244//46 243//46 228//46
