# Export for compatibility
mtllib model.mtl
g sweethome3d_window_pane_1
usemtl flltgrey
v 0.345 0.244 -0.0125
v -0.345 0.244 -0.0125
v 0.0 0.244 -0.0175
v 0.345 0.244 -0.0225
v -0.345 0.244 -0.0225
v 0.345 1.164 -0.0175
v 0.345 2.084 -0.0225
v 0.345 2.084 -0.0125
v 0.0 1.164 -0.0125
v -0.345 2.084 -0.0125
v -0.345 1.164 -0.0175
v -0.345 2.084 -0.0225
v 0.0 2.084 -0.0175
v 0.0 1.164 -0.0225
vn 0.0 -1.0 0.0
vn 1.0 0.0 0.0
vn 0.0 0.0 1.0
vn -1.0 0.0 0.0
vn 0.0 1.0 0.0
vn 0.0 0.0 -1.0
f 1//1 2//1 3//1
f 4//1 1//1 3//1
f 5//1 4//1 3//1
f 2//1 5//1 3//1
f 1//2 4//2 6//2
f 4//2 7//2 6//2
f 7//2 8//2 6//2
f 8//2 1//2 6//2
f 2//3 1//3 9//3
f 1//3 8//3 9//3
f 8//3 10//3 9//3
f 10//3 2//3 9//3
f 5//4 2//4 11//4
f 2//4 10//4 11//4
f 10//4 12//4 11//4
f 12//4 5//4 11//4
f 10//5 8//5 13//5
f 8//5 7//5 13//5
f 7//5 12//5 13//5
f 12//5 10//5 13//5
f 4//6 5//6 14//6
f 5//6 12//6 14//6
f 12//6 7//6 14//6
f 7//6 4//6 14//6
g Gond_2
usemtl white
v -0.43308 2.01433 -0.0075
v -0.42308 2.01433 0.0025
v -0.43308 2.01433 0.0025
v -0.44308 2.01433 0.0025
v -0.43308 2.01433 0.0125
v -0.42308 2.05433 0.0025
v -0.43308 2.05433 -0.0075
v -0.44308 2.05433 0.0025
v -0.43308 2.05433 0.0125
v -0.43308 2.05433 0.0025
f 15//1 16//1 17//1
f 18//1 15//1 17//1
f 19//1 18//1 17//1
f 16//1 19//1 17//1
f 20//2 16//2 15//6
f 21//6 15//6 18//4
f 22//4 18//4 19//3
f 23//3 19//3 16//2
f 20//2 15//6 21//6
f 21//6 18//4 22//4
f 22//4 19//3 23//3
f 23//3 16//2 20//2
f 24//5 20//5 21//5
f 24//5 21//5 22//5
f 24//5 22//5 23//5
f 24//5 23//5 20//5
g Gond_1_3
usemtl white
v -0.433 1.168 -0.0075
v -0.423 1.168 0.0025
v -0.433 1.168 0.0025
v -0.443 1.168 0.0025
v -0.433 1.168 0.0125
v -0.423 1.208 0.0025
v -0.433 1.208 -0.0075
v -0.443 1.208 0.0025
v -0.433 1.208 0.0125
v -0.433 1.208 0.0025
f 25//1 26//1 27//1
f 28//1 25//1 27//1
f 29//1 28//1 27//1
f 26//1 29//1 27//1
f 30//2 26//2 25//6
f 31//6 25//6 28//4
f 32//4 28//4 29//3
f 33//3 29//3 26//2
f 30//2 25//6 31//6
f 31//6 28//4 32//4
f 32//4 29//3 33//3
f 33//3 26//2 30//2
f 34//5 30//5 31//5
f 34//5 31//5 32//5
f 34//5 32//5 33//5
f 34//5 33//5 30//5
g Gond_2_4
usemtl white
v -0.433 0.322 -0.0075
v -0.423 0.322 0.0025
v -0.433 0.322 0.0025
v -0.443 0.322 0.0025
v -0.433 0.322 0.0125
v -0.423 0.362 0.0025
v -0.433 0.362 -0.0075
v -0.443 0.362 0.0025
v -0.433 0.362 0.0125
v -0.433 0.362 0.0025
f 35//1 36//1 37//1
f 38//1 35//1 37//1
f 39//1 38//1 37//1
f 36//1 39//1 37//1
f 40//2 36//2 35//6
f 41//6 35//6 38//4
f 42//4 38//4 39//3
f 43//3 39//3 36//2
f 40//2 35//6 41//6
f 41//6 38//4 42//4
f 42//4 39//3 43//3
f 43//3 36//2 40//2
f 44//5 40//5 41//5
f 44//5 41//5 42//5
f 44//5 42//5 43//5
f 44//5 43//5 40//5
g Poignee_5
usemtl white
v 0.37562 1.14792 0.0098
v 0.38645 1.16654 0.0076
v 0.37562 1.1489 0.03126
v 0.38645 1.16755 0.03324
v 0.3648 1.16654 0.0076
v 0.3648 1.16755 0.03324
v 0.37562 1.1441 0.04598
v 0.38645 1.15195 0.06301
v 0.3648 1.15195 0.06301
v 0.37562 1.09649 0.0499
v 0.38645 1.09672 0.06865
v 0.3648 1.09672 0.06865
v 0.37563 1.04581 0.04884
v 0.38645 1.0451 0.06758
v 0.3648 1.0451 0.06758
v 0.37562 1.16033 0.00833
v 0.37562 1.04533 0.06133
vn 0.00092 -0.9990325 0.04397011
vn 0.84698945 0.53125966 -0.019289987
vn 0.017390085 -0.98470485 -0.17336085
vn 0.8099522 0.56743157 0.1483204
vn -0.8466231 0.531782 -0.020910077
vn -0.80539596 0.57664716 0.13716932
vn 0.036839932 -0.6810188 -0.7313387
vn 0.7565019 0.37954095 0.5325913
vn -0.75309145 0.3717507 0.542821
vn -0.0016299989 -0.03518998 -0.99937934
vn 0.85147154 0.021720039 0.52395093
vn -0.85221845 0.024989953 0.522589
vn -0.00002 0.020740101 -0.9997849
vn 0.8618775 -0.010469969 0.5070085
vn -0.8618892 -0.01041999 0.50698954
vn -0.0 -0.11735008 -0.9930907
vn 0.0 -0.99928224 -0.037880085
f 45//7 46//8 47//9
f 46//8 48//10 47//9
f 46//8 49//11 48//10
f 49//11 50//12 48//10
f 49//11 45//7 50//12
f 45//7 47//9 50//12
f 47//9 48//10 51//13
f 48//10 52//14 51//13
f 48//10 50//12 52//14
f 50//12 53//15 52//14
f 50//12 47//9 53//15
f 47//9 51//13 53//15
f 51//13 52//14 54//16
f 52//14 55//17 54//16
f 52//14 53//15 55//17
f 53//15 56//18 55//17
f 53//15 51//13 56//18
f 51//13 54//16 56//18
f 54//16 55//17 57//19
f 55//17 58//20 57//19
f 55//17 56//18 58//20
f 56//18 59//21 58//20
f 56//18 54//16 59//21
f 54//16 57//19 59//21
f 46//22 45//22 60//22
f 49//22 46//22 60//22
f 45//22 49//22 60//22
f 57//23 58//23 61//23
f 58//23 59//23 61//23
f 59//23 57//23 61//23
g Fenetre_6
usemtl white
v 0.425 0.164 0.0125
v -0.425 0.164 0.0125
v 0.0 0.164 -0.0175
v 0.425 0.164 -0.0475
v -0.425 0.164 -0.0475
v 0.425 1.164 -0.0175
v 0.425 2.164 -0.0475
v 0.425 2.164 0.0125
v -0.425 1.164 -0.0175
v -0.425 2.164 0.0125
v -0.425 2.164 -0.0475
v 0.0 2.164 -0.0175
v 0.204 0.249 0.0125
v -0.204 0.249 0.0125
v 0.34 0.364 0.0125
v 0.34 0.615 0.0125
v 0.34 1.964 0.0125
v 0.34 2.079 0.0125
v -0.34 0.364 0.0125
v -0.34 0.615 0.0125
v 0.204 0.249 -0.0475
v 0.34 0.249 -0.0475
v -0.34 0.364 -0.0475
v -0.34 0.615 -0.0475
v 0.34 2.079 -0.0475
v 0.34 0.364 -0.0475
v 0.34 0.615 -0.0475
v 0.34 0.249 0.0125
v -0.34 0.249 0.0125
v 0.34 1.713 0.0125
v -0.34 1.964 0.0125
v -0.34 2.079 0.0125
v -0.34 1.713 0.0125
v -0.204 0.249 -0.0475
v -0.34 1.964 -0.0475
v -0.34 1.713 -0.0475
v 0.34 1.713 -0.0475
v -0.204 2.079 0.0125
v 0.204 2.079 0.0125
v -0.34 0.249 -0.0475
v 0.204 2.079 -0.0475
v 0.34 1.964 -0.0475
v -0.204 2.079 -0.0475
v 0.34 2.05025 -0.0475
v 0.34 0.27775 -0.0475
v -0.34 2.079 -0.0475
v -0.34 2.05025 -0.0475
v 0.34 0.25619 0.0125
v -0.34 0.27775 -0.0475
v -0.306 2.079 -0.0475
v 0.0 0.249 -0.0175
v 0.34 1.164 -0.0175
v -0.34 1.164 -0.0175
v 0.0 2.079 -0.0175
f 62//1 63//1 64//1
f 65//1 62//1 64//1
f 66//1 65//1 64//1
f 63//1 66//1 64//1
f 62//2 65//2 67//2
f 65//2 68//2 67//2
f 68//2 69//2 67//2
f 69//2 62//2 67//2
f 66//4 63//4 70//4
f 63//4 71//4 70//4
f 71//4 72//4 70//4
f 72//4 66//4 70//4
f 71//5 69//5 73//5
f 69//5 68//5 73//5
f 68//5 72//5 73//5
f 72//5 71//5 73//5
f 62//3 74//3 75//3
f 62//3 75//3 63//3
f 76//3 62//3 77//3
f 62//3 69//3 77//3
f 78//3 69//3 79//3
f 69//3 71//3 79//3
f 63//3 80//3 81//3
f 71//3 63//3 81//3
f 65//6 82//6 83//6
f 65//6 66//6 82//6
f 84//6 66//6 85//6
f 66//6 72//6 85//6
f 72//6 68//6 86//6
f 65//6 87//6 88//6
f 68//6 65//6 88//6
f 74//3 62//3 89//3
f 63//3 75//3 90//3
f 69//3 78//3 91//3
f 77//3 69//3 91//3
f 71//3 92//3 93//3
f 71//3 81//3 94//3
f 82//6 66//6 95//6
f 72//6 96//6 97//6
f 85//6 72//6 97//6
f 68//6 88//6 98//6
f 80//3 63//3 90//3
f 93//3 99//3 71//3
f 99//3 100//3 71//3
f 100//3 79//3 71//3
f 92//3 71//3 94//3
f 95//6 66//6 101//6
f 86//6 102//6 72//6
f 103//6 68//6 98//6
f 102//6 104//6 72//6
f 103//6 105//6 68//6
f 105//6 86//6 68//6
f 83//6 106//6 65//6
f 106//6 87//6 65//6
f 107//6 108//6 72//6
f 108//6 96//6 72//6
f 76//3 109//3 62//3
f 109//3 89//3 62//3
f 84//6 110//6 66//6
f 110//6 101//6 66//6
f 104//6 111//6 72//6
f 111//6 107//6 72//6
f 112//5 75//5 74//5
f 82//5 112//5 83//5
f 112//5 82//5 95//5
f 75//5 112//5 90//5
f 77//4 113//4 76//4
f 113//4 98//4 88//4
f 113//4 77//4 91//4
f 114//2 81//2 80//2
f 114//2 94//2 81//2
f 114//2 85//2 97//2
f 115//1 100//1 99//1
f 100//1 115//1 79//1
f 115//1 104//1 102//1
f 89//5 83//5 74//5
f 74//5 83//5 112//5
f 101//5 90//5 95//5
f 95//5 90//5 112//5
f 113//4 88//4 87//4
f 76//4 113//4 87//4
f 105//4 78//4 86//4
f 86//4 78//4 79//4
f 113//4 91//4 78//4
f 78//4 105//4 103//4
f 113//4 78//4 103//4
f 85//2 114//2 84//2
f 114//2 80//2 84//2
f 107//2 93//2 108//2
f 108//2 93//2 92//2
f 114//2 97//2 96//2
f 92//2 114//2 96//2
f 94//2 114//2 92//2
f 86//1 79//1 102//1
f 102//1 79//1 115//1
f 111//1 99//1 107//1
f 107//1 99//1 93//1
f 104//1 115//1 111//1
f 111//1 115//1 99//1
f 109//4 106//4 89//4
f 89//4 106//4 83//4
f 106//4 109//4 76//4
f 106//4 76//4 87//4
f 98//4 113//4 103//4
f 80//2 110//2 84//2
f 110//2 80//2 101//2
f 101//2 80//2 90//2
f 108//2 92//2 96//2
g Tour_Fenetre_7
usemtl white
v 0.0 0.162 -0.10798
v -0.21031 0.162 -0.00519
v 0.21031 0.162 -0.00519
v 0.34212 0.162 -0.27519
v -0.34212 0.162 -0.27519
v -0.4 0.162 -0.00519
v 0.4 1.161 -0.10798
v 0.4 2.01543 -0.27519
v 0.4 0.30657 -0.27519
v 0.4 1.68626 -0.00519
v 0.4 2.08969 -0.00519
v 0.4 0.63574 -0.00519
v -0.4 1.161 -0.10798
v -0.4 1.68626 -0.00519
v -0.4 0.63574 -0.00519
v -0.4 0.30657 -0.27519
v -0.4 2.01543 -0.27519
v 0.0 2.16 -0.10798
v 0.21031 2.16 -0.00519
v -0.21031 2.16 -0.00519
v 0.4 2.16 -0.00519
v -0.34212 2.16 -0.27519
v 0.34212 2.16 -0.27519
v 0.38201 0.162 -0.27519
v 0.4 0.162 -0.27519
v 0.4 0.162 -0.00519
v -0.4 0.162 -0.27519
v 0.4 0.16867 -0.27519
v 0.4 0.23231 -0.00519
v 0.4 0.23231 -0.27519
v 0.4 2.15333 -0.27519
v 0.4 2.08969 -0.27519
v -0.4 0.16867 -0.27519
v -0.4 0.23231 -0.00519
v -0.4 0.23231 -0.27519
v -0.4 2.16 -0.27519
v -0.4 2.16 -0.00519
v -0.4 2.15333 -0.27519
v -0.4 2.08969 -0.00519
v -0.4 2.08969 -0.27519
v 0.4 2.16 -0.27519
v -0.38201 2.16 -0.27519
v 0.455 0.10461 -0.00519
v -0.455 0.10461 -0.00519
v 0.0 0.10461 -0.14019
v 0.455 0.10461 -0.27519
v -0.455 0.10461 -0.27519
v 0.455 1.161 -0.14019
v 0.455 2.21739 -0.27519
v 0.455 2.21739 -0.00519
v -0.455 1.161 -0.14019
v -0.455 2.21739 -0.00519
v -0.455 2.21739 -0.27519
v 0.0 2.21739 -0.14019
f 116//5 117//5 118//5
f 116//5 119//5 120//5
f 117//5 116//5 121//5
f 122//4 123//4 124//4
f 122//4 125//4 126//4
f 122//4 127//4 125//4
f 128//2 129//2 130//2
f 128//2 131//2 132//2
f 133//1 134//1 135//1
f 134//1 133//1 136//1
f 133//1 137//1 138//1
f 139//5 118//5 140//5
f 140//5 118//5 141//5
f 119//5 116//5 139//5
f 139//5 116//5 118//5
f 142//5 121//5 120//5
f 120//5 121//5 116//5
f 140//4 141//4 143//4
f 143//4 141//4 144//4
f 143//4 144//4 145//4
f 144//4 122//4 145//4
f 127//4 122//4 144//4
f 126//4 146//4 147//4
f 122//4 126//4 147//4
f 148//2 149//2 142//2
f 142//2 149//2 121//2
f 128//2 130//2 149//2
f 149//2 148//2 150//2
f 128//2 149//2 150//2
f 151//2 152//2 153//2
f 153//2 152//2 154//2
f 128//2 132//2 155//2
f 154//2 128//2 155//2
f 129//2 128//2 154//2
f 156//1 136//1 138//1
f 138//1 136//1 133//1
f 157//1 135//1 151//1
f 151//1 135//1 152//1
f 137//1 133//1 157//1
f 157//1 133//1 135//1
f 122//4 124//4 145//4
f 123//4 122//4 147//4
f 146//4 126//4 156//4
f 156//4 126//4 136//4
f 131//2 128//2 150//2
f 153//2 154//2 155//2
f 158//1 159//1 160//1
f 161//1 158//1 160//1
f 162//1 161//1 160//1
f 159//1 162//1 160//1
f 158//2 161//2 163//2
f 161//2 164//2 163//2
f 164//2 165//2 163//2
f 165//2 158//2 163//2
f 162//4 159//4 166//4
f 159//4 167//4 166//4
f 167//4 168//4 166//4
f 168//4 162//4 166//4
f 167//5 165//5 169//5
f 165//5 164//5 169//5
f 164//5 168//5 169//5
f 168//5 167//5 169//5
f 158//3 118//3 117//3
f 158//3 117//3 159//3
f 165//3 126//3 125//3
f 158//3 165//3 125//3
f 167//3 154//3 152//3
f 165//3 167//3 152//3
f 159//3 130//3 129//3
f 159//3 129//3 167//3
f 162//6 120//6 119//6
f 162//6 119//6 161//6
f 168//6 132//6 131//6
f 168//6 131//6 162//6
f 164//6 138//6 137//6
f 164//6 137//6 168//6
f 161//6 124//6 123//6
f 161//6 123//6 164//6
f 118//3 158//3 141//3
f 159//3 117//3 121//3
f 158//3 125//3 127//3
f 165//3 135//3 134//3
f 165//3 152//3 135//3
f 159//3 149//3 130//3
f 154//3 167//3 129//3
f 120//6 162//6 142//6
f 161//6 139//6 140//6
f 161//6 119//6 139//6
f 168//6 155//6 132//6
f 150//6 162//6 131//6
f 164//6 147//6 146//6
f 168//6 151//6 153//6
f 161//6 145//6 124//6
f 147//6 164//6 123//6
f 158//3 144//3 141//3
f 149//3 159//3 121//3
f 144//3 158//3 127//3
f 165//3 134//3 136//3
f 142//6 162//6 148//6
f 161//6 140//6 143//6
f 138//6 164//6 156//6
f 164//6 146//6 156//6
f 137//6 157//6 168//6
f 157//6 151//6 168//6
f 155//6 168//6 153//6
f 126//3 165//3 136//3
f 162//6 150//6 148//6
f 145//6 161//6 143//6
