# Export for compatibility
mtllib model.mtl
g Cube_1_1
usemtl white
v 0.5 -0.5 0.5
v -0.5 -0.5 0.5
v 0.0 -0.5 0.0
v 0.5 -0.5 -0.5
v -0.5 -0.5 -0.5
v 0.5 0.0 0.0
v 0.5 0.5 -0.5
v 0.5 0.5 0.5
v 0.0 0.0 0.5
v -0.5 0.5 0.5
v -0.5 0.0 0.0
v -0.5 0.5 -0.5
v 0.0 0.5 0.0
v 0.0 0.0 -0.5
vn 0.0 -1.0 0.0
vn 1.0 0.0 0.0
vn 0.0 0.0 1.0
vn -1.0 0.0 0.0
vn 0.0 1.0 0.0
vn 0.0 0.0 -1.0
f 1//1 2//1 3//1
f 4//1 1//1 3//1
f 5//1 4//1 3//1
f 2//1 5//1 3//1
f 1//2 4//2 6//2
f 4//2 7//2 6//2
f 7//2 8//2 6//2
f 8//2 1//2 6//2
f 2//3 1//3 9//3
f 1//3 8//3 9//3
f 8//3 10//3 9//3
f 10//3 2//3 9//3
f 5//4 2//4 11//4
f 2//4 10//4 11//4
f 10//4 12//4 11//4
f 12//4 5//4 11//4
f 10//5 8//5 13//5
f 8//5 7//5 13//5
f 7//5 12//5 13//5
f 12//5 10//5 13//5
f 4//6 5//6 14//6
f 5//6 12//6 14//6
f 12//6 7//6 14//6
f 7//6 4//6 14//6
