<?xml version="1.0" encoding="utf-8"?>
<!-- Generator: Adobe Illustrator 23.0.2, SVG Export Plug-In . SVG Version: 6.00 Build 0)  -->
<svg version="1.1" id="Réteg_1" xmlns="http://www.w3.org/2000/svg" xmlns:xlink="http://www.w3.org/1999/xlink" x="0px" y="0px"
	 viewBox="0 0 188.6 395.9" style="enable-background:new 0 0 188.6 395.9;" xml:space="preserve">
<title>cimerkep_28</title>
<g>
	<g>
		<path style="fill:#F7931E;" d="M99.5,23.3c0,0,1-6.9,0-11.5c-0.5-2.6-4.5-11-4.5-11s5.1,4.7,6.4,7.7l1.3,2.9
			c0.9-2.2,1.9-4.3,3.1-6.3c2-3.6,3.9-4.3,3.9-4.3c-1.6,4.2-3,8.5-4,12.9c-0.5,3.4-0.8,6.8-0.9,10.2L99.5,23.3z"/>
		<path style="fill:none;stroke:#000000;stroke-width:1.76;stroke-linecap:round;stroke-linejoin:round;" d="M99.5,23.3
			c0,0,1-6.9,0-11.5c-0.5-2.6-4.5-11-4.5-11s5.1,4.7,6.4,7.7l1.3,2.9c0.9-2.2,1.9-4.3,3.1-6.3c2-3.6,3.9-4.3,3.9-4.3
			c-1.6,4.2-3,8.5-4,12.9c-0.5,3.4-0.8,6.8-0.9,10.2L99.5,23.3z"/>
		<path style="fill:#009A3D;" d="M89.9,74.1c0,0-8.4-6.9-6.4-17.4s7.7-18.2,9.5-26.1s6.4-7.9,10.2-8.4s7.9,3.3,8.9,8.7
			s7.3,16.6,8.7,24.5c1.8,10.5-6.7,18.7-6.7,18.7s2.8,26.8-8.4,39.9s-27.6,13.8-38.6,11.5s-19.4,6.9-10.2,15.9s24,6.1,33.2,3.8
			s31.7-14.6,60.1-7.7s40.7,29.9,36.8,56s-24.8,40.2-47.1,40.2s-57.8-23-84.4-18.4s-24.3,29.9-23.5,34.5s4.6,25.1,23.3,23.5
			s34.5-30.9,62.4-31.4s40.1,20.4,42.7,32.7s-1.3,38.6-24.3,44.7s-43.2,2.6-50.6,7.7s-6.9,14.6,0.5,22.5s13.8,17.9,13.8,25.3
			c0,4.8-0.6,9.6-1.5,14.3c0,0-0.8-19.9-10-28.1s-22-14.1-18.9-32.2s24.3-20.5,35.3-21.8s45.9-9.6,32.5-31.7
			c-12-19.7-36.8,2.8-42.2,7.9S74,305,48.2,302.1s-46.8-26.9-47.3-55s14.8-50.4,37.8-59.6s55.7-0.3,72.9,7.2s44.1,15.3,44.9-11.5
			c0.3-11-3.9-16.7-9.6-19.6c-8.1-4.1-19.3-2.2-24.1-1.6c-12.4,1.4-27.4,14.1-56.3,11.3s-41.2-24.6-40.4-40.7s9.6-30.9,25.1-34.2
			s24.3,4.1,34.3-1C97,91.4,89.9,74.1,89.9,74.1"/>
		<path style="fill:none;stroke:#000000;stroke-width:1.76;stroke-miterlimit:10;" d="M89.9,74.1c0,0-8.4-6.9-6.4-17.4
			s7.7-18.2,9.5-26.1s6.4-7.9,10.2-8.4s7.9,3.3,8.9,8.7s7.3,16.6,8.7,24.5c1.8,10.5-6.7,18.7-6.7,18.7s2.8,26.8-8.4,39.9
			s-27.6,13.8-38.6,11.5s-19.4,6.9-10.2,15.9s24,6.1,33.2,3.8s31.7-14.6,60.1-7.7s40.7,29.9,36.8,56s-24.8,40.2-47.1,40.2
			s-57.8-23-84.4-18.4s-24.3,29.9-23.5,34.5s4.6,25.1,23.3,23.5s34.5-30.9,62.4-31.4s40.1,20.4,42.7,32.7s-1.3,38.6-24.3,44.7
			s-43.2,2.6-50.6,7.7s-6.9,14.6,0.5,22.5s13.8,17.9,13.8,25.3c0,4.8-0.6,9.6-1.5,14.3c0,0-0.8-19.9-10-28.1s-22-14.1-18.9-32.2
			s24.3-20.5,35.3-21.8s45.9-9.6,32.5-31.7c-12-19.7-36.8,2.8-42.2,7.9S74,305,48.2,302.1s-46.8-26.9-47.3-55s14.8-50.4,37.8-59.6
			s55.7-0.3,72.9,7.2s44.1,15.3,44.9-11.5c0.3-11-3.9-16.7-9.6-19.6c-8.1-4.1-19.3-2.2-24.1-1.6c-12.4,1.4-27.4,14.1-56.3,11.3
			s-41.2-24.6-40.4-40.7s9.6-30.9,25.1-34.2s24.3,4.1,34.3-1C97,91.4,89.9,74.1,89.9,74.1z"/>
		<path style="fill:#F7931E;" d="M95,38.7c0,1.7-1,3.1-2.3,3.1s-2.3-1.4-2.3-3.1s1-3.1,2.3-3.1S95,37,95,38.7"/>
		<path style="fill:none;stroke:#000000;stroke-width:1.76;stroke-linecap:round;stroke-linejoin:round;" d="M95,38.7
			c0,1.7-1,3.1-2.3,3.1s-2.3-1.4-2.3-3.1s1-3.1,2.3-3.1S95,37,95,38.7z"/>
		<path style="fill:#F7931E;" d="M114.7,38.7c0,1.7-1,3.1-2.3,3.1s-2.3-1.4-2.3-3.1s1-3.1,2.3-3.1S114.7,37,114.7,38.7"/>
		<path style="fill:none;stroke:#000000;stroke-width:1.76;stroke-linecap:round;stroke-linejoin:round;" d="M114.7,38.7
			c0,1.7-1,3.1-2.3,3.1s-2.3-1.4-2.3-3.1s1-3.1,2.3-3.1S114.7,37,114.7,38.7z"/>
		
			<line style="fill:none;stroke:#000000;stroke-width:1.76;stroke-linecap:round;stroke-linejoin:round;" x1="102.3" y1="32.5" x2="102.3" y2="22.3"/>
		<path style="fill:none;stroke:#000000;stroke-width:1.76;stroke-linecap:round;stroke-linejoin:round;" d="M93.2,29.7l4.9,3.6
			c0,0,0.8-0.9,4.3-0.8c1.7,0,3.4,0.2,5,0.8l4.6-3.6"/>
		<path style="fill:none;stroke:#000000;stroke-width:1.76;stroke-linecap:round;stroke-linejoin:round;" d="M98.1,33.3
			c0,0-0.1,5,1.7,7.7c0.8,1.3,1.7,2.5,2.8,3.6c0,0,3.7-2.8,4.2-5.9c0.3-1.8,0.5-3.6,0.5-5.4"/>
		
			<line style="fill:none;stroke:#000000;stroke-width:1.76;stroke-linecap:round;stroke-linejoin:round;" x1="102.5" y1="44.5" x2="102.3" y2="71"/>
		<polyline style="fill:none;stroke:#000000;stroke-width:1.76;stroke-linecap:round;stroke-linejoin:round;" points="98.6,40.3 
			94.3,41.7 93.2,46.5 98.1,53.4 102.5,53.4 107.3,53.4 111.8,46 110.6,41.7 106.2,40.3 		"/>
		
			<line style="fill:none;stroke:#000000;stroke-width:1.76;stroke-linecap:round;stroke-linejoin:round;" x1="93.2" y1="46.5" x2="86.3" y2="47.5"/>
		
			<line style="fill:none;stroke:#000000;stroke-width:1.76;stroke-linecap:round;stroke-linejoin:round;" x1="118.3" y1="47" x2="111.8" y2="46"/>
		<path style="fill:none;stroke:#000000;stroke-width:1.76;stroke-linecap:round;stroke-linejoin:round;" d="M120.2,63.9
			c0,0-0.4-3.5-4.3-7.2c-2.3-2.2-5.5-3.4-8.7-3.3c2.1,3.1,3.8,6.4,5.2,9.9c1.3,3.4,1.9,7.1,1.7,10.8c-3.8-1.5-7.8-2.4-11.9-2.6
			c-6.1-0.1-12.3,3-12.3,3s0.3-6.7,1.8-10.6s6.2-10.5,6.2-10.5s-6.1-0.3-10.1,3.3s-4.6,5.8-4.6,5.8"/>
		<path style="fill:none;stroke:#000000;stroke-width:1.76;stroke-linecap:round;stroke-linejoin:round;" d="M114.2,74.1
			c0,0-10.7,3.6-14.8,6.1c-2.4,1.5-4.6,3.2-6.6,5.1c4.9-0.3,9.8,0.2,14.6,1.5c6.9,2.1,6.8,3.6,6.8,3.6s-13.9,2.3-17.8,2.8
			c-2.6,0.4-5.1,1-7.6,1.8c4.1,1.6,8,3.6,11.7,5.9c3.5,2.4,6.2,5.8,7.8,9.7c0,0-12.3-5.1-15.4-5.6s-13.5-5.9-13.5-5.9
			c2,4.4,3.4,9,4.2,13.8c0.9,6.7-4.2,13.5-4.2,13.5s-5.9-16.8-8-20.1s-6.1-8.5-6.1-8.5s1.6,8.5,0,15.4c-1.2,4.7-3.4,9-6.4,12.8
			c0,0,1.8-9.7-4.5-15.2s-15.1-6.5-15.1-6.5s7,8.4,9.1,13s5.4,13.3,5.4,13.3s-6.4-5.1-13.1-6.6S27,126,27,126s11.2,4,16.6,7.1
			s11.1,5.5,11.1,5.5s-10.8-0.9-16.2,3.9c-3.1,2.7-5.5,6.2-6.9,10.1c5.4-2.1,11-3.8,16.6-5.2c7.7-1.8,13.7-2.6,13.7-2.6
			s-5,3.4-6.3,12.1c-0.8,4.9-0.3,10,1.5,14.6c0,0,1.9-9.5,7-14.4s9.7-9.7,9.7-9.7c-0.7,4.7-0.2,9.4,1.5,13.8c1.7,4.6,4.4,8.7,8,12
			c-1.1-4.9-1.1-10.1,0-15c1.2-4.8,3.5-9.3,6.8-13c0,0,1.5,7.2,4.8,12.3s7.7,11.2,7.7,11.2s-1.5-12.8-0.3-18.1s2.9-10.6,2.9-10.6
			s3.2,6.4,6.6,11.5c2.6,3.8,5.4,7.5,8.4,11c-0.5-5.4,0-10.8,1.3-16.1c2.3-7.9,6.6-10.9,6.6-10.9s0,8.1,1.8,14
			c1.3,4,2.8,7.9,4.6,11.6c0,0,1.5-9.8,6.1-14.4s9.5-9.2,9.5-9.2s-2.6,9-2.6,15.6c0,3.5-0.2,7.1-0.7,10.6c0,0,4.8-10.1,12.5-12.9
			s11.1-3.8,11.1-3.8s-8.3,9.2-9.8,13.8c-1.6,4.3-3.4,8.4-5.5,12.5c0,0,4.4-5.1,14.2-5.1c5.4,0,10.8,0.3,16.2,1c0,0-12.9,5.6-17.7,8
			s-11.3,6.1-11.3,6.1c5.9-0.5,11.9,0.3,17.5,2.3c9.2,3.3,12.7,10,12.7,10s-14.5-1.8-20.4-1.8c-4.2,0.1-8.4,0.3-12.6,0.9
			c0,0,9.3,3.4,13.4,11s4,17.1,4,17.1s-7.4-10.6-13-14.2s-12-7.8-12-7.8s3,5.8,2,16.8s-8.1,16.1-8.1,16.1s-0.8-12-2.3-20.5
			s-6.1-12-6.1-12s-4.4,8.4-8,14.5S112,227.1,112,227.1c0.9-6.4,1.5-12.8,1.7-19.3c0-4.4-0.7-8.8-2.1-13c0,0-5.6,10.2-9.5,14.8
			S91,219.9,91,219.9c1.6-5.4,2.8-11,3.3-16.7c0.4-5-0.1-10.1-1.5-14.9c0,0-6.8,11.6-9.3,16s-10.3,11.3-10.3,11.3
			c0.8-6.2,1.1-12.4,1.1-18.7c-0.3-8.2-3.6-12.7-3.6-12.7s-2.8,12.7-5.4,17.8s-7.2,12.9-7.2,12.9s-1.3-13.7-4.1-20.4
			s-5.5-9.7-5.5-9.7s0.4,10.2-0.1,15.8S46,218.4,46,218.4s-3.1-10.5-9-16.2c-3.3-3.3-7.5-5.6-12-6.8c3.8,4.6,6.6,10,7.9,15.8
			c1.4,5.6,2.2,11.3,2.7,17.1c0,0-5.7-9.2-15.4-12s-12.2-0.5-12.2-0.5s9.7,6.1,14,10.7s10.2,12,10.2,12c-5.5-1.7-11.2-2.2-16.9-1.6
			C5.2,238,1,241.8,1,241.8c5.8,0.1,11.6,0.7,17.3,1.5c4.6,0.9,9.2,2.3,13.5,4c0,0-14.3,4.7-19.2,8C7.8,258.7,4.8,267,4.8,267
			c4.9-3.7,10.6-6.4,16.6-7.8c9.2-2,13.1-0.7,13.1-0.7s-8.2,4.3-12.8,11.2s-5.2,15.9-5.2,15.9s5-7.8,12.9-11.9l11.1-5.7
			c-2.1,4.7-3.7,9.6-4.7,14.7c-2,9.5-0.3,16.2-0.3,16.2c2.1-5.2,4.8-10.2,8-14.9c2.6-3.8,5.4-7.3,8.5-10.7c0,0-1.1,5.1,2,15.1
			s6.3,13.7,6.3,13.7c-0.4-6.3-0.1-12.6,0.8-18.8c1.5-9,1.2-11.7,1.2-11.7s1.7,7.3,9.3,13.5c3.6,3.1,7.5,5.8,11.6,8.3
			c0,0-6.2-9.3-7.8-17.2s-0.8-12.2-0.8-12.2s5.3,9.7,10.2,13.5c3.1,2.4,6.6,4.4,10.2,5.9c-3.5-4.2-6-9-7.4-14.3
			c-1.2-5-1.2-10.3,0.1-15.2c0,0,4.2,8.1,9.3,12.2c3.4,2.7,7,5.1,10.8,7.2c-3.7-4.3-5.8-9.8-6-15.4c-0.5-9.7-0.5-12.1-0.5-12.1
			s4.3,9.3,8.2,14.7c2.1,3,4.4,5.9,6.8,8.6c0,0-2.7-8.4-2-16.3s3.3-10.7,3.3-10.7c0.6,5.6,1.7,11,3.3,16.4c2.6,7.7,4.8,9.3,4.8,9.3
			s-1.8-9.2,2.3-16.5c4.1-7.3,6.2-6.6,6.2-6.6s-3.3,7.8-3.3,13.7s0.2,11.1,0.2,11.1s4.9-8.3,9.8-12.1s7.3-4,7.3-4s-5,7.1-7.3,11.2
			s-5.4,8.8-5.4,8.8s6.4-5.2,12.6-6.5s9.6,0,9.6,0l-12,6.3c-2.6,1.5-5,3.5-6.9,5.7c0,0,3.9-0.9,11.3-0.1s10.9,2.3,10.9,2.3
			s-6.3,0.8-11.4,1.3s-9.6,4-9.6,4c3.5,0,7,0.4,10.4,1.3c3.7,0.9,6.9,3.1,9.2,6.2c0,0-13-1.1-16.3-1.1s-6,0.1-6,0.1s5.2,3.7,8.5,6.3
			s6.2,10.3,6.2,10.3c-3.7-2.6-7.5-5-11.5-7.1c-4.6-2.3-8.3-4.5-8.3-4.5s5.3,5.6,7.1,9.9c1.1,3.2,1.7,6.7,1.6,10.1
			c0,0-3.9-7.8-6.7-10.6s-6.8-6.5-6.8-6.5s3.8,8.1,3.8,11.9c-0.1,2.8-0.3,5.5-0.8,8.3c0,0-3.6-8.8-5.8-11.6s-4.7-5.5-4.7-5.5
			s1.8,7.3,2.3,10.9c0.3,2.6,0.2,5.1-0.3,7.6c-1.3-3.4-2.8-6.8-4.6-10c-1.1-1.9-6.5-6-6.5-6s2.2,5.6,1.9,10s-0.3,7.1-0.3,7.1
			c-1.2-3.3-2.7-6.4-4.6-9.4c-1.8-2.4-3.9-4.5-6.2-6.3c0,0,1.8,6.2,1.8,8.7S103,323,103,323s-2.9-7.3-4.2-9.4s-5-5-5-5
			s2.5,5.9,2.5,9s0,6.5,0,6.5s-2.7-6.5-5-9s-4.4-4.7-4.4-4.7s1.9,6.4,1.9,8.9c-0.1,2.1-0.3,4.2-0.7,6.3c-1.3-2.3-2.7-4.5-4.2-6.6
			c-1.2-1.7-6-4.1-6-4.1s1.8,4.8,2.4,7.3s1.8,8.1,1.8,8.1s-2.7-5-5.2-5.8c-2-0.5-4.1-0.7-6.1-0.7c2,1.3,3.8,2.8,5.4,4.6
			c1.7,2.3,4.2,6.2,4.2,6.2s-3.3-2.7-5.8-2.6c-1.9,0.1-3.8,0.6-5.6,1.5c2.4,0.2,4.6,0.9,6.7,2.1c2.9,1.9,4.7,3.1,4.7,3.1
			c-2.3-0.3-4.7,0.2-6.7,1.5c-3.3,2.2-2.7,3.4-2.7,3.4c1.9-0.5,3.8-0.8,5.8-0.9c1.7,0.1,3.4,0.4,5.1,0.9c-1.9,1-3.5,2.4-4.7,4.1
			l-1.6,2.5c1.7-0.6,3.4-1,5.2-1.2c1.8-0.1,3.5,0.1,5.2,0.6c0,0-3.3,2.3-3.7,3.3c-0.4,0.8-0.8,1.6-1.2,2.4c0,0,1.2,0.8,4.1,0
			c1.7-0.5,3.4-0.7,5.1-0.7l-2.4,4.5l6,0.4l-2.5,5.2l6.2,1.6l-3.3,4l4.5,4"/>
	</g>
</g>
</svg>
