<?xml version="1.0" encoding="utf-8"?>
<!-- Generator: Adobe Illustrator 23.0.2, SVG Export Plug-In . SVG Version: 6.00 Build 0)  -->
<svg version="1.1" id="Réteg_1" xmlns="http://www.w3.org/2000/svg" xmlns:xlink="http://www.w3.org/1999/xlink" x="0px" y="0px"
	 viewBox="0 0 139.1 272.6" style="enable-background:new 0 0 139.1 272.6;" xml:space="preserve">
<title>cimerkep_14</title>
<g>
	<g>
		
			<rect x="60.4" y="85.4" transform="matrix(0.3312 -0.9435 0.9435 0.3312 -41.8032 127.0541)" style="fill:#FFD200;" width="16.6" height="15.3"/>
		
			<rect x="60.4" y="85.4" transform="matrix(0.3312 -0.9435 0.9435 0.3312 -41.8032 127.0541)" style="fill:none;stroke:#000000;stroke-width:1.76;stroke-linecap:round;stroke-linejoin:round;" width="16.6" height="15.3"/>
		<path style="fill:#FFD200;" d="M106.9,10.4c-1.3,3.7-5.4,5.7-9.1,4.4c-3.7-1.3-5.7-5.4-4.4-9.1c1.3-3.7,5.4-5.7,9.1-4.4
			C106.2,2.6,108.2,6.7,106.9,10.4C106.9,10.4,106.9,10.4,106.9,10.4"/>
		<path style="fill:none;stroke:#000000;stroke-width:1.76;stroke-linecap:round;stroke-linejoin:round;" d="M106.9,10.4
			c-1.3,3.7-5.4,5.7-9.1,4.4c-3.7-1.3-5.7-5.4-4.4-9.1c1.3-3.7,5.4-5.7,9.1-4.4C106.2,2.6,108.2,6.7,106.9,10.4
			C106.9,10.4,106.9,10.4,106.9,10.4z"/>
		<path style="fill:#FFD200;" d="M40.3,86.5c-4.6-2.4,0.9-12.7,6.2-14.6s15-2.6,18.6,3.3c2.9,4.8,2,14.5-2.7,19.1s-12.1,5.2-14,1.3
			s0.7-5.7,6.6-5s6.3-7.3,4.6-10.8s-9.4-4.1-11.6,0s0.3,3.9-2.2,6.3S40.3,86.5,40.3,86.5"/>
		<path style="fill:none;stroke:#000000;stroke-width:1.76;stroke-linecap:round;stroke-linejoin:round;" d="M40.3,86.5
			c-4.6-2.4,0.9-12.7,6.2-14.6s15-2.6,18.6,3.3c2.9,4.8,2,14.5-2.7,19.1s-12.1,5.2-14,1.3s0.7-5.7,6.6-5s6.3-7.3,4.6-10.8
			s-9.4-4.1-11.6,0s0.3,3.9-2.2,6.3S40.3,86.5,40.3,86.5z"/>
		<path style="fill:#FFD200;" d="M73.1,18.6c0,0,4.9-5.3,0.2-8.3s-15.2,2.3-6.8,13.3s19.4,7.9,23.5,4.8s7.8-13,4.9-19.4
			S82.4,2.1,80.7,6.3s0.8,7.7,3.3,8.2c1.7,0.4,3.4,0.3,5-0.2c0.6,3.6-1.8,7-5.4,7.6c0,0,0,0,0,0C79.7,22.9,75.7,21.6,73.1,18.6"/>
		<path style="fill:none;stroke:#000000;stroke-width:1.76;stroke-linecap:round;stroke-linejoin:round;" d="M73.1,18.6
			c0,0,4.9-5.3,0.2-8.3s-15.2,2.3-6.8,13.3s19.4,7.9,23.5,4.8s7.8-13,4.9-19.4S82.4,2.1,80.7,6.3s0.8,7.7,3.3,8.2
			c1.7,0.4,3.4,0.3,5-0.2c0.6,3.6-1.8,7-5.4,7.6c0,0,0,0,0,0C79.7,22.9,75.7,21.6,73.1,18.6z"/>
		<path style="fill:#FFD200;" d="M31.6,32.7c-8.5,16.2,1.9,34,13.5,37.8s19.7,1.8,21.1-6.7s-8.4-8.4-12.2-4.6s-19,0.1-12.2-17.6
			S63.5,32,64.9,35c1.4,3,0.3,13.2,10,9.2c8.2-3.3,1.2-16.4-6.7-21c-6-3.5-26.7-9.7-36.7,9.6"/>
		<path style="fill:none;stroke:#000000;stroke-width:1.76;stroke-linecap:round;stroke-linejoin:round;" d="M31.6,32.7
			c-8.5,16.2,1.9,34,13.5,37.8s19.7,1.8,21.1-6.7s-8.4-8.4-12.2-4.6s-19,0.1-12.2-17.6S63.5,32,64.9,35c1.4,3,0.3,13.2,10,9.2
			c8.2-3.3,1.2-16.4-6.7-21C62.3,19.6,41.6,13.5,31.6,32.7z"/>
		<path style="fill:#FFD200;" d="M97.2,106.5c5.1,1,7.2-10.5,4.3-15.3s-10.1-11.4-16.6-9.1C79.6,84,74.3,92.2,75,98.7
			s6.2,11.7,10.1,9.8s3.1-4.9-2-8s-0.4-9.6,3.2-11.3s9.9,2.7,9.1,7.3s-2.6,2.9-2.2,6.3S97.2,106.5,97.2,106.5"/>
		<path style="fill:none;stroke:#000000;stroke-width:1.76;stroke-linecap:round;stroke-linejoin:round;" d="M97.2,106.5
			c5.1,1,7.2-10.5,4.3-15.3s-10.1-11.4-16.6-9.1C79.6,84,74.3,92.2,75,98.7s6.2,11.7,10.1,9.8s3.1-4.9-2-8s-0.4-9.6,3.2-11.3
			s9.9,2.7,9.1,7.3s-2.6,2.9-2.2,6.3S97.2,106.5,97.2,106.5z"/>
		<path style="fill:#FFD200;" d="M114.1,33c0,0-0.4-7.2,5-6.6s10.4,11.3-3,14.7S96,35,94.8,30s2-15,8.3-18.2s14,2.5,12.8,6.9
			s-5.4,5.4-7.8,4.3c-1.5-0.8-2.8-1.9-3.7-3.2c-2.7,2.4-3,6.6-0.6,9.3c0,0,0,0,0,0C106.2,32.2,110.2,33.7,114.1,33"/>
		<path style="fill:none;stroke:#000000;stroke-width:1.76;stroke-linecap:round;stroke-linejoin:round;" d="M114.1,33
			c0,0-0.4-7.2,5-6.6s10.4,11.3-3,14.7S96,35,94.8,30s2-15,8.3-18.2s14,2.5,12.8,6.9s-5.4,5.4-7.8,4.3c-1.5-0.8-2.8-1.9-3.7-3.2
			c-2.7,2.4-3,6.6-0.6,9.3c0,0,0,0,0,0C106.2,32.2,110.2,33.7,114.1,33z"/>
		<path style="fill:#FFD200;" d="M137.6,70c-3.6,18-22.7,25.4-34.2,21S86.9,80,91.2,72.6s11.8-1.3,12.4,4.1s14.8,12,20.6-6
			c5.8-18-11-21.2-13.9-19.8s-8.5,10.1-13.6,0.9C92.3,44,106,38.3,115,39.6C121.9,40.6,141.9,48.7,137.6,70"/>
		<path style="fill:none;stroke:#000000;stroke-width:1.76;stroke-linecap:round;stroke-linejoin:round;" d="M137.6,70
			c-3.6,18-22.7,25.4-34.2,21S86.9,80,91.2,72.6s11.8-1.3,12.4,4.1s14.8,12,20.6-6c5.8-18-11-21.2-13.9-19.8s-8.5,10.1-13.6,0.9
			C92.3,44,106,38.3,115,39.6C121.9,40.5,141.9,48.7,137.6,70z"/>
		<path style="fill:#FFD200;" d="M52.6,117.1L0.9,259.3c0,0-0.2,3.6,5,5.8c6.8,2.9,9-0.9,9-0.9L66.6,122L52.6,117.1z"/>
		<path style="fill:none;stroke:#000000;stroke-width:1.76;stroke-linecap:round;stroke-linejoin:round;" d="M52.6,117.1L0.9,259.3
			c0,0-0.2,3.6,5,5.8c6.8,2.9,9-0.9,9-0.9L66.6,122L52.6,117.1z"/>
		<path style="fill:#FFD200;" d="M67.6,122.4l-15.8-5.6c-1-0.4-1.5-1.5-1.2-2.5l1.5-4.3c0.4-1,1.5-1.5,2.5-1.2l15.8,5.6
			c1,0.4,1.5,1.5,1.2,2.5l-1.5,4.3C69.7,122.2,68.6,122.7,67.6,122.4"/>
		<path style="fill:none;stroke:#000000;stroke-width:1.76;stroke-linecap:round;stroke-linejoin:round;" d="M67.6,122.4l-15.8-5.6
			c-1-0.4-1.5-1.5-1.2-2.5l1.5-4.3c0.4-1,1.5-1.5,2.5-1.2l15.8,5.6c1,0.4,1.5,1.5,1.2,2.5l-1.5,4.3
			C69.7,122.2,68.6,122.7,67.6,122.4z"/>
		<path style="fill:#FFD200;" d="M70.4,114.4l-15.8-5.6c-1-0.4-1.5-1.5-1.2-2.5l1.5-4.3c0.4-1,1.5-1.5,2.5-1.2l15.8,5.6
			c1,0.4,1.5,1.5,1.2,2.5l-1.5,4.3C72.5,114.2,71.4,114.7,70.4,114.4"/>
		<path style="fill:none;stroke:#000000;stroke-width:1.76;stroke-linecap:round;stroke-linejoin:round;" d="M70.4,114.4l-15.8-5.6
			c-1-0.4-1.5-1.5-1.2-2.5l1.5-4.3c0.4-1,1.5-1.5,2.5-1.2l15.8,5.6c1,0.4,1.5,1.5,1.2,2.5l-1.5,4.3
			C72.5,114.2,71.4,114.7,70.4,114.4z"/>
		<path style="fill:#FFD200;" d="M71.3,90c-4.3-1.5-15.5,4.8-15.2,7.7s3.4,3.9,3.4,3.9l11.6,4.1c0,0,4.2,1.5,5.6-1s-3-11.4-3.4-12.6
			C72.8,91.2,72.1,90.4,71.3,90"/>
		<path style="fill:none;stroke:#000000;stroke-width:1.76;stroke-linecap:round;stroke-linejoin:round;" d="M71.3,90
			c-4.3-1.5-15.5,4.8-15.2,7.7s3.4,3.9,3.4,3.9l11.6,4.1c0,0,4.2,1.5,5.6-1s-3-11.4-3.4-12.6C72.9,91.2,72.2,90.4,71.3,90z"/>
		<polygon style="fill:#FFD200;" points="31.3,218.3 38.5,220.8 36,227.3 43.1,229.5 45.7,222.8 67.5,231.8 61,248.8 56.3,246.6 
			58.6,238.5 53.6,236.7 50.5,244.8 45.8,242.6 47.9,236.6 43.4,234.7 41.1,240.4 32.6,237.7 30.5,243.7 38.7,247.4 36.2,252.8 
			41.5,254.9 43.7,248.6 48.1,250.7 45.4,259.3 50.7,261.1 54,253.4 59.4,255.5 53.2,271.8 31,263.2 33,256.6 26.4,253.9 
			23.7,260.9 17.2,257.8 		"/>
		<polygon style="fill:none;stroke:#000000;stroke-width:1.76;stroke-linecap:round;stroke-linejoin:round;" points="31.3,218.3 
			38.5,220.8 36,227.3 43.1,229.5 45.7,222.8 67.5,231.8 61,248.8 56.3,246.6 58.6,238.5 53.6,236.7 50.5,244.8 45.8,242.6 
			47.9,236.6 43.4,234.7 41.1,240.4 32.6,237.7 30.5,243.7 38.7,247.4 36.2,252.8 41.5,254.9 43.7,248.6 48.1,250.7 45.4,259.3 
			50.7,261.1 54,253.4 59.4,255.5 53.2,271.8 31,263.2 33,256.6 26.4,253.9 23.7,260.9 17.2,257.8 		"/>
		<path style="fill:none;stroke:#000000;stroke-width:1.76;stroke-linecap:round;stroke-linejoin:round;" d="M51.8,24.6
			c0,0-9.3-1.4-15.3,10.4c-3.6,6.8-3.6,14.9,0,21.7"/>
		<path style="fill:none;stroke:#000000;stroke-width:1.76;stroke-linecap:round;stroke-linejoin:round;" d="M77.7,25.6
			c2.5,1.4,5.5,1.4,8.1,0.1"/>
		<path style="fill:none;stroke:#000000;stroke-width:1.76;stroke-linecap:round;stroke-linejoin:round;" d="M69.4,94.5
			c-2.1,0-4.1,0.6-5.8,1.8l-2.9,2"/>
		
			<line style="fill:none;stroke:#000000;stroke-width:1.76;stroke-linecap:round;stroke-linejoin:round;" x1="55.2" y1="123.4" x2="6.5" y2="258.1"/>
		<line style="fill:none;" x1="31" y1="230.6" x2="39.2" y2="233.5"/>
		
			<line style="fill:none;stroke:#000000;stroke-width:1.76;stroke-linecap:round;stroke-linejoin:round;" x1="31" y1="230.6" x2="39.2" y2="233.5"/>
		<line style="fill:none;" x1="57.4" y1="104.9" x2="63.6" y2="107.1"/>
		
			<line style="fill:none;stroke:#000000;stroke-width:1.76;stroke-linecap:round;stroke-linejoin:round;" x1="57.4" y1="104.9" x2="63.6" y2="107.1"/>
		<line style="fill:none;" x1="54.5" y1="113.1" x2="60.8" y2="115.3"/>
		
			<line style="fill:none;stroke:#000000;stroke-width:1.76;stroke-linecap:round;stroke-linejoin:round;" x1="54.5" y1="113.1" x2="60.8" y2="115.3"/>
		<path style="fill:#FFD200;" d="M42.1,82.8c0.9-3.1,2.7-5.9,5.2-7.9"/>
		<path style="fill:none;stroke:#000000;stroke-width:1.76;stroke-linecap:round;stroke-linejoin:round;" d="M42.1,82.8
			c0.9-3.1,2.7-5.9,5.2-7.9"/>
	</g>
</g>
</svg>
