<?xml version="1.0" encoding="utf-8"?>
<!-- Generator: Adobe Illustrator 23.0.2, SVG Export Plug-In . SVG Version: 6.00 Build 0)  -->
<svg version="1.1" id="Réteg_1" xmlns="http://www.w3.org/2000/svg" xmlns:xlink="http://www.w3.org/1999/xlink" x="0px" y="0px"
	 viewBox="0 0 173.9 283.9" style="enable-background:new 0 0 173.9 283.9;" xml:space="preserve">
<title>cimerkep_23</title>
<g>
	<g>
		<path style="fill:#009A3D;" d="M122.2,121.6c-1.9-5.6-1.6-11.8,1-17.1c4.3-9,14.1-12.3,25.3-11.3s10.2,2,16.9,3.8s7.6,1,7.6,1
			s-10.5,6.9-17.6,14.8s-14.8,11.5-22.2,11.5S122.1,121.5,122.2,121.6"/>
		<path style="fill:none;stroke:#000000;stroke-width:1.76;stroke-linecap:round;stroke-linejoin:round;" d="M122.2,121.6
			c-1.9-5.6-1.6-11.8,1-17.1c4.3-9,14.1-12.3,25.3-11.3s10.2,2,16.9,3.8s7.6,1,7.6,1s-10.5,6.9-17.6,14.8s-14.8,11.5-22.2,11.5
			S122.2,121.6,122.2,121.6z"/>
		<path style="fill:none;stroke:#000000;stroke-width:1.76;stroke-linecap:round;stroke-linejoin:round;" d="M117,129.5
			c0,0,6.7-13.3,19.2-22c7.5-5.2,16.4-8,25.6-7.9"/>
		<path style="fill:#009A3D;" d="M86.6,182.7c2-0.9,4.2-1.3,6.4-1.3c2.3,0.3,4.5,1,6.6,2.1c0,0-9.7,2-14.3,5.9l-4.6,3.8L86.6,182.7z
			"/>
		<path style="fill:none;stroke:#000000;stroke-width:1.76;stroke-linecap:round;stroke-linejoin:round;" d="M86.6,182.7
			c2-0.9,4.2-1.3,6.4-1.3c2.3,0.3,4.5,1,6.6,2.1c0,0-9.7,2-14.3,5.9l-4.6,3.8L86.6,182.7z"/>
		<path style="fill:#009A3D;" d="M100.9,97l0.7,1.2c1.8,3.2,6.8,12,10.5,17.6c4.6,6.9-0.4,21.9-10,38.3s-33.4,42.6-36,62.9
			s1.2,38,9.2,48.3c4.5,5.9,9.7,11.3,15.3,16.1c0,0,8.4,3.5,11.5,0s0.4-4.2,0.4-4.2c-11.3-4.4-20.6-12.9-26.1-23.8
			c-8.8-18-6.5-37.2,3.4-56.4s29.9-31.4,35.7-58.3s1.5-23,0.8-34.1s-9.2-20-9.2-20L100.9,97z"/>
		<path style="fill:none;stroke:#000000;stroke-width:1.76;stroke-linecap:round;stroke-linejoin:round;" d="M100.9,97l0.7,1.2
			c1.8,3.2,6.8,12,10.5,17.6c4.6,6.9-0.4,21.9-10,38.3s-33.4,42.6-36,62.9s1.2,38,9.2,48.3c4.5,5.9,9.7,11.3,15.3,16.1
			c0,0,8.4,3.5,11.5,0s0.4-4.2,0.4-4.2c-11.3-4.4-20.6-12.9-26.1-23.8c-8.8-18-6.5-37.2,3.4-56.4s29.9-31.4,35.7-58.3
			s1.5-23,0.8-34.1s-9.2-20-9.2-20L100.9,97z"/>
		<path style="fill:#009A3D;" d="M100.7,156.8c0,0,1.5,1.3,3.1-1.5s0.8-4.1,0.8-4.1l-6.7-8.2L100.7,156.8z"/>
		<path style="fill:none;stroke:#000000;stroke-width:1.76;stroke-linecap:round;stroke-linejoin:round;" d="M100.7,156.8
			c0,0,1.5,1.3,3.1-1.5s0.8-4.1,0.8-4.1l-6.7-8.2L100.7,156.8z"/>
		<path style="fill:#009A3D;" d="M115,140.7l8.2-2.8l-10.7,12.3c0,0-3.3-1.8-0.8-6.1S115,140.7,115,140.7"/>
		<path style="fill:none;stroke:#000000;stroke-width:1.76;stroke-linecap:round;stroke-linejoin:round;" d="M115,140.7l8.2-2.8
			l-10.7,12.3c0,0-3.3-1.8-0.8-6.1S115,140.7,115,140.7z"/>
		<path style="fill:#009A3D;" d="M66.4,225.4l-10.5-6.1c1.9,2.8,3.7,5.7,5.4,8.7c1.1,2.3,2.5,4.4,4.1,6.4c0,0,3.6,0.8,3.3-3.6
			S66.4,225.4,66.4,225.4"/>
		<path style="fill:none;stroke:#000000;stroke-width:1.76;stroke-linecap:round;stroke-linejoin:round;" d="M66.4,225.4l-10.5-6.1
			c1.9,2.8,3.7,5.7,5.4,8.7c1.1,2.3,2.5,4.4,4.1,6.4c0,0,3.6,0.8,3.3-3.6S66.4,225.4,66.4,225.4z"/>
		<path style="fill:#009A3D;" d="M81.5,261.2l4.1-10.7l0.8,15.9c0,0-3.3,1-4.6-0.8S81.5,261.2,81.5,261.2"/>
		<path style="fill:none;stroke:#000000;stroke-width:1.76;stroke-linecap:round;stroke-linejoin:round;" d="M81.5,261.2l4.1-10.7
			l0.8,15.9c0,0-3.3,1-4.6-0.8S81.5,261.2,81.5,261.2z"/>
		<path style="fill:#009A3D;" d="M67.2,196.2c1.7-2.7,2.6-5.8,2.6-8.9c0-5.4-1.8-17.4-17.6-22.5S11.2,164,11.2,164s11-1.8,19.4,12.5
			s11.8,20.2,21.5,21.7S67.2,196.3,67.2,196.2"/>
		<path style="fill:none;stroke:#000000;stroke-width:1.76;stroke-linecap:round;stroke-linejoin:round;" d="M67.2,196.2
			c1.7-2.7,2.6-5.8,2.6-8.9c0-5.4-1.8-17.4-17.6-22.5S11.2,164,11.2,164s11-1.8,19.4,12.5s11.8,20.2,21.5,21.7
			S67.2,196.2,67.2,196.2z"/>
		<path style="fill:none;stroke:#000000;stroke-width:1.76;stroke-linecap:round;stroke-linejoin:round;" d="M70,204.7
			c0,0-3.8-15.1-12.8-25.1s-28.4-13.6-28.4-13.6"/>
		<path style="fill:#DC281E;" d="M106.3,94.7c3.9-2.1,7.9-4,12-5.6c4.6-1.5,6.7-3.1,9.5-7.9c2.8-4.9,4.1-10.5,3.1-15.1
			s1.8-4.1,2.6-13.8s-3.8-14.8-11.8-13.8c-4.5,0.5-8.8,1.7-13,3.3c0,0-0.3-10.7,4.1-15.9s6.6-8.2,3.6-13.3s-6.6-5.1-6.6-5.1
			s-6.6-1.8-11.5,3.1S93.3,18,93.3,18S82.8,0.9,76.1,0.9S68.5,6,63.3,2.7C58.4-0.3,52,1.2,49,6.2c-0.1,0.1-0.1,0.2-0.2,0.3
			c-2.5,4.9,1,6.9-11,7.4s-12,13.3-12,13.3s-7.4,3.3-12,8.7S8.6,51.3,8.6,51.3S1.7,52.5,1,59.2s4.1,14.1,2.5,18.7s-5.4,3.1,1,10.7
			s12,16.1,17.1,20.7s9,3.8,9,3.8s-5.1,8.9,4.1,14.1s16.1-0.5,23.3,5.6s14.6,6.4,25.8-3.1s14.3-11,18.4-20.2S106.3,94.7,106.3,94.7"
			/>
		<path style="fill:none;stroke:#000000;stroke-width:1.76;stroke-linecap:round;stroke-linejoin:round;" d="M106.3,94.7
			c3.9-2.1,7.9-4,12-5.6c4.6-1.5,6.7-3.1,9.5-7.9c2.8-4.9,4.1-10.5,3.1-15.1s1.8-4.1,2.6-13.8s-3.8-14.8-11.8-13.8
			c-4.5,0.5-8.8,1.7-13,3.3c0,0-0.3-10.7,4.1-15.9s6.6-8.2,3.6-13.3s-6.6-5.1-6.6-5.1s-6.6-1.8-11.5,3.1S93.3,18,93.3,18
			S82.8,0.9,76.1,0.9S68.5,6,63.3,2.7C58.4-0.3,52,1.2,49,6.2c-0.1,0.1-0.1,0.2-0.2,0.3c-2.5,4.9,1,6.9-11,7.4s-12,13.3-12,13.3
			s-7.4,3.3-12,8.7S8.6,51.3,8.6,51.3S1.7,52.5,1,59.2s4.1,14.1,2.5,18.7s-5.4,3.1,1,10.7s12,16.1,17.1,20.7s9,3.8,9,3.8
			s-5.1,8.9,4.1,14.1s16.1-0.5,23.3,5.6s14.6,6.4,25.8-3.1s14.3-11,18.4-20.2S106.3,94.7,106.3,94.7z"/>
		<path style="fill:none;stroke:#000000;stroke-width:1.76;stroke-linecap:round;stroke-linejoin:round;" d="M30.6,113.1
			c0,0,9.5-2,13.6-5.4s9.2-0.5,12.5,0.3s11,0.5,15.3-6.1c2.7-4.1,5-8.3,6.9-12.8c0,0-0.8,7.2,4.3,12s12.5-0.3,16.1-1.8
			c2.5-1.2,4.8-2.7,6.9-4.6"/>
		<path style="fill:none;stroke:#000000;stroke-width:1.76;stroke-linecap:round;stroke-linejoin:round;" d="M108.6,41.8
			c0.6,5.8,0.3,11.7-0.8,17.4c-1.8,8.4-9.5,17.1-12.5,17.7c-1.4,0.3-2.9,0.4-4.3,0.5c0,0,5.6-8.2,5.1-15.8S92,49.2,93.8,38.2
			c1.1-6.7,0.9-13.6-0.5-20.2"/>
		<path style="fill:none;stroke:#000000;stroke-width:1.76;stroke-linecap:round;stroke-linejoin:round;" d="M126.5,63
			c0,0-4.3-1.8-10.5,2.8s-8.7,8.2-15.1,11s-10,0.5-10,0.5s-6.1,9.5-12,11.8s-12.8-1-16.6,2s-20.4,2.3-28.4,2.3
			c-5.6,0-8.9-3.3-9.2-11.8s5.9-11.8,10.5-10.2s14.6-1.3,16.6-5.1s1.8-6.9,10-4.1s20.5,0.8,24.5-2.5c2.3-1.9,4.9-3.5,7.6-4.8
			c0,0,4.9-1.8,5.9-8.7s2-11.5,5.4-15.9s7.4-4.3,7.4-4.3"/>
		<path style="fill:none;stroke:#000000;stroke-width:1.76;stroke-linecap:round;stroke-linejoin:round;" d="M57.5,61
			c0,0-0.8-6.4,3.6-14.8S77.2,27,77.2,27"/>
		<path style="fill:none;stroke:#000000;stroke-width:1.76;stroke-linecap:round;stroke-linejoin:round;" d="M51.8,22.9
			c0,0,3.3-6.4,8.7-5.9s6.6,1.5,10-1s7.7,4.1,7.9,6.9s-2.8,4.1-1.6,12.5s7.7,11.3,11.5,15.1s3.1,5.9,3.1,5.9"/>
		<path style="fill:none;stroke:#000000;stroke-width:1.76;stroke-linecap:round;stroke-linejoin:round;" d="M25.8,27.2
			c3.4-2.2,7.4-3.3,11.5-3.3c6.9,0,9.7-1.3,13-0.8S57,27,61,26.2s9.5,7.4,9.5,7.4"/>
		<path style="fill:none;stroke:#000000;stroke-width:1.76;stroke-linecap:round;stroke-linejoin:round;" d="M8.6,51.3
			c-0.3,4.5,0,9.1,0.8,13.6c1.3,6.9,0.8,13,7.4,16.6s7.9,2.8,7.9,2.8"/>
		<path style="fill:none;stroke:#000000;stroke-width:1.76;stroke-linecap:round;stroke-linejoin:round;" d="M47.8,69.7
			c0,0-6.4-6.4-10.5-6.7s-4.9,1.3-4.6-4.3s3.1-10.2,11.8-14.8s18.4-7.4,19.4-11c1-3.6-2.8-6.6-2.8-6.6"/>
		<path style="fill:none;stroke:#000000;stroke-width:1.76;stroke-linecap:round;stroke-linejoin:round;" d="M32.7,55.8
			c0,0-2.8-3.6-7.2-2.3s-6.4-5.6,2-9.5c1.3-0.6,2.5-1.2,3.6-1.8c6.3-3.3,10.6-6.4,15.8-7.7c6.1-1.5,7.9-0.3,10.5-1.3
			s5.1-2.8,5.6-4.6"/>
		<path style="fill:none;stroke:#000000;stroke-width:1.76;stroke-linecap:round;stroke-linejoin:round;" d="M31.2,42.3
			c0,0,2.3-8.2,4.1-10.8s6.7-5.4,12.3-4.9s6.6,1.8,8.2,3.3c0.9,0.9,1.5,2.1,1.8,3.3"/>
		<path style="fill:none;stroke:#000000;stroke-width:1.76;stroke-linecap:round;stroke-linejoin:round;" d="M42.4,36.7
			c0,0-6.1,0.8-6.7-1.8s2-5.6,2-5.6"/>
		<path style="fill:none;stroke:#000000;stroke-width:1.76;stroke-linecap:round;stroke-linejoin:round;" d="M59.5,66.8
			c0,0,9.7,6.2,19.2,1.8S90.2,61,90.2,61"/>
		<path style="fill:none;stroke:#000000;stroke-width:1.76;stroke-linecap:round;stroke-linejoin:round;" d="M35.2,77.3
			c0,0,7.7,7.2,14.8,9.7s9.5,2,9.5,2"/>
		<path style="fill:none;stroke:#000000;stroke-width:1.76;stroke-linecap:round;stroke-linejoin:round;" d="M7.6,84.7
			c0,0,4.6-1.3,9.7,3.6s2.5,7.4,10.5,9l7.9,1.5"/>
		<path style="fill:none;stroke:#000000;stroke-width:1.76;stroke-linecap:round;stroke-linejoin:round;" d="M47.5,111.3
			c2-0.3,5.1,4.9,15.1,2.6s13.3-9,13.3-9"/>
		<path style="fill:none;stroke:#000000;stroke-width:1.76;stroke-linecap:round;stroke-linejoin:round;" d="M79.2,7.8
			c4.9,5.6,7.7,7.7,9.2,14.3s0.3,14.8,0.3,14.8"/>
	</g>
</g>
</svg>
