<?xml version="1.0" encoding="utf-8"?>
<!-- Generator: Adobe Illustrator 23.0.2, SVG Export Plug-In . SVG Version: 6.00 Build 0)  -->
<svg version="1.1" id="Réteg_1" xmlns="http://www.w3.org/2000/svg" xmlns:xlink="http://www.w3.org/1999/xlink" x="0px" y="0px"
	 viewBox="0 0 199 288.1" style="enable-background:new 0 0 199 288.1;" xml:space="preserve">
<title>cimerkep_01</title>
<g>
	<g>
		<path style="fill:#B3B3B3;" d="M111.7,213.4l72.6-200.5l12.8-12l1,19.7l-63.4,199.9c0,0,5.1,6.6,12.8,7.7s11.8,1.5,11.8,1.5
			l-4.1,10.2l-27.6-10.2l12.3,8.7c0,0,2.1,6.1-0.3,10c-1.3,2.2-4,3.2-6.4,2.3c0,0,2.8,4.4,0,7.7c-1.6,1.9-4.1,2.9-6.7,2.6
			c0,0,2.3,2.3-0.8,5.9s-8.2,1.8-8.2,1.8s1.5,3.8-0.3,6.1s-6.4,1.8-6.4,1.8s-3.1,15.1-13.8,9.5c-10.4-5.4-1-15.1-1-15.1l-14.1-9
			l-27.6,4.6c0,0,0.5,3.3-3.8,3.6c-4.9,0.3-7.9-4.6-7.9-4.6l-33-0.8c0,0-6.3-3-8.1-11.5c-0.9-4.7-1-9.6-0.2-14.4
			c0,0,7.2,2.6,8.3-2.7s-6.1-6.9-6.1-6.9s0.3-6.4,6.1-15.3s7.7-9.5,7.7-9.5l35.3,9.2c0,0,3.4-3.6,7-3.1c5.4,0.8,4.1,4.3,4.1,4.3
			l25.3,10.5l25.1-0.3l-27.1-10l4.1-10.4c3.4,3.6,7.5,6.4,12,8.4C110.2,216.2,111.7,213.3,111.7,213.4"/>
		<path style="fill:none;stroke:#000000;stroke-width:1.76;stroke-linecap:round;stroke-linejoin:round;" d="M111.7,213.4
			l72.6-200.5l12.8-12l1,19.7l-63.4,199.9c0,0,5.1,6.6,12.8,7.7s11.8,1.5,11.8,1.5l-4.1,10.2l-27.6-10.2l12.3,8.7
			c0,0,2.1,6.1-0.3,10c-1.3,2.2-4,3.2-6.4,2.3c0,0,2.8,4.4,0,7.7c-1.6,1.9-4.1,2.9-6.7,2.6c0,0,2.3,2.3-0.8,5.9s-8.2,1.8-8.2,1.8
			s1.5,3.8-0.3,6.1s-6.4,1.8-6.4,1.8s-3.1,15.1-13.8,9.5c-10.4-5.4-1-15.1-1-15.1l-14.1-9l-27.6,4.6c0,0,0.5,3.3-3.8,3.6
			c-4.9,0.3-7.9-4.6-7.9-4.6l-33-0.8c0,0-6.3-3-8.1-11.5c-0.9-4.7-1-9.6-0.2-14.4c0,0,7.2,2.6,8.3-2.7s-6.1-6.9-6.1-6.9
			s0.3-6.4,6.1-15.3s7.7-9.5,7.7-9.5l35.3,9.2c0,0,3.4-3.6,7-3.1c5.4,0.8,4.1,4.3,4.1,4.3l25.3,10.5l25.1-0.3l-27.1-10l4.1-10.4
			c3.4,3.6,7.5,6.4,12,8.4C110.2,216.2,111.7,213.4,111.7,213.4z"/>
		<path style="fill:#B3B3B3;" d="M88.9,225.4c-3,5.4-5,11.3-6.1,17.4c-0.9,6.3-1.2,12.8-0.8,19.2"/>
		<path style="fill:none;stroke:#000000;stroke-width:1.76;stroke-linecap:round;stroke-linejoin:round;" d="M88.9,225.4
			c-3,5.4-5,11.3-6.1,17.4c-0.9,6.3-1.2,12.8-0.8,19.2"/>
		<path style="fill:#B3B3B3;" d="M92.8,225.9c-2.6,6.1-4.5,12.4-5.6,18.9c-1,6.2-1.7,12.4-2,18.7"/>
		<path style="fill:none;stroke:#000000;stroke-width:1.76;stroke-linecap:round;stroke-linejoin:round;" d="M92.8,225.9
			c-2.6,6.1-4.5,12.4-5.6,18.9c-1,6.2-1.7,12.4-2,18.7"/>
		<polyline style="fill:#B3B3B3;" points="114,225.1 119.9,225.8 124.7,226.4 127.5,229.7 		"/>
		<polyline style="fill:none;stroke:#000000;stroke-width:1.76;stroke-linecap:round;stroke-linejoin:round;" points="114,225.1 
			119.9,225.8 124.7,226.4 127.5,229.7 		"/>
		<path style="fill:#B3B3B3;" d="M96.1,270.9l10.7,3.8l4.1,1.8c0,0,2-0.8,3.3-4.3c0.8-1.9,0.6-4.1-0.5-5.9c0,0,2.8,0.5,4.9-2.8
			s0.8-7.7,0.8-7.7s5.4-1,6.6-4.6c0.8-2,0.8-4.2,0-6.1c0,0,3.3-0.5,5.6-4.9s0.5-7.2,0.5-7.2"/>
		<path style="fill:none;stroke:#000000;stroke-width:1.76;stroke-linecap:round;stroke-linejoin:round;" d="M96.1,270.9l10.7,3.8
			l4.1,1.8c0,0,2-0.8,3.3-4.3c0.8-1.9,0.6-4.1-0.5-5.9c0,0,2.8,0.5,4.9-2.8s0.8-7.7,0.8-7.7s5.4-1,6.6-4.6c0.8-2,0.8-4.2,0-6.1
			c0,0,3.3-0.5,5.6-4.9s0.5-7.2,0.5-7.2"/>
		<path style="fill:#B3B3B3;" d="M105.3,278.8c0,2.3-1.8,4.1-4.1,4.1c-2.3,0-4.1-1.8-4.1-4.1c0-2.3,1.8-4.1,4.1-4.1
			C103.5,274.7,105.3,276.5,105.3,278.8C105.3,278.8,105.3,278.8,105.3,278.8"/>
		<path style="fill:none;stroke:#000000;stroke-width:1.76;stroke-linecap:round;stroke-linejoin:round;" d="M105.3,278.8
			c0,2.3-1.8,4.1-4.1,4.1c-2.3,0-4.1-1.8-4.1-4.1c0-2.3,1.8-4.1,4.1-4.1C103.5,274.7,105.3,276.5,105.3,278.8
			C105.3,278.8,105.3,278.8,105.3,278.8z"/>
		<path style="fill:#B3B3B3;" d="M101,272.7c1.2-8.2,3.3-16.3,6.4-24c3.3-8.1,7.5-15.7,12.6-22.8l1.8-5.6"/>
		<path style="fill:none;stroke:#000000;stroke-width:1.76;stroke-linecap:round;stroke-linejoin:round;" d="M101,272.7
			c1.2-8.2,3.3-16.3,6.4-24c3.3-8.1,7.5-15.7,12.6-22.8l1.8-5.6"/>
		<path style="fill:#B3B3B3;" d="M125.8,228.7c0,0-12.5,24.6-15.1,33.2c-2.6,8.7-3.8,12.8-3.8,12.8"/>
		<path style="fill:none;stroke:#000000;stroke-width:1.76;stroke-linecap:round;stroke-linejoin:round;" d="M125.8,228.7
			c0,0-12.5,24.6-15.1,33.2c-2.6,8.7-3.8,12.8-3.8,12.8"/>
		<line style="fill:none;" x1="117.6" y1="268.6" x2="110.4" y2="263.5"/>
		
			<line style="fill:none;stroke:#000000;stroke-width:1.76;stroke-linecap:round;stroke-linejoin:round;" x1="117.6" y1="268.6" x2="110.4" y2="263.5"/>
		<line style="fill:none;" x1="126.5" y1="260.9" x2="114.8" y2="252.2"/>
		
			<line style="fill:none;stroke:#000000;stroke-width:1.76;stroke-linecap:round;stroke-linejoin:round;" x1="126.5" y1="260.9" x2="114.8" y2="252.2"/>
		<line style="fill:none;" x1="133.2" y1="250.7" x2="120.4" y2="240.4"/>
		
			<line style="fill:none;stroke:#000000;stroke-width:1.76;stroke-linecap:round;stroke-linejoin:round;" x1="133.2" y1="250.7" x2="120.4" y2="240.4"/>
		<line style="fill:none;" x1="91" y1="232.3" x2="112.7" y2="236.4"/>
		
			<line style="fill:none;stroke:#000000;stroke-width:1.76;stroke-linecap:round;stroke-linejoin:round;" x1="91" y1="232.3" x2="112.7" y2="236.4"/>
		<line style="fill:none;" x1="88.4" y1="241.7" x2="107.1" y2="247.1"/>
		
			<line style="fill:none;stroke:#000000;stroke-width:1.76;stroke-linecap:round;stroke-linejoin:round;" x1="88.4" y1="241.7" x2="107.1" y2="247.1"/>
		<line style="fill:none;" x1="86.1" y1="252.7" x2="103.1" y2="260.5"/>
		
			<line style="fill:none;stroke:#000000;stroke-width:1.76;stroke-linecap:round;stroke-linejoin:round;" x1="86.1" y1="252.7" x2="103.1" y2="260.5"/>
		<polyline style="fill:#B3B3B3;" points="52.6,213.6 18.9,234.8 42.7,265.5 		"/>
		<polyline style="fill:none;stroke:#000000;stroke-width:1.76;stroke-linecap:round;stroke-linejoin:round;" points="52.6,213.6 
			18.9,234.8 42.7,265.5 		"/>
		<polyline style="fill:#B3B3B3;" points="63.6,214.9 26.5,236.9 54.4,266.5 		"/>
		<polyline style="fill:none;stroke:#000000;stroke-width:1.76;stroke-linecap:round;stroke-linejoin:round;" points="63.6,214.9 
			26.5,236.9 54.4,266.5 		"/>
		<path style="fill:#B3B3B3;" d="M26.5,236.9c0,0,23.5,1.5,35.3,3.1s20.7,2.1,20.7,2.1"/>
		<path style="fill:none;stroke:#000000;stroke-width:1.76;stroke-linecap:round;stroke-linejoin:round;" d="M26.5,236.9
			c0,0,23.5,1.5,35.3,3.1s20.7,2.1,20.7,2.1"/>
		<path style="fill:#B3B3B3;" d="M111.7,213.4c2.8,3,6.2,5.4,10,6.9c4.2,1.6,8.8,1.7,13,0.3"/>
		<path style="fill:none;stroke:#000000;stroke-width:1.76;stroke-linecap:round;stroke-linejoin:round;" d="M111.7,213.4
			c2.8,3,6.2,5.4,10,6.9c4.2,1.6,8.8,1.7,13,0.3"/>
		<path style="fill:#B3B3B3;" d="M113,210.5c2.7,2.7,6.1,4.7,9.7,5.9c4,1.1,8.2,1.3,12.3,0.8"/>
		<path style="fill:none;stroke:#000000;stroke-width:1.76;stroke-linecap:round;stroke-linejoin:round;" d="M113,210.5
			c2.7,2.7,6.1,4.7,9.7,5.9c4,1.1,8.2,1.3,12.3,0.8"/>
		<polyline style="fill:none;stroke:#000000;stroke-width:1.76;stroke-linecap:round;stroke-linejoin:round;" points="123.7,216.9 
			189.7,20.3 184.3,12.9 		"/>
		<line style="fill:none;" x1="189.7" y1="20.3" x2="198.1" y2="20.6"/>
		
			<line style="fill:none;stroke:#000000;stroke-width:1.76;stroke-linecap:round;stroke-linejoin:round;" x1="189.7" y1="20.3" x2="198.1" y2="20.6"/>
		<line style="fill:none;" x1="119.4" y1="208" x2="155.1" y2="108"/>
		
			<line style="fill:none;stroke:#000000;stroke-width:1.76;stroke-linecap:round;stroke-linejoin:round;" x1="119.4" y1="208" x2="155.1" y2="108"/>
		<path style="fill:#B3B3B3;" d="M41.2,214.9l-21.9-5c-3.4,3-6,6.7-7.7,10.9c-2.6,6.6-2.6,5.9-2.6,5.9"/>
		<path style="fill:none;stroke:#000000;stroke-width:1.76;stroke-linecap:round;stroke-linejoin:round;" d="M41.2,214.9l-21.9-5
			c-3.4,3-6,6.7-7.7,10.9c-2.6,6.6-2.6,5.9-2.6,5.9"/>
		<line style="fill:none;" x1="61.8" y1="220.3" x2="80.6" y2="227.2"/>
		
			<line style="fill:none;stroke:#000000;stroke-width:1.76;stroke-linecap:round;stroke-linejoin:round;" x1="61.8" y1="220.3" x2="80.6" y2="227.2"/>
		<path style="fill:#B3B3B3;" d="M39.6,243.3c0,0,9.8,1.3,20.5,2.1s17.1,1.7,17.1,1.7"/>
		<path style="fill:none;stroke:#000000;stroke-width:1.76;stroke-linecap:round;stroke-linejoin:round;" d="M39.6,243.3
			c0,0,9.8,1.3,20.5,2.1s17.1,1.7,17.1,1.7"/>
	</g>
</g>
</svg>
