<?xml version="1.0" encoding="utf-8"?>
<!-- Generator: Adobe Illustrator 23.0.2, SVG Export Plug-In . SVG Version: 6.00 Build 0)  -->
<svg version="1.1" id="Réteg_1" xmlns="http://www.w3.org/2000/svg" xmlns:xlink="http://www.w3.org/1999/xlink" x="0px" y="0px"
	 viewBox="0 0 125.1 337.5" style="enable-background:new 0 0 125.1 337.5;" xml:space="preserve">
<title>cimerkep_04</title>
<g>
	<g>
		<rect x="20.5" y="111.1" style="fill:#FFF8E1;" width="85.5" height="225.6"/>
		<polygon points="20.5,336.7 20.5,337.5 106.8,337.5 106.8,110.3 19.6,110.3 19.6,337.5 20.5,337.5 20.5,336.7 21.3,336.7 
			21.3,111.9 105.1,111.9 105.1,336 20.5,336 20.5,336.7 21.3,336.7 		"/>
		<polygon style="fill:#CBCCCB;" points="63.1,35.6 41.5,87.1 84.7,87.1 41.5,87.1 84.7,87.1 		"/>
		<polygon points="63.1,35.6 62.3,35.4 40.3,87.8 84.7,87.8 84.7,86.3 41.5,86.3 41.5,87.8 86,87.8 63.1,33.4 62.3,35.4 63.1,35.6 
			62.3,35.9 83.5,86.3 41.5,86.3 41.5,87.8 84.7,87.8 84.7,86.3 42.8,86.3 63.9,35.9 63.1,35.6 62.3,35.9 		"/>
		<path style="fill:#B3B3B3;" d="M62.7,36.6L41.5,87.1h14.9L63,36.7C63,36.5,62.8,36.5,62.7,36.6"/>
		<path d="M62.7,36.6l-0.8-0.3L40.3,87.8h44.5v-1.5H41.5v1.5h15.7l6.7-51.1v-0.1c0-0.3-0.1-0.5-0.3-0.7c-0.4-0.3-0.8-0.3-1.2-0.1
			c-0.2,0.1-0.3,0.3-0.4,0.4L62.7,36.6l-0.8-0.3L62.7,36.6l0.8,0.3l-0.7-0.2l0.4,0.5l0.3-0.3l-0.7-0.2l0.4,0.5l-0.4-0.5v0.6l0.4-0.1
			l-0.4-0.5l0,0l-0.5,0.5c0.1,0.1,0.3,0.2,0.5,0.2v-0.6l-0.5,0.5l0.5-0.5h-0.7c0,0.2,0.1,0.4,0.2,0.5l0.5-0.5l0,0l-0.7-0.1v0.1h0.7
			l-0.7-0.1l0.9,0.1l-0.9-0.1l-6.5,49.8H41.5v1.5h43.2v-1.5h-42l20.8-49.5l0,0L62.7,36.6z"/>
		<polyline points="62.5,41 60.4,41 60.4,42.5 62.5,42.5 		"/>
		<polygon style="fill:#CBCCCB;" points="106,107.1 20.5,107.1 41.5,87.1 84.7,87.1 		"/>
		<polygon points="106,107.1 106,106.4 22.4,106.4 41.9,87.8 84.4,87.8 105.3,107.7 106,107.1 106,106.4 106,107.1 106.6,106.6 
			85.1,86.3 41.1,86.3 18.5,107.9 107.9,107.9 106.6,106.6 		"/>
		<polygon points="62.3,35.5 55.6,86.9 46.5,106.9 48.1,107.4 57.3,87.3 64,35.7 		"/>
		<rect x="23" y="107.1" style="fill:#F2E8C5;" width="79.4" height="4"/>
		<polygon points="23,111.1 23,111.9 103.3,111.9 103.3,106.4 22.1,106.4 22.1,111.9 23,111.9 23,111.1 23.9,111.1 23.9,107.9 
			101.5,107.9 101.5,110.3 23,110.3 23,111.1 23.9,111.1 		"/>
		<rect x="23" y="107.1" style="fill:#CBBA8D;" width="34.9" height="4"/>
		<polygon points="23,111.1 23,111.9 58.8,111.9 58.8,106.4 22.1,106.4 22.1,111.9 23,111.9 23,111.1 23.9,111.1 23.9,107.9 
			57.1,107.9 57.1,110.3 23,110.3 23,111.1 23.9,111.1 		"/>
		<rect x="20.5" y="111.1" style="fill:#CBBA8D;" width="26.9" height="225.6"/>
		<polygon points="20.5,336.7 20.5,337.5 48.2,337.5 48.2,110.3 19.6,110.3 19.6,337.5 20.5,337.5 20.5,336.7 21.3,336.7 
			21.3,111.9 46.5,111.9 46.5,336 20.5,336 20.5,336.7 21.3,336.7 		"/>
		<polygon points="73.8,190.8 77.5,190.8 77.5,181.4 75.7,178.5 73.8,181.4 		"/>
		<polygon points="73.8,190.8 73.8,191.5 78.4,191.5 78.4,181.2 75.7,177 72.9,181.2 72.9,191.5 73.8,191.5 73.8,190.8 74.6,190.8 
			74.6,181.6 75.7,180 76.7,181.6 76.7,190 73.8,190 73.8,190.8 74.6,190.8 		"/>
		<line style="fill:none;" x1="82.8" y1="195.6" x2="68.5" y2="195.6"/>
		<polyline points="82.8,194.8 68.5,194.8 68.5,196.4 82.8,196.4 		"/>
		<polygon points="33.2,190.8 34.6,190.8 34.6,181.4 33.9,180 33.2,181.4 		"/>
		<polygon points="33.2,190.8 33.2,191.5 34.6,191.5 35.5,191.5 35.5,181.3 33.9,178.1 32.3,181.2 32.3,191.5 33.2,191.5 
			33.2,190.8 34.1,190.8 34.1,181.6 34.7,180.3 33.9,180 33.1,180.3 33.7,181.6 33.7,190 33.2,190 33.2,190.8 34.1,190.8 		"/>
		<line style="fill:none;" x1="36.6" y1="195.6" x2="31.2" y2="195.6"/>
		<polyline points="36.6,194.8 31.2,194.8 31.2,196.4 36.6,196.4 		"/>
		<polygon points="73.8,261.6 77.5,261.6 77.5,252.3 75.7,249.4 73.8,252.3 		"/>
		<polygon points="73.8,261.6 73.8,262.4 78.4,262.4 78.4,252.1 75.7,247.8 72.9,252.1 72.9,262.4 73.8,262.4 73.8,261.6 
			74.6,261.6 74.6,252.5 75.7,250.9 76.7,252.5 76.7,260.9 73.8,260.9 73.8,261.6 74.6,261.6 		"/>
		<line style="fill:none;" x1="82.8" y1="266.5" x2="68.5" y2="266.5"/>
		<polyline points="82.8,265.7 68.5,265.7 68.5,267.2 82.8,267.2 		"/>
		<polygon points="33.2,261.6 34.6,261.6 34.6,252.3 33.9,250.9 33.2,252.3 		"/>
		<polygon points="33.2,261.6 33.2,262.4 34.6,262.4 35.5,262.4 35.5,252.1 33.9,249 32.3,252.1 32.3,262.4 33.2,262.4 33.2,261.6 
			34.1,261.6 34.1,252.4 34.7,251.2 33.9,250.9 33.1,251.2 33.7,252.4 33.7,260.9 33.2,260.9 33.2,261.6 34.1,261.6 		"/>
		<line style="fill:none;" x1="36.6" y1="266.5" x2="31.2" y2="266.5"/>
		<polyline points="36.6,265.7 31.2,265.7 31.2,267.2 36.6,267.2 		"/>
		<polyline points="57.7,114.8 47.7,114.8 47.7,116.4 57.7,116.4 		"/>
		<polyline points="62.3,1.7 62.3,36.6 64.1,36.6 64.1,1.7 		"/>
		<path style="fill:#A32429;" d="M89.8,10.9c0,0-8.1-4.8-15.1-4.8c-4.2,0-8.3-1.5-11.5-4.2v12c3.6,2,7.9,2.2,11.7,0.4
			C81.3,11.3,82.8,10.1,89.8,10.9"/>
		<path d="M89.8,10.9l0.5-0.6c-1.6-0.9-3.3-1.8-5-2.5C82,6.3,78.4,5.5,74.8,5.3c-2.8,0-5.5-0.7-7.9-2c-0.8-0.4-1.5-0.8-2.3-1.3
			L64,1.5l-0.1-0.1l0,0L62.3,0v14.3l0.3,0.2c2,1.2,4.4,1.8,6.7,1.8c2,0,4-0.4,5.8-1.3c2.6-1.2,4.3-2.1,5.9-2.7
			c1.6-0.6,3.2-0.9,4.9-0.9c1.2,0,2.4,0.1,3.6,0.3l3.7,0.4l-3.1-1.8L89.8,10.9l0.1-0.7c-1.3-0.2-2.5-0.3-3.8-0.3
			c-1.9,0-3.8,0.3-5.6,1c-1.7,0.6-3.5,1.6-6.1,2.7c-1.6,0.7-3.3,1.1-5,1.1c-1.4,0-2.8-0.3-4.2-0.8c-0.4-0.2-0.8-0.3-1.2-0.5
			l-0.3-0.2h-0.1l0,0l-0.5,0.6h0.9v-12h-0.9l-0.6,0.5c1,0.9,2.1,1.6,3.4,2.2c2.7,1.4,5.7,2.2,8.8,2.2c3.4,0.2,6.7,1,9.8,2.4
			c1.4,0.6,2.6,1.2,3.5,1.6l1,0.5l0.3,0.2L89.8,10.9l0.1-0.7L89.8,10.9z"/>
		<polyline points="95.5,166.4 106,166.4 106,164.8 95.5,164.8 		"/>
		<polyline points="33.9,142 20.5,142 20.5,143.5 33.9,143.5 		"/>
		<polyline points="40.5,198.9 62.4,198.9 62.4,197.4 40.5,197.4 		"/>
		<polyline points="63.6,78.4 44.8,78.4 44.8,79.9 63.6,79.9 		"/>
		<polyline points="60.3,86.3 41.5,86.3 41.5,87.8 60.3,87.8 		"/>
		<polyline points="75,94.3 33.2,94.3 33.2,95.8 75,95.8 		"/>
		<polyline points="60.7,102.2 24.9,102.2 24.9,103.7 60.7,103.7 		"/>
		<polyline points="65.3,54.5 54.9,54.5 54.9,56.1 65.3,56.1 		"/>
		<polyline points="59.5,62.5 51.3,62.5 51.3,64 59.5,64 		"/>
		<polyline points="58.5,70.4 48.2,70.4 48.2,71.9 58.5,71.9 		"/>
		<polyline points="61.6,46.6 57.9,46.6 57.9,48.1 61.6,48.1 		"/>
		<rect x="73.4" y="111.1" width="4.1" height="9.5"/>
		<polygon points="73.4,111.1 73.4,111.9 76.7,111.9 76.7,119.9 74.3,119.9 74.3,111.1 73.4,111.1 73.4,111.9 73.4,111.1 
			72.5,111.1 72.5,121.4 78.4,121.4 78.4,110.3 72.5,110.3 72.5,111.1 		"/>
		<rect x="33.2" y="111.1" width="1.4" height="9.5"/>
		<polygon points="33.2,111.1 33.2,111.9 33.7,111.9 33.7,119.9 33.2,119.9 33.2,120.6 34.1,120.6 34.1,111.1 33.2,111.1 
			33.2,111.9 33.2,111.1 32.3,111.1 32.3,121.4 34.6,121.4 35.5,121.4 35.5,110.3 33.2,110.3 32.3,110.3 32.3,111.1 		"/>
		<polyline style="fill:#FFF8E1;" points="0,336.7 117,336.7 125.1,336.7 		"/>
		<polygon points="0,337.5 117,337.5 125.1,337.5 125.1,336 117,336 0,336 0,337.5 		"/>
		<line style="fill:none;" x1="82.8" y1="126.1" x2="68.5" y2="126.1"/>
		<polyline points="82.8,125.3 68.5,125.3 68.5,126.8 82.8,126.8 		"/>
		<line style="fill:none;" x1="36.6" y1="126.1" x2="31.2" y2="126.1"/>
		<polyline points="36.6,125.3 31.2,125.3 31.2,126.8 36.6,126.8 		"/>
		<line style="fill:none;" x1="106" y1="318.1" x2="20.5" y2="318.1"/>
		<polyline points="106,317.4 20.5,317.4 20.5,318.9 106,318.9 		"/>
		<polyline points="70.9,103.9 75.9,103.9 75.9,102.3 70.9,102.3 		"/>
		<polyline points="76.3,80.1 81.3,80.1 81.3,78.5 76.3,78.5 		"/>
	</g>
</g>
</svg>
