<?xml version="1.0" encoding="utf-8"?>
<!-- Generator: Adobe Illustrator 23.0.2, SVG Export Plug-In . SVG Version: 6.00 Build 0)  -->
<svg version="1.1" id="Réteg_1" xmlns="http://www.w3.org/2000/svg" xmlns:xlink="http://www.w3.org/1999/xlink" x="0px" y="0px"
	 viewBox="0 0 366.4 292" style="enable-background:new 0 0 366.4 292;" xml:space="preserve">
<title>cimerkep_20</title>
<g>
	<g>
		<path style="fill:#666666;" d="M155.1,89.3c0,0-12.8-12-15.1-14.1l-2.3-2l-1.8,1.2l-18.4-17.1c0,0-7.4-14.1-14.3-23
			s-13.6-12.9-15.1-10S96.1,28,103,40.5s11,19.9,12,21s10.7,10.7,13.3,12c1.9,1,3.7,2.2,5.4,3.6l-1.2,1.5l22.2,14.8L155.1,89.3z"/>
		<path style="fill:none;stroke:#000000;stroke-width:1.76;stroke-linecap:round;stroke-linejoin:round;" d="M155.1,89.3
			c0,0-12.8-12-15.1-14.1l-2.3-2l-1.8,1.2l-18.4-17.1c0,0-7.4-14.1-14.3-23s-13.6-12.9-15.1-10S96.1,28,103,40.5s11,19.9,12,21
			s10.7,10.7,13.3,12c1.9,1,3.7,2.2,5.4,3.6l-1.2,1.5l22.2,14.8L155.1,89.3z"/>
		<path style="fill:#E6E6E6;" d="M153.4,99.6c0,0-49.9-26.4-73.9-33.8s-66-10.9-73.1-7.3s-7.4,12.5,0,25s15.6,21.2,20.7,23.3
			c2.9,1.2,5.9,2,9,2.3c0,0-5.6,1.5-1.5,8.9s7.4,21,29.2,18.7s45-5.4,60.6-10.7s29.1-11.5,29.1-11.5L153.4,99.6z"/>
		<path style="fill:none;stroke:#000000;stroke-width:1.76;stroke-linecap:round;stroke-linejoin:round;" d="M153.4,99.6
			c0,0-49.9-26.4-73.9-33.8s-66-10.9-73.1-7.3s-7.4,12.5,0,25s15.6,21.2,20.7,23.3c2.9,1.2,5.9,2,9,2.3c0,0-5.6,1.5-1.5,8.9
			s7.4,21,29.2,18.7s45-5.4,60.6-10.7s29.1-11.5,29.1-11.5L153.4,99.6z"/>
		<path style="fill:none;stroke:#000000;stroke-width:1.76;stroke-linecap:round;stroke-linejoin:round;" d="M36,109
			c0,0,45.8,0.5,67.3,0s50.1-1,50.1-1"/>
		<path style="fill:none;stroke:#000000;stroke-width:1.76;stroke-linecap:round;stroke-linejoin:round;" d="M79.5,65.8
			c0,0-2.3,4.9,1.8,11.3s7.9,6.9,7.9,6.9l18.7,5.9"/>
		<path style="fill:none;stroke:#000000;stroke-width:1.76;stroke-linecap:round;stroke-linejoin:round;" d="M64.9,82.7
			c0,0,10.8-0.6,16.6,0l5.9,0.6"/>
		<path style="fill:none;stroke:#000000;stroke-width:1.76;stroke-linecap:round;stroke-linejoin:round;" d="M118.3,91.7
			c0,0,15.1,1.7,20.2,5.3s13,4.7,13,4.7"/>
		<path style="fill:none;stroke:#000000;stroke-width:1.76;stroke-linecap:round;stroke-linejoin:round;" d="M68,98.1
			c0,0,23.5,1.5,39.9,3.6s41.1,3.6,41.1,3.6"/>
		<path style="fill:none;stroke:#000000;stroke-width:1.76;stroke-linecap:round;stroke-linejoin:round;" d="M37.7,124.4
			c0,0,18.5-5.4,21.8-8.7c2-2,3.8-4.1,5.4-6.4"/>
		<path style="fill:none;stroke:#000000;stroke-width:1.76;stroke-linecap:round;stroke-linejoin:round;" d="M42.7,131.3
			c0,0,4.8-4,24-6.8s19.2,0,35,0s30.7-8,34.8-9.5s12.3-7.4,12.3-7.4"/>
		<path style="fill:none;stroke:#000000;stroke-width:1.76;stroke-linecap:round;stroke-linejoin:round;" d="M59.5,115.7
			c8.7,1.4,17.5,1.8,26.3,1.2c14.3-1.2,18.7-1.4,25.3-3.4c4-1.3,8-2.8,11.8-4.8"/>
		
			<line style="fill:none;stroke:#000000;stroke-width:1.76;stroke-linecap:round;stroke-linejoin:round;" x1="71.9" y1="123.7" x2="80.2" y2="117.2"/>
		<path style="fill:none;stroke:#000000;stroke-width:1.76;stroke-linecap:round;stroke-linejoin:round;" d="M52.9,136.4
			c0,0,6.1-2.1,7.9-5.1c1.1-1.9,1.7-4,1.7-6.2"/>
		<path style="fill:none;stroke:#000000;stroke-width:1.76;stroke-linecap:round;stroke-linejoin:round;" d="M78.8,123.2
			c0.7,1.8,1.6,3.4,2.7,5c1.8,2.6,6.5,5.5,6.5,5.5"/>
		
			<line style="fill:none;stroke:#000000;stroke-width:1.76;stroke-linecap:round;stroke-linejoin:round;" x1="108.5" y1="123.9" x2="113.2" y2="129.1"/>
		<path style="fill:none;stroke:#000000;stroke-width:1.76;stroke-linecap:round;stroke-linejoin:round;" d="M12,89.9
			c0,0,4.1-1.4,15.9,1.8c8.1,2.4,15.9,5.5,23.5,9.2"/>
		<path style="fill:none;stroke:#000000;stroke-width:1.76;stroke-linecap:round;stroke-linejoin:round;" d="M3.1,77.1
			c0,0,4.8-3.4,20.9,0.7s38.5,11.7,38.5,11.7"/>
		<path style="fill:none;stroke:#000000;stroke-width:1.76;stroke-linecap:round;stroke-linejoin:round;" d="M0.9,69l8.5-4.5
			c0,0,5.1,3.9,19.7,4.5S48,69,48,69s19.6,6.6,26.1,6.8s7.2,1.3,7.2,1.3"/>
		
			<line style="fill:none;stroke:#000000;stroke-width:1.76;stroke-linecap:round;stroke-linejoin:round;" x1="42.7" y1="62.3" x2="48" y2="69"/>
		<path style="fill:none;stroke:#000000;stroke-width:1.76;stroke-linecap:round;stroke-linejoin:round;" d="M25.5,78.2
			c0,0,1.5-2.9,7.2-5.2c2.9-1.1,5.6-2.4,8.3-4"/>
		<path style="fill:none;stroke:#000000;stroke-width:1.76;stroke-linecap:round;stroke-linejoin:round;" d="M39.6,105.2
			c0,0,13.5-5.1,18.1-6.1l4.7-1"/>
		<path style="fill:none;stroke:#000000;stroke-width:1.76;stroke-linecap:round;stroke-linejoin:round;" d="M131.1,94
			c0,0-4.9,0.7-5.4,4c-0.3,2,0.3,4,1.5,5.5"/>
		
			<line style="fill:none;stroke:#000000;stroke-width:1.76;stroke-linecap:round;stroke-linejoin:round;" x1="9.4" y1="64.6" x2="10.9" y2="57.4"/>
		<path style="fill:none;stroke:#000000;stroke-width:1.76;stroke-linecap:round;stroke-linejoin:round;" d="M78.8,88.6
			c0,0,2.2-0.9,11.2,1s10.2,2.2,10.2,2.2"/>
		<path style="fill:none;stroke:#000000;stroke-width:1.76;stroke-linecap:round;stroke-linejoin:round;" d="M23,85.8
			c4.4,1,8.7,2.3,13,3.8c7.7,2.6,10.5,4.5,10.5,4.5"/>
		<path style="fill:#666666;" d="M155.1,133.7c0,0-3.1,3-18.9,6.5c-9.3,2.1-18.8,3.1-28.4,2.8l-27.6,29.1c-5.1,3.4-9.9,7.5-14.1,12
			c-5.9,6.6-6.6,9.7-6.6,9.7s-5.9,5.6-8.6,11.5s-3,7.2-3,7.2l4.9-2.3l1,2.3c-0.1-4,1.3-7.9,3.8-11l4.1-4.9c0,0,6.9-10.5,12.8-15.1
			c2.8-2.3,5.8-4.4,8.8-6.4c0,0,5.8-3.6,16.8-12.8c7.7-6.4,8.3-12.8,8.3-12.8s9.8,1.6,24.4-1.8c10.2-2.3,20.3-5.6,29.9-9.7
			L155.1,133.7z"/>
		<path style="fill:none;stroke:#000000;stroke-width:1.76;stroke-linecap:round;stroke-linejoin:round;" d="M155.1,133.7
			c0,0-3.1,3-18.9,6.5c-9.3,2.1-18.8,3.1-28.4,2.8l-27.6,29.1c-5.1,3.4-9.9,7.5-14.1,12c-5.9,6.6-6.6,9.7-6.6,9.7s-5.9,5.6-8.6,11.5
			s-3,7.2-3,7.2l4.9-2.3l1,2.3c-0.1-4,1.3-7.9,3.8-11l4.1-4.9c0,0,6.9-10.5,12.8-15.1c2.8-2.3,5.8-4.4,8.8-6.4
			c0,0,5.8-3.6,16.8-12.8c7.7-6.4,8.3-12.8,8.3-12.8s9.8,1.6,24.4-1.8c10.2-2.3,20.3-5.6,29.9-9.7L155.1,133.7z"/>
		<path style="fill:#666666;" d="M159.2,147.1c0,0-18.7,5.6-28.1,10.7s-11,5.6-11,5.6s-12,19.9-16.9,30.2
			c-3.1,6.7-5.6,13.6-7.5,20.7c0,0-10.9,27.4-12.3,32.5s-3.2,10.2-3.2,10.2c0,5.3,0.6,10.6,1.8,15.8c1.8,6.9,4.9,18.2,4.9,18.2
			l1.1-4.6l5.5,1.8c-4.5-5.5-7.1-12.3-7.4-19.4l-0.5-11.8c0,0,7-21.2,10.1-27.9s5.7-12.3,5.7-12.3s9-13.6,14.6-24.3l11-21
			c0,0,17.1-5.9,26.3-9.7s9.5-4.9,9.5-4.9L159.2,147.1z"/>
		<path style="fill:none;stroke:#000000;stroke-width:1.76;stroke-linecap:round;stroke-linejoin:round;" d="M159.2,147.1
			c0,0-18.7,5.6-28.1,10.7s-11,5.6-11,5.6s-12,19.9-16.9,30.2c-3.1,6.7-5.6,13.6-7.5,20.7c0,0-10.9,27.4-12.3,32.5
			s-3.2,10.2-3.2,10.2c0,5.3,0.6,10.6,1.8,15.8c1.8,6.9,4.9,18.2,4.9,18.2l1.1-4.6l5.5,1.8c-4.5-5.5-7.1-12.3-7.4-19.4l-0.5-11.8
			c0,0,7-21.2,10.1-27.9s5.7-12.3,5.7-12.3s9-13.6,14.6-24.3l11-21c0,0,17.1-5.9,26.3-9.7s9.5-4.9,9.5-4.9L159.2,147.1z"/>
		<path style="fill:none;stroke:#000000;stroke-width:1.76;stroke-linecap:round;stroke-linejoin:round;" d="M172,47.8
			c0,0-13.8-21.1-22.2-31.4S135.5,1.1,132.4,0.9s0,5.4,2.8,5.1l4.6-0.4"/>
		
			<line style="fill:none;stroke:#000000;stroke-width:1.76;stroke-linecap:round;stroke-linejoin:round;" x1="133.7" y1="77.1" x2="136" y2="74.5"/>
		
			<line style="fill:none;stroke:#000000;stroke-width:1.76;stroke-linecap:round;stroke-linejoin:round;" x1="103" y1="40.5" x2="106.4" y2="38.7"/>
		
			<line style="fill:none;stroke:#000000;stroke-width:1.76;stroke-linecap:round;stroke-linejoin:round;" x1="100.2" y1="36.2" x2="103.3" y2="34.4"/>
		
			<line style="fill:none;stroke:#000000;stroke-width:1.76;stroke-linecap:round;stroke-linejoin:round;" x1="96.8" y1="32.4" x2="99.6" y2="30"/>
		
			<line style="fill:none;stroke:#000000;stroke-width:1.76;stroke-linecap:round;stroke-linejoin:round;" x1="93.3" y1="29.5" x2="95.7" y2="26.4"/>
		
			<line style="fill:none;stroke:#000000;stroke-width:1.76;stroke-linecap:round;stroke-linejoin:round;" x1="89.5" y1="26.8" x2="92.7" y2="24.4"/>
		
			<line style="fill:none;stroke:#000000;stroke-width:1.76;stroke-linecap:round;stroke-linejoin:round;" x1="115" y1="61.5" x2="117.6" y2="57.4"/>
		<path style="fill:none;stroke:#000000;stroke-width:1.76;stroke-linecap:round;stroke-linejoin:round;" d="M108.5,149.7
			c0.4-1.4,0.4-2.9,0-4.3l-0.6-2.3"/>
		
			<line style="fill:none;stroke:#000000;stroke-width:1.76;stroke-linecap:round;stroke-linejoin:round;" x1="80.2" y1="172.2" x2="83.4" y2="175.3"/>
		
			<line style="fill:none;stroke:#000000;stroke-width:1.76;stroke-linecap:round;stroke-linejoin:round;" x1="59.5" y1="193.9" x2="61.8" y2="196.7"/>
		<path style="fill:none;stroke:#000000;stroke-width:1.76;stroke-linecap:round;stroke-linejoin:round;" d="M113.2,146.4
			c0,0,2.1,1.1,15.2-1s17.9-4.2,17.9-4.2"/>
		<path style="fill:none;stroke:#000000;stroke-width:1.76;stroke-linecap:round;stroke-linejoin:round;" d="M104.3,151.7
			c0,0-1.5,3.6-8.5,9.6s-6.2,6.1-6.2,6.1"/>
		<path style="fill:none;stroke:#000000;stroke-width:1.76;stroke-linecap:round;stroke-linejoin:round;" d="M120.1,163.5
			c0,0,3.7,1.8,5.2,3.9c0.9,1.3,1.5,2.7,1.7,4.3"/>
		
			<line style="fill:none;stroke:#000000;stroke-width:1.76;stroke-linecap:round;stroke-linejoin:round;" x1="95.7" y1="214.4" x2="101.5" y2="216.9"/>
		
			<line style="fill:none;stroke:#000000;stroke-width:1.76;stroke-linecap:round;stroke-linejoin:round;" x1="80.2" y1="257.1" x2="85.6" y2="257.1"/>
		
			<line style="fill:none;stroke:#000000;stroke-width:1.76;stroke-linecap:round;stroke-linejoin:round;" x1="81.8" y1="264.6" x2="85.6" y2="264.6"/>
		
			<line style="fill:none;stroke:#000000;stroke-width:1.76;stroke-linecap:round;stroke-linejoin:round;" x1="82" y1="272.9" x2="86.5" y2="272.2"/>
		
			<line style="fill:none;stroke:#000000;stroke-width:1.76;stroke-linecap:round;stroke-linejoin:round;" x1="84.2" y1="280.4" x2="88.4" y2="279.5"/>
		
			<line style="fill:none;stroke:#000000;stroke-width:1.76;stroke-linecap:round;stroke-linejoin:round;" x1="53.2" y1="201.5" x2="56.5" y2="203.2"/>
		<path style="fill:none;stroke:#000000;stroke-width:1.76;stroke-linecap:round;stroke-linejoin:round;" d="M127,163.5
			c0,0,5.6-2.8,11.8-5.3c3.3-1.4,6.7-2.4,10.2-3"/>
		<path style="fill:none;stroke:#000000;stroke-width:1.76;stroke-linecap:round;stroke-linejoin:round;" d="M131.7,165.8
			c2-1,4.1-1.8,6.3-2.3"/>
		<path style="fill:none;stroke:#000000;stroke-width:1.76;stroke-linecap:round;stroke-linejoin:round;" d="M121.5,168.7
			c0,0-8.3,12.8-12.8,22.6s-7.3,17.3-7.3,17.3"/>
		<path style="fill:#666666;" d="M211.3,89.3c0,0,12.8-12,15.1-14.1l2.3-2l1.8,1.3l18.4-17.1c0,0,7.4-14.1,14.3-23
			s13.5-12.9,15.1-10s-7.9,3.6-14.8,16.1s-11,19.9-12,21s-10.7,10.7-13.3,12c-1.9,1-3.7,2.2-5.4,3.6l1.2,1.5l-22.2,14.8L211.3,89.3z
			"/>
		<path style="fill:none;stroke:#000000;stroke-width:1.76;stroke-linecap:round;stroke-linejoin:round;" d="M211.3,89.3
			c0,0,12.8-12,15.1-14.1l2.3-2l1.8,1.3l18.4-17.1c0,0,7.4-14.1,14.3-23s13.5-12.9,15.1-10s-7.9,3.6-14.8,16.1s-11,19.9-12,21
			s-10.7,10.7-13.3,12c-1.9,1-3.7,2.2-5.4,3.6l1.2,1.5l-22.2,14.8L211.3,89.3z"/>
		<path style="fill:#E6E6E6;" d="M213.1,99.6c0,0,49.9-26.4,73.9-33.8s66-10.9,73.1-7.3s7.4,12.5,0,25s-15.6,21.2-20.7,23.3
			c-2.9,1.2-5.9,2-9,2.3c0,0,5.6,1.5,1.5,8.9s-7.4,21-29.1,18.7s-45-5.4-60.6-10.7s-29.1-11.5-29.1-11.5L213.1,99.6z"/>
		<path style="fill:none;stroke:#000000;stroke-width:1.76;stroke-linecap:round;stroke-linejoin:round;" d="M213.1,99.6
			c0,0,49.9-26.4,73.9-33.8s66-10.9,73.1-7.3s7.4,12.5,0,25s-15.6,21.2-20.7,23.3c-2.9,1.2-5.9,2-9,2.3c0,0,5.6,1.5,1.5,8.9
			s-7.4,21-29.1,18.7s-45-5.4-60.6-10.7s-29.1-11.5-29.1-11.5L213.1,99.6z"/>
		<path style="fill:none;stroke:#000000;stroke-width:1.76;stroke-linecap:round;stroke-linejoin:round;" d="M330.4,109
			c0,0-45.8,0.5-67.3,0s-50.1-1-50.1-1"/>
		<path style="fill:none;stroke:#000000;stroke-width:1.76;stroke-linecap:round;stroke-linejoin:round;" d="M286.9,65.8
			c0,0,2.3,4.9-1.8,11.3s-7.9,6.9-7.9,6.9l-18.7,5.9"/>
		<path style="fill:none;stroke:#000000;stroke-width:1.76;stroke-linecap:round;stroke-linejoin:round;" d="M301.5,82.7
			c0,0-10.8-0.6-16.6,0l-5.9,0.6"/>
		<path style="fill:none;stroke:#000000;stroke-width:1.76;stroke-linecap:round;stroke-linejoin:round;" d="M248.1,91.7
			c0,0-15.1,1.7-20.2,5.3s-13,4.7-13,4.7"/>
		<path style="fill:none;stroke:#000000;stroke-width:1.76;stroke-linecap:round;stroke-linejoin:round;" d="M298.5,98.1
			c0,0-23.5,1.5-39.9,3.6s-41.2,3.6-41.2,3.6"/>
		<path style="fill:none;stroke:#000000;stroke-width:1.76;stroke-linecap:round;stroke-linejoin:round;" d="M328.7,124.4
			c0,0-18.5-5.4-21.8-8.7c-2-2-3.8-4.1-5.4-6.4"/>
		<path style="fill:none;stroke:#000000;stroke-width:1.76;stroke-linecap:round;stroke-linejoin:round;" d="M323.7,131.3
			c0,0-4.8-4-24-6.8s-19.2,0-35,0s-30.7-8-34.8-9.5s-12.3-7.4-12.3-7.4"/>
		<path style="fill:none;stroke:#000000;stroke-width:1.76;stroke-linecap:round;stroke-linejoin:round;" d="M306.9,115.7
			c-8.7,1.4-17.5,1.8-26.3,1.2c-14.3-1.2-18.7-1.4-25.3-3.4c-4-1.3-8-2.8-11.8-4.8"/>
		
			<line style="fill:none;stroke:#000000;stroke-width:1.76;stroke-linecap:round;stroke-linejoin:round;" x1="294.5" y1="123.7" x2="286.2" y2="117.2"/>
		<path style="fill:none;stroke:#000000;stroke-width:1.76;stroke-linecap:round;stroke-linejoin:round;" d="M313.5,136.4
			c0,0-6.1-2.1-7.9-5.1c-1.1-1.9-1.7-4-1.7-6.2"/>
		<path style="fill:none;stroke:#000000;stroke-width:1.76;stroke-linecap:round;stroke-linejoin:round;" d="M287.6,123.2
			c-0.7,1.8-1.6,3.4-2.7,5c-1.8,2.6-6.5,5.5-6.5,5.5"/>
		
			<line style="fill:none;stroke:#000000;stroke-width:1.76;stroke-linecap:round;stroke-linejoin:round;" x1="257.9" y1="123.9" x2="253.2" y2="129.1"/>
		<path style="fill:none;stroke:#000000;stroke-width:1.76;stroke-linecap:round;stroke-linejoin:round;" d="M354.4,89.9
			c0,0-4.1-1.4-15.9,1.8c-8.1,2.4-15.9,5.5-23.5,9.2"/>
		<path style="fill:none;stroke:#000000;stroke-width:1.76;stroke-linecap:round;stroke-linejoin:round;" d="M363.3,77.1
			c0,0-4.8-3.4-20.9,0.7s-38.5,11.7-38.5,11.7"/>
		<path style="fill:none;stroke:#000000;stroke-width:1.76;stroke-linecap:round;stroke-linejoin:round;" d="M365.5,69l-8.5-4.4
			c0,0-5.1,3.8-19.7,4.4s-18.9,0-18.9,0s-19.6,6.6-26.1,6.8s-7.2,1.3-7.2,1.3"/>
		
			<line style="fill:none;stroke:#000000;stroke-width:1.76;stroke-linecap:round;stroke-linejoin:round;" x1="323.7" y1="62.3" x2="318.4" y2="69"/>
		<path style="fill:none;stroke:#000000;stroke-width:1.76;stroke-linecap:round;stroke-linejoin:round;" d="M340.9,78.2
			c0,0-1.5-2.9-7.2-5.2c-2.9-1.1-5.6-2.4-8.3-4"/>
		<path style="fill:none;stroke:#000000;stroke-width:1.76;stroke-linecap:round;stroke-linejoin:round;" d="M326.8,105.2
			c0,0-13.5-5.1-18.1-6.1l-4.6-1"/>
		<path style="fill:none;stroke:#000000;stroke-width:1.76;stroke-linecap:round;stroke-linejoin:round;" d="M235.3,94
			c0,0,4.9,0.7,5.4,4c0.3,2-0.3,4-1.5,5.5"/>
		
			<line style="fill:none;stroke:#000000;stroke-width:1.76;stroke-linecap:round;stroke-linejoin:round;" x1="357" y1="64.6" x2="355.5" y2="57.4"/>
		<path style="fill:none;stroke:#000000;stroke-width:1.76;stroke-linecap:round;stroke-linejoin:round;" d="M287.6,88.6
			c0,0-2.2-0.9-11.1,1s-10.2,2.2-10.2,2.2"/>
		<path style="fill:none;stroke:#000000;stroke-width:1.76;stroke-linecap:round;stroke-linejoin:round;" d="M343.5,85.8
			c-4.4,1-8.7,2.3-13,3.8c-7.7,2.6-10.5,4.5-10.5,4.5"/>
		<path style="fill:#666666;" d="M211.3,133.7c0,0,3.1,3,18.9,6.5c9.3,2.1,18.8,3.1,28.4,2.8l27.6,29.1c5.1,3.4,9.9,7.5,14.1,12
			c5.9,6.6,6.6,9.7,6.6,9.7s5.9,5.6,8.6,11.5s2.9,7.2,2.9,7.2l-4.9-2.3l-1,2.3c0.1-4-1.3-7.9-3.8-11l-4.1-4.9
			c0,0-6.9-10.5-12.8-15.1c-2.8-2.3-5.8-4.4-8.8-6.4c0,0-5.8-3.6-16.8-12.8c-7.7-6.4-8.3-12.8-8.3-12.8s-9.8,1.6-24.4-1.8
			c-10.2-2.3-20.3-5.6-29.9-9.7L211.3,133.7z"/>
		<path style="fill:none;stroke:#000000;stroke-width:1.76;stroke-linecap:round;stroke-linejoin:round;" d="M211.3,133.7
			c0,0,3.1,3,18.9,6.5c9.3,2.1,18.8,3.1,28.4,2.8l27.6,29.1c5.1,3.4,9.9,7.5,14.1,12c5.9,6.6,6.6,9.7,6.6,9.7s5.9,5.6,8.6,11.5
			s2.9,7.2,2.9,7.2l-4.9-2.3l-1,2.3c0.1-4-1.3-7.9-3.8-11l-4.1-4.9c0,0-6.9-10.5-12.8-15.1c-2.8-2.3-5.8-4.4-8.8-6.4
			c0,0-5.8-3.6-16.8-12.8c-7.7-6.4-8.3-12.8-8.3-12.8s-9.8,1.6-24.4-1.8c-10.2-2.3-20.3-5.6-29.9-9.7L211.3,133.7z"/>
		<path style="fill:#666666;" d="M207.2,147.1c0,0,18.7,5.6,28.1,10.7s11,5.6,11,5.6s12,19.9,16.9,30.2c3.1,6.7,5.6,13.6,7.5,20.7
			c0,0,11,27.4,12.3,32.5s3.2,10.2,3.2,10.2c0,5.3-0.6,10.6-1.8,15.9c-1.8,6.9-4.9,18.2-4.9,18.2l-1.1-4.6l-5.5,1.8
			c4.5-5.5,7.1-12.3,7.4-19.4l0.5-11.8c0,0-7-21.2-10.1-27.9s-5.7-12.3-5.7-12.3s-9-13.6-14.6-24.3l-11-21c0,0-17.1-5.9-26.3-9.7
			s-9.5-4.9-9.5-4.9L207.2,147.1z"/>
		<path style="fill:none;stroke:#000000;stroke-width:1.76;stroke-linecap:round;stroke-linejoin:round;" d="M207.2,147.1
			c0,0,18.7,5.6,28.1,10.7s11,5.6,11,5.6s12,19.9,16.9,30.2c3.1,6.7,5.6,13.6,7.5,20.7c0,0,11,27.4,12.3,32.5s3.2,10.2,3.2,10.2
			c0,5.3-0.6,10.6-1.8,15.9c-1.8,6.9-4.9,18.2-4.9,18.2l-1.1-4.6l-5.5,1.8c4.5-5.5,7.1-12.3,7.4-19.4l0.5-11.8c0,0-7-21.2-10.1-27.9
			s-5.7-12.3-5.7-12.3s-9-13.6-14.6-24.3l-11-21c0,0-17.1-5.9-26.3-9.7s-9.5-4.9-9.5-4.9L207.2,147.1z"/>
		<path style="fill:none;stroke:#000000;stroke-width:1.76;stroke-linecap:round;stroke-linejoin:round;" d="M194.4,47.8
			c0,0,13.8-21.1,22.2-31.4S231,1.1,234,0.9s0,5.4-2.8,5.1l-4.6-0.4"/>
		
			<line style="fill:none;stroke:#000000;stroke-width:1.76;stroke-linecap:round;stroke-linejoin:round;" x1="232.7" y1="77.1" x2="230.4" y2="74.5"/>
		
			<line style="fill:none;stroke:#000000;stroke-width:1.76;stroke-linecap:round;stroke-linejoin:round;" x1="263.4" y1="40.5" x2="260" y2="38.7"/>
		
			<line style="fill:none;stroke:#000000;stroke-width:1.76;stroke-linecap:round;stroke-linejoin:round;" x1="266.2" y1="36.2" x2="263.2" y2="34.4"/>
		
			<line style="fill:none;stroke:#000000;stroke-width:1.76;stroke-linecap:round;stroke-linejoin:round;" x1="269.6" y1="32.4" x2="266.9" y2="30"/>
		
			<line style="fill:none;stroke:#000000;stroke-width:1.76;stroke-linecap:round;stroke-linejoin:round;" x1="273.1" y1="29.5" x2="270.7" y2="26.4"/>
		
			<line style="fill:none;stroke:#000000;stroke-width:1.76;stroke-linecap:round;stroke-linejoin:round;" x1="276.9" y1="26.8" x2="273.7" y2="24.4"/>
		
			<line style="fill:none;stroke:#000000;stroke-width:1.76;stroke-linecap:round;stroke-linejoin:round;" x1="251.4" y1="61.5" x2="248.8" y2="57.4"/>
		<path style="fill:none;stroke:#000000;stroke-width:1.76;stroke-linecap:round;stroke-linejoin:round;" d="M257.9,149.7
			c-0.4-1.4-0.4-2.9,0-4.3l0.6-2.3"/>
		
			<line style="fill:none;stroke:#000000;stroke-width:1.76;stroke-linecap:round;stroke-linejoin:round;" x1="286.2" y1="172.2" x2="283" y2="175.3"/>
		
			<line style="fill:none;stroke:#000000;stroke-width:1.76;stroke-linecap:round;stroke-linejoin:round;" x1="306.9" y1="193.9" x2="304.6" y2="196.7"/>
		<path style="fill:none;stroke:#000000;stroke-width:1.76;stroke-linecap:round;stroke-linejoin:round;" d="M253.2,146.4
			c0,0-2.1,1.1-15.1-1s-17.9-4.2-17.9-4.2"/>
		<path style="fill:none;stroke:#000000;stroke-width:1.76;stroke-linecap:round;stroke-linejoin:round;" d="M262.1,151.7
			c0,0,1.5,3.6,8.5,9.6s6.2,6.1,6.2,6.1"/>
		<path style="fill:none;stroke:#000000;stroke-width:1.76;stroke-linecap:round;stroke-linejoin:round;" d="M246.3,163.5
			c0,0-3.7,1.8-5.2,3.9c-0.9,1.3-1.5,2.7-1.7,4.3"/>
		
			<line style="fill:none;stroke:#000000;stroke-width:1.76;stroke-linecap:round;stroke-linejoin:round;" x1="270.7" y1="214.4" x2="265" y2="216.9"/>
		
			<line style="fill:none;stroke:#000000;stroke-width:1.76;stroke-linecap:round;stroke-linejoin:round;" x1="286.2" y1="257.1" x2="280.8" y2="257.1"/>
		
			<line style="fill:none;stroke:#000000;stroke-width:1.76;stroke-linecap:round;stroke-linejoin:round;" x1="284.6" y1="264.6" x2="280.8" y2="264.6"/>
		
			<line style="fill:none;stroke:#000000;stroke-width:1.76;stroke-linecap:round;stroke-linejoin:round;" x1="284.4" y1="272.9" x2="280" y2="272.2"/>
		
			<line style="fill:none;stroke:#000000;stroke-width:1.76;stroke-linecap:round;stroke-linejoin:round;" x1="282.2" y1="280.4" x2="278" y2="279.5"/>
		
			<line style="fill:none;stroke:#000000;stroke-width:1.76;stroke-linecap:round;stroke-linejoin:round;" x1="313.2" y1="201.5" x2="309.9" y2="203.2"/>
		<path style="fill:none;stroke:#000000;stroke-width:1.76;stroke-linecap:round;stroke-linejoin:round;" d="M239.4,163.5
			c0,0-5.6-2.8-11.8-5.3c-3.3-1.4-6.7-2.4-10.2-3"/>
		<path style="fill:none;stroke:#000000;stroke-width:1.76;stroke-linecap:round;stroke-linejoin:round;" d="M234.7,165.8
			c-2-1-4.1-1.8-6.3-2.3"/>
		<path style="fill:none;stroke:#000000;stroke-width:1.76;stroke-linecap:round;stroke-linejoin:round;" d="M244.9,168.7
			c0,0,8.3,12.8,12.8,22.6s7.3,17.3,7.3,17.3"/>
		<path style="fill:#FFD200;" d="M164.9,136.9c0,0-16.1,11.6-24.3,36.4s-1,53.1,8.2,69.5s18,26.6,33.3,27.6s29.9-15.3,34.7-30.2
			s12.5-40.9,5.1-69.6s-21.3-33.3-26.9-37C180.1,123.9,164.9,136.9,164.9,136.9"/>
		<path style="fill:none;stroke:#000000;stroke-width:1.76;stroke-linecap:round;stroke-linejoin:round;" d="M164.9,136.9
			c0,0-16.1,11.6-24.3,36.4s-1,53.1,8.2,69.5s18,26.6,33.3,27.6s29.9-15.3,34.7-30.2s12.5-40.9,5.1-69.6s-21.3-33.3-26.9-37
			C180.1,123.9,164.9,136.9,164.9,136.9z"/>
		<path style="fill:#A67C52;" d="M159.5,83.2c0,0-5.8-15,3.8-28.8s33.4-7.3,36.8,0s5,16.1,3.8,22.2s-3.2,14.2-21.9,15
			S159.5,83.3,159.5,83.2"/>
		<path style="fill:none;stroke:#000000;stroke-width:1.76;stroke-linecap:round;stroke-linejoin:round;" d="M159.5,83.2
			c0,0-5.8-15,3.8-28.8s33.4-7.3,36.8,0s5,16.1,3.8,22.2s-3.2,14.2-21.9,15S159.5,83.2,159.5,83.2z"/>
		<path style="fill:#1A1A1A;" d="M164.9,66.8c-1.3,5.4-4.2,9.3-6.5,8.7s-3.2-5.3-1.9-10.7s4.2-9.3,6.5-8.7S166.2,61.4,164.9,66.8"/>
		<path style="fill:none;stroke:#000000;stroke-width:1.76;stroke-linecap:round;stroke-linejoin:round;" d="M164.9,66.8
			c-1.3,5.4-4.2,9.3-6.5,8.7s-3.2-5.3-1.9-10.7s4.2-9.3,6.5-8.7S166.2,61.4,164.9,66.8z"/>
		<path style="fill:#1A1A1A;" d="M197.9,66.8c1.3,5.4,4.2,9.3,6.5,8.7s3.2-5.3,1.9-10.7s-4.2-9.3-6.5-8.7S196.6,61.4,197.9,66.8"/>
		<path style="fill:none;stroke:#000000;stroke-width:1.76;stroke-linecap:round;stroke-linejoin:round;" d="M197.9,66.8
			c1.3,5.4,4.2,9.3,6.5,8.7s3.2-5.3,1.9-10.7s-4.2-9.3-6.5-8.7S196.6,61.4,197.9,66.8z"/>
		<path style="fill:#FFD200;" d="M157.8,85.5l-4.7-3.3l2.3,5.4l-3.9-0.8l3.1,6.7c0,0-7.7-0.3-7.4,0s3.1,1.6,3.1,1.6l-4.6,3.1
			l4.1,2.6h-6.1l5.6,2.8c0,0-8.7,1.8-7.2,2s6.6,2.1,6.6,2.1l-6.8,2l4,1.8l-4,3.8h6.1c0,0-5.4,7.2-4.6,6.7c1.5-0.6,3-1.1,4.6-1.5
			l-3.3,5.6l6.9-1.3l-5.1,6.4l5.1-1l-1.7,4.1l6.3-1.3l-3.6,5.4l5.2-2.3l-2.1,5.9l5.1-4.1l-1.7,5.6l5.1-3.1l-1,4.9l3.8-3.3l1.3,6.4
			l3.8-5.4v5.4l4.1-5.4l2.3,6.9v-5.9l3.6,5.9l1.2-5.9l3.8,5.9l1.8-6.4l3.6,6.4c0,0-1.5-5.9,0-5.6s5.1,5.6,5.1,5.6v-5.9l3.1,3.3V141
			l5.1,5.6l-1.4-6.9l4.7,2.6l-3.1-5.1l5.1,1.8l-3.1-4.1h4.6l-3.8-3.9l6.4,0.5l-4.1-4.9l5.4-0.5l-5.9-2.8l5.9-1.3l-4.6-2.3l6.4-2.6
			l-7.7-1.2l7.7-1.8l-7.2-2.6l7.2-2.3l-6.9-1l6.9-2l-7.2-2.3l7.2-3.3l-7.2-0.8l7.2-2.6l-7.7-1.4l5.6-4.3l-6.6,1.2l4.1-4.6l-4.9,0.5
			l1.3-6.6l-3.8,3.3l-0.3-5.1l-4,5.1v-6.9l-3.4,4.8l-1-4.8c-0.9-0.1-1.7,0.7-1.8,1.6c0,0.1,0,0.1,0,0.2c0,1.8-2.8-3.3-2.8-3.3
			l-0.8,5.4l-3.1-5.4l-0.8,5.4l-2-5.4l-2.6,6.4l-1.7-6.4l-1,5.9l-3.7-5.9l-1.5,4.6l-0.8-4.6l-1.5,5.4l-3.5-3.8l-0.3,3.8l-4.4-3.6
			v3.1l-3.1-3.3l0.3,5.4l-4.8-3.6L157.8,85.5z"/>
		<path style="fill:none;stroke:#000000;stroke-width:1.76;stroke-linecap:round;stroke-linejoin:round;" d="M157.8,85.5l-4.7-3.3
			l2.3,5.4l-3.9-0.8l3.1,6.7c0,0-7.7-0.3-7.4,0s3.1,1.6,3.1,1.6l-4.6,3.1l4.1,2.6h-6.1l5.6,2.8c0,0-8.7,1.8-7.2,2s6.6,2.1,6.6,2.1
			l-6.8,2l4,1.8l-4,3.8h6.1c0,0-5.4,7.2-4.6,6.7c1.5-0.6,3-1.1,4.6-1.5l-3.3,5.6l6.9-1.3l-5.1,6.4l5.1-1l-1.7,4.1l6.3-1.3l-3.6,5.4
			l5.2-2.3l-2.1,5.9l5.1-4.1l-1.7,5.6l5.1-3.1l-1,4.9l3.8-3.3l1.3,6.4l3.8-5.4v5.4l4.1-5.4l2.3,6.9v-5.9l3.6,5.9l1.2-5.9l3.8,5.9
			l1.8-6.4l3.6,6.4c0,0-1.5-5.9,0-5.6s5.1,5.6,5.1,5.6v-5.9l3.1,3.3V141l5.1,5.6l-1.4-6.9l4.7,2.6l-3.1-5.1l5.1,1.8l-3.1-4.1h4.6
			l-3.8-3.9l6.4,0.5l-4.1-4.9l5.4-0.5l-5.9-2.8l5.9-1.3l-4.6-2.3l6.4-2.6l-7.7-1.2l7.7-1.8l-7.2-2.6l7.2-2.3l-6.9-1l6.9-2l-7.2-2.3
			l7.2-3.3l-7.2-0.8l7.2-2.6l-7.7-1.4l5.6-4.3l-6.6,1.2l4.1-4.6l-4.9,0.5l1.3-6.6l-3.8,3.3l-0.3-5.1l-4,5.1v-6.9l-3.4,4.8l-1-4.8
			c-0.9-0.1-1.7,0.7-1.8,1.6c0,0.1,0,0.1,0,0.2c0,1.8-2.8-3.3-2.8-3.3l-0.8,5.4l-3.1-5.4l-0.8,5.4l-2-5.4l-2.6,6.4l-1.7-6.4l-1,5.9
			l-3.7-5.9l-1.5,4.6l-0.8-4.6l-1.5,5.4l-3.5-3.8l-0.3,3.8l-4.4-3.6v3.1l-3.1-3.3l0.3,5.4l-4.8-3.6L157.8,85.5z"/>
		<path style="fill:#1A1A1A;" d="M155.1,147.1c0,0,9.5,9.2,29.1,8.2s27.1-8.2,27.1-8.2l5,8.3c0,0-8.3,9.1-34.4,9.6
			s-32.2-11.2-32.2-11.2L155.1,147.1z"/>
		<path style="fill:none;stroke:#000000;stroke-width:1.76;stroke-linecap:round;stroke-linejoin:round;" d="M155.1,147.1
			c0,0,9.5,9.2,29.1,8.2s27.1-8.2,27.1-8.2l5,8.3c0,0-8.3,9.1-34.4,9.6s-32.2-11.2-32.2-11.2L155.1,147.1z"/>
		<path style="fill:#1A1A1A;" d="M143.4,165.8c0,0,11.3,12,38.6,11s38.5-11,38.5-11l2.8,11c0,0-17.3,11.2-42.2,10.7
			s-41.5-10.9-41.5-10.9L143.4,165.8z"/>
		<path style="fill:none;stroke:#000000;stroke-width:1.76;stroke-linecap:round;stroke-linejoin:round;" d="M143.4,165.8
			c0,0,11.3,12,38.6,11s38.5-11,38.5-11l2.8,11c0,0-17.3,11.2-42.2,10.7s-41.5-10.9-41.5-10.9L143.4,165.8z"/>
		<path style="fill:#1A1A1A;" d="M137.2,191.3c0,0,13.2,11.6,44.9,11.6s42.8-11.6,42.8-11.6l-0.2,11.6c0,0-10.7,12.3-42.7,12.3
			s-44.9-13-44.9-13V191.3z"/>
		<path style="fill:none;stroke:#000000;stroke-width:1.76;stroke-linecap:round;stroke-linejoin:round;" d="M137.2,191.3
			c0,0,13.2,11.6,44.9,11.6s42.8-11.6,42.8-11.6l-0.2,11.6c0,0-10.7,12.3-42.7,12.3s-44.9-13-44.9-13V191.3z"/>
		<path style="fill:#1A1A1A;" d="M139.6,218.4c0,0,9.7,10.8,41.4,10.8s41.5-10.1,41.5-10.1l-2.7,11.3c0,0-9,9.3-37.7,9.3
			s-38.9-9.2-38.9-9.2L139.6,218.4z"/>
		<path style="fill:none;stroke:#000000;stroke-width:1.76;stroke-linecap:round;stroke-linejoin:round;" d="M139.6,218.4
			c0,0,9.7,10.8,41.4,10.8s41.5-10.1,41.5-10.1l-2.7,11.3c0,0-9,9.3-37.7,9.3s-38.9-9.2-38.9-9.2L139.6,218.4z"/>
		<path style="fill:#1A1A1A;" d="M149.9,244.7c0,0,10.6,7.3,33.3,7.3s32.7-9.3,32.7-9.3l-4.2,7.9c0,0-8.7,7.9-28.8,7.9
			s-27.5-5-27.5-5L149.9,244.7z"/>
		<path style="fill:none;stroke:#000000;stroke-width:1.76;stroke-linecap:round;stroke-linejoin:round;" d="M149.9,244.7
			c0,0,10.6,7.3,33.3,7.3s32.7-9.3,32.7-9.3l-4.2,7.9c0,0-8.7,7.9-28.8,7.9s-27.5-5-27.5-5L149.9,244.7z"/>
		<path style="fill:#1A1A1A;" d="M164.9,263.8c0,0,5.6,3.3,18.3,3.3s18.6-4.4,18.6-4.4s-6.5,7.7-19.6,7.7
			C172.3,270.4,164.9,263.8,164.9,263.8"/>
		<path style="fill:none;stroke:#000000;stroke-width:1.76;stroke-linecap:round;stroke-linejoin:round;" d="M164.9,263.8
			c0,0,5.6,3.3,18.3,3.3s18.6-4.4,18.6-4.4s-6.5,7.7-19.6,7.7C172.3,270.4,164.9,263.8,164.9,263.8z"/>
		<path style="fill:none;stroke:#000000;stroke-width:1.76;stroke-linecap:round;stroke-linejoin:round;" d="M167.6,55
			c0,0,2.9,2.4,1.9,9.5s-2.7,9.1-2.7,9.1"/>
		<path style="fill:none;stroke:#000000;stroke-width:1.76;stroke-linecap:round;stroke-linejoin:round;" d="M173.1,57
			c0,0,1.9,2.3,1.1,7.5s-2.3,7.2-2.3,7.2"/>
		<path style="fill:none;stroke:#000000;stroke-width:1.76;stroke-linecap:round;stroke-linejoin:round;" d="M149.9,160.9
			c0,0,2.8,4.4,18.4,7.8"/>
		<path style="fill:none;stroke:#000000;stroke-width:1.76;stroke-linecap:round;stroke-linejoin:round;" d="M142.2,182.8
			c0,0,4.1,4.2,16.4,6.9c6.8,1.6,13.7,2.4,20.6,2.6"/>
		<path style="fill:none;stroke:#000000;stroke-width:1.76;stroke-linecap:round;stroke-linejoin:round;" d="M143.6,212.6
			c4.4,2.7,9.2,4.6,14.1,5.8c5.9,1.3,11.9,2.1,18,2.4"/>
		<path style="fill:none;stroke:#000000;stroke-width:1.76;stroke-linecap:round;stroke-linejoin:round;" d="M151.5,239.7
			c4.8,1.7,9.8,3,14.9,3.7c8.7,1.3,11.9,0.9,11.9,0.9"/>
		<path style="fill:none;stroke:#000000;stroke-width:1.76;stroke-linecap:round;stroke-linejoin:round;" d="M166.7,260.6
			c0,0,1.2,0.9,7.9,1.4"/>
		<path style="fill:none;stroke:#000000;stroke-width:1.76;stroke-linecap:round;stroke-linejoin:round;" d="M172.2,91l-3.4-3.9V91
			l-3.6-2l0.9,2.5l-5.8-2.2l3.4,6.3l-3.4-1.4l1.8,4.2h-7l5.1,4.3h-5.1l4.1,2.8l-4.8,2.8h3.8l-5,6l7.1-0.9c0,0-5.7,3-5.1,3.4
			s5.1,0,5.1,0l-5.1,4.4h7l-3.9,2.8l5.4,1.9l-3.4,4.1h4.8"/>
		<polyline style="fill:none;stroke:#000000;stroke-width:1.76;stroke-linecap:round;stroke-linejoin:round;" points="199.1,103.9 
			203.6,103.6 201.4,106.8 205.5,108.6 202.1,110.5 205.5,112.1 202.1,114.4 207.8,118.8 202.1,118.8 205.8,120.3 200.9,121.6 
			205.5,126.3 199.1,125.2 		"/>
	</g>
</g>
</svg>
