<?xml version="1.0" encoding="utf-8"?>
<!-- Generator: Adobe Illustrator 23.0.2, SVG Export Plug-In . SVG Version: 6.00 Build 0)  -->
<svg version="1.1" id="Réteg_1" xmlns="http://www.w3.org/2000/svg" xmlns:xlink="http://www.w3.org/1999/xlink" x="0px" y="0px"
	 viewBox="0 0 144 281.9" style="enable-background:new 0 0 144 281.9;" xml:space="preserve">
<title>cimerkep_22</title>
<g>
	<g>
		<path style="fill:#E6E6E6;" d="M7.4,1.3v24.6c0,0-1.4,4.1,10,9.1l11.4,5c-2.3,0-4.1,1.9-4.1,4.2c0,0.1,0,0.2,0,0.3
			c0,4.5,5.5,6.8,5.5,6.8L22,281h98.7l-9.6-229.2c0,0,6.4-0.5,6.4-6.4s-4.6-6.4-4.6-6.4s10.5-0.5,17.7-5.9c7.3-5.5,5.9-7.7,5.9-7.7
			l-0.5-24.6L7.4,1.3z"/>
		<path style="fill:none;stroke:#000000;stroke-width:1.76;stroke-linecap:round;stroke-linejoin:round;" d="M7.4,1.3v24.6
			c0,0-1.4,4.1,10,9.1l11.4,5c-2.3,0-4.1,1.9-4.1,4.2c0,0.1,0,0.2,0,0.3c0,4.5,5.5,6.8,5.5,6.8L22,281h98.7l-9.6-229.2
			c0,0,6.4-0.5,6.4-6.4s-4.6-6.4-4.6-6.4s10.5-0.5,17.7-5.9c7.3-5.5,5.9-7.7,5.9-7.7l-0.5-24.6L7.4,1.3z"/>
		
			<line style="fill:none;stroke:#000000;stroke-width:1.76;stroke-linecap:round;stroke-linejoin:round;" x1="7.4" y1="25.9" x2="136.6" y2="25.4"/>
		
			<line style="fill:none;stroke:#000000;stroke-width:1.76;stroke-linecap:round;stroke-linejoin:round;" x1="28.8" y1="40" x2="112.9" y2="39.1"/>
		
			<line style="fill:none;stroke:#000000;stroke-width:1.76;stroke-linecap:round;stroke-linejoin:round;" x1="30.2" y1="51.3" x2="111.1" y2="51.8"/>
		
			<line style="fill:none;stroke:#000000;stroke-width:1.76;stroke-linecap:round;stroke-linejoin:round;" x1="29.7" y1="59.5" x2="111.3" y2="59.5"/>
		
			<line style="fill:none;stroke:#000000;stroke-width:1.76;stroke-linecap:round;stroke-linejoin:round;" x1="42.7" y1="60" x2="37.9" y2="281"/>
		
			<line style="fill:none;stroke:#000000;stroke-width:1.76;stroke-linecap:round;stroke-linejoin:round;" x1="69.3" y1="61.4" x2="69.3" y2="281"/>
		
			<line style="fill:none;stroke:#000000;stroke-width:1.76;stroke-linecap:round;stroke-linejoin:round;" x1="55.5" y1="60.3" x2="52.4" y2="281"/>
		
			<line style="fill:none;stroke:#000000;stroke-width:1.76;stroke-linecap:round;stroke-linejoin:round;" x1="83.5" y1="60.1" x2="87" y2="281"/>
		
			<line style="fill:none;stroke:#000000;stroke-width:1.76;stroke-linecap:round;stroke-linejoin:round;" x1="96.7" y1="60.1" x2="104.9" y2="281"/>
		<line style="fill:none;" x1="14.5" y1="18.6" x2="70.9" y2="18.6"/>
		
			<line style="fill:none;stroke:#000000;stroke-width:1.76;stroke-linecap:round;stroke-linejoin:round;" x1="14.5" y1="18.6" x2="70.9" y2="18.6"/>
		<line style="fill:none;" x1="23.8" y1="31.6" x2="68.8" y2="31.6"/>
		
			<line style="fill:none;stroke:#000000;stroke-width:1.76;stroke-linecap:round;stroke-linejoin:round;" x1="23.8" y1="31.6" x2="68.8" y2="31.6"/>
		<line style="fill:none;" x1="30.6" y1="45.4" x2="67.9" y2="45.4"/>
		
			<line style="fill:none;stroke:#000000;stroke-width:1.76;stroke-linecap:round;stroke-linejoin:round;" x1="30.6" y1="45.4" x2="67.9" y2="45.4"/>
		<line style="fill:none;" x1="0.9" y1="281" x2="143.2" y2="280.6"/>
		
			<line style="fill:none;stroke:#000000;stroke-width:1.76;stroke-linecap:round;stroke-linejoin:round;" x1="0.9" y1="281" x2="143.2" y2="280.6"/>
		
			<line style="fill:none;stroke:#000000;stroke-width:1.76;stroke-linecap:round;stroke-linejoin:round;" x1="35.6" y1="73.2" x2="30.2" y2="268.3"/>
	</g>
</g>
</svg>
