<?xml version="1.0" encoding="utf-8"?>
<!-- Generator: Adobe Illustrator 23.0.2, SVG Export Plug-In . SVG Version: 6.00 Build 0)  -->
<svg version="1.1" id="Réteg_1" xmlns="http://www.w3.org/2000/svg" xmlns:xlink="http://www.w3.org/1999/xlink" x="0px" y="0px"
	 viewBox="0 0 181.3 321.8" style="enable-background:new 0 0 181.3 321.8;" xml:space="preserve">
<title>cimerkep_09</title>
<g>
	<g>
		<path style="fill:#009A3D;" d="M66.3,70.3c0,0-10.7,0-16.5-11.5s-2.7-18.2-2.7-35S45.6,3.9,53.2,1.2S69.7,12,77,18.1
			s15.3,14.2,18.8,26.5s-5,17.6-5,17.6c2.4,1.2,4.4,3.1,5.8,5.4c2.2,3.8,0,6.1,0,6.1s8.8,1.2,14.1,7.5s6.1,8.2,6.1,8.2
			s9.6-8.4,16.1-11.5c6.5-3.1,0-9.6,2.3-14.6s4.2-2.3,4.2-2.3c-1.3,1.5-2,3.5-1.7,5.6c0.4,3.4,2.1,4.4,2.1,4.4s2.5-5,2.5-7.5
			s0.6-4.6,3.4-5.9c1.4-0.8,3-1.2,4.6-1.3c-1.4,1.1-2.6,2.4-3.6,3.8c-1.1,1.9-1.1,4.8-1.7,6.5s-1.3,3.4-1.3,3.4s3.8-1.7,4-3.8
			s2.9-6,5.2-6.7c1.4-0.5,2.9-0.9,4.4-1.2c0,0-4,3.3-5.2,5c-1.2,1.7-0.6,4.6-1.7,5.6c-1.1,1.1-2.1,2.3-3.1,3.6c0,0,6.5-4,8.4-4.8
			l8.1-3.3c0,0-4.6,5.4-7.9,7.5s-8.4,4.8-8.4,4.8s5.4,0.4,7.9-0.4s6.7-3.8,6.7-3.8s1.3,2.7-4.6,5.8s-9,2-11.1,2.9s-9.2,11.7-18.6,18
			s-12.5,7.1-18.2,3.8c-3.7-2.3-6.6-5.5-8.4-9.4c0,0,1.9,4,0.8,4.4s1.5,3.8,0.4,5s0.8,3.8-0.2,4.6s1.2,5-0.4,5.8s1,4,0.2,4.8
			s1.5,3.7-0.8,4.8s1,3.4,0,4.8c-1,1.3,1.7,4.8-0.2,5.2s1.3,2.7,0.2,4.4s1.5,5-0.2,5.8s2.1,2.5-0.2,5s2.3,2.1,0,5s2.3,1,1.2,4.4
			s2.9,4,1.5,5.4s1.3,2.9,0,4l-1.3,1.1c0,0,10.3-5,16.5-10.2s12.8-12.5,18.8-10.6s6.7,6.5,6.3,11.9s0.2,24.4,0.2,24.4
			s1.1-4.4,3.6-4.2l2.5,0.2c0,0-0.2-5.6,2.5-8.4s4.4,1.5,4.4,1.5c-1-0.5-2.3-0.1-2.8,0.9c0,0.1-0.1,0.2-0.1,0.2
			c-0.6,1.6-0.7,3.3-0.4,5c1.5-0.8,3.2-1.5,4.8-2.1c2.3-0.8,1.3-3.4,6.5-4.4s5.2,3.4,5.2,3.4s-4-1.7-6.9,0.6s-2.9,3.6-2.9,3.6
			s2.1,0.4,4,1s3.4-2.9,8.8-2.7s5,3.6,5,3.6s-6.1-1.7-8.1,0.2c-1.1,1.1-2.4,2-3.8,2.7c0,0-5.2-1.9-6.5-1l-1.3,1l7.9,2.1l2.1,0.6
			c0,0,1.7-2.5,7.3-1.7c2.8,0.2,4.9,2.5,4.7,5.3c0,0.2,0,0.5-0.1,0.7c0,0-3.6-3.6-7.1-3.1c-2.2,0.5-4.3,1.5-5.9,3.1
			c-4-0.9-8.1-0.9-12.1,0c-6.1,1.5-7.3,3.1-7.3,3.1c0.2,2.1,1.2,3.9,2.9,5.2c2.9,2.3,1.1,5.4,4.2,7.5c2,1.3,4.3,2,6.7,2.1
			c0,0-2.1,2.1-6.1,1s-6.5-3.4-6.7-5.2s-0.2-2.7-0.2-2.7c-1.3-1.1-2.6-2.1-4-3.1c-0.8-0.5-1.5-1.1-1.9-1.9c0,0-6.7,2.5-9.4,0
			s-3.6-17.4-1.9-22.6s2.5-7.3,2.5-7.3s-1.7,5.2-2.9,4.2s0.2,5.6-1.5,4.8s0.4,4.2-1.1,3.1s0.4,4.8-1.5,3.6s-1.2,4.8-2.9,2.5
			s1.5,3.6-1.9,2.3s-0.2,5.9-2.9,3.1s-1.3,4.8-4,1.5s0.2,3.6-1.8,2.7l-2-0.9c0,1.5,0.7,3,2,3.8c2.2,1.5,4.5,2.3,3,4.4
			s3.1,1.5,1.9,3.3s4.8,3.2,1.5,4.8s4,3.9,1.2,5.6s3.7,5.6,0.8,6.9s3.3,4.2,1,5.6s4.8,5.6,1,6.1s2.7,5.9-0.2,5.9s3.1,4.2,0.4,6.1
			s1,6.5-1.5,7.3s1.2,5-0.6,6.3s0.6,5.2-0.4,7.1s1.3,3.8-1.2,5.6s-1.5,5.4-3.3,6.7s0.4,5.4-1.5,6.5s-1.9,7.3-4.4,7.7
			s-2.3,7.9-5.2,8.6s-1.9,4.4-5.4,6.1s-5.2,6.1-7.9,6.1s-8.1,6.1-11.9,5.8s-10.5,0.4-14.6-1s-11.3-1.1-21.1-8.3s-20.9-17.8-26.3-37
			s-1-21.9-1.3-33s1.7-13.6,2.5-7.7s-0.4,24.5,2.9,34.7s12.7,32.6,27.1,39s23.4,4.6,31.1,1.9s6.4-6.9,9.8-8s3.4-4.8,5.5-6.7
			s0.4-6.7,3.3-7.3s3.4-11.1,4.6-11.5s-0.6-11.7,1-11.7s-1.3-8.4,0.2-9.6s-1.7-7.5-0.8-8.1s-3.1-1.5-1.5-3.3s-1.5-1.9-0.8-3.5
			s-3.6-3.3-1.7-5.4s-2.9-3.6-1-5.4s-2-1.9-1.4-4.8s-4.9-3.1-3.8-5s-3.1-3.5-2.1-4.6s-3.4-2.1-2.5-4.4s-3.7-1-2.5-3.6
			s-2.1-4.4-2.1-4.4l-0.2-2.7c0,0-1.9,3.6-3.6,2.3s-3.4,1.7-3.8,0s-3.3,2.1-3.8-0.4s-4,1.1-5-0.8s-5.2-0.2-4-3.3s-3.7,0-2.9-2.9
			s-3.9,0.2-3.9-2.5s-4.2-1.7-3.8-2.7s-1.5-0.8-1.9-2.3s-3.8-1.9-3.8-1.9s10,12.3,9.6,17.5s-5.2,6.7-7.5,8.8s-7.1,5.6-8.1,7.7
			s-3.3,5.8-5.4,6.9s-4-1-0.8-3.4s2.3-5.8,4.4-7.9c2.4-2.2,5-4.2,7.7-6.1c-2-0.2-4-0.6-6-1.1c-3.5-1-7.9-0.2-8.4,1.5
			s-2.7,4.4-3.8,4.6s-3.5,9-2.7,10.4c0.5,1,0.9,2,1.1,3.1c0,0-5.4-1.1-4.4-6.3s2.1-9.6,4-10.7s2.9-5.4,5.7-6.1
			c1.7-0.5,3.4-1.2,4.8-2.3c0,0-9.4,3.3-12.5,1.9s-4.4,3.4-4.6,6.3c-0.1,1.8,0.3,3.7,1,5.4c0,0-4.2-1.7-4.2-5.2s2.3-9.2,5.4-10.2
			s3.1-0.4,7.3-1l4.2-0.6c0,0-5.4-4-7.9-5.9s-5.6-2.9-7.1-4.4s-3.6-3.8-1.5-3.6s3.6,2.9,7.5,4.8c2.9,1.6,5.7,3.3,8.4,5.2
			c1.2,0.7,2.6,1.1,4,1.1c-1-1.6-2.2-3.2-3.5-4.6c-1.5-1.5-5.6-2.7-5.6-2.7s1.7-2.3,5.4-0.4c2.3,1.2,4.3,2.8,6,4.8
			c0,0,1.5-2.7,2.9-2.1s-7.7-8.4-9.8-15.5s2.3-14.2,8.6-11.5s8.3,4.8,13.2,5.9c2.7,0.7,5.5,1.1,8.2,1.3c0,0-5.4-2.1-4.4-4.2
			s-1.7-3.1-1.9-3.6s-2.9-3.5-1.3-4.2s-2.5-4.4-1.5-5.4s-3.3-3.4-1.5-5s-1.3-4.8-0.4-5.6s-2.5-2.5-0.8-4s-2.1-4.6,0-5.2
			s-2.4-5.2-0.3-5.8s-1.5-2.9,1-4.6s-1.5-3.4,1.2-5s-1.2-5.4,0.8-6s0-4,1.2-4.8s-1.3-5.4,1-5.6s-2.1-4,0.6-4.8s0.2-3.3,2.1-3.6
			s0.8-2.7,0.8-2.7S51,100.1,43,94.6s-14.8-24-17.1-29.3s-6.8-7.6-9.9-6.9s-5.6,2.5-9,1.9s-6.1-5-6.1-5c1.7,1.7,4,2.5,6.3,2.3
			c4.2-0.2,5.6-1,8.1-1.5s3.6-0.8,3.6-0.8s-6.7-1.7-9.2-3.3c-2.4-1.4-4.6-3.3-6.3-5.6C2.5,45,2,43.4,1.8,41.7
			C3.4,43.4,5.2,45,7,46.5c1.5,1,5.6,4,7.7,4.8c1.4,0.5,2.9,0.7,4.4,0.8c0,0-3.6-4-4.4-5s-4.8-2.5-6.1-3.8s-1.9-5.6-1.9-5.6
			c1.6,1.5,3.3,2.9,5.2,4.2c1.9,1.2,5.4,3.7,6.3,4s5,2.7,5,2.7s-3.5-5.6-4.6-6.9c-1.3-1.4-2.8-2.6-4.4-3.6c-1.5-1-3.3-2.1-3.3-2.1
			s3.8-0.6,6.3,1s6.3,4.8,7.1,6.7s3.1,6.5,4.4,5.8s0.4-4.6,0.8-6.7S26.2,39,26.2,39c1.8-0.9,3.9-0.4,5.2,1.2
			c2.1,2.7,0.6,4.4,1.1,7.5c0.6,3.1,1,6.9,1.2,9s9.6,11.5,13.2,16.1s3.1,7.3,7.5,6.7c4-0.7,7.6-2.6,10.5-5.4
			C65.8,73,66.2,71.6,66.3,70.3"/>
		<path style="fill:none;stroke:#000000;stroke-width:1.76;stroke-linecap:round;stroke-linejoin:round;" d="M66.3,70.3
			c0,0-10.7,0-16.5-11.5s-2.7-18.2-2.7-35S45.6,3.9,53.2,1.2S69.7,12,77,18.1s15.3,14.2,18.8,26.5s-5,17.6-5,17.6
			c2.4,1.2,4.4,3.1,5.8,5.4c2.2,3.8,0,6.1,0,6.1s8.8,1.2,14.1,7.5s6.1,8.2,6.1,8.2s9.6-8.4,16.1-11.5c6.5-3.1,0-9.6,2.3-14.6
			s4.2-2.3,4.2-2.3c-1.3,1.5-2,3.5-1.7,5.6c0.4,3.4,2.1,4.4,2.1,4.4s2.5-5,2.5-7.5s0.6-4.6,3.4-5.9c1.4-0.8,3-1.2,4.6-1.3
			c-1.4,1.1-2.6,2.4-3.6,3.8c-1.1,1.9-1.1,4.8-1.7,6.5s-1.3,3.4-1.3,3.4s3.8-1.7,4-3.8s2.9-6,5.2-6.7c1.4-0.5,2.9-0.9,4.4-1.2
			c0,0-4,3.3-5.2,5c-1.2,1.7-0.6,4.6-1.7,5.6c-1.1,1.1-2.1,2.3-3.1,3.6c0,0,6.5-4,8.4-4.8l8.1-3.3c0,0-4.6,5.4-7.9,7.5
			s-8.4,4.8-8.4,4.8s5.4,0.4,7.9-0.4s6.7-3.8,6.7-3.8s1.3,2.7-4.6,5.8s-9,2-11.1,2.9s-9.2,11.7-18.6,18s-12.5,7.1-18.2,3.8
			c-3.7-2.3-6.6-5.5-8.4-9.4c0,0,1.9,4,0.8,4.4s1.5,3.8,0.4,5s0.8,3.8-0.2,4.6s1.2,5-0.4,5.8s1,4,0.2,4.8s1.5,3.7-0.8,4.8
			s1,3.4,0,4.8c-1,1.3,1.7,4.8-0.2,5.2s1.3,2.7,0.2,4.4s1.5,5-0.2,5.8s2.1,2.5-0.2,5s2.3,2.1,0,5s2.3,1,1.2,4.4s2.9,4,1.5,5.4
			s1.3,2.9,0,4l-1.3,1.1c0,0,10.3-5,16.5-10.2s12.8-12.5,18.8-10.6s6.7,6.5,6.3,11.9s0.2,24.4,0.2,24.4s1.1-4.4,3.6-4.2l2.5,0.2
			c0,0-0.2-5.6,2.5-8.4s4.4,1.5,4.4,1.5c-1-0.5-2.3-0.1-2.8,0.9c0,0.1-0.1,0.2-0.1,0.2c-0.6,1.6-0.7,3.3-0.4,5
			c1.5-0.8,3.2-1.5,4.8-2.1c2.3-0.8,1.3-3.4,6.5-4.4s5.2,3.4,5.2,3.4s-4-1.7-6.9,0.6s-2.9,3.6-2.9,3.6s2.1,0.4,4,1s3.4-2.9,8.8-2.7
			s5,3.6,5,3.6s-6.1-1.7-8.1,0.2c-1.1,1.1-2.4,2-3.8,2.7c0,0-5.2-1.9-6.5-1l-1.3,1l7.9,2.1l2.1,0.6c0,0,1.7-2.5,7.3-1.7
			c2.8,0.2,4.9,2.5,4.7,5.3c0,0.2,0,0.5-0.1,0.7c0,0-3.6-3.6-7.1-3.1c-2.2,0.5-4.3,1.5-5.9,3.1c-4-0.9-8.1-0.9-12.1,0
			c-6.1,1.5-7.3,3.1-7.3,3.1c0.2,2.1,1.2,3.9,2.9,5.2c2.9,2.3,1.1,5.4,4.2,7.5c2,1.3,4.3,2,6.7,2.1c0,0-2.1,2.1-6.1,1
			s-6.5-3.4-6.7-5.2s-0.2-2.7-0.2-2.7c-1.3-1.1-2.6-2.1-4-3.1c-0.8-0.5-1.5-1.1-1.9-1.9c0,0-6.7,2.5-9.4,0s-3.6-17.4-1.9-22.6
			s2.5-7.3,2.5-7.3s-1.7,5.2-2.9,4.2s0.2,5.6-1.5,4.8s0.4,4.2-1.1,3.1s0.4,4.8-1.5,3.6s-1.2,4.8-2.9,2.5s1.5,3.6-1.9,2.3
			s-0.2,5.9-2.9,3.1s-1.3,4.8-4,1.5s0.2,3.6-1.8,2.7l-2-0.9c0,1.5,0.7,3,2,3.8c2.2,1.5,4.5,2.3,3,4.4s3.1,1.5,1.9,3.3
			s4.8,3.2,1.5,4.8s4,3.9,1.2,5.6s3.7,5.6,0.8,6.9s3.3,4.2,1,5.6s4.8,5.6,1,6.1s2.7,5.9-0.2,5.9s3.1,4.2,0.4,6.1s1,6.5-1.5,7.3
			s1.2,5-0.6,6.3s0.6,5.2-0.4,7.1s1.3,3.8-1.2,5.6s-1.5,5.4-3.3,6.7s0.4,5.4-1.5,6.5s-1.9,7.3-4.4,7.7s-2.3,7.9-5.2,8.6
			s-1.9,4.4-5.4,6.1s-5.2,6.1-7.9,6.1s-8.1,6.1-11.9,5.8s-10.5,0.4-14.6-1s-11.3-1.1-21.1-8.3s-20.9-17.8-26.3-37s-1-21.9-1.3-33
			s1.7-13.6,2.5-7.7s-0.4,24.5,2.9,34.7s12.7,32.6,27.1,39s23.4,4.6,31.1,1.9s6.4-6.9,9.8-8s3.4-4.8,5.5-6.7s0.4-6.7,3.3-7.3
			s3.4-11.1,4.6-11.5s-0.6-11.7,1-11.7s-1.3-8.4,0.2-9.6s-1.7-7.5-0.8-8.1s-3.1-1.5-1.5-3.3s-1.5-1.9-0.8-3.5s-3.6-3.3-1.7-5.4
			s-2.9-3.6-1-5.4s-2-1.9-1.4-4.8s-4.9-3.1-3.8-5s-3.1-3.5-2.1-4.6s-3.4-2.1-2.5-4.4s-3.7-1-2.5-3.6s-2.1-4.4-2.1-4.4l-0.2-2.7
			c0,0-1.9,3.6-3.6,2.3s-3.4,1.7-3.8,0s-3.3,2.1-3.8-0.4s-4,1.1-5-0.8s-5.2-0.2-4-3.3s-3.7,0-2.9-2.9s-3.9,0.2-3.9-2.5
			s-4.2-1.7-3.8-2.7s-1.5-0.8-1.9-2.3s-3.8-1.9-3.8-1.9s10,12.3,9.6,17.5s-5.2,6.7-7.5,8.8s-7.1,5.6-8.1,7.7s-3.3,5.8-5.4,6.9
			s-4-1-0.8-3.4s2.3-5.8,4.4-7.9c2.4-2.2,5-4.2,7.7-6.1c-2-0.2-4-0.6-6-1.1c-3.5-1-7.9-0.2-8.4,1.5s-2.7,4.4-3.8,4.6
			s-3.5,9-2.7,10.4c0.5,1,0.9,2,1.1,3.1c0,0-5.4-1.1-4.4-6.3s2.1-9.6,4-10.7s2.9-5.4,5.7-6.1c1.7-0.5,3.4-1.2,4.8-2.3
			c0,0-9.4,3.3-12.5,1.9s-4.4,3.4-4.6,6.3c-0.1,1.8,0.3,3.7,1,5.4c0,0-4.2-1.7-4.2-5.2s2.3-9.2,5.4-10.2s3.1-0.4,7.3-1l4.2-0.6
			c0,0-5.4-4-7.9-5.9s-5.6-2.9-7.1-4.4s-3.6-3.8-1.5-3.6s3.6,2.9,7.5,4.8c2.9,1.6,5.7,3.3,8.4,5.2c1.2,0.7,2.6,1.1,4,1.1
			c-1-1.6-2.2-3.2-3.5-4.6c-1.5-1.5-5.6-2.7-5.6-2.7s1.7-2.3,5.4-0.4c2.3,1.2,4.3,2.8,6,4.8c0,0,1.5-2.7,2.9-2.1s-7.7-8.4-9.8-15.5
			s2.3-14.2,8.6-11.5s8.3,4.8,13.2,5.9c2.7,0.7,5.5,1.1,8.2,1.3c0,0-5.4-2.1-4.4-4.2s-1.7-3.1-1.9-3.6s-2.9-3.5-1.3-4.2
			s-2.5-4.4-1.5-5.4s-3.3-3.4-1.5-5s-1.3-4.8-0.4-5.6s-2.5-2.5-0.8-4s-2.1-4.6,0-5.2s-2.4-5.2-0.3-5.8s-1.5-2.9,1-4.6
			s-1.5-3.4,1.2-5s-1.2-5.4,0.8-6s0-4,1.2-4.8s-1.3-5.4,1-5.6s-2.1-4,0.6-4.8s0.2-3.3,2.1-3.6s0.8-2.7,0.8-2.7S51,100.1,43,94.6
			s-14.8-24-17.1-29.3s-6.8-7.6-9.9-6.9s-5.6,2.5-9,1.9s-6.1-5-6.1-5c1.7,1.7,4,2.5,6.3,2.3c4.2-0.2,5.6-1,8.1-1.5s3.6-0.8,3.6-0.8
			s-6.7-1.7-9.2-3.3c-2.4-1.4-4.6-3.3-6.3-5.6C2.5,45,2,43.4,1.8,41.7C3.4,43.4,5.2,45,7,46.5c1.5,1,5.6,4,7.7,4.8
			c1.4,0.5,2.9,0.7,4.4,0.8c0,0-3.6-4-4.4-5s-4.8-2.5-6.1-3.8s-1.9-5.6-1.9-5.6c1.6,1.5,3.3,2.9,5.2,4.2c1.9,1.2,5.4,3.7,6.3,4
			s5,2.7,5,2.7s-3.5-5.6-4.6-6.9c-1.3-1.4-2.8-2.6-4.4-3.6c-1.5-1-3.3-2.1-3.3-2.1s3.8-0.6,6.3,1s6.3,4.8,7.1,6.7s3.1,6.5,4.4,5.8
			s0.4-4.6,0.8-6.7S26.2,39,26.2,39c1.8-0.9,3.9-0.4,5.2,1.2c2.1,2.7,0.6,4.4,1.1,7.5c0.6,3.1,1,6.9,1.2,9s9.6,11.5,13.2,16.1
			s3.1,7.3,7.5,6.7c4-0.7,7.6-2.6,10.5-5.4C65.8,73,66.2,71.6,66.3,70.3z"/>
		<path style="fill:#4D4D4D;" d="M52.2,26.6c-2.4,1.6-3.4,11.4,1.4,12s4.1-3.2,3.4-7.6C55.8,23.8,52.2,26.6,52.2,26.6"/>
		<path style="fill:none;stroke:#000000;stroke-width:1.76;stroke-linecap:round;stroke-linejoin:round;" d="M52.2,26.6
			c-2.4,1.6-3.4,11.4,1.4,12s4.1-3.2,3.4-7.6C55.8,23.8,52.2,26.6,52.2,26.6z"/>
		<path style="fill:#4D4D4D;" d="M70.1,21.2c2.3-2.1,5.2-0.4,7.7,3.8s1.7,6.1,0,6.7s-5.2-1.5-6.9-3.6C69.3,26.1,69,23.5,70.1,21.2"
			/>
		<path style="fill:none;stroke:#000000;stroke-width:1.76;stroke-linecap:round;stroke-linejoin:round;" d="M70.1,21.2
			c2.3-2.1,5.2-0.4,7.7,3.8s1.7,6.1,0,6.7s-5.2-1.5-6.9-3.6C69.3,26.1,69,23.5,70.1,21.2z"/>
		<path style="fill:none;stroke:#000000;stroke-width:1.76;stroke-linecap:round;stroke-linejoin:round;" d="M75,31.3
			c1.1-0.8,1.5-2.3,1-3.6c-0.8-2.5-1.7-1.6-1.7-1.6"/>
		<path style="fill:none;stroke:#000000;stroke-width:1.76;stroke-linecap:round;stroke-linejoin:round;" d="M57.3,37
			c0,0-3-0.6-3.4-2c-0.2-0.9-0.2-1.8,0-2.6"/>
		<path style="fill:none;stroke:#000000;stroke-width:1.76;stroke-linecap:round;stroke-linejoin:round;" d="M78.3,68.3
			c0,0,5.6,15,0,34.5s-6.5,29.7-2.3,47s23.8,47.4,29.2,61.4s9.6,30.3,9,48.5s-8.2,34.1-14.2,41.6s-15.9,14.6-28.4,14.6"/>
		
			<line style="fill:none;stroke:#000000;stroke-width:1.76;stroke-linecap:round;stroke-linejoin:round;" x1="44" y1="190.7" x2="47.9" y2="195.8"/>
		<path style="fill:none;stroke:#000000;stroke-width:1.76;stroke-linecap:round;stroke-linejoin:round;" d="M143.9,183.6
			c0,0-0.7,3-2.8,3"/>
		
			<line style="fill:none;stroke:#000000;stroke-width:1.76;stroke-linecap:round;stroke-linejoin:round;" x1="101.2" y1="93.7" x2="96.9" y2="89.9"/>
		<path style="fill:none;stroke:#000000;stroke-width:1.76;stroke-linecap:round;stroke-linejoin:round;" d="M52,44.7
			c0,0-1.4,4.8,3.5,12.8S67,64.4,67,64.4"/>
		<path style="fill:none;stroke:#000000;stroke-width:1.76;stroke-linecap:round;stroke-linejoin:round;" d="M85.2,34.7
			c0,0,5,5.9,5.5,13.3s-2.7,9.5-2.7,9.5"/>
		<path style="fill:none;stroke:#000000;stroke-width:1.76;stroke-linecap:round;stroke-linejoin:round;" d="M47.1,8.4
			c0,0,2.5-3.3,3,0s-2.3,6.4-2.3,6.4"/>
		<path style="fill:none;stroke:#000000;stroke-width:1.76;stroke-linecap:round;stroke-linejoin:round;" d="M58.6,2
			c0,0-2.5,2.7,0,4c1.6,0.7,3.4,0.7,5,0"/>
		<path style="fill:none;stroke:#000000;stroke-width:1.76;stroke-linecap:round;stroke-linejoin:round;" d="M53.7,6.5
			c2.5,4.5,4.8,9.1,6.9,13.8c2.9,6.9,7.5,19.8,11.1,28.5s4.6,12.3,4.6,12.3"/>
		<path style="fill:none;stroke:#000000;stroke-width:1.76;stroke-linecap:round;stroke-linejoin:round;" d="M63.6,41.6
			c0,0,2.4,7.5,4.7,12.9"/>
		<path style="fill:none;stroke:#000000;stroke-width:1.76;stroke-linecap:round;stroke-linejoin:round;" d="M72.9,40.1
			c1.3,3.1,2.4,6.2,3.3,9.5"/>
		<path style="fill:none;stroke:#000000;stroke-width:1.76;stroke-linecap:round;stroke-linejoin:round;" d="M37.4,79.2
			c0,0,4.9,10.7,9.8,12.5s10.1-3.6,10.1-3.6"/>
		<path style="fill:none;stroke:#000000;stroke-width:1.76;stroke-linecap:round;stroke-linejoin:round;" d="M74.6,93.7
			c0,0-2.6,10.1-5.2,23.1c-1.9,9.4-1.9,19,0,28.4c1.8,8.9,3.5,11.8,3.5,11.8"/>
		<path style="fill:none;stroke:#000000;stroke-width:1.76;stroke-linecap:round;stroke-linejoin:round;" d="M82.9,110.4
			c-2.8,7.9-4,16.3-3.3,24.6c1.2,13,3.3,14.3,3.3,14.3"/>
		<path style="fill:none;stroke:#000000;stroke-width:1.76;stroke-linecap:round;stroke-linejoin:round;" d="M104.6,198.9
			c3.4,6.6,6.1,13.6,8.2,20.7c3.1,11,3.3,13.8,3.3,13.8"/>
		<path style="fill:none;stroke:#000000;stroke-width:1.76;stroke-linecap:round;stroke-linejoin:round;" d="M111.5,98.4
			c0,0,2.3,5.4,10.2,0c4-2.6,7.8-5.4,11.5-8.4"/>
		<path style="fill:none;stroke:#000000;stroke-width:1.76;stroke-linecap:round;stroke-linejoin:round;" d="M109,169
			c1,0,12.8-6.4,18.2-12s9.2-4.9,9.2-4.9"/>
		<path style="fill:none;stroke:#000000;stroke-width:1.76;stroke-linecap:round;stroke-linejoin:round;" d="M38.7,169
			c0,0,3.3-2.1,8.7,1.8c3.7,2.4,7.8,4.1,12.1,4.8"/>
	</g>
</g>
</svg>
