<?xml version="1.0" encoding="utf-8"?>
<!-- Generator: Adobe Illustrator 23.0.2, SVG Export Plug-In . SVG Version: 6.00 Build 0)  -->
<svg version="1.1" id="Réteg_1" xmlns="http://www.w3.org/2000/svg" xmlns:xlink="http://www.w3.org/1999/xlink" x="0px" y="0px"
	 viewBox="0 0 227.4 236.4" style="enable-background:new 0 0 227.4 236.4;" xml:space="preserve">
<title>cimerkep_02</title>
<g>
	<g>
		<path style="fill:#FFD200;" d="M87.3,69.1c0,0,13.6-39.8,16.5-47.7s5.7-20.5,5.7-20.5s13.1,34.7,16.5,46.6
			c1.9,6.5,3.4,13.2,4.6,19.9c13.6-4.6,26.9-10.1,39.8-16.5c18.2-9.1,17.3-8.5,17.3-8.5s-13.9,33.5-18.5,43.2s-8,15.9-8,15.9
			s44.3,10.8,52.3,13.6c4.7,1.6,9.1,3.9,13.1,6.8c0,0-41.4,13.1-50,17.6s-11.9,4.5-11.9,4.5s17.6,42.1,21,47.7s4.5,14.8,4.5,14.8
			s-38.6-19.3-47.7-23.3l-9.1-4c0,0-8.5,20.4-13.6,30.7s-10.2,25.6-10.2,25.6S98,203.7,92.9,195.2s-8-21.6-8-21.6
			s-34.7,17.6-42.6,21c-4.7,2-9.2,4.3-13.6,6.8c0,0,13.1-30.1,18.8-39.7c3.6-6.2,6.8-12.7,9.7-19.3c0,0-23.3-10.2-36.9-14.8
			s-19.3-7.9-19.3-7.9S16.6,112.1,31,106c18.8-8,26.1-11.4,26.1-11.4s-8.5-15.9-10.2-22.1S33.8,44.1,33.8,44.1S58.3,54.3,70.8,60
			S87.3,69.1,87.3,69.1"/>
		<path style="fill:none;stroke:#000000;stroke-width:1.76;stroke-linecap:round;stroke-linejoin:round;" d="M87.3,69.1
			c0,0,13.6-39.8,16.5-47.7s5.7-20.5,5.7-20.5s13.1,34.7,16.5,46.6c1.9,6.5,3.4,13.2,4.6,19.9c13.6-4.6,26.9-10.1,39.8-16.5
			c18.2-9.1,17.3-8.5,17.3-8.5s-13.9,33.5-18.5,43.2s-8,15.9-8,15.9s44.3,10.8,52.3,13.6c4.7,1.6,9.1,3.9,13.1,6.8
			c0,0-41.4,13.1-50,17.6s-11.9,4.5-11.9,4.5s17.6,42.1,21,47.7s4.5,14.8,4.5,14.8s-38.6-19.3-47.7-23.3l-9.1-4
			c0,0-8.5,20.4-13.6,30.7s-10.2,25.6-10.2,25.6S98,203.7,92.9,195.2s-8-21.6-8-21.6s-34.7,17.6-42.6,21c-4.7,2-9.2,4.3-13.6,6.8
			c0,0,13.1-30.1,18.8-39.7c3.6-6.2,6.8-12.7,9.7-19.3c0,0-23.3-10.2-36.9-14.8s-19.3-7.9-19.3-7.9S16.6,112.1,31,106
			c18.8-8,26.1-11.4,26.1-11.4s-8.5-15.9-10.2-22.1S33.8,44.1,33.8,44.1S58.3,54.3,70.8,60S87.3,69.1,87.3,69.1z"/>
		
			<line style="fill:none;stroke:#000000;stroke-width:1.76;stroke-linecap:round;stroke-linejoin:round;" x1="33.8" y1="44.1" x2="190.1" y2="206.6"/>
		
			<line style="fill:none;stroke:#000000;stroke-width:1.76;stroke-linecap:round;stroke-linejoin:round;" x1="0.9" y1="119.7" x2="226.5" y2="121.9"/>
		
			<line style="fill:none;stroke:#000000;stroke-width:1.76;stroke-linecap:round;stroke-linejoin:round;" x1="28.7" y1="201.5" x2="109.4" y2="121.1"/>
		
			<line style="fill:none;stroke:#000000;stroke-width:1.76;stroke-linecap:round;stroke-linejoin:round;" x1="109.4" y1="0.9" x2="109.4" y2="235.6"/>
		<polyline style="fill:none;stroke:#000000;stroke-width:1.76;stroke-linecap:round;stroke-linejoin:round;" points="57.1,94.6 
			110,122.5 164.5,144.1 		"/>
		<polyline style="fill:none;stroke:#000000;stroke-width:1.76;stroke-linecap:round;stroke-linejoin:round;" points="57.1,142.4 
			109.1,121.3 161.1,101.5 		"/>
		<polyline style="fill:none;stroke:#000000;stroke-width:1.76;stroke-linecap:round;stroke-linejoin:round;" points="87.3,69.1 
			110,122.5 133.3,179.3 		"/>
		<polyline style="fill:none;stroke:#000000;stroke-width:1.76;stroke-linecap:round;stroke-linejoin:round;" points="85,173.6 
			109.1,121.3 130.4,67.4 		"/>
		
			<line style="fill:none;stroke:#000000;stroke-width:1.76;stroke-linecap:round;stroke-linejoin:round;" x1="109.1" y1="121.3" x2="187.6" y2="42.4"/>
		
			<line style="fill:none;stroke:#000000;stroke-width:1.76;stroke-linecap:round;stroke-linejoin:round;" x1="29.6" y1="113.4" x2="58.3" y2="102"/>
		
			<line style="fill:none;stroke:#000000;stroke-width:1.76;stroke-linecap:round;stroke-linejoin:round;" x1="52" y1="69.4" x2="60.5" y2="90.4"/>
		
			<line style="fill:none;stroke:#000000;stroke-width:1.76;stroke-linecap:round;stroke-linejoin:round;" x1="54.9" y1="58.8" x2="83.6" y2="73.6"/>
		
			<line style="fill:none;stroke:#000000;stroke-width:1.76;stroke-linecap:round;stroke-linejoin:round;" x1="93.2" y1="69.6" x2="105.2" y2="35.3"/>
		
			<line style="fill:none;stroke:#000000;stroke-width:1.76;stroke-linecap:round;stroke-linejoin:round;" x1="29.6" y1="124.2" x2="56.3" y2="135.8"/>
		
			<line style="fill:none;stroke:#000000;stroke-width:1.76;stroke-linecap:round;stroke-linejoin:round;" x1="61.4" y1="146.6" x2="44.3" y2="178.5"/>
		
			<line style="fill:none;stroke:#000000;stroke-width:1.76;stroke-linecap:round;stroke-linejoin:round;" x1="52.6" y1="183.9" x2="81.9" y2="167.9"/>
		
			<line style="fill:none;stroke:#000000;stroke-width:1.76;stroke-linecap:round;stroke-linejoin:round;" x1="114.8" y1="31.6" x2="124.2" y2="66.5"/>
		
			<line style="fill:none;stroke:#000000;stroke-width:1.76;stroke-linecap:round;stroke-linejoin:round;" x1="133.6" y1="72.8" x2="162.8" y2="61.4"/>
		
			<line style="fill:none;stroke:#000000;stroke-width:1.76;stroke-linecap:round;stroke-linejoin:round;" x1="171.6" y1="65.1" x2="157.1" y2="95.5"/>
		
			<line style="fill:none;stroke:#000000;stroke-width:1.76;stroke-linecap:round;stroke-linejoin:round;" x1="160" y1="108.6" x2="198.6" y2="117.1"/>
		
			<line style="fill:none;stroke:#000000;stroke-width:1.76;stroke-linecap:round;stroke-linejoin:round;" x1="164" y1="138.7" x2="194.9" y2="127"/>
		
			<line style="fill:none;stroke:#000000;stroke-width:1.76;stroke-linecap:round;stroke-linejoin:round;" x1="159.1" y1="149.2" x2="173.4" y2="180.4"/>
		
			<line style="fill:none;stroke:#000000;stroke-width:1.76;stroke-linecap:round;stroke-linejoin:round;" x1="136.7" y1="173.6" x2="163.7" y2="186.7"/>
		
			<line style="fill:none;stroke:#000000;stroke-width:1.76;stroke-linecap:round;stroke-linejoin:round;" x1="91.5" y1="174.2" x2="104.3" y2="206.3"/>
		
			<line style="fill:none;stroke:#000000;stroke-width:1.76;stroke-linecap:round;stroke-linejoin:round;" x1="114.8" y1="207.2" x2="127.3" y2="176.8"/>
	</g>
</g>
</svg>
