<?xml version="1.0" encoding="utf-8"?>
<!-- Generator: Adobe Illustrator 23.0.2, SVG Export Plug-In . SVG Version: 6.00 Build 0)  -->
<svg version="1.1" id="Réteg_1" xmlns="http://www.w3.org/2000/svg" xmlns:xlink="http://www.w3.org/1999/xlink" x="0px" y="0px"
	 viewBox="0 0 83.6 280" style="enable-background:new 0 0 83.6 280;" xml:space="preserve">
<title>cimerkep_18</title>
<g>
	<g>
		<path style="fill-rule:evenodd;clip-rule:evenodd;fill:#999999;" d="M41.3,186c0,0-15.4-13.9-24.4-78.4S14.2,0.9,14.2,0.9
			s18.6,46.8,26.5,101.3S41.3,186,41.3,186"/>
		<path style="fill:none;stroke:#000000;stroke-width:1.76;stroke-linecap:round;stroke-linejoin:round;" d="M41.3,186
			c0,0-15.4-13.9-24.4-78.4S14.2,0.9,14.2,0.9s18.6,46.8,26.5,101.3S41.3,186,41.3,186z"/>
		<path style="fill-rule:evenodd;clip-rule:evenodd;fill:#8C6239;" d="M76.6,184c0,0,3.6-8.2-5.6-13.3s-14.3-0.5-14.3-0.5
			s9.2,2.1,7.2,9.2s-7.2,10.7-13.8,6.1s-12.3-14.3-12.3-14.3s-1.5,20-12.3,21.5s-11.8-10.2-10.2-14.8l1.5-4.6c0,0-9.2,1.5-10.2,11.3
			l-1,9.7l-4.6,10.7l10.2-5.6c0,0,2.6,5.1,10.7,5.1c3.9,0,6.1-0.2,8.1-1.1l6.8,6.7c0,0,0,12.8,1,23.5s8.7,21,8.7,21
			s-8.7,11.3-5.6,15.8s11.3,10.7,15.4,8.2s11.8-7.2,10.2-13.8S55.6,253,55.6,253c1.2-8.3,1.2-16.8,0-25.1C53.5,214.1,49,208,49,208
			l6.1-9.5c1.9,0.5,3.8,0.7,5.7,0.8c12.3,0.5,12.8-10.2,12.8-10.2l9.2,4.1L76.6,184z M44.3,205.4l-2.6,0.5l-7.3-6.3
			c0.7-0.7,1.4-1.5,2.2-2.4l5.6-6.1c2.3,2.6,5.2,4.6,8.4,5.9L44.3,205.4z"/>
		<path style="fill:none;stroke:#000000;stroke-width:1.76;stroke-linecap:round;stroke-linejoin:round;" d="M76.6,184
			c0,0,3.6-8.2-5.6-13.3s-14.3-0.5-14.3-0.5s9.2,2.1,7.2,9.2s-7.2,10.7-13.8,6.1s-12.3-14.3-12.3-14.3s-1.5,20-12.3,21.5
			s-11.8-10.2-10.2-14.8l1.5-4.6c0,0-9.2,1.5-10.2,11.3l-1,9.7l-4.6,10.7l10.2-5.6c0,0,2.6,5.1,10.7,5.1c3.9,0,6.1-0.2,8.1-1.1
			l6.8,6.7c0,0,0,12.8,1,23.5s8.7,21,8.7,21s-8.7,11.3-5.6,15.8s11.3,10.7,15.4,8.2s11.8-7.2,10.2-13.8S55.6,253,55.6,253
			c1.2-8.3,1.2-16.8,0-25.1C53.5,214.1,49,208,49,208l6.1-9.5c1.9,0.5,3.8,0.7,5.7,0.8c12.3,0.5,12.8-10.2,12.8-10.2l9.2,4.1
			L76.6,184z M44.3,205.4l-2.6,0.5l-7.3-6.3c0.7-0.7,1.4-1.5,2.2-2.4l5.6-6.1c2.3,2.6,5.2,4.6,8.4,5.9L44.3,205.4z"/>
		<line style="fill:none;" x1="37.7" y1="171.2" x2="21.3" y2="47.9"/>
		
			<line style="fill:none;stroke:#000000;stroke-width:1.76;stroke-linecap:round;stroke-linejoin:round;" x1="37.7" y1="171.2" x2="21.3" y2="47.9"/>
		<line style="fill:none;" x1="31.6" y1="82.7" x2="37.2" y2="124.1"/>
		
			<line style="fill:none;stroke:#000000;stroke-width:1.76;stroke-linecap:round;stroke-linejoin:round;" x1="31.6" y1="82.7" x2="37.2" y2="124.1"/>
		<line style="fill:none;" x1="19.8" y1="82.9" x2="25.2" y2="123.6"/>
		
			<line style="fill:none;stroke:#000000;stroke-width:1.76;stroke-linecap:round;stroke-linejoin:round;" x1="19.8" y1="82.9" x2="25.2" y2="123.6"/>
		<path style="fill:none;stroke:#000000;stroke-width:1.76;stroke-linecap:round;stroke-linejoin:round;" d="M46.3,266.7
			c0,0,1.9,3.5,7.3,3.8s7.3-4.6,7.3-4.6"/>
		<path style="fill:none;stroke:#000000;stroke-width:1.76;stroke-linecap:round;stroke-linejoin:round;" d="M10.2,187.3
			c0,0,0,7.3,8.1,10.7s12.3-1.9,12.3-1.9"/>
		<path style="fill:none;stroke:#000000;stroke-width:1.76;stroke-linecap:round;stroke-linejoin:round;" d="M51.6,191.1
			c0,0,8.1,5,13.8-0.8c3.4-3.1,4.9-7.7,4.2-12.3"/>
		<path style="fill:none;stroke:#000000;stroke-width:1.76;stroke-linecap:round;stroke-linejoin:round;" d="M43.2,212.6
			c-1.4,6.7-1.6,13.6-0.4,20.3c1.9,11.5,6.5,15.7,6.5,15.7"/>
	</g>
</g>
</svg>
