<?xml version="1.0" encoding="utf-8"?>
<!-- Generator: Adobe Illustrator 23.0.2, SVG Export Plug-In . SVG Version: 6.00 Build 0)  -->
<svg version="1.1" id="Réteg_1" xmlns="http://www.w3.org/2000/svg" xmlns:xlink="http://www.w3.org/1999/xlink" x="0px" y="0px"
	 viewBox="0 0 227 179.3" style="enable-background:new 0 0 227 179.3;" xml:space="preserve">
<title>cimerkep_13</title>
<g>
	<g>
		<path style="fill:#B3B3B3;" d="M29.3,162.7c0,0-16.1-7.7-19.9-15.4s-8.4-32.2-8.4-32.2l19.9-43L42.3,53c0,0,13-6.9,24.5-8.4
			s53.7-17.6,56-19.2S138.2,7,145.1,5.5S162,0.9,162,0.9s39.1,40.7,41.4,43S221,93.7,221,93.7l2.3,49.1c0,0-49.8,28.4-58.3,29.1
			s-69.8,2.3-69.8,2.3L29.3,162.7z"/>
		<path style="fill:none;stroke:#000000;stroke-width:1.76;stroke-linecap:round;stroke-linejoin:round;" d="M29.3,162.7
			c0,0-16.1-7.7-19.9-15.4s-8.4-32.2-8.4-32.2l19.9-43L42.3,53c0,0,13-6.9,24.5-8.4s53.7-17.6,56-19.2S138.2,7,145.1,5.5
			S162,0.9,162,0.9s39.1,40.7,41.4,43S221,93.7,221,93.7l2.3,49.1c0,0-49.8,28.4-58.3,29.1s-69.8,2.3-69.8,2.3L29.3,162.7z"/>
		<path style="fill:#999999;" d="M6.8,140c0,0,31.7,13.8,43.5,13.8s24.5-10.8,31.2-15.9s16.4-26.6,16.4-26.6s18.4,20.5,22.5,22.5
			s22.5,5.1,24.6,4.1s18.9-19.9,18.9-19.9S152,88.3,148.4,84.2s0.5-22-1-24.5s-9.2-17.4-9.2-17.4S152.5,30,154,23.9
			s2.6-11.3,4.1-14.3s3.9-8.7,3.9-8.7l46.8,43l16.9,53.7l0.5,47.6c0,0-55.2,27.1-56.8,28.6s-72.6,5.1-76.2,4.6s-66-12.8-66-12.8
			s-16.4-10.2-18.9-14.3S6.8,140,6.8,140"/>
		<path style="fill:none;stroke:#000000;stroke-width:1.76;stroke-linecap:round;stroke-linejoin:round;" d="M6.8,140
			c0,0,31.7,13.8,43.5,13.8s24.5-10.8,31.2-15.9s16.4-26.6,16.4-26.6s18.4,20.5,22.5,22.5s22.5,5.1,24.6,4.1s18.9-19.9,18.9-19.9
			S152,88.3,148.4,84.2s0.5-22-1-24.5s-9.2-17.4-9.2-17.4S152.5,30,154,23.9s2.6-11.3,4.1-14.3s3.9-8.7,3.9-8.7l46.8,43l16.9,53.7
			l0.5,47.6c0,0-55.2,27.1-56.8,28.6s-72.6,5.1-76.2,4.6s-66-12.8-66-12.8s-16.4-10.2-18.9-14.3S6.8,140,6.8,140z"/>
		<path style="fill:none;stroke:#000000;stroke-width:1.76;stroke-linecap:round;stroke-linejoin:round;" d="M15.4,100.6
			c0,0,18.4-17.6,24.6-19.2s15,4.1,15,4.1s8-3.6,10.5-3.6s13.8,4.7,13.8,4.7"/>
		<path style="fill:none;stroke:#000000;stroke-width:1.76;stroke-linecap:round;stroke-linejoin:round;" d="M20.8,72.2
			c0,0,28.9-4.8,31.5-4.3s21.5,7.7,21.5,7.7L94.2,73c0,0,11.3-23.5,12.8-26.6s20.4-6.1,20.4-6.1s10.2-13.8,12.8-15.9"/>
		<path style="fill:none;stroke:#000000;stroke-width:1.76;stroke-linecap:round;stroke-linejoin:round;" d="M168.9,101.1l11.8-31.2
			c0,0,10.7-2,12.3-3.1s6.1-10.2,6.1-10.2"/>
		<path style="fill:none;stroke:#000000;stroke-width:1.76;stroke-linecap:round;stroke-linejoin:round;" d="M160.7,154.8
			c0,0,36.8-12.3,36.8-14.3s11.3-16.9,12.3-19.9s0-19.9,0-19.9"/>
		<path style="fill:#999999;" d="M94.2,73c0,0,0.5,18.9,0.5,21.5s3.1,16.9,3.1,16.9"/>
		<path style="fill:none;stroke:#000000;stroke-width:1.76;stroke-linecap:round;stroke-linejoin:round;" d="M94.2,73
			c0,0,0.5,18.9,0.5,21.5s3.1,16.9,3.1,16.9"/>
		<path style="fill:none;stroke:#000000;stroke-width:1.76;stroke-linecap:round;stroke-linejoin:round;" d="M101.4,81.2
			c0,0,3.6,23.5,5.1,25.6s15.3,17.4,17.9,19.4c2.5,2,14.8,3.1,14.8,3.1"/>
		<path style="fill:none;stroke:#000000;stroke-width:1.76;stroke-linecap:round;stroke-linejoin:round;" d="M81.4,137.9
			c0,0,12.3,11.3,22.5,15.4s27.1,3.1,27.1,3.1"/>
		<path style="fill:none;stroke:#000000;stroke-width:1.76;stroke-linecap:round;stroke-linejoin:round;" d="M166.8,13.7
			c0,0,21.5,22.5,25.1,25.1s6.6,8.2,6.6,8.2"/>
	</g>
</g>
</svg>
