<?xml version="1.0" encoding="utf-8"?>
<!-- Generator: Adobe Illustrator 23.0.2, SVG Export Plug-In . SVG Version: 6.00 Build 0)  -->
<svg version="1.1" id="Réteg_1" xmlns="http://www.w3.org/2000/svg" xmlns:xlink="http://www.w3.org/1999/xlink" x="0px" y="0px"
	 viewBox="0 0 175.8 330" style="enable-background:new 0 0 175.8 330;" xml:space="preserve">
<title>cimerkep_07</title>
<g>
	<g>
		<path style="fill:#808080;" d="M43,212c0,0,10.8,24.8,14.1,33.6s6.9,18.9,6.5,20.4s-2.1,9.2-2.1,13.8s4.4,11.3,4.4,11.3l2.8-18
			c0,0,2.8,10.5,3.9,12.7s2.2,2.5,2.2,2.5s2.9,1.1,2.7,2.9l-0.3,1.7c0,0,2.1-1.9,1.7-4l-0.4-2.1c0,0,2.3,2.2,2.5,3.2
			c0.2,0.7,0.4,1.4,0.8,2.1c0,0,0.4-5-0.8-7.1c-2-3.6-3.7-7.4-4.9-11.3c-1.2-4.4,0.3-6.9-2.4-9.6s-5.9-5.4-5.9-5.4
			s-9-18.6-13.8-29.7c-2.9-6.9-5.1-14.1-6.3-21.5L43,212z"/>
		<path style="fill:none;stroke:#000000;stroke-width:1.76;stroke-linecap:round;stroke-linejoin:round;" d="M43,212
			c0,0,10.8,24.8,14.1,33.6s6.9,18.9,6.5,20.4s-2.1,9.2-2.1,13.8s4.4,11.3,4.4,11.3l2.8-18c0,0,2.8,10.5,3.9,12.7s2.2,2.5,2.2,2.5
			s2.9,1.1,2.7,2.9l-0.3,1.7c0,0,2.1-1.9,1.7-4l-0.4-2.1c0,0,2.3,2.2,2.5,3.2c0.2,0.7,0.4,1.4,0.8,2.1c0,0,0.4-5-0.8-7.1
			c-2-3.6-3.7-7.4-4.9-11.3c-1.2-4.4,0.3-6.9-2.4-9.6s-5.9-5.4-5.9-5.4s-9-18.6-13.8-29.7c-2.9-6.9-5.1-14.1-6.3-21.5L43,212z"/>
		<path style="fill:#808080;" d="M75.4,210l-8.6,25.3c0,0-3.8,2.7-3.1,5.9c0.3,1.7,1.1,3.2,2.4,4.4v52.2c0,0-3.3,1.9-0.6,8
			c2.7,6.1,5.2,12.9,5.2,15c0.1,1.3,0.8,2.5,1.9,3.3l2.8,5.1l0.9-5.8c0.4-1.9,0.4-3.8,0-5.6c-0.9-3.6-3.6-6.3-2.4-7.3
			c2.2-1.8,6,3,10.5,6.6c3,2.4,6.3,4.5,9.7,6.1c0,0,4,0.4,4.7,0.4s2.2,1.1,2.2,1.1s-0.8-3.5-1.7-4.3s-3.6-1.5-3.6-1.5
			s-8.6-5.1-10.5-7s-6.5-3.8-5.8-6.8c0.5-2,5.7-1.3,8.9-1.1c2.4,0.1,4.9,0,7.3-0.3c0.8-0.1,1-1.5,1-1.5c1.2-0.2,2.5,0,3.6,0.6l1.5,1
			c0.3-2.1-0.8-4.1-2.8-4.8c-3.6-1.7-4.6,0.6-4.6,0.6c-3.9-0.4-7.8-0.6-11.7-0.5c-6.6,0.1-6.4-0.4-9.1-2.8s-2.9-11.5-2.9-19.7
			s0.6-26.9,0.6-26.9s2-1.9,1.4-6.8s-0.9-6.3-0.9-6.3l8.2-26.7H75.4z"/>
		<path style="fill:none;stroke:#000000;stroke-width:1.76;stroke-linecap:round;stroke-linejoin:round;" d="M75.4,210l-8.6,25.3
			c0,0-3.8,2.7-3.1,5.9c0.3,1.7,1.1,3.2,2.4,4.4v52.2c0,0-3.3,1.9-0.6,8c2.7,6.1,5.2,12.9,5.2,15c0.1,1.3,0.8,2.5,1.9,3.3l2.8,5.1
			l0.9-5.8c0.4-1.9,0.4-3.8,0-5.6c-0.9-3.6-3.6-6.3-2.4-7.3c2.2-1.8,6,3,10.5,6.6c3,2.4,6.3,4.5,9.7,6.1c0,0,4,0.4,4.7,0.4
			s2.2,1.1,2.2,1.1s-0.8-3.5-1.7-4.3s-3.6-1.5-3.6-1.5s-8.6-5.1-10.5-7s-6.5-3.8-5.8-6.8c0.5-2,5.7-1.3,8.9-1.1
			c2.4,0.1,4.9,0,7.3-0.3c0.8-0.1,1-1.5,1-1.5c1.2-0.2,2.5,0,3.6,0.6l1.5,1c0.3-2.1-0.8-4.1-2.8-4.8c-3.6-1.7-4.6,0.6-4.6,0.6
			c-3.9-0.4-7.8-0.6-11.7-0.5c-6.6,0.1-6.4-0.4-9.1-2.8s-2.9-11.5-2.9-19.7s0.6-26.9,0.6-26.9s2-1.9,1.4-6.8s-0.9-6.3-0.9-6.3
			l8.2-26.7H75.4z"/>
		
			<line style="fill:none;stroke:#000000;stroke-width:1.76;stroke-linecap:round;stroke-linejoin:round;" x1="72.7" y1="324" x2="76.4" y2="323.4"/>
		<path style="fill:none;stroke:#000000;stroke-width:1.76;stroke-linecap:round;stroke-linejoin:round;" d="M94.2,323.3
			c-0.2-0.9,0-1.8,0.5-2.6l1.2-1.8"/>
		<path style="fill:none;stroke:#000000;stroke-width:1.76;stroke-linecap:round;stroke-linejoin:round;" d="M96.9,302.2
			c0,0-2.1-0.1-1.9-1c0.1-0.5,0-1.1-0.4-1.5"/>
		<path style="fill:none;stroke:#000000;stroke-width:1.76;stroke-linecap:round;stroke-linejoin:round;" d="M66.2,245.5
			c0,0,1.2,4.1,2.3,4.9s2.9-0.6,2.9-0.6"/>
		<path style="fill:#FFFFFF;" d="M74.9,196.7c0,0-1.4,8.4-1,11.5s0.5,4.7,0.5,4.7c0.9,0.8,2,1.4,3.2,1.7l1.7,0.4
			c0,0,4.4-6.8,7.4-12.5c2.4-4.9,4.5-10,6.4-15.1L74.9,196.7z"/>
		<path style="fill:none;stroke:#000000;stroke-width:1.76;stroke-linecap:round;stroke-linejoin:round;" d="M74.9,196.7
			c0,0-1.4,8.4-1,11.5s0.5,4.7,0.5,4.7c0.9,0.8,2,1.4,3.2,1.7l1.7,0.4c0,0,4.4-6.8,7.4-12.5c2.4-4.9,4.5-10,6.4-15.1L74.9,196.7z"/>
		<path style="fill:#0039A6;" d="M31.7,169.9c0,0-13.7,1.4-24.4,17.6S1.6,222.1,6,229.8c2.1,3.7,9,10.6,9,10.6s-2.9-3.4-3.6-6.4
			l-0.8-2.9c0,0,7.2,12.3,12.1,16.1s9.5,7.2,9.5,7.2s-6.1-6.3-8.2-10.1c-1-1.6-1.8-3.3-2.4-5c0,0,4.3,4.7,7.5,6.4l3.2,1.7
			c0,0-5.6-6.4-6.6-10.7c-0.5-2-0.9-4.1-1-6.3c1.1,0.9,2.2,1.8,3.3,2.6l2,1.4c-0.8-1.4-1.3-2.9-1.7-4.5c-0.8-3.1-1.4-6.4-1.4-6.4
			s2,3.8,3.2,5.5l1.1,1.7c-0.5-1.8-0.8-3.6-1-5.4c-0.2-1.8-0.4-3.7-0.4-5.5c1,2.2,2.1,4.3,3.4,6.3c1.3,1.8,1.8,2.7,1.8,2.7
			c-0.1-0.9-0.1-1.8,0-2.7c0.1-2.3,0-5,0-5c0.6,2.3,1.5,4.5,2.7,6.6c1.9,3.6,3.6,4.6,3.6,4.6c-0.5-2.2-0.8-4.5-0.9-6.8
			c0.1-1.3,0.1-2.7,0-4c0,0,1.7,3.7,2.9,5s2.4,2.3,2.4,2.3s-4.2-7.5-0.8-13.6s5.8-3.1,11.4-7.9s10.7-8.9,9.5-16.5
			s0.2-14.1-12.1-18.8S31.7,169.8,31.7,169.9"/>
		<path style="fill:none;stroke:#000000;stroke-width:1.76;stroke-linecap:round;stroke-linejoin:round;" d="M31.7,169.9
			c0,0-13.7,1.4-24.4,17.6S1.6,222.1,6,229.8c2.1,3.7,9,10.6,9,10.6s-2.9-3.4-3.6-6.4l-0.8-2.9c0,0,7.2,12.3,12.1,16.1
			s9.5,7.2,9.5,7.2s-6.1-6.3-8.2-10.1c-1-1.6-1.8-3.3-2.4-5c0,0,4.3,4.7,7.5,6.4l3.2,1.7c0,0-5.6-6.4-6.6-10.7c-0.5-2-0.9-4.1-1-6.3
			c1.1,0.9,2.2,1.8,3.3,2.6l2,1.4c-0.8-1.4-1.3-2.9-1.7-4.5c-0.8-3.1-1.4-6.4-1.4-6.4s2,3.8,3.2,5.5l1.1,1.7c-0.5-1.8-0.8-3.6-1-5.4
			c-0.2-1.8-0.4-3.7-0.4-5.5c1,2.2,2.1,4.3,3.4,6.3c1.3,1.8,1.8,2.7,1.8,2.7c-0.1-0.9-0.1-1.8,0-2.7c0.1-2.3,0-5,0-5
			c0.6,2.3,1.5,4.5,2.7,6.6c1.9,3.6,3.6,4.6,3.6,4.6c-0.5-2.2-0.8-4.5-0.9-6.8c0.1-1.3,0.1-2.7,0-4c0,0,1.7,3.7,2.9,5
			s2.4,2.3,2.4,2.3s-4.2-7.5-0.8-13.6s5.8-3.1,11.4-7.9s10.7-8.9,9.5-16.5s0.2-14.1-12.1-18.8S31.7,169.9,31.7,169.9z"/>
		<path style="fill:#F15A24;" d="M134.5,9.3c0,0,11.6,2.3,21.5,4.8c6.7,1.7,18.9,6.2,18.9,6.2s-27.1-0.5-32.3-0.3s-11,0.1-11,0.1
			c0.1-2.4,0.5-4.8,1.3-7.1C134.1,10.2,134.5,9.3,134.5,9.3"/>
		<path style="fill:none;stroke:#000000;stroke-width:1.76;stroke-linecap:round;stroke-linejoin:round;" d="M134.5,9.3
			c0,0,11.6,2.3,21.5,4.8c6.7,1.7,18.9,6.2,18.9,6.2s-27.1-0.5-32.3-0.3s-11,0.1-11,0.1c0.1-2.4,0.5-4.8,1.3-7.1
			C134.1,10.2,134.5,9.3,134.5,9.3z"/>
		<path style="fill:none;stroke:#000000;stroke-width:1.76;stroke-linecap:round;stroke-linejoin:round;" d="M136.4,14.8
			c0,0,19.8,2.7,24.2,3.3s14.3,2.2,14.3,2.2"/>
		<path style="fill:#FFFFFF;" d="M33.2,171.6l-4.1,0.3c-4.1,0.3-3.3-1.3-3.3-1.3c8-12,17-23.3,26.8-33.8
			c15.1-15.6,49.1-23.5,49.1-23.5S123,97.5,122,82.2s-13.3-26.6-21-39.9s-7.9-34.5,9.2-38.3s25.3,5.6,25.3,5.6s1,0.5,0.6,4.9
			s-2.3,5.4-7.9,6.5s-14.3,0-14.3,0s-3.6-0.3-5.6,1.7s-5.9,3.3,1.5,17.3s16.1,18.5,24.9,35.5s5.2,35.3,1.4,45.5s-3.2,14.1-10,29.9
			s-9.6,19.9-24.6,33.5s-45.7,23.9-45.7,23.9s5-6.1,5.8-12.9s-1.7-6.9-1.5-9.1c0.3-1.9,0.8-3.8,1.5-5.6c-4.3,3.7-6.3,0.8-6.3,0.8
			c-1,1.3-2.5,2.1-4.1,2.2c-2.7,0.1-2.6-2.7-2.6-2.7s-1,1.9-4.6,2.1s-2.7-3.6-2.7-3.6s-1.8,1.7-6.9-1S33.2,171.7,33.2,171.6
			c0,0,1.6-2.8,8.2-11.2c3.6-4.8,7.7-9.2,12.1-13.2"/>
		<path style="fill:none;stroke:#000000;stroke-width:1.76;stroke-linecap:round;stroke-linejoin:round;" d="M33.2,171.6l-4.1,0.3
			c-4.1,0.3-3.3-1.3-3.3-1.3c8-12,17-23.3,26.8-33.8c15.1-15.6,49.1-23.5,49.1-23.5S123,97.5,122,82.2s-13.3-26.6-21-39.9
			s-7.9-34.5,9.2-38.3s25.3,5.6,25.3,5.6s1,0.5,0.6,4.9s-2.3,5.4-7.9,6.5s-14.3,0-14.3,0s-3.6-0.3-5.6,1.7s-5.9,3.3,1.5,17.3
			s16.1,18.5,24.9,35.5s5.2,35.3,1.4,45.5s-3.2,14.1-10,29.9s-9.6,19.9-24.6,33.5s-45.7,23.9-45.7,23.9s5-6.1,5.8-12.9
			s-1.7-6.9-1.5-9.1c0.3-1.9,0.8-3.8,1.5-5.6c-4.3,3.7-6.3,0.8-6.3,0.8c-1,1.3-2.5,2.1-4.1,2.2c-2.7,0.1-2.6-2.7-2.6-2.7
			s-1,1.9-4.6,2.1s-2.7-3.6-2.7-3.6s-1.8,1.7-6.9-1S33.2,171.7,33.2,171.6c0,0,1.6-2.8,8.2-11.2c3.6-4.8,7.7-9.2,12.1-13.2"/>
		<path style="fill:none;stroke:#000000;stroke-width:1.76;stroke-linecap:round;stroke-linejoin:round;" d="M130,11.2
			c0,2.2-2.2,3.9-4.8,3.9s-4.8-1.8-4.8-3.9s2.2-3.9,4.8-3.9S130,9.1,130,11.2z"/>
		<path style="fill:none;stroke:#000000;stroke-width:1.76;stroke-linecap:round;stroke-linejoin:round;" d="M123.3,7.6l2.9,3.6
			c-1-0.1-2,0.1-2.9,0.7c-0.6,0.6-1.1,1.4-1.3,2.2"/>
		<path style="fill:none;stroke:#000000;stroke-width:1.76;stroke-linecap:round;stroke-linejoin:round;" d="M122,13.4
			c-3.3,2-6.9,3.4-10.6,4.2c-6.1,1.1-8.3,3.1-9.6,8.2s3.2,12.8,5.8,16.7s7.5,12,12,18.5c6.1,8.9,7.2,15.3,7.4,21.8
			c0.2,9-3.1,17.7-9.3,24.2"/>
		<path style="fill:none;stroke:#000000;stroke-width:1.76;stroke-linecap:round;stroke-linejoin:round;" d="M128.5,71.7
			c0,0,1.1,2,2.2,8.3c0.6,3.7,0.8,7.5,0.6,11.3"/>
		
			<line style="fill:none;stroke:#000000;stroke-width:1.76;stroke-linecap:round;stroke-linejoin:round;" x1="40.5" y1="172.8" x2="35.2" y2="178.6"/>
		<path style="fill:none;stroke:#000000;stroke-width:1.76;stroke-linecap:round;stroke-linejoin:round;" d="M41.4,179.3
			c2-1.1,3.8-2.6,5.1-4.5c2.8-3.4,3.8-4.6,3.8-4.6"/>
		<path style="fill:none;stroke:#000000;stroke-width:1.76;stroke-linecap:round;stroke-linejoin:round;" d="M48.7,180.9
			c2.2-1.7,4.1-3.7,5.6-6.1c2-3.4,2.8-4.5,2.8-4.5"/>
		<path style="fill:none;stroke:#000000;stroke-width:1.76;stroke-linecap:round;stroke-linejoin:round;" d="M55.3,181.4
			c0,0,2.4-3,4.3-5.7s3.2-4.7,3.2-4.7"/>
		<path style="fill:none;stroke:#000000;stroke-width:1.76;stroke-linecap:round;stroke-linejoin:round;" d="M61.6,180.6
			c1.7-1.5,3.3-3.2,4.7-4.9c0.8-0.9,1.5-1.9,2.1-2.9l2-3.6"/>
		<path style="fill:none;stroke:#000000;stroke-width:1.76;stroke-linecap:round;stroke-linejoin:round;" d="M66,176.2
			c0,0,1.3,2.1,4.4,0c1.7-1.1,3.2-2.6,4.5-4.2c2.1,0.5,4.4-0.2,5.9-1.8c1.4-1.6,2.6-3.2,3.7-5c0,0,2,0,4.7-2.3
			c1.4-1.2,2.7-2.5,3.8-4c0,0,4.1,1,8.6-5.6c2.7-4,4.6-8.5,5.6-13.3"/>
		
			<line style="fill:none;stroke:#000000;stroke-width:1.76;stroke-linecap:round;stroke-linejoin:round;" x1="74.9" y1="172" x2="77.6" y2="167.7"/>
		<path style="fill:none;stroke:#000000;stroke-width:1.76;stroke-linecap:round;stroke-linejoin:round;" d="M84.5,165.3
			c1.1-1.6,2-3.3,2.7-5.2"/>
		<path style="fill:none;stroke:#000000;stroke-width:1.76;stroke-linecap:round;stroke-linejoin:round;" d="M93.1,159
			c0,0,2-3.3,4.1-7.5s1.5-4.1,1.5-4.1"/>
		<path style="fill:none;stroke:#000000;stroke-width:1.76;stroke-linecap:round;stroke-linejoin:round;" d="M22.6,178.6
			c0,0-11.4,4.1-15.3,20.5s3.9,25,3.9,25"/>
		<path style="fill:none;stroke:#000000;stroke-width:1.76;stroke-linecap:round;stroke-linejoin:round;" d="M29.8,181.4
			c0,0-7.2,5.8-8.2,15.3C20.4,208.4,24,212,24,212"/>
		<path style="fill:none;stroke:#000000;stroke-width:1.76;stroke-linecap:round;stroke-linejoin:round;" d="M35.2,221
			c-1-5-0.5-10.3,1.5-15c4.7-10.6,20.5-12.1,20.5-12.1"/>
		<path style="fill:none;stroke:#000000;stroke-width:1.76;stroke-linecap:round;stroke-linejoin:round;" d="M40.5,221.5
			c0,0-1.9-3.4,0.9-11c2.2-5.8,9-8,9-8"/>
		<path style="fill:none;stroke:#000000;stroke-width:1.76;stroke-linecap:round;stroke-linejoin:round;" d="M21.6,239.3
			c-1.2-1.6-2.2-3.4-2.9-5.3"/>
		<path style="fill:none;stroke:#000000;stroke-width:1.76;stroke-linecap:round;stroke-linejoin:round;" d="M66,190.8
			c0,0,13.1,0.4,29.9-11.5s21.9-22,21.9-22"/>
		<path style="fill:none;stroke:#000000;stroke-width:1.76;stroke-linecap:round;stroke-linejoin:round;" d="M14.4,195.9
			c0,0-3.7,7.2-1.1,17.3s6.9,13,6.9,13"/>
		<path style="fill:none;stroke:#000000;stroke-width:1.76;stroke-linecap:round;stroke-linejoin:round;" d="M29.8,214.6
			c0,0-2.3-3.7,1.1-13.3s10.5-12.8,10.5-12.8"/>
		<path style="fill:none;stroke:#000000;stroke-width:1.76;stroke-linecap:round;stroke-linejoin:round;" d="M39.9,195.9
			c0,0,1.8-3.1,8.8-5.7"/>
		<path style="fill:none;stroke:#000000;stroke-width:1.76;stroke-linecap:round;stroke-linejoin:round;" d="M37.8,179.6
			c0,0-5,2.8-8.8,10.6s-3.3,11.1-3.3,11.1"/>
		<path style="fill:none;stroke:#000000;stroke-width:1.76;stroke-linecap:round;stroke-linejoin:round;" d="M66.2,135.6
			c5.1-5.2,11.4-9.2,18.3-11.5c5.5-2,11.2-3.4,17-4.3"/>
		<path style="fill:none;stroke:#000000;stroke-width:1.76;stroke-linecap:round;stroke-linejoin:round;" d="M135.3,88.3
			c0,0,1.8,4.3,0,15.3s-3.9,16.1-3.9,16.1"/>
		<path style="fill:none;stroke:#000000;stroke-width:1.76;stroke-linecap:round;stroke-linejoin:round;" d="M78.7,286.7
			c-1.9-1.3-3.3-3.2-4.1-5.4c-1-3.2-1.3-8.3-2.5-10.4l-1.2-2"/>
		<path style="fill:#DC281E;" d="M98.1,13.4c0,0,2.5-10,16.1-12.1c15.8-2.4,21.3,8.3,21.3,8.3s-10-6.4-20.1-4.7
			C109,6.1,103,9,98.1,13.4"/>
		<path style="fill:none;stroke:#000000;stroke-width:1.76;stroke-linecap:round;stroke-linejoin:round;" d="M98.1,13.4
			c0,0,2.5-10,16.1-12.1c15.8-2.4,21.3,8.3,21.3,8.3s-10-6.4-20.1-4.7C109,6.1,103,9,98.1,13.4z"/>
	</g>
</g>
</svg>
