<?xml version="1.0" encoding="utf-8"?>
<!-- Generator: Adobe Illustrator 23.0.2, SVG Export Plug-In . SVG Version: 6.00 Build 0)  -->
<svg version="1.1" id="Réteg_1" xmlns="http://www.w3.org/2000/svg" xmlns:xlink="http://www.w3.org/1999/xlink" x="0px" y="0px"
	 viewBox="0 0 147.1 303.3" style="enable-background:new 0 0 147.1 303.3;" xml:space="preserve">
<title>cimerkep_19</title>
<g>
	<g>
		<path style="fill-rule:evenodd;clip-rule:evenodd;fill:#A67C52;" d="M91.9,50.2c0,0,6.4,0,10.7-2.8s3.8,1.8,12.5-2
			s5.6-7.4,5.6-7.4s5.4-2.3,3.1-5.6s-5.4-2.6-5.4-2.6l-15.1-12.3c0,0-0.5-4.3-6.4-7.4c-5.1-2.7-2.1-5.4-4.2-7.5
			c-3.2-3.2-6.1-1.1-6.6,0c-0.4,0.7-0.8,1.3-1.4,1.9c-6.5-2.2-13.5-2.3-20.1-0.3C53.6,7.5,46.2,18.8,43.3,27.7s-0.5,22.8-5.6,30.7
			S21.4,76.6,20.8,87.8s0.8,27.4,0.8,27.4s-8.2,5.6-7.7,16.1s2.3,18.4-1.5,27.9s-11,16.4-11.5,41.9s10.5,37.1,15.9,42.4
			s9,9.5,8.7,14.8s-1,12.5,0.8,18.4s-4.9,15.6,0.5,18.4s14.6,3.3,21.2,3.8s10.5-1.8,12,1s5.1,3.3,5.1,0.8s3.8,1.5,3.1-2
			s2.3,1.8,2.6-0.8c0.2-1.4-0.3-2.8-1.3-3.8c0,0,5.1,2.8,13.3,2.3s11.5-0.8,14.1,0s5.4,2.8,3.6-0.5s2.6,3.3,1.8-0.8
			s-5.1-4.8-5.1-4.8c-2.9-2.7-6.4-4.7-10.2-5.9c-6.4-2-9.5-7.2-7.7-11s11.8-14.3,12.3-17.4s0.5-9.5,2.6-13.8s3.6-12.8,3.1-19.7
			s-9.2-13.3-9.2-13.3s6.1-2.8,7.7-14.3s-2.6-34.8-2.6-34.8s7.4,4.6,9,9s8.2,21,13.8,24.6s12.3,2,12.3,2s4.6-0.3,5.2-2.8
			c0.5-2.1-1.1-4.6-1.7-5.4s-5.9-10.7-5.4-15.9s-0.5-13-4.9-18.9s-16.1-21.2-16.6-26.1s-0.5-10.7-0.5-10.7s14.1-15.6,16.4-18.9
			s5.6-7.7,11-8.7c5.4-1,12-8.2,12-13s-2.3-14.6-11.8-12s-9.2,3.8-21.7,4.6s-17.4,9.2-17.4,9.2l-3.1-7.4c0,0,1.8-7.9,1.8-12.5
			C91.4,54.8,91.6,52.5,91.9,50.2"/>
		<path style="fill:none;stroke:#000000;stroke-width:1.76;stroke-linecap:round;stroke-linejoin:round;" d="M91.9,50.2
			c0,0,6.4,0,10.7-2.8s3.8,1.8,12.5-2s5.6-7.4,5.6-7.4s5.4-2.3,3.1-5.6s-5.4-2.6-5.4-2.6l-15.1-12.3c0,0-0.5-4.3-6.4-7.4
			c-5.1-2.7-2.1-5.4-4.2-7.5c-3.2-3.2-6.1-1.1-6.6,0c-0.4,0.7-0.8,1.3-1.4,1.9c-6.5-2.2-13.5-2.3-20.1-0.3
			C53.6,7.5,46.2,18.8,43.3,27.7s-0.5,22.8-5.6,30.7S21.4,76.6,20.8,87.8s0.8,27.4,0.8,27.4s-8.2,5.6-7.7,16.1s2.3,18.4-1.5,27.9
			s-11,16.4-11.5,41.9s10.5,37.1,15.9,42.4s9,9.5,8.7,14.8s-1,12.5,0.8,18.4s-4.9,15.6,0.5,18.4s14.6,3.3,21.2,3.8s10.5-1.8,12,1
			s5.1,3.3,5.1,0.8s3.8,1.5,3.1-2s2.3,1.8,2.6-0.8c0.2-1.4-0.3-2.8-1.3-3.8c0,0,5.1,2.8,13.3,2.3s11.5-0.8,14.1,0s5.4,2.8,3.6-0.5
			s2.6,3.3,1.8-0.8s-5.1-4.8-5.1-4.8c-2.9-2.7-6.4-4.7-10.2-5.9c-6.4-2-9.5-7.2-7.7-11s11.8-14.3,12.3-17.4s0.5-9.5,2.6-13.8
			s3.6-12.8,3.1-19.7s-9.2-13.3-9.2-13.3s6.1-2.8,7.7-14.3s-2.6-34.8-2.6-34.8s7.4,4.6,9,9s8.2,21,13.8,24.6s12.3,2,12.3,2
			s4.6-0.3,5.2-2.8c0.5-2.1-1.1-4.6-1.7-5.4s-5.9-10.7-5.4-15.9s-0.5-13-4.9-18.9s-16.1-21.2-16.6-26.1s-0.5-10.7-0.5-10.7
			s14.1-15.6,16.4-18.9s5.6-7.7,11-8.7c5.4-1,12-8.2,12-13s-2.3-14.6-11.8-12s-9.2,3.8-21.7,4.6s-17.4,9.2-17.4,9.2l-3.1-7.4
			c0,0,1.8-7.9,1.8-12.5C91.4,54.8,91.5,52.5,91.9,50.2z"/>
		<path style="fill-rule:evenodd;clip-rule:evenodd;fill:#736357;" d="M91.8,20.1c0,0,3-1.7,5.9-0.7c1.8,0.8,3.2,2.2,4,4
			c0,0-1.8,2-6.1,0.7S91.8,20.1,91.8,20.1"/>
		<path style="fill:none;stroke:#000000;stroke-width:1.76;stroke-linecap:round;stroke-linejoin:round;" d="M91.8,20.1
			c0,0,3-1.7,5.9-0.7c1.8,0.8,3.2,2.2,4,4c0,0-1.8,2-6.1,0.7S91.8,20.1,91.8,20.1z"/>
		<path style="fill-rule:evenodd;clip-rule:evenodd;" d="M119.3,30.6c-2.1,0.1-1.6,2.5-1.2,4s0.2,3.8,2.8,2.9s3.8-2.9,3.3-4.2
			c-0.8-1.3-2.1-2.3-3.5-2.8C120.1,30.6,119.7,30.6,119.3,30.6"/>
		<path style="fill:none;stroke:#000000;stroke-width:1.76;stroke-linecap:round;stroke-linejoin:round;" d="M119.3,30.6
			c-2.1,0.1-1.6,2.5-1.2,4s0.2,3.8,2.8,2.9s3.8-2.9,3.3-4.2c-0.8-1.3-2.1-2.3-3.5-2.8C120.1,30.5,119.7,30.6,119.3,30.6z"/>
		<path style="fill:none;stroke:#000000;stroke-width:1.76;stroke-linecap:round;stroke-linejoin:round;" d="M115.2,45.2
			c0,0-5.1,0-6.4-2.4"/>
		<path style="fill:none;stroke:#000000;stroke-width:1.76;stroke-linecap:round;stroke-linejoin:round;" d="M69.2,13.8
			c0,0-3.7-5.1,0-7.2s7.7,3.1,7.7,3.1"/>
		<path style="fill:none;stroke:#000000;stroke-width:1.76;stroke-linecap:round;stroke-linejoin:round;" d="M93.4,75.8
			c0,0-7,9.2-13.6,11.6S67,89.6,62.6,91.5s-7.5-3.2-7.5-3.2"/>
		<path style="fill:none;stroke:#000000;stroke-width:1.76;stroke-linecap:round;stroke-linejoin:round;" d="M88.8,88.6
			c0,0,10.7-12.1,16.9-13.7c3.1-0.8,6.2-1.4,9.3-1.7"/>
		<path style="fill:none;stroke:#000000;stroke-width:1.76;stroke-linecap:round;stroke-linejoin:round;" d="M137.7,67.6
			c0.8-1.1,1.8-2.1,3.1-2.7c2.3-1.3,2.9-1,2.9-1"/>
		<path style="fill:none;stroke:#000000;stroke-width:1.76;stroke-linecap:round;stroke-linejoin:round;" d="M139.1,70.6
			c0.9-0.9,2-1.6,3.2-2.2c1-0.4,2.1-0.6,3.2-0.8"/>
		<path style="fill:none;stroke:#000000;stroke-width:1.76;stroke-linecap:round;stroke-linejoin:round;" d="M140,73.6
			c1-0.6,2.2-1.2,3.3-1.5c2.4-0.9,2.9-1,2.9-1"/>
		<path style="fill:none;stroke:#000000;stroke-width:1.76;stroke-linecap:round;stroke-linejoin:round;" d="M140.6,76.6
			c1.1-0.5,2.3-0.8,3.4-0.9l1.7-0.1"/>
		<path style="fill:none;stroke:#000000;stroke-width:1.76;stroke-linecap:round;stroke-linejoin:round;" d="M132.8,192.8
			c0.6,0.6,2.3,2.4,2.3,2.4"/>
		<path style="fill:none;stroke:#000000;stroke-width:1.76;stroke-linecap:round;stroke-linejoin:round;" d="M130.1,194.9
			c0.5,0.6,0.9,1.2,1.3,1.8c0.2,0.4,0.3,0.8,0.4,1.1"/>
		<path style="fill:none;stroke:#000000;stroke-width:1.76;stroke-linecap:round;stroke-linejoin:round;" d="M48,120
			c0,0,9,6.7,15.3,7.3s19.2,0.8,23.6-0.8c1.8-0.7,3.5-1.6,5.1-2.6c5.4-3.2,12.2-8,12.2-8"/>
		<path style="fill:none;stroke:#000000;stroke-width:1.76;stroke-linecap:round;stroke-linejoin:round;" d="M92.9,160.2
			c-1.2-2.3-1.9-4.9-2-7.5c0-3.8,1.2-12.5,1.5-18.8c0.3-3.3,0.1-6.6-0.5-9.9"/>
		<path style="fill:none;stroke:#000000;stroke-width:1.76;stroke-linecap:round;stroke-linejoin:round;" d="M21.7,114.5
			c0,0-0.2,5.4,1.5,8.1s2.7,4.6,2.7,4.6"/>
		<path style="fill:none;stroke:#000000;stroke-width:1.76;stroke-linecap:round;stroke-linejoin:round;" d="M36.5,69.4
			c-4.6,4.2-7.8,9.8-9,15.9c-1.1,5.7-1.1,11.6,0,17.3"/>
		<path style="fill:none;stroke:#000000;stroke-width:1.76;stroke-linecap:round;stroke-linejoin:round;" d="M78.7,46.6
			c3.4,2.5,13.2,3.6,13.2,3.6"/>
		<path style="fill:none;stroke:#000000;stroke-width:1.76;stroke-linecap:round;stroke-linejoin:round;" d="M14.6,170.6
			c-5.2,10.8-7.6,22.7-7.1,34.7c1,16.1,7.7,26.1,7.7,26.1"/>
		<path style="fill:none;stroke:#000000;stroke-width:1.76;stroke-linecap:round;stroke-linejoin:round;" d="M87.8,209.3
			c0,0-5.1,5.3-6.3,6.8c-0.7,0.9-1.1,2-1.3,3.1"/>
		<path style="fill:none;stroke:#000000;stroke-width:1.76;stroke-linecap:round;stroke-linejoin:round;" d="M72,229.7
			c-1.4,2.1-2.6,4.3-3.7,6.5c-1.3,3.1-3.6,2.1-1.9,7.9c2.1,6.7,0.6,13.9-4,19.2c-5.4,6.3-4.6,8.6-6.3,11.5c-1.2,1.9-2.5,3.8-3.8,5.6
			c0,0,8.3,4.4,10.5,6.9c2.3,2.5,6.7,6.9,6.7,6.9"/>
		<path style="fill:none;stroke:#000000;stroke-width:1.76;stroke-linecap:round;stroke-linejoin:round;" d="M42.4,206.7
			c1.2,4.6,4.1,8.6,8.1,11.1c6.9,4.6,12.7,5,12.7,5"/>
		<path style="fill:none;stroke:#000000;stroke-width:1.76;stroke-linecap:round;stroke-linejoin:round;" d="M84.6,56
			c-0.7,4.6-1.1,9.2-1.2,13.8c0,6.1,1.2,7.7,1.2,7.7"/>
		<path style="fill:none;stroke:#000000;stroke-width:1.76;stroke-linecap:round;stroke-linejoin:round;" d="M85.8,134.6
			c0,0-3.1,16.1-0.8,23.8s4.2,17.3,4.2,23"/>
		<path style="fill:none;stroke:#000000;stroke-width:1.76;stroke-linecap:round;stroke-linejoin:round;" d="M110.3,147.3
			c0,0,8,6.9,9.2,15.3c0.7,5.3,1.8,10.5,3.1,15.7"/>
		<path style="fill-rule:evenodd;clip-rule:evenodd;fill:#534741;" d="M98.3,21.9c0,0.9-0.7,1.6-1.6,1.6c-0.9,0-1.6-0.7-1.6-1.6
			c0-0.9,0.7-1.6,1.6-1.6C97.6,20.3,98.3,21,98.3,21.9C98.3,21.9,98.3,21.9,98.3,21.9"/>
		<path style="fill:none;stroke:#000000;stroke-width:1.76;stroke-linecap:round;stroke-linejoin:round;" d="M98.3,21.9
			c0,0.9-0.7,1.6-1.6,1.6c-0.9,0-1.6-0.7-1.6-1.6c0-0.9,0.7-1.6,1.6-1.6C97.6,20.3,98.3,21,98.3,21.9C98.3,21.9,98.3,21.9,98.3,21.9
			z"/>
		<path style="fill:none;stroke:#000000;stroke-width:1.76;stroke-linecap:round;stroke-linejoin:round;" d="M71.9,12.5
			c0,0-1.3-1.6-0.1-2.4s2.8,1.5,2.8,1.5"/>
		<path style="fill:none;stroke:#000000;stroke-width:1.76;stroke-linecap:round;stroke-linejoin:round;" d="M87,6.7
			c0,0,1.3-2.7,2.6-2.2S90.3,8,90.3,8"/>
		<path style="fill:none;stroke:#000000;stroke-width:1.76;stroke-linecap:round;stroke-linejoin:round;" d="M57.9,119.5
			c4.5,2.8,9.8,4.1,15.1,3.6c5.5-0.5,11-1.4,16.4-2.8"/>
		
			<line style="fill:none;stroke:#000000;stroke-width:1.76;stroke-linecap:round;stroke-linejoin:round;" x1="46.2" y1="279" x2="52.2" y2="280.3"/>
		<path style="fill:none;stroke:#000000;stroke-width:1.76;stroke-linecap:round;stroke-linejoin:round;" d="M73.3,274.2
			c0,0-2,5.1,2,8.4c2.1,1.8,4.6,3.3,7.2,4.4"/>
		<path style="fill:none;stroke:#000000;stroke-width:1.76;stroke-linecap:round;stroke-linejoin:round;" d="M49,274.2
			c1.9-1.8,3.3-4,4.3-6.4c1.3-2.7,3-5.1,5.1-7.1"/>
		<path style="fill:none;stroke:#000000;stroke-width:1.76;stroke-linecap:round;stroke-linejoin:round;" d="M48.2,284.9
			c2.9,0.4,5.6,1.6,7.9,3.3c4.3,3.1,5.9,4.4,5.9,4.4"/>
		<path style="fill:none;stroke:#000000;stroke-width:1.76;stroke-linecap:round;stroke-linejoin:round;" d="M39.8,183.3
			c0,0,4.2,9.2,5.4,15s3.1,9.6,7.3,13s5.8,3.8,5.8,3.8"/>
		<path style="fill:none;stroke:#000000;stroke-width:1.76;stroke-linecap:round;stroke-linejoin:round;" d="M27.5,244.3
			c0,0,4.6,5.4,4.6,11.9s-1.5,7.3-1.5,13.4"/>
		<path style="fill:none;stroke:#000000;stroke-width:1.76;stroke-linecap:round;stroke-linejoin:round;" d="M87.8,218
			c0,0,5.6,3.1,2.6,13.3s-3.6,15.9-3.6,15.9"/>
	</g>
</g>
</svg>
