<?xml version="1.0" encoding="utf-8"?>
<!-- Generator: Adobe Illustrator 23.0.2, SVG Export Plug-In . SVG Version: 6.00 Build 0)  -->
<svg version="1.1" id="Réteg_1" xmlns="http://www.w3.org/2000/svg" xmlns:xlink="http://www.w3.org/1999/xlink" x="0px" y="0px"
	 viewBox="0 0 221.3 295.5" style="enable-background:new 0 0 221.3 295.5;" xml:space="preserve">
<title>cimerkep_15</title>
<g>
	<g>
		<path style="fill:#E6E6E6;" d="M128.4,7.8c0,0,4.8-1.3,13.8,10.4s16.4,25.4,21.9,29.9s8.8,7.5,7.6,9.5s3.5,3.7-1.8,9.4
			s-8.2,4.3-8.2,4.3s-1.2,8.4-8.6,6.1S133.6,71,133.6,71s1.5,4.3,0.6,5.4s2.4,5.8,0.7,7.5s2.3,4,1.9,5.4s7.6,1.4,7.9,4.3
			s4.6,1.3,5.1,3.3s1.3,3.5,5.8,4.4s4.4-10.9,11-14.8s12.5-2.5,15.8,0.5s10.1,19,10.1,19s7.7,0.1,9.9,5.5s14.9,24.5,16.1,28.9
			s-1.2,11.8-1.2,11.8s4.8,8.5,2.5,11.2l-2.3,2.7l-4.7-6.4l-1.8-2.1l1.2,9.4c0,0-8.3,0.9-7.8-5.6s1.5-8.9,1.5-8.9s-4.6-6.4-2.8-10.7
			s-3.4-9.7-3.4-9.7l-3.7,11.6c0,0,0.9,6.6-0.5,9.5c-0.8,1.7-2,3.2-3.5,4.3l-2.6-9.9l-1.7,8.1c-3.5-1.4-5.7-5-5.3-8.8
			c0.3-6.9,1.7-8.1,1.7-8.1s-5.4-6.2-2.3-10.4c1.8-2.4,2.7-5.3,2.5-8.3l-15.7,9.6c0,0,4,7,3.3,9.3s-4.4,4.1-3.8,6.5s2,4.6,1.4,6.9
			s-4.4,2.4-4.8,5.9s-1.6,10.2-4.9,11.9s-5.4,1.9-4.7,4.6s-5.3,7.3-5.3,7.3s-3.7,5.2-3.4,6.4s-1.4,4.2-4.6,5s-1.9,7.3-5.1,8.1
			s-1.3,3.3-7.6,5s-11,5.4-14,5.3s-6.3,5-8.5,4.8s-3.3,5.1-5.2,4.4s1.9,2.5,0.1,5.1s0.1,6.8-3.9,7.8S95,239,93,239.5
			s-3.7,3.5-2.8,7.1s15.4,10.4,15.4,10.4s9.1,0.6,14.6-0.9s13,0.8,15.4,3.6s1.8,3.8,1.8,3.8s-4,2.3-7.9,0.8l-3.8-1.5
			c0,0,4.2,3.1,4.8,5.5l0.6,2.4c0,0-5.1,1.8-9-0.2s-5.9,0.3-9.5-0.5s-25.5-6.5-30.5-9.4c-3-1.7-5.5-4.1-7.3-7c0,0,4.7,1.7-0.6,4.4
			c-5.3,2.6-1.9,7.3,0.8,9.5s15.9,12,20.8,12.8s11.4,0,13.9,2.7c1.5,1.9,2.3,4.2,2.2,6.6l-7.1-1.1l3.4,5c0,0-6.5,2.6-11.6-0.4
			s-4.2-6.1-6.9-5.4s-5.7,4-7.8,1.2s-14.8-9.3-19.1-8.1s-7.1,0.6-8.3-4.2s-7.3-5.3-7.7-8.2s-8.9-1.5-7-7.1s-8.7-5.8-4.1-10.8
			s-4.7-9.8-4.7-9.8s-2-2.9-2-4.6c-0.2-1.8-0.5-3.5-1-5.3L27.7,243c0,0,6.4,5.1,2.1,7.9s-3.4,6.4-5.6,6.1s-9.3-4.8-8-7.7
			s5.7-4.1,3.1-7.6s-2.7-0.6-4.1-6.1s-7.9-6-6.3-9.4s-9.2-4.3-5.6-8.7s-6.1-6.9-0.6-12.1s-1.8-3.8,0-9.8s2.4-10.4,5.9-11.3
			s0.4-6.5,3.5-7.7s-1.2-7.8,3.6-9s1.8-11.1,6.7-11.5s3.8-8.2,8.3-9s5.6-6.1,9.4-6.3s0.1-6,6-7.9s4-7.4,7.4-7.4s2-5.2,7-5.7
			s4.9-8.9,6.1-9.2s-7.1-6.2,0.9-7.9s0.8-10,3.3-11.5s-3.5-6.7-1-8.7s-2.6-9.9,0.3-12s-0.2-8.8,3.7-10.3s0.1-7.7,3.2-8.9
			s1.4-5.9,3.7-6.9s5.5-4.8,5.5-4.8c-1.9-1.3-3.4-3.1-4.3-5.2c-0.8-1.6-1.6-3.3-2.2-5c0,0,5.4-5.3,11.6-4.3l6.2,0.9
			c0,0-6.9-5.5-4.2-6.7c4.8-2.1,1.3-9.1,5.5-7.7s0.3-3.5,4.9-3.8s-1.5-5.4,4.3-4.4s1.9-3.9,7-2.3s8.8-1.9,12.1,0.7
			C128.7,3.3,129.4,5.8,128.4,7.8"/>
		<path style="fill:none;stroke:#000000;stroke-width:1.76;stroke-linecap:round;stroke-linejoin:round;" d="M128.4,7.8
			c0,0,4.8-1.3,13.8,10.4s16.4,25.4,21.9,29.9s8.8,7.5,7.6,9.5s3.5,3.7-1.8,9.4s-8.2,4.3-8.2,4.3s-1.2,8.4-8.6,6.1
			S133.6,71,133.6,71s1.5,4.3,0.6,5.4s2.4,5.8,0.7,7.5s2.3,4,1.9,5.4s7.6,1.4,7.9,4.3s4.6,1.3,5.1,3.3s1.3,3.5,5.8,4.4
			s4.4-10.9,11-14.8s12.5-2.5,15.8,0.5s10.1,19,10.1,19s7.7,0.1,9.9,5.5s14.9,24.5,16.1,28.9s-1.2,11.8-1.2,11.8s4.8,8.5,2.5,11.2
			l-2.3,2.7l-4.7-6.4l-1.8-2.1l1.2,9.4c0,0-8.3,0.9-7.8-5.6s1.5-8.9,1.5-8.9s-4.6-6.4-2.8-10.7s-3.4-9.7-3.4-9.7l-3.7,11.6
			c0,0,0.9,6.6-0.5,9.5c-0.8,1.7-2,3.2-3.5,4.3l-2.6-9.9l-1.7,8.1c-3.5-1.4-5.7-5-5.3-8.8c0.3-6.9,1.7-8.1,1.7-8.1
			s-5.4-6.2-2.3-10.4c1.8-2.4,2.7-5.3,2.5-8.3l-15.7,9.6c0,0,4,7,3.3,9.3s-4.4,4.1-3.8,6.5s2,4.6,1.4,6.9s-4.4,2.4-4.8,5.9
			s-1.6,10.2-4.9,11.9s-5.4,1.9-4.7,4.6s-5.3,7.3-5.3,7.3s-3.7,5.2-3.4,6.4s-1.4,4.2-4.6,5s-1.9,7.3-5.1,8.1s-1.3,3.3-7.6,5
			s-11,5.4-14,5.3s-6.3,5-8.5,4.8s-3.3,5.1-5.2,4.4s1.9,2.5,0.1,5.1s0.1,6.8-3.9,7.8S95,239,93,239.5s-3.7,3.5-2.8,7.1
			s15.4,10.4,15.4,10.4s9.1,0.6,14.6-0.9s13,0.8,15.4,3.6s1.8,3.8,1.8,3.8s-4,2.3-7.9,0.8l-3.8-1.5c0,0,4.2,3.1,4.8,5.5l0.6,2.4
			c0,0-5.1,1.8-9-0.2s-5.9,0.3-9.5-0.5s-25.5-6.5-30.5-9.4c-3-1.7-5.5-4.1-7.3-7c0,0,4.7,1.7-0.6,4.4c-5.3,2.6-1.9,7.3,0.8,9.5
			s15.9,12,20.8,12.8s11.4,0,13.9,2.7c1.5,1.9,2.3,4.2,2.2,6.6l-7.1-1.1l3.4,5c0,0-6.5,2.6-11.6-0.4s-4.2-6.1-6.9-5.4
			s-5.7,4-7.8,1.2s-14.8-9.3-19.1-8.1s-7.1,0.6-8.3-4.2s-7.3-5.3-7.7-8.2s-8.9-1.5-7-7.1s-8.7-5.8-4.1-10.8s-4.7-9.8-4.7-9.8
			s-2-2.9-2-4.6c-0.2-1.8-0.5-3.5-1-5.3L27.7,243c0,0,6.4,5.1,2.1,7.9s-3.4,6.4-5.6,6.1s-9.3-4.8-8-7.7s5.7-4.1,3.1-7.6
			s-2.7-0.6-4.1-6.1s-7.9-6-6.3-9.4s-9.2-4.3-5.6-8.7s-6.1-6.9-0.6-12.1s-1.8-3.8,0-9.8s2.4-10.4,5.9-11.3s0.4-6.5,3.5-7.7
			s-1.2-7.8,3.6-9s1.8-11.1,6.7-11.5s3.8-8.2,8.3-9s5.6-6.1,9.4-6.3s0.1-6,6-7.9s4-7.4,7.4-7.4s2-5.2,7-5.7s4.9-8.9,6.1-9.2
			s-7.1-6.2,0.9-7.9s0.8-10,3.3-11.5s-3.5-6.7-1-8.7s-2.6-9.9,0.3-12s-0.2-8.8,3.7-10.3s0.1-7.7,3.2-8.9s1.4-5.9,3.7-6.9
			s5.5-4.8,5.5-4.8c-1.9-1.3-3.4-3.1-4.3-5.2c-0.8-1.6-1.6-3.3-2.2-5c0,0,5.4-5.3,11.6-4.3l6.2,0.9c0,0-6.9-5.5-4.2-6.7
			c4.8-2.1,1.3-9.1,5.5-7.7s0.3-3.5,4.9-3.8s-1.5-5.4,4.3-4.4s1.9-3.9,7-2.3s8.8-1.9,12.1,0.7C128.7,3.2,129.4,5.7,128.4,7.8z"/>
		<path style="fill:none;stroke:#000000;stroke-width:1.76;stroke-linecap:round;stroke-linejoin:round;" d="M124.3,33
			c0,0,5.2-2.9,9.4-0.8c2.3,1.1,4.1,3,5,5.5c-2.5,0.5-5.1,0.5-7.7-0.1C127.6,36.5,124.3,33,124.3,33z"/>
		<path style="fill:none;stroke:#000000;stroke-width:1.76;stroke-linecap:round;stroke-linejoin:round;" d="M134,34.2
			c0.3,1.3-0.4,2.7-1.8,3c-1.3,0.3-2.7-0.4-3-1.8c-0.3-1.3,0.4-2.7,1.8-3c0,0,0,0,0,0C132.3,32.1,133.6,32.9,134,34.2
			C134,34.2,134,34.2,134,34.2z"/>
		<path style="fill:none;stroke:#000000;stroke-width:1.76;stroke-linecap:round;stroke-linejoin:round;" d="M171.6,57.6
			c0,0-3.2,3.2-5.7,2.6s-2.6-1.2-2.6-1.2"/>
		<path style="fill:none;stroke:#000000;stroke-width:1.76;stroke-linecap:round;stroke-linejoin:round;" d="M161.6,71.2
			c-2.1,0.2-4.2-0.3-6.1-1.4"/>
		<path style="fill:none;stroke:#000000;stroke-width:1.76;stroke-linecap:round;stroke-linejoin:round;" d="M85.9,39.8
			c0,0,1.8,2.7,8,3c3.4,0.3,6.8-0.4,9.9-1.8"/>
		<path style="fill:none;stroke:#000000;stroke-width:1.76;stroke-linecap:round;stroke-linejoin:round;" d="M97.2,26.2
			c2.3,0.9,4.4,2.1,6.3,3.7"/>
		<path style="fill:none;stroke:#000000;stroke-width:1.76;stroke-linecap:round;stroke-linejoin:round;" d="M116.1,24.4
			c2.2-0.6,4.9-3.2,4.9-3.2s4.4,2.2,4.6-0.2s5.1,0,4.5-2.9s3.4-3,1.1-5.4s1.4-1,0.6-2.7s-3.4-2.3-3.4-2.3"/>
		<path style="fill:none;stroke:#000000;stroke-width:1.76;stroke-linecap:round;stroke-linejoin:round;" d="M169.1,124
			c0,0,5.5-4.8,4.2-6.8s-4.9-3.5-1.5-5.8s3.2-5.1,3.2-5.1s2,5.4,4.7,6.1c2,0.4,3.6,1.8,4.1,3.7c0.3,1.3,0.4,2.6,0.4,3.8"/>
		<path style="fill:none;stroke:#000000;stroke-width:1.76;stroke-linecap:round;stroke-linejoin:round;" d="M192.4,106
			c0,0,3.9,12.8,4.3,15.3s2.3,5.3,2.3,6.5c0.2,1.5,0.4,2.9,0.7,4.3"/>
		<path style="fill:none;stroke:#000000;stroke-width:1.76;stroke-linecap:round;stroke-linejoin:round;" d="M28.4,231
			c0,0,3.5-3.9,0.7-6s-1.3-6.2-4.5-7.3s-2.3-4.5-4.8-5.3s-3.5-1.6-3.4-4.2c0.1-1.6,0.6-3.2,1.3-4.6"/>
		<path style="fill:none;stroke:#000000;stroke-width:1.76;stroke-linecap:round;stroke-linejoin:round;" d="M158.1,101.2
			c0,0-4.1,3.6-4.2,5.6s-5.7,0.9-6.4,2.5s-4.9-0.4-6.8,1.2s-5.4-3.4-5.4-3.4"/>
		<path style="fill:none;stroke:#000000;stroke-width:1.76;stroke-linecap:round;stroke-linejoin:round;" d="M101.3,221.2
			c0,0-6.3,2.9-6.8,0s-3.3,2.6-7.8,1.5s-11.5,10.1-13.3,7.7s-11.4,3-12.2-1.1"/>
		<path style="fill:none;stroke:#000000;stroke-width:1.76;stroke-linecap:round;stroke-linejoin:round;" d="M75,253.5
			c0,0-1.4-6.3,0.8-7.7s5.6-1.2,3.7-3.2s1.8-5,0.7-5.9"/>
		<path style="fill:none;stroke:#000000;stroke-width:1.76;stroke-linecap:round;stroke-linejoin:round;" d="M104,202.2
			c2.8-0.7,7.2,3.2,7.3-1.1s8,1.3,7.5-3.7s9.6,0.9,8.7-5.7s2.9-3.7,5-6.8s5.7,2.3,2.1-3.1s3.3-2.1,2.7-7.5"/>
		<path style="fill:none;stroke:#000000;stroke-width:1.76;stroke-linecap:round;stroke-linejoin:round;" d="M25.5,179.6
			c2.3-5.7,5.5-4.9,5.5-4.9s-5-6.3-1.2-7.8s3.1-4.2,4.6-6.7s-3.7-4.5,0.6-5.7s2.5-6.6,7.2-6.6s0.2-2.6,5.3-3.9s4.4,0.6,7-4
			s1.6-8.5,3.8-8.2s-1.6-3,3.1-4.2s7.8-5.9,7.8-5.9"/>
		<path style="fill:none;stroke:#000000;stroke-width:1.76;stroke-linecap:round;stroke-linejoin:round;" d="M126.6,74.9
			c2.3,4-1.3,3.3,0.1,6.8s2.3,2.4,2.5,4.8s-2.5,4.9-0.5,6.1s3.3,1.3,4,4s5.1,1.6,7.5,2.7c1.7,0.9,3.3,2,4.7,3.4"/>
		<path style="fill:none;stroke:#000000;stroke-width:1.76;stroke-linecap:round;stroke-linejoin:round;" d="M133.6,71
			c0,0-7.2-1.5-9.7-4.7s-7.8-8.6-9.8-9.7"/>
		<path style="fill:none;stroke:#000000;stroke-width:1.76;stroke-linecap:round;stroke-linejoin:round;" d="M101.1,36.2
			c0,0-7.2,3.2-9.9,0.9c-1.8-1.5-3.5-3.2-5.1-5"/>
		<path style="fill:none;stroke:#000000;stroke-width:1.76;stroke-linecap:round;stroke-linejoin:round;" d="M123.7,59.1
			c2.4,2.9,5.6,5,9.2,6.1c3.6,1.1,7,2.4,10.4,4.1"/>
		<path style="fill:none;stroke:#000000;stroke-width:1.76;stroke-linecap:round;stroke-linejoin:round;" d="M167.4,94.8
			c0,0,6.1-7.5,11.2-2.5s7.4,13.3,7.4,13.3"/>
		<path style="fill:none;stroke:#000000;stroke-width:1.76;stroke-linecap:round;stroke-linejoin:round;" d="M200.6,119.2
			c0,0,10.3,15.1,11.9,21.1s-1,9.2-1,9.2"/>
		<path style="fill:none;stroke:#000000;stroke-width:1.76;stroke-linecap:round;stroke-linejoin:round;" d="M57.5,269.2
			c0,0,1.3,3.5,4.2,4.8s4.5-0.8,7.3,0.2s2.8,2.6,6.9,3.7s8,6.4,8,6.4"/>
		<path style="fill:none;stroke:#000000;stroke-width:1.76;stroke-linecap:round;stroke-linejoin:round;" d="M96.1,291.7
			c0.2-2.6,1.6-5.1,3.8-6.5l3.7-2.2"/>
		<path style="fill:none;stroke:#000000;stroke-width:1.76;stroke-linecap:round;stroke-linejoin:round;" d="M122.3,270.4
			c0,0-6.7-6.3-3.8-9.6c1.4-1.7,3-3.2,4.7-4.6"/>
		<path style="fill:none;stroke:#000000;stroke-width:1.76;stroke-linecap:round;stroke-linejoin:round;" d="M182.4,142.2
			c0,0,4.7-1.6,8.4-0.5c2.4,0.8,4.4,2.4,5.8,4.4"/>
		<path style="fill:none;stroke:#000000;stroke-width:1.76;stroke-linecap:round;stroke-linejoin:round;" d="M204.9,156.6
			c0,0,0.6-4,6.4-4.6l5.8-0.7"/>
		<path style="fill:none;stroke:#000000;stroke-width:1.76;stroke-linecap:round;stroke-linejoin:round;" d="M114.9,159.9
			c6-1.6,4.9-5.5,6.9-7.8s4.8,3.8,4.3-1.5s0.9-6.2,2.8-7.1s5.6-4.4,3.8-6.5s3.7-5.2,1.8-6s0.4-3.5-1.6-4.3"/>
		<path style="fill:none;stroke:#000000;stroke-width:1.76;stroke-linecap:round;stroke-linejoin:round;" d="M54.3,171.6
			c3.5-2.6,6.8-0.1,8-1.7s3.1,2.1,5.4-2.3s8.1,3.4,7.3-4.5s5.9-0.3,4.7-4.6s2.8-3.7,2.1-6.5s1.2-5,0.5-6.1"/>
		<path style="fill:none;stroke:#000000;stroke-width:1.76;stroke-linecap:round;stroke-linejoin:round;" d="M90.4,103.5
			c2.4-2.3,5.1-1.8,3.1-4.2s-0.6-2.4,0.8-3.6S93,95.6,94,91.6s5.3-2.7,3.3-5.1s-4.5-5.6-3.3-6.3c1.2-1,2.3-2.2,3.3-3.4"/>
		<path style="fill:none;stroke:#000000;stroke-width:1.76;stroke-linecap:round;stroke-linejoin:round;" d="M89,48.3l-4.8,1.3
			c-1.4,2.9,1.8,5-0.5,6.1s-1.5-2.6-2.3,1s2.1,3.3-0.7,5.3s-3.7-1.2-2.9,2s3.8,3.2,0.3,4.2s-1.9,5.6-1.9,5.6"/>
		<path style="fill:none;stroke:#000000;stroke-width:1.76;stroke-linecap:round;stroke-linejoin:round;" d="M80.2,252.2
			c0,0,1.4,3.9,8.8,6.2s16.1,4.6,16.1,4.6"/>
	</g>
</g>
</svg>
