<?xml version="1.0" encoding="utf-8"?>
<!-- Generator: Adobe Illustrator 23.0.2, SVG Export Plug-In . SVG Version: 6.00 Build 0)  -->
<svg version="1.1" id="Réteg_1" xmlns="http://www.w3.org/2000/svg" xmlns:xlink="http://www.w3.org/1999/xlink" x="0px" y="0px"
	 viewBox="0 0 144.9 261" style="enable-background:new 0 0 144.9 261;" xml:space="preserve">
<title>cimerkep_31</title>
<g>
	<g>
		<path style="fill:none;stroke:#000000;stroke-width:1.76;stroke-linecap:round;stroke-linejoin:round;" d="M101.7,42.5
			c0,0,1.2-2.7,5.8-9.6s-1.2-15.4-1.2-15.4"/>
		<path style="fill:#009A3D;" d="M89.2,35.6c0,0-7.6,3.8-8-4.5c-0.3-6,6.2-11.2,8.2-15.5c0.8,3,2.4,5.8,4.4,8.2
			c4.4,5.1,4,7.9,2,11.4C93.3,39.8,89.2,35.6,89.2,35.6"/>
		<path style="fill:none;stroke:#000000;stroke-width:1.76;stroke-linecap:round;stroke-linejoin:round;" d="M89.2,35.6
			c0,0-7.6,3.8-8-4.5c-0.3-6,6.2-11.2,8.2-15.5c0.8,3,2.4,5.8,4.4,8.2c4.4,5.1,4,7.9,2,11.4C93.3,39.8,89.2,35.6,89.2,35.6z"/>
		<path style="fill:#009A3D;" d="M89.2,35.6c-0.5-2.6-0.8-5.2-0.6-7.9c0.2-4.9,0.9-12.1,0.9-12.1"/>
		<path style="fill:none;stroke:#000000;stroke-width:1.76;stroke-linecap:round;stroke-linejoin:round;" d="M89.2,35.6
			c-0.5-2.6-0.8-5.2-0.6-7.9c0.2-4.9,0.9-12.1,0.9-12.1"/>
		<path style="fill:#009A3D;" d="M113.1,42.7c0,0,0.3,8.5,7.7,4.8c5.4-2.6,6.8-10.8,9.7-14.7c-3.1,0.7-6.2,0.7-9.3,0
			c-6.6-1.4-8.8,0.3-11,3.8C107.5,41,113.1,42.6,113.1,42.7"/>
		<path style="fill:none;stroke:#000000;stroke-width:1.76;stroke-linecap:round;stroke-linejoin:round;" d="M113.1,42.7
			c0,0,0.3,8.5,7.7,4.8c5.4-2.6,6.8-10.8,9.7-14.7c-3.1,0.7-6.2,0.7-9.3,0c-6.6-1.4-8.8,0.3-11,3.8C107.5,41,113.1,42.7,113.1,42.7z
			"/>
		<path style="fill:none;stroke:#000000;stroke-width:1.76;stroke-linecap:round;stroke-linejoin:round;" d="M130.5,32.8
			c0,0-6,4.1-10.2,6.6c-2.2,1.4-4.6,2.5-7.2,3.2c0,0-2.7-1.1-6.9,3.5s-5,8.4-5,8.4"/>
		<path style="fill:#009A3D;" d="M106.3,18.1c0,0-5.8,4.8-7.7-2.3c-1.4-5.1,3.2-10.8,4.1-14.9c1.3,2.4,3.1,4.6,5.4,6.2
			c4.7,3.5,4.9,6,3.9,9.5C110.7,20.9,106.3,18.1,106.3,18.1"/>
		<path style="fill:none;stroke:#000000;stroke-width:1.76;stroke-linecap:round;stroke-linejoin:round;" d="M106.3,18.1
			c0,0-5.8,4.8-7.7-2.3c-1.4-5.1,3.2-10.8,4.1-14.9c1.3,2.4,3.1,4.6,5.4,6.2c4.7,3.5,4.9,6,3.9,9.5
			C110.7,20.9,106.3,18.1,106.3,18.1z"/>
		<path style="fill:#009A3D;" d="M106.3,18.1c-1-2.1-1.6-4.3-2-6.6c-0.8-4.3-1.6-10.6-1.6-10.6"/>
		<path style="fill:none;stroke:#000000;stroke-width:1.76;stroke-linecap:round;stroke-linejoin:round;" d="M106.3,18.1
			c-1-2.1-1.6-4.3-2-6.6c-0.8-4.3-1.6-10.6-1.6-10.6"/>
		<path style="fill:#009A3D;" d="M114.9,21.8c0,0-8.4-1.5-3.7-8.4c3.4-4.9,11.7-5.2,15.9-7.4c-1.1,2.9-1.6,6.1-1.4,9.2
			c0.4,6.7-1.6,8.7-5.3,10.3C115.7,27.6,114.9,21.8,114.9,21.8"/>
		<path style="fill:none;stroke:#000000;stroke-width:1.76;stroke-linecap:round;stroke-linejoin:round;" d="M114.9,21.8
			c0,0-8.4-1.5-3.7-8.4c3.4-4.9,11.7-5.2,15.9-7.4c-1.1,2.9-1.6,6.1-1.4,9.2c0.4,6.7-1.6,8.7-5.3,10.3
			C115.7,27.7,114.9,21.8,114.9,21.8z"/>
		<path style="fill:none;stroke:#000000;stroke-width:1.76;stroke-linecap:round;stroke-linejoin:round;" d="M127.2,6
			c0,0-4.9,5.3-8,9.1c-1.7,2-3.1,4.2-4.3,6.6c0,0,0,2.8-2.7,6.7c-1.7,2.3-3.7,4.4-6,6.1"/>
		<path style="fill:#009A3D;" d="M89,45.1c0,0-1.7,8.3-8.5,3.4c-4.8-3.5-4.8-11.8-7-16.1c2.9,1.2,6,1.8,9.2,1.7
			c6.7-0.2,8.6,1.8,10.2,5.6C94.9,44.5,89,45.1,89,45.1"/>
		<path style="fill:none;stroke:#000000;stroke-width:1.76;stroke-linecap:round;stroke-linejoin:round;" d="M89,45.1
			c0,0-1.7,8.3-8.5,3.4c-4.8-3.5-4.8-11.8-7-16.1c2.9,1.2,6,1.8,9.2,1.7c6.7-0.2,8.6,1.8,10.2,5.6C94.9,44.5,89,45.1,89,45.1z"/>
		<path style="fill:none;stroke:#000000;stroke-width:1.76;stroke-linecap:round;stroke-linejoin:round;" d="M73.6,32.4
			c0,0,5.2,5.1,8.9,8.3c2,1.8,4.1,3.2,6.5,4.4c0,0,4.6,2.4,5.9,9.5s1.9,11.9,1.9,11.9"/>
		<path style="fill:none;stroke:#000000;stroke-width:1.76;stroke-linecap:round;stroke-linejoin:round;" d="M75.5,116.4
			c0.3-4.5-0.6-8.9-2.6-12.9c-3.3-7.1-4-7.9-4-7.9"/>
		<path style="fill:#009A3D;" d="M68.7,95c0,0-4.4,7.2-9.1,0.3c-3.3-4.9-0.5-12.8-1.1-17.5c2.3,2.1,5,3.7,8,4.7
			c6.4,2.1,7.5,4.6,7.7,8.7C74.4,96.4,68.7,95,68.7,95"/>
		<path style="fill:none;stroke:#000000;stroke-width:1.76;stroke-linecap:round;stroke-linejoin:round;" d="M68.7,95
			c0,0-4.4,7.2-9.1,0.3c-3.3-4.9-0.5-12.8-1.1-17.5c2.3,2.1,5,3.7,8,4.7c6.4,2.1,7.5,4.6,7.7,8.7C74.4,96.4,68.7,95,68.7,95z"/>
		<path style="fill:#009A3D;" d="M68.7,95c-1.8-1.9-3.4-4.1-4.6-6.4c-2.4-4.3-5.6-10.8-5.6-10.8"/>
		<path style="fill:none;stroke:#000000;stroke-width:1.76;stroke-linecap:round;stroke-linejoin:round;" d="M68.7,95
			c-1.8-1.9-3.4-4.1-4.6-6.4c-2.4-4.3-5.6-10.8-5.6-10.8"/>
		<path style="fill:#009A3D;" d="M70.6,100.6c0,0,3.4,5.7-3.1,6.4c-4.6,0.5-8.9-4.3-12.4-5.6c2.3-0.8,4.4-2.1,6.1-3.8
			c3.7-3.6,5.9-3.5,8.8-2.1C73.7,97.2,70.6,100.6,70.6,100.6"/>
		<path style="fill:none;stroke:#000000;stroke-width:1.76;stroke-linecap:round;stroke-linejoin:round;" d="M70.6,100.6
			c0,0,3.4,5.7-3.1,6.4c-4.6,0.5-8.9-4.3-12.4-5.6c2.3-0.8,4.4-2.1,6.1-3.8c3.7-3.6,5.9-3.5,8.8-2.1
			C73.7,97.2,70.6,100.6,70.6,100.6z"/>
		<path style="fill:#009A3D;" d="M70.6,100.6c-2,0.5-4,0.8-6,0.8c-3.8,0.1-9.4-0.1-9.4-0.1"/>
		<path style="fill:none;stroke:#000000;stroke-width:1.76;stroke-linecap:round;stroke-linejoin:round;" d="M70.6,100.6
			c-2,0.5-4,0.8-6,0.8c-3.8,0.1-9.4-0.1-9.4-0.1"/>
		<path style="fill:#A67C52;" d="M143.9,256.5c0.7-6.4-0.6-12.8-3.9-18.4c-5.4-9.2-11.1-17.3-12.3-25.3s-19.2-5.8-27.2-21.5
			s0-27.2-10.7-45.3s-11.9-23.8-3.4-47.6s8.8-6.1,13.4-26.8s-1.5-21.1,1.9-29.2c-1.8,6.4-3.2,12.9-4.2,19.5
			c-1.5,10.4-1.9,14.4-11.5,23c-7.7,6.9-15.1,38.2-11.1,51.4c2.5,8.4,13.8,15,12.7,30.7c-0.7,9.4,0.1,18.8,2.3,28
			c0,0-5-1.1-14.2-13.8s-8.8-6.9-19.2-11.1S38,159,31.5,157.1c-4.1-1.2-8.4-1.8-12.6-1.9c0,0,18,8,24.5,13.4s10.4,7.7,17.7,9.6
			c4.1,1.1,8.8,0.4,11.1,10s18.4,21.1,18.4,21.1s-1.2,3.1-13-1.1s-13.4-5-13.4-5s8.4,10.7,21.5,12.7s15.3-2.3,19.9,4.2
			s11.1,4.6,13.8,13.4s-0.4,23-0.4,23s0.8,2.3,11.1,3.5S143.9,256.5,143.9,256.5"/>
		<path style="fill:none;stroke:#000000;stroke-width:1.76;stroke-linecap:round;stroke-linejoin:round;" d="M143.9,256.5
			c0.7-6.4-0.6-12.8-3.9-18.4c-5.4-9.2-11.1-17.3-12.3-25.3s-19.2-5.8-27.2-21.5s0-27.2-10.7-45.3s-11.9-23.8-3.4-47.6
			s8.8-6.1,13.4-26.8s-1.5-21.1,1.9-29.2c-1.8,6.4-3.2,12.9-4.2,19.5c-1.5,10.4-1.9,14.4-11.5,23c-7.7,6.9-15.1,38.2-11.1,51.4
			c2.5,8.4,13.8,15,12.7,30.7c-0.7,9.4,0.1,18.8,2.3,28c0,0-5-1.1-14.2-13.8s-8.8-6.9-19.2-11.1S38,159,31.5,157.1
			c-4.1-1.2-8.4-1.8-12.6-1.9c0,0,18,8,24.5,13.4s10.4,7.7,17.7,9.6c4.1,1.1,8.8,0.4,11.1,10s18.4,21.1,18.4,21.1s-1.2,3.1-13-1.1
			s-13.4-5-13.4-5s8.4,10.7,21.5,12.7s15.3-2.3,19.9,4.2s11.1,4.6,13.8,13.4s-0.4,23-0.4,23s0.8,2.3,11.1,3.5
			S143.9,256.5,143.9,256.5z"/>
		<path style="fill:#009A3D;" d="M89.7,166.6c0,0,7.4,9.8,13.1-0.8c4.1-7.5-1-18.4-0.9-25.3c-3,3.4-6.7,6.1-10.9,7.8
			c-8.9,3.9-10.1,7.7-9.8,13.6C81.7,169.5,89.7,166.6,89.7,166.6"/>
		<path style="fill:none;stroke:#000000;stroke-width:1.76;stroke-linecap:round;stroke-linejoin:round;" d="M89.7,166.6
			c0,0,7.4,9.8,13.1-0.8c4.1-7.5-1-18.4-0.9-25.3c-3,3.4-6.7,6.1-10.9,7.8c-8.9,3.9-10.1,7.7-9.8,13.6
			C81.7,169.5,89.7,166.6,89.7,166.6z"/>
		<path style="fill:#009A3D;" d="M89.7,166.6c2.3-3,4.3-6.3,5.7-9.8c2.9-6.5,6.5-16.3,6.5-16.3"/>
		<path style="fill:none;stroke:#000000;stroke-width:1.76;stroke-linecap:round;stroke-linejoin:round;" d="M89.7,166.6
			c2.3-3,4.3-6.3,5.7-9.8c2.9-6.5,6.5-16.3,6.5-16.3"/>
		<path style="fill:#009A3D;" d="M86.6,167.8c0,0,7.1-1.1,3.3-7c-2.7-4.3-9.8-4.7-13.3-6.7c0.9,2.5,1.3,5.2,1,7.8
			c-0.5,5.7,1.1,7.4,4.3,8.9C85.8,172.7,86.6,167.8,86.6,167.8"/>
		<path style="fill:none;stroke:#000000;stroke-width:1.76;stroke-linecap:round;stroke-linejoin:round;" d="M86.6,167.8
			c0,0,7.1-1.1,3.3-7c-2.7-4.3-9.8-4.7-13.3-6.7c0.9,2.5,1.3,5.2,1,7.8c-0.5,5.7,1.1,7.4,4.3,8.9C85.8,172.7,86.6,167.8,86.6,167.8z
			"/>
		<path style="fill:#009A3D;" d="M86.6,167.8c-0.9-2-2-4-3.4-5.7c-2.5-3.3-6.6-7.9-6.6-7.9"/>
		<path style="fill:none;stroke:#000000;stroke-width:1.76;stroke-linecap:round;stroke-linejoin:round;" d="M86.6,167.8
			c-0.9-2-2-4-3.4-5.7c-2.5-3.3-6.6-7.9-6.6-7.9"/>
		<path style="fill:#009A3D;" d="M62.6,203.5c0,0,4.7-5.5-2.1-7.4c-4.8-1.4-10.4,2.9-14.4,3.7c2.3,1.3,4.4,3.1,5.9,5.3
			c3.3,4.6,5.7,4.8,9,3.9C65.3,207.8,62.6,203.5,62.6,203.5"/>
		<path style="fill:none;stroke:#000000;stroke-width:1.76;stroke-linecap:round;stroke-linejoin:round;" d="M62.6,203.5
			c0,0,4.7-5.5-2.1-7.4c-4.8-1.4-10.4,2.9-14.4,3.7c2.3,1.3,4.4,3.1,5.9,5.3c3.3,4.6,5.7,4.8,9,3.9
			C65.2,207.8,62.6,203.5,62.6,203.5z"/>
		<path style="fill:#009A3D;" d="M62.6,203.5c-2-0.9-4.1-1.6-6.3-2c-4.1-0.8-10.2-1.7-10.2-1.7"/>
		<path style="fill:none;stroke:#000000;stroke-width:1.76;stroke-linecap:round;stroke-linejoin:round;" d="M62.6,203.5
			c-2-0.9-4.1-1.6-6.3-2c-4.1-0.8-10.2-1.7-10.2-1.7"/>
		<path style="fill:#009A3D;" d="M70.1,206.3c0,0,7.1,1.1,5.2-5.7c-1.3-4.9-7.9-7.4-10.7-10.3c0.1,2.7-0.4,5.3-1.4,7.7
			c-2.2,5.3-1.1,7.4,1.4,9.7C67.9,210.8,70.1,206.3,70.1,206.3"/>
		<path style="fill:none;stroke:#000000;stroke-width:1.76;stroke-linecap:round;stroke-linejoin:round;" d="M70.1,206.3
			c0,0,7.1,1.1,5.2-5.7c-1.3-4.9-7.9-7.4-10.7-10.3c0.1,2.7-0.4,5.3-1.4,7.7c-2.2,5.3-1.1,7.4,1.4,9.7
			C67.9,210.8,70.1,206.3,70.1,206.3z"/>
		<path style="fill:#009A3D;" d="M70.1,206.3c-0.2-2.2-0.8-4.4-1.6-6.5c-1.4-3.9-3.9-9.5-3.9-9.5"/>
		<path style="fill:none;stroke:#000000;stroke-width:1.76;stroke-linecap:round;stroke-linejoin:round;" d="M70.1,206.3
			c-0.2-2.2-0.8-4.4-1.6-6.5c-1.4-3.9-3.9-9.5-3.9-9.5"/>
		<path style="fill:#009A3D;" d="M17.3,158c0,0-1.8,8.9-9,3.7c-5.2-3.7-5.2-12.6-7.4-17.1c3.1,1.3,6.4,1.9,9.8,1.8
			c7.2-0.3,9.2,1.9,10.8,6C23.6,157.4,17.3,158.1,17.3,158"/>
		<path style="fill:none;stroke:#000000;stroke-width:1.76;stroke-linecap:round;stroke-linejoin:round;" d="M17.3,158
			c0,0-1.8,8.9-9,3.7c-5.2-3.7-5.2-12.6-7.4-17.1c3.1,1.3,6.4,1.9,9.8,1.8c7.2-0.3,9.2,1.9,10.8,6C23.6,157.4,17.3,158,17.3,158z"/>
		<path style="fill:#009A3D;" d="M17.3,158c-2.5-1.3-4.8-2.8-6.9-4.7c-4-3.4-9.5-8.8-9.5-8.8"/>
		<path style="fill:none;stroke:#000000;stroke-width:1.76;stroke-linecap:round;stroke-linejoin:round;" d="M17.3,158
			c-2.5-1.3-4.8-2.8-6.9-4.7c-4-3.4-9.5-8.8-9.5-8.8"/>
		<path style="fill:#009A3D;" d="M29.8,162.2c0,0,10.4,0.9,7-8.8c-2.5-6.9-12.3-9.8-16.6-13.8c0.4,3.8,0,7.7-1.3,11.4
			c-2.6,7.9-0.9,10.8,3.1,14C27,169,29.8,162.3,29.8,162.2"/>
		<path style="fill:none;stroke:#000000;stroke-width:1.76;stroke-linecap:round;stroke-linejoin:round;" d="M29.8,162.2
			c0,0,10.4,0.9,7-8.8c-2.5-6.9-12.3-9.8-16.6-13.8c0.4,3.8,0,7.7-1.3,11.4c-2.6,7.9-0.9,10.8,3.1,14C27,169,29.8,162.2,29.8,162.2z
			"/>
		<path style="fill:#009A3D;" d="M29.8,162.2c-0.6-3.2-1.6-6.3-3-9.2c-2.5-5.5-6.7-13.4-6.7-13.4"/>
		<path style="fill:none;stroke:#000000;stroke-width:1.76;stroke-linecap:round;stroke-linejoin:round;" d="M29.8,162.2
			c-0.6-3.2-1.6-6.3-3-9.2c-2.5-5.5-6.7-13.4-6.7-13.4"/>
		<path style="fill:none;stroke:#000000;stroke-width:1.76;stroke-linecap:round;stroke-linejoin:round;" d="M87.5,200
			c0,0,3.8,6.4,9.2,8.2s-2.3,4.6-2.3,4.6"/>
		<path style="fill:none;stroke:#000000;stroke-width:1.76;stroke-linecap:round;stroke-linejoin:round;" d="M105.1,212.8
			c0,0,0.5,3.8,5.9,6.1s9.2,4.9,13,12s0.5,22.8,0.5,22.8"/>
		<path style="fill:none;stroke:#000000;stroke-width:1.76;stroke-linecap:round;stroke-linejoin:round;" d="M91.1,172.1
			c0,0,0.5,8.2,1.8,15.3s1.5,10.5,1.5,10.5"/>
		<path style="fill:none;stroke:#000000;stroke-width:1.76;stroke-linecap:round;stroke-linejoin:round;" d="M84.9,146.6
			c0,0-5.9-6.4-7.2-13.3"/>
	</g>
</g>
</svg>
