<?xml version="1.0" encoding="utf-8"?>
<!-- Generator: Adobe Illustrator 23.0.2, SVG Export Plug-In . SVG Version: 6.00 Build 0)  -->
<svg version="1.1" id="Réteg_1" xmlns="http://www.w3.org/2000/svg" xmlns:xlink="http://www.w3.org/1999/xlink" x="0px" y="0px"
	 viewBox="0 0 234.1 309.5" style="enable-background:new 0 0 234.1 309.5;" xml:space="preserve">
<title>cimerkep_06</title>
<g>
	<g>
		<path style="fill-rule:evenodd;clip-rule:evenodd;fill:#FFD200;" d="M225,148.8c-2.5,0.4-6.9,1.4-6.9,1.4s-8.1,5.2-8.1,4
			s1.3-3.4,3.4-6.1s3.8-7.5,5.4-8.2s1.5-4.6-1.3-4s-4.4,2.3-5.9,5.9s-5.4,7.5-5.9,6s-0.8-7.3-0.6-8.6s4.8-4.2,6-5.2s-1-3.8-4.4-2.5
			s-7.6,4.7-7.6,7.5s1.7,10.5,1.7,10.5l-2.1,4.2c0,0-6.3,5.8-9.8,4.8s-10.6-3.4-10.6-3.4l1-0.6c1-0.6,1.3-2.9,1.3-2.9l-6.7,0.2
			c1.7-0.8,3.2-1.8,4.6-3.1c2.1-1.9,1.3-6.7,1.3-6.7c-1.2,1.6-2.9,2.9-4.8,3.6c-2.9,1-6.1,1.1-8.3,0.2s-4.8-6.1-4.8-6.1
			s0.6-0.8,2.1-2.7s1.3-7.1,1.3-7.1c0.7-0.2,1.4-0.4,2.1-0.4c1.1,0,3.8-1.1,5.6-5.6s8-4.4,9-5.4s7.1,0.8,7.1,0.8
			c-0.1-1.1-0.6-2.1-1.3-2.9c-1.4-1.7-4.8-1.7-4.8-1.7c0.1-1.1,0.7-2.2,1.5-2.9c0.9-0.9,1.4-2.2,1.3-3.4l-3.8,0.4c0,0,1.7-5.8,4-8.3
			s7.5-12.5,10.2-13s4.8,3.3,5.6,6s5.4,4.6,5.4,4.6s-1.7-4.8,0-4.6c3.3,0.6,6.7,0,9.6-1.6c4.8-2.5,2.3-4.6,0.4-3.8
			s-5.8,0.8-10.4-0.6s-7.5-6.3-7.5-8.2s0.2-11.5,1.3-13.8s6.6-7.2,8.8-8.2c2-1,5.4-3.7,1.7-4.6s-4.8,1.5-8.1,3.5
			c-2.3,1.4-4.4,3-6.3,4.8c0,0-1.5-4.2-1.3-6.3c0.3-2,0.8-4,1.5-5.9c0.3-1.3,0.5-2.6,0.6-4c0-1.9-5.8,1.2-5.8,1.2s-2.3,10.6-2.7,9.6
			s-1.9-6-2.6-8.4c-0.4-1.7-5.8-2.3-4.6,3.8c0.5,2.6,6.6,14.3,7.9,17.6s-0.8,15.5-2.7,20.9S179,99.6,179,99.6l0.4-1.5
			c0.4-1.5-0.8-3.8-0.8-3.8l-3.8,4.4c0,0-0.2-2.7-0.2-4.4s-3.4-5-3.4-5c-0.5,2.1-1.2,4.1-2.1,6c-1.3,2.5-4.8,4-4.8,4l-1.1-2.3
			c-1.1-2.3-5.4-6.1-5.4-6.1s3.3-0.4,5.2-0.6s2.7-4.4,2.7-4.4c-1.9,0.8-4,1.2-6.1,1.1c-2.8-0.1-5.6-0.8-8.1-1.9c0,0,2.9-1.3,4.9-2.1
			s2.5-4.6,2.5-4.6s-1.7,1.3-6.1,1.3c-2.3,0.1-4.6-0.4-6.7-1.3c1.1-0.5,2.3-0.9,3.4-1.2c1.7-0.4,2.9-3.6,1.3-3.6s-10,0.6-13.4-1.9
			s-4-8.8-4-8.8c2.6-1,5.3-1.8,8.1-2.5c2.5-0.4,6.7,5.8,9.8,4.6s-1-6.3-1-6.3c2.4,0.6,4.8,1,7.3,1.2c2.7,0,1.1-2.9-0.2-5.4
			s-9.2-7.1-9.2-7.1s7.3-0.2,9.4,0.8s5.8,2.5,6.3,0.6s-1.1-8.3-6.7-12.1s-11-1.7-12.7-1.9s0.2-2.5-3.5-4.4s-15.5,0.4-15.5,0.4
			c-1.1-3.6-2.8-7-5.2-10c-4-5.2-11.3-9-11.3-9c0.1,1.8-0.1,3.6-0.6,5.4c-0.8,3.6,1,9.2,1,9.2c-1.8-1.2-3.3-2.7-4.6-4.4
			c-2.3-3.1-8.8-7.7-8.8-7.7s-0.2,4,1.2,14s8.6,10,8.6,10c0.1,1.1,0.4,2.2,0.8,3.3c0.6,1.3,2.1,4.2,2.1,4.2s-4.8,7.1-3.8,15.1
			c2.4,20.1-2.1,19-3.4,15c0,0-4.8-30.1-18-36.8s-17.6-5-31.3-11.3S27.5,7.4,27.5,7.4s0.6,5.7,2.5,9.6s6.5,9,6.5,9
			c-3.5-1.7-6.9-3.6-10.2-5.8C21.2,16.8,8.9,0.9,8.9,0.9s3.8,13.4,7.9,19.4s21.9,20.5,21.9,20.5s-1.2-1-9-5.6S0.9,18.3,0.9,18.3
			s4.8,12.3,12.8,18.6S39.6,54,39.6,54s-2.3,0-10.7-2.1S1.6,42.7,1.6,42.7c4.9,5.4,10.3,10.3,16.1,14.6C27,64,44.2,69.3,44.2,69.3
			c-3-0.5-6.1-0.8-9.2-0.8c-5,0-27-1-27-1c4,3.7,8.9,6.4,14.2,7.7C31,77.4,50,79.9,50,79.9s-2.9,0.6-9.6,2.3s-18.2,8.2-18.2,8.2
			s2.3,3.8,9.4,4.2s24.7-2.3,24.7-2.3s-4.8,1-12.5,5.4s-15,15.2-15,15.2c5.1,0.4,10.1,0,15.1-1.1c8.5-1.9,19.4-6.7,19.4-6.7
			s-4,3.3-10.5,9s-12.1,18-12.1,18s3.6,0,10.2-4s20.5-11.7,20.5-11.7s-6,3.3-13,11.9c-4.2,4.9-6.8,11-7.5,17.4c0,0,2.9,0.6,8.4-3.1
			S76.5,127,76.5,127s-3.4,5.8-6.1,9.8S65,150.4,65,150.4c2.7-0.8,5.3-1.7,7.9-2.9c4.8-2.1,10.2-10.7,10.2-10.7s-1.9,4-4.6,9.4
			s-1.4,9.2-1.4,9.2s3.1-0.6,8-4.2s9.6-10.4,9.6-10.4c-1.6,2.9-3,5.8-4.2,8.8c-1.5,4,0.4,4.8,0.4,4.8s-1.7,0.6-9.2,6.9
			s-9.6,15.5-13.2,23s-10,21.5-21.5,23.4s-16.9-8-19.4-16.5s3.6-17.4,3.6-17.4s-0.8-1.3,4,1.5s3.5,6.9,3.5,6.9s2.7-2.5,2.3-7.7
			s-7.6-9.6-7.6-9.6c1.6-8.4,1.5-17-0.4-25.3c-3.1-14.2-16.5-21.9-19.9-28s-1-10.6,2.9-14.6s1.9-8,1.9-8c-1.4,0.4-2.6,1-3.8,1.7
			c-1.7,1.2-9.8,5.4-10.2,15.3s10.2,19.9,10.2,19.9s-5,3.5-5,9.2s3.8,7.9,3.8,7.9v-4.6c0-3.3,4.6-5.6,4.6-5.6s3.3-1.3,8.4,11.1
			s0,14.4-4.2,29.1s0.4,25.5,0.4,25.5s-1.9,1.9-4.6,8.2s2.3,7.9,2.3,7.9l0.2-2.3c0.2-2.3,4.2-4.2,4.2-4.2s5.4,6.5,19.2,9.2
			s21.7-10,21.7-10s-0.8,4,0.4,6.7s3.3,5.9,6.7,11.1s1.2,9.4-1.9,12.5s-5.8,4.6-10.7,2.9s-6.1-8.6-6.1-8.6l-0.8,4.4
			c-0.8,4.4,3.1,6.3,2.9,9.2s0.8,9.4-1,11.5s-0.6,7.1,0,10.2c0.3,2.9,0.4,5.8,0.2,8.6c1.1-1.3,2.1-2.6,3.1-4
			c0.9-1.7,1.6-3.5,2.1-5.4l0.8,2.7c0.8,2.7-1.2,5.6-1.5,10s3.5,8.4,3.5,8.4c0.1-1.6,0.7-3.2,1.7-4.4c1.2-1.7,2.2-3.6,2.7-5.6
			c0,0,1.2,3.1,0,8.1s4.2,8.4,4.2,8.4v-2.5c0-1.5,2.5-5.4,2.5-5.4c0.2,3.7,1,7.3,2.3,10.7c2.1,5,5.4,3.3,5.4,3.3
			c-0.8-1.1-1.2-2.3-1.3-3.6c-0.1-1.4-0.4-2.7-0.9-4c0,0,2.1,1.7,5.8,5.2s7.9,1.5,9.6,1.5s4.8-1.3,6.1-0.4s3.4,4.2,3.4,4.2l3.5-2.7
			c-0.1-0.9-0.3-1.7-0.6-2.5c-0.8-1.9-1.7-3.8-2.7-5.6c1.4,0,2.7,0.2,4,0.6c1.3,0.5,2.5,1.2,3.7,1.9l2.5-3.3c-0.4-1.5-1.2-2.9-2.3-4
			c-1.7-1.5-5.6-1.7-5.6-1.7l1.2-0.8c1.7-0.8,3.5-1.5,5.4-2.1v-3.5c-2.2-0.6-4.5-0.8-6.7-0.6c-3.5,0.4-5,4.8-8.8,5.8
			s-6.1-6.5-12-10.9s-11.7-14.4-11.1-16.7s9.2-3.8,13.2-5.6S95,245,95,245s1.2,2.7,1.7,4.4s4.4,1.3,4.4,1.3s0.2-2.1,0.2-4.6
			c0.1-1.8,0.7-3.6,1.6-5.1c0.5,1,0.8,2.1,0.8,3.3c0,1.1,0.3,2.1,1,2.9c0,0,2.1-4.2,2.1-7.5s-3.6-8.6-3.3-13.4s-0.6-13.4-0.6-13.4
			s2.1-0.6,10-0.8c4.2,0,8.5-0.7,12.5-2.1c0,0,1.9,9,0.8,11.9c-0.6,1.3-1.4,2.6-2.4,3.7c-1.2,0.9-2.7,1-4,0.3
			c-4.6-2.1-5.9-4.8-5.9-4.8s0.6,5.2,3.3,7.5c1,0.8,2.2,1.4,3.5,1.8c-0.3,0.6-0.5,1.2-0.6,1.9c-0.6,3.4,3.1,7.7,3.1,7.7
			s0.6-0.9,1.5-2.9c0.7-1.2,1.9-2,3.3-2.1c0,0-0.4,3.3-0.6,8.4s5.2,7.7,5.2,7.7v-4.6c0-2.5,2.7-5,2.7-5c0.4,2.5,0.7,5.1,0.8,7.7
			c0.2,4.4,4.4,6.7,4.4,6.7c-0.1-1.1-0.2-2.3-0.2-3.4c0.1-1.9,0.5-3.8,1.1-5.6c0.9,2.9,2.1,5.7,3.4,8.4c2.1,4,8.3,2.5,8.3,2.5
			c-0.6-1-1.2-2-1.9-2.9c-0.7-1.1-1-2.4-0.8-3.6c2.3,1.6,4.5,3.4,6.5,5.4c2.5,2.5,6.3,1.5,6.3,1.5l-2.3-5.2c2.5,0.3,5,0.5,7.5,0.6
			c3.4,0,4.4-3.4,6.9-5.2s7.6-1.6,7.6-1.6l2.3-3.8c-0.7-1.1-1.7-1.9-2.9-2.2c-2-0.4-4.5-0.6-4.5-0.6c0.9-0.9,2-1.6,3.2-2
			c1-0.5,2.2-0.8,3.3-0.8c0,0,2.3-4.2-0.6-5.6s-4.6,0.8-4.6-1s3.8-3.1,3.8-3.1l-0.8-4c-2.2-0.2-4.5,0.2-6.5,1
			c-3.1,1.4-1.7,5.2-3.8,7.1s-7.1,8.2-11.3,7.3s-16.9-14.2-16.9-15.7s2.3-4.6,4.2-9.6c1.1-3.1,1.3-6.4,0.6-9.6
			c0.5,0.6,1.1,1.2,1.7,1.7c1.1,0.8,2.3,1.3,3.6,1.7l-1-5.9c1,0.8,1.9,1.7,2.7,2.7c1.5,1.9,4.2,0.2,4.2,0.2l-2.5-2.5
			c-2.1-2.1-1-4.4-2.5-7.9s-11.5-7.9-15.1-9.6s-14-5.4-14-5.4s1.9-2.9,4.8-2.7s10.2-1.9,13.2-4.6c1.8-1.6,2.7-3.9,2.5-6.3
			c0,0,5.2-0.6,7.9,1.1s5.2,6.1,8.6,8.3c2.3,1.3,5,1.7,7.7,1.3c-1.1-1.1-2.3-2.1-3.6-2.9c-2.1-1.1-3.1-7.1-3.1-7.1s2.5,0.2,3.4,1.3
			s3.8,1.7,3.8,1.7l-0.8-5.2c1.7,1.3,3.3,2.7,4.8,4.2c1.5,1.7,3.7,2.6,5.9,2.5c0,0-0.8-1.9-2.1-5.2s-0.8-5-0.8-5
			c2.5,1,5.1,1.7,7.7,2.3c2.7,0.4,8.6,0.8,9.6,3.6s-2.1,7.1-2.9,10.4s1.7,6.7,1.7,6.7l1.5-4.2c0,0,1,2.5,1.7,3.8
			c0.6,1.1,1.6,4.1,6,3.9c2.1-0.1,0.5-4.1,0.5-4.1s-3-3.6-3.6-5.7s2.6-8.9,4.5-12s9.6-8,12.7-9.8c2.8-1.5,5.9-2,9-1.6
			c1.9,0.4,1.1-5.6-1.4-5.2"/>
		<path style="fill:none;stroke:#000000;stroke-width:1.76;stroke-linecap:round;stroke-linejoin:round;" d="M225,148.8
			c-2.5,0.4-6.9,1.4-6.9,1.4s-8.1,5.2-8.1,4s1.3-3.4,3.4-6.1s3.8-7.5,5.4-8.2s1.5-4.6-1.3-4s-4.4,2.3-5.9,5.9s-5.4,7.5-5.9,6
			s-0.8-7.3-0.6-8.6s4.8-4.2,6-5.2s-1-3.8-4.4-2.5s-7.6,4.7-7.6,7.5s1.7,10.5,1.7,10.5l-2.1,4.2c0,0-6.3,5.8-9.8,4.8
			s-10.6-3.4-10.6-3.4l1-0.6c1-0.6,1.3-2.9,1.3-2.9l-6.7,0.2c1.7-0.8,3.2-1.8,4.6-3.1c2.1-1.9,1.3-6.7,1.3-6.7
			c-1.2,1.6-2.9,2.9-4.8,3.6c-2.9,1-6.1,1.1-8.3,0.2s-4.8-6.1-4.8-6.1s0.6-0.8,2.1-2.7s1.3-7.1,1.3-7.1c0.7-0.2,1.4-0.4,2.1-0.4
			c1.1,0,3.8-1.1,5.6-5.6s8-4.4,9-5.4s7.1,0.8,7.1,0.8c-0.1-1.1-0.6-2.1-1.3-2.9c-1.4-1.7-4.8-1.7-4.8-1.7c0.1-1.1,0.7-2.2,1.5-2.9
			c0.9-0.9,1.4-2.2,1.3-3.4l-3.8,0.4c0,0,1.7-5.8,4-8.3s7.5-12.5,10.2-13s4.8,3.3,5.6,6s5.4,4.6,5.4,4.6s-1.7-4.8,0-4.6
			c3.3,0.6,6.7,0,9.6-1.6c4.8-2.5,2.3-4.6,0.4-3.8s-5.8,0.8-10.4-0.6s-7.5-6.3-7.5-8.2s0.2-11.5,1.3-13.8s6.6-7.2,8.8-8.2
			c2-1,5.4-3.7,1.7-4.6s-4.8,1.5-8.1,3.5c-2.3,1.4-4.4,3-6.3,4.8c0,0-1.5-4.2-1.3-6.3c0.3-2,0.8-4,1.5-5.9c0.3-1.3,0.5-2.6,0.6-4
			c0-1.9-5.8,1.2-5.8,1.2s-2.3,10.6-2.7,9.6s-1.9-6-2.6-8.4c-0.4-1.7-5.8-2.3-4.6,3.8c0.5,2.6,6.6,14.3,7.9,17.6s-0.8,15.5-2.7,20.9
			S179,99.6,179,99.6l0.4-1.5c0.4-1.5-0.8-3.8-0.8-3.8l-3.8,4.4c0,0-0.2-2.7-0.2-4.4s-3.4-5-3.4-5c-0.5,2.1-1.2,4.1-2.1,6
			c-1.3,2.5-4.8,4-4.8,4l-1.1-2.3c-1.1-2.3-5.4-6.1-5.4-6.1s3.3-0.4,5.2-0.6s2.7-4.4,2.7-4.4c-1.9,0.8-4,1.2-6.1,1.1
			c-2.8-0.1-5.6-0.8-8.1-1.9c0,0,2.9-1.3,4.9-2.1s2.5-4.6,2.5-4.6s-1.7,1.3-6.1,1.3c-2.3,0.1-4.6-0.4-6.7-1.3
			c1.1-0.5,2.3-0.9,3.4-1.2c1.7-0.4,2.9-3.6,1.3-3.6s-10,0.6-13.4-1.9s-4-8.8-4-8.8c2.6-1,5.3-1.8,8.1-2.5c2.5-0.4,6.7,5.8,9.8,4.6
			s-1-6.3-1-6.3c2.4,0.6,4.8,1,7.3,1.2c2.7,0,1.1-2.9-0.2-5.4s-9.2-7.1-9.2-7.1s7.3-0.2,9.4,0.8s5.8,2.5,6.3,0.6s-1.1-8.3-6.7-12.1
			s-11-1.7-12.7-1.9s0.2-2.5-3.5-4.4s-15.5,0.4-15.5,0.4c-1.1-3.6-2.8-7-5.2-10c-4-5.2-11.3-9-11.3-9c0.1,1.8-0.1,3.6-0.6,5.4
			c-0.8,3.6,1,9.2,1,9.2c-1.8-1.2-3.3-2.7-4.6-4.4c-2.3-3.1-8.8-7.7-8.8-7.7s-0.2,4,1.2,14s8.6,10,8.6,10c0.1,1.1,0.4,2.2,0.8,3.3
			c0.6,1.3,2.1,4.2,2.1,4.2s-4.8,7.1-3.8,15.1c2.4,20.1-2.1,19-3.4,15c0,0-4.8-30.1-18-36.8s-17.6-5-31.3-11.3S27.5,7.4,27.5,7.4
			s0.6,5.7,2.5,9.6s6.5,9,6.5,9c-3.5-1.7-6.9-3.6-10.2-5.8C21.2,16.8,8.9,0.9,8.9,0.9s3.8,13.4,7.9,19.4s21.9,20.5,21.9,20.5
			s-1.2-1-9-5.6S0.9,18.3,0.9,18.3s4.8,12.3,12.8,18.6S39.6,54,39.6,54s-2.3,0-10.7-2.1S1.6,42.7,1.6,42.7
			c4.9,5.4,10.3,10.3,16.1,14.6C27,64,44.2,69.3,44.2,69.3c-3-0.5-6.1-0.8-9.2-0.8c-5,0-27-1-27-1c4,3.7,8.9,6.4,14.2,7.7
			C31,77.4,50,79.9,50,79.9s-2.9,0.6-9.6,2.3s-18.2,8.2-18.2,8.2s2.3,3.8,9.4,4.2s24.7-2.3,24.7-2.3s-4.8,1-12.5,5.4
			s-15,15.2-15,15.2c5.1,0.4,10.1,0,15.1-1.1c8.5-1.9,19.4-6.7,19.4-6.7s-4,3.3-10.5,9s-12.1,18-12.1,18s3.6,0,10.2-4
			s20.5-11.7,20.5-11.7s-6,3.3-13,11.9c-4.2,4.9-6.8,11-7.5,17.4c0,0,2.9,0.6,8.4-3.1S76.5,127,76.5,127s-3.4,5.8-6.1,9.8
			S65,150.4,65,150.4c2.7-0.8,5.3-1.7,7.9-2.9c4.8-2.1,10.2-10.7,10.2-10.7s-1.9,4-4.6,9.4s-1.4,9.2-1.4,9.2s3.1-0.6,8-4.2
			s9.6-10.4,9.6-10.4c-1.6,2.9-3,5.8-4.2,8.8c-1.5,4,0.4,4.8,0.4,4.8s-1.7,0.6-9.2,6.9s-9.6,15.5-13.2,23s-10,21.5-21.5,23.4
			s-16.9-8-19.4-16.5s3.6-17.4,3.6-17.4s-0.8-1.3,4,1.5s3.5,6.9,3.5,6.9s2.7-2.5,2.3-7.7s-7.6-9.6-7.6-9.6c1.6-8.4,1.5-17-0.4-25.3
			c-3.1-14.2-16.5-21.9-19.9-28s-1-10.6,2.9-14.6s1.9-8,1.9-8c-1.4,0.4-2.6,1-3.8,1.7c-1.7,1.2-9.8,5.4-10.2,15.3
			s10.2,19.9,10.2,19.9s-5,3.5-5,9.2s3.8,7.9,3.8,7.9v-4.6c0-3.3,4.6-5.6,4.6-5.6s3.3-1.3,8.4,11.1s0,14.4-4.2,29.1
			s0.4,25.5,0.4,25.5s-1.9,1.9-4.6,8.2s2.3,7.9,2.3,7.9l0.2-2.3c0.2-2.3,4.2-4.2,4.2-4.2s5.4,6.5,19.2,9.2s21.7-10,21.7-10
			s-0.8,4,0.4,6.7s3.3,5.9,6.7,11.1s1.2,9.4-1.9,12.5s-5.8,4.6-10.7,2.9s-6.1-8.6-6.1-8.6l-0.8,4.4c-0.8,4.4,3.1,6.3,2.9,9.2
			s0.8,9.4-1,11.5s-0.6,7.1,0,10.2c0.3,2.9,0.4,5.8,0.2,8.6c1.1-1.3,2.1-2.6,3.1-4c0.9-1.7,1.6-3.5,2.1-5.4l0.8,2.7
			c0.8,2.7-1.2,5.6-1.5,10s3.5,8.4,3.5,8.4c0.1-1.6,0.7-3.2,1.7-4.4c1.2-1.7,2.2-3.6,2.7-5.6c0,0,1.2,3.1,0,8.1s4.2,8.4,4.2,8.4
			v-2.5c0-1.5,2.5-5.4,2.5-5.4c0.2,3.7,1,7.3,2.3,10.7c2.1,5,5.4,3.3,5.4,3.3c-0.8-1.1-1.2-2.3-1.3-3.6c-0.1-1.4-0.4-2.7-0.9-4
			c0,0,2.1,1.7,5.8,5.2s7.9,1.5,9.6,1.5s4.8-1.3,6.1-0.4s3.4,4.2,3.4,4.2l3.5-2.7c-0.1-0.9-0.3-1.7-0.6-2.5
			c-0.8-1.9-1.7-3.8-2.7-5.6c1.4,0,2.7,0.2,4,0.6c1.3,0.5,2.5,1.2,3.7,1.9l2.5-3.3c-0.4-1.5-1.2-2.9-2.3-4c-1.7-1.5-5.6-1.7-5.6-1.7
			l1.2-0.8c1.7-0.8,3.5-1.5,5.4-2.1v-3.5c-2.2-0.6-4.5-0.8-6.7-0.6c-3.5,0.4-5,4.8-8.8,5.8s-6.1-6.5-12-10.9s-11.7-14.4-11.1-16.7
			s9.2-3.8,13.2-5.6S95,245,95,245s1.2,2.7,1.7,4.4s4.4,1.3,4.4,1.3s0.2-2.1,0.2-4.6c0.1-1.8,0.7-3.6,1.6-5.1c0.5,1,0.8,2.1,0.8,3.3
			c0,1.1,0.3,2.1,1,2.9c0,0,2.1-4.2,2.1-7.5s-3.6-8.6-3.3-13.4s-0.6-13.4-0.6-13.4s2.1-0.6,10-0.8c4.2,0,8.5-0.7,12.5-2.1
			c0,0,1.9,9,0.8,11.9c-0.6,1.3-1.4,2.6-2.4,3.7c-1.2,0.9-2.7,1-4,0.3c-4.6-2.1-5.9-4.8-5.9-4.8s0.6,5.2,3.3,7.5
			c1,0.8,2.2,1.4,3.5,1.8c-0.3,0.6-0.5,1.2-0.6,1.9c-0.6,3.4,3.1,7.7,3.1,7.7s0.6-0.9,1.5-2.9c0.7-1.2,1.9-2,3.3-2.1
			c0,0-0.4,3.3-0.6,8.4s5.2,7.7,5.2,7.7v-4.6c0-2.5,2.7-5,2.7-5c0.4,2.5,0.7,5.1,0.8,7.7c0.2,4.4,4.4,6.7,4.4,6.7
			c-0.1-1.1-0.2-2.3-0.2-3.4c0.1-1.9,0.5-3.8,1.1-5.6c0.9,2.9,2.1,5.7,3.4,8.4c2.1,4,8.3,2.5,8.3,2.5c-0.6-1-1.2-2-1.9-2.9
			c-0.7-1.1-1-2.4-0.8-3.6c2.3,1.6,4.5,3.4,6.5,5.4c2.5,2.5,6.3,1.5,6.3,1.5l-2.3-5.2c2.5,0.3,5,0.5,7.5,0.6c3.4,0,4.4-3.4,6.9-5.2
			s7.6-1.6,7.6-1.6l2.3-3.8c-0.7-1.1-1.7-1.9-2.9-2.2c-2-0.4-4.5-0.6-4.5-0.6c0.9-0.9,2-1.6,3.2-2c1-0.5,2.2-0.8,3.3-0.8
			c0,0,2.3-4.2-0.6-5.6s-4.6,0.8-4.6-1s3.8-3.1,3.8-3.1l-0.8-4c-2.2-0.2-4.5,0.2-6.5,1c-3.1,1.4-1.7,5.2-3.8,7.1s-7.1,8.2-11.3,7.3
			s-16.9-14.2-16.9-15.7s2.3-4.6,4.2-9.6c1.1-3.1,1.3-6.4,0.6-9.6c0.5,0.6,1.1,1.2,1.7,1.7c1.1,0.8,2.3,1.3,3.6,1.7l-1-5.9
			c1,0.8,1.9,1.7,2.7,2.7c1.5,1.9,4.2,0.2,4.2,0.2l-2.5-2.5c-2.1-2.1-1-4.4-2.5-7.9s-11.5-7.9-15.1-9.6s-14-5.4-14-5.4
			s1.9-2.9,4.8-2.7s10.2-1.9,13.2-4.6c1.8-1.6,2.7-3.9,2.5-6.3c0,0,5.2-0.6,7.9,1.1s5.2,6.1,8.6,8.3c2.3,1.3,5,1.7,7.7,1.3
			c-1.1-1.1-2.3-2.1-3.6-2.9c-2.1-1.1-3.1-7.1-3.1-7.1s2.5,0.2,3.4,1.3s3.8,1.7,3.8,1.7l-0.8-5.2c1.7,1.3,3.3,2.7,4.8,4.2
			c1.5,1.7,3.7,2.6,5.9,2.5c0,0-0.8-1.9-2.1-5.2s-0.8-5-0.8-5c2.5,1,5.1,1.7,7.7,2.3c2.7,0.4,8.6,0.8,9.6,3.6s-2.1,7.1-2.9,10.4
			s1.7,6.7,1.7,6.7l1.5-4.2c0,0,1,2.5,1.7,3.8c0.6,1.1,1.6,4.1,6,3.9c2.1-0.1,0.5-4.1,0.5-4.1s-3-3.6-3.6-5.7s2.6-8.9,4.5-12
			s9.6-8,12.7-9.8c2.8-1.5,5.9-2,9-1.6C228.3,154.4,227.4,148.4,225,148.8z"/>
		<path style="fill-rule:evenodd;clip-rule:evenodd;" d="M206.4,131.4c2-1.3,4.3-1.9,6.6-1.9c4,0,4.4,1.1,4.4,1.1s-5.8,2.4-7.3,3.9
			L206.4,131.4z"/>
		<path style="fill:none;stroke:#000000;stroke-width:1.76;stroke-linecap:round;stroke-linejoin:round;" d="M206.4,131.4
			c2-1.3,4.3-1.9,6.6-1.9c4,0,4.4,1.1,4.4,1.1s-5.8,2.4-7.3,3.9L206.4,131.4z"/>
		<path style="fill-rule:evenodd;clip-rule:evenodd;" d="M181.4,224c1.8-0.4,3.7-0.3,5.5,0.3c3.1,1,3.1,1.9,3.1,1.9s-5,0.3-6.5,1
			L181.4,224z"/>
		<path style="fill:none;stroke:#000000;stroke-width:1.76;stroke-linecap:round;stroke-linejoin:round;" d="M181.4,224
			c1.8-0.4,3.7-0.3,5.5,0.3c3.1,1,3.1,1.9,3.1,1.9s-5,0.3-6.5,1L181.4,224z"/>
		<path style="fill-rule:evenodd;clip-rule:evenodd;" d="M184.4,232.3c1.8,0.6,3.4,1.6,4.6,3.1c2.1,2.4,1.7,3.3,1.7,3.3
			s-4.4-2.4-6.1-2.5L184.4,232.3z"/>
		<path style="fill:none;stroke:#000000;stroke-width:1.76;stroke-linecap:round;stroke-linejoin:round;" d="M184.4,232.3
			c1.8,0.6,3.4,1.6,4.6,3.1c2.1,2.4,1.7,3.3,1.7,3.3s-4.4-2.4-6.1-2.5L184.4,232.3z"/>
		<path style="fill-rule:evenodd;clip-rule:evenodd;" d="M111.9,279.4c1.8,0.6,3.4,1.6,4.6,3.1c2.1,2.5,1.7,3.3,1.7,3.3
			s-4.4-2.4-6.1-2.5L111.9,279.4z"/>
		<path style="fill:none;stroke:#000000;stroke-width:1.76;stroke-linecap:round;stroke-linejoin:round;" d="M111.9,279.4
			c1.8,0.6,3.4,1.6,4.6,3.1c2.1,2.5,1.7,3.3,1.7,3.3s-4.4-2.4-6.1-2.5L111.9,279.4z"/>
		<path style="fill-rule:evenodd;clip-rule:evenodd;" d="M113.5,291c1.4,1.3,2.4,2.9,2.9,4.7c0.9,3.1,0.2,3.6,0.2,3.6s-3-4-4.5-4.8
			L113.5,291z"/>
		<path style="fill:none;stroke:#000000;stroke-width:1.76;stroke-linecap:round;stroke-linejoin:round;" d="M113.5,291
			c1.4,1.3,2.4,2.9,2.9,4.7c0.9,3.1,0.2,3.6,0.2,3.6s-3-4-4.5-4.8L113.5,291z"/>
		<path style="fill-rule:evenodd;clip-rule:evenodd;" d="M106.8,299.8c0.9,1.6,1.3,3.5,1.2,5.4c-0.1,3.2-1,3.5-1,3.5s-1.6-4.8-2.7-6
			L106.8,299.8z"/>
		<path style="fill:none;stroke:#000000;stroke-width:1.76;stroke-linecap:round;stroke-linejoin:round;" d="M106.8,299.8
			c0.9,1.6,1.3,3.5,1.2,5.4c-0.1,3.2-1,3.5-1,3.5s-1.6-4.8-2.7-6L106.8,299.8z"/>
		<path style="fill-rule:evenodd;clip-rule:evenodd;" d="M183.9,241.8c1.8,0.6,3.4,1.6,4.6,3.1c2.1,2.4,1.7,3.3,1.7,3.3
			s-4.4-2.4-6.1-2.5L183.9,241.8z"/>
		<path style="fill:none;stroke:#000000;stroke-width:1.76;stroke-linecap:round;stroke-linejoin:round;" d="M183.9,241.8
			c1.8,0.6,3.4,1.6,4.6,3.1c2.1,2.4,1.7,3.3,1.7,3.3s-4.4-2.4-6.1-2.5L183.9,241.8z"/>
		<path style="fill-rule:evenodd;clip-rule:evenodd;" d="M216,136.1c2.2-0.8,4.6-0.9,6.9-0.3c3.9,0.9,4,2.2,4,2.2s-6.3,0.9-8,2.1
			L216,136.1z"/>
		<path style="fill:none;stroke:#000000;stroke-width:1.76;stroke-linecap:round;stroke-linejoin:round;" d="M216,136.1
			c2.2-0.8,4.6-0.9,6.9-0.3c3.9,0.9,4,2.2,4,2.2s-6.3,0.9-8,2.1L216,136.1z"/>
		<path style="fill-rule:evenodd;clip-rule:evenodd;" d="M225.4,148.9c2.1,0.6,4,1.7,5.4,3.2c2.9,2.8,2.4,4.8,2.4,4.8
			c-2.3-1.3-4.7-2.4-7.2-3.4L225.4,148.9z"/>
		<path style="fill:none;stroke:#000000;stroke-width:1.76;stroke-linecap:round;stroke-linejoin:round;" d="M225.4,148.9
			c2.1,0.6,4,1.7,5.4,3.2c2.9,2.8,2.4,4.8,2.4,4.8c-2.3-1.3-4.7-2.4-7.2-3.4L225.4,148.9z"/>
		<path style="fill-rule:evenodd;clip-rule:evenodd;" d="M201.4,186.8c2.1,0.5,4.3,0.4,6.3-0.2c3.9-1,4.4-3.1,4.4-3.1
			c-2.6,0-5.3-0.1-7.9-0.5L201.4,186.8z"/>
		<path style="fill:none;stroke:#000000;stroke-width:1.76;stroke-linecap:round;stroke-linejoin:round;" d="M201.4,186.8
			c2.1,0.5,4.3,0.4,6.3-0.2c3.9-1,4.4-3.1,4.4-3.1c-2.6,0-5.3-0.1-7.9-0.5L201.4,186.8z"/>
		<path style="fill-rule:evenodd;clip-rule:evenodd;" d="M182,48.3c-0.2-2.3,0.3-4.7,1.4-6.7c1.9-3.6,3.1-3.4,3.1-3.4
			s-0.6,6.3,0.1,8.3L182,48.3z"/>
		<path style="fill:none;stroke:#000000;stroke-width:1.76;stroke-linecap:round;stroke-linejoin:round;" d="M182,48.3
			c-0.2-2.3,0.3-4.7,1.4-6.7c1.9-3.6,3.1-3.4,3.1-3.4s-0.6,6.3,0.1,8.3L182,48.3z"/>
		<path style="fill-rule:evenodd;clip-rule:evenodd;" d="M192,45.7c0.9-2.5,2.5-4.6,4.6-6.2c3.6-2.7,4.7-2,4.7-2s-3.6,6.1-3.8,8.4
			L192,45.7z"/>
		<path style="fill:none;stroke:#000000;stroke-width:1.76;stroke-linecap:round;stroke-linejoin:round;" d="M192,45.7
			c0.9-2.5,2.5-4.6,4.6-6.2c3.6-2.7,4.7-2,4.7-2s-3.6,6.1-3.8,8.4L192,45.7z"/>
		<path style="fill-rule:evenodd;clip-rule:evenodd;" d="M208.3,52.4c2.1-0.6,4.3-0.6,6.3,0c3.9,0.9,4.5,2.9,4.5,2.9
			c-2.6,0.1-5.3,0.3-7.9,0.8L208.3,52.4z"/>
		<path style="fill:none;stroke:#000000;stroke-width:1.76;stroke-linecap:round;stroke-linejoin:round;" d="M208.3,52.4
			c2.1-0.6,4.3-0.6,6.3,0c3.9,0.9,4.5,2.9,4.5,2.9c-2.6,0.1-5.3,0.3-7.9,0.8L208.3,52.4z"/>
		<path style="fill-rule:evenodd;clip-rule:evenodd;" d="M215.2,92.6c2-0.6,3.9-1.8,5.3-3.4c2.8-2.9,2.2-4.9,2.2-4.9
			c-2.2,1.4-4.6,2.6-7,3.6L215.2,92.6z"/>
		<path style="fill:none;stroke:#000000;stroke-width:1.76;stroke-linecap:round;stroke-linejoin:round;" d="M215.2,92.6
			c2-0.6,3.9-1.8,5.3-3.4c2.8-2.9,2.2-4.9,2.2-4.9c-2.2,1.4-4.6,2.6-7,3.6L215.2,92.6z"/>
		<path style="fill:none;stroke:#000000;stroke-width:1.76;stroke-linecap:round;stroke-linejoin:round;" d="M64.9,207.6
			c2.1-2.4,3.8-5.1,5.2-8.1"/>
		<path style="fill:none;stroke:#000000;stroke-width:1.76;stroke-linecap:round;stroke-linejoin:round;" d="M102.9,212.8
			c0,0,0-1.9-1.7-8.3s2.5-11.3,2.5-11.3"/>
		<path style="fill:none;stroke:#000000;stroke-width:1.76;stroke-linecap:round;stroke-linejoin:round;" d="M125.3,209.9
			c0,0,1.2-2.7,5.6-3.1c4.4-0.4,4.8,3.4,4.8,3.4"/>
		<path style="fill:none;stroke:#000000;stroke-width:1.76;stroke-linecap:round;stroke-linejoin:round;" d="M74.1,250.9
			c0,0-5.9,1.9-4.6,7.5c0.6,3,1.7,5.8,3.3,8.4"/>
		<path style="fill:none;stroke:#000000;stroke-width:1.76;stroke-linecap:round;stroke-linejoin:round;" d="M141.3,214.3
			c0,0-4,4.8-3.3,9.2s5.2,7.7,5.2,7.7"/>
		<path style="fill:none;stroke:#000000;stroke-width:1.76;stroke-linecap:round;stroke-linejoin:round;" d="M146,165.4
			c0,0-9.4-1.5-11.9-4.8c-2-2.9-3.9-5.9-5.6-9"/>
		<path style="fill:none;stroke:#000000;stroke-width:1.76;stroke-linecap:round;stroke-linejoin:round;" d="M121.1,161.8
			c2.1,3.3,5.2,6,8.8,7.7c6.1,2.9,8.3,2.3,8.3,2.3"/>
		<path style="fill:none;stroke:#000000;stroke-width:1.76;stroke-linecap:round;stroke-linejoin:round;" d="M112.3,166.2
			c0,0,3.3,4.8,6.9,6.9s5,2.3,5,2.3"/>
		<path style="fill:none;stroke:#000000;stroke-width:1.76;stroke-linecap:round;stroke-linejoin:round;" d="M108.3,173.7
			c0,0,4.6,4.2,8,5c1.6,0.4,3.3,0.7,5,0.8"/>
		<path style="fill:none;stroke:#000000;stroke-width:1.76;stroke-linecap:round;stroke-linejoin:round;" d="M162,139.7
			c0,0-6.3-8.1-10.4-10.5c-2.3-1.5-4.9-2.4-7.7-2.7"/>
		<path style="fill:none;stroke:#000000;stroke-width:1.76;stroke-linecap:round;stroke-linejoin:round;" d="M165.8,129.2
			c1-4.9,1.3-10,1-15c-0.4-9.4-2.5-15-2.5-15"/>
		<path style="fill:none;stroke:#000000;stroke-width:1.76;stroke-linecap:round;stroke-linejoin:round;" d="M179,99.6l-1.5,2.7
			l3.4-0.4l1.4-1.7c-0.1,1.7-0.5,3.3-1.2,4.8c-0.9,1.9,1,3.8,1,3.8"/>
		<polyline style="fill:none;stroke:#000000;stroke-width:1.76;stroke-linecap:round;stroke-linejoin:round;" points="178.3,155.1 
			174.8,156.6 177.9,160.6 		"/>
		<path style="fill:none;stroke:#000000;stroke-width:1.76;stroke-linecap:round;stroke-linejoin:round;" d="M133.2,62.8
			c0,0-4,1.2-10.7-1.7s-10.6-10.4-10.6-10.4"/>
		<path style="fill:none;stroke:#000000;stroke-width:1.76;stroke-linecap:round;stroke-linejoin:round;" d="M148,47.3
			c-2.5-0.2-5-0.1-7.5,0.2c-2.7,0.6-6.4,2.5-7.5,2.5c-1.3-0.2-2.5-0.6-3.6-1.2c1.2,2.7,2.9,5.1,5,7.1c2,2,4.3,3.5,6.9,4.4"/>
		<path style="fill:none;stroke:#000000;stroke-width:1.76;stroke-linecap:round;stroke-linejoin:round;" d="M134.9,49.6
			c0,0,4.1,4.4,7.5,5.4s3.3-0.6,5.6,1s2.1,2.7,2.1,2.7"/>
		<path style="fill:none;stroke:#000000;stroke-width:1.76;stroke-linecap:round;stroke-linejoin:round;" d="M142.8,41.9
			c2.1,0.2,4.2,0.4,6.3,0.4c3.3,0,4.4,0.8,4.4,0.8s-1.9-3.7-4.2-4.2S142.8,41.9,142.8,41.9z"/>
		<path style="fill:none;stroke:#000000;stroke-width:1.76;stroke-linecap:round;stroke-linejoin:round;" d="M118.6,41
			c0,0,4-4.4,7.5-5.2c3.5-0.8,5,1,7.3,2.3c1.3,0.8,2.8,0.9,4.2,0.4c0,0-1.3,3.7-7.1,4.8s-7.9-0.6-9-1
			C120.5,41.9,119.6,41.5,118.6,41z"/>
		<path style="fill:none;stroke:#000000;stroke-width:1.76;stroke-linecap:round;stroke-linejoin:round;" d="M129.9,40
			c0,1.4-1.1,2.5-2.5,2.5c-1.4,0-2.5-1.1-2.5-2.5c0-1.4,1.1-2.5,2.5-2.5l0,0C128.8,37.5,129.9,38.6,129.9,40z"/>
		<path style="fill:none;stroke:#000000;stroke-width:1.76;stroke-linecap:round;stroke-linejoin:round;" d="M109.2,26.2
			c2,1.1,3.7,2.5,5.2,4.2c1.1,1.2,1.7,2.8,1.7,4.4"/>
		<path style="fill:none;stroke:#000000;stroke-width:1.76;stroke-linecap:round;stroke-linejoin:round;" d="M111.1,33.7
			c-1.7-1.9-3.7-3.6-5.9-5c-1.7-0.9-3.2-2.2-4.4-3.7c0,0,0,4.4,3.1,7.1c1.5,1.2,2.9,2.6,4.2,4"/>
		<path style="fill:none;stroke:#000000;stroke-width:1.76;stroke-linecap:round;stroke-linejoin:round;" d="M113.1,28.5
			c-0.4-2.2-0.6-4.3-0.8-6.5v-3.1c0,0,5,4.2,5.6,6.9s3.5,6.3,3.5,6.3"/>
		<path style="fill:none;stroke:#000000;stroke-width:1.76;stroke-linecap:round;stroke-linejoin:round;" d="M110,55.7
			c0,0,1.3,5,5,7.3c2.5,1.5,5.2,2.7,8,3.6"/>
		<path style="fill:none;stroke:#000000;stroke-width:1.76;stroke-linecap:round;stroke-linejoin:round;" d="M36.5,26
			c0,0,4,3.5,13.2,7.9s24.2,5.4,32.4,9.2s11.7,8.2,12.3,9.8"/>
		<path style="fill:none;stroke:#000000;stroke-width:1.76;stroke-linecap:round;stroke-linejoin:round;" d="M38.7,40.8
			c7.6,3.3,15.5,5.9,23.6,7.9c14.6,3.6,19.8,2.3,27,11.7s8,20.3,10,22.8c2.7,3.5,6.9,1.9,6.9,1.9"/>
		<path style="fill:none;stroke:#000000;stroke-width:1.76;stroke-linecap:round;stroke-linejoin:round;" d="M90.2,80.3
			c-1.4,8,2.2,16.1,9.2,20.3c12.1,7.9,15.9,4,23,6.5c7.1,2.5,7.9,7.3,7.9,7.3"/>
		<path style="fill:none;stroke:#000000;stroke-width:1.76;stroke-linecap:round;stroke-linejoin:round;" d="M90.8,154.5
			c0,0,4,0.4,7.7-4.2s7.3-12.5,7.3-12.5c-0.8,3.3-1.1,6.6-1.2,10c0.1,2.5,0.6,5.1,1.3,7.5c2.4-1.8,4.4-4.2,5.8-6.9
			c1.3-2.6,2.1-5.4,2.5-8.2c0,2.3,0.5,4.6,1.3,6.7l1.3,3.1c0,0,3.5-2.1,4.2-5.6c0.6-3.1,0.9-6.2,1-9.4"/>
		<path style="fill:none;stroke:#000000;stroke-width:1.76;stroke-linecap:round;stroke-linejoin:round;" d="M74.4,185.3
			c0,0,2-10.2,7.7-16.4s9.2-8.2,9.2-8.2"/>
		<path style="fill:none;stroke:#000000;stroke-width:1.76;stroke-linecap:round;stroke-linejoin:round;" d="M106.9,205.5
			c0,0,1.5,0.8,9.5-0.3s11.8-3.1,11.8-3.1"/>
		<path style="fill:none;stroke:#000000;stroke-width:1.76;stroke-linecap:round;stroke-linejoin:round;" d="M129.1,185.5
			c0,0,11.8,4.6,15.1,6.9"/>
		<path style="fill:none;stroke:#000000;stroke-width:1.76;stroke-linecap:round;stroke-linejoin:round;" d="M136.8,153.1
			c0,0,0.8,4.9,7.4,6.9c4.2,1.2,8.4,2,12.8,2.3"/>
		<path style="fill:none;stroke:#000000;stroke-width:1.76;stroke-linecap:round;stroke-linejoin:round;" d="M159,100.4
			c1.9,4.5,2.9,9.4,3.1,14.3c0,4.3-0.7,8.5-2.1,12.5"/>
		<path style="fill:none;stroke:#000000;stroke-width:1.76;stroke-linecap:round;stroke-linejoin:round;" d="M109.4,78.7
			c1.9,3.8,3.4,7.7,4.6,11.8c2.3,7.4,1,10,1,10"/>
		<path style="fill:none;stroke:#000000;stroke-width:1.76;stroke-linecap:round;stroke-linejoin:round;" d="M95.6,85.1
			c0,0-0.3,4.6,4.6,7.9c3,2.1,6.3,3.8,9.7,5.1"/>
		<path style="fill:none;stroke:#000000;stroke-width:1.76;stroke-linecap:round;stroke-linejoin:round;" d="M56.1,47.5
			c0,0-6-0.6-9,1S43.5,50,43.5,50s3.5,4.4,7.9,5.4s8.1,2.1,8.1,2.1s-8.4,1-11.3,2.1c-1.6,0.6-3.1,1.6-4.2,2.9c2.1,1.9,4.7,3.3,7.5,4
			c4.6,1.2,14,1.5,14,1.5s-9.2,1.7-11.3,2.7c-1.7,0.9-3.4,1.9-5,3.1c2.4,1.2,4.9,2,7.5,2.5c3.2,0.3,6.5,0.4,9.8,0.2
			c-3,1.2-5.9,2.8-8.6,4.6c-1.9,1.3-3.6,2.9-5,4.8c3.3,1.6,7.1,2.1,10.7,1.5c5.6-1.2,9-2.1,9-2.1s-9,2.7-11.1,5.2
			c-1.4,1.8-2.5,3.8-3.2,6c2.8,1.3,6,1.5,9,0.6c5.2-1.5,10-3.4,10-3.4s-7.1,4.8-8.4,7.5s-2.7,5.9-2.7,5.9c3,0.2,6.1-0.1,9-0.8
			c4-1.2,8.4-4.6,8.4-4.6s-6.1,5.2-7.5,8.1c-1,2.2-1.7,4.5-2.3,6.9c0,0,2.7-0.8,5.6-1.5s9.4-6,9.4-6c-2.5,2.5-4.8,5.2-6.9,8.1
			c-1.7,2.7-2.9,8.8-2.9,8.8c3.3,0.4,6.7-0.3,9.6-1.9c4.4-2.7,8.1-8,8.1-8s-3.7,4.4-4.4,7.5s-1.7,8.8-1.7,8.8s5.9-1.9,7.9-4
			c1.6-2.1,3-4.3,4.2-6.7c0,0-1.7,5.8-1.7,7.7c0.2,2.3,0.5,4.5,1,6.7c0,0,4.6-2.9,6-6.1s3.1-7.3,3.1-7.3s-0.6,5-0.6,8.6
			s1.3,5.4,1.3,5.4c2-1.1,3.6-2.7,4.8-4.6c1.1-2.3,1.9-4.6,2.5-7.1c0,0,0.2,3.1,0.6,5.9c0.4,1.9,1.4,3.7,2.9,5
			c1.9-0.4,3.5-1.8,4.2-3.6c0.8-2.5,1.2-5.1,1.3-7.7"/>
		<path style="fill-rule:evenodd;clip-rule:evenodd;fill:#FFD200;" d="M96.4,210.6c1.3,4.8,1.8,9.8,1.5,14.8
			c-0.5,7.7,1.5,9.7,1.5,9.7"/>
		<path style="fill:none;stroke:#000000;stroke-width:1.76;stroke-linecap:round;stroke-linejoin:round;" d="M96.4,210.6
			c1.3,4.8,1.8,9.8,1.5,14.8c-0.5,7.7,1.5,9.7,1.5,9.7"/>
		<path style="fill-rule:evenodd;clip-rule:evenodd;fill:#FFD200;" d="M145.9,78.3c-2.2-0.2-4.3-0.8-6.3-1.7"/>
		<path style="fill:none;stroke:#000000;stroke-width:1.76;stroke-linecap:round;stroke-linejoin:round;" d="M145.9,78.3
			c-2.2-0.2-4.3-0.8-6.3-1.7"/>
		<path style="fill-rule:evenodd;clip-rule:evenodd;fill:#FFD200;" d="M157.7,90.8c-2.1,0-4.2-0.5-6.1-1.4"/>
		<path style="fill:none;stroke:#000000;stroke-width:1.76;stroke-linecap:round;stroke-linejoin:round;" d="M157.7,90.8
			c-2.1,0-4.2-0.5-6.1-1.4"/>
		<path style="fill-rule:evenodd;clip-rule:evenodd;fill:#FFD200;" d="M151.4,85.1c-2.3-0.4-4.6-0.9-6.9-1.5"/>
		<path style="fill:none;stroke:#000000;stroke-width:1.76;stroke-linecap:round;stroke-linejoin:round;" d="M151.4,85.1
			c-2.3-0.4-4.6-0.9-6.9-1.5"/>
		<path style="fill-rule:evenodd;clip-rule:evenodd;fill:#FFD200;" d="M193.8,70.5c0.5,3,0.5,6,0,9L193,84"/>
		<path style="fill:none;stroke:#000000;stroke-width:1.76;stroke-linecap:round;stroke-linejoin:round;" d="M193.8,70.5
			c0.5,3,0.5,6,0,9L193,84"/>
		<path style="fill-rule:evenodd;clip-rule:evenodd;fill:#FFD200;" d="M204.5,152.3c-0.6,2.8-2.3,5.2-4.9,6.6
			c-4.1,2.1-5.1,2.1-5.1,2.1"/>
		<path style="fill:none;stroke:#000000;stroke-width:1.76;stroke-linecap:round;stroke-linejoin:round;" d="M204.5,152.3
			c-0.6,2.8-2.3,5.2-4.9,6.6c-4.1,2.1-5.1,2.1-5.1,2.1"/>
		<path style="fill-rule:evenodd;clip-rule:evenodd;fill:#FFD200;" d="M156,241.3c0,0,1.5,2.6,5.6,2.6s8.2-4.6,8.2-4.6"/>
		<path style="fill:none;stroke:#000000;stroke-width:1.76;stroke-linecap:round;stroke-linejoin:round;" d="M156,241.3
			c0,0,1.5,2.6,5.6,2.6s8.2-4.6,8.2-4.6"/>
		<path style="fill-rule:evenodd;clip-rule:evenodd;fill:#FFD200;" d="M87.2,284.2c0,0,0,3.8,5.6,4.9s6.4-0.3,6.4-0.3"/>
		<path style="fill:none;stroke:#000000;stroke-width:1.76;stroke-linecap:round;stroke-linejoin:round;" d="M87.2,284.2
			c0,0,0,3.8,5.6,4.9s6.4-0.3,6.4-0.3"/>
	</g>
</g>
</svg>
