<?xml version="1.0" encoding="utf-8"?>
<!-- Generator: Adobe Illustrator 23.0.2, SVG Export Plug-In . SVG Version: 6.00 Build 0)  -->
<svg version="1.1" id="Réteg_1" xmlns="http://www.w3.org/2000/svg" xmlns:xlink="http://www.w3.org/1999/xlink" x="0px" y="0px"
	 viewBox="0 0 208.5 207.6" style="enable-background:new 0 0 208.5 207.6;" xml:space="preserve">
<title>cimerkep_30</title>
<g>
	<g>
		<path style="fill:#B3B3B3;" d="M38.3,30.2c0,0,43.5-18.4,81.8,5.6s36.3,52.7,36.3,52.7s-2,12.3-6.1,16.9s8.2,1.5,8.2,1.5
			s-1,35.1-23.5,54.2c-47.6,40.4-96.1,11.3-96.1,11.3s18.8,24.7,52.1,32.2c20.8,4.7,50.6,2.7,75.2-16.4
			c31.6-24.6,42.2-55.5,41.4-84.4c-1-34.6-18.3-66.3-35.3-80.8c-23.7-20.2-53.4-24.7-76.2-21C61.7,7.7,38.3,30.2,38.3,30.2"/>
		<path style="fill:none;stroke:#000000;stroke-width:1.76;stroke-linecap:round;stroke-linejoin:round;" d="M38.3,30.2
			c0,0,43.5-18.4,81.8,5.6s36.3,52.7,36.3,52.7s-2,12.3-6.1,16.9s8.2,1.5,8.2,1.5s-1,35.1-23.5,54.2c-47.6,40.4-96.1,11.3-96.1,11.3
			s18.8,24.7,52.1,32.2c20.8,4.7,50.6,2.7,75.2-16.4c31.6-24.6,42.2-55.5,41.4-84.4c-1-34.6-18.3-66.3-35.3-80.8
			c-23.7-20.2-53.4-24.7-76.2-21C61.7,7.7,38.3,30.2,38.3,30.2z"/>
		<path style="fill:none;stroke:#000000;stroke-width:1.76;stroke-linecap:round;stroke-linejoin:round;" d="M155.2,77
			c0,0,2.8-8.2,11.8-9.5c5.1-0.7,9.2,4.3,9.2,4.3"/>
		<path style="fill:none;stroke:#000000;stroke-width:1.76;stroke-linecap:round;stroke-linejoin:round;" d="M160.1,82.1
			c0,0,0.3-4.3,5.6-6.4c5.9-2.3,7.7,0.5,7.7,0.5s-0.2,2.7-5.9,5.4C163.1,83.6,160.1,82.1,160.1,82.1z"/>
		<path style="fill:none;stroke:#000000;stroke-width:1.76;stroke-linecap:round;stroke-linejoin:round;" d="M157.2,116.6
			c0,0,3.9,1.5,12.5-2c4.4-1.8,6.1-6.9,6.1-6.9s1.3-1,2.3,2.6"/>
		<path style="fill:none;stroke:#000000;stroke-width:1.76;stroke-linecap:round;stroke-linejoin:round;" d="M169,78.8
			c0,1.3-1,2.3-2.3,2.3s-2.3-1-2.3-2.3c0-1.3,1-2.3,2.3-2.3S169,77.5,169,78.8L169,78.8z"/>
		<path style="fill:none;stroke:#000000;stroke-width:1.76;stroke-linecap:round;stroke-linejoin:round;" d="M85.4,15.9
			c15.2,0.4,29.9,5.2,42.4,13.8c21,14.3,27.1,28.1,27.1,28.1"/>
		<path style="fill:none;stroke:#000000;stroke-width:1.76;stroke-linecap:round;stroke-linejoin:round;" d="M161.6,132.5
			c0,0-5.6,25.6-25.6,39.9s-39.4,16.9-39.4,16.9"/>
		<path style="fill:none;stroke:#000000;stroke-width:1.76;stroke-linecap:round;stroke-linejoin:round;" d="M170.3,34.3
			c0,0,28.1,23,28.1,66.5c0,38.9-12.8,49.1-12.8,49.1"/>
		<path style="fill:#FFD200;" d="M73.8,65.3c-2.3-0.2-4.5-0.2-6.8,0c0-4,0.8-7.9,2.5-11.6c2.9-5.5,5-11.1,3.8-18.2
			c3.1,3.9,4,12,2.2,16.4s-2.9,7.9-2.8,10.5C72.5,63.5,72.9,64.6,73.8,65.3"/>
		<path style="fill:none;stroke:#000000;stroke-width:1.76;stroke-miterlimit:10;" d="M73.8,65.3c-2.3-0.2-4.5-0.2-6.8,0
			c0-4,0.8-7.9,2.5-11.6c2.9-5.5,5-11.1,3.8-18.2c3.1,3.9,4,12,2.2,16.4s-2.9,7.9-2.8,10.5C72.5,63.5,72.9,64.6,73.8,65.3z"/>
		<path style="fill:#FFD200;" d="M77.3,65.8l6.5-15.5l-2.1,16.6C80.2,66.5,78.7,66.1,77.3,65.8"/>
		<path style="fill:none;stroke:#000000;stroke-width:1.76;stroke-miterlimit:10;" d="M77.3,65.8l6.5-15.5l-2.1,16.6
			C80.2,66.5,78.7,66.1,77.3,65.8z"/>
		<path style="fill:#FFD200;" d="M54.7,68.6c-2.1,0.9-4,2.1-5.9,3.4c-2-3.5-3.3-7.3-3.7-11.3c-0.3-6.2-1.2-12.2-5.9-17.7
			c4.6,1.8,9.5,8.4,10.1,13.1s1.5,8.3,2.9,10.4C52.7,67.7,53.6,68.4,54.7,68.6"/>
		<path style="fill:none;stroke:#000000;stroke-width:1.76;stroke-miterlimit:10;" d="M54.7,68.6c-2.1,0.9-4,2.1-5.9,3.4
			c-2-3.5-3.3-7.3-3.7-11.3c-0.3-6.2-1.2-12.2-5.9-17.7c4.6,1.8,9.5,8.4,10.1,13.1s1.5,8.3,2.9,10.4C52.7,67.7,53.6,68.4,54.7,68.6z
			"/>
		<path style="fill:#FFD200;" d="M58,67.3l-2.1-16.7l6.5,15.4C60.9,66.4,59.4,66.8,58,67.3"/>
		<path style="fill:none;stroke:#000000;stroke-width:1.76;stroke-miterlimit:10;" d="M58,67.3l-2.1-16.7l6.5,15.4
			C60.9,66.4,59.4,66.8,58,67.3z"/>
		<path style="fill:#FFD200;" d="M39.8,81c-1.3,1.9-2.5,3.8-3.4,5.9c-3.5-2-6.5-4.7-8.8-7.9c-3.3-5.3-7.2-10-13.9-12.4
			c4.9-0.7,12.4,2.6,15.3,6.3s5.4,6.4,7.7,7.6C38.2,81.3,38.9,81.3,39.8,81"/>
		<path style="fill:none;stroke:#000000;stroke-width:1.76;stroke-miterlimit:10;" d="M39.8,81c-1.3,1.9-2.5,3.8-3.4,5.9
			c-3.5-2-6.5-4.7-8.8-7.9c-3.3-5.3-7.2-10-13.9-12.4c4.9-0.7,12.4,2.6,15.3,6.3s5.4,6.4,7.7,7.6C38.2,81.3,38.9,81.3,39.8,81z"/>
		<path style="fill:#FFD200;" d="M42,78.2L31.8,64.8L45.1,75C44,76,43,77.1,42,78.2"/>
		<path style="fill:none;stroke:#000000;stroke-width:1.76;stroke-miterlimit:10;" d="M42,78.2L31.8,64.8L45.1,75
			C44,76,43,77.1,42,78.2z"/>
		<path style="fill:#FFD200;" d="M33.1,99.1c-0.2,2.3-0.2,4.5,0,6.8c-4,0-7.9-0.8-11.6-2.5c-5.5-2.9-11.1-5-18.2-3.7
			c3.9-3.1,12-4,16.4-2.2s7.9,2.9,10.5,2.8C31.8,100.2,32.5,99.8,33.1,99.1"/>
		<path style="fill:none;stroke:#000000;stroke-width:1.76;stroke-miterlimit:10;" d="M33.1,99.1c-0.2,2.3-0.2,4.5,0,6.8
			c-4,0-7.9-0.8-11.6-2.5c-5.5-2.9-11.1-5-18.2-3.7c3.9-3.1,12-4,16.4-2.2s7.9,2.9,10.5,2.8C31.8,100.2,32.5,99.8,33.1,99.1z"/>
		<path style="fill:#FFD200;" d="M33.6,95.7l-15.5-6.5l16.6,2.1C34.2,92.7,33.9,94.2,33.6,95.7"/>
		<path style="fill:none;stroke:#000000;stroke-width:1.76;stroke-miterlimit:10;" d="M33.6,95.7l-15.5-6.5l16.6,2.1
			C34.2,92.7,33.9,94.2,33.6,95.7z"/>
		<path style="fill:#FFD200;" d="M36.3,118.2c0.9,2.1,2.1,4,3.4,5.9c-3.4,2-7.3,3.3-11.3,3.7c-6.2,0.3-12.2,1.2-17.7,5.9
			c1.8-4.6,8.4-9.5,13.1-10.1s8.3-1.5,10.5-2.9C35.8,119.8,36.2,119.1,36.3,118.2"/>
		<path style="fill:none;stroke:#000000;stroke-width:1.76;stroke-miterlimit:10;" d="M36.3,118.2c0.9,2.1,2.1,4,3.4,5.9
			c-3.4,2-7.3,3.3-11.3,3.7c-6.2,0.3-12.2,1.2-17.7,5.9c1.8-4.6,8.4-9.5,13.1-10.1s8.3-1.5,10.5-2.9
			C35.8,119.8,36.2,119.1,36.3,118.2z"/>
		<path style="fill:#FFD200;" d="M35,115l-16.6,2l15.4-6.5C34.1,112,34.5,113.5,35,115"/>
		<path style="fill:none;stroke:#000000;stroke-width:1.76;stroke-miterlimit:10;" d="M35,115l-16.6,2l15.4-6.5
			C34.1,112,34.5,113.5,35,115z"/>
		<path style="fill:#FFD200;" d="M48.7,133.1c1.9,1.3,3.8,2.5,5.9,3.4c-2,3.5-4.7,6.5-7.9,8.8c-5.2,3.3-9.9,7.1-12.4,13.9
			c-0.7-4.9,2.6-12.4,6.3-15.3s6.4-5.4,7.6-7.7C48.9,135.3,49.1,134.1,48.7,133.1"/>
		<path style="fill:none;stroke:#000000;stroke-width:1.76;stroke-miterlimit:10;" d="M48.7,133.1c1.9,1.3,3.8,2.5,5.9,3.4
			c-2,3.5-4.7,6.5-7.9,8.8c-5.2,3.3-9.9,7.1-12.4,13.9c-0.7-4.9,2.6-12.4,6.3-15.3s6.4-5.4,7.6-7.7
			C48.9,135.3,49.1,134.1,48.7,133.1z"/>
		<path style="fill:#FFD200;" d="M46,130.9l-13.4,10.1l10.1-13.3C43.8,128.9,44.9,129.9,46,130.9"/>
		<path style="fill:none;stroke:#000000;stroke-width:1.76;stroke-miterlimit:10;" d="M46,130.9l-13.4,10.1l10.1-13.3
			C43.8,128.9,44.9,129.9,46,130.9z"/>
		<path style="fill:#FFD200;" d="M66.9,139.8c2.3,0.2,4.5,0.2,6.8,0c0,4-0.8,7.9-2.5,11.6c-2.9,5.5-5,11.1-3.8,18.2
			c-3.1-3.9-4-12-2.2-16.4s2.9-7.9,2.8-10.5C68,141.1,67.6,140.4,66.9,139.8"/>
		<path style="fill:none;stroke:#000000;stroke-width:1.76;stroke-miterlimit:10;" d="M66.9,139.8c2.3,0.2,4.5,0.2,6.8,0
			c0,4-0.8,7.9-2.5,11.6c-2.9,5.5-5,11.1-3.8,18.2c-3.1-3.9-4-12-2.2-16.4s2.9-7.9,2.8-10.5C68,141.1,67.6,140.4,66.9,139.8z"/>
		<path style="fill:#FFD200;" d="M63.4,139.3l-6.5,15.5l2.1-16.6C60.4,138.7,61.9,139,63.4,139.3"/>
		<path style="fill:none;stroke:#000000;stroke-width:1.76;stroke-miterlimit:10;" d="M63.4,139.3l-6.5,15.5l2.1-16.6
			C60.4,138.7,61.9,139,63.4,139.3z"/>
		<path style="fill:#FFD200;" d="M85.9,136.6c2.1-0.9,4-2.1,5.9-3.4c2,3.4,3.3,7.3,3.7,11.3c0.3,6.2,1.2,12.2,5.9,17.7
			c-4.6-1.8-9.5-8.4-10.1-13.1s-1.5-8.3-2.9-10.4C88,137.5,87,136.8,85.9,136.6"/>
		<path style="fill:none;stroke:#000000;stroke-width:1.76;stroke-miterlimit:10;" d="M85.9,136.6c2.1-0.9,4-2.1,5.9-3.4
			c2,3.4,3.3,7.3,3.7,11.3c0.3,6.2,1.2,12.2,5.9,17.7c-4.6-1.8-9.5-8.4-10.1-13.1s-1.5-8.3-2.9-10.4C88,137.5,87,136.8,85.9,136.6z"
			/>
		<path style="fill:#FFD200;" d="M82.7,137.9l2.1,16.7l-6.4-15.4C79.8,138.8,81.3,138.4,82.7,137.9"/>
		<path style="fill:none;stroke:#000000;stroke-width:1.76;stroke-miterlimit:10;" d="M82.7,137.9l2.1,16.7l-6.4-15.4
			C79.8,138.8,81.3,138.4,82.7,137.9z"/>
		<path style="fill:#FFD200;" d="M100.8,124.2c1.3-1.8,2.5-3.8,3.4-5.9c3.5,2,6.5,4.7,8.8,7.9c3.3,5.2,7.2,9.9,13.9,12.4
			c-4.9,0.7-12.4-2.6-15.3-6.3s-5.4-6.4-7.7-7.6C102.5,123.9,101.7,123.9,100.8,124.2"/>
		<path style="fill:none;stroke:#000000;stroke-width:1.76;stroke-miterlimit:10;" d="M100.8,124.2c1.3-1.8,2.5-3.8,3.4-5.9
			c3.5,2,6.5,4.7,8.8,7.9c3.3,5.2,7.2,9.9,13.9,12.4c-4.9,0.7-12.4-2.6-15.3-6.3s-5.4-6.4-7.7-7.6
			C102.5,123.9,101.7,123.9,100.8,124.2z"/>
		<path style="fill:#FFD200;" d="M98.7,127l10.2,13.4l-13.3-10.2C96.6,129.2,97.7,128.1,98.7,127"/>
		<path style="fill:none;stroke:#000000;stroke-width:1.76;stroke-miterlimit:10;" d="M98.7,127l10.2,13.4l-13.3-10.2
			C96.6,129.2,97.7,128.1,98.7,127z"/>
		<path style="fill:#FFD200;" d="M107.6,106c0.2-2.3,0.2-4.5,0-6.8c4,0,7.9,0.8,11.6,2.5c5.5,2.9,11.1,5,18.2,3.7
			c-3.9,3.1-12,4-16.4,2.2s-7.9-2.9-10.5-2.8C109.4,104.7,108.3,105.2,107.6,106"/>
		<path style="fill:none;stroke:#000000;stroke-width:1.76;stroke-miterlimit:10;" d="M107.6,106c0.2-2.3,0.2-4.5,0-6.8
			c4,0,7.9,0.8,11.6,2.5c5.5,2.9,11.1,5,18.2,3.7c-3.9,3.1-12,4-16.4,2.2s-7.9-2.9-10.5-2.8C109.4,104.7,108.3,105.2,107.6,106z"/>
		<path style="fill:#FFD200;" d="M107.1,109.5l15.5,6.5l-16.6-2.1C106.4,112.5,106.8,111,107.1,109.5"/>
		<path style="fill:none;stroke:#000000;stroke-width:1.76;stroke-miterlimit:10;" d="M107.1,109.5l15.5,6.5l-16.6-2.1
			C106.4,112.5,106.8,111,107.1,109.5z"/>
		<path style="fill:#FFD200;" d="M104.3,87c-0.9-2.1-2.1-4-3.4-5.9c3.5-2,7.3-3.3,11.3-3.7c6.2-0.3,12.2-1.2,17.7-5.9
			c-1.8,4.6-8.4,9.4-13.1,10s-8.3,1.5-10.4,2.9C104.8,85.4,104.4,86,104.3,87"/>
		<path style="fill:none;stroke:#000000;stroke-width:1.76;stroke-miterlimit:10;" d="M104.3,87c-0.9-2.1-2.1-4-3.4-5.9
			c3.5-2,7.3-3.3,11.3-3.7c6.2-0.3,12.2-1.2,17.7-5.9c-1.8,4.6-8.4,9.4-13.1,10s-8.3,1.5-10.4,2.9C104.8,85.4,104.4,86,104.3,87z"/>
		<path style="fill:#FFD200;" d="M105.6,90.2l16.7-2.1l-15.4,6.5C106.5,93.1,106.1,91.6,105.6,90.2"/>
		<path style="fill:none;stroke:#000000;stroke-width:1.76;stroke-miterlimit:10;" d="M105.6,90.2l16.7-2.1l-15.4,6.5
			C106.5,93.1,106.1,91.6,105.6,90.2z"/>
		<path style="fill:#FFD200;" d="M91.9,72.1c-1.9-1.3-3.8-2.5-5.9-3.4c2-3.5,4.7-6.5,8-8.8c5.2-3.3,9.9-7.2,12.4-13.9
			c0.7,4.9-2.6,12.4-6.3,15.3s-6.4,5.4-7.6,7.7C91.6,70.4,91.6,71.2,91.9,72.1"/>
		<path style="fill:none;stroke:#000000;stroke-width:1.76;stroke-miterlimit:10;" d="M91.9,72.1c-1.9-1.3-3.8-2.5-5.9-3.4
			c2-3.5,4.7-6.5,8-8.8c5.2-3.3,9.9-7.2,12.4-13.9c0.7,4.9-2.6,12.4-6.3,15.3s-6.4,5.4-7.6,7.7C91.6,70.4,91.6,71.2,91.9,72.1z"/>
		<path style="fill:#FFD200;" d="M94.7,74.2l13.4-10.2L98,77.4C97,76.3,95.9,75.2,94.7,74.2"/>
		<path style="fill:none;stroke:#000000;stroke-width:1.76;stroke-miterlimit:10;" d="M94.7,74.2l13.4-10.2L98,77.4
			C97,76.3,95.9,75.2,94.7,74.2z"/>
		<path style="fill:#FFD200;" d="M110,103.3c0,21.5-17.4,39-38.9,39s-39-17.4-39-38.9c0-21.5,17.4-39,38.9-39c0,0,0,0,0,0
			C92.5,64.4,110,81.8,110,103.3"/>
		<circle style="fill:none;stroke:#000000;stroke-width:1.76;stroke-miterlimit:10;" cx="71.3" cy="103.1" r="39"/>
		<path style="fill:#FFD200;" d="M56.1,73.5c0,0-16.1,2.8-19.4,27.4s22.7,34.9,22.7,34.9"/>
		<path style="fill:none;stroke:#000000;stroke-width:1.76;stroke-miterlimit:10;" d="M56.1,73.5c0,0-16.1,2.8-19.4,27.4
			s22.7,34.9,22.7,34.9"/>
		<path style="fill:#FFD200;" d="M103.8,93.1c0,0,5.2,10.6-1.4,25s-15.1,14.6-15.1,14.6"/>
		<path style="fill:none;stroke:#000000;stroke-width:1.76;stroke-miterlimit:10;" d="M103.8,93.1c0,0,5.2,10.6-1.4,25
			s-15.1,14.6-15.1,14.6"/>
		<path style="fill:#FFD200;" d="M57.7,94.5c0,0.5-0.4,0.9-0.9,0.9s-0.9-0.4-0.9-0.9c0-0.5,0.4-0.9,0.9-0.9c0,0,0,0,0,0
			C57.3,93.6,57.7,94,57.7,94.5"/>
		<path style="fill:none;stroke:#000000;stroke-width:1.76;stroke-miterlimit:10;" d="M57.7,94.5c0,0.5-0.4,0.9-0.9,0.9
			s-0.9-0.4-0.9-0.9c0-0.5,0.4-0.9,0.9-0.9c0,0,0,0,0,0C57.3,93.6,57.7,94,57.7,94.5z"/>
		<path style="fill:#FFD200;" d="M87,95.1c0,0.5-0.4,0.9-0.9,0.9s-0.9-0.4-0.9-0.9c0-0.5,0.4-0.9,0.9-0.9c0,0,0,0,0,0
			C86.6,94.3,87,94.6,87,95.1"/>
		<path style="fill:none;stroke:#000000;stroke-width:1.76;stroke-miterlimit:10;" d="M87,95.1c0,0.5-0.4,0.9-0.9,0.9
			s-0.9-0.4-0.9-0.9c0-0.5,0.4-0.9,0.9-0.9c0,0,0,0,0,0C86.6,94.3,87,94.6,87,95.1z"/>
		<path style="fill:none;stroke:#000000;stroke-width:1.76;stroke-linecap:round;stroke-linejoin:round;" d="M45.9,87.8
			c0,0,3.3-4.3,11-4.4s9.7,4,10.7,7.2c1.7,5.4-2.6,18.8,1,21.4s6.5,0.6,7-2.7s-1.5-13.8-0.5-19.4s6.4-7.4,11-7s9.3,4.3,9.3,4.3"/>
		<path style="fill:none;stroke:#000000;stroke-width:1.76;stroke-linecap:round;stroke-linejoin:round;" d="M45.4,94.7
			c0,0,4.4-1.7,6.7-4.3s7.8-2.4,10.3-0.6s4.1,5.4,4.1,5.4s-1.9,2.8-7.2,3.9s-7.7-0.6-9.7-1.3C48,97.1,46.6,96,45.4,94.7z"/>
		<path style="fill:none;stroke:#000000;stroke-width:1.76;stroke-linecap:round;stroke-linejoin:round;" d="M76.7,94.7
			c1.6-1.6,3.5-3,5.4-4.3c3.1-2.1,7.4-1.5,9.8,1.4c1.3,1.6,2.9,2.8,4.8,3.5c0,0-1.8,4-7.7,4.5S82.2,99,79.7,98
			C78.1,97.3,76.7,94.7,76.7,94.7z"/>
		<path style="fill:none;stroke:#000000;stroke-width:1.76;stroke-linecap:round;stroke-linejoin:round;" d="M76.7,94.7
			c2.4-0.4,4.8-1,7.2-1.8c3.4-1.2,6.3,0.6,8.3,1.7c1.4,0.7,3,1,4.6,0.8"/>
		<path style="fill:none;stroke:#000000;stroke-width:1.76;stroke-linecap:round;stroke-linejoin:round;" d="M45.7,94.7
			c0,0,5.6,1.5,8.5,2.4s6.8-0.2,8.8-0.9c1.2-0.4,2.3-0.8,3.5-1c0,0-3.4-2-5.3-2.8c-2.7-1.1-5.7-0.8-8.2,0.6c-2.4,1.1-5,1.7-7.6,1.7"
			/>
		<path style="fill:none;stroke:#000000;stroke-width:1.76;stroke-linecap:round;stroke-linejoin:round;" d="M77.3,94.8
			c0,0,3.1,3,9.3,3s9-2.3,9-2.3"/>
		<path style="fill:none;stroke:#000000;stroke-width:1.76;stroke-linecap:round;stroke-linejoin:round;" d="M67.5,110.5
			c0,0-2.4,3.8-4.7,2.2c-1.4-0.7-2-2.5-1.3-4c0.2-0.3,0.4-0.6,0.6-0.8c0.8-0.6,1.8-1,2.8-0.9c0,0-0.4-3.7,0.2-5.6
			c0.3-0.8,0.5-1.6,0.6-2.4"/>
		<path style="fill:none;stroke:#000000;stroke-width:1.76;stroke-linecap:round;stroke-linejoin:round;" d="M75.1,110.8
			c0,0,2.9,4,5.5,1.3c2.9-3-1.5-5.3-2.9-5"/>
		<path style="fill:none;stroke:#000000;stroke-width:1.76;stroke-linecap:round;stroke-linejoin:round;" d="M58.1,115.7
			c-0.5,1-0.1,2.2,0.9,2.7c0.1,0,0.1,0.1,0.2,0.1c2,0.8,5.5-2.3,8.3-1s2.7,1.9,4.3,0.9s4.2-1.9,6.5-0.6s4.4,0.3,4.7-0.8
			s-0.1-1.5-0.1-1.5"/>
		<path style="fill:none;stroke:#000000;stroke-width:1.76;stroke-linecap:round;stroke-linejoin:round;" d="M54.6,120.7
			c0.7-0.6,1.5-1.1,2.4-1.5c0.9-0.4,1.9-0.4,2.9-0.2c0.2,0,5.3,3.6,10.9,3.6s10.2-4.1,10.2-4.1c2,0.1,2.8,0.2,3.9,1.6s1,1.2,1,1.2"
			/>
		<path style="fill:none;stroke:#000000;stroke-width:1.76;stroke-linecap:round;stroke-linejoin:round;" d="M59.5,118.9
			c1,4.8,5.1,8.4,10.1,8.8c8.7,0.8,11.8-9.3,11.8-9.3"/>
		<path style="fill:none;stroke:#000000;stroke-width:1.76;stroke-linecap:round;stroke-linejoin:round;" d="M63.9,132.1
			c0,0,2.4-2,6.8-1.7c2.3,0.1,4.6,0.6,6.7,1.7"/>
		<path style="fill:none;stroke:#000000;stroke-width:1.76;stroke-linecap:round;stroke-linejoin:round;" d="M55.5,92.1
			c-1.7,0.8-2.3,2.1-1.6,3.1s0.8,2,3.1,2s3-1.6,2.5-3.3s-0.7-2.1-1.7-2.1C57.1,91.8,56.3,91.9,55.5,92.1z"/>
		<path style="fill:none;stroke:#000000;stroke-width:1.76;stroke-linecap:round;stroke-linejoin:round;" d="M84.8,92.9
			c-1.6,0.8-2.2,2-1.5,3s0.7,1.9,3,1.9s2.8-1.5,2.4-3.1s-0.6-2-1.6-2C86.3,92.7,85.6,92.7,84.8,92.9z"/>
		<path style="fill:none;stroke:#000000;stroke-width:1.76;stroke-linecap:round;stroke-linejoin:round;" d="M49.3,81.9
			c0,0,5.8-3.8,11.7-2.2s6.8,4,6.8,4"/>
	</g>
</g>
</svg>
