<?xml version="1.0" encoding="utf-8"?>
<!-- Generator: Adobe Illustrator 23.0.2, SVG Export Plug-In . SVG Version: 6.00 Build 0)  -->
<svg version="1.1" id="Réteg_1" xmlns="http://www.w3.org/2000/svg" xmlns:xlink="http://www.w3.org/1999/xlink" x="0px" y="0px"
	 viewBox="0 0 275.2 366.5" style="enable-background:new 0 0 275.2 366.5;" xml:space="preserve">
<title>cimerkep_08</title>
<g>
	<g>
		
			<line style="fill:none;stroke:#000000;stroke-width:1.76;stroke-linecap:round;stroke-linejoin:round;" x1="54.9" y1="237.3" x2="55.9" y2="233.7"/>
		<path style="fill:#FFD200;" d="M63.6,230c0,0,1.1,4.1,4,5.5s5.2,3,4.9,4s-0.1,4.8-2.3,3.8s-1.9-2.4-3.6-3.8
			c-1.5-1.2-2.9-2.6-4.2-4c-1.1-1.3-1.8-3-1.9-4.7L63.6,230z"/>
		<path style="fill:none;stroke:#000000;stroke-width:1.76;stroke-linecap:round;stroke-linejoin:round;" d="M63.6,230
			c0,0,1.1,4.1,4,5.5s5.2,3,4.9,4s-0.1,4.8-2.3,3.8s-1.9-2.4-3.6-3.8c-1.5-1.2-2.9-2.6-4.2-4c-1.1-1.3-1.8-3-1.9-4.7L63.6,230z"/>
		<path style="fill:#FFD200;" d="M56.9,229.3H45.8c-1.5,0-8.1,4.5-8.3,5.5s-2.3,7.4-0.9,9.8s0.1,6.8,0.5,7.4s3.3,0,3.3,0l2.9-1.8
			l-0.5-6l1.2-0.9v-4.5l1.8-3.5c0,0,5.8,6.1,9.3,7.4s4.2,2.6,6,2.6s1.5-2.6,1.4-3.8s-5.7-1.8-6.7-3.1S56.9,229.3,56.9,229.3"/>
		<path style="fill:none;stroke:#000000;stroke-width:1.76;stroke-linecap:round;stroke-linejoin:round;" d="M56.9,229.3H45.8
			c-1.5,0-8.1,4.5-8.3,5.5s-2.3,7.4-0.9,9.8s0.1,6.8,0.5,7.4s3.3,0,3.3,0l2.9-1.8l-0.5-6l1.2-0.9v-4.5l1.8-3.5c0,0,5.8,6.1,9.3,7.4
			s4.2,2.6,6,2.6s1.5-2.6,1.4-3.8s-5.7-1.8-6.7-3.1S56.9,229.3,56.9,229.3z"/>
		<path style="fill:none;stroke:#000000;stroke-width:1.76;stroke-linecap:round;stroke-linejoin:round;" d="M40.5,252.1v-7.8
			c0-2.2-1.3-3.3,0-4.8s0.2-3.8,0.7-4"/>
		<path style="fill:none;stroke:#000000;stroke-width:1.76;stroke-linecap:round;stroke-linejoin:round;" d="M37.9,252.3
			c0,0,0.1,3,1.7,4.7s5.3,2.8,5.3,2.8s-3.8-2.6-4.7-4.6c-0.5-0.9-0.7-2-0.6-3.1L37.9,252.3z"/>
		<path style="fill:none;stroke:#000000;stroke-width:1.76;stroke-linecap:round;stroke-linejoin:round;" d="M62.5,243.5
			c0,0,3,0.6,4.3,2.6s1.8,5.7,1.8,5.7s-1.8-4.3-3.7-5.5c-0.8-0.7-1.8-1.1-2.9-1.2L62.5,243.5z"/>
		<path style="fill:none;stroke:#000000;stroke-width:1.76;stroke-linecap:round;stroke-linejoin:round;" d="M41.4,251.2
			c0,1.3,0.5,2.5,1.3,3.5c1.1,0.9,2.5,1.6,3.9,2.1c0,0-2.8-1.9-3.4-3.4c-0.4-0.7-0.5-1.5-0.4-2.2L41.4,251.2z"/>
		<path style="fill:none;stroke:#000000;stroke-width:1.76;stroke-linecap:round;stroke-linejoin:round;" d="M49.1,254.3
			c0,1.3,0.4,2.5,1.1,3.5c1.1,1,2.4,1.7,3.8,2.2c0,0-2.7-2-3.3-3.5c-0.3-0.7-0.4-1.5-0.3-2.3L49.1,254.3z"/>
		<path style="fill:none;stroke:#000000;stroke-width:1.76;stroke-linecap:round;stroke-linejoin:round;" d="M54.3,247.7
			c-0.3,1.2-0.3,2.5,0.2,3.7c0.8,1.2,1.9,2.3,3.1,3.1c0,0-2.1-2.6-2.3-4.3c-0.1-0.8-0.1-1.6,0.3-2.3L54.3,247.7z"/>
		<path style="fill:#FFD200;" d="M67.2,225.4l-6.7,0.6c0,0-7,4-8.5,5.2c-0.6,0.6-1.2,1-1.9,1.4l-4.3,8.7l1.8,1.3c0,0,1.5,5,0.9,6.8
			c-0.4,1.3-0.6,2.5-0.7,3.8l4,0.8c0,0,0.6-7.8,0.5-9.7s2.5-6.9,2.5-6.9s0.3,4.5,0.3,5.6c-0.2,1.5-0.5,2.9-1,4.4l3.1,0.8
			c0.5-2.6,0.9-5.2,1.2-7.8c0-0.9-0.1-1.8-0.3-2.7l3.3-5l0.3-0.4l5-1c0,0,11.6,0.6,16.4,0.6s10.3-0.6,10.3-0.6l-3.4-9.5L67.2,225.4z
			"/>
		<path style="fill:none;stroke:#000000;stroke-width:1.76;stroke-linecap:round;stroke-linejoin:round;" d="M67.2,225.4l-6.7,0.6
			c0,0-7,4-8.5,5.2c-0.6,0.6-1.2,1-1.9,1.4l-4.3,8.7l1.8,1.3c0,0,1.5,5,0.9,6.8c-0.4,1.3-0.6,2.5-0.7,3.8l4,0.8c0,0,0.6-7.8,0.5-9.7
			s2.5-6.9,2.5-6.9s0.3,4.5,0.3,5.6c-0.2,1.5-0.5,2.9-1,4.4l3.1,0.8c0.5-2.6,0.9-5.2,1.2-7.8c0-0.9-0.1-1.8-0.3-2.7l3.3-5l0.3-0.4
			l5-1c0,0,11.6,0.6,16.4,0.6s10.3-0.6,10.3-0.6l-3.4-9.5L67.2,225.4z"/>
		<path style="fill:none;stroke:#000000;stroke-width:1.76;stroke-linecap:round;stroke-linejoin:round;" d="M72.2,240.3
			c1.4,0.7,2.7,1.8,3.6,3.1c1.7,2.8-0.3,7.6-0.3,7.6s1.3-4.7-0.8-7.3c-0.7-1-1.8-1.6-3-1.8L72.2,240.3z"/>
		<path style="fill:none;stroke:#000000;stroke-width:1.76;stroke-linecap:round;stroke-linejoin:round;" d="M47.6,242.5
			c0.8-1.7,1.8-3.2,2.9-4.7l0.7-0.9"/>
		<path style="fill:#FFD200;" d="M68.4,119.2c2.2-7.6,5.9-14.8,10.9-20.9c8.6-10.7,17.7-19.2,21.3-39.7S91.2,16,91.2,16
			s12.2,7.3,17.8,16.9c7.3,12.5,4.2,25.7,4.2,25.7s5.8-6.1,7.5-13c1-3.6,1.6-7.4,1.7-11.1c2.3,3.5,3.8,7.5,4.4,11.7
			c0.8,6.5-2.7,15.7-2.7,15.7c3.2-1.8,5.9-4.4,7.8-7.5l3.1-5c0,0,1,9.2-1.5,14.5c-1.8,3.7-4.2,7-7.1,10c0,0,7.6-3.8,10.4-8.8
			s3.7-6.1,3.7-6.1s0.6,7.5-1.4,12.3S134,81.8,134,81.8s7.1-5,8.6-6.9s3.3-3.8,3.3-3.8c0.4,1.7,0.4,3.5,0,5.2
			c-0.5,1.6-1.2,3.2-2.1,4.6c0,0,31.3-11.8,47.6-33.4s11.1-46.6,11.1-46.6s10.2,16.5,10.2,30.3s-9.2,24.4-9.2,24.4s9.2-2.3,14.4-8.6
			s6-10.5,6-10.5s1.3,9-2.3,16.7c-2.3,4.7-5.3,9.1-9,12.8c4.1-0.4,8.1-1.7,11.6-4c5.1-3.6,6.3-5.2,6.3-5.2s-0.6,6.9-7.7,13.6
			c-4.5,4.2-9.8,7.4-15.6,9.6c0,0,11.7-2.3,17.6-6.5s5.6-5.9,5.6-5.9s0,8.4-4.8,13.8c-3.4,3.6-7.4,6.5-11.9,8.6
			c3.4,0.1,6.7-0.9,9.6-2.7l5-3.1c0,0-1.9,6.5-7.1,10.6c-3.3,2.6-6.9,4.9-10.6,6.9c0,0,5.9,0.7,10.6-1.8s5.4-2.7,5.4-2.7
			c-1.5,3.8-4,7-7.3,9.4c-2.7,2-5.5,3.8-8.4,5.4c0,0,7.5,0,10.9-2.1l3.4-2.1c0,0-1.9,6.7-4.6,9c-2.4,1.9-5,3.7-7.7,5.3
			c0,0,5.6-1,6.1-1.6l0.6-0.6c-1.2,2.9-2.7,5.7-4.6,8.2c-2.7,3.3-7.7,4.6-7.7,4.6s3.8,0.6,5.9,0l2.1-0.6c-1.6,2.2-3.4,4.3-5.4,6.2
			c-1.9,1.4-3.9,2.5-6.1,3.2h4.6c0,0-0.6,3-5.4,5.1s-7.5,2-7.5,2s5-0.2,7.3,0l2.3,0.2c-1.1,2.9-3.4,5.2-6.3,6.3
			c-3.2,1.2-6.5,2-9.8,2.3c0,0,5.2,0.1,6.5,0.6s4.4,0,4.4,0s-6.5,3.6-10.9,4c-2.5,0.2-5,0.2-7.5,0c2.7,0.8,5.5,1.5,8.2,2.1l1.9,0.2
			c0,0-4.8,2.9-8.2,3.6c-1.9,0.5-3.9,0.5-5.8,0c2.5,1.2,5.3,1.9,8.1,2.1h3.8c0,0-5.9,4.6-9.6,5.2s-5.2,0-5.2,0l5.6,2.5
			c-1.5,1.1-3.3,1.9-5.2,2.1l-3.6,0.5l3.5,1.3c-0.8,1.3-2.1,2.2-3.5,2.4c-2.6,0.5-5.2,1.1-5.2,1.1l4,0.9c-1.5,1-3.2,1.9-5,2.4
			c-1.3,0.5-2.6,0.8-4,1l4.8,1.1c0,0-2.6,2.6-5.5,3c-1.4,0.3-2.8,0.3-4.2,0l5.3,1.9c-1.5,1.3-3.4,2.1-5.4,2.3
			c-1.1,0.2-2.3,0.2-3.4,0l3.4,1.9c-1.2,0.5-2.5,0.9-3.8,1.2c-2.3,0.6-0.1,1.1-10.3,1S93.6,186.1,86,176.6s-18.6-43.1-18.4-49.9
			S68.4,119.2,68.4,119.2"/>
		<path style="fill:none;stroke:#000000;stroke-width:1.76;stroke-linecap:round;stroke-linejoin:round;" d="M68.4,119.2
			c2.2-7.6,5.9-14.8,10.9-20.9c8.6-10.7,17.7-19.2,21.3-39.7S91.2,16,91.2,16s12.2,7.3,17.8,16.9c7.3,12.5,4.2,25.7,4.2,25.7
			s5.8-6.1,7.5-13c1-3.6,1.6-7.4,1.7-11.1c2.3,3.5,3.8,7.5,4.4,11.7c0.8,6.5-2.7,15.7-2.7,15.7c3.2-1.8,5.9-4.4,7.8-7.5l3.1-5
			c0,0,1,9.2-1.5,14.5c-1.8,3.7-4.2,7-7.1,10c0,0,7.6-3.8,10.4-8.8s3.7-6.1,3.7-6.1s0.6,7.5-1.4,12.3S134,81.8,134,81.8
			s7.1-5,8.6-6.9s3.3-3.8,3.3-3.8c0.4,1.7,0.4,3.5,0,5.2c-0.5,1.6-1.2,3.2-2.1,4.6c0,0,31.3-11.8,47.6-33.4s11.1-46.6,11.1-46.6
			s10.2,16.5,10.2,30.3s-9.2,24.4-9.2,24.4s9.2-2.3,14.4-8.6s6-10.5,6-10.5s1.3,9-2.3,16.7c-2.3,4.7-5.3,9.1-9,12.8
			c4.1-0.4,8.1-1.7,11.6-4c5.1-3.6,6.3-5.2,6.3-5.2s-0.6,6.9-7.7,13.6c-4.5,4.2-9.8,7.4-15.6,9.6c0,0,11.7-2.3,17.6-6.5
			s5.6-5.9,5.6-5.9s0,8.4-4.8,13.8c-3.4,3.6-7.4,6.5-11.9,8.6c3.4,0.1,6.7-0.9,9.6-2.7l5-3.1c0,0-1.9,6.5-7.1,10.6
			c-3.3,2.6-6.9,4.9-10.6,6.9c0,0,5.9,0.7,10.6-1.8s5.4-2.7,5.4-2.7c-1.5,3.8-4,7-7.3,9.4c-2.7,2-5.5,3.8-8.4,5.4
			c0,0,7.5,0,10.9-2.1l3.4-2.1c0,0-1.9,6.7-4.6,9c-2.4,1.9-5,3.7-7.7,5.3c0,0,5.6-1,6.1-1.6l0.6-0.6c-1.2,2.9-2.7,5.7-4.6,8.2
			c-2.7,3.3-7.7,4.6-7.7,4.6s3.8,0.6,5.9,0l2.1-0.6c-1.6,2.2-3.4,4.3-5.4,6.2c-1.9,1.4-3.9,2.5-6.1,3.2h4.6c0,0-0.6,3-5.4,5.1
			s-7.5,2-7.5,2s5-0.2,7.3,0l2.3,0.2c-1.1,2.9-3.4,5.2-6.3,6.3c-3.2,1.2-6.5,2-9.8,2.3c0,0,5.2,0.1,6.5,0.6s4.4,0,4.4,0
			s-6.5,3.6-10.9,4c-2.5,0.2-5,0.2-7.5,0c2.7,0.8,5.5,1.5,8.2,2.1l1.9,0.2c0,0-4.8,2.9-8.2,3.6c-1.9,0.5-3.9,0.5-5.8,0
			c2.5,1.2,5.3,1.9,8.1,2.1h3.8c0,0-5.9,4.6-9.6,5.2s-5.2,0-5.2,0l5.6,2.5c-1.5,1.1-3.3,1.9-5.2,2.1l-3.6,0.5l3.5,1.3
			c-0.8,1.3-2.1,2.2-3.5,2.4c-2.6,0.5-5.2,1.1-5.2,1.1l4,0.9c-1.5,1-3.2,1.9-5,2.4c-1.3,0.5-2.6,0.8-4,1l4.8,1.1c0,0-2.6,2.6-5.5,3
			c-1.4,0.3-2.8,0.3-4.2,0l5.3,1.9c-1.5,1.3-3.4,2.1-5.4,2.3c-1.1,0.2-2.3,0.2-3.4,0l3.4,1.9c-1.2,0.5-2.5,0.9-3.8,1.2
			c-2.3,0.6-0.1,1.1-10.3,1S93.6,186.1,86,176.6s-18.6-43.1-18.4-49.9S68.4,119.2,68.4,119.2z"/>
		<path style="fill:#FFD200;" d="M154.2,351.4c0,0-13.5,5.2-35.6,5.2s-33.8-6.3-33.8-6.3s14.8,13.8,36.8,14.4s35.6-5.3,35.6-5.3
			L154.2,351.4z"/>
		<path style="fill:none;stroke:#000000;stroke-width:1.76;stroke-linecap:round;stroke-linejoin:round;" d="M154.2,351.4
			c0,0-13.5,5.2-35.6,5.2s-33.8-6.3-33.8-6.3s14.8,13.8,36.8,14.4s35.6-5.3,35.6-5.3L154.2,351.4z"/>
		<path style="fill:#FFD200;" d="M213,330.2c0,0,2.8,10.6,22.6,22.5c22.2,13.4,38.7,5.4,38.7,5.4s-19.8,0.6-35.5-11.1
			c-12.6-9.4-21.5-22-22.2-24.2l-0.8-2.1L213,330.2z"/>
		<path style="fill:none;stroke:#000000;stroke-width:1.76;stroke-linecap:round;stroke-linejoin:round;" d="M213,330.2
			c0,0,2.8,10.6,22.6,22.5c22.2,13.4,38.7,5.4,38.7,5.4s-19.8,0.6-35.5-11.1c-12.6-9.4-21.5-22-22.2-24.2l-0.8-2.1L213,330.2z"/>
		<path style="fill:#FFD200;" d="M78.8,289.1c0,0-6.4-18.4-30.3-23.8c-27.8-6.3-47.7,4-47.7,4s23.2-4.8,40.1-0.8S70.2,290,70.2,290
			L78.8,289.1z"/>
		<path style="fill:none;stroke:#000000;stroke-width:1.76;stroke-linecap:round;stroke-linejoin:round;" d="M78.8,289.1
			c0,0-6.4-18.4-30.3-23.8c-27.8-6.3-47.7,4-47.7,4s23.2-4.8,40.1-0.8S70.2,290,70.2,290L78.8,289.1z"/>
		<path style="fill:#F15A24;" d="M159.9,323c0,0-11.9,9-33.6,6.3S91.9,308.2,87,301.9s-11.9-19.6-11.9-19.6l-7.4-2.5l-0.1,6.8
			c4.8,9.3,10.8,17.9,17.8,25.6c11.7,12.9,26.1,21.9,42.6,23.4s31.8-7.3,31.8-7.3L159.9,323z"/>
		<path style="fill:none;stroke:#000000;stroke-width:1.76;stroke-linecap:round;stroke-linejoin:round;" d="M159.9,323
			c0,0-11.9,9-33.6,6.3S91.9,308.2,87,301.9s-11.9-19.6-11.9-19.6l-7.4-2.5l-0.1,6.8c4.8,9.3,10.8,17.9,17.8,25.6
			c11.7,12.9,26.1,21.9,42.6,23.4s31.8-7.3,31.8-7.3L159.9,323z"/>
		<path style="fill:#FFD200;" d="M107.9,301.7c0,0-7.7-12.6-27.1-13.8s-30.7,7.5-40.1,15.3s-12.5,14.6-12.5,14.6s18.3-18.2,39.8-22
			s34.1,10,34.1,10L107.9,301.7z"/>
		<path style="fill:none;stroke:#000000;stroke-width:1.76;stroke-linecap:round;stroke-linejoin:round;" d="M107.9,301.7
			c0,0-7.7-12.6-27.1-13.8s-30.7,7.5-40.1,15.3s-12.5,14.6-12.5,14.6s18.3-18.2,39.8-22s34.1,10,34.1,10L107.9,301.7z"/>
		<path style="fill:#F15A24;" d="M159.9,310c0,0-5.6,12.3-24.2,9s-30.6-20.9-30.6-20.9l-6.8-1.1l2.5,7.1c0,0,11.9,16,28.2,20
			c10.6,2.7,21.8,0.7,30.9-5.4L159.9,310z"/>
		<path style="fill:none;stroke:#000000;stroke-width:1.76;stroke-linecap:round;stroke-linejoin:round;" d="M159.9,310
			c0,0-5.6,12.3-24.2,9s-30.6-20.9-30.6-20.9l-6.8-1.1l2.5,7.1c0,0,11.9,16,28.2,20c10.6,2.7,21.8,0.7,30.9-5.4L159.9,310z"/>
		<path style="fill:#F15A24;" d="M185.7,301.9c0,0,0,25.3-12.1,37s-24.6,14-24.6,14l-2.3,6.1l7.7,1.4c0,0,19.6-6.4,28.4-23.3
			c5.3-9.9,7.6-21.1,6.7-32.2L185.7,301.9z"/>
		<path style="fill:none;stroke:#000000;stroke-width:1.76;stroke-linecap:round;stroke-linejoin:round;" d="M185.7,301.9
			c0,0,0,25.3-12.1,37s-24.6,14-24.6,14l-2.3,6.1l7.7,1.4c0,0,19.6-6.4,28.4-23.3c5.3-9.9,7.6-21.1,6.7-32.2L185.7,301.9z"/>
		<path style="fill:#F15A24;" d="M70,118.6c0,0,5.1-6.9,9.9-10.6s7.9-11.9,7.9-11.9v5.8c-0.2,1.9-0.6,3.7-1.2,5.5
			c0,0,6.7-6,8.1-10.4c0.9-2.8,1.9-5.6,3.1-8.3c0,0,1.7,6.7,0,11.1s-2.5,6.5-2.5,6.5s5-3.7,6.7-5.8l1.7-2.1c0,0-1.9,7.7-4.4,10.6
			c-1.3,1.6-2.9,3-4.6,4.2c0,0,6.3-2.9,9-5.6s4.4-4.8,4.4-4.8s-1,7.5-4.8,11.3s-6.3,6.7-6.3,6.7s2.9-1.2,6.9-3.3l4-2.1
			c-0.7,2.1-1.5,4.2-2.5,6.2c-0.9,1.6-2.1,3-3.4,4.1c0,0,1.7,0.8,4.2-1.2s3.8-2.9,3.8-2.9s-1.5,5.6-4.2,8c-1.4,1.3-2.7,2.7-3.8,4.3
			c0,0,5.4-0.8,8-3.9s5.2-5.6,5.2-5.6s-0.2,5.8-2.7,8.6c-1.4,1.6-3.1,3-5,4c2,0.3,4-0.1,5.8-1l2.9-1.5c0,0-1.2,5-3.4,7.3
			c-1.3,1.2-2.4,2.6-3.5,4.1c0,0,4.8,0.5,6.9-1.8l2.1-2.3c-0.3,2.5-1.1,4.8-2.3,7l-1.9,3.4c0,0,7.5-6.9,10.2-23.4s0-24.4,3.1-30.9
			s9.2-6.9,16.9-9.6s7.7-2.9,10.4-4.4c1.5-0.8,2.7-1.9,3.7-3.3c0,0-1.1,6-2.7,7.1s-2.7,2.1-2.7,2.1c3.7-0.9,7.3-2.4,10.6-4.4
			c3-1.9,5.7-4.2,8.1-6.9c0,0-5,8.6-8.4,11.7s-5.6,4.6-5.6,4.6c2.7-0.6,5.4-1.5,8-2.5c2.1-0.8,4.1-1.7,6-2.9c0,0-6.9,7.1-10.9,9.4
			c-2.2,1.3-4.5,2.3-6.9,3.1c3.2,0,6.4-0.5,9.4-1.5c3.9-1.2,7.7-3,11.1-5.3c-2.3,3.8-5.5,7.1-9.2,9.6c-3.2,2.3-6.7,4.1-10.4,5.6
			c0,0,3.6,2.7,9.2,0l5.6-2.7c0,0-2.9,6-6.9,7.9s-7.1,3.3-7.1,3.3s1.5,1.5,6.5,0l5-1.5c-1.7,3.1-4.5,5.4-7.9,6.5
			c-2.4,0.7-4.8,1.5-7.1,2.5c0,0,2.7,2.1,9.8,0.4s7.9-2.9,7.9-2.9s-3.6,5-8.3,7.1s-7.5,3.1-7.5,3.1c2,0.4,4,0.6,5.9,0.7
			c2.7,0.1,4,0,4,0c-2,1.4-4.1,2.6-6.3,3.5c-1.8,0.7-3.6,1.2-5.6,1.3c0,0,1.7,2.5,6.5,2.5s5.9-1,5.9-1c-1.1,2.7-3.2,4.9-5.8,6.3
			c-2.6,1.6-5.6,2.6-8.6,3.1c0,0,5,2.3,8.4,1.9c1.8-0.3,3.6-0.3,5.4,0c-2.1,1.8-4.4,3.3-6.9,4.5c-2.9,1.1-5.9,1.9-9,2.6
			c0,0,1.5,2.3,6.5,2.9s5.9,0,5.9,0s-3.4,3.4-7.3,4.4s-5.9,0-5.9,0s2.5,4,5.2,4.4l2.7,0.4c0,0-4,2.5-5.8,2.5h-4.4
			c1.2,1.8,3.1,3,5.2,3.4l3.4,0.6c-1.6,1.9-3.9,3.1-6.3,3.4c-2,0.4-4,0.4-5.9,0c1.6,1.4,3.3,2.6,5.2,3.6l3.5,1.9
			c-2.7,0.5-5.4,0.5-8.1,0c-4.8-0.8-8-1.5-8-1.5c1.7,1.8,3.6,3.5,5.6,5c1.3,0.9,2.7,1.6,4.2,2.1c-2.1,0.8-4.4,1.4-6.7,1.5
			c-1.5,0.1-3.1,0.1-4.6,0c1.7,2.9,4.6,4.9,7.9,5.6c3.1,0.6,6.2,0.9,9.4,1c0,0-2.2,3.1-12.6,2.9c-5.2,0-10.4-0.4-15.6-1.1
			c0,0,15.1,4.4,24.4,13.6s17.3,27.6,17.3,27.6c15.1,7.2,28.6,17.4,39.7,29.9c18,20.5,18.2,42.8,25.3,51.8s11.1,10.2,11.1,10.2
			c-3.7-0.7-7.4-1.7-10.9-3.1c-2.7-1.2-5.1-2.8-7.3-4.8l1.1,7.9l-6.9-1.9c0,0-6.3-11.9-9.6-18.4c-2-4.1-3.6-8.4-4.6-12.9
			c0,0,0.8,22,5.2,33.2s8.8,13.6,8.8,13.6c-2.4-0.3-4.7-1-6.8-2c-3.4-1.7-9-6.7-9-6.7c1.6,4.9,3.5,9.6,5.7,14.3l3.1,6.3
			c0,0-10.2-10-14-17.1s-5.8-10.9-7.1-21.9c-1-8.3-2.5-16.6-4.4-24.7c-0.7-3.3-1.6-6.6-2.9-9.8c0,0,0.6,21.9,3.1,35.3
			s3.4,21.7,12.5,30.9s17.2,11.7,17.2,11.7s-11.9,0.8-26.3-8.4S169.6,337,169.6,337s0.8,12.1,3.8,16.3s8.1,9.6,8.1,9.6
			c-8.7-3.1-16-9.3-20.5-17.4c-7.5-13.6-4.8-35.5-2.7-49.9s1.3-31.8-3.9-40.5s-18.2-20.5-30.6-21.7s-17.8,1.9-25.9,0.6
			s-11.1,0.2-11.1,0.2l3.8-3.3l-6.1-1.3l5.9-1.5l-6.7-1l4.4-2.5c0,0-8.6,0.8-13.6,0.8h-7.3c0,0-17.2-8-18.6-31.4
			s15.8-42.2,18.6-47.7S70,118.6,70,118.6"/>
		<path style="fill:none;stroke:#000000;stroke-width:1.76;stroke-linecap:round;stroke-linejoin:round;" d="M70,118.6
			c0,0,5.1-6.9,9.9-10.6s7.9-11.9,7.9-11.9v5.8c-0.2,1.9-0.6,3.7-1.2,5.5c0,0,6.7-6,8.1-10.4c0.9-2.8,1.9-5.6,3.1-8.3
			c0,0,1.7,6.7,0,11.1s-2.5,6.5-2.5,6.5s5-3.7,6.7-5.8l1.7-2.1c0,0-1.9,7.7-4.4,10.6c-1.3,1.6-2.9,3-4.6,4.2c0,0,6.3-2.9,9-5.6
			s4.4-4.8,4.4-4.8s-1,7.5-4.8,11.3s-6.3,6.7-6.3,6.7s2.9-1.2,6.9-3.3l4-2.1c-0.7,2.1-1.5,4.2-2.5,6.2c-0.9,1.6-2.1,3-3.4,4.1
			c0,0,1.7,0.8,4.2-1.2s3.8-2.9,3.8-2.9s-1.5,5.6-4.2,8c-1.4,1.3-2.7,2.7-3.8,4.3c0,0,5.4-0.8,8-3.9s5.2-5.6,5.2-5.6
			s-0.2,5.8-2.7,8.6c-1.4,1.6-3.1,3-5,4c2,0.3,4-0.1,5.8-1l2.9-1.5c0,0-1.2,5-3.4,7.3c-1.3,1.2-2.4,2.6-3.5,4.1c0,0,4.8,0.5,6.9-1.8
			l2.1-2.3c-0.3,2.5-1.1,4.8-2.3,7l-1.9,3.4c0,0,7.5-6.9,10.2-23.4s0-24.4,3.1-30.9s9.2-6.9,16.9-9.6s7.7-2.9,10.4-4.4
			c1.5-0.8,2.7-1.9,3.7-3.3c0,0-1.1,6-2.7,7.1s-2.7,2.1-2.7,2.1c3.7-0.9,7.3-2.4,10.6-4.4c3-1.9,5.7-4.2,8.1-6.9c0,0-5,8.6-8.4,11.7
			s-5.6,4.6-5.6,4.6c2.7-0.6,5.4-1.5,8-2.5c2.1-0.8,4.1-1.7,6-2.9c0,0-6.9,7.1-10.9,9.4c-2.2,1.3-4.5,2.3-6.9,3.1
			c3.2,0,6.4-0.5,9.4-1.5c3.9-1.2,7.7-3,11.1-5.3c-2.3,3.8-5.5,7.1-9.2,9.6c-3.2,2.3-6.7,4.1-10.4,5.6c0,0,3.6,2.7,9.2,0l5.6-2.7
			c0,0-2.9,6-6.9,7.9s-7.1,3.3-7.1,3.3s1.5,1.5,6.5,0l5-1.5c-1.7,3.1-4.5,5.4-7.9,6.5c-2.4,0.7-4.8,1.5-7.1,2.5c0,0,2.7,2.1,9.8,0.4
			s7.9-2.9,7.9-2.9s-3.6,5-8.3,7.1s-7.5,3.1-7.5,3.1c2,0.4,4,0.6,5.9,0.7c2.7,0.1,4,0,4,0c-2,1.4-4.1,2.6-6.3,3.5
			c-1.8,0.7-3.6,1.2-5.6,1.3c0,0,1.7,2.5,6.5,2.5s5.9-1,5.9-1c-1.1,2.7-3.2,4.9-5.8,6.3c-2.6,1.6-5.6,2.6-8.6,3.1c0,0,5,2.3,8.4,1.9
			c1.8-0.3,3.6-0.3,5.4,0c-2.1,1.8-4.4,3.3-6.9,4.5c-2.9,1.1-5.9,1.9-9,2.6c0,0,1.5,2.3,6.5,2.9s5.9,0,5.9,0s-3.4,3.4-7.3,4.4
			s-5.9,0-5.9,0s2.5,4,5.2,4.4l2.7,0.4c0,0-4,2.5-5.8,2.5h-4.4c1.2,1.8,3.1,3,5.2,3.4l3.4,0.6c-1.6,1.9-3.9,3.1-6.3,3.4
			c-2,0.4-4,0.4-5.9,0c1.6,1.4,3.3,2.6,5.2,3.6l3.5,1.9c-2.7,0.5-5.4,0.5-8.1,0c-4.8-0.8-8-1.5-8-1.5c1.7,1.8,3.6,3.5,5.6,5
			c1.3,0.9,2.7,1.6,4.2,2.1c-2.1,0.8-4.4,1.4-6.7,1.5c-1.5,0.1-3.1,0.1-4.6,0c1.7,2.9,4.6,4.9,7.9,5.6c3.1,0.6,6.2,0.9,9.4,1
			c0,0-2.2,3.1-12.6,2.9c-5.2,0-10.4-0.4-15.6-1.1c0,0,15.1,4.4,24.4,13.6s17.3,27.6,17.3,27.6c15.1,7.2,28.6,17.4,39.7,29.9
			c18,20.5,18.2,42.8,25.3,51.8s11.1,10.2,11.1,10.2c-3.7-0.7-7.4-1.7-10.9-3.1c-2.7-1.2-5.1-2.8-7.3-4.8l1.1,7.9l-6.9-1.9
			c0,0-6.3-11.9-9.6-18.4c-2-4.1-3.6-8.4-4.6-12.9c0,0,0.8,22,5.2,33.2s8.8,13.6,8.8,13.6c-2.4-0.3-4.7-1-6.8-2
			c-3.4-1.7-9-6.7-9-6.7c1.6,4.9,3.5,9.6,5.7,14.3l3.1,6.3c0,0-10.2-10-14-17.1s-5.8-10.9-7.1-21.9c-1-8.3-2.5-16.6-4.4-24.7
			c-0.7-3.3-1.6-6.6-2.9-9.8c0,0,0.6,21.9,3.1,35.3s3.4,21.7,12.5,30.9s17.2,11.7,17.2,11.7s-11.9,0.8-26.3-8.4S169.6,337,169.6,337
			s0.8,12.1,3.8,16.3s8.1,9.6,8.1,9.6c-8.7-3.1-16-9.3-20.5-17.4c-7.5-13.6-4.8-35.5-2.7-49.9s1.3-31.8-3.9-40.5
			s-18.2-20.5-30.6-21.7s-17.8,1.9-25.9,0.6s-11.1,0.2-11.1,0.2l3.8-3.3l-6.1-1.3l5.9-1.5l-6.7-1l4.4-2.5c0,0-8.6,0.8-13.6,0.8h-7.3
			c0,0-17.2-8-18.6-31.4s15.8-42.2,18.6-47.7S70,118.6,70,118.6z"/>
		<path style="fill:#F15A24;" d="M23.3,141.6c0,0-4.4-4.2-3.6-13.4s-2.3-9.2-2.3-9.2s2.5-2.1,4.1,0l1.6,2.1c0,0,3.6-3.4,6.1-11.3
			s-2.5-16.1,3.3-26.5c3.5-6.1,9.6-10.2,16.6-11.1c0,0-9.2,4.8-11.9,13s-1.1,13.6-1.1,13.6s3.4-16.3,18-26.7c8.8-6.2,19.4-9,30.1-8
			c0,0-23.6,5.7-31.7,15.7c-5.1,6.5-9,13.8-11.5,21.7c0,0,7.8-13.6,20.7-21.9s29.5-4.2,29.5-4.2S70.9,79,61.5,86
			c-7.1,5.2-12.8,12.1-16.7,20c4.5-4.4,9.4-8.2,14.8-11.5c8-4.8,19.4-3.8,19.4-3.8s-12.8,2.7-20,7.9s-9,9-9,9
			c4.2-0.1,8.3,0.4,12.3,1.5c6.3,1.7,8.3,5.2,13.8,8.4s7.5,1.6,7.5,1.6s-1.3,2.9-3.4,2.9h-2.9c2,1.2,3.8,2.9,5.2,4.8
			c2.1,3.1,2.9,3.5,6.7,4.4c0,0-1.9,2.5-3.8,2.1l-1.9-0.4c0,0-0.4,10.7,7.1,16.4s11.5,6.5,11.5,6.5s-2.9,2.6-8.3,1.5s-7.1-3.6-8.4-2
			s2.9,6.3,6.3,7.7l3.4,1.3c-3.7,0.2-7.5-0.4-10.9-1.7c-6.1-2.3-6.5-0.6-5,4.4s3.3,9,3.3,9s-6.1-4.6-8.8-7.9s-1.7-6.5-5.2-3.1
			s-3.6,7.1-3.8,10.9l-0.2,3.8c0,0-3.8-6.5-2.7-12.5s1.7-6.9-0.6-7.5s-7.5,5.2-7.5,5.2s9.6-12.6,10.5-21.5s-4.1-12-10.7-10.9
			s-11.6,7.6-11.6,7.6l-7.8,4L23.3,141.6z"/>
		<path style="fill:none;stroke:#000000;stroke-width:1.76;stroke-linecap:round;stroke-linejoin:round;" d="M23.3,141.6
			c0,0-4.4-4.2-3.6-13.4s-2.3-9.2-2.3-9.2s2.5-2.1,4.1,0l1.6,2.1c0,0,3.6-3.4,6.1-11.3s-2.5-16.1,3.3-26.5
			c3.5-6.1,9.6-10.2,16.6-11.1c0,0-9.2,4.8-11.9,13s-1.1,13.6-1.1,13.6s3.4-16.3,18-26.7c8.8-6.2,19.4-9,30.1-8
			c0,0-23.6,5.7-31.7,15.7c-5.1,6.5-9,13.8-11.5,21.7c0,0,7.8-13.6,20.7-21.9s29.5-4.2,29.5-4.2S70.9,79,61.5,86
			c-7.1,5.2-12.8,12.1-16.7,20c4.5-4.4,9.4-8.2,14.8-11.5c8-4.8,19.4-3.8,19.4-3.8s-12.8,2.7-20,7.9s-9,9-9,9
			c4.2-0.1,8.3,0.4,12.3,1.5c6.3,1.7,8.3,5.2,13.8,8.4s7.5,1.6,7.5,1.6s-1.3,2.9-3.4,2.9h-2.9c2,1.2,3.8,2.9,5.2,4.8
			c2.1,3.1,2.9,3.5,6.7,4.4c0,0-1.9,2.5-3.8,2.1l-1.9-0.4c0,0-0.4,10.7,7.1,16.4s11.5,6.5,11.5,6.5s-2.9,2.6-8.3,1.5s-7.1-3.6-8.4-2
			s2.9,6.3,6.3,7.7l3.4,1.3c-3.7,0.2-7.5-0.4-10.9-1.7c-6.1-2.3-6.5-0.6-5,4.4s3.3,9,3.3,9s-6.1-4.6-8.8-7.9s-1.7-6.5-5.2-3.1
			s-3.6,7.1-3.8,10.9l-0.2,3.8c0,0-3.8-6.5-2.7-12.5s1.7-6.9-0.6-7.5s-7.5,5.2-7.5,5.2s9.6-12.6,10.5-21.5s-4.1-12-10.7-10.9
			s-11.6,7.6-11.6,7.6l-7.8,4L23.3,141.6z"/>
		<path style="fill:#DC281E;" d="M30.5,145.5c0,0-1.9,4.2-1.4,7.5s2,4.1,2,4.1c-0.7-2.2-0.5-4.6,0.6-6.6c1.9-3.2,4.5-7.2,4.5-7.2
			l-3.1-2L30.5,145.5z"/>
		<path style="fill:none;stroke:#000000;stroke-width:1.76;stroke-linecap:round;stroke-linejoin:round;" d="M30.5,145.5
			c0,0-1.9,4.2-1.4,7.5s2,4.1,2,4.1c-0.7-2.2-0.5-4.6,0.6-6.6c1.9-3.2,4.5-7.2,4.5-7.2l-3.1-2L30.5,145.5z"/>
		<path style="fill:#FFD200;" d="M23.3,141.6c1.4-0.4,3-0.7,4.5-0.6c2.7,0,3.2,0.3,3.2,0.3l6.3-6.4c0,0,1.1,0.4,3.5,2.8
			c1.9,1.9,1.2,2.4,1.2,2.4c-2.3,1.6-3.9,4-4.3,6.8c-0.5,3.1-0.6,6.3-0.3,9.5c-2.7-1.3-4.2-4.2-3.8-7.2l0.6-5.1c0,0-3.2-0.6-6.3,5
			s-0.8,8.7-0.8,8.7s-5.9-0.4-5.5-8.4S23.3,141.6,23.3,141.6"/>
		<path style="fill:none;stroke:#000000;stroke-width:1.76;stroke-linecap:round;stroke-linejoin:round;" d="M23.3,141.6
			c1.4-0.4,3-0.7,4.5-0.6c2.7,0,3.2,0.3,3.2,0.3l6.3-6.4c0,0,1.1,0.4,3.5,2.8c1.9,1.9,1.2,2.4,1.2,2.4c-2.3,1.6-3.9,4-4.3,6.8
			c-0.5,3.1-0.6,6.3-0.3,9.5c-2.7-1.3-4.2-4.2-3.8-7.2l0.6-5.1c0,0-3.2-0.6-6.3,5s-0.8,8.7-0.8,8.7s-5.9-0.4-5.5-8.4
			S23.3,141.6,23.3,141.6z"/>
		<path style="fill:#FFD200;" d="M26.9,137.4c-0.4-2.5-0.1-5,1-7.3c0.8-1.9,1.9-3.7,3.1-5.4c0,0,1,2,0.8,6.3
			C31.5,135.4,26.9,137.4,26.9,137.4"/>
		<path style="fill:none;stroke:#000000;stroke-width:1.76;stroke-linecap:round;stroke-linejoin:round;" d="M26.9,137.4
			c-0.4-2.5-0.1-5,1-7.3c0.8-1.9,1.9-3.7,3.1-5.4c0,0,1,2,0.8,6.3C31.5,135.4,26.9,137.4,26.9,137.4z"/>
		<path style="fill:none;stroke:#000000;stroke-width:1.76;stroke-linecap:round;stroke-linejoin:round;" d="M45.9,130.1
			c0,0,10.4-7.7,18.6-1.1c4.8,3.6,6.8,9.8,5.2,15.5"/>
		<path style="fill:none;stroke:#000000;stroke-width:1.76;stroke-linecap:round;stroke-linejoin:round;" d="M26.9,137.4
			c0,0-3.8-3.2-1.9-10.2c1.7-6.1,4.8-6.1,6.7-11.7c1.1-2.9,1.7-6.1,1.7-9.2"/>
		<path style="fill:none;stroke:#000000;stroke-width:1.76;stroke-linecap:round;stroke-linejoin:round;" d="M26.9,137.4
			c0,0,6,0.2,8.5-9.2c0.9-3.5-0.8-6.4,0-10.6c1.1-6,4.6-7.1,4.6-7.1"/>
		<path style="fill:none;stroke:#000000;stroke-width:1.76;stroke-linecap:round;stroke-linejoin:round;" d="M114,152.6
			c0,0-5.6,6.3-12.1,9.6s-13.4,5-13.2,10.7s9,8.6,11.1,17.1c1.4,5.1,4.6,9.6,9,12.5"/>
		<path style="fill:none;stroke:#000000;stroke-width:1.76;stroke-linecap:round;stroke-linejoin:round;" d="M55.2,179.6
			c-2.3,7.4-2.3,15.4,0,22.8c3.8,12.5,12.5,17.4,12.5,17.4"/>
		<path style="fill:none;stroke:#000000;stroke-width:1.76;stroke-linecap:round;stroke-linejoin:round;" d="M130.7,162.7
			c0,0,3.6,1.9,6.9,0l3.3-1.9c-0.8,2.6-2.6,4.7-5.1,5.9c-3.9,1.7-5.1,1.5-5.1,1.5s3.3,1.7,5.1,1.7h2.6c0,0-1.9,2.1-7.7,3.4
			c-2.2,0.6-4.4,1.1-6.7,1.4c0,0,2.9,3.1,6.5,2.7l3.6-0.4c0,0-0.4,3.3-8.1,4.2s-7.5,0-7.5,0"/>
		<path style="fill:none;stroke:#000000;stroke-width:1.76;stroke-linecap:round;stroke-linejoin:round;" d="M139.1,103.7
			c1.9-0.4,3.7-0.9,5.4-1.7c1.2-0.6,2.3-1.3,3.3-2.3c0,0-1.3,4-2.9,5.4c-0.9,0.8-1.8,1.4-2.9,1.9c1.6,0.1,3.2,0.1,4.8,0
			c0.8-0.1,1.7-0.1,2.5,0c0,0-0.3,1.7-4.4,3.8"/>
		<path style="fill:none;stroke:#000000;stroke-width:1.76;stroke-linecap:round;stroke-linejoin:round;" d="M137.8,135.3
			c1.8-0.6,3.5-1.5,4.9-2.9c0,0-1.4,4-2.9,5.4c-0.9,0.8-1.8,1.4-2.9,1.9c1.6,0.1,3.2,0.1,4.8,0c0.8-0.1,1.7-0.1,2.5,0
			c0,0-0.3,1.7-4.4,3.9"/>
		<path style="fill:none;stroke:#000000;stroke-width:1.76;stroke-linecap:round;stroke-linejoin:round;" d="M125.3,209.1
			c0,0,9.6,4.4,15.5,9.8c9.3,8.4,9.8,13.6,9.8,13.6"/>
		<path style="fill:#F15A24;" d="M88.1,224.7c0,0,4.1-3.8,17.8-3.8"/>
		<path style="fill:none;stroke:#000000;stroke-width:1.76;stroke-linecap:round;stroke-linejoin:round;" d="M88.1,224.7
			c0,0,4.1-3.8,17.8-3.8"/>
		<path style="fill:#F15A24;" d="M110.8,233.7c1.9-0.4,3.7-1.4,5.1-2.8l1.9-2.2"/>
		<path style="fill:none;stroke:#000000;stroke-width:1.76;stroke-linecap:round;stroke-linejoin:round;" d="M110.8,233.7
			c1.9-0.4,3.7-1.4,5.1-2.8l1.9-2.2"/>
		<path style="fill:none;stroke:#000000;stroke-width:1.76;stroke-linecap:round;stroke-linejoin:round;" d="M169.6,337
			c0,0-2.3-6.9-2.5-23.6s1.2-39.3-9.8-60.2c-2.9-5.3-6.8-9.9-11.5-13.7"/>
		<path style="fill:none;stroke:#000000;stroke-width:1.76;stroke-linecap:round;stroke-linejoin:round;" d="M198.8,340.6
			c0,0-2.3-2.6-6.8-28.7c-2.6-15.5-6.9-31.6-16.5-45.5s-14.8-18-14.8-18"/>
		<path style="fill:#F15A24;" d="M220.6,327.8c0,0-7.4-16.5-12.7-29.3c-4.1-9.9-9.2-18.6-18.2-29c-7.1-8.2-20.2-18.5-20.2-18.5"/>
		<path style="fill:none;stroke:#000000;stroke-width:1.76;stroke-linecap:round;stroke-linejoin:round;" d="M220.6,327.8
			c0,0-7.4-16.5-12.7-29.3c-4.1-9.9-9.2-18.6-18.2-29c-7.1-8.2-20.2-18.5-20.2-18.5"/>
		<path style="fill:#F15A24;" d="M179.2,287.8c0,0-4-12.3-7.5-18.2s-7.9-12.4-7.9-12.4"/>
		<path style="fill:none;stroke:#000000;stroke-width:1.76;stroke-linecap:round;stroke-linejoin:round;" d="M179.2,287.8
			c0,0-4-12.3-7.5-18.2s-7.9-12.4-7.9-12.4"/>
		<path style="fill:#F15A24;" d="M200.7,302.5c-1.5-7.4-4.3-14.5-8.2-20.9c-8.1-12.8-11.9-15.3-11.9-15.3"/>
		<path style="fill:none;stroke:#000000;stroke-width:1.76;stroke-linecap:round;stroke-linejoin:round;" d="M200.7,302.5
			c-1.5-7.4-4.3-14.5-8.2-20.9c-8.1-12.8-11.9-15.3-11.9-15.3"/>
		<path style="fill:none;stroke:#000000;stroke-width:1.76;stroke-linecap:round;stroke-linejoin:round;" d="M113.3,58.6
			c0,0-3.9,4.4-9.3,16.2s-5.6,18.5-5.6,18.5"/>
		<path style="fill:none;stroke:#000000;stroke-width:1.76;stroke-linecap:round;stroke-linejoin:round;" d="M124.6,60.8
			c0,0-5.3,3-13.2,16.6s-9.5,23.3-9.5,23.3"/>
		<path style="fill:none;stroke:#000000;stroke-width:1.76;stroke-linecap:round;stroke-linejoin:round;" d="M126.5,73.9
			c0,0-4.9,2.6-11.3,12.6c-3.8,5.9-6.9,12.2-9.2,18.8"/>
		<path style="fill:none;stroke:#000000;stroke-width:1.76;stroke-linecap:round;stroke-linejoin:round;" d="M134,81.8
			c0,0-11.9,5.5-17.7,17s-8.3,16.8-8.3,16.8"/>
		<path style="fill:none;stroke:#000000;stroke-width:1.76;stroke-linecap:round;stroke-linejoin:round;" d="M143.7,80.8
			c0,0-13.9,6.9-20.8,16.2s-6.2,20.5-6.7,23.6s-1.2,5.8-1.2,5.8"/>
		<path style="fill:none;stroke:#000000;stroke-width:1.76;stroke-linecap:round;stroke-linejoin:round;" d="M203.4,55.5
			c-6.9,3.1-13.7,6.6-20.1,10.6c-9.1,5.8-17.8,12.1-26.1,18.9"/>
		<path style="fill:none;stroke:#000000;stroke-width:1.76;stroke-linecap:round;stroke-linejoin:round;" d="M212.4,65.9
			c0,0-3.6,0.4-18.9,3.3S165,88.4,165,88.4"/>
		<path style="fill:none;stroke:#000000;stroke-width:1.76;stroke-linecap:round;stroke-linejoin:round;" d="M209.4,78.9
			c0,0-5.9,2.5-19,2.9s-21.7,10.7-21.7,10.7"/>
		<path style="fill:none;stroke:#000000;stroke-width:1.76;stroke-linecap:round;stroke-linejoin:round;" d="M213.5,89.9
			c0,0-10.1,1.3-21.6,1.5s-22.4,9.8-22.4,9.8"/>
		<path style="fill:none;stroke:#000000;stroke-width:1.76;stroke-linecap:round;stroke-linejoin:round;" d="M210.5,101.6
			c0,0-5-0.8-18.9-0.4s-23.9,9.4-23.9,9.4"/>
		<path style="fill:none;stroke:#000000;stroke-width:1.76;stroke-linecap:round;stroke-linejoin:round;" d="M210.7,111.7
			c0,0-7.9-1.4-21.6,0c-8.5,1-16.7,3.8-24.1,8.3"/>
		<path style="fill:none;stroke:#000000;stroke-width:1.76;stroke-linecap:round;stroke-linejoin:round;" d="M212.8,121.8
			c0,0-10.2,0.2-23.7,0c-8.5,0-16.8,2.4-24.1,6.8"/>
		<path style="fill:none;stroke:#000000;stroke-width:1.76;stroke-linecap:round;stroke-linejoin:round;" d="M207.2,132.4
			c0,0-12-0.4-25.5-0.8s-20.9,5-20.9,5"/>
		<path style="fill:none;stroke:#000000;stroke-width:1.76;stroke-linecap:round;stroke-linejoin:round;" d="M203.8,141.3
			c0,0-7.5-1-22.6,0s-19.7,4.1-19.7,4.1"/>
		<path style="fill:none;stroke:#000000;stroke-width:1.76;stroke-linecap:round;stroke-linejoin:round;" d="M195.5,148.3
			c0,0-12.8-1.9-22.8,0s-18.9,3.7-18.9,3.7"/>
		<path style="fill:none;stroke:#000000;stroke-width:1.76;stroke-linecap:round;stroke-linejoin:round;" d="M189.8,157.1
			c0,0-9.9-1.1-20.1-1.3c-3,0.1-5.9-0.3-8.8-1"/>
		<path style="fill:none;stroke:#000000;stroke-width:1.76;stroke-linecap:round;stroke-linejoin:round;" d="M181.5,161.8
			c0,0-17.7-1.6-22.1-2.2s-5.2-1.5-5.2-1.5"/>
		<path style="fill:none;stroke:#000000;stroke-width:1.76;stroke-linecap:round;stroke-linejoin:round;" d="M177.7,167.7
			c0,0-9.9-1.3-13.5-1.8c-2.8-0.3-5.6-0.3-8.4-0.1"/>
		<path style="fill:none;stroke:#000000;stroke-width:1.76;stroke-linecap:round;stroke-linejoin:round;" d="M174.8,175
			c-4.6-1.8-10.6-3.5-15.2-3.7s-8.1-0.1-8.1-0.1"/>
		<path style="fill:none;stroke:#000000;stroke-width:1.76;stroke-linecap:round;stroke-linejoin:round;" d="M171.6,180.1
			c0,0-2.8-1.4-10.1-2.6c-4.8-0.7-9.6-1-14.4-0.8"/>
		<path style="fill:none;stroke:#000000;stroke-width:1.76;stroke-linecap:round;stroke-linejoin:round;" d="M166.4,184.9
			c0,0-8.7-1.1-12.1-1.8s-6.1-1.6-6.1-1.6"/>
		<path style="fill:none;stroke:#000000;stroke-width:1.76;stroke-linecap:round;stroke-linejoin:round;" d="M162.4,189.3
			c0,0-7.7-0.5-10.2-1.3c-1.1-0.3-2.2-0.7-3.3-1.2"/>
		<path style="fill:none;stroke:#000000;stroke-width:1.76;stroke-linecap:round;stroke-linejoin:round;" d="M158.4,193.8
			c0,0-8.9-1-13.5-2.7s-9.8-4.3-9.8-4.3"/>
		<path style="fill:none;stroke:#000000;stroke-width:1.76;stroke-linecap:round;stroke-linejoin:round;" d="M153.8,197.8
			c0,0-8.9-1.5-11.8-2.3c-1.4-0.4-2.8-0.8-4.1-1.3"/>
	</g>
</g>
</svg>
