<?xml version="1.0" encoding="utf-8"?>
<!-- Generator: Adobe Illustrator 23.0.2, SVG Export Plug-In . SVG Version: 6.00 Build 0)  -->
<svg version="1.1" id="Réteg_1" xmlns="http://www.w3.org/2000/svg" xmlns:xlink="http://www.w3.org/1999/xlink" x="0px" y="0px"
	 viewBox="0 0 273.9 232.9" style="enable-background:new 0 0 273.9 232.9;" xml:space="preserve">
<title>cimerkep_29</title>
<g>
	<g>
		<path style="fill:#009A3D;" d="M202.4,155.9c0,0-2.7,6.7,0,7s2.3,0.3,3,2s4-3.7,7.3,0s5.3,0.3,7.3-0.7s4-1,5.3,0s4,3.7,6.3,2.7
			s4,1,4-4.3s2.3-2.7,4.3-4s1-2,1-3.3s-0.7-5.3,0.3-6.3s1.3-2.3-0.3-4s1,1,6,2s2.3-3,5.6-3.3s3.7,0.7,5.7-1.3s0-5,3-5.3s4-1,3.3-4.3
			s-1.7-0.7-2-4s-1-4.7,1.3-6s2.7-1,2.7-4s1.3-4.7,2.3-4.7s5.3-1,3.7-3.7s-3-6.3-3-7.3s0.3-5.7-2-5s-3.3,1.7-3.3-0.7s-0.7-5-2.7-5
			S256,90,256,90s-2-2.7-3.7-2.7s-5.3,0.7-4.7,3s-1.3,3.3-3,2s-1.3-1-1.7-4s3.3-2.7-0.3-3s1.7-4.7-1-6.7s-3-3-4.7-2s3-7.3-0.7-7.3
			s-4-1-5.3,0s-3.7,1.3-3.7-1.7s-5.4-2.7-6-1.7s-4,0-4-1s6-1.3,7.3-3.7s3.3-2.3,1.3-4.7s-4.3,2-3-3s1-8.3-2-8.6s-1-2-4.3-1.3
			s1-3.3,1-4.3s-1.3-4.3-2.3-4.7c-1.5-0.7-2.8-1.6-4-2.7c-1.7-1.3,0-2.7-3.3-2.7s-3.7-0.3-4-1.3s0-2.3-4-1.3s3.3-4.7-0.7-7.3
			s-3.3-3.3-5.3-2.7s-5,0.3-6.3-1.7s-5.7-2-5.7-2s-2-0.3-2,2s-1.3,6.3-2.7,2.7s-2-6-4.3-3.7s-3.7-1.7-5.3-1s-4-3.3-5.7-1.3
			s0,3.7-1.7,3.3s-2.7-6.3-4.3-4.3s3-1-1.3-4.3s-6.6-2-6.6-2s0.3,0.7-4.3,3c-2.4,1.4-5.5,0.6-6.9-1.9c0,0-0.1-0.1-0.1-0.1l-6.3,1.3
			c0,0,0-7.3-3.3-5.7s-9.7,1.7-9.7,1.7s-3-3-3.3-0.3s-3,2-4,2.7s-1-3.3-5.3,0s1,3.3-0.7,4s-3-2.3-4.7,0.7s-2.3,1.3-5,2.3
			s-4,0.3-4,3.7s0.3,1,2.7,5.3s-2,3.7-3,3.7s-2.3-1.7-2.3,0.7s0.3,3.7-1.3,3.7s-6.7,0-6.3,2s-2.3,1.7-2.7,4s-1.7,3.7,0.7,4.7
			s5,3,2.7,4s-6,2.3-7,1.7s-4.3-0.7-4.3,1.3s-2,2.3-3.7,2S66,47,62.6,47s-10-3.3-10.3,0s-4.3,0-3.7,3.7S44,51.4,47,55s8,1,3,7
			s-8,7.7-3.7,11.3s0,0.3-2.7,3.7s-3.3-1-4.7,2.3s-9.3,5-10,4s-1.7-7.3-6-5.7s-6,1-6,3s1.7-0.3-2.3,0.3s-5-3.7-5,1s0.7,5.7-1.3,7
			s-2.6,2.3-1.3,3.6s0,3-1.3,4.3s-3,2.7,0,5s3.7-1.3,4,2.3s-1.7,2.7-1,4.3s4.3,2.7-0.7,2.3s-5-0.3-5,2s0.7,4,0,5s-3.3,6.3-1.7,6.7
			s3,4,5.7,4s-1,0.3,4.3,0.7s3.7,2.7,5.7,2.3s0.7-2.7,3.7-2.7s4,0,4,3s-2.3,3-3.7,6.3s0.7,1-1.3,3.3s-3.7,1.7-3.3,5s-3,3.7,0.3,6
			c1.8,1.4,4.1,1.9,6.3,1.3c0,0,3.3-1,4,0.3s7.3-4.7,7.3-4.7s1.7,3-0.3,4.7s-3.3,1-3.3,4s1.7,1.7-2.3,3.3s-6,0-3.3,3
			s3.7,2.3,1.7,3.7s-5.3,0-2.3,4s6.3,6.3,8.3,5.6s1.7-0.7,5-2s3.3-1,5,1s5.3,2.6,5.3,2.6c1-1.3,3-0.3,3.7-2s-0.3-0.3,0.7-2.7
			s1.3-4,3-0.7s2.7,3.3,3.7,2.7s-0.3-4.7,1.7-3s0,2.3,2.7,0.7s3.7-1,3.7-3.3c-0.2-2.1-0.2-4.2,0-6.3c0.3-4-0.3-3-1.7-4
			s-1.3,0-1.3-4.6s-3.7-5.7-3.7-5.7c-1-2.3,0.1-5,2.3-6c4-2,4.3-2.3,7.7,0s7.3,0.7,7-0.3s3.7,4,5,3s2.3-5,3.3-6.3s1.7-0.3,2.7,0
			s6.3-2,6.3-2s-2.3-5,2-2.3c2.4,1.6,5.5,1.7,8,0.3c0,0-2-2.3,3-3s7.3,1.3,7.3,1.3s4-3.7,5-4s1-0.7,3-1.7s3.3,0,6-0.7s3.3-8,6-3
			s-1.3,4.3,2.7,7.3s3.7,4.6,5.7,3c1.4-1.2,2.6-2.5,3.7-4c0,0,4.3,5,6.6,4.7s4.3-2,6,0s1.7,6,5.7,4.3s1.3-0.7,3.3-3.3s2-2.3,3.3-1.7
			s4.3-3.7,5-2.3s3.3,3,4.6,3.3s5.3-0.7,8-3.3s3.7-2.3,5.7-2.3s4-1,5.6-1.3s3.7,2.3,3.3,4.3s-2,5.9-0.3,6.1s-5.7-0.1-4.7,2.9
			s6,3,5.7,6c-0.4,2.2-1.2,4.4-2.3,6.3"/>
		<path style="fill:none;stroke:#000000;stroke-width:1.76;stroke-linecap:round;stroke-linejoin:round;" d="M202.4,155.9
			c0,0-2.7,6.7,0,7s2.3,0.3,3,2s4-3.7,7.3,0s5.3,0.3,7.3-0.7s4-1,5.3,0s4,3.7,6.3,2.7s4,1,4-4.3s2.3-2.7,4.3-4s1-2,1-3.3
			s-0.7-5.3,0.3-6.3s1.3-2.3-0.3-4s1,1,6,2s2.3-3,5.6-3.3s3.7,0.7,5.7-1.3s0-5,3-5.3s4-1,3.3-4.3s-1.7-0.7-2-4s-1-4.7,1.3-6
			s2.7-1,2.7-4s1.3-4.7,2.3-4.7s5.3-1,3.7-3.7s-3-6.3-3-7.3s0.3-5.7-2-5s-3.3,1.7-3.3-0.7s-0.7-5-2.7-5S256,90,256,90
			s-2-2.7-3.7-2.7s-5.3,0.7-4.7,3s-1.3,3.3-3,2s-1.3-1-1.7-4s3.3-2.7-0.3-3s1.7-4.7-1-6.7s-3-3-4.7-2s3-7.3-0.7-7.3s-4-1-5.3,0
			s-3.7,1.3-3.7-1.7s-5.4-2.7-6-1.7s-4,0-4-1s6-1.3,7.3-3.7s3.3-2.3,1.3-4.7s-4.3,2-3-3s1-8.3-2-8.6s-1-2-4.3-1.3s1-3.3,1-4.3
			s-1.3-4.3-2.3-4.7c-1.5-0.7-2.8-1.6-4-2.7c-1.7-1.3,0-2.7-3.3-2.7s-3.7-0.3-4-1.3s0-2.3-4-1.3s3.3-4.7-0.7-7.3s-3.3-3.3-5.3-2.7
			s-5,0.3-6.3-1.7s-5.7-2-5.7-2s-2-0.3-2,2s-1.3,6.3-2.7,2.7s-2-6-4.3-3.7s-3.7-1.7-5.3-1s-4-3.3-5.7-1.3s0,3.7-1.7,3.3
			s-2.7-6.3-4.3-4.3s3-1-1.3-4.3s-6.6-2-6.6-2s0.3,0.7-4.3,3c-2.4,1.4-5.5,0.6-6.9-1.9c0,0-0.1-0.1-0.1-0.1l-6.3,1.3
			c0,0,0-7.3-3.3-5.7s-9.7,1.7-9.7,1.7s-3-3-3.3-0.3s-3,2-4,2.7s-1-3.3-5.3,0s1,3.3-0.7,4s-3-2.3-4.7,0.7s-2.3,1.3-5,2.3
			s-4,0.3-4,3.7s0.3,1,2.7,5.3s-2,3.7-3,3.7s-2.3-1.7-2.3,0.7s0.3,3.7-1.3,3.7s-6.7,0-6.3,2s-2.3,1.7-2.7,4s-1.7,3.7,0.7,4.7
			s5,3,2.7,4s-6,2.3-7,1.7s-4.3-0.7-4.3,1.3s-2,2.3-3.7,2S66,47,62.6,47s-10-3.3-10.3,0s-4.3,0-3.7,3.7S44,51.4,47,55s8,1,3,7
			s-8,7.7-3.7,11.3s0,0.3-2.7,3.7s-3.3-1-4.7,2.3s-9.3,5-10,4s-1.7-7.3-6-5.7s-6,1-6,3s1.7-0.3-2.3,0.3s-5-3.7-5,1s0.7,5.7-1.3,7
			s-2.6,2.3-1.3,3.6s0,3-1.3,4.3s-3,2.7,0,5s3.7-1.3,4,2.3s-1.7,2.7-1,4.3s4.3,2.7-0.7,2.3s-5-0.3-5,2s0.7,4,0,5s-3.3,6.3-1.7,6.7
			s3,4,5.7,4s-1,0.3,4.3,0.7s3.7,2.7,5.7,2.3s0.7-2.7,3.7-2.7s4,0,4,3s-2.3,3-3.7,6.3s0.7,1-1.3,3.3s-3.7,1.7-3.3,5s-3,3.7,0.3,6
			c1.8,1.4,4.1,1.9,6.3,1.3c0,0,3.3-1,4,0.3s7.3-4.7,7.3-4.7s1.7,3-0.3,4.7s-3.3,1-3.3,4s1.7,1.7-2.3,3.3s-6,0-3.3,3
			s3.7,2.3,1.7,3.7s-5.3,0-2.3,4s6.3,6.3,8.3,5.6s1.7-0.7,5-2s3.3-1,5,1s5.3,2.6,5.3,2.6c1-1.3,3-0.3,3.7-2s-0.3-0.3,0.7-2.7
			s1.3-4,3-0.7s2.7,3.3,3.7,2.7s-0.3-4.7,1.7-3s0,2.3,2.7,0.7s3.7-1,3.7-3.3c-0.2-2.1-0.2-4.2,0-6.3c0.3-4-0.3-3-1.7-4
			s-1.3,0-1.3-4.6s-3.7-5.7-3.7-5.7c-1-2.3,0.1-5,2.3-6c4-2,4.3-2.3,7.7,0s7.3,0.7,7-0.3s3.7,4,5,3s2.3-5,3.3-6.3s1.7-0.3,2.7,0
			s6.3-2,6.3-2s-2.3-5,2-2.3c2.4,1.6,5.5,1.7,8,0.3c0,0-2-2.3,3-3s7.3,1.3,7.3,1.3s4-3.7,5-4s1-0.7,3-1.7s3.3,0,6-0.7s3.3-8,6-3
			s-1.3,4.3,2.7,7.3s3.7,4.6,5.7,3c1.4-1.2,2.6-2.5,3.7-4c0,0,4.3,5,6.6,4.7s4.3-2,6,0s1.7,6,5.7,4.3s1.3-0.7,3.3-3.3s2-2.3,3.3-1.7
			s4.3-3.7,5-2.3s3.3,3,4.6,3.3s5.3-0.7,8-3.3s3.7-2.3,5.7-2.3s4-1,5.6-1.3s3.7,2.3,3.3,4.3s-2,5.9-0.3,6.1s-5.7-0.1-4.7,2.9
			s6,3,5.7,6C204.4,151.8,203.6,153.9,202.4,155.9z"/>
		<path style="fill:#A67C52;" d="M60.9,168.4c0,0,7.3,0,9.8-3.6s3.3-6,7.5-6s7.3,6.6,10.9,4.9s5.6-4.4,8.2-2.9s1.8-0.9,4.4,1.8
			s4,6.9,9.8,8.4s8.7,10,8.9,14s-2,3.3-0.7,11.8s-0.4,9.3-1.8,10.9s-2.9,2.4-8.2,3.1s-5.1,6.4-8.4,6.4s0.9,2,4,0.7s4.4-3.8,8.4-3.6
			l4,0.2c0,0-2.9,2.4-3.3,5.3s-0.7,2.9-3.6,3.3s-4.7,3.3-4.7,3.3c2.2,0,4.5-0.3,6.7-0.9c1.4-0.4,2.7-1.1,3.8-2c0,0,1.3,0,1.1,2
			c-0.3,1.4-1,2.6-2,3.6c0,0,4.9-1.6,5.3-4.4s-2.2-3.3,0.4-4.9s5.3-0.9,7.8-2.2l2.4-1.3c0,0-2.4,4.4-2,6.4s-1.6,2.4-4.2,4
			s-1.8,4.7-1.8,4.7s3.3-3.6,6-3.6s3.8,1.6,5.8-1.6s2.7-6.2,4.2-7.1s4-4.2,4-4.2s5.1,2.4,5.8,6s1.1,4.7-3.1,5.3s-1.8,5.8-1.8,5.8
			s0.9-3.8,5.5-3.8s5.6-4.7,5.6-4.7s6,0.7,7.3,1.8s1.6,4.2,1.6,4.2c1.5-1.2,2-3.3,1.1-5.1c-1.3-3.3-7.1-2.4-8.6-4.9
			s-1.6-6.4-1.6-6.4s0.9-1.3,4.7,1.1s2.4,4.2,6,4.2c2.5,0.1,5,0.5,7.3,1.3c0,0-0.9-2.9-3.1-4s-5.3-1.1-6.2-2.9
			c-0.4-0.9-1-1.7-1.8-2.2c2.2-1,4.9-0.8,6.9,0.7c3.3,2.4,5.8,1.3,5.8,1.3c-1.6-0.7-3.1-1.6-4.4-2.7c-1.6-1.3-3.6-5.3-7.3-4.9
			c-2.5,0.5-5-1.2-5.5-3.7c-0.1-0.4-0.1-0.8-0.1-1.2c0-2.7,1.3-7.5,0.4-9.5s0.9-4.9,0.9-9.1s-0.4-6,2.7-8.9s8.4-7.1,8.6-10.2
			s7.3,0,11.1-2.7s7.3-8,10.9-8.2s6.4-1.1,8.6,2s7.6,3.8,7.6,3.8s-3.8-1.3-4.4-3.8s-3.8-5.3-3.8-5.3s3.1-3.6,5.5-3.8
			s-0.4-3.1,5.3-3.8s8.6-1.8,15.5-2.7s12.4,0.7,14,2s5.8,2.7,5.8,2.7c-1.5-1.3-2.9-2.6-4.2-4c-1.3-1.6-7.1-3.3-9.3-3.3
			c-1.2,0-2.4-0.2-3.6-0.7c0,0,6.6-3.1,7.5-5.6s2.9-4.4,4-6.2s9.5-10,9.5-10s-6.6,4.2-9.3,6.9c-2.6,2.6-5,5.4-7.1,8.4
			c-1.1,1.8-6.4,4.4-7.3,4.4s-14.9,5.1-17.8,5.6c-1.9,0.3-3.6,1.1-5.1,2.2c0,0-6.2,6.4-8.2,6.9c-1.9,0.2-3.9,0.2-5.8,0
			c0,0,5.1-2.9,5.1-5.1s-2.2-3.6,3.8-4s14.2-7.1,14.2-7.1s-7.1,3.6-10.6,4.2s-6.9-1.8-9.1,0.7s-4.2,2-4.2,2s-6.4-2.8-8.3-6.5
			c-0.2-0.3-0.3-0.7-0.4-1c-1.1-4.2-1.6-5.8,4.7-6.2s6-4.7,8.5-6.3s13.9-5.5,13.9-5.5s-6-0.9-10.4,0.4c-2.6,0.8-5,2.2-6.9,4.2
			c0,0-2.4-4.7-3.6-6.9s-2-9.5-2-9.5s-2.4,4.9-1.8,6.7S188,120,188,120s-2.7,2.2-5.1,2s-5.6-0.7-6.4,2.9s-0.2,8.4,2.7,10.6
			s6.9,6.6,6,7.5s-2,1.1-2.4,2.4s3.3,2.5-1.4,4.5s-8.4,3.6-9.5,2.2s-2-6.9,0.4-9.3s2-8.7,0.9-6.7l-1.1,2c0,0-2.7-0.2-3.3-4.9
			S166,116,166,116s-2.2,5.6-1.6,9.3s4,15.3,3.8,16.6s-1.8,5.3-1.8,7.3c-0.1,1.5-0.7,3-1.6,4.2c0,0-3.6,0.2-4.4,2s-4,1.6-4,1.6
			s-1.3-5.1,0-8.2s4.9-8.7,5.1-12.6s3.6-31.5,3.6-37.9s6.3-15.5,9.2-16.3s12.1-5.6,12.1-5.6s-7.3,0.4-11.5,2.2s-7.8,5.3-9.8,7.6
			s-4.7-3.8-3.3-5.6s8.4-12.9,8.4-12.9s-8,5.5-9.8,8s-2,8.4-1.1,11.3s4.4,6.4,3.1,9.5s-5.6,19.3-5.6,21.3s-6.2,14.9-7.8,15.8
			s-4.9,3.6-5.3,5.6s-4,9.1-6,7.5s-5.3-8.4-7.1-11.5s-5.1-7.8-5.1-12.6s0-8.9-1.6-12.7s-3.8-9.8-3.8-9.8l-2.7,3.1
			c0,0,4.2,9.8,4.2,12.2S121,126,121,126c-2.3-1.8-4.5-3.7-6.7-5.8c-1.3-1.6-6.7-11.3-6.7-11.3l-2.9,3.8c0,0,5.3,8.9,8,12.4
			c2.7,3.6,2.2,6.4,4.4,7.8s4.4,5.6,4.4,5.6s-2,1.1-5.6,0.2s-8.7-2.6-11.1-8.2s-4.2-9.8-4.2-9.8l-2.4,0.4c0,0,3.8,12.2,6,14
			s5.1,5.6,9.5,6.7s5.3-1.1,7.3,1.6s0.2,4.4,2,9.1s4.7,2.7,5.5,7.6c0.6,2.7,0.4,5.4-0.4,8c0,0-9.1-3.3-11.1-6.4s-1.6-8.6-2.9-12.2
			s-4.7-7.3-8-10.4s-6.7-13.1-6.7-13.1l-2.4,0.2c0,0,0.9,7.5,4.2,11.8s8.9,9.1,8.9,13.3c0.1,1.9,0,3.7-0.2,5.6c0,0-4.7-6.2-6.9-8.4
			s-5.8-2-6-7.5s0.2-11.8-1.8-14.6c-1.5-2.4-2.7-5-3.6-7.8c1,3.1,1.7,6.3,2.2,9.5c0.7,4.9-0.4,6.4-0.4,6.4s-2-3.8-3.6-7.1
			s-7.1-8.9-7.1-8.9l-3.3,3.1c0,0,6.7,4.9,8.9,8.9s2.9,10.4,3.6,13.5s5.3,9.3,5.3,9.3c-2.5,0.9-5,2-7.3,3.3c-3.3,2-5.1-1.3-8.7-3.3
			s-6.4,2.7-9.5-3.6s-6.9-18.9-6.9-18.9l-2.7,1.1c0,0,3.3,10,4.2,12.9l0.9,2.9c-1.7,0.5-3.4,0.6-5.1,0.4c-3.3-0.2-9.8,2.2-9.8,2.2
			l1.4,2.2c0,0,0.5-1.1,5.1-1.3s7.6-0.9,9.1,0.4s5.1,4.2,5.1,4.2s-2.2,0.7-4,4s-1.1,4.9-4.4,5.3C63,165.2,61.4,166.6,60.9,168.4"/>
		<path style="fill:none;stroke:#000000;stroke-width:1.76;stroke-linecap:round;stroke-linejoin:round;" d="M60.9,168.4
			c0,0,7.3,0,9.8-3.6s3.3-6,7.5-6s7.3,6.6,10.9,4.9s5.6-4.4,8.2-2.9s1.8-0.9,4.4,1.8s4,6.9,9.8,8.4s8.7,10,8.9,14s-2,3.3-0.7,11.8
			s-0.4,9.3-1.8,10.9s-2.9,2.4-8.2,3.1s-5.1,6.4-8.4,6.4s0.9,2,4,0.7s4.4-3.8,8.4-3.6l4,0.2c0,0-2.9,2.4-3.3,5.3s-0.7,2.9-3.6,3.3
			s-4.7,3.3-4.7,3.3c2.2,0,4.5-0.3,6.7-0.9c1.4-0.4,2.7-1.1,3.8-2c0,0,1.3,0,1.1,2c-0.3,1.4-1,2.6-2,3.6c0,0,4.9-1.6,5.3-4.4
			s-2.2-3.3,0.4-4.9s5.3-0.9,7.8-2.2l2.4-1.3c0,0-2.4,4.4-2,6.4s-1.6,2.4-4.2,4s-1.8,4.7-1.8,4.7s3.3-3.6,6-3.6s3.8,1.6,5.8-1.6
			s2.7-6.2,4.2-7.1s4-4.2,4-4.2s5.1,2.4,5.8,6s1.1,4.7-3.1,5.3s-1.8,5.8-1.8,5.8s0.9-3.8,5.5-3.8s5.6-4.7,5.6-4.7s6,0.7,7.3,1.8
			s1.6,4.2,1.6,4.2c1.5-1.2,2-3.3,1.1-5.1c-1.3-3.3-7.1-2.4-8.6-4.9s-1.6-6.4-1.6-6.4s0.9-1.3,4.7,1.1s2.4,4.2,6,4.2
			c2.5,0.1,5,0.5,7.3,1.3c0,0-0.9-2.9-3.1-4s-5.3-1.1-6.2-2.9c-0.4-0.9-1-1.7-1.8-2.2c2.2-1,4.9-0.8,6.9,0.7
			c3.3,2.4,5.8,1.3,5.8,1.3c-1.6-0.7-3.1-1.6-4.4-2.7c-1.6-1.3-3.6-5.3-7.3-4.9c-2.5,0.5-5-1.2-5.5-3.7c-0.1-0.4-0.1-0.8-0.1-1.2
			c0-2.7,1.3-7.5,0.4-9.5s0.9-4.9,0.9-9.1s-0.4-6,2.7-8.9s8.4-7.1,8.6-10.2s7.3,0,11.1-2.7s7.3-8,10.9-8.2s6.4-1.1,8.6,2
			s7.6,3.8,7.6,3.8s-3.8-1.3-4.4-3.8s-3.8-5.3-3.8-5.3s3.1-3.6,5.5-3.8s-0.4-3.1,5.3-3.8s8.6-1.8,15.5-2.7s12.4,0.7,14,2
			s5.8,2.7,5.8,2.7c-1.5-1.3-2.9-2.6-4.2-4c-1.3-1.6-7.1-3.3-9.3-3.3c-1.2,0-2.4-0.2-3.6-0.7c0,0,6.6-3.1,7.5-5.6s2.9-4.4,4-6.2
			s9.5-10,9.5-10s-6.6,4.2-9.3,6.9c-2.6,2.6-5,5.4-7.1,8.4c-1.1,1.8-6.4,4.4-7.3,4.4s-14.9,5.1-17.8,5.6c-1.9,0.3-3.6,1.1-5.1,2.2
			c0,0-6.2,6.4-8.2,6.9c-1.9,0.2-3.9,0.2-5.8,0c0,0,5.1-2.9,5.1-5.1s-2.2-3.6,3.8-4s14.2-7.1,14.2-7.1s-7.1,3.6-10.6,4.2
			s-6.9-1.8-9.1,0.7s-4.2,2-4.2,2s-6.4-2.8-8.3-6.5c-0.2-0.3-0.3-0.7-0.4-1c-1.1-4.2-1.6-5.8,4.7-6.2s6-4.7,8.5-6.3
			s13.9-5.5,13.9-5.5s-6-0.9-10.4,0.4c-2.6,0.8-5,2.2-6.9,4.2c0,0-2.4-4.7-3.6-6.9s-2-9.5-2-9.5s-2.4,4.9-1.8,6.7S188,120,188,120
			s-2.7,2.2-5.1,2s-5.6-0.7-6.4,2.9s-0.2,8.4,2.7,10.6s6.9,6.6,6,7.5s-2,1.1-2.4,2.4s3.3,2.5-1.4,4.5s-8.4,3.6-9.5,2.2
			s-2-6.9,0.4-9.3s2-8.7,0.9-6.7l-1.1,2c0,0-2.7-0.2-3.3-4.9S166,116,166,116s-2.2,5.6-1.6,9.3s4,15.3,3.8,16.6s-1.8,5.3-1.8,7.3
			c-0.1,1.5-0.7,3-1.6,4.2c0,0-3.6,0.2-4.4,2s-4,1.6-4,1.6s-1.3-5.1,0-8.2s4.9-8.7,5.1-12.6s3.6-31.5,3.6-37.9s6.3-15.5,9.2-16.3
			s12.1-5.6,12.1-5.6s-7.3,0.4-11.5,2.2s-7.8,5.3-9.8,7.6s-4.7-3.8-3.3-5.6s8.4-12.9,8.4-12.9s-8,5.5-9.8,8s-2,8.4-1.1,11.3
			s4.4,6.4,3.1,9.5s-5.6,19.3-5.6,21.3s-6.2,14.9-7.8,15.8s-4.9,3.6-5.3,5.6s-4,9.1-6,7.5s-5.3-8.4-7.1-11.5s-5.1-7.8-5.1-12.6
			s0-8.9-1.6-12.7s-3.8-9.8-3.8-9.8l-2.7,3.1c0,0,4.2,9.8,4.2,12.2S121,126,121,126c-2.3-1.8-4.5-3.7-6.7-5.8
			c-1.3-1.6-6.7-11.3-6.7-11.3l-2.9,3.8c0,0,5.3,8.9,8,12.4c2.7,3.6,2.2,6.4,4.4,7.8s4.4,5.6,4.4,5.6s-2,1.1-5.6,0.2
			s-8.7-2.6-11.1-8.2s-4.2-9.8-4.2-9.8l-2.4,0.4c0,0,3.8,12.2,6,14s5.1,5.6,9.5,6.7s5.3-1.1,7.3,1.6s0.2,4.4,2,9.1s4.7,2.7,5.5,7.6
			c0.6,2.7,0.4,5.4-0.4,8c0,0-9.1-3.3-11.1-6.4s-1.6-8.6-2.9-12.2s-4.7-7.3-8-10.4s-6.7-13.1-6.7-13.1l-2.4,0.2
			c0,0,0.9,7.5,4.2,11.8s8.9,9.1,8.9,13.3c0.1,1.9,0,3.7-0.2,5.6c0,0-4.7-6.2-6.9-8.4s-5.8-2-6-7.5s0.2-11.8-1.8-14.6
			c-1.5-2.4-2.7-5-3.6-7.8c1,3.1,1.7,6.3,2.2,9.5c0.7,4.9-0.4,6.4-0.4,6.4s-2-3.8-3.6-7.1s-7.1-8.9-7.1-8.9l-3.3,3.1
			c0,0,6.7,4.9,8.9,8.9s2.9,10.4,3.6,13.5s5.3,9.3,5.3,9.3c-2.5,0.9-5,2-7.3,3.3c-3.3,2-5.1-1.3-8.7-3.3s-6.4,2.7-9.5-3.6
			s-6.9-18.9-6.9-18.9l-2.7,1.1c0,0,3.3,10,4.2,12.9l0.9,2.9c-1.7,0.5-3.4,0.6-5.1,0.4c-3.3-0.2-9.8,2.2-9.8,2.2l1.4,2.2
			c0,0,0.5-1.1,5.1-1.3s7.6-0.9,9.1,0.4s5.1,4.2,5.1,4.2s-2.2,0.7-4,4s-1.1,4.9-4.4,5.3C63,165.2,61.4,166.6,60.9,168.4z"/>
		<path style="fill:none;stroke:#000000;stroke-width:1.76;stroke-linecap:round;stroke-linejoin:round;" d="M69.7,158.4
			c0,0-6.7-2-8.4,0.9s-4.2,4.9-6.4,5.3s-15.5-3.3-15.5-3.3"/>
		<path style="fill:none;stroke:#000000;stroke-width:1.76;stroke-linecap:round;stroke-linejoin:round;" d="M56.4,155.5
			c0.5,1.3,1.2,2.4,2.2,3.3c0.8,0.5,1.8,0.7,2.7,0.4"/>
		<path style="fill:#A67C52;" d="M52.2,120c0,0-6.7-4.2-10.2-4.9s-8-2.4-8-4.4s-2-12.9-2-12.9h-1.8l1.7,10.5c0,0,0.7,2-3.3,0.7
			s-8.6-6-8.6-6l0.2,2.7c0,0,2.9,4.9,7.3,6.2l4.4,1.3c0,0,0.4,0.9,6.2,3.8c3.6,1.9,7.3,3.5,11.1,4.9l2.4,0.9L52.2,120z"/>
		<path style="fill:none;stroke:#000000;stroke-width:1.76;stroke-linecap:round;stroke-linejoin:round;" d="M52.2,120
			c0,0-6.7-4.2-10.2-4.9s-8-2.4-8-4.4s-2-12.9-2-12.9h-1.8l1.7,10.5c0,0,0.7,2-3.3,0.7s-8.6-6-8.6-6l0.2,2.7c0,0,2.9,4.9,7.3,6.2
			l4.4,1.3c0,0,0.4,0.9,6.2,3.8c3.6,1.9,7.3,3.5,11.1,4.9l2.4,0.9L52.2,120z"/>
		<path style="fill:#A67C52;" d="M112.6,78.3c0,0,3.8-8.4,0.9-13.1s-7.3-1.1-10.9-6.2S99,45,99,45l2.9-0.7c0,0,0,8.4,1.3,11.1
			c0.7,1.5,2.1,2.6,3.8,2.9c-0.8-2.8-0.7-5.7,0.2-8.4c0.9-2.2,1.6-4.5,2.2-6.9l1.8,0.9c0,0-2,4.9-2,8.2c0.1,2.5,0.5,5.1,1.1,7.5
			c1.7-0.5,3.6,0.1,4.7,1.6l2,2.4c0,0,3.8-0.2,3.6-5.8s-4.2-9.3-2-14s4.7-6.4,4.7-6.4l3.1,1.1c0,0-6.4,5.5-5.6,8.4s3.1,8,2.4,12.9
			c-0.4,2.9-2.1,5.3-4.7,6.7c0,0,1.1-0.7,0,4.4s-1.7,5.3-1.7,5.3L112.6,78.3z"/>
		<path style="fill:none;stroke:#000000;stroke-width:1.76;stroke-linecap:round;stroke-linejoin:round;" d="M112.6,78.3
			c0,0,3.8-8.4,0.9-13.1s-7.3-1.1-10.9-6.2S99,45,99,45l2.9-0.7c0,0,0,8.4,1.3,11.1c0.7,1.5,2.1,2.6,3.8,2.9
			c-0.8-2.8-0.7-5.7,0.2-8.4c0.9-2.2,1.6-4.5,2.2-6.9l1.8,0.9c0,0-2,4.9-2,8.2c0.1,2.5,0.5,5.1,1.1,7.5c1.7-0.5,3.6,0.1,4.7,1.6
			l2,2.4c0,0,3.8-0.2,3.6-5.8s-4.2-9.3-2-14s4.7-6.4,4.7-6.4l3.1,1.1c0,0-6.4,5.5-5.6,8.4s3.1,8,2.4,12.9c-0.4,2.9-2.1,5.3-4.7,6.7
			c0,0,1.1-0.7,0,4.4s-1.7,5.3-1.7,5.3L112.6,78.3z"/>
		<path style="fill:#A67C52;" d="M135.9,71.9c1-2.9,2.4-5.7,4.2-8.2c1-1.3,2.1-2.6,3.3-3.8c-1.9-3-2.9-6.5-2.9-10
			c0.1-3.1,0.5-6.1,1.1-9.1l2.7-0.7c0,0-2.7,5.1-0.9,9.8c1.1,3,2,6,2.7,9.1c0,0,1.3-2.4,5.3-4.4c3.4-1.5,6.9-2.8,10.4-3.8l2,2
			c0,0-11.3,3.1-13.5,5.1s-6.7,5.8-8.4,10.4s-2,5.3-2,5.3L135.9,71.9z"/>
		<path style="fill:none;stroke:#000000;stroke-width:1.76;stroke-linecap:round;stroke-linejoin:round;" d="M135.9,71.9
			c1-2.9,2.4-5.7,4.2-8.2c1-1.3,2.1-2.6,3.3-3.8c-1.9-3-2.9-6.5-2.9-10c0.1-3.1,0.5-6.1,1.1-9.1l2.7-0.7c0,0-2.7,5.1-0.9,9.8
			c1.1,3,2,6,2.7,9.1c0,0,1.3-2.4,5.3-4.4c3.4-1.5,6.9-2.8,10.4-3.8l2,2c0,0-11.3,3.1-13.5,5.1s-6.7,5.8-8.4,10.4s-2,5.3-2,5.3
			L135.9,71.9z"/>
		<path style="fill:none;stroke:#000000;stroke-width:1.76;stroke-linecap:round;stroke-linejoin:round;" d="M93.7,154.2
			c0,0-4.9,0.4-6.2-4c-0.5-1.5-0.8-2.9-1.3-4.2c-0.1-0.2-0.1-0.4-0.2-0.6c-0.7-2.2-2-4.2-3.9-5.6c-3.3-2.4-9.3-10.9-9.3-10.9"/>
		<path style="fill:none;stroke:#000000;stroke-width:1.76;stroke-linecap:round;stroke-linejoin:round;" d="M70.8,137.8
			c0,0,5.8,3.1,6.4,6.4s8.7,1.2,8.7,1.2"/>
		<path style="fill:none;stroke:#000000;stroke-width:1.76;stroke-linecap:round;stroke-linejoin:round;" d="M236.8,129.3
			c0,0,0,3.6,5.8,0.2s9.8-0.2,9.8-0.2"/>
		<path style="fill:none;stroke:#000000;stroke-width:1.76;stroke-linecap:round;stroke-linejoin:round;" d="M89.7,50.8
			c0,0,2.9,6.9-1.3,10.4c-4.2,3.5-4.9,4-4.9,5.6s0.2,4.4,0.2,4.4"/>
		<path style="fill:none;stroke:#000000;stroke-width:1.76;stroke-linecap:round;stroke-linejoin:round;" d="M42,115.2
			c0,0-4.7-0.4-3.1-4.7s0.9-14,0.9-14"/>
		<path style="fill:none;stroke:#000000;stroke-width:1.76;stroke-linecap:round;stroke-linejoin:round;" d="M12.3,122.5
			c0,0,5.5-2.2,8.6,0.2s6.6-0.2,10-2.9s8.2-2.4,8.2-2.4"/>
		<path style="fill:none;stroke:#000000;stroke-width:1.76;stroke-linecap:round;stroke-linejoin:round;" d="M117.7,214.5
			c0,0,6.4-0.4,6.9-5.3s-2-8,0.2-10.9s0-10.6,0-10.6"/>
		<path style="fill:none;stroke:#000000;stroke-width:1.76;stroke-linecap:round;stroke-linejoin:round;" d="M103.5,159.1
			c0,0,2.4,4.7,6.2,6.9s7.5,2.9,10.9,7.8s3.1,7.1,3.1,7.1"/>
		<path style="fill:none;stroke:#000000;stroke-width:1.76;stroke-linecap:round;stroke-linejoin:round;" d="M126.1,145.1
			c0,0-1.3,5.1,1.6,7.3s5.3,6.2,5.6,9.3c0.1,2.8-0.1,5.6-0.4,8.4"/>
		<path style="fill:none;stroke:#000000;stroke-width:1.76;stroke-linecap:round;stroke-linejoin:round;" d="M132.3,187.2
			c0,0,0.7,5.3,0.9,10.6s2.2,6.2,3.1,9.5s-4.7,8.9-4.7,8.9"/>
		<path style="fill:none;stroke:#000000;stroke-width:1.76;stroke-linecap:round;stroke-linejoin:round;" d="M143.6,215
			c0,0-3.1-2.2-2.4-5.3s0.2-8.9,0.2-8.9"/>
		<path style="fill:none;stroke:#000000;stroke-width:1.76;stroke-linecap:round;stroke-linejoin:round;" d="M155.4,213.2
			c-0.6-2.3-1.6-4.5-3.1-6.4c-2.4-3.1-2.2-6-0.7-9.3s-0.4-8.6-0.4-8.6"/>
		<path style="fill:none;stroke:#000000;stroke-width:1.76;stroke-linecap:round;stroke-linejoin:round;" d="M156.5,157.1
			c0,0,1.3,4.7,0.2,7.8s-5.3,3.6-4.4,7.8l0.9,4.2"/>
		<path style="fill:none;stroke:#000000;stroke-width:1.76;stroke-linecap:round;stroke-linejoin:round;" d="M154.9,130.7
			c0,0-3.1,7.3-6.6,9.1s-2.9,8.4-6,10.9l-3.1,2.4"/>
		<path style="fill:none;stroke:#000000;stroke-width:1.76;stroke-linecap:round;stroke-linejoin:round;" d="M101.2,217.2
			c0,0-2.8-1.4-4.5-0.6s-2,3.3-4.3,2.8c-1.4-0.3-2.8-0.1-4,0.7"/>
		<path style="fill:none;stroke:#000000;stroke-width:1.76;stroke-linecap:round;stroke-linejoin:round;" d="M106.1,226.5
			c0.1,1.1-0.6,2.1-1.7,2.2c-2,0.3-4.2,0.7-4.2,0.7"/>
		<path style="fill:none;stroke:#000000;stroke-width:1.76;stroke-linecap:round;stroke-linejoin:round;" d="M166,225.1
			c0,0,1.7,2.2,3.3,2.2s3.5-1.2,4.2,1.3"/>
		<path style="fill:none;stroke:#000000;stroke-width:1.76;stroke-linecap:round;stroke-linejoin:round;" d="M174.9,212.8
			c1.1,0.2,2.2,0.3,3.4,0.3c1.8,0,3.5-0.7,5,1c0.7,0.9,1.9,1.4,3,1.2"/>
		<path style="fill:none;stroke:#000000;stroke-width:1.76;stroke-linecap:round;stroke-linejoin:round;" d="M173.3,219.9
			c0.3,0.7,0.7,1.4,1.1,2.1c2.1,2.8,3.3,2.8,3.3,2.8"/>
		<path style="fill:#009A3D;" d="M52,158.2c0.7,0,1.1-0.2,1.1-2s-2.2-0.9-0.2-2.4s0-3.8-1.1-4.2s-2,0.2-1.1-1.8s0.5-3.8-0.2-3.8
			s-2.7-0.7-3.3-0.7s-2.2-4.2-3.8-4.2s0.5-0.9-1.5,0s-4.4,1.6-4.2-0.7s-5.3-2.2-5.3-2.2"/>
		<path style="fill:none;stroke:#000000;stroke-width:1.76;stroke-linecap:round;stroke-linejoin:round;" d="M52,158.2
			c0.7,0,1.1-0.2,1.1-2s-2.2-0.9-0.2-2.4s0-3.8-1.1-4.2s-2,0.2-1.1-1.8s0.5-3.8-0.2-3.8s-2.7-0.7-3.3-0.7s-2.2-4.2-3.8-4.2
			s0.5-0.9-1.5,0s-4.4,1.6-4.2-0.7s-5.3-2.2-5.3-2.2"/>
		<path style="fill:none;stroke:#000000;stroke-width:1.76;stroke-linecap:round;stroke-linejoin:round;" d="M50,127.1l0.9-3.1
			l2.7-4.4c-0.6-0.9-0.7-2.1-0.2-3.1c0.7-2,1.8-3.1,2.4-3.3s0.7-6.4,0.7-6.4s2.7-0.9,3.3-0.2s4.7-2,4.7-2s-0.5-2.4,1.1-2
			c1.6,0.4,4.7,2.4,6,0.7s1.8-1.8,3.3-0.9s1.6,1.6,3.1,2s0.2-4.9,2.2-2.9s4.9,0,5.3,1.8s2.2,0.9,2.2,0.9"/>
		<path style="fill:none;stroke:#000000;stroke-width:1.76;stroke-linecap:round;stroke-linejoin:round;" d="M70,85.9
			c0.7-1.3,3.1-2.9,3.1-2.9s-4-0.2,0.2-2.7s4.9-2.2,4.9-2.2s3.1-0.2,3.3-0.9s1.3-3.1,5.8-3.3s4.4,1.1,4.4,1.8s-2.2,2.4,1.3,1.5
			s3.6,0,3.6,1.6s0.7,2.7,1.6,2.2s4.4-0.7,5.3,0s1.1,1.6,2.2,0.7s-0.4-2.7,2.2-1.3s2,2.4,2.4,0s0.7-2.4,4.7-3.6s5.6-0.4,5.6-0.4
			s-0.4,2,2.2,2.2s2.4-4.9,3.6-1.3s-0.4,5.1,2,4s2.9-0.9,2.7-2c-0.1-1-0.1-2.1,0-3.1c0,0-3.8-2.7-2-3.6c1.8-0.9,4.2-2.4,5.3-1.1
			s5.1,2.4,6.7,2.9s-0.7,3.8,1.8,2.9s-5.1-5.5,4.7-1.1s-0.9,2.4-0.4,3.6s0.4,0.2,1.3,1.3s0.2,4.2,0.2,4.2s2.7,1.6,1.8,2.4
			s3.3-1.6,2.9,1.1s1.3,3.6,0.9,4.2s1.8,3.1,1.1,4c-0.7,1.3-1.2,2.8-1.6,4.2c-0.3,1.2-0.4,2.5-0.4,3.8c-0.2,3.1-1.8-1.1-6.7,1.1
			s-8,0.7-8,0.7c-0.8-2-1.6-3.9-2.7-5.8c-1.1-1.8-1.3-1.8-4.4,0.2s-2,0.2-6.4,0.2s-2-1.3-4.7-3.1s-1.6,2.9-2.4,4
			c-0.5,0.7-1.4,1-2.2,0.9c0,0,0,1.6-0.2,4.4s-3.8-0.2-7.5,0.4s-0.9,2.2-3.1,4.7s-1.3,1.6-1.3,1.6s-0.4,4.9-1.1,5.3s-3.6,1.1-4,1.6
			S97,120,97,118.3s-4.9-0.4-6.9-0.7s-1.3-2.2-3.1-2.4s-2.9,0.2-3.1,1.8s-2.9,2.9-3.6,3.6c-1.1,1.2-2.6,2.1-4.2,2.4
			c-1.8,0.2,0.2,1.3-0.7,3.8c-0.9,2.4-2.2,0.2-3.6,2.7s-1.1,0.4-3.8-0.9s-3.3,2.7-4.4,2.7c-1.1-0.2-2.2,0.2-2.9,1.1
			c-0.9,1.1-3.3,0.7-4.4,0.9s-0.7-0.7-2.2-0.7s-1.3,0.4-2.2,1.3s-3.1-1.1-4.9-1.1"/>
		<path style="fill:none;stroke:#000000;stroke-width:1.76;stroke-linecap:round;stroke-linejoin:round;" d="M61.3,55l0.7,3.6
			c0,0,1.5,0.7,2-0.7c0.4-1.3,1.6-1.5,2.4-0.4s2.4-0.7,2.4-0.7s3.6,3.3,5.8,0.7s7.8-2.9,7.8-2.9c0.4,1.5,3.8-2,3.8-2s1.1-4,1.1-3.3
			s5.3,2.9,5.5,1.1s0.4-4.7,0.4-4.7c0.8,0.3,1.8,0.4,2.7,0.2c1.8-0.2,2.9-1.5,5.1-1.8s3.6,0.4,4-0.2s-0.4-2.4,1.1-2.4
			s6.4,4.7,7.5,3.5s2.7-3.5,2.7-4.7s2.9-1.3,2.9-1.3s0-5.1,1.1-5.1s0.4,1.5,1.8,2s3.1,4,6.2,3.8s2.4-0.2,3.1-1.1s1.6,3.1,1.8,3.8
			s4-1.3,5.3-2.2s5.8,0.9,8.2-0.9s2-1.8,2.9-3.1s3.1-0.7,3.1-0.7s2.9,1.8,3.8-0.2s4.2-2.2,4-0.2c-0.2,1.4-0.7,2.8-1.3,4
			c0,0,1.6-2,2.2,0.2s-2.4,2.4-2,3.5s3.3-0.7,2.9,1.8s-2.2,2.7-1.8,3.3s1.3,4.2,3.1,4.2s-6.2,0.2,1.1,3.5s-0.2,4.4,0,5.3
			s6-0.7,3.8,2.2"/>
		<path style="fill:#A67C52;" d="M71.1,58.4l-2.4-1.6c-0.6,1.9-0.3,4,0.9,5.5c2,2.9,2.4,3.3,6.4,5.6s5.8,8,5.8,8l2.7-1.6
			c0,0-0.7-6-4.7-8.4s-6.2-2.7-6.9-4L71.1,58.4"/>
		<path style="fill:none;stroke:#000000;stroke-width:1.76;stroke-linecap:round;stroke-linejoin:round;" d="M71.1,58.4l-2.4-1.6
			c-0.6,1.9-0.3,4,0.9,5.5c2,2.9,2.4,3.3,6.4,5.6s5.8,8,5.8,8l2.7-1.6c0,0-0.7-6-4.7-8.4s-6.2-2.7-6.9-4L71.1,58.4z"/>
		<path style="fill:none;stroke:#000000;stroke-width:1.76;stroke-linecap:round;stroke-linejoin:round;" d="M13,106.5
			c0.7,0.4,3.1,3.1,3.5,1.6s1.1-3.1,1.8-2.7s2-1.1,2-3.6s-2.2-4.4-0.7-4.4s2.4-1.3,3.3,0.2s2.9,3.6,3.3,1.3s1.1-5.3,1.8-3.1
			s3.8,4,5.5,1.8c0.5-0.8,1.1-1.5,1.8-2.2c0.7-0.7,4.4,3.3,5.5,0.9s1.8-2,3.1-0.7c1.2,1.4,2.2,3,3.1,4.7c0,0,4.7-1.3,4.7-2
			s1.7-1.3,1.7-1.3s2.9,4.9,3.8,2c0.4-1.4,0.9-2.7,1.5-4c0,0,4-1.3,4-2.2s-1.3-6-1.3-6"/>
		<path style="fill:none;stroke:#000000;stroke-width:1.76;stroke-linecap:round;stroke-linejoin:round;" d="M185.8,52.4
			c-1.6,1.3-3.1,3.3-1.3,4.9s0.9,1.8,0.2,2.4c-0.4,0.7-0.7,1.4-0.7,2.2c0,0,2,0.4,0.7,1.3s-1.6,2.7-0.9,2.9c0.7,0.2,1.5,0.2,2.2,0.2
			c0,0,1.6,1.8,1.6,2.7s-0.2,1.6,1.8,2s2.9-2.7,2,0.4s-2.7,4.9-1.1,6s1.6,1.8,1.8,4.2s-1.8,0.9,3.3,3.1s3.1,5.5,5.3,5.3
			s5.8,1.1,6.9,0s6.9,1.6,6.6-0.9s-1.6-2.9,0-4s5.8,2.7,6.4,0.4s0-1.1,0.7-2.2s4.7,1.3,4.7-1.3c0.1-1.8,0.4-3.6,1.1-5.3
			c0,0,2.2,0.2,2-1.6"/>
		<path style="fill:none;stroke:#000000;stroke-width:1.76;stroke-linecap:round;stroke-linejoin:round;" d="M172,97.2
			c0.9,1.8,4.6,3.6,4.6,3.6s0-1.1,1.6-1.1s3.6,1.1,5.1,1.1s1.3-1.7,2.2-1.7s5.1,4.2,5.1,4.2s3.1,1.3,4.9-0.2s0.7-1.6,2.2,0.2
			s1.6,1.8,1.6,3.3s3.8,3.8,6.2,2.9s4.7-1.1,3.6,1.1s-2.2-0.2-1.8,2.2s2.7,5.1,3.3,5.1s0.7-0.4,0.7,1.1s-2.2,0.7-2.2,2.4
			s6.2,3.6,6.2,3.6s2.2-2.2,3.1-0.4s0,2.7,3.8,0.7s2.4-3.8,4.7-1.3s3.3,0.4,3.6-1.1s-4.7-2.7,0.9-3.6s6.2-0.7,6.2-2.9
			c0-1.2-0.3-2.5-0.9-3.6c1-0.1,2-0.4,2.9-0.9c1.1-0.7-0.2-2.4,0.2-3.3s3.3,0.7,4-1.3c0.4-1.6,0.4-3.3,0-4.9c0,0,3.8-1.8,2.4-3.6
			c-0.7-0.9-1.4-1.8-2.2-2.7"/>
		<path style="fill:none;stroke:#000000;stroke-width:1.76;stroke-linecap:round;stroke-linejoin:round;" d="M215.8,160.1
			c6.5,1.6,3.3-1.9,4.9-1.9h3.6c0,0,2.9,0,3.6,1s1,2.9,2.6,2.9s0.6-4.9,1-5.8s4.9-1.3,4.9-2.9c-0.2-1.9-0.5-3.7-1-5.5"/>
	</g>
</g>
</svg>
