<?xml version="1.0" encoding="utf-8"?>
<!-- Generator: Adobe Illustrator 23.0.2, SVG Export Plug-In . SVG Version: 6.00 Build 0)  -->
<svg version="1.1" id="Réteg_1" xmlns="http://www.w3.org/2000/svg" xmlns:xlink="http://www.w3.org/1999/xlink" x="0px" y="0px"
	 viewBox="0 0 218.8 295.1" style="enable-background:new 0 0 218.8 295.1;" xml:space="preserve">
<title>cimerkep_26</title>
<g>
	<g>
		<path style="fill-rule:evenodd;clip-rule:evenodd;fill:#FFD200;" d="M131.7,289.8c0,0-3.4-8.3-9.4-10s-13.4-0.3-16.6-4
			s-6-14.3-6-14.3s0.3-43.1,1.1-53.1s1.4-13.4,1.4-13.4s7.7-7.4,13.7-13.4s11.1-17.1,11.1-17.1l-33-19.3c0,0-2.4,44.5-2.7,47
			s-4.6,6.6-6,9.1s4.2,4.9,4.6,9.6c0.7,7.9,1.6,42,1.9,48.8c0.2,4.1-3.4,0.9-3.7,6.1c-0.2,3.1,0.5,6.1,2,8.9l8.6,10
			c0,0,8.3,7.7,12.3,8.8c2.7,0.7,5.5,0.9,8.3,0.6c0,0,0.6-4-1.1-6l-1.7-2c0,0,5.7,4.9,9.4,4.9C128,291,129.9,290.6,131.7,289.8"/>
		<path style="fill:none;stroke:#000000;stroke-width:1.76;stroke-linecap:round;stroke-linejoin:round;" d="M131.7,289.8
			c0,0-3.4-8.3-9.4-10s-13.4-0.3-16.6-4s-6-14.3-6-14.3s0.3-43.1,1.1-53.1s1.4-13.4,1.4-13.4s7.7-7.4,13.7-13.4s11.1-17.1,11.1-17.1
			l-33-19.3c0,0-2.4,44.5-2.7,47s-4.6,6.6-6,9.1s4.2,4.9,4.6,9.6c0.7,7.9,1.6,42,1.9,48.8c0.2,4.1-3.4,0.9-3.7,6.1
			c-0.2,3.1,0.5,6.1,2,8.9l8.6,10c0,0,8.3,7.7,12.3,8.8c2.7,0.7,5.5,0.9,8.3,0.6c0,0,0.6-4-1.1-6l-1.7-2c0,0,5.7,4.9,9.4,4.9
			C128,291,129.9,290.6,131.7,289.8z"/>
		<path style="fill:none;stroke:#000000;stroke-width:1.76;stroke-linecap:round;stroke-linejoin:round;" d="M98.3,172.2
			c0,0-2.1,12.8-2.4,17.1"/>
		<path style="fill-rule:evenodd;clip-rule:evenodd;fill:#FFD200;" d="M92.9,270.2c1.3,2.3,2.8,4.6,4.4,6.6
			c5.2,6.9,13.7,11.3,13.7,11.3"/>
		<path style="fill:none;stroke:#000000;stroke-width:1.76;stroke-linecap:round;stroke-linejoin:round;" d="M92.9,270.2
			c1.3,2.3,2.8,4.6,4.4,6.6c5.2,6.9,13.7,11.3,13.7,11.3"/>
		<path style="fill-rule:evenodd;clip-rule:evenodd;fill:#FFD200;" d="M103.1,289.8c0,0-3.4-8.3-9.4-10s-13.4-0.3-16.5-4
			s-6-14.3-6-14.3s0.3-43.1,1.1-53.1s1.4-13.4,1.4-13.4s7.7-7.4,13.7-13.4s18.5-29.5,18.5-29.5l-40.3-6.9c0,0-2.4,44.5-2.7,47
			s-4.6,6.6-6,9.1s4.2,4.9,4.6,9.6c0.7,7.9,1.6,42,1.9,48.8c0.2,4.1-3.4,0.9-3.7,6.1c-0.2,3.1,0.5,6.1,2,8.9l8.6,10
			c0,0,8.3,7.7,12.3,8.8c2.7,0.7,5.5,0.9,8.3,0.6c0,0,0.6-4-1.1-6l-1.7-2c0,0,5.7,4.9,9.4,4.9C99.4,290.9,101.3,290.5,103.1,289.8"
			/>
		<path style="fill:none;stroke:#000000;stroke-width:1.76;stroke-linecap:round;stroke-linejoin:round;" d="M103.1,289.8
			c0,0-3.4-8.3-9.4-10s-13.4-0.3-16.5-4s-6-14.3-6-14.3s0.3-43.1,1.1-53.1s1.4-13.4,1.4-13.4s7.7-7.4,13.7-13.4s18.5-29.5,18.5-29.5
			l-40.3-6.9c0,0-2.4,44.5-2.7,47s-4.6,6.6-6,9.1s4.2,4.9,4.6,9.6c0.7,7.9,1.6,42,1.9,48.8c0.2,4.1-3.4,0.9-3.7,6.1
			c-0.2,3.1,0.5,6.1,2,8.9l8.6,10c0,0,8.3,7.7,12.3,8.8c2.7,0.7,5.5,0.9,8.3,0.6c0,0,0.6-4-1.1-6l-1.7-2c0,0,5.7,4.9,9.4,4.9
			C99.4,291,101.3,290.6,103.1,289.8z"/>
		<path style="fill:none;stroke:#000000;stroke-width:1.76;stroke-linecap:round;stroke-linejoin:round;" d="M69.7,172.2
			c0,0-2.1,12.8-2.3,17.1"/>
		<path style="fill-rule:evenodd;clip-rule:evenodd;fill:#FFD200;" d="M64.3,270.2c1.3,2.3,2.8,4.6,4.4,6.6
			c5.2,6.9,13.7,11.3,13.7,11.3"/>
		<path style="fill:none;stroke:#000000;stroke-width:1.76;stroke-linecap:round;stroke-linejoin:round;" d="M64.3,270.2
			c1.3,2.3,2.8,4.6,4.4,6.6c5.2,6.9,13.7,11.3,13.7,11.3"/>
		<path style="fill-rule:evenodd;clip-rule:evenodd;fill:#BDD1DB;" d="M39.8,119.1c0,0-13.7-9-25.3,3.8S6,154.6,3.5,164.1l-2.6,9.4
			c0,0,12.4-2.1,20.5-12s13.3-17.6,16.7-17.6s2.1,15.4,9.9,19.3s27.4-3.9,27.4-3.9l-3.4,7.7c0,0,9,0.9,14.1-1.7s13.3-7.3,13.3-7.3
			l-3.8,8.6c0,0,8.6,3,15.8-0.9l7.3-3.9l2.6,10.7c0,0,13.3,3,25.7-3.4s22.3-18,22.3-18s29.8,0.1,32.1-38.5
			c2.6-43.7-4.7-51.4-5.1-72.8c-0.4-19.7,2.6-19.7,2.6-19.7s5.1-0.4,7.3-3.4l2.1-3l9.9-3.4L205.5,7c0,0-3.4-8.1-14.1-5.6
			c-11,2.6-11.1,13.7-9,27.8c3.1,21.9,4.9,43.9,5.6,65.9c0.3,15-3.9,29.1-11.6,32.1c-7.7,3-9.9,1.7-9.9,1.7s-12.4-37.3-61.2-39
			C67.7,88.7,39.8,119.1,39.8,119.1"/>
		<path style="fill:none;stroke:#000000;stroke-width:1.76;stroke-linecap:round;stroke-linejoin:round;" d="M39.8,119.1
			c0,0-13.7-9-25.3,3.8S6,154.6,3.5,164.1l-2.6,9.4c0,0,12.4-2.1,20.5-12s13.3-17.6,16.7-17.6s2.1,15.4,9.9,19.3s27.4-3.9,27.4-3.9
			l-3.4,7.7c0,0,9,0.9,14.1-1.7s13.3-7.3,13.3-7.3l-3.8,8.6c0,0,8.6,3,15.8-0.9l7.3-3.9l2.6,10.7c0,0,13.3,3,25.7-3.4
			s22.3-18,22.3-18s29.8,0.1,32.1-38.5c2.6-43.7-4.7-51.4-5.1-72.8c-0.4-19.7,2.6-19.7,2.6-19.7s5.1-0.4,7.3-3.4l2.1-3l9.9-3.4
			L205.5,7c0,0-3.4-8.1-14.1-5.6c-11,2.6-11.1,13.7-9,27.8c3.1,21.9,4.9,43.9,5.6,65.9c0.3,15-3.9,29.1-11.6,32.1
			c-7.7,3-9.9,1.7-9.9,1.7s-12.4-37.3-61.2-39C67.7,88.7,39.8,119.1,39.8,119.1z"/>
		<path style="fill:none;stroke:#000000;stroke-width:1.76;stroke-linecap:round;stroke-linejoin:round;" d="M189.6,8
			c0,0,1.3-3.9,5.4-3.9s6.4,3.6,6.4,3.6s-1.5,1.8-5.8,1.8S189.6,8,189.6,8z"/>
		<polyline style="fill:none;stroke:#000000;stroke-width:1.76;stroke-linecap:round;stroke-linejoin:round;" points="205.5,6.9 
			202.1,12 208.1,13.8 		"/>
		<path style="fill:none;stroke:#000000;stroke-width:1.76;stroke-linecap:round;stroke-linejoin:round;" d="M197.4,7.1
			c0,1.1-0.9,1.9-1.9,1.9c-1.1,0-1.9-0.9-1.9-1.9c0-1.1,0.9-1.9,1.9-1.9c0,0,0,0,0,0C196.5,5.1,197.4,6,197.4,7.1
			C197.4,7,197.4,7,197.4,7.1z"/>
		<path style="fill:none;stroke:#000000;stroke-width:1.76;stroke-linecap:round;stroke-linejoin:round;" d="M5.9,172.2
			c0,0,6.8-3.1,8.6-14s3.4-13.4,3.4-13.4"/>
		<path style="fill:none;stroke:#000000;stroke-width:1.76;stroke-linecap:round;stroke-linejoin:round;" d="M22.1,160.6
			c0,0,3.2-5.9,3.2-15.8s3.4-12,3.4-12"/>
		<path style="fill:none;stroke:#000000;stroke-width:1.76;stroke-linecap:round;stroke-linejoin:round;" d="M46.4,126
			c0,0,10.3-11.1,28.3-18.8"/>
		<path style="fill:none;stroke:#000000;stroke-width:1.76;stroke-linecap:round;stroke-linejoin:round;" d="M100.3,102.3
			c0,0,16.3-3.1,28.3,8s12.8,28,12.8,28s0.9,3.1-8.3,11.7s-14.6,12-14.6,12"/>
		<path style="fill:none;stroke:#000000;stroke-width:1.76;stroke-linecap:round;stroke-linejoin:round;" d="M109.8,149.9
			c0,0,4.8-2.9,11.4-10s7.4-10.6,7.4-10.6"/>
		<path style="fill:none;stroke:#000000;stroke-width:1.76;stroke-linecap:round;stroke-linejoin:round;" d="M56.7,155.3
			c0,0,14-0.3,22.5-7.1c10.3-8.3,12-12.3,12-12.3"/>
		<path style="fill-rule:evenodd;clip-rule:evenodd;fill:#BDD1DB;" d="M175.1,143.9c11.1-4.2,18.9-14.3,20.1-26.1"/>
		<path style="fill:none;stroke:#000000;stroke-width:1.76;stroke-linecap:round;stroke-linejoin:round;" d="M175.1,143.9
			c11.1-4.2,18.9-14.3,20.1-26.1"/>
		<path style="fill-rule:evenodd;clip-rule:evenodd;fill:#BDD1DB;" d="M84.3,154.6c7.3-3.2,13.6-8.2,18.4-14.6
			c8.1-10.7,11.6-18.8,11.6-18.8"/>
		<path style="fill:none;stroke:#000000;stroke-width:1.76;stroke-linecap:round;stroke-linejoin:round;" d="M84.3,154.6
			c7.3-3.2,13.6-8.2,18.4-14.6c8.1-10.7,11.6-18.8,11.6-18.8"/>
		<path style="fill-rule:evenodd;clip-rule:evenodd;fill:#BDD1DB;" d="M128.9,166.6c0,0,7.3,1.3,16.7-5.6c5.1-3.6,9.8-7.6,14.1-12"
			/>
		<path style="fill:none;stroke:#000000;stroke-width:1.76;stroke-linecap:round;stroke-linejoin:round;" d="M128.9,166.6
			c0,0,7.3,1.3,16.7-5.6c5.1-3.6,9.8-7.6,14.1-12"/>
	</g>
</g>
</svg>
