<?xml version="1.0" encoding="utf-8"?>
<!-- Generator: Adobe Illustrator 23.0.2, SVG Export Plug-In . SVG Version: 6.00 Build 0)  -->
<svg version="1.1" id="Réteg_1" xmlns="http://www.w3.org/2000/svg" xmlns:xlink="http://www.w3.org/1999/xlink" x="0px" y="0px"
	 viewBox="0 0 246.6 324.4" style="enable-background:new 0 0 246.6 324.4;" xml:space="preserve">
<title>cimerkep_24</title>
<g>
	<g>
		<path style="fill:#FFD200;" d="M174.2,102.1c-0.9-0.8-20.8,11.9-31.2,1.9s-4-33.4-9.2-55.6s-28.7-19.6-40-18.4
			S44.9,49.2,23.5,66.4S0.9,88.7,0.9,88.7s11.6-1.5,21.7-3.1c5.3-0.7,10.5-1.9,15.6-3.4c0,0-9.8,14.2-18,19.2s-11.6,5.8-11.6,5.8
			c10.7,5,22.2,7.9,33.9,8.4c19,0.8,70.6,23.8,99.7,13.8S174.3,102.1,174.2,102.1"/>
		<path style="fill:none;stroke:#000000;stroke-width:1.76;stroke-linecap:round;stroke-linejoin:round;" d="M174.2,102.1
			c-0.9-0.8-20.8,11.9-31.2,1.9s-4-33.4-9.2-55.6s-28.7-19.6-40-18.4S44.9,49.2,23.5,66.4S0.9,88.7,0.9,88.7s11.6-1.5,21.7-3.1
			c5.3-0.7,10.5-1.9,15.6-3.4c0,0-9.8,14.2-18,19.2s-11.6,5.8-11.6,5.8c10.7,5,22.2,7.9,33.9,8.4c19,0.8,70.6,23.8,99.7,13.8
			S174.2,102.1,174.2,102.1z"/>
		<path style="fill:#FFD200;" d="M220.2,25.3c-3.8-8.8-20.2-1.3-22.7-5.9c-1.2-2.1-3.5-3.4-5.9-3.3c-0.7-2-3.4-8.7-6.5-9.2
			c-3.5-0.5-10.4-6.1-10.4-6.1s5.2,6.9,9.5,9.2c2.7,1.4,3.9,4.3,4.5,6.3l-1,0.2c-2.1-2.4-6.3-6.7-9.4-5.8c-4,1.2-13.5-1.3-13.5-1.3
			s8,5,13.5,5.3c2.3,0.2,4.4,1.3,5.8,3.1c-2.6,1.2-5,3-7,5.1c-3.4,0-8,1.6-11.1,8.9c0,0,3.9-3.9,7.4-4.3c-0.6,0.9-1.2,1.7-1.8,2.6
			c-3.1,0.5-6.9,2.5-9.5,8.7c0,0,3.5-3.5,6.8-4.2c-0.6,1.1-1.2,2.3-1.8,3.5c-2.9,1-6.1,3.6-8.1,9.7c0,0,2.9-3.6,6-4.9
			c-0.5,1.3-1,2.7-1.5,4c-2.4,1.6-4.8,4.5-6.1,9.9c1.3-1.9,2.9-3.5,4.7-4.9c-0.3,1.4-0.6,2.9-0.8,4.4c-2.3,2.6-4.2,6.9-3.6,13.6
			c0.7-2.8,1.9-5.5,3.4-7.9c0.1,1.2,0.2,2.5,0.4,3.7c-1.5,3.4-2.4,8.4,0,14.7c-0.1-3.1,0.4-6.2,1.3-9.1c0.5,1.7,1.2,3.4,1.9,5
			c-1.1,4.9-0.2,10.1,2.6,14.3c0,0-1.2-5.7-0.3-9.9c0.9,1.6,1.9,3.1,3,4.5c-0.4,4.5,1,9,3.9,12.6c-0.8-2.9-1.2-6-1.1-9
			c1.5,1.7,3,3.4,4.6,5c-1.8,2.9-3.9,6.4-6.5,11c-3,4.7-12.6,16.5-31.1,12c-23-5.6,8.3-88.3-48.6-70.4S5.4,159.3,5.4,159.3
			c14.9-12,29.6-17.7,41.7-31c0,0,1.2,15.1-12,29.9c0,0,27.7-27.7,38.5-20.5c0,0-1.6,4.5-0.7,13.4s9.8,17.4,9.8,17.4
			c-1.5-14.8,7.6-24.4,13.4-18s4.5,32.8,4.5,32.8s11.8-59.9,36.7-33.7c1.8,2,3.9,3.6,6.2,4.9c-0.4,0.9-0.8,1.7-1.1,2.6
			c-3.3,0.6-7.4,3-9.7,10.4c0,0,4-5.1,7.7-5.6c-0.7,1.9-1.4,3.7-2,5.5c-2.8,1.5-5.8,4.7-7,11.3c0,0,2.5-4.2,5.5-6.1
			c-0.6,2.1-1.1,4.2-1.5,6.2c-2.5,2.1-4.8,5.8-5.2,12.3c1-2.4,2.4-4.6,4.1-6.6c-0.4,2.4-0.7,4.8-0.9,7.1c-1.7,2.4-3,6-2.8,11.2
			c0.6-1.9,1.4-3.8,2.4-5.6c-0.1,2.4-0.1,4.8-0.1,7.2c-1.4,2.5-2.4,6-1.8,11c0.4-2,1.1-4,2-5.9c0.1,1.8,0.3,3.6,0.5,5.4
			c-1.3,2.4-2.1,5.9-1,10.7c0.3-2.2,0.8-4.3,1.6-6.3c0.4,2.4,0.8,4.7,1.2,7c-1,2.6-1.2,5.5-0.5,8.3c0.2-1.7,0.6-3.3,1.2-4.9
			c0.6,2.6,1.2,5.1,1.9,7.6c-0.8,2.3-0.8,4.8,0,7.2c0.1-1.5,0.3-3,0.8-4.4c0.6,2.2,1.2,4.4,1.9,6.5c-0.6,2.1-0.5,4.3,0.4,6.3
			c-0.1-1.3,0-2.6,0.3-3.8c0.5,1.7,1,3.3,1.5,4.9c0.1,0.2,0.1,0.4,0.2,0.6c-0.4,1.7-0.2,3.5,0.5,5.1c0-1,0-1.9,0.2-2.9l1.4,4.8
			c-0.4,1.4-0.2,2.9,0.6,4.1c-0.2-0.8-0.2-1.6-0.1-2.4l1.4,4.8c-0.2,1.2,0.1,2.5,0.8,3.6c-0.1-0.5-0.1-1-0.2-1.4
			c4.2,15,6.7,29,0.8,38.4c-7.4,11.9-18.6,2.8-22.1-7.8c-2.4-6.9,3.1-8.4,0.1-12c-4.9-6-5.7-10.6-5.7-10.6
			c1.1,12.8-3.8,12.5-1.2,18.1c3.5,7.6,1.7,9.5,3.8,14.7l0,0c0.5,1.5,1.2,2.9,2,4.3c5.4,9,15.8,10.5,23.6,5
			c24.6-17.6,5-60.6,5.3-99.4c0.3-34.1,7.1-31,16.2-38.5c0.5,0.9,1.2,1.7,2,2.3c0,0-12.7,5.3-13.5,15.6c-0.6,7.6,5,20.3,7.8,31.8
			c-0.8,6.4,1.2,8.5,1.5,8.8c0,0.5,0.1,0.9,0.1,1.4c-0.3,3-1.5,5.9-3.4,8.4c1.7-1.1,3.2-2.5,4.5-4.1c-0.6,1.6-1.5,3.1-2.6,4.4
			c1.2-0.8,2.4-1.8,3.5-2.8c-0.3,2.6-1.4,5.1-3,7.2c8-5,6.4-10.2,6.4-10.2s-0.1-0.4-0.4-1c1.6-3,1.1-5,1.1-5s0-0.1-0.1-0.4
			c-1.7-8-8.6-20.3-4.9-29.5c1.6-4,7.8-6.2,14.2-8.4c6.9,7.2,18.6,15.1,20.8,24.8c-0.5,6.5,1.4,9,2.1,9.6c0.1,0.3,0.2,0.6,0.4,0.9
			c-0.9,7.8-4.5,11.8-4.5,11.8c2.2-1.5,4.2-3.2,5.8-5.3c-0.8,2.1-1.9,4-3.3,5.8c1.6-1.1,3.1-2.3,4.5-3.7c-1,6.3-3.8,9.3-3.8,9.3
			c10.3-6.4,8.3-13.2,8.3-13.2s-0.2-0.5-0.4-1.3c2.1-3.9,1.4-6.5,1.4-6.5s-1.3-4.3-2.5-7.2c-0.5-3.8-1.4-7.2-2.9-9.1
			c-4.5-5.4-12.7-11.1-14.3-20.6c3.7-2.2,6.1-5,5.4-9.2c-0.3-1.5-0.7-2.9-1.4-4.3c5.7-9.7,14.6-20.9,9.4-27.6c-2.4-3-7-5.1-12.4-6.6
			c4-5,8-9.4,12.3-12.4l3.5-2.4c4.4,2.7,9.1,3.6,11.8,4.4c0.7,0.2,1.4,0.4,2,0.7c1.1,1.6,2.8,2.8,4.7,3.3c1.2,0.2,2.3,0.1,3.4-0.3
			c0.8,4.2-2.6,2.6-2.6,2.6c4.2,3,5.7,1,6-2.1c4.8,1.4,0.5,4.9,0.5,4.9c4.7-1.7,4.6-4.7,3.2-7.3c5.4,0.6,2.3,5.6,2.3,5.6
			c6.3-7.5-1.3-10-5.1-11.2c-2.5-0.8-6.6-2.1-9-3.6c4.9-7.4,7.8-17.9,8.6-22c0.1-0.6,0.2-1.1,0.3-1.8c1.2-1.6,2-3.5,2.3-5.4
			c0.4-2.4-0.4-5.4-1.2-7.5c2.9-4.7,4,0.7,4,0.7c-0.4-6.7-2.7-7.2-5.2-5.6c-1.9-6.4,3.3-3.5,3.3-3.5c-4.1-4.3-6.2-2.4-7.3,0.8
			c-2.8-6.5,2.8-6,2.8-6c-10.9-6.8-6.6,12.8-5.6,17.4c0.1,1.6,0,3.2-0.3,4.7c-0.4,1.9-2.3,6.5-4.2,10.4c0.1-1.3,0.2-2.8,0.2-4.4
			c-0.1-15.6-2.9-20.1-12.6-29.6c-4.3-4.2-8.3-6.7-12.4-7c-3.3-1.6-6.6-3.8-10.2-9.6c-5.2-8.3-0.2-17.4,7.3-16.3
			c3.2,0.5,6.2-2.9,10.3,0.4c1.1,0.8,2.5,1,3.9,0.8c-0.3,0.3-0.6,0.6-1,0.8c1.1,0.3,2.3-0.2,2.9-1.2l0.8-0.2
			c-0.3,0.6-0.7,1.3-1.1,1.8c1.2-0.2,2.1-1.1,2.5-2.3c0.5-0.2,0.9-0.4,1.3-0.5c-0.1,1.1-0.4,2.2-0.9,3.3c1.4-0.8,2.2-2.3,2.1-3.9
			c0.2-0.1,0.4-0.2,0.5-0.4c0.3,1.3,0.3,2.6,0.1,3.9c1.2-1.3,1.6-3.2,1-4.9c1-1.1,1.6-2.4,1.9-3.8l-0.8-0.5c0-1.3-0.1-2.5-0.4-3.8
			c-0.1,0.9-0.2,1.7-0.4,2.6c-0.1-0.4-0.1-0.8-0.2-1.3c-0.2-0.7,0,0.7-0.2,1.7c-3.7-2.2-8.6-4.3-13.7-2.6c-0.6-1.4-0.3-3.1,0.8-4.1
			c0.4,0.4,0.8,0.9,1.1,1.4c-0.1-0.7-0.3-1.3-0.5-1.8c0.2-0.1,0.5-0.3,0.7-0.4c0.6,0.6,1.1,1.2,1.6,1.9c-0.1-0.8-0.3-1.5-0.6-2.3
			h0.1l0.7-0.2c0.7,0.6,1.3,1.3,1.8,2.1c-0.1-0.8-0.4-1.6-0.6-2.3c0.3,0,0.6,0,0.9,0c0.8,0.7,1.4,1.4,2,2.3c-0.1-0.7-0.3-1.3-0.5-2
			c0.7,0.2,1.2,0.5,1.7,0.8c0.7,0.7,1.3,1.4,1.9,2.2c-0.1-0.7-0.3-1.3-0.5-2c0.3,0,0.6-0.1,0.8-0.2c0.4-0.2,0.8-0.4,1.2-0.6
			c0.7,0.9,1.4,1.9,1.9,2.9c-0.2-0.6-0.4-1.2-0.6-1.7c0.6,0.8,1.2,1.7,1.7,2.6c-0.5-1.6-1.1-3.2-1.9-4.7c0.2-0.1,0.4-0.3,0.5-0.4
			C221.3,27.9,220.8,26.6,220.2,25.3"/>
		<path style="fill:none;stroke:#000000;stroke-width:1.76;stroke-linecap:round;stroke-linejoin:round;" d="M220.2,25.3
			c-3.8-8.8-20.2-1.3-22.7-5.9c-1.2-2.1-3.5-3.4-5.9-3.3c-0.7-2-3.4-8.7-6.5-9.2c-3.5-0.5-10.4-6.1-10.4-6.1s5.2,6.9,9.5,9.2
			c2.7,1.4,3.9,4.3,4.5,6.3l-1,0.2c-2.1-2.4-6.3-6.7-9.4-5.8c-4,1.2-13.5-1.3-13.5-1.3s8,5,13.5,5.3c2.3,0.2,4.4,1.3,5.8,3.1
			c-2.6,1.2-5,3-7,5.1c-3.4,0-8,1.6-11.1,8.9c0,0,3.9-3.9,7.4-4.3c-0.6,0.9-1.2,1.7-1.8,2.6c-3.1,0.5-6.9,2.5-9.5,8.7
			c0,0,3.5-3.5,6.8-4.2c-0.6,1.1-1.2,2.3-1.8,3.5c-2.9,1-6.1,3.6-8.1,9.7c0,0,2.9-3.6,6-4.9c-0.5,1.3-1,2.7-1.5,4
			c-2.4,1.6-4.8,4.5-6.1,9.9c1.3-1.9,2.9-3.5,4.7-4.9c-0.3,1.4-0.6,2.9-0.8,4.4c-2.3,2.6-4.2,6.9-3.6,13.6c0.7-2.8,1.9-5.5,3.4-7.9
			c0.1,1.2,0.2,2.5,0.4,3.7c-1.5,3.4-2.4,8.4,0,14.7c-0.1-3.1,0.4-6.2,1.3-9.1c0.5,1.7,1.2,3.4,1.9,5c-1.1,4.9-0.2,10.1,2.6,14.3
			c0,0-1.2-5.7-0.3-9.9c0.9,1.6,1.9,3.1,3,4.5c-0.4,4.5,1,9,3.9,12.6c-0.8-2.9-1.2-6-1.1-9c1.5,1.7,3,3.4,4.6,5
			c-1.8,2.9-3.9,6.4-6.5,11c-3,4.7-12.6,16.5-31.1,12c-23-5.6,8.3-88.3-48.6-70.4S5.4,159.3,5.4,159.3c14.9-12,29.6-17.7,41.7-31
			c0,0,1.2,15.1-12,29.9c0,0,27.7-27.7,38.5-20.5c0,0-1.6,4.5-0.7,13.4s9.8,17.4,9.8,17.4c-1.5-14.8,7.6-24.4,13.4-18
			s4.5,32.8,4.5,32.8s11.8-59.9,36.7-33.7c1.8,2,3.9,3.6,6.2,4.9c-0.4,0.9-0.8,1.7-1.1,2.6c-3.3,0.6-7.4,3-9.7,10.4
			c0,0,4-5.1,7.7-5.6c-0.7,1.9-1.4,3.7-2,5.5c-2.8,1.5-5.8,4.7-7,11.3c0,0,2.5-4.2,5.5-6.1c-0.6,2.1-1.1,4.2-1.5,6.2
			c-2.5,2.1-4.8,5.8-5.2,12.3c1-2.4,2.4-4.6,4.1-6.6c-0.4,2.4-0.7,4.8-0.9,7.1c-1.7,2.4-3,6-2.8,11.2c0.6-1.9,1.4-3.8,2.4-5.6
			c-0.1,2.4-0.1,4.8-0.1,7.2c-1.4,2.5-2.4,6-1.8,11c0.4-2,1.1-4,2-5.9c0.1,1.8,0.3,3.6,0.5,5.4c-1.3,2.4-2.1,5.9-1,10.7
			c0.3-2.2,0.8-4.3,1.6-6.3c0.4,2.4,0.8,4.7,1.2,7c-1,2.6-1.2,5.5-0.5,8.3c0.2-1.7,0.6-3.3,1.2-4.9c0.6,2.6,1.2,5.1,1.9,7.6
			c-0.8,2.3-0.8,4.8,0,7.2c0.1-1.5,0.3-3,0.8-4.4c0.6,2.2,1.2,4.4,1.9,6.5c-0.6,2.1-0.5,4.3,0.4,6.3c-0.1-1.3,0-2.6,0.3-3.8
			c0.5,1.7,1,3.3,1.5,4.9c0.1,0.2,0.1,0.4,0.2,0.6c-0.4,1.7-0.2,3.5,0.5,5.1c0-1,0-1.9,0.2-2.9l1.4,4.8c-0.4,1.4-0.2,2.9,0.6,4.1
			c-0.2-0.8-0.2-1.6-0.1-2.4l1.4,4.8c-0.2,1.2,0.1,2.5,0.8,3.6c-0.1-0.5-0.1-1-0.2-1.4c4.2,15,6.7,29,0.8,38.4
			c-7.4,11.9-18.6,2.8-22.1-7.8c-2.4-6.9,3.1-8.4,0.1-12c-4.9-6-5.7-10.6-5.7-10.6c1.1,12.8-3.8,12.5-1.2,18.1
			c3.5,7.6,1.7,9.5,3.8,14.7l0,0c0.5,1.5,1.2,2.9,2,4.3c5.4,9,15.8,10.5,23.6,5c24.6-17.6,5-60.6,5.3-99.4
			c0.3-34.1,7.1-31,16.2-38.5c0.5,0.9,1.2,1.7,2,2.3c0,0-12.7,5.3-13.5,15.6c-0.6,7.6,5,20.3,7.8,31.8c-0.8,6.4,1.2,8.5,1.5,8.8
			c0,0.5,0.1,0.9,0.1,1.4c-0.3,3-1.5,5.9-3.4,8.4c1.7-1.1,3.2-2.5,4.5-4.1c-0.6,1.6-1.5,3.1-2.6,4.4c1.2-0.8,2.4-1.8,3.5-2.8
			c-0.3,2.6-1.4,5.1-3,7.2c8-5,6.4-10.2,6.4-10.2s-0.1-0.4-0.4-1c1.6-3,1.1-5,1.1-5s0-0.1-0.1-0.4c-1.7-8-8.6-20.3-4.9-29.5
			c1.6-4,7.8-6.2,14.2-8.4c6.9,7.2,18.6,15.1,20.8,24.8c-0.5,6.5,1.4,9,2.1,9.6c0.1,0.3,0.2,0.6,0.4,0.9c-0.9,7.8-4.5,11.8-4.5,11.8
			c2.2-1.5,4.2-3.2,5.8-5.3c-0.8,2.1-1.9,4-3.3,5.8c1.6-1.1,3.1-2.3,4.5-3.7c-1,6.3-3.8,9.3-3.8,9.3c10.3-6.4,8.3-13.2,8.3-13.2
			s-0.2-0.5-0.4-1.3c2.1-3.9,1.4-6.5,1.4-6.5s-1.3-4.3-2.5-7.2c-0.5-3.8-1.4-7.2-2.9-9.1c-4.5-5.4-12.7-11.1-14.3-20.6
			c3.7-2.2,6.1-5,5.4-9.2c-0.3-1.5-0.7-2.9-1.4-4.3c5.7-9.7,14.6-20.9,9.4-27.6c-2.4-3-7-5.1-12.4-6.6c4-5,8-9.4,12.3-12.4l3.5-2.4
			c4.4,2.7,9.1,3.6,11.8,4.4c0.7,0.2,1.4,0.4,2,0.7c1.1,1.6,2.8,2.8,4.7,3.3c1.2,0.2,2.3,0.1,3.4-0.3c0.8,4.2-2.6,2.6-2.6,2.6
			c4.2,3,5.7,1,6-2.1c4.8,1.4,0.5,4.9,0.5,4.9c4.7-1.7,4.6-4.7,3.2-7.3c5.4,0.6,2.3,5.6,2.3,5.6c6.3-7.5-1.3-10-5.1-11.2
			c-2.5-0.8-6.6-2.1-9-3.6c4.9-7.4,7.8-17.9,8.6-22c0.1-0.6,0.2-1.1,0.3-1.8c1.2-1.6,2-3.5,2.3-5.4c0.4-2.4-0.4-5.4-1.2-7.5
			c2.9-4.7,4,0.7,4,0.7c-0.4-6.7-2.7-7.2-5.2-5.6c-1.9-6.4,3.3-3.5,3.3-3.5c-4.1-4.3-6.2-2.4-7.3,0.8c-2.8-6.5,2.8-6,2.8-6
			c-10.9-6.8-6.6,12.8-5.6,17.4c0.1,1.6,0,3.2-0.3,4.7c-0.4,1.9-2.3,6.5-4.2,10.4c0.1-1.3,0.2-2.8,0.2-4.4
			c-0.1-15.6-2.9-20.1-12.6-29.6c-4.3-4.2-8.3-6.7-12.4-7c-3.3-1.6-6.6-3.8-10.2-9.6c-5.2-8.3-0.2-17.4,7.3-16.3
			c3.2,0.5,6.2-2.9,10.3,0.4c1.1,0.8,2.5,1,3.9,0.8c-0.3,0.3-0.6,0.6-1,0.8c1.1,0.3,2.3-0.2,2.9-1.2l0.8-0.2
			c-0.3,0.6-0.7,1.3-1.1,1.8c1.2-0.2,2.1-1.1,2.5-2.3c0.5-0.2,0.9-0.4,1.3-0.5c-0.1,1.1-0.4,2.2-0.9,3.3c1.4-0.8,2.2-2.3,2.1-3.9
			c0.2-0.1,0.4-0.2,0.5-0.4c0.3,1.3,0.3,2.6,0.1,3.9c1.2-1.3,1.6-3.2,1-4.9c1-1.1,1.6-2.4,1.9-3.8l-0.8-0.5c0-1.3-0.1-2.5-0.4-3.8
			c-0.1,0.9-0.2,1.7-0.4,2.6c-0.1-0.4-0.1-0.8-0.2-1.3c-0.2-0.7,0,0.7-0.2,1.7c-3.7-2.2-8.6-4.3-13.7-2.6c-0.6-1.4-0.3-3.1,0.8-4.1
			c0.4,0.4,0.8,0.9,1.1,1.4c-0.1-0.7-0.3-1.3-0.5-1.8c0.2-0.1,0.5-0.3,0.7-0.4c0.6,0.6,1.1,1.2,1.6,1.9c-0.1-0.8-0.3-1.5-0.6-2.3
			h0.1l0.7-0.2c0.7,0.6,1.3,1.3,1.8,2.1c-0.1-0.8-0.4-1.6-0.6-2.3c0.3,0,0.6,0,0.9,0c0.8,0.7,1.4,1.4,2,2.3c-0.1-0.7-0.3-1.3-0.5-2
			c0.7,0.2,1.2,0.5,1.7,0.8c0.7,0.7,1.3,1.4,1.9,2.2c-0.1-0.7-0.3-1.3-0.5-2c0.3,0,0.6-0.1,0.8-0.2c0.4-0.2,0.8-0.4,1.2-0.6
			c0.7,0.9,1.4,1.9,1.9,2.9c-0.2-0.6-0.4-1.2-0.6-1.7c0.6,0.8,1.2,1.7,1.7,2.6c-0.5-1.6-1.1-3.2-1.9-4.7c0.2-0.1,0.4-0.3,0.5-0.4
			C221.3,27.9,220.8,26.6,220.2,25.3z"/>
		<path style="fill:#F7931E;" d="M185,23.5c0,0,4.2-2.3,7.2-1.1c1.7,0.6,3.2,1.8,4,3.5c0,0-1.5,2.9-5.8,2
			C188.1,27.2,186.1,25.6,185,23.5"/>
		<path style="fill:none;stroke:#000000;stroke-width:1.76;stroke-linecap:round;stroke-linejoin:round;" d="M185,23.5
			c0,0,4.2-2.3,7.2-1.1c1.7,0.6,3.2,1.8,4,3.5c0,0-1.5,2.9-5.8,2C188.1,27.2,186.1,25.6,185,23.5z"/>
		<path style="fill:#FFD200;" d="M192.8,25.1c0.2,0.8-0.3,1.7-1.2,1.9s-1.7-0.3-1.9-1.2c-0.1-0.2-0.1-0.5,0-0.7
			c-0.2-0.8,0.3-1.7,1.2-1.9s1.7,0.3,1.9,1.2C192.8,24.6,192.8,24.9,192.8,25.1"/>
		<path style="fill:none;stroke:#000000;stroke-width:1.76;stroke-linecap:round;stroke-linejoin:round;" d="M192.8,25.1
			c0.2,0.8-0.3,1.7-1.2,1.9s-1.7-0.3-1.9-1.2c-0.1-0.2-0.1-0.5,0-0.7c-0.2-0.8,0.3-1.7,1.2-1.9s1.7,0.3,1.9,1.2
			C192.8,24.6,192.8,24.9,192.8,25.1z"/>
		<path style="fill:#F7931E;" d="M196.2,25.8c0.3,1.1,1.2,1.9,2.2,2.3"/>
		<path style="fill:none;stroke:#000000;stroke-width:1.76;stroke-linecap:round;stroke-linejoin:round;" d="M196.2,25.8
			c0.3,1.1,1.2,1.9,2.2,2.3"/>
		<path style="fill:#F7931E;" d="M185,23.5l-3,1.4"/>
		<path style="fill:none;stroke:#000000;stroke-width:1.76;stroke-linecap:round;stroke-linejoin:round;" d="M185,23.5l-3,1.4"/>
		<path style="fill:#F7931E;" d="M214,24.1c-1.4,0-1.5,2.4,1,3.5s2.6,0.1,2.4-1.3S214,24.1,214,24.1"/>
		<path style="fill:none;stroke:#000000;stroke-width:1.76;stroke-linecap:round;stroke-linejoin:round;" d="M214,24.1
			c-1.4,0-1.5,2.4,1,3.5s2.6,0.1,2.4-1.3S214,24.1,214,24.1z"/>
		<path style="fill:none;stroke:#000000;stroke-width:1.76;stroke-linecap:round;stroke-linejoin:round;" d="M177.3,28.8
			c0,0-13.1,10.4-11.3,33.8c1.2,16.1,13.8,27.6,13.8,27.6"/>
		<path style="fill:none;stroke:#000000;stroke-width:1.76;stroke-linecap:round;stroke-linejoin:round;" d="M179.5,31.9
			c0,0,1.7,3.7-0.3,6.9c-1.8,2.8-5.2,1.5-5.2,1.5"/>
		<path style="fill:none;stroke:#000000;stroke-width:1.76;stroke-linecap:round;stroke-linejoin:round;" d="M180.3,109.5
			c1.2,2.1,1.3,4.7,0.3,6.9c-1.6,3-5,2.2-5,2.2"/>
		<path style="fill:none;stroke:#000000;stroke-width:1.76;stroke-linecap:round;stroke-linejoin:round;" d="M173.4,121.9
			c1.2,2.1,1.3,4.7,0.3,6.9c-1.6,3-5,2.2-5,2.2"/>
		<path style="fill:none;stroke:#000000;stroke-width:1.76;stroke-linecap:round;stroke-linejoin:round;" d="M167.2,134.5
			c0,0,1.3,4-1,6.8c-2.1,2.5-5.3,0.7-5.3,0.7"/>
		<path style="fill:none;stroke:#000000;stroke-width:1.76;stroke-linecap:round;stroke-linejoin:round;" d="M158.6,145.8
			c0,0,1.8,3.7-0.2,6.9c-1.8,2.9-5.2,1.6-5.2,1.6"/>
		<path style="fill:none;stroke:#000000;stroke-width:1.76;stroke-linecap:round;stroke-linejoin:round;" d="M151.3,158.7
			c1.2,2.1,1.4,4.7,0.5,6.9c-1.5,3.1-5,2.4-5,2.4"/>
		<path style="fill:none;stroke:#000000;stroke-width:1.76;stroke-linecap:round;stroke-linejoin:round;" d="M145.4,173
			c1.5,1.9,1.9,4.5,1.1,6.8c-0.7,2-2.6,3.2-4.7,3.2"/>
		<path style="fill:none;stroke:#000000;stroke-width:1.76;stroke-linecap:round;stroke-linejoin:round;" d="M142,188.6
			c1.9,1.4,2.9,3.8,2.6,6.1c-0.3,2.2-1.8,4-3.8,4.7"/>
		<path style="fill:none;stroke:#000000;stroke-width:1.76;stroke-linecap:round;stroke-linejoin:round;" d="M141.5,203.6
			c2.1,0.9,3.5,3,3.6,5.3c0.1,2.2-1.1,4.4-2.9,5.6"/>
		<path style="fill:none;stroke:#000000;stroke-width:1.76;stroke-linecap:round;stroke-linejoin:round;" d="M143.5,218.6
			c2.1,0.9,3.5,3,3.6,5.3c0,2.2-1.1,4.4-2.9,5.6"/>
		<path style="fill:none;stroke:#000000;stroke-width:1.76;stroke-linecap:round;stroke-linejoin:round;" d="M145.9,233.8
			c1.9,0.6,3.3,2.4,3.4,4.4c0.1,2-0.7,4-2.3,5.2"/>
		<path style="fill:none;stroke:#000000;stroke-width:1.76;stroke-linecap:round;stroke-linejoin:round;" d="M148.8,246.9
			c1.8,0.4,3.2,1.9,3.5,3.7c0.2,1.9-0.4,3.7-1.8,5"/>
		<path style="fill:none;stroke:#000000;stroke-width:1.76;stroke-linecap:round;stroke-linejoin:round;" d="M151.9,258.7
			c1.4,0.3,2.5,1.5,2.8,3c0.2,1.5-0.3,3-1.4,4"/>
		<path style="fill:none;stroke:#000000;stroke-width:1.76;stroke-linecap:round;stroke-linejoin:round;" d="M154.4,269.2
			c1.3,0.3,2.3,1.3,2.5,2.6c0.2,1.3-0.3,2.7-1.3,3.6"/>
		<path style="fill:none;stroke:#000000;stroke-width:1.76;stroke-linecap:round;stroke-linejoin:round;" d="M156.9,279.4
			c1,0.5,1.6,1.5,1.6,2.5c0,1-0.6,2-1.4,2.6"/>
		<path style="fill:none;stroke:#000000;stroke-width:1.76;stroke-linecap:round;stroke-linejoin:round;" d="M172.7,44.8
			c1.6,1.8,2.1,4.3,1.5,6.7c-0.6,2-2.4,3.4-4.5,3.6"/>
		<path style="fill:none;stroke:#000000;stroke-width:1.76;stroke-linecap:round;stroke-linejoin:round;" d="M170.2,59.7
			c2.1,0.8,3.6,2.7,3.8,5c0.4,3.6-2.7,5.8-2.7,5.8"/>
		<path style="fill:none;stroke:#000000;stroke-width:1.76;stroke-linecap:round;stroke-linejoin:round;" d="M173,74.8
			c2-0.6,4.2,0.2,5.3,2.1c1.7,2.9-0.1,6.7-0.1,6.7"/>
		<line style="fill:none;" x1="183.8" y1="200.9" x2="195.3" y2="196.2"/>
		
			<line style="fill:none;stroke:#000000;stroke-width:1.76;stroke-linecap:round;stroke-linejoin:round;" x1="183.8" y1="200.9" x2="195.3" y2="196.2"/>
		<path style="fill:none;stroke:#000000;stroke-width:1.76;stroke-linecap:round;stroke-linejoin:round;" d="M199.3,182.7
			c0,0-4.4-10.4-7.9-16.1c-1.6-2.8-3.5-5.4-5.6-7.8l10.4-10.4"/>
		<path style="fill:none;stroke:#000000;stroke-width:1.76;stroke-linecap:round;stroke-linejoin:round;" d="M226.5,112.8
			c0,0-4,6.3-5.2,7.3s-8.5,1.4-13.9-14.3c-3.1-9-9.2-11-9.2-11"/>
		<path style="fill:none;stroke:#000000;stroke-width:1.76;stroke-linecap:round;stroke-linejoin:round;" d="M229.1,130.7
			c0,0-2.7,8.1-8,6.5s-5.8-3.8-16.3-3.3c-5.9,0.1-11.7-1.9-16.2-5.8"/>
		<path style="fill:none;stroke:#000000;stroke-width:1.76;stroke-linecap:round;stroke-linejoin:round;" d="M204.5,77.9
			c0,0,11.6,7.3,15.3,17.3s2.1,16.9,2.1,16.9"/>
		<path style="fill:none;stroke:#000000;stroke-width:1.76;stroke-linecap:round;stroke-linejoin:round;" d="M195.9,125.1
			c0,0,3.1,3.4,10.7,3.1c5-0.1,9.9,1.1,14.4,3.4c2.8-0.4,6.4-7.3,6.4-7.3"/>
		<path style="fill:none;stroke:#000000;stroke-width:1.76;stroke-linecap:round;stroke-linejoin:round;" d="M177.6,106.3
			c0,0-2,5.8-14.1,25.3c-8.6,13.8-21.7,25.7-24.8,56.4s4.3,51.4,7.6,62.1s5.8,18,7.6,30.3s1.2,18,1.2,18"/>
		<path style="fill:none;stroke:#000000;stroke-width:1.76;stroke-linecap:round;stroke-linejoin:round;" d="M125.9,308
			c0,0,1.4,11.5,12.2,11.9c9.5,0.4,14.1-8.8,14.1-8.8"/>
		<path style="fill:none;stroke:#000000;stroke-width:1.76;stroke-linecap:round;stroke-linejoin:round;" d="M170.5,182.4
			c-3.1-1.9-6.3-3.5-9.7-4.7"/>
		<path style="fill:none;stroke:#000000;stroke-width:1.76;stroke-linecap:round;stroke-linejoin:round;" d="M189.2,172.3
			c0,0,7.6,11.5,7,16.5s-8.9,5.4-19.3,10"/>
		<path style="fill:none;stroke:#000000;stroke-width:1.76;stroke-linecap:round;stroke-linejoin:round;" d="M196.6,154.6
			c0,0,9.5-0.4,9.5,5.8s-5.2,11.9-5.2,11.9"/>
		<path style="fill:none;stroke:#000000;stroke-width:1.76;stroke-linecap:round;stroke-linejoin:round;" d="M126.2,99.8
			c0,0,0.9,19.2,11.6,23s21.1-0.8,21.1-0.8"/>
		<path style="fill:none;stroke:#000000;stroke-width:1.76;stroke-linecap:round;stroke-linejoin:round;" d="M134.2,93.3
			c-0.1,4.6,1.3,9,4,12.7c4.6,6.1,15,6.5,15,6.5"/>
		<path style="fill:none;stroke:#000000;stroke-width:1.76;stroke-linecap:round;stroke-linejoin:round;" d="M13.1,81.4
			C23.7,71.6,35.2,63,47.7,55.7c11.5-6.7,23.6-12.5,36.1-17.3"/>
		<path style="fill:none;stroke:#000000;stroke-width:1.76;stroke-linecap:round;stroke-linejoin:round;" d="M15.3,145
			c0,0,12.8-30.3,27.8-52.2s30.9-31.5,42.5-38"/>
		<path style="fill:none;stroke:#000000;stroke-width:1.76;stroke-linecap:round;stroke-linejoin:round;" d="M184,28.5
			c0,0,1.2,3.8,6.4,3.8s5.5-1.9,5.5-1.9"/>
		<path style="fill:none;stroke:#000000;stroke-width:1.76;stroke-linecap:round;stroke-linejoin:round;" d="M203.8,215.5
			c2.9,2,4.7,5.2,5.1,8.7c0.8,6.1,2.9,9.2,2.9,9.2"/>
		<path style="fill:none;stroke:#000000;stroke-width:1.76;stroke-linecap:round;stroke-linejoin:round;" d="M232.7,89.9
			c0,0,3.1,7.9,1.4,13.8s-3.7,7.7-3.7,7.7"/>
		<path style="fill:none;stroke:#000000;stroke-width:1.76;stroke-linecap:round;stroke-linejoin:round;" d="M47.2,128.3
			c0,0-0.3-11.5,5-21.2c3.5-6.2,7.8-11.9,12.8-16.9"/>
		<path style="fill:none;stroke:#000000;stroke-width:1.76;stroke-linecap:round;stroke-linejoin:round;" d="M73.7,137.8
			c5.5-25.3,28-27.6,28-27.6"/>
		<path style="fill:none;stroke:#000000;stroke-width:1.76;stroke-linecap:round;stroke-linejoin:round;" d="M50.3,139
			c0,0,0.6-8.8,1.8-17.4c1.6-11.8,9.8-19.9,9.8-19.9"/>
		<path style="fill:none;stroke:#000000;stroke-width:1.76;stroke-linecap:round;stroke-linejoin:round;" d="M79.9,158
			c0,0-6.7-13,0-26.1S98,117,98,117"/>
		<path style="fill:none;stroke:#000000;stroke-width:1.76;stroke-linecap:round;stroke-linejoin:round;" d="M117,36.3
			c0,0,7.3,1.8,11.6,10.5s3.4,18.4,3.4,18.4"/>
		<path style="fill:none;stroke:#000000;stroke-width:1.76;stroke-linecap:round;stroke-linejoin:round;" d="M103.3,160
			c0,0,4.3-18.3,17.1-22.2c10.4-3.2,17.6,6.1,17.6,6.1"/>
		<path style="fill:none;stroke:#000000;stroke-width:1.76;stroke-linecap:round;stroke-linejoin:round;" d="M71.5,128.2
			c1.3-4.8,3.9-9.1,7.4-12.6c2.8-2.9,6.1-5.4,9.8-7.3"/>
		<path style="fill:none;stroke:#000000;stroke-width:1.76;stroke-linecap:round;stroke-linejoin:round;" d="M106.4,142.6
			c0,0,4.1-7.5,10.6-9.9s10.5-1,10.5-1"/>
	</g>
</g>
</svg>
