<?xml version="1.0" encoding="utf-8"?>
<!-- Generator: Adobe Illustrator 23.0.2, SVG Export Plug-In . SVG Version: 6.00 Build 0)  -->
<svg version="1.1" id="Réteg_1" xmlns="http://www.w3.org/2000/svg" xmlns:xlink="http://www.w3.org/1999/xlink" x="0px" y="0px"
	 viewBox="0 0 171.9 317.9" style="enable-background:new 0 0 171.9 317.9;" xml:space="preserve">
<title>cimerkep_17</title>
<g>
	<g>
		<path style="fill:#E18146;" d="M96.2,25.2c-0.1-2.5,1.9-4.6,4.4-4.7c2.5-0.1,4.6,1.9,4.7,4.4c0.1,2.5-1.9,4.6-4.4,4.7
			c-0.1,0-0.1,0-0.2,0C98.3,29.7,96.3,27.7,96.2,25.2"/>
		<path style="fill:none;stroke:#000000;stroke-width:1.76;stroke-linecap:round;stroke-linejoin:round;" d="M96.2,25.2
			c-0.1-2.5,1.9-4.6,4.4-4.7c2.5-0.1,4.6,1.9,4.7,4.4c0.1,2.5-1.9,4.6-4.4,4.7c-0.1,0-0.1,0-0.2,0C98.3,29.7,96.3,27.7,96.2,25.2z"
			/>
		
			<line style="fill:none;stroke:#000000;stroke-width:1.76;stroke-linecap:round;stroke-linejoin:round;" x1="104.2" y1="28.1" x2="114.9" y2="35.8"/>
		<path style="fill:#E18146;" d="M111.2,14.1c0.1-2.5,2.3-4.5,4.8-4.4c2.4,0.1,4.3,2,4.4,4.4c-0.1,2.5-2.3,4.5-4.8,4.4
			C113.2,18.4,111.3,16.5,111.2,14.1"/>
		<path style="fill:none;stroke:#000000;stroke-width:1.76;stroke-linecap:round;stroke-linejoin:round;" d="M111.2,14.1
			c0.1-2.5,2.3-4.5,4.8-4.4c2.4,0.1,4.3,2,4.4,4.4c-0.1,2.5-2.3,4.5-4.8,4.4C113.2,18.4,111.3,16.5,111.2,14.1z"/>
		
			<line style="fill:none;stroke:#000000;stroke-width:1.76;stroke-linecap:round;stroke-linejoin:round;" x1="119.2" y1="17" x2="129.9" y2="24.7"/>
		<path style="fill:#E18146;" d="M126.2,5.3c0.1-2.5,2.3-4.5,4.8-4.4c2.4,0.1,4.3,2,4.4,4.4c-0.1,2.5-2.3,4.5-4.8,4.4
			C128.1,9.5,126.3,7.7,126.2,5.3"/>
		<path style="fill:none;stroke:#000000;stroke-width:1.76;stroke-linecap:round;stroke-linejoin:round;" d="M126.2,5.3
			c0.1-2.5,2.3-4.5,4.8-4.4c2.4,0.1,4.3,2,4.4,4.4c-0.1,2.5-2.3,4.5-4.8,4.4C128.1,9.5,126.3,7.7,126.2,5.3z"/>
		
			<line style="fill:none;stroke:#000000;stroke-width:1.76;stroke-linecap:round;stroke-linejoin:round;" x1="144.9" y1="15.8" x2="134.1" y2="8.2"/>
		<path style="fill:#E18146;" d="M168.7,5.9c0,0,0,13.4-24.2,31.8c-12.7,9.6-20.7,10.7-20.7,10.7s-18.5,69.3-18.5,77
			s32.2,27.6,29.7,96.6s-32.2,83.9-45.5,90s-13.8,5.1-20.4,4.6s-1-28.6,5.6-47s27.1-79.8,20.5-111.5s-5.1-34.3,1-62.9
			s16.4-61.4,16.4-61.4L168.7,5.9z"/>
		<path style="fill:none;stroke:#000000;stroke-width:1.76;stroke-linecap:round;stroke-linejoin:round;" d="M168.7,5.9
			c0,0,0,13.4-24.2,31.8c-12.7,9.6-20.7,10.7-20.7,10.7s-18.5,69.3-18.5,77s32.2,27.6,29.7,96.6s-32.2,83.9-45.5,90
			s-13.8,5.1-20.4,4.6s-1-28.6,5.6-47s27.1-79.8,20.5-111.5s-5.1-34.3,1-62.9s16.4-61.4,16.4-61.4L168.7,5.9z"/>
		<path style="fill:#FECE8C;" d="M152.6,1.1l-45.8,33.8l-32.1,80.3c0,0-36.4,29.7-56.9,76.2s-21,70.6-9.2,80.8s16.9,6.1,30.2,16.4
			s14.8,25.6,30.2,28.1s27.6-59.8,32.2-109.9s-4-75.7-3.4-83.9s21.5-80.2,21.5-80.2l48.7-36.8L152.6,1.1z"/>
		<path style="fill:none;stroke:#000000;stroke-width:1.76;stroke-miterlimit:10;" d="M152.6,1.1l-45.8,33.8l-32.1,80.3
			c0,0-36.4,29.7-56.9,76.2s-21,70.6-9.2,80.8s16.9,6.1,30.2,16.4s14.8,25.6,30.2,28.1s27.6-59.8,32.2-109.9s-4-75.7-3.4-83.9
			s21.5-80.2,21.5-80.2l48.7-36.8L152.6,1.1z"/>
		<path style="fill:#E18146;" d="M144.1,54.8c0.1,2.5-1.9,4.7-4.4,4.7c-2.5,0.1-4.7-1.9-4.7-4.4s1.9-4.7,4.4-4.7c0.1,0,0.1,0,0.2,0
			C142,50.3,144,52.3,144.1,54.8C144.1,54.8,144.1,54.8,144.1,54.8"/>
		<path style="fill:none;stroke:#000000;stroke-width:1.76;stroke-linecap:round;stroke-linejoin:round;" d="M144.1,54.8
			c0.1,2.5-1.9,4.7-4.4,4.7c-2.5,0.1-4.7-1.9-4.7-4.4s1.9-4.7,4.4-4.7c0.1,0,0.1,0,0.2,0C142,50.3,144,52.3,144.1,54.8
			C144.1,54.8,144.1,54.8,144.1,54.8z"/>
		
			<line style="fill:none;stroke:#000000;stroke-width:1.76;stroke-linecap:round;stroke-linejoin:round;" x1="136.5" y1="51.1" x2="125.7" y2="43.5"/>
		<path style="fill:#E18146;" d="M157.5,44.2c0.1,2.5-1.9,4.6-4.4,4.7c-2.5,0.1-4.6-1.9-4.7-4.4s1.9-4.6,4.4-4.7c0.1,0,0.1,0,0.2,0
			C155.5,39.8,157.5,41.7,157.5,44.2"/>
		<path style="fill:none;stroke:#000000;stroke-width:1.76;stroke-linecap:round;stroke-linejoin:round;" d="M157.5,44.2
			c0.1,2.5-1.9,4.6-4.4,4.7c-2.5,0.1-4.6-1.9-4.7-4.4s1.9-4.6,4.4-4.7c0.1,0,0.1,0,0.2,0C155.5,39.8,157.5,41.8,157.5,44.2z"/>
		
			<line style="fill:none;stroke:#000000;stroke-width:1.76;stroke-linecap:round;stroke-linejoin:round;" x1="149.9" y1="40.6" x2="139.2" y2="32.9"/>
		<path style="fill:#E18146;" d="M171,33.9c0.1,2.5-1.9,4.7-4.4,4.7s-4.7-1.9-4.7-4.4s1.9-4.7,4.4-4.7c0.1,0,0.1,0,0.2,0
			C168.9,29.4,170.9,31.4,171,33.9C171,33.9,171,33.9,171,33.9"/>
		<path style="fill:none;stroke:#000000;stroke-width:1.76;stroke-linecap:round;stroke-linejoin:round;" d="M171,33.9
			c0.1,2.5-1.9,4.7-4.4,4.7s-4.7-1.9-4.7-4.4s1.9-4.7,4.4-4.7c0.1,0,0.1,0,0.2,0C168.9,29.4,170.9,31.4,171,33.9
			C171,33.9,171,33.9,171,33.9z"/>
		
			<line style="fill:none;stroke:#000000;stroke-width:1.76;stroke-linecap:round;stroke-linejoin:round;" x1="163.4" y1="30.2" x2="152.6" y2="22.5"/>
		<polygon style="fill:none;stroke:#000000;stroke-width:1.76;stroke-linecap:round;stroke-linejoin:round;" points="21,250.9 
			18.4,261.7 57.1,284.7 60.2,272.8 		"/>
		<path style="fill:none;stroke:#000000;stroke-width:1.76;stroke-linecap:round;stroke-linejoin:round;" d="M69.4,164.6
			c10.7,3.4,13.8,17.3,10.4,26.9s-11.5,14.6-21.9,11.1s-10.6-17.1-8-24.9C54.8,162.3,69.4,164.6,69.4,164.6z"/>
		<path style="fill:none;stroke:#000000;stroke-width:1.76;stroke-linecap:round;stroke-linejoin:round;" d="M65.9,164.3
			c0,0,1.9-6.9,7.7-5s1.9,8.4,1.9,8.4s3.8-3.1,6.9,0s-2.3,6.9-2.3,6.9s6.5-1.5,6.9,3.1s-5.8,6.1-5.8,6.1s8,1.9,6.5,5.8s-8,1.9-8,1.9
			s4.6,4.2,2.7,7.3s-8.1,0-8.1,0s4.2,6.1,0.4,8.4s-6.9-4.6-6.9-4.6s0.4,8.8-4.6,8.4s-2.7-7.7-2.7-7.7s-4.2,6.5-7.3,4.2s0-7.7,0-7.7
			s-7.3,3.1-8.5-1.5s4.6-5.8,4.6-5.8s-8.1,1.9-8.1-2.7s6.9-5.4,6.9-5.4s-6.5-1.5-5.4-5.4s7.3-3.1,7.3-3.1s-8.4-6.5-3.5-9.2
			s8.8,1.5,8.8,1.5s-1.2-8.8,3.1-9.2S65.9,164.3,65.9,164.3z"/>
		<polyline style="fill:none;stroke:#000000;stroke-width:1.76;stroke-linecap:round;stroke-linejoin:round;" points="21.8,263.6 
			108.9,37.3 113.1,33.5 		"/>
		<polyline style="fill:none;stroke:#000000;stroke-width:1.76;stroke-linecap:round;stroke-linejoin:round;" points="26.8,266.7 
			109.6,37.3 128.4,22.4 		"/>
		<polyline style="fill:none;stroke:#000000;stroke-width:1.76;stroke-linecap:round;stroke-linejoin:round;" points="32.9,269.7 
			112.3,38.1 141.9,13.5 		"/>
		<polyline style="fill:none;stroke:#000000;stroke-width:1.76;stroke-linecap:round;stroke-linejoin:round;" points="39.1,274 
			114.2,39.6 144.9,15.4 		"/>
		<polyline style="fill:none;stroke:#000000;stroke-width:1.76;stroke-linecap:round;stroke-linejoin:round;" points="44.8,276.3 
			116.2,41.5 135.7,26.6 		"/>
		<polyline style="fill:none;stroke:#000000;stroke-width:1.76;stroke-linecap:round;stroke-linejoin:round;" points="51.3,280.5 
			116.2,41.5 121.5,38.1 		"/>
		<path style="fill:none;stroke:#000000;stroke-width:1.76;stroke-linecap:round;stroke-linejoin:round;" d="M80.2,315.6
			c0,0,8.7-8.4,14.3-26.6c7.1-22.9,9.7-46.3,11.3-59.8c1.8-16.1,1.5-22.5,1.5-22.5"/>
		<path style="fill:none;stroke:#000000;stroke-width:1.76;stroke-linecap:round;stroke-linejoin:round;" d="M90.7,311
			c0,0,8.3-5.9,15.1-37.3c6.6-30.7,7.4-46.5,7.4-46.5"/>
		<path style="fill:none;stroke:#000000;stroke-width:1.76;stroke-linecap:round;stroke-linejoin:round;" d="M104,302.6
			c0,0,12-19.2,16.1-62.9"/>
		<path style="fill:none;stroke:#000000;stroke-width:1.76;stroke-linecap:round;stroke-linejoin:round;" d="M26.5,189.8
			c0,0-15.3,31.2-17.9,51.6s1.5,23.5,1.5,23.5"/>
		<path style="fill:none;stroke:#000000;stroke-width:1.76;stroke-linecap:round;stroke-linejoin:round;" d="M109.4,144.3
			c0,0,10.7,16.4,14.8,35.8c2.4,11.1,3.8,22.4,4.1,33.8"/>
	</g>
</g>
</svg>
