<?xml version="1.0" encoding="utf-8"?>
<!-- Generator: Adobe Illustrator 23.0.2, SVG Export Plug-In . SVG Version: 6.00 Build 0)  -->
<svg version="1.1" id="Réteg_1" xmlns="http://www.w3.org/2000/svg" xmlns:xlink="http://www.w3.org/1999/xlink" x="0px" y="0px"
	 viewBox="0 0 240.5 253.6" style="enable-background:new 0 0 240.5 253.6;" xml:space="preserve">
<title>cimerkep_21</title>
<g>
	<g>
		<path style="fill:#A67C52;" d="M37.5,242.9c0,0,9.8-6.4,18.4-3.9s14-4.9,21.8-7.3c9.8-3,15.8,1.3,15.8,1.3s-0.4-9.8,5.6-14.5
			s0.9-15.4,6.4-21.8s6.4-11.5,1.7-20.5s0.8-21.4,7.3-32.5s0.9-19.7-5.6-19.7s-22.7,0-27.8-6.8s-25.6-2.6-29.1,3.9
			s-10.5,16.8-17,19.4s-14.3,2-14.3,2s11.1-1.3,20.1-12.4s7.3-15.4,15-18.4s15.4-4.3,21.4-2.1l6,2.1c0,0-0.4-10.7-6-13.7
			s-23.1,3.4-30.3-4.3S40.1,74.5,45.2,72s10.7-9,5.6-14.1l-5.1-5.1c0,0,9-0.8,11.5,7.7S45.6,73.3,48.6,84s9.8,9.8,21.4,8.5
			s13.3,1.7,15.8,6.8s3.8,15.4,3.8,15.4s10.2,4.3,20.5,4.3s12.4,6,14.5,10.7s1.7,6,1.7,6s3.4-12.8-0.4-22.7s-18-10.3-21.4-23.5
			s-3-33.3-6.8-41s-14.1,0.8-22.2-6S76.8,22,76.8,22s-3.4,9.8,2.6,15.8s12.4,1.7,17.1,2.1s7.7,6.8,7.7,10.3s3.4,29.1,3.4,29.1
			s6.4,0,6.8-8.6s0-15.8,8.1-18.8s15.8-4.7,12.8-13.3s-9.4-9-9.4-9s15.8-0.4,13.3,14.1s-15.8,9.8-18.8,17.1s1.4,13.5-3.4,19.1
			c-2.1,2.2-4.8,3.7-7.7,4.4c0,0,3.1,12.5,10.3,14.1c9.4,2.1,13.7,14.5,13.7,14.5s3-5.3,21.4-17c14.5-9.2-1.3-24.5,7.7-36.5
			s16.3-2.6,17.9-12.4s0.9-13.3,9-14.5s10.3,5.6,15.8,1.3s6.4-5.5,6.4-5.5c0.1,4.5-2.7,8.6-6.8,10.3c-7.3,3-12-5.1-16.7,0.8
			s1.7,13.3-5.1,17.1s-10.3-1.2-14.1,6.5S167,80.5,167,80.5s3.4-8.1,14.1-4.3s16,10.9,22.4,4.7c4.1-4,5.8-11.5,5.8-11.5
			s5.4,14.9-8.1,18c-10.8,2.4-13.7-3.8-20.1-6S167,89.1,167,89.1s-1.3,7.3-12.8,15s-12.8,8.6-14.1,15.4s2.6,12.4,6,20.9
			s0.4,13.3,0.4,13.3s8.1-12.4,17.9-10.7s18.4,4.3,22.2-7.3s10.7-13.7,17.1-12.4s15.8-1.3,17.1-8.6s-3.4-13.7-3.4-13.7
			s5.6,1.3,7.7,9.8s-3,14.1-10.3,16.7s-14.5-1.3-19.2,3.4s-1.3,15-12.4,18.4s-27.4,8.6-29.5,14.5s-6,7.3,0,20.5s-5.1,14.1-1.7,23.5
			s9.4,4.3,12.4,14.5l3,10.3c0,0,8.6-4.7,13.3,0.9s15.4,1.7,20.5,1.7s10.7,6.4,10.7,6.4c-5.6-2.6-11.9-3.2-17.9-1.7
			c-9.8,2.6-12.8-1.7-17.1-3.4s-11.1,1.3-11.1,1.3c4.1-0.9,8.3,1.2,9.8,5.1l3,6.8c-3.6-3.3-8-5.4-12.8-6c-7.7-0.9-11.5,3.9-18.4,1.3
			s-10.3-15.4-10.3-15.4s2.6,9.4-0.9,12.4s-12-0.9-16.7,3c-2.7,2.1-4.8,4.7-6.4,7.7c-1.2-3.7,0-7.8,3-10.3c5.1-4.7,6.8-3.9,10.3-6.4
			s1.3-6.8,1.3-6.8l-5.1-6c0,0-5.6,4.8-5.6,10.8s-8.1,10.7-12.8,11.1s-12.4-3.4-16.2,1.7s-13.7,3.4-13.7,3.4s11.1-3.8,12.8-7.3
			s11.5-2.6,11.5-2.6s-11.1-6-19.7-2.6c-4.3,1.7-12.4,6-16.3,6s-8.1-2.6-13.7-2.1S37.5,243,37.5,242.9"/>
		<path style="fill:none;stroke:#000000;stroke-width:1.76;stroke-linecap:round;stroke-linejoin:round;" d="M37.5,242.9
			c0,0,9.8-6.4,18.4-3.9s14-4.9,21.8-7.3c9.8-3,15.8,1.3,15.8,1.3s-0.4-9.8,5.6-14.5s0.9-15.4,6.4-21.8s6.4-11.5,1.7-20.5
			s0.8-21.4,7.3-32.5s0.9-19.7-5.6-19.7s-22.7,0-27.8-6.8s-25.6-2.6-29.1,3.9s-10.5,16.8-17,19.4s-14.3,2-14.3,2s11.1-1.3,20.1-12.4
			s7.3-15.4,15-18.4s15.4-4.3,21.4-2.1l6,2.1c0,0-0.4-10.7-6-13.7s-23.1,3.4-30.3-4.3S40.1,74.5,45.2,72s10.7-9,5.6-14.1l-5.1-5.1
			c0,0,9-0.8,11.5,7.7S45.6,73.3,48.6,84s9.8,9.8,21.4,8.5s13.3,1.7,15.8,6.8s3.8,15.4,3.8,15.4s10.2,4.3,20.5,4.3s12.4,6,14.5,10.7
			s1.7,6,1.7,6s3.4-12.8-0.4-22.7s-18-10.3-21.4-23.5s-3-33.3-6.8-41s-14.1,0.8-22.2-6S76.8,22,76.8,22s-3.4,9.8,2.6,15.8
			s12.4,1.7,17.1,2.1s7.7,6.8,7.7,10.3s3.4,29.1,3.4,29.1s6.4,0,6.8-8.6s0-15.8,8.1-18.8s15.8-4.7,12.8-13.3s-9.4-9-9.4-9
			s15.8-0.4,13.3,14.1s-15.8,9.8-18.8,17.1s1.4,13.5-3.4,19.1c-2.1,2.2-4.8,3.7-7.7,4.4c0,0,3.1,12.5,10.3,14.1
			c9.4,2.1,13.7,14.5,13.7,14.5s3-5.3,21.4-17c14.5-9.2-1.3-24.5,7.7-36.5s16.3-2.6,17.9-12.4s0.9-13.3,9-14.5s10.3,5.6,15.8,1.3
			s6.4-5.5,6.4-5.5c0.1,4.5-2.7,8.6-6.8,10.3c-7.3,3-12-5.1-16.7,0.8s1.7,13.3-5.1,17.1s-10.3-1.2-14.1,6.5S167,80.5,167,80.5
			s3.4-8.1,14.1-4.3s16,10.9,22.4,4.7c4.1-4,5.8-11.5,5.8-11.5s5.4,14.9-8.1,18c-10.8,2.4-13.7-3.8-20.1-6S167,89.1,167,89.1
			s-1.3,7.3-12.8,15s-12.8,8.6-14.1,15.4s2.6,12.4,6,20.9s0.4,13.3,0.4,13.3s8.1-12.4,17.9-10.7s18.4,4.3,22.2-7.3
			s10.7-13.7,17.1-12.4s15.8-1.3,17.1-8.6s-3.4-13.7-3.4-13.7s5.6,1.3,7.7,9.8s-3,14.1-10.3,16.7s-14.5-1.3-19.2,3.4
			s-1.3,15-12.4,18.4s-27.4,8.6-29.5,14.5s-6,7.3,0,20.5s-5.1,14.1-1.7,23.5s9.4,4.3,12.4,14.5l3,10.3c0,0,8.6-4.7,13.3,0.9
			s15.4,1.7,20.5,1.7s10.7,6.4,10.7,6.4c-5.6-2.6-11.9-3.2-17.9-1.7c-9.8,2.6-12.8-1.7-17.1-3.4s-11.1,1.3-11.1,1.3
			c4.1-0.9,8.3,1.2,9.8,5.1l3,6.8c-3.6-3.3-8-5.4-12.8-6c-7.7-0.9-11.5,3.9-18.4,1.3s-10.3-15.4-10.3-15.4s2.6,9.4-0.9,12.4
			s-12-0.9-16.7,3c-2.7,2.1-4.8,4.7-6.4,7.7c-1.2-3.7,0-7.8,3-10.3c5.1-4.7,6.8-3.9,10.3-6.4s1.3-6.8,1.3-6.8l-5.1-6
			c0,0-5.6,4.8-5.6,10.8s-8.1,10.7-12.8,11.1s-12.4-3.4-16.2,1.7s-13.7,3.4-13.7,3.4s11.1-3.8,12.8-7.3s11.5-2.6,11.5-2.6
			s-11.1-6-19.7-2.6c-4.3,1.7-12.4,6-16.3,6s-8.1-2.6-13.7-2.1S37.5,242.9,37.5,242.9z"/>
		<path style="fill:none;stroke:#000000;stroke-width:1.76;stroke-linecap:round;stroke-linejoin:round;" d="M103.5,124.2
			c0,0-6-0.8-7.7,6.3s2.8,7.1,0,12.8s-7.4,2-11.4,6.6s-0.3,10.5-0.3,10.5"/>
		<path style="fill:none;stroke:#000000;stroke-width:1.76;stroke-linecap:round;stroke-linejoin:round;" d="M46.2,130.2
			c0,0-0.3,4,2.6,6.3s8.3,0,9.7,5.4s-1.4,6.8-1.4,6.8"/>
		<path style="fill:none;stroke:#000000;stroke-width:1.76;stroke-linecap:round;stroke-linejoin:round;" d="M49.3,117.4
			c0,0-3.7,4.6-11.1,1.2s-3.1-10-10.5-8.8s-8.8,4.6-14,0.6c-5.7-4.5-0.2-11.4-6.5-13.7l-6.3-2.3"/>
		<path style="fill:none;stroke:#000000;stroke-width:1.76;stroke-linecap:round;stroke-linejoin:round;" d="M29.1,64.4
			c0,0,5.7,2.6,5.1,7.7s6.8,8,6.8,8"/>
		<path style="fill:none;stroke:#000000;stroke-width:1.76;stroke-linecap:round;stroke-linejoin:round;" d="M65.8,60.1
			c0,0,9.7-4.3,14,1.1S81,69,84.7,71.8s7.7-5.4,12-5.7c2.3-0.3,4.5,1.4,4.8,3.7"/>
		<path style="fill:none;stroke:#000000;stroke-width:1.76;stroke-linecap:round;stroke-linejoin:round;" d="M102.9,45.3
			c0,0-2-5.7,0.3-8.3s4.3-6.8-1.4-10.3s-8-5.1-6.3-7.7"/>
		<path style="fill:none;stroke:#000000;stroke-width:1.76;stroke-linecap:round;stroke-linejoin:round;" d="M181,42
			c0,0,0.6-8.4-3.1-11.5s-2.3-7.7,3.1-9.4s-2-8.6-2-8.6"/>
		<path style="fill:none;stroke:#000000;stroke-width:1.76;stroke-linecap:round;stroke-linejoin:round;" d="M198.4,129.4
			c0,0,8-1.4,10.5,2.6s-2.6,10,2.6,12s6.3-4.3,11.1-3.1s4.8,2.9,4.8,2.9"/>
		<path style="fill:none;stroke:#000000;stroke-width:1.76;stroke-linecap:round;stroke-linejoin:round;" d="M159.9,76.8
			c-0.7-5-6.3-11.5-10.3-10.4s-10.3-8.5-2.3-13.7s12.5-7.4,9.4-10.8"/>
		<path style="fill:none;stroke:#000000;stroke-width:1.76;stroke-linecap:round;stroke-linejoin:round;" d="M126.4,135.6
			c0,0,0.4,4.6-4.4,16.2s-6.8,11.7-6.3,23.1s5.4,12,1.7,21.1s-7.4,7.4-8.3,17.7s-3.7,7.1-7.1,13.1s-0.3,9.7-0.3,9.7"/>
		<path style="fill:none;stroke:#000000;stroke-width:1.76;stroke-linecap:round;stroke-linejoin:round;" d="M146.5,153.6
			c-5.7,6.4-7.8,15.1-5.7,23.4c2.3,8.8,7.7,9.7,2.9,16.8s-5.1,11.7-2.3,17.7s6.3,0.6,12,9.4s5.7,13.4,5.7,13.4"/>
		<path style="fill:none;stroke:#000000;stroke-width:1.76;stroke-linecap:round;stroke-linejoin:round;" d="M131.1,152.2
			c0,0-5.1,7.4-6.8,15.4s0.6,13.4,1.7,21.4s-0.6,8.3-1.1,16.8s4.8,8.8,9.7,16.5c1.4,2.3,2.3,4.8,2.6,7.4"/>
		<path style="fill:none;stroke:#000000;stroke-width:1.76;stroke-linecap:round;stroke-linejoin:round;" d="M133.1,208.6
			c-1.2-5.3-1.3-10.7-0.3-16c1.7-8.6,2.6-8.8,0-17.7c-1.5-5.3-0.7-11,2.3-15.7"/>
		<path style="fill:none;stroke:#000000;stroke-width:1.76;stroke-linecap:round;stroke-linejoin:round;" d="M133.2,113
			c0,0,1.9,2.1,1,9.3s2.9,15.4,2.9,15.4"/>
		<path style="fill:none;stroke:#000000;stroke-width:1.76;stroke-linecap:round;stroke-linejoin:round;" d="M146.5,165.3
			c1-5.1,3.8-9.5,8-12.5c4.6-3.4,10.8-4.3,10.8-4.3"/>
		<path style="fill:none;stroke:#000000;stroke-width:1.76;stroke-linecap:round;stroke-linejoin:round;" d="M140.2,220.3
			c2.1,2.4,3.5,5.4,4,8.6c0.9,5.4,1.7,7.7,5.1,10c2,1.3,4.6,1.6,6.8,0.6"/>
		<path style="fill:none;stroke:#000000;stroke-width:1.76;stroke-linecap:round;stroke-linejoin:round;" d="M108.9,235.4
			c0,0-0.6-8.5,4.3-11.4s4.9-15.1,4.9-15.1"/>
		<path style="fill:#009A3D;" d="M28.4,136.1c0,0-4,0-6.4-2.4s-2.3-6.4-2.3-6.4s4,0,6.4,2.4S28.4,136.1,28.4,136.1"/>
		<path style="fill:none;stroke:#000000;stroke-width:1.76;stroke-miterlimit:10;" d="M28.4,136.1c0,0-4,0-6.4-2.4s-2.3-6.4-2.3-6.4
			s4,0,6.4,2.4S28.4,136.1,28.4,136.1z"/>
		<path style="fill:#009A3D;" d="M34.5,132.1c0,0-3.5-2-4.3-5.3s1.3-6.7,1.3-6.7s3.5,2,4.3,5.3C36.6,128.7,34.5,132.1,34.5,132.1"/>
		<path style="fill:none;stroke:#000000;stroke-width:1.76;stroke-miterlimit:10;" d="M34.5,132.1c0,0-3.5-2-4.3-5.3
			s1.3-6.7,1.3-6.7s3.5,2,4.3,5.3C36.6,128.7,34.5,132.1,34.5,132.1z"/>
		<path style="fill:#009A3D;" d="M26.6,125.5c0,0-3.5-2-4.3-5.3s1.3-6.7,1.3-6.7s3.5,2,4.3,5.3S26.6,125.5,26.6,125.5"/>
		<path style="fill:none;stroke:#000000;stroke-width:1.76;stroke-miterlimit:10;" d="M26.6,125.5c0,0-3.5-2-4.3-5.3
			s1.3-6.7,1.3-6.7s3.5,2,4.3,5.3S26.6,125.5,26.6,125.5z"/>
		<path style="fill:#009A3D;" d="M12,126.4c0,0-1.1-3.8,0.6-6.8s5.6-4,5.6-4s1.1,3.8-0.6,6.8S12,126.4,12,126.4"/>
		<path style="fill:none;stroke:#000000;stroke-width:1.76;stroke-miterlimit:10;" d="M12,126.4c0,0-1.1-3.8,0.6-6.8s5.6-4,5.6-4
			s1.1,3.8-0.6,6.8S12,126.4,12,126.4z"/>
		<path style="fill:#009A3D;" d="M1.4,115.3c0,0,2.5-3.1,5.9-3.4s6.4,2.3,6.4,2.3s-2.5,3.1-5.9,3.4S1.4,115.3,1.4,115.3"/>
		<path style="fill:none;stroke:#000000;stroke-width:1.76;stroke-miterlimit:10;" d="M1.4,115.3c0,0,2.5-3.1,5.9-3.4
			s6.4,2.3,6.4,2.3s-2.5,3.1-5.9,3.4S1.4,115.3,1.4,115.3z"/>
		<path style="fill:#009A3D;" d="M8.1,82.5c0,0,2,3.5,1.1,6.8s-4.5,5.2-4.5,5.2s-2-3.5-1.1-6.8S8.1,82.5,8.1,82.5"/>
		<path style="fill:none;stroke:#000000;stroke-width:1.76;stroke-miterlimit:10;" d="M8.1,82.5c0,0,2,3.5,1.1,6.8s-4.5,5.2-4.5,5.2
			s-2-3.5-1.1-6.8S8.1,82.5,8.1,82.5z"/>
		<path style="fill:#009A3D;" d="M17.3,87.7c0,0,2,3.5,1.1,6.8S14,99.6,14,99.6s-2-3.5-1.1-6.8S17.4,87.7,17.3,87.7"/>
		<path style="fill:none;stroke:#000000;stroke-width:1.76;stroke-miterlimit:10;" d="M17.3,87.7c0,0,2,3.5,1.1,6.8S14,99.6,14,99.6
			s-2-3.5-1.1-6.8S17.3,87.7,17.3,87.7z"/>
		<path style="fill:#009A3D;" d="M25.1,99.8c0,0-0.5,4-3.3,6s-6.7,1.3-6.7,1.3s0.5-4,3.3-6S25.1,99.8,25.1,99.8"/>
		<path style="fill:none;stroke:#000000;stroke-width:1.76;stroke-miterlimit:10;" d="M25.1,99.8c0,0-0.5,4-3.3,6s-6.7,1.3-6.7,1.3
			s0.5-4,3.3-6S25.1,99.8,25.1,99.8z"/>
		<path style="fill:#009A3D;" d="M31.4,94.1c0,0,2.9,2.7,3,6.2s-2.8,6.2-2.8,6.2s-2.9-2.7-3-6.2S31.4,94.1,31.4,94.1"/>
		<path style="fill:none;stroke:#000000;stroke-width:1.76;stroke-miterlimit:10;" d="M31.4,94.1c0,0,2.9,2.7,3,6.2
			s-2.8,6.2-2.8,6.2s-2.9-2.7-3-6.2S31.4,94.1,31.4,94.1z"/>
		<path style="fill:#009A3D;" d="M41.9,101.4c0,0,1,3.9-0.7,6.8s-5.7,3.8-5.7,3.8s-1-3.9,0.7-6.8S41.9,101.4,41.9,101.4"/>
		<path style="fill:none;stroke:#000000;stroke-width:1.76;stroke-miterlimit:10;" d="M41.9,101.4c0,0,1,3.9-0.7,6.8
			s-5.7,3.8-5.7,3.8s-1-3.9,0.7-6.8S41.9,101.4,41.9,101.4z"/>
		<path style="fill:#009A3D;" d="M49,106.9c0,0,1,3.9-0.7,6.8s-5.7,3.8-5.7,3.8s-1-3.9,0.7-6.8S49,106.9,49,106.9"/>
		<path style="fill:none;stroke:#000000;stroke-width:1.76;stroke-miterlimit:10;" d="M49,106.9c0,0,1,3.9-0.7,6.8s-5.7,3.8-5.7,3.8
			s-1-3.9,0.7-6.8S49,106.9,49,106.9z"/>
		<path style="fill:#009A3D;" d="M65.3,102.9c0,0,3-2.7,6.4-2.4s6,3.3,6,3.3s-3,2.7-6.4,2.4S65.3,102.9,65.3,102.9"/>
		<path style="fill:none;stroke:#000000;stroke-width:1.76;stroke-miterlimit:10;" d="M65.3,102.9c0,0,3-2.7,6.4-2.4s6,3.3,6,3.3
			s-3,2.7-6.4,2.4S65.3,102.9,65.3,102.9z"/>
		<path style="fill:#009A3D;" d="M53.3,108.2c0,0-0.1-4,2.3-6.4s6.4-2.4,6.4-2.4s0.1,4-2.3,6.4S53.3,108.2,53.3,108.2"/>
		<path style="fill:none;stroke:#000000;stroke-width:1.76;stroke-miterlimit:10;" d="M53.3,108.2c0,0-0.1-4,2.3-6.4
			s6.4-2.4,6.4-2.4s0.1,4-2.3,6.4S53.3,108.2,53.3,108.2z"/>
		<path style="fill:#009A3D;" d="M28.5,89c0,0,3-2.7,6.4-2.4s6,3.3,6,3.3s-3,2.7-6.4,2.4S28.5,89,28.5,89"/>
		<path style="fill:none;stroke:#000000;stroke-width:1.76;stroke-miterlimit:10;" d="M28.5,89c0,0,3-2.7,6.4-2.4s6,3.3,6,3.3
			s-3,2.7-6.4,2.4S28.5,89,28.5,89z"/>
		<path style="fill:#009A3D;" d="M24.7,80.7c0,0,3-2.7,6.4-2.4s6,3.3,6,3.3s-3,2.7-6.4,2.4S24.7,80.7,24.7,80.7"/>
		<path style="fill:none;stroke:#000000;stroke-width:1.76;stroke-miterlimit:10;" d="M24.7,80.7c0,0,3-2.7,6.4-2.4s6,3.3,6,3.3
			s-3,2.7-6.4,2.4S24.7,80.7,24.7,80.7z"/>
		<path style="fill:#009A3D;" d="M12.5,82.2c0,0,3-2.7,6.4-2.4s6,3.3,6,3.3s-3,2.7-6.4,2.4S12.5,82.2,12.5,82.2"/>
		<path style="fill:none;stroke:#000000;stroke-width:1.76;stroke-miterlimit:10;" d="M12.5,82.2c0,0,3-2.7,6.4-2.4s6,3.3,6,3.3
			s-3,2.7-6.4,2.4S12.5,82.2,12.5,82.2z"/>
		<path style="fill:#009A3D;" d="M36.2,96.1c0,0,3-2.7,6.4-2.4s6,3.3,6,3.3s-3,2.7-6.4,2.4S36.2,96.1,36.2,96.1"/>
		<path style="fill:none;stroke:#000000;stroke-width:1.76;stroke-miterlimit:10;" d="M36.2,96.1c0,0,3-2.7,6.4-2.4s6,3.3,6,3.3
			s-3,2.7-6.4,2.4S36.2,96.1,36.2,96.1z"/>
		<path style="fill:#009A3D;" d="M19.5,69.5c0,0,3.6-1.7,6.8-0.5s4.8,4.9,4.8,4.9s-3.6,1.7-6.8,0.5S19.5,69.6,19.5,69.5"/>
		<path style="fill:none;stroke:#000000;stroke-width:1.76;stroke-miterlimit:10;" d="M19.5,69.5c0,0,3.6-1.7,6.8-0.5
			s4.8,4.9,4.8,4.9s-3.6,1.7-6.8,0.5S19.5,69.5,19.5,69.5z"/>
		<path style="fill:#009A3D;" d="M7,71.5c0,0,3.6-1.7,6.8-0.5s4.8,4.9,4.8,4.9s-3.6,1.7-6.8,0.5S7,71.5,7,71.5"/>
		<path style="fill:none;stroke:#000000;stroke-width:1.76;stroke-miterlimit:10;" d="M7,71.5c0,0,3.6-1.7,6.8-0.5s4.8,4.9,4.8,4.9
			s-3.6,1.7-6.8,0.5S7,71.5,7,71.5z"/>
		<path style="fill:#009A3D;" d="M19.9,56.5c0,0,4-0.5,6.6,1.7s2.9,6.2,2.9,6.2s-4,0.4-6.6-1.7S19.9,56.5,19.9,56.5"/>
		<path style="fill:none;stroke:#000000;stroke-width:1.76;stroke-miterlimit:10;" d="M19.9,56.5c0,0,4-0.5,6.6,1.7s2.9,6.2,2.9,6.2
			s-4,0.4-6.6-1.7S19.9,56.5,19.9,56.5z"/>
		<path style="fill:#009A3D;" d="M34.9,45.1c0,0,4-0.5,6.6,1.7s2.9,6.2,2.9,6.2s-4,0.4-6.6-1.7S34.9,45.1,34.9,45.1"/>
		<path style="fill:none;stroke:#000000;stroke-width:1.76;stroke-miterlimit:10;" d="M34.9,45.1c0,0,4-0.5,6.6,1.7s2.9,6.2,2.9,6.2
			s-4,0.4-6.6-1.7S34.9,45.1,34.9,45.1z"/>
		<path style="fill:#009A3D;" d="M36,54c0,0,2.8,2.8,2.7,6.3s-3.1,6.1-3.1,6.1s-2.8-2.9-2.7-6.3S36,54,36,54"/>
		<path style="fill:none;stroke:#000000;stroke-width:1.76;stroke-miterlimit:10;" d="M36,54c0,0,2.8,2.8,2.7,6.3s-3.1,6.1-3.1,6.1
			s-2.8-2.9-2.7-6.3S36,54,36,54z"/>
		<path style="fill:#009A3D;" d="M46.3,63.2c0,0,0.2,4-2.2,6.5s-6.4,2.5-6.4,2.5s-0.2-4,2.2-6.5S46.3,63.2,46.3,63.2"/>
		<path style="fill:none;stroke:#000000;stroke-width:1.76;stroke-miterlimit:10;" d="M46.3,63.2c0,0,0.2,4-2.2,6.5
			s-6.4,2.5-6.4,2.5s-0.2-4,2.2-6.5S46.3,63.2,46.3,63.2z"/>
		<path style="fill:#009A3D;" d="M47.1,37.5c0,0,2.8,2.9,2.7,6.3s-3.1,6.1-3.1,6.1s-2.8-2.8-2.7-6.3S47.1,37.5,47.1,37.5"/>
		<path style="fill:none;stroke:#000000;stroke-width:1.76;stroke-miterlimit:10;" d="M47.1,37.5c0,0,2.8,2.9,2.7,6.3
			s-3.1,6.1-3.1,6.1s-2.8-2.8-2.7-6.3S47.1,37.5,47.1,37.5z"/>
		<path style="fill:#009A3D;" d="M55.2,41.4c0,0,2.8,2.8,2.7,6.3s-3.1,6.1-3.1,6.1s-2.8-2.9-2.7-6.3S55.1,41.4,55.2,41.4"/>
		<path style="fill:none;stroke:#000000;stroke-width:1.76;stroke-miterlimit:10;" d="M55.2,41.4c0,0,2.8,2.8,2.7,6.3
			s-3.1,6.1-3.1,6.1s-2.8-2.9-2.7-6.3S55.2,41.4,55.2,41.4z"/>
		<path style="fill:#009A3D;" d="M67.6,52.9c0,0-1.5,3.7-4.6,5.1s-6.8-0.3-6.8-0.3s1.5-3.7,4.6-5S67.6,53,67.6,52.9"/>
		<path style="fill:none;stroke:#000000;stroke-width:1.76;stroke-miterlimit:10;" d="M67.6,52.9c0,0-1.5,3.7-4.6,5.1
			s-6.8-0.3-6.8-0.3s1.5-3.7,4.6-5S67.6,52.9,67.6,52.9z"/>
		<path style="fill:#009A3D;" d="M66.6,60.3c0,0,0.5,4-1.6,6.6S58.9,70,58.9,70s-0.5-4,1.6-6.7S66.6,60.3,66.6,60.3"/>
		<path style="fill:none;stroke:#000000;stroke-width:1.76;stroke-miterlimit:10;" d="M66.6,60.3c0,0,0.5,4-1.6,6.6S58.9,70,58.9,70
			s-0.5-4,1.6-6.7S66.6,60.3,66.6,60.3z"/>
		<path style="fill:#009A3D;" d="M65.4,78c0,0-3.5,1.8-6.8,0.8s-5-4.7-5-4.7s3.5-1.9,6.8-0.8S65.4,78,65.4,78"/>
		<path style="fill:none;stroke:#000000;stroke-width:1.76;stroke-miterlimit:10;" d="M65.4,78c0,0-3.5,1.8-6.8,0.8s-5-4.7-5-4.7
			s3.5-1.9,6.8-0.8S65.4,78,65.4,78z"/>
		<path style="fill:#009A3D;" d="M63.3,84.5c0,0-2.2,3.3-5.6,3.9s-6.6-1.7-6.6-1.7s2.2-3.3,5.6-3.9S63.3,84.5,63.3,84.5"/>
		<path style="fill:none;stroke:#000000;stroke-width:1.76;stroke-miterlimit:10;" d="M63.3,84.5c0,0-2.2,3.3-5.6,3.9
			s-6.6-1.7-6.6-1.7s2.2-3.3,5.6-3.9S63.3,84.5,63.3,84.5z"/>
		<path style="fill:#009A3D;" d="M68.5,44.3c0,0,3.7,1.6,4.9,4.8S72.8,56,72.8,56s-3.7-1.6-4.9-4.8S68.5,44.4,68.5,44.3"/>
		<path style="fill:none;stroke:#000000;stroke-width:1.76;stroke-miterlimit:10;" d="M68.5,44.3c0,0,3.7,1.6,4.9,4.8
			S72.8,56,72.8,56s-3.7-1.6-4.9-4.8S68.5,44.3,68.5,44.3z"/>
		<path style="fill:#009A3D;" d="M81.4,46.9c0,0,2.2,3.3,1.4,6.7S78.7,59,78.7,59s-2.2-3.3-1.4-6.7S81.4,46.9,81.4,46.9"/>
		<path style="fill:none;stroke:#000000;stroke-width:1.76;stroke-miterlimit:10;" d="M81.4,46.9c0,0,2.2,3.3,1.4,6.7
			S78.7,59,78.7,59s-2.2-3.3-1.4-6.7S81.4,46.9,81.4,46.9z"/>
		<path style="fill:#009A3D;" d="M79.3,9.7c0,0,2.2,3.3,1.4,6.7s-4.2,5.4-4.2,5.4s-2.2-3.3-1.4-6.7S79.3,9.7,79.3,9.7"/>
		<path style="fill:none;stroke:#000000;stroke-width:1.76;stroke-miterlimit:10;" d="M79.3,9.7c0,0,2.2,3.3,1.4,6.7
			s-4.2,5.4-4.2,5.4s-2.2-3.3-1.4-6.7S79.3,9.7,79.3,9.7z"/>
		<path style="fill:#009A3D;" d="M89.3,20.6c0,0-1.6,3.7-4.8,4.9S77.6,25,77.6,25s1.6-3.7,4.8-4.9S89.3,20.7,89.3,20.6"/>
		<path style="fill:none;stroke:#000000;stroke-width:1.76;stroke-miterlimit:10;" d="M89.3,20.6c0,0-1.6,3.7-4.8,4.9
			S77.6,25,77.6,25s1.6-3.7,4.8-4.9S89.3,20.6,89.3,20.6z"/>
		<path style="fill:#009A3D;" d="M90.3,28.5c0,0-1.6,3.7-4.8,4.9s-6.8-0.5-6.8-0.5s1.6-3.7,4.8-4.9S90.3,28.5,90.3,28.5"/>
		<path style="fill:none;stroke:#000000;stroke-width:1.76;stroke-miterlimit:10;" d="M90.3,28.5c0,0-1.6,3.7-4.8,4.9
			s-6.8-0.5-6.8-0.5s1.6-3.7,4.8-4.9S90.3,28.5,90.3,28.5z"/>
		<path style="fill:#009A3D;" d="M97.8,33.2c0,0-1.6,3.7-4.8,4.9s-6.8-0.5-6.8-0.5s1.6-3.7,4.8-4.9S97.8,33.2,97.8,33.2"/>
		<path style="fill:none;stroke:#000000;stroke-width:1.76;stroke-miterlimit:10;" d="M97.8,33.2c0,0-1.6,3.7-4.8,4.9
			s-6.8-0.5-6.8-0.5s1.6-3.7,4.8-4.9S97.8,33.2,97.8,33.2z"/>
		<path style="fill:#009A3D;" d="M102.3,30.7c0,0-3.9,0.9-6.8-1.1S92,23.8,92,23.8s3.9-0.8,6.8,1.1S102.3,30.7,102.3,30.7"/>
		<path style="fill:none;stroke:#000000;stroke-width:1.76;stroke-miterlimit:10;" d="M102.3,30.7c0,0-3.9,0.9-6.8-1.1
			S92,23.8,92,23.8s3.9-0.8,6.8,1.1S102.3,30.7,102.3,30.7z"/>
		<path style="fill:#009A3D;" d="M95,17.7c0,0-3.9,0.9-6.8-1.1s-3.5-5.9-3.5-5.9s3.9-0.9,6.8,1.1S95,17.7,95,17.7"/>
		<path style="fill:none;stroke:#000000;stroke-width:1.76;stroke-miterlimit:10;" d="M95,17.7c0,0-3.9,0.9-6.8-1.1
			s-3.5-5.9-3.5-5.9s3.9-0.9,6.8,1.1S95,17.7,95,17.7z"/>
		<path style="fill:#009A3D;" d="M97.5,18.1c0,0-2.6-3.1-2.2-6.5s3.6-5.8,3.6-5.8s2.6,3.1,2.2,6.5S97.5,18.1,97.5,18.1"/>
		<path style="fill:none;stroke:#000000;stroke-width:1.76;stroke-miterlimit:10;" d="M97.5,18.1c0,0-2.6-3.1-2.2-6.5
			s3.6-5.8,3.6-5.8s2.6,3.1,2.2,6.5S97.5,18.1,97.5,18.1z"/>
		<path style="fill:#009A3D;" d="M99.3,23.1c0,0-0.4-4,1.8-6.6s6.2-2.9,6.2-2.9s0.4,4-1.8,6.6S99.3,23.1,99.3,23.1"/>
		<path style="fill:none;stroke:#000000;stroke-width:1.76;stroke-miterlimit:10;" d="M99.3,23.1c0,0-0.4-4,1.8-6.6s6.2-2.9,6.2-2.9
			s0.4,4-1.8,6.6S99.3,23.1,99.3,23.1z"/>
		<path style="fill:#009A3D;" d="M105.3,29.7c0,0-0.4-4,1.8-6.6s6.2-2.9,6.2-2.9s0.4,4-1.8,6.6S105.3,29.7,105.3,29.7"/>
		<path style="fill:none;stroke:#000000;stroke-width:1.76;stroke-miterlimit:10;" d="M105.3,29.7c0,0-0.4-4,1.8-6.6
			s6.2-2.9,6.2-2.9s0.4,4-1.8,6.6S105.3,29.7,105.3,29.7z"/>
		<path style="fill:#009A3D;" d="M142.6,22.3c0,0-0.4-4,1.8-6.6s6.2-2.9,6.2-2.9s0.4,4-1.8,6.6S142.6,22.3,142.6,22.3"/>
		<path style="fill:none;stroke:#000000;stroke-width:1.76;stroke-miterlimit:10;" d="M142.6,22.3c0,0-0.4-4,1.8-6.6
			s6.2-2.9,6.2-2.9s0.4,4-1.8,6.6S142.6,22.3,142.6,22.3z"/>
		<path style="fill:#009A3D;" d="M106.4,35.2c0,0,1.7-3.6,5-4.7s6.8,0.8,6.8,0.8s-1.7,3.6-5,4.7S106.4,35.2,106.4,35.2"/>
		<path style="fill:none;stroke:#000000;stroke-width:1.76;stroke-miterlimit:10;" d="M106.4,35.2c0,0,1.7-3.6,5-4.7
			s6.8,0.8,6.8,0.8s-1.7,3.6-5,4.7S106.4,35.2,106.4,35.2z"/>
		<path style="fill:#009A3D;" d="M104.7,43.3c0,0,1.7-3.6,5-4.7s6.8,0.8,6.8,0.8s-1.7,3.6-5,4.7S104.7,43.3,104.7,43.3"/>
		<path style="fill:none;stroke:#000000;stroke-width:1.76;stroke-miterlimit:10;" d="M104.7,43.3c0,0,1.7-3.6,5-4.7
			s6.8,0.8,6.8,0.8s-1.7,3.6-5,4.7S104.7,43.3,104.7,43.3z"/>
		<path style="fill:#009A3D;" d="M106.6,51c0,0,1.7-3.6,5-4.7s6.8,0.8,6.8,0.8s-1.7,3.6-5,4.7S106.6,51,106.6,51"/>
		<path style="fill:none;stroke:#000000;stroke-width:1.76;stroke-miterlimit:10;" d="M106.6,51c0,0,1.7-3.6,5-4.7s6.8,0.8,6.8,0.8
			s-1.7,3.6-5,4.7S106.6,51,106.6,51z"/>
		<path style="fill:#009A3D;" d="M119.5,38.1c0,0,4,0.3,6.2,3s1.7,6.6,1.7,6.6s-4-0.3-6.2-2.9S119.5,38.2,119.5,38.1"/>
		<path style="fill:none;stroke:#000000;stroke-width:1.76;stroke-miterlimit:10;" d="M119.5,38.1c0,0,4,0.3,6.2,3s1.7,6.6,1.7,6.6
			s-4-0.3-6.2-2.9S119.5,38.1,119.5,38.1z"/>
		<path style="fill:#009A3D;" d="M125.2,33.6c0,0,4,0.3,6.2,3s1.7,6.6,1.7,6.6s-4-0.3-6.2-3S125.2,33.7,125.2,33.6"/>
		<path style="fill:none;stroke:#000000;stroke-width:1.76;stroke-miterlimit:10;" d="M125.2,33.6c0,0,4,0.3,6.2,3s1.7,6.6,1.7,6.6
			s-4-0.3-6.2-3S125.2,33.6,125.2,33.6z"/>
		<path style="fill:#009A3D;" d="M117.5,20.1c0,0,4,0.3,6.2,3s1.7,6.6,1.7,6.6s-4-0.3-6.2-3S117.5,20.2,117.5,20.1"/>
		<path style="fill:none;stroke:#000000;stroke-width:1.76;stroke-miterlimit:10;" d="M117.5,20.1c0,0,4,0.3,6.2,3s1.7,6.6,1.7,6.6
			s-4-0.3-6.2-3S117.5,20.1,117.5,20.1z"/>
		<path style="fill:#009A3D;" d="M127.5,15.3c0,0,3.5,2,4.3,5.3s-1.4,6.7-1.4,6.7s-3.5-2-4.3-5.3S127.5,15.3,127.5,15.3"/>
		<path style="fill:none;stroke:#000000;stroke-width:1.76;stroke-miterlimit:10;" d="M127.5,15.3c0,0,3.5,2,4.3,5.3
			s-1.4,6.7-1.4,6.7s-3.5-2-4.3-5.3S127.5,15.3,127.5,15.3z"/>
		<path style="fill:#009A3D;" d="M139.2,17.8c0,0,1.8,3.6,0.6,6.8s-4.8,4.8-4.8,4.8s-1.8-3.6-0.6-6.8S139.2,17.8,139.2,17.8"/>
		<path style="fill:none;stroke:#000000;stroke-width:1.76;stroke-miterlimit:10;" d="M139.2,17.8c0,0,1.8,3.6,0.6,6.8
			s-4.8,4.8-4.8,4.8s-1.8-3.6-0.6-6.8S139.2,17.8,139.2,17.8z"/>
		<path style="fill:#009A3D;" d="M149.8,26c0,0-1,3.9-4.1,5.5s-6.8,0.4-6.8,0.4s1.1-3.9,4.1-5.5S149.8,26,149.8,26"/>
		<path style="fill:none;stroke:#000000;stroke-width:1.76;stroke-miterlimit:10;" d="M149.8,26c0,0-1,3.9-4.1,5.5s-6.8,0.4-6.8,0.4
			s1.1-3.9,4.1-5.5S149.8,26,149.8,26z"/>
		<path style="fill:#009A3D;" d="M164.5,11.9c0,0-1.1,3.9-4.1,5.5s-6.8,0.4-6.8,0.4s1-3.9,4-5.5S164.4,11.9,164.5,11.9"/>
		<path style="fill:none;stroke:#000000;stroke-width:1.76;stroke-miterlimit:10;" d="M164.5,11.9c0,0-1.1,3.9-4.1,5.5
			s-6.8,0.4-6.8,0.4s1-3.9,4-5.5S164.5,11.9,164.5,11.9z"/>
		<path style="fill:#009A3D;" d="M208.9,12.1c0,0-1.1,3.9-4.1,5.5s-6.8,0.4-6.8,0.4s1.1-3.9,4.1-5.5S208.9,12.1,208.9,12.1"/>
		<path style="fill:none;stroke:#000000;stroke-width:1.76;stroke-miterlimit:10;" d="M208.9,12.1c0,0-1.1,3.9-4.1,5.5
			s-6.8,0.4-6.8,0.4s1.1-3.9,4.1-5.5S208.9,12.1,208.9,12.1z"/>
		<path style="fill:#009A3D;" d="M152.8,33.9c0,0-1.1,3.9-4.1,5.5s-6.8,0.4-6.8,0.4s1.1-3.9,4.1-5.5S152.8,33.9,152.8,33.9"/>
		<path style="fill:none;stroke:#000000;stroke-width:1.76;stroke-miterlimit:10;" d="M152.8,33.9c0,0-1.1,3.9-4.1,5.5
			s-6.8,0.4-6.8,0.4s1.1-3.9,4.1-5.5S152.8,33.9,152.8,33.9z"/>
		<path style="fill:#009A3D;" d="M151.7,43.3c0,0-1.1,3.9-4.1,5.5s-6.8,0.4-6.8,0.4s1-3.9,4-5.5S151.7,43.3,151.7,43.3"/>
		<path style="fill:none;stroke:#000000;stroke-width:1.76;stroke-miterlimit:10;" d="M151.7,43.3c0,0-1.1,3.9-4.1,5.5
			s-6.8,0.4-6.8,0.4s1-3.9,4-5.5S151.7,43.3,151.7,43.3z"/>
		<path style="fill:#009A3D;" d="M129.9,57.8c0,0,2.4-3.2,5.8-3.7s6.5,2,6.5,2s-2.4,3.2-5.8,3.7S129.9,57.8,129.9,57.8"/>
		<path style="fill:none;stroke:#000000;stroke-width:1.76;stroke-miterlimit:10;" d="M129.9,57.8c0,0,2.4-3.2,5.8-3.7s6.5,2,6.5,2
			s-2.4,3.2-5.8,3.7S129.9,57.8,129.9,57.8z"/>
		<path style="fill:#009A3D;" d="M123.9,60.8c0,0,3.8-1.3,6.8,0.3s4.2,5.4,4.2,5.4s-3.8,1.3-6.8-0.3S123.9,60.8,123.9,60.8"/>
		<path style="fill:none;stroke:#000000;stroke-width:1.76;stroke-miterlimit:10;" d="M123.9,60.8c0,0,3.8-1.3,6.8,0.3
			s4.2,5.4,4.2,5.4s-3.8,1.3-6.8-0.3S123.9,60.8,123.9,60.8z"/>
		<path style="fill:#009A3D;" d="M121.8,71.3c0,0,3.2-2.5,6.5-2c3.4,0.5,5.7,3.8,5.7,3.8s-3.2,2.5-6.6,2S121.7,71.3,121.8,71.3"/>
		<path style="fill:none;stroke:#000000;stroke-width:1.76;stroke-miterlimit:10;" d="M121.8,71.3c0,0,3.2-2.5,6.5-2
			c3.4,0.5,5.7,3.8,5.7,3.8s-3.2,2.5-6.6,2S121.8,71.3,121.8,71.3z"/>
		<path style="fill:#009A3D;" d="M120.1,79.2c0,0,3.2-2.5,6.6-2s5.7,3.8,5.7,3.8s-3.2,2.5-6.6,2S120.1,79.3,120.1,79.2"/>
		<path style="fill:none;stroke:#000000;stroke-width:1.76;stroke-miterlimit:10;" d="M120.1,79.2c0,0,3.2-2.5,6.6-2
			s5.7,3.8,5.7,3.8s-3.2,2.5-6.6,2S120.1,79.2,120.1,79.2z"/>
		<path style="fill:#009A3D;" d="M222.4,68.6c0,0,3.6-1.8,6.8-0.6s4.9,4.8,4.9,4.8s-3.6,1.8-6.8,0.6S222.4,68.6,222.4,68.6"/>
		<path style="fill:none;stroke:#000000;stroke-width:1.76;stroke-miterlimit:10;" d="M222.4,68.6c0,0,3.6-1.8,6.8-0.6
			s4.9,4.8,4.9,4.8s-3.6,1.8-6.8,0.6S222.4,68.6,222.4,68.6z"/>
		<path style="fill:#009A3D;" d="M116.1,83.5c0,0,4-0.4,6.6,1.8s2.8,6.2,2.8,6.2s-4,0.4-6.6-1.8S116.1,83.5,116.1,83.5"/>
		<path style="fill:none;stroke:#000000;stroke-width:1.76;stroke-miterlimit:10;" d="M116.1,83.5c0,0,4-0.4,6.6,1.8
			s2.8,6.2,2.8,6.2s-4,0.4-6.6-1.8S116.1,83.5,116.1,83.5z"/>
		<path style="fill:#009A3D;" d="M129.8,94.9c0,0,4-0.4,6.6,1.8s2.9,6.2,2.9,6.2s-4,0.4-6.6-1.8S129.8,94.9,129.8,94.9"/>
		<path style="fill:none;stroke:#000000;stroke-width:1.76;stroke-miterlimit:10;" d="M129.8,94.9c0,0,4-0.4,6.6,1.8
			s2.9,6.2,2.9,6.2s-4,0.4-6.6-1.8S129.8,94.9,129.8,94.9z"/>
		<path style="fill:#009A3D;" d="M136.9,89.3c0,0,4-0.4,6.6,1.8s2.9,6.2,2.9,6.2s-4,0.4-6.6-1.8S136.9,89.3,136.9,89.3"/>
		<path style="fill:none;stroke:#000000;stroke-width:1.76;stroke-miterlimit:10;" d="M136.9,89.3c0,0,4-0.4,6.6,1.8
			s2.9,6.2,2.9,6.2s-4,0.4-6.6-1.8S136.9,89.3,136.9,89.3z"/>
		<path style="fill:#009A3D;" d="M144.3,84.4c0,0,4-0.4,6.6,1.8s2.9,6.2,2.9,6.2s-4,0.4-6.6-1.8S144.3,84.4,144.3,84.4"/>
		<path style="fill:none;stroke:#000000;stroke-width:1.76;stroke-miterlimit:10;" d="M144.3,84.4c0,0,4-0.4,6.6,1.8
			s2.9,6.2,2.9,6.2s-4,0.4-6.6-1.8S144.3,84.4,144.3,84.4z"/>
		<path style="fill:#009A3D;" d="M147.4,81.3c0,0,2.9-2.7,6.3-2.6s6,3.2,6,3.2s-2.9,2.7-6.3,2.6S147.4,81.3,147.4,81.3"/>
		<path style="fill:none;stroke:#000000;stroke-width:1.76;stroke-miterlimit:10;" d="M147.4,81.3c0,0,2.9-2.7,6.3-2.6s6,3.2,6,3.2
			s-2.9,2.7-6.3,2.6S147.4,81.3,147.4,81.3z"/>
		<path style="fill:#009A3D;" d="M145,75.9c0,0,1.3-3.8,4.3-5.3s6.8-0.1,6.8-0.1s-1.3,3.8-4.3,5.3S145,75.9,145,75.9"/>
		<path style="fill:none;stroke:#000000;stroke-width:1.76;stroke-miterlimit:10;" d="M145,75.9c0,0,1.3-3.8,4.3-5.3
			s6.8-0.1,6.8-0.1s-1.3,3.8-4.3,5.3S145,75.9,145,75.9z"/>
		<path style="fill:#009A3D;" d="M134.5,72.9c0,0,1.3-3.8,4.3-5.3s6.8-0.1,6.8-0.1s-1.3,3.8-4.3,5.3S134.5,72.9,134.5,72.9"/>
		<path style="fill:none;stroke:#000000;stroke-width:1.76;stroke-miterlimit:10;" d="M134.5,72.9c0,0,1.3-3.8,4.3-5.3
			s6.8-0.1,6.8-0.1s-1.3,3.8-4.3,5.3S134.5,72.9,134.5,72.9z"/>
		<path style="fill:#009A3D;" d="M155.4,65.1c0,0-3-2.7-3.1-6.1s2.7-6.3,2.7-6.3s3,2.7,3.1,6.1S155.4,65.1,155.4,65.1"/>
		<path style="fill:none;stroke:#000000;stroke-width:1.76;stroke-miterlimit:10;" d="M155.4,65.1c0,0-3-2.7-3.1-6.1
			s2.7-6.3,2.7-6.3s3,2.7,3.1,6.1S155.4,65.1,155.4,65.1z"/>
		<path style="fill:#009A3D;" d="M157.1,41.8c0,0-3-2.7-3.1-6.1s2.7-6.3,2.7-6.3s3,2.7,3.1,6.1S157.1,41.8,157.1,41.8"/>
		<path style="fill:none;stroke:#000000;stroke-width:1.76;stroke-miterlimit:10;" d="M157.1,41.8c0,0-3-2.7-3.1-6.1
			s2.7-6.3,2.7-6.3s3,2.7,3.1,6.1S157.1,41.8,157.1,41.8z"/>
		<path style="fill:#009A3D;" d="M159.1,43.3c0,0,0.9-3.9,3.8-5.7s6.8-0.7,6.8-0.7s-0.9,3.9-3.8,5.7S159.1,43.3,159.1,43.3"/>
		<path style="fill:none;stroke:#000000;stroke-width:1.76;stroke-miterlimit:10;" d="M159.1,43.3c0,0,0.9-3.9,3.8-5.7
			s6.8-0.7,6.8-0.7s-0.9,3.9-3.8,5.7S159.1,43.3,159.1,43.3z"/>
		<path style="fill:#009A3D;" d="M157.4,49.1c0,0,3-2.7,6.4-2.4s6,3.3,6,3.3s-3,2.7-6.4,2.4S157.4,49.1,157.4,49.1"/>
		<path style="fill:none;stroke:#000000;stroke-width:1.76;stroke-miterlimit:10;" d="M157.4,49.1c0,0,3-2.7,6.4-2.4s6,3.3,6,3.3
			s-3,2.7-6.4,2.4S157.4,49.1,157.4,49.1z"/>
		<path style="fill:#009A3D;" d="M174.6,37.1c0,0,3.1,2.5,3.4,5.9s-2.4,6.4-2.4,6.4s-3.1-2.5-3.4-5.9S174.6,37.1,174.6,37.1"/>
		<path style="fill:none;stroke:#000000;stroke-width:1.76;stroke-miterlimit:10;" d="M174.6,37.1c0,0,3.1,2.5,3.4,5.9
			s-2.4,6.4-2.4,6.4s-3.1-2.5-3.4-5.9S174.6,37.1,174.6,37.1z"/>
		<path style="fill:#009A3D;" d="M177,32.4c0,0-3.4,2-6.8,1.1s-5.1-4.5-5.1-4.5s3.4-2,6.7-1.1S177,32.3,177,32.4"/>
		<path style="fill:none;stroke:#000000;stroke-width:1.76;stroke-miterlimit:10;" d="M177,32.4c0,0-3.4,2-6.8,1.1s-5.1-4.5-5.1-4.5
			s3.4-2,6.7-1.1S177,32.4,177,32.4z"/>
		<path style="fill:#009A3D;" d="M175.8,23.8c0,0-3.4,2-6.7,1.1s-5.2-4.4-5.2-4.4s3.4-2,6.8-1.1S175.8,23.8,175.8,23.8"/>
		<path style="fill:none;stroke:#000000;stroke-width:1.76;stroke-miterlimit:10;" d="M175.8,23.8c0,0-3.4,2-6.7,1.1
			s-5.2-4.4-5.2-4.4s3.4-2,6.8-1.1S175.8,23.8,175.8,23.8z"/>
		<path style="fill:#009A3D;" d="M162.9,26.1c0,0-3.4,2-6.8,1.1s-5.2-4.4-5.2-4.4s3.4-2,6.8-1.1S162.9,26.1,162.9,26.1"/>
		<path style="fill:none;stroke:#000000;stroke-width:1.76;stroke-miterlimit:10;" d="M162.9,26.1c0,0-3.4,2-6.8,1.1
			s-5.2-4.4-5.2-4.4s3.4-2,6.8-1.1S162.9,26.1,162.9,26.1z"/>
		<path style="fill:#009A3D;" d="M179.2,15.5c0,0-3.4,2-6.7,1.1s-5.2-4.4-5.2-4.4s3.4-2,6.8-1.1S179.2,15.5,179.2,15.5"/>
		<path style="fill:none;stroke:#000000;stroke-width:1.76;stroke-miterlimit:10;" d="M179.2,15.5c0,0-3.4,2-6.7,1.1
			s-5.2-4.4-5.2-4.4s3.4-2,6.8-1.1S179.2,15.5,179.2,15.5z"/>
		<path style="fill:#009A3D;" d="M179.4,13.6c0,0-3-2.7-3.1-6.1s2.7-6.3,2.7-6.3s3,2.7,3.1,6.1S179.4,13.6,179.4,13.6"/>
		<path style="fill:none;stroke:#000000;stroke-width:1.76;stroke-miterlimit:10;" d="M179.4,13.6c0,0-3-2.7-3.1-6.1
			s2.7-6.3,2.7-6.3s3,2.7,3.1,6.1S179.4,13.6,179.4,13.6z"/>
		<path style="fill:#009A3D;" d="M181.6,15.4c0,0,0-4,2.4-6.4s6.5-2.3,6.5-2.3s0,4-2.4,6.4S181.6,15.4,181.6,15.4"/>
		<path style="fill:none;stroke:#000000;stroke-width:1.76;stroke-miterlimit:10;" d="M181.6,15.4c0,0,0-4,2.4-6.4s6.5-2.3,6.5-2.3
			s0,4-2.4,6.4S181.6,15.4,181.6,15.4z"/>
		<path style="fill:#009A3D;" d="M183.3,20.2c0,0,2.3-3.3,5.6-3.9s6.6,1.8,6.6,1.8s-2.3,3.3-5.6,3.9S183.3,20.2,183.3,20.2"/>
		<path style="fill:none;stroke:#000000;stroke-width:1.76;stroke-miterlimit:10;" d="M183.3,20.2c0,0,2.3-3.3,5.6-3.9
			s6.6,1.8,6.6,1.8s-2.3,3.3-5.6,3.9S183.3,20.2,183.3,20.2z"/>
		<path style="fill:#009A3D;" d="M177.6,27.9c0,0,2.3-3.3,5.6-3.9s6.6,1.8,6.6,1.8s-2.3,3.3-5.6,3.9S177.6,27.9,177.6,27.9"/>
		<path style="fill:none;stroke:#000000;stroke-width:1.76;stroke-miterlimit:10;" d="M177.6,27.9c0,0,2.3-3.3,5.6-3.9
			s6.6,1.8,6.6,1.8s-2.3,3.3-5.6,3.9S177.6,27.9,177.6,27.9z"/>
		<path style="fill:#009A3D;" d="M192.3,31.3c0,0-0.8-3.9,1.2-6.7s5.9-3.4,5.9-3.4s0.8,3.9-1.2,6.7S192.3,31.3,192.3,31.3"/>
		<path style="fill:none;stroke:#000000;stroke-width:1.76;stroke-miterlimit:10;" d="M192.3,31.3c0,0-0.8-3.9,1.2-6.7
			s5.9-3.4,5.9-3.4s0.8,3.9-1.2,6.7S192.3,31.3,192.3,31.3z"/>
		<path style="fill:#009A3D;" d="M204.5,32.8c0,0-2.8-2.8-2.8-6.3s3-6.1,3-6.1s2.8,2.8,2.8,6.3S204.5,32.8,204.5,32.8"/>
		<path style="fill:none;stroke:#000000;stroke-width:1.76;stroke-miterlimit:10;" d="M204.5,32.8c0,0-2.8-2.8-2.8-6.3s3-6.1,3-6.1
			s2.8,2.8,2.8,6.3S204.5,32.8,204.5,32.8z"/>
		<path style="fill:#009A3D;" d="M211.1,28.5c0,0-1.9-3.5-0.9-6.8s4.6-5.1,4.6-5.1s1.9,3.5,0.9,6.8S211.1,28.5,211.1,28.5"/>
		<path style="fill:none;stroke:#000000;stroke-width:1.76;stroke-miterlimit:10;" d="M211.1,28.5c0,0-1.9-3.5-0.9-6.8
			s4.6-5.1,4.6-5.1s1.9,3.5,0.9,6.8S211.1,28.5,211.1,28.5z"/>
		<path style="fill:#009A3D;" d="M210.6,32.6c0,0,1.9-3.5,5.2-4.5s6.7,1.1,6.7,1.1s-1.9,3.5-5.2,4.4S210.6,32.6,210.6,32.6"/>
		<path style="fill:none;stroke:#000000;stroke-width:1.76;stroke-miterlimit:10;" d="M210.6,32.6c0,0,1.9-3.5,5.2-4.5
			s6.7,1.1,6.7,1.1s-1.9,3.5-5.2,4.4S210.6,32.6,210.6,32.6z"/>
		<path style="fill:#009A3D;" d="M207.3,37.2c0,0,3.6-1.8,6.8-0.7s4.9,4.8,4.9,4.8s-3.6,1.8-6.8,0.7S207.3,37.2,207.3,37.2"/>
		<path style="fill:none;stroke:#000000;stroke-width:1.76;stroke-miterlimit:10;" d="M207.3,37.2c0,0,3.6-1.8,6.8-0.7
			s4.9,4.8,4.9,4.8s-3.6,1.8-6.8,0.7S207.3,37.2,207.3,37.2z"/>
		<path style="fill:#009A3D;" d="M202.1,40c0,0,3.9,0.8,5.8,3.6s1,6.8,1,6.8s-3.9-0.8-5.8-3.6S202.1,40,202.1,40"/>
		<path style="fill:none;stroke:#000000;stroke-width:1.76;stroke-miterlimit:10;" d="M202.1,40c0,0,3.9,0.8,5.8,3.6s1,6.8,1,6.8
			s-3.9-0.8-5.8-3.6S202.1,40,202.1,40z"/>
		<path style="fill:#009A3D;" d="M192.3,39.8c0,0,3.9,0.8,5.8,3.6s1,6.8,1,6.8s-3.9-0.8-5.8-3.6S192.3,39.8,192.3,39.8"/>
		<path style="fill:none;stroke:#000000;stroke-width:1.76;stroke-miterlimit:10;" d="M192.3,39.8c0,0,3.9,0.8,5.8,3.6s1,6.8,1,6.8
			s-3.9-0.8-5.8-3.6S192.3,39.8,192.3,39.8z"/>
		<path style="fill:#009A3D;" d="M186.5,51.6c0,0,3.5-2,6.8-1s5.1,4.5,5.1,4.5s-3.5,2-6.8,1S186.5,51.6,186.5,51.6"/>
		<path style="fill:none;stroke:#000000;stroke-width:1.76;stroke-miterlimit:10;" d="M186.5,51.6c0,0,3.5-2,6.8-1s5.1,4.5,5.1,4.5
			s-3.5,2-6.8,1S186.5,51.6,186.5,51.6z"/>
		<path style="fill:#009A3D;" d="M182.4,58c0,0,3.5-2,6.8-1s5.1,4.5,5.1,4.5s-3.5,2-6.8,1S182.4,58,182.4,58"/>
		<path style="fill:none;stroke:#000000;stroke-width:1.76;stroke-miterlimit:10;" d="M182.4,58c0,0,3.5-2,6.8-1s5.1,4.5,5.1,4.5
			s-3.5,2-6.8,1S182.4,58,182.4,58z"/>
		<path style="fill:#009A3D;" d="M176.5,58.4c0,0,4,0.3,6.2,3s1.7,6.6,1.7,6.6s-4-0.3-6.2-2.9S176.5,58.4,176.5,58.4"/>
		<path style="fill:none;stroke:#000000;stroke-width:1.76;stroke-miterlimit:10;" d="M176.5,58.4c0,0,4,0.3,6.2,3s1.7,6.6,1.7,6.6
			s-4-0.3-6.2-2.9S176.5,58.4,176.5,58.4z"/>
		<path style="fill:#009A3D;" d="M174.3,63.8c0,0,1.7,3.6,0.6,6.8s-4.8,4.8-4.8,4.8s-1.8-3.6-0.6-6.8S174.3,63.8,174.3,63.8"/>
		<path style="fill:none;stroke:#000000;stroke-width:1.76;stroke-miterlimit:10;" d="M174.3,63.8c0,0,1.7,3.6,0.6,6.8
			s-4.8,4.8-4.8,4.8s-1.8-3.6-0.6-6.8S174.3,63.8,174.3,63.8z"/>
		<path style="fill:#009A3D;" d="M190.6,68.8c0,0-1.4,3.8-4.5,5.1s-6.8-0.2-6.8-0.2s1.4-3.8,4.5-5.1S190.6,68.8,190.6,68.8"/>
		<path style="fill:none;stroke:#000000;stroke-width:1.76;stroke-miterlimit:10;" d="M190.6,68.8c0,0-1.4,3.8-4.5,5.1
			s-6.8-0.2-6.8-0.2s1.4-3.8,4.5-5.1S190.6,68.8,190.6,68.8z"/>
		<path style="fill:#009A3D;" d="M199.4,71.8c0,0-1.4,3.8-4.5,5.2s-6.9-0.2-6.9-0.2s1.4-3.8,4.5-5.1S199.4,71.8,199.4,71.8"/>
		<path style="fill:none;stroke:#000000;stroke-width:1.76;stroke-miterlimit:10;" d="M199.4,71.8c0,0-1.4,3.8-4.5,5.2
			s-6.9-0.2-6.9-0.2s1.4-3.8,4.5-5.1S199.4,71.8,199.4,71.8z"/>
		<path style="fill:#009A3D;" d="M223.6,54.7c0,0-1.4,3.8-4.5,5.1s-6.8-0.2-6.8-0.2s1.4-3.8,4.5-5.1S223.6,54.7,223.6,54.7"/>
		<path style="fill:none;stroke:#000000;stroke-width:1.76;stroke-miterlimit:10;" d="M223.6,54.7c0,0-1.4,3.8-4.5,5.1
			s-6.8-0.2-6.8-0.2s1.4-3.8,4.5-5.1S223.6,54.7,223.6,54.7z"/>
		<path style="fill:#009A3D;" d="M222.8,45.3c0,0-1.4,3.8-4.5,5.1s-6.8-0.2-6.8-0.2s1.4-3.8,4.5-5.1S222.8,45.3,222.8,45.3"/>
		<path style="fill:none;stroke:#000000;stroke-width:1.76;stroke-miterlimit:10;" d="M222.8,45.3c0,0-1.4,3.8-4.5,5.1
			s-6.8-0.2-6.8-0.2s1.4-3.8,4.5-5.1S222.8,45.3,222.8,45.3z"/>
		<path style="fill:#009A3D;" d="M205.8,76.5c0,0-1.4,3.8-4.5,5.1s-6.8-0.2-6.8-0.2s1.4-3.8,4.5-5.1S205.8,76.5,205.8,76.5"/>
		<path style="fill:none;stroke:#000000;stroke-width:1.76;stroke-miterlimit:10;" d="M205.8,76.5c0,0-1.4,3.8-4.5,5.1
			s-6.8-0.2-6.8-0.2s1.4-3.8,4.5-5.1S205.8,76.5,205.8,76.5z"/>
		<path style="fill:#009A3D;" d="M205.4,72.6c0,0-3.9-0.9-5.6-3.8s-0.7-6.8-0.7-6.8s3.9,0.9,5.7,3.9S205.4,72.6,205.4,72.6"/>
		<path style="fill:none;stroke:#000000;stroke-width:1.76;stroke-miterlimit:10;" d="M205.4,72.6c0,0-3.9-0.9-5.6-3.8
			s-0.7-6.8-0.7-6.8s3.9,0.9,5.7,3.9S205.4,72.6,205.4,72.6z"/>
		<path style="fill:#009A3D;" d="M209.6,67.9c0,0-3.1-2.6-3.3-6s2.4-6.4,2.4-6.4s3.1,2.6,3.3,6S209.6,67.9,209.6,67.9"/>
		<path style="fill:none;stroke:#000000;stroke-width:1.76;stroke-miterlimit:10;" d="M209.6,67.9c0,0-3.1-2.6-3.3-6
			s2.4-6.4,2.4-6.4s3.1,2.6,3.3,6S209.6,67.9,209.6,67.9z"/>
		<path style="fill:#009A3D;" d="M210.9,71.6c0,0,0.5-4,3.3-6s6.7-1.3,6.7-1.3s-0.5,4-3.3,6S210.9,71.6,210.9,71.6"/>
		<path style="fill:none;stroke:#000000;stroke-width:1.76;stroke-miterlimit:10;" d="M210.9,71.6c0,0,0.5-4,3.3-6s6.7-1.3,6.7-1.3
			s-0.5,4-3.3,6S210.9,71.6,210.9,71.6z"/>
		<path style="fill:#009A3D;" d="M210.9,77.6c0,0,2.2-3.4,5.5-4s6.6,1.7,6.6,1.7s-2.2,3.4-5.5,4S210.9,77.6,210.9,77.6"/>
		<path style="fill:none;stroke:#000000;stroke-width:1.76;stroke-miterlimit:10;" d="M210.9,77.6c0,0,2.2-3.4,5.5-4
			s6.6,1.7,6.6,1.7s-2.2,3.4-5.5,4S210.9,77.6,210.9,77.6z"/>
		<path style="fill:#009A3D;" d="M209.8,83.1c0,0,3.4-2,6.7-1.1s5.2,4.4,5.2,4.4s-3.4,2-6.7,1.1S209.8,83.1,209.8,83.1"/>
		<path style="fill:none;stroke:#000000;stroke-width:1.76;stroke-miterlimit:10;" d="M209.8,83.1c0,0,3.4-2,6.7-1.1
			s5.2,4.4,5.2,4.4s-3.4,2-6.7,1.1S209.8,83.1,209.8,83.1z"/>
		<path style="fill:#009A3D;" d="M204.1,86.8c0,0,4-0.4,6.6,1.8s2.9,6.2,2.9,6.2s-4,0.4-6.6-1.8S204.1,86.8,204.1,86.8"/>
		<path style="fill:none;stroke:#000000;stroke-width:1.76;stroke-miterlimit:10;" d="M204.1,86.8c0,0,4-0.4,6.6,1.8
			s2.9,6.2,2.9,6.2s-4,0.4-6.6-1.8S204.1,86.8,204.1,86.8z"/>
		<path style="fill:#009A3D;" d="M194.3,88.5c0,0,4-0.4,6.6,1.8s2.9,6.2,2.9,6.2s-4,0.4-6.6-1.8S194.3,88.5,194.3,88.5"/>
		<path style="fill:none;stroke:#000000;stroke-width:1.76;stroke-miterlimit:10;" d="M194.3,88.5c0,0,4-0.4,6.6,1.8
			s2.9,6.2,2.9,6.2s-4,0.4-6.6-1.8S194.3,88.5,194.3,88.5z"/>
		<path style="fill:#009A3D;" d="M187.2,86.6c0,0,3.4,2.2,4,5.5s-1.6,6.6-1.6,6.6s-3.4-2.2-4-5.5S187.2,86.6,187.2,86.6"/>
		<path style="fill:none;stroke:#000000;stroke-width:1.76;stroke-miterlimit:10;" d="M187.2,86.6c0,0,3.4,2.2,4,5.5
			s-1.6,6.6-1.6,6.6s-3.4-2.2-4-5.5S187.2,86.6,187.2,86.6z"/>
		<path style="fill:#009A3D;" d="M178.4,83.2c0,0,3.4,2.2,4,5.5s-1.6,6.6-1.6,6.6s-3.4-2.2-4-5.5S178.4,83.2,178.4,83.2"/>
		<path style="fill:none;stroke:#000000;stroke-width:1.76;stroke-miterlimit:10;" d="M178.4,83.2c0,0,3.4,2.2,4,5.5
			s-1.6,6.6-1.6,6.6s-3.4-2.2-4-5.5S178.4,83.2,178.4,83.2z"/>
		<path style="fill:#009A3D;" d="M167.4,91.7c0,0,4-0.4,6.6,1.8s2.9,6.2,2.9,6.2s-4,0.4-6.6-1.8S167.4,91.7,167.4,91.7"/>
		<path style="fill:none;stroke:#000000;stroke-width:1.76;stroke-miterlimit:10;" d="M167.4,91.7c0,0,4-0.4,6.6,1.8
			s2.9,6.2,2.9,6.2s-4,0.4-6.6-1.8S167.4,91.7,167.4,91.7z"/>
		<path style="fill:#009A3D;" d="M163.8,98.5c0,0,4-0.4,6.6,1.8s2.9,6.2,2.9,6.2s-4,0.4-6.6-1.8S163.8,98.5,163.8,98.5"/>
		<path style="fill:none;stroke:#000000;stroke-width:1.76;stroke-miterlimit:10;" d="M163.8,98.5c0,0,4-0.4,6.6,1.8
			s2.9,6.2,2.9,6.2s-4,0.4-6.6-1.8S163.8,98.5,163.8,98.5z"/>
		<path style="fill:#009A3D;" d="M156.9,103.7c0,0,4-0.4,6.6,1.8s2.9,6.2,2.9,6.2s-4,0.4-6.6-1.8S156.9,103.7,156.9,103.7"/>
		<path style="fill:none;stroke:#000000;stroke-width:1.76;stroke-miterlimit:10;" d="M156.9,103.7c0,0,4-0.4,6.6,1.8
			s2.9,6.2,2.9,6.2s-4,0.4-6.6-1.8S156.9,103.7,156.9,103.7z"/>
		<path style="fill:#009A3D;" d="M150.5,108.4c0,0,4-0.4,6.6,1.8s2.9,6.2,2.9,6.2s-4,0.4-6.6-1.8S150.5,108.4,150.5,108.4"/>
		<path style="fill:none;stroke:#000000;stroke-width:1.76;stroke-miterlimit:10;" d="M150.5,108.4c0,0,4-0.4,6.6,1.8
			s2.9,6.2,2.9,6.2s-4,0.4-6.6-1.8S150.5,108.4,150.5,108.4z"/>
		<path style="fill:#009A3D;" d="M142.8,117.2c0,0,3.3-2.2,6.7-1.5s5.4,4.1,5.4,4.1s-3.3,2.2-6.7,1.5S142.8,117.2,142.8,117.2"/>
		<path style="fill:none;stroke:#000000;stroke-width:1.76;stroke-miterlimit:10;" d="M142.8,117.2c0,0,3.3-2.2,6.7-1.5
			s5.4,4.1,5.4,4.1s-3.3,2.2-6.7,1.5S142.8,117.2,142.8,117.2z"/>
		<path style="fill:#009A3D;" d="M142.3,127.8c0,0,2.4-3.2,5.8-3.6s6.5,2.1,6.5,2.1s-2.4,3.2-5.8,3.6S142.3,127.8,142.3,127.8"/>
		<path style="fill:none;stroke:#000000;stroke-width:1.76;stroke-miterlimit:10;" d="M142.3,127.8c0,0,2.4-3.2,5.8-3.6
			s6.5,2.1,6.5,2.1s-2.4,3.2-5.8,3.6S142.3,127.8,142.3,127.8z"/>
		<path style="fill:#009A3D;" d="M175.6,103.1c0,0,2.4-3.2,5.8-3.6s6.5,2.1,6.5,2.1s-2.4,3.2-5.8,3.6S175.6,103.1,175.6,103.1"/>
		<path style="fill:none;stroke:#000000;stroke-width:1.76;stroke-miterlimit:10;" d="M175.6,103.1c0,0,2.4-3.2,5.8-3.6
			s6.5,2.1,6.5,2.1s-2.4,3.2-5.8,3.6S175.6,103.1,175.6,103.1z"/>
		<path style="fill:#009A3D;" d="M176.9,111.2c0,0,2.4-3.2,5.8-3.6s6.5,2.1,6.5,2.1s-2.4,3.2-5.8,3.6S176.9,111.2,176.9,111.2"/>
		<path style="fill:none;stroke:#000000;stroke-width:1.76;stroke-miterlimit:10;" d="M176.9,111.2c0,0,2.4-3.2,5.8-3.6
			s6.5,2.1,6.5,2.1s-2.4,3.2-5.8,3.6S176.9,111.2,176.9,111.2z"/>
		<path style="fill:#009A3D;" d="M193.2,109c0,0-1.8-3.6-0.7-6.8s4.7-4.9,4.7-4.9s1.8,3.6,0.7,6.8S193.2,109,193.2,109"/>
		<path style="fill:none;stroke:#000000;stroke-width:1.76;stroke-miterlimit:10;" d="M193.2,109c0,0-1.8-3.6-0.7-6.8
			s4.7-4.9,4.7-4.9s1.8,3.6,0.7,6.8S193.2,109,193.2,109z"/>
		<path style="fill:#009A3D;" d="M203.3,109c0,0-1.8-3.6-0.7-6.8s4.7-4.9,4.7-4.9s1.8,3.6,0.7,6.8S203.3,109,203.3,109"/>
		<path style="fill:none;stroke:#000000;stroke-width:1.76;stroke-miterlimit:10;" d="M203.3,109c0,0-1.8-3.6-0.7-6.8
			s4.7-4.9,4.7-4.9s1.8,3.6,0.7,6.8S203.3,109,203.3,109z"/>
		<path style="fill:#009A3D;" d="M147,137.9c0,0,0.8-3.9,3.7-5.8s6.8-0.9,6.8-0.9s-0.8,3.9-3.7,5.8S147,137.9,147,137.9"/>
		<path style="fill:none;stroke:#000000;stroke-width:1.76;stroke-miterlimit:10;" d="M147,137.9c0,0,0.8-3.9,3.7-5.8
			s6.8-0.9,6.8-0.9s-0.8,3.9-3.7,5.8S147,137.9,147,137.9z"/>
		<path style="fill:#009A3D;" d="M155.6,143.9c0,0-1-3.9,0.8-6.8s5.7-3.8,5.7-3.8s1,3.9-0.8,6.8S155.6,143.9,155.6,143.9"/>
		<path style="fill:none;stroke:#000000;stroke-width:1.76;stroke-miterlimit:10;" d="M155.6,143.9c0,0-1-3.9,0.8-6.8
			s5.7-3.8,5.7-3.8s1,3.9-0.8,6.8S155.6,143.9,155.6,143.9z"/>
		<path style="fill:#009A3D;" d="M169.1,142c0,0-3.1-2.5-3.5-5.9s2.3-6.4,2.3-6.4s3.1,2.5,3.5,5.9S169.1,142,169.1,142"/>
		<path style="fill:none;stroke:#000000;stroke-width:1.76;stroke-miterlimit:10;" d="M169.1,142c0,0-3.1-2.5-3.5-5.9
			s2.3-6.4,2.3-6.4s3.1,2.5,3.5,5.9S169.1,142,169.1,142z"/>
		<path style="fill:#009A3D;" d="M161.4,130.9c0,0-3.1-2.5-3.5-5.9s2.3-6.4,2.3-6.4s3.1,2.5,3.5,5.9S161.4,130.9,161.4,130.9"/>
		<path style="fill:none;stroke:#000000;stroke-width:1.76;stroke-miterlimit:10;" d="M161.4,130.9c0,0-3.1-2.5-3.5-5.9
			s2.3-6.4,2.3-6.4s3.1,2.5,3.5,5.9S161.4,130.9,161.4,130.9z"/>
		<path style="fill:#009A3D;" d="M177.2,142c0,0-3.1-2.5-3.5-5.9s2.3-6.4,2.3-6.4s3.1,2.5,3.5,5.9S177.2,142,177.2,142"/>
		<path style="fill:none;stroke:#000000;stroke-width:1.76;stroke-miterlimit:10;" d="M177.2,142c0,0-3.1-2.5-3.5-5.9
			s2.3-6.4,2.3-6.4s3.1,2.5,3.5,5.9S177.2,142,177.2,142z"/>
		<path style="fill:#009A3D;" d="M185.2,134.6c0,0-3.9-0.7-5.9-3.5s-1.1-6.7-1.1-6.7s3.9,0.7,5.9,3.5
			C186.1,130.7,185.2,134.6,185.2,134.6"/>
		<path style="fill:none;stroke:#000000;stroke-width:1.76;stroke-miterlimit:10;" d="M185.2,134.6c0,0-3.9-0.7-5.9-3.5
			s-1.1-6.7-1.1-6.7s3.9,0.7,5.9,3.5C186.1,130.7,185.2,134.6,185.2,134.6z"/>
		<path style="fill:#009A3D;" d="M172.4,128.8c0,0-3.9-0.7-5.9-3.5s-1.1-6.7-1.1-6.7s3.9,0.7,5.9,3.5S172.4,128.8,172.4,128.8"/>
		<path style="fill:none;stroke:#000000;stroke-width:1.76;stroke-miterlimit:10;" d="M172.4,128.8c0,0-3.9-0.7-5.9-3.5
			s-1.1-6.7-1.1-6.7s3.9,0.7,5.9,3.5S172.4,128.8,172.4,128.8z"/>
		<path style="fill:#009A3D;" d="M189.7,127.7c0,0-3.9-0.7-5.9-3.5s-1.1-6.8-1.1-6.8s3.9,0.7,5.9,3.5S189.7,127.7,189.7,127.7"/>
		<path style="fill:none;stroke:#000000;stroke-width:1.76;stroke-miterlimit:10;" d="M189.7,127.7c0,0-3.9-0.7-5.9-3.5
			s-1.1-6.8-1.1-6.8s3.9,0.7,5.9,3.5S189.7,127.7,189.7,127.7z"/>
		<path style="fill:#009A3D;" d="M176.7,119.6c0,0-3.9-0.7-5.9-3.5s-1.1-6.7-1.1-6.7s3.9,0.7,5.9,3.5S176.7,119.6,176.7,119.6"/>
		<path style="fill:none;stroke:#000000;stroke-width:1.76;stroke-miterlimit:10;" d="M176.7,119.6c0,0-3.9-0.7-5.9-3.5
			s-1.1-6.7-1.1-6.7s3.9,0.7,5.9,3.5S176.7,119.6,176.7,119.6z"/>
		<path style="fill:#009A3D;" d="M194.4,123.3c0,0-3.7-1.6-4.9-4.8s0.5-6.8,0.5-6.8s3.7,1.6,4.9,4.8S194.4,123.3,194.4,123.3"/>
		<path style="fill:none;stroke:#000000;stroke-width:1.76;stroke-miterlimit:10;" d="M194.4,123.3c0,0-3.7-1.6-4.9-4.8
			s0.5-6.8,0.5-6.8s3.7,1.6,4.9,4.8S194.4,123.3,194.4,123.3z"/>
		<path style="fill:#009A3D;" d="M204,120.7c0,0-3.7-1.6-4.9-4.8s0.5-6.8,0.5-6.8s3.7,1.6,4.9,4.8S204,120.7,204,120.7"/>
		<path style="fill:none;stroke:#000000;stroke-width:1.76;stroke-miterlimit:10;" d="M204,120.7c0,0-3.7-1.6-4.9-4.8
			s0.5-6.8,0.5-6.8s3.7,1.6,4.9,4.8S204,120.7,204,120.7z"/>
		<path style="fill:#009A3D;" d="M212.8,120.3c0,0-3.7-1.6-4.9-4.8s0.5-6.8,0.5-6.8s3.7,1.6,4.9,4.8S212.8,120.3,212.8,120.3"/>
		<path style="fill:none;stroke:#000000;stroke-width:1.76;stroke-miterlimit:10;" d="M212.8,120.3c0,0-3.7-1.6-4.9-4.8
			s0.5-6.8,0.5-6.8s3.7,1.6,4.9,4.8S212.8,120.3,212.8,120.3z"/>
		<path style="fill:#009A3D;" d="M216.8,113c0,0-3.7-1.6-4.9-4.8s0.5-6.8,0.5-6.8s3.7,1.6,4.9,4.8S216.8,113,216.8,113"/>
		<path style="fill:none;stroke:#000000;stroke-width:1.76;stroke-miterlimit:10;" d="M216.8,113c0,0-3.7-1.6-4.9-4.8
			s0.5-6.8,0.5-6.8s3.7,1.6,4.9,4.8S216.8,113,216.8,113z"/>
		<path style="fill:#009A3D;" d="M216.7,99c0,0-0.1-4,2.3-6.4s6.4-2.4,6.4-2.4s0.1,4-2.3,6.4S216.7,99,216.7,99"/>
		<path style="fill:none;stroke:#000000;stroke-width:1.76;stroke-miterlimit:10;" d="M216.7,99c0,0-0.1-4,2.3-6.4s6.4-2.4,6.4-2.4
			s0.1,4-2.3,6.4S216.7,99,216.7,99z"/>
		<path style="fill:#009A3D;" d="M224,105c0,0-0.1-4,2.3-6.4s6.4-2.4,6.4-2.4s0.1,4-2.3,6.4S224,105,224,105"/>
		<path style="fill:none;stroke:#000000;stroke-width:1.76;stroke-miterlimit:10;" d="M224,105c0,0-0.1-4,2.3-6.4s6.4-2.4,6.4-2.4
			s0.1,4-2.3,6.4S224,105,224,105z"/>
		<path style="fill:#009A3D;" d="M228,93.1c0,0-0.1-4,2.3-6.4s6.4-2.4,6.4-2.4s0.1,4-2.3,6.4S228,93.1,228,93.1"/>
		<path style="fill:none;stroke:#000000;stroke-width:1.76;stroke-miterlimit:10;" d="M228,93.1c0,0-0.1-4,2.3-6.4s6.4-2.4,6.4-2.4
			s0.1,4-2.3,6.4S228,93.1,228,93.1z"/>
		<path style="fill:#009A3D;" d="M221.9,81.2c0,0,2.3-3.2,5.7-3.7s6.5,2,6.5,2s-2.3,3.3-5.7,3.7S221.9,81.2,221.9,81.2"/>
		<path style="fill:none;stroke:#000000;stroke-width:1.76;stroke-miterlimit:10;" d="M221.9,81.2c0,0,2.3-3.2,5.7-3.7s6.5,2,6.5,2
			s-2.3,3.3-5.7,3.7S221.9,81.2,221.9,81.2z"/>
		<path style="fill:#009A3D;" d="M226.2,108.7c0,0,2.7-3,6.1-3.1s6.3,2.7,6.3,2.7s-2.7,3-6.1,3.1S226.2,108.7,226.2,108.7"/>
		<path style="fill:none;stroke:#000000;stroke-width:1.76;stroke-miterlimit:10;" d="M226.2,108.7c0,0,2.7-3,6.1-3.1
			s6.3,2.7,6.3,2.7s-2.7,3-6.1,3.1S226.2,108.7,226.2,108.7z"/>
		<path style="fill:#009A3D;" d="M227.2,115.6c0,0,3.4-2.2,6.7-1.4s5.4,4.2,5.4,4.2s-3.4,2.2-6.7,1.4S227.2,115.6,227.2,115.6"/>
		<path style="fill:none;stroke:#000000;stroke-width:1.76;stroke-miterlimit:10;" d="M227.2,115.6c0,0,3.4-2.2,6.7-1.4
			s5.4,4.2,5.4,4.2s-3.4,2.2-6.7,1.4S227.2,115.6,227.2,115.6z"/>
		<path style="fill:#009A3D;" d="M224.8,122.1c0,0,3.9-0.8,6.7,1.2s3.4,5.9,3.4,5.9s-3.9,0.8-6.7-1.2S224.8,122.1,224.8,122.1"/>
		<path style="fill:none;stroke:#000000;stroke-width:1.76;stroke-miterlimit:10;" d="M224.8,122.1c0,0,3.9-0.8,6.7,1.2
			s3.4,5.9,3.4,5.9s-3.9,0.8-6.7-1.2S224.8,122.1,224.8,122.1z"/>
		<path style="fill:#009A3D;" d="M189.4,147.1c0,0,3.9-0.8,6.7,1.2s3.4,5.9,3.4,5.9s-3.9,0.8-6.7-1.2S189.4,147.1,189.4,147.1"/>
		<path style="fill:none;stroke:#000000;stroke-width:1.76;stroke-miterlimit:10;" d="M189.4,147.1c0,0,3.9-0.8,6.7,1.2
			s3.4,5.9,3.4,5.9s-3.9,0.8-6.7-1.2S189.4,147.1,189.4,147.1z"/>
		<path style="fill:#009A3D;" d="M183.6,150.7c0,0,3.8,1.3,5.2,4.4s0,6.8,0,6.8s-3.8-1.3-5.2-4.4S183.6,150.7,183.6,150.7"/>
		<path style="fill:none;stroke:#000000;stroke-width:1.76;stroke-miterlimit:10;" d="M183.6,150.7c0,0,3.8,1.3,5.2,4.4s0,6.8,0,6.8
			s-3.8-1.3-5.2-4.4S183.6,150.7,183.6,150.7z"/>
		<path style="fill:#009A3D;" d="M175.4,153.9c0,0,3.8,1.3,5.2,4.4s0,6.8,0,6.8s-3.8-1.3-5.2-4.4S175.4,153.9,175.4,153.9"/>
		<path style="fill:none;stroke:#000000;stroke-width:1.76;stroke-miterlimit:10;" d="M175.4,153.9c0,0,3.8,1.3,5.2,4.4s0,6.8,0,6.8
			s-3.8-1.3-5.2-4.4S175.4,153.9,175.4,153.9z"/>
		<path style="fill:#009A3D;" d="M168.5,156.1c0,0,3.5,2,4.3,5.3s-1.3,6.7-1.3,6.7s-3.5-2-4.3-5.3S168.5,156.1,168.5,156.1"/>
		<path style="fill:none;stroke:#000000;stroke-width:1.76;stroke-miterlimit:10;" d="M168.5,156.1c0,0,3.5,2,4.3,5.3
			s-1.3,6.7-1.3,6.7s-3.5-2-4.3-5.3S168.5,156.1,168.5,156.1z"/>
		<path style="fill:#009A3D;" d="M160.5,158.3c0,0,3.5,2,4.3,5.3s-1.3,6.7-1.3,6.7s-3.5-2-4.3-5.3S160.5,158.3,160.5,158.3"/>
		<path style="fill:none;stroke:#000000;stroke-width:1.76;stroke-miterlimit:10;" d="M160.5,158.3c0,0,3.5,2,4.3,5.3
			s-1.3,6.7-1.3,6.7s-3.5-2-4.3-5.3S160.5,158.3,160.5,158.3z"/>
		<path style="fill:#009A3D;" d="M218.3,128.3c0,0,3.9-0.8,6.7,1.2s3.4,5.9,3.4,5.9s-3.9,0.8-6.7-1.2S218.3,128.3,218.3,128.3"/>
		<path style="fill:none;stroke:#000000;stroke-width:1.76;stroke-miterlimit:10;" d="M218.3,128.3c0,0,3.9-0.8,6.7,1.2
			s3.4,5.9,3.4,5.9s-3.9,0.8-6.7-1.2S218.3,128.3,218.3,128.3z"/>
		<path style="fill:#009A3D;" d="M227.3,144.3c0,0,3.9-0.8,6.7,1.2s3.4,5.9,3.4,5.9s-3.9,0.8-6.7-1.2S227.3,144.3,227.3,144.3"/>
		<path style="fill:none;stroke:#000000;stroke-width:1.76;stroke-miterlimit:10;" d="M227.3,144.3c0,0,3.9-0.8,6.7,1.2
			s3.4,5.9,3.4,5.9s-3.9,0.8-6.7-1.2S227.3,144.3,227.3,144.3z"/>
		<path style="fill:#009A3D;" d="M227.2,140.5c0,0,2-3.5,5.3-4.3s6.7,1.3,6.7,1.3s-2,3.5-5.3,4.3S227.2,140.5,227.2,140.5"/>
		<path style="fill:none;stroke:#000000;stroke-width:1.76;stroke-miterlimit:10;" d="M227.2,140.5c0,0,2-3.5,5.3-4.3
			s6.7,1.3,6.7,1.3s-2,3.5-5.3,4.3S227.2,140.5,227.2,140.5z"/>
		<path style="fill:#009A3D;" d="M224.4,155.7c0,0-3-2.6-3.2-6s2.5-6.4,2.5-6.4s3,2.6,3.2,6S224.4,155.7,224.4,155.7"/>
		<path style="fill:none;stroke:#000000;stroke-width:1.76;stroke-miterlimit:10;" d="M224.4,155.7c0,0-3-2.6-3.2-6s2.5-6.4,2.5-6.4
			s3,2.6,3.2,6S224.4,155.7,224.4,155.7z"/>
		<path style="fill:#009A3D;" d="M216.1,157.4c0,0-3-2.6-3.2-6s2.5-6.4,2.5-6.4s3,2.6,3.2,6S216.1,157.4,216.1,157.4"/>
		<path style="fill:none;stroke:#000000;stroke-width:1.76;stroke-miterlimit:10;" d="M216.1,157.4c0,0-3-2.6-3.2-6s2.5-6.4,2.5-6.4
			s3,2.6,3.2,6S216.1,157.4,216.1,157.4z"/>
		<path style="fill:#009A3D;" d="M202.6,153.2c0,0-0.3-4,2.1-6.5s6.3-2.6,6.3-2.6s0.3,4-2.1,6.5S202.6,153.2,202.6,153.2"/>
		<path style="fill:none;stroke:#000000;stroke-width:1.76;stroke-miterlimit:10;" d="M202.6,153.2c0,0-0.3-4,2.1-6.5
			s6.3-2.6,6.3-2.6s0.3,4-2.1,6.5S202.6,153.2,202.6,153.2z"/>
		<path style="fill:#009A3D;" d="M51.5,165.2c0,0-0.2-4,2.1-6.5s6.3-2.6,6.3-2.6s0.2,4-2.1,6.5S51.5,165.2,51.5,165.2"/>
		<path style="fill:none;stroke:#000000;stroke-width:1.76;stroke-miterlimit:10;" d="M51.5,165.2c0,0-0.2-4,2.1-6.5
			s6.3-2.6,6.3-2.6s0.2,4-2.1,6.5S51.5,165.2,51.5,165.2z"/>
		<path style="fill:#009A3D;" d="M36,156.5c0,0,3.7-1.5,6.8-0.1s4.5,5.1,4.5,5.1s-3.7,1.5-6.8,0.1S36,156.5,36,156.5"/>
		<path style="fill:none;stroke:#000000;stroke-width:1.76;stroke-miterlimit:10;" d="M36,156.5c0,0,3.7-1.5,6.8-0.1
			s4.5,5.1,4.5,5.1s-3.7,1.5-6.8,0.1S36,156.5,36,156.5z"/>
		<path style="fill:#009A3D;" d="M198.6,145.3c0,0-0.2-4,2.1-6.5s6.3-2.6,6.3-2.6s0.3,4-2.1,6.5S198.6,145.3,198.6,145.3"/>
		<path style="fill:none;stroke:#000000;stroke-width:1.76;stroke-miterlimit:10;" d="M198.6,145.3c0,0-0.2-4,2.1-6.5
			s6.3-2.6,6.3-2.6s0.3,4-2.1,6.5S198.6,145.3,198.6,145.3z"/>
		<path style="fill:#009A3D;" d="M194.3,139c0,0-0.2-4,2.1-6.5s6.3-2.6,6.3-2.6s0.2,4-2.1,6.5S194.3,139,194.3,139"/>
		<path style="fill:none;stroke:#000000;stroke-width:1.76;stroke-miterlimit:10;" d="M194.3,139c0,0-0.2-4,2.1-6.5s6.3-2.6,6.3-2.6
			s0.2,4-2.1,6.5S194.3,139,194.3,139z"/>
		<path style="fill:#009A3D;" d="M210.2,131c0,0,3.9-0.8,6.7,1.2s3.4,5.9,3.4,5.9s-3.9,0.8-6.7-1.2S210.2,131,210.2,131"/>
		<path style="fill:none;stroke:#000000;stroke-width:1.76;stroke-miterlimit:10;" d="M210.2,131c0,0,3.9-0.8,6.7,1.2
			s3.4,5.9,3.4,5.9s-3.9,0.8-6.7-1.2S210.2,131,210.2,131z"/>
		<path style="fill:#009A3D;" d="M133.9,84.9c0,0,1.3-3.8,4.3-5.3s6.8-0.1,6.8-0.1s-1.3,3.8-4.3,5.3S133.9,84.9,133.9,84.9"/>
		<path style="fill:none;stroke:#000000;stroke-width:1.76;stroke-miterlimit:10;" d="M133.9,84.9c0,0,1.3-3.8,4.3-5.3
			s6.8-0.1,6.8-0.1s-1.3,3.8-4.3,5.3S133.9,84.9,133.9,84.9z"/>
		<path style="fill:#009A3D;" d="M108.3,66.6c0,0-1.6-3.7-0.4-6.8s5-4.7,5-4.7s1.6,3.7,0.4,6.8S108.3,66.6,108.3,66.6"/>
		<path style="fill:none;stroke:#000000;stroke-width:1.76;stroke-miterlimit:10;" d="M108.3,66.6c0,0-1.6-3.7-0.4-6.8s5-4.7,5-4.7
			s1.6,3.7,0.4,6.8S108.3,66.6,108.3,66.6z"/>
		<path style="fill:#009A3D;" d="M66,14.8c0,0,4-0.1,6.4,2.3s2.4,6.4,2.4,6.4s-4,0.1-6.4-2.3S66,14.8,66,14.8"/>
		<path style="fill:none;stroke:#000000;stroke-width:1.76;stroke-miterlimit:10;" d="M66,14.8c0,0,4-0.1,6.4,2.3s2.4,6.4,2.4,6.4
			s-4,0.1-6.4-2.3S66,14.8,66,14.8z"/>
		<path style="fill:#009A3D;" d="M62.5,21.7c0,0,4-0.1,6.5,2.3s2.4,6.4,2.4,6.4s-4,0.1-6.4-2.3S62.6,21.7,62.5,21.7"/>
		<path style="fill:none;stroke:#000000;stroke-width:1.76;stroke-miterlimit:10;" d="M62.5,21.7c0,0,4-0.1,6.5,2.3s2.4,6.4,2.4,6.4
			s-4,0.1-6.4-2.3S62.5,21.7,62.5,21.7z"/>
		<path style="fill:#009A3D;" d="M46.3,29.1c0,0,4-0.1,6.5,2.3s2.4,6.4,2.4,6.4s-4,0.1-6.5-2.3S46.3,29.1,46.3,29.1"/>
		<path style="fill:none;stroke:#000000;stroke-width:1.76;stroke-miterlimit:10;" d="M46.3,29.1c0,0,4-0.1,6.5,2.3s2.4,6.4,2.4,6.4
			s-4,0.1-6.5-2.3S46.3,29.1,46.3,29.1z"/>
		<path style="fill:#009A3D;" d="M58.4,34.8c0,0,2.7-3,6.1-3.1s6.3,2.7,6.3,2.7s-2.7,3-6.1,3.1S58.4,34.8,58.4,34.8"/>
		<path style="fill:none;stroke:#000000;stroke-width:1.76;stroke-miterlimit:10;" d="M58.4,34.8c0,0,2.7-3,6.1-3.1s6.3,2.7,6.3,2.7
			s-2.7,3-6.1,3.1S58.4,34.8,58.4,34.8z"/>
		<path style="fill:#009A3D;" d="M59.9,41c0,0,2.7-3,6.1-3.1s6.3,2.7,6.3,2.7s-2.7,3-6.1,3.1S59.9,41,59.9,41"/>
		<path style="fill:none;stroke:#000000;stroke-width:1.76;stroke-miterlimit:10;" d="M59.9,41c0,0,2.7-3,6.1-3.1s6.3,2.7,6.3,2.7
			s-2.7,3-6.1,3.1S59.9,41,59.9,41z"/>
		<path style="fill:#009A3D;" d="M90.8,53.9c0,0-0.3,4-2.9,6.2s-6.6,1.8-6.6,1.8s0.3-4,2.9-6.2S90.8,53.9,90.8,53.9"/>
		<path style="fill:none;stroke:#000000;stroke-width:1.76;stroke-miterlimit:10;" d="M90.8,53.9c0,0-0.3,4-2.9,6.2
			s-6.6,1.8-6.6,1.8s0.3-4,2.9-6.2S90.8,53.9,90.8,53.9z"/>
		<path style="fill:#009A3D;" d="M95.4,53.5c0,0,2.3,3.3,1.6,6.6s-4.1,5.5-4.1,5.5s-2.3-3.3-1.6-6.6S95.4,53.5,95.4,53.5"/>
		<path style="fill:none;stroke:#000000;stroke-width:1.76;stroke-miterlimit:10;" d="M95.4,53.5c0,0,2.3,3.3,1.6,6.6
			s-4.1,5.5-4.1,5.5s-2.3-3.3-1.6-6.6S95.4,53.5,95.4,53.5z"/>
		<path style="fill:#009A3D;" d="M21,136.7c0,0-3.1,2.5-6.5,2.1s-5.8-3.6-5.8-3.6s3.1-2.5,6.5-2.1S21,136.7,21,136.7"/>
		<path style="fill:none;stroke:#000000;stroke-width:1.76;stroke-miterlimit:10;" d="M21,136.7c0,0-3.1,2.5-6.5,2.1
			s-5.8-3.6-5.8-3.6s3.1-2.5,6.5-2.1S21,136.7,21,136.7z"/>
		<path style="fill:#009A3D;" d="M17.8,141.8c0,0-1.1,3.9-4.1,5.5s-6.8,0.4-6.8,0.4s1.1-3.9,4.1-5.5S17.8,141.8,17.8,141.8"/>
		<path style="fill:none;stroke:#000000;stroke-width:1.76;stroke-miterlimit:10;" d="M17.8,141.8c0,0-1.1,3.9-4.1,5.5
			s-6.8,0.4-6.8,0.4s1.1-3.9,4.1-5.5S17.8,141.8,17.8,141.8z"/>
		<path style="fill:#009A3D;" d="M22.8,143.7c0,0,1.3,3.8-0.3,6.8s-5.4,4.2-5.4,4.2s-1.3-3.8,0.3-6.8S22.8,143.7,22.8,143.7"/>
		<path style="fill:none;stroke:#000000;stroke-width:1.76;stroke-miterlimit:10;" d="M22.8,143.7c0,0,1.3,3.8-0.3,6.8
			s-5.4,4.2-5.4,4.2s-1.3-3.8,0.3-6.8S22.8,143.7,22.8,143.7z"/>
		<path style="fill:#009A3D;" d="M26.9,144.3c0,0,4,0.5,6,3.2s1.5,6.7,1.5,6.7s-4-0.5-6-3.2S26.9,144.3,26.9,144.3"/>
		<path style="fill:none;stroke:#000000;stroke-width:1.76;stroke-miterlimit:10;" d="M26.9,144.3c0,0,4,0.5,6,3.2s1.5,6.7,1.5,6.7
			s-4-0.5-6-3.2S26.9,144.3,26.9,144.3z"/>
		<path style="fill:#009A3D;" d="M34.8,142.1c0,0,4,0.5,6,3.2s1.5,6.7,1.5,6.7s-4-0.5-6-3.2S34.9,142.1,34.8,142.1"/>
		<path style="fill:none;stroke:#000000;stroke-width:1.76;stroke-miterlimit:10;" d="M34.8,142.1c0,0,4,0.5,6,3.2s1.5,6.7,1.5,6.7
			s-4-0.5-6-3.2S34.8,142.1,34.8,142.1z"/>
		<path style="fill:#009A3D;" d="M42.5,137.3c0,0,4,0.5,6,3.2s1.5,6.7,1.5,6.7s-4-0.5-6-3.2S42.5,137.3,42.5,137.3"/>
		<path style="fill:none;stroke:#000000;stroke-width:1.76;stroke-miterlimit:10;" d="M42.5,137.3c0,0,4,0.5,6,3.2s1.5,6.7,1.5,6.7
			s-4-0.5-6-3.2S42.5,137.3,42.5,137.3z"/>
		<path style="fill:#009A3D;" d="M57.8,148.2c0,0,0.2,4-2.1,6.5s-6.3,2.6-6.3,2.6s-0.2-4,2.1-6.5S57.8,148.2,57.8,148.2"/>
		<path style="fill:none;stroke:#000000;stroke-width:1.76;stroke-miterlimit:10;" d="M57.8,148.2c0,0,0.2,4-2.1,6.5
			s-6.3,2.6-6.3,2.6s-0.2-4,2.1-6.5S57.8,148.2,57.8,148.2z"/>
		<path style="fill:#009A3D;" d="M65.9,116.4c0,0,0.2,4-2.1,6.5s-6.3,2.6-6.3,2.6s-0.2-4,2.1-6.5S65.9,116.4,65.9,116.4"/>
		<path style="fill:none;stroke:#000000;stroke-width:1.76;stroke-miterlimit:10;" d="M65.9,116.4c0,0,0.2,4-2.1,6.5
			s-6.3,2.6-6.3,2.6s-0.2-4,2.1-6.5S65.9,116.4,65.9,116.4z"/>
		<path style="fill:#009A3D;" d="M71.5,116.4c0,0,3,2.7,3.1,6.1s-2.7,6.3-2.7,6.3s-3-2.7-3.1-6.1S71.5,116.4,71.5,116.4"/>
		<path style="fill:none;stroke:#000000;stroke-width:1.76;stroke-miterlimit:10;" d="M71.5,116.4c0,0,3,2.7,3.1,6.1
			s-2.7,6.3-2.7,6.3s-3-2.7-3.1-6.1S71.5,116.4,71.5,116.4z"/>
		<path style="fill:#009A3D;" d="M80.7,120.9c0,0,3,2.7,3.1,6.1s-2.7,6.3-2.7,6.3s-3-2.7-3.1-6.1S80.7,120.9,80.7,120.9"/>
		<path style="fill:none;stroke:#000000;stroke-width:1.76;stroke-miterlimit:10;" d="M80.7,120.9c0,0,3,2.7,3.1,6.1
			s-2.7,6.3-2.7,6.3s-3-2.7-3.1-6.1S80.7,120.9,80.7,120.9z"/>
		<path style="fill:#009A3D;" d="M61.6,147.2c0,0,3.8,1.2,5.4,4.2s0.3,6.8,0.3,6.8s-3.8-1.1-5.4-4.2S61.6,147.2,61.6,147.2"/>
		<path style="fill:none;stroke:#000000;stroke-width:1.76;stroke-miterlimit:10;" d="M61.6,147.2c0,0,3.8,1.2,5.4,4.2
			s0.3,6.8,0.3,6.8s-3.8-1.1-5.4-4.2S61.6,147.2,61.6,147.2z"/>
		<path style="fill:#009A3D;" d="M87,124.8c0,0,3.8,1.2,5.4,4.2s0.3,6.8,0.3,6.8s-3.8-1.1-5.4-4.2S87,124.8,87,124.8"/>
		<path style="fill:none;stroke:#000000;stroke-width:1.76;stroke-miterlimit:10;" d="M87,124.8c0,0,3.8,1.2,5.4,4.2
			s0.3,6.8,0.3,6.8s-3.8-1.1-5.4-4.2S87,124.8,87,124.8z"/>
		<path style="fill:#009A3D;" d="M82.3,136.3c0,0,3.8-1.2,6.8,0.4s4.1,5.5,4.1,5.5s-3.8,1.2-6.8-0.4S82.3,136.3,82.3,136.3"/>
		<path style="fill:none;stroke:#000000;stroke-width:1.76;stroke-miterlimit:10;" d="M82.3,136.3c0,0,3.8-1.2,6.8,0.4
			s4.1,5.5,4.1,5.5s-3.8,1.2-6.8-0.4S82.3,136.3,82.3,136.3z"/>
		<path style="fill:#009A3D;" d="M74.1,140.6c0,0,3.9-1.2,6.9,0.4s4.1,5.5,4.1,5.5s-3.8,1.2-6.8-0.4S74.2,140.6,74.1,140.6"/>
		<path style="fill:none;stroke:#000000;stroke-width:1.76;stroke-miterlimit:10;" d="M74.1,140.6c0,0,3.9-1.2,6.9,0.4
			s4.1,5.5,4.1,5.5s-3.8,1.2-6.8-0.4S74.1,140.6,74.1,140.6z"/>
		<path style="fill:#009A3D;" d="M70.4,152.1c0,0,2.6-3.1,6-3.3s6.4,2.5,6.4,2.5s-2.6,3.1-6,3.3S70.4,152.1,70.4,152.1"/>
		<path style="fill:none;stroke:#000000;stroke-width:1.76;stroke-miterlimit:10;" d="M70.4,152.1c0,0,2.6-3.1,6-3.3
			s6.4,2.5,6.4,2.5s-2.6,3.1-6,3.3S70.4,152.1,70.4,152.1z"/>
		<path style="fill:#009A3D;" d="M71.5,163.9c0,0,1.2-3.8,4.2-5.4s6.8-0.3,6.8-0.3s-1.1,3.8-4.2,5.4S71.5,163.9,71.5,163.9"/>
		<path style="fill:none;stroke:#000000;stroke-width:1.76;stroke-miterlimit:10;" d="M71.5,163.9c0,0,1.2-3.8,4.2-5.4
			s6.8-0.3,6.8-0.3s-1.1,3.8-4.2,5.4S71.5,163.9,71.5,163.9z"/>
		<path style="fill:#009A3D;" d="M85.6,173.9c0,0-3.2-2.5-3.5-5.9s2.3-6.4,2.3-6.4s3.1,2.5,3.5,5.9S85.6,173.9,85.6,173.9"/>
		<path style="fill:none;stroke:#000000;stroke-width:1.76;stroke-miterlimit:10;" d="M85.6,173.9c0,0-3.2-2.5-3.5-5.9
			s2.3-6.4,2.3-6.4s3.1,2.5,3.5,5.9S85.6,173.9,85.6,173.9z"/>
		<path style="fill:#009A3D;" d="M96.3,162.5c0,0-3.6,1.7-6.8,0.4s-4.7-4.9-4.7-4.9s3.6-1.7,6.8-0.4S96.3,162.5,96.3,162.5"/>
		<path style="fill:none;stroke:#000000;stroke-width:1.76;stroke-miterlimit:10;" d="M96.3,162.5c0,0-3.6,1.7-6.8,0.4
			s-4.7-4.9-4.7-4.9s3.6-1.7,6.8-0.4S96.3,162.5,96.3,162.5z"/>
		<path style="fill:#009A3D;" d="M99.7,155c0,0-3.6,1.7-6.8,0.4s-4.7-4.9-4.7-4.9s3.6-1.7,6.8-0.4S99.7,155,99.7,155"/>
		<path style="fill:none;stroke:#000000;stroke-width:1.76;stroke-miterlimit:10;" d="M99.7,155c0,0-3.6,1.7-6.8,0.4
			s-4.7-4.9-4.7-4.9s3.6-1.7,6.8-0.4S99.7,155,99.7,155z"/>
		<path style="fill:#009A3D;" d="M108,149.9c0,0-3.6,1.7-6.8,0.4s-4.7-4.9-4.7-4.9s3.6-1.7,6.8-0.4S108,149.9,108,149.9"/>
		<path style="fill:none;stroke:#000000;stroke-width:1.76;stroke-miterlimit:10;" d="M108,149.9c0,0-3.6,1.7-6.8,0.4
			s-4.7-4.9-4.7-4.9s3.6-1.7,6.8-0.4S108,149.9,108,149.9z"/>
		<path style="fill:#009A3D;" d="M110.5,136.8c0,0-2.2,3.4-5.5,4s-6.6-1.7-6.6-1.7s2.2-3.4,5.6-4S110.5,136.8,110.5,136.8"/>
		<path style="fill:none;stroke:#000000;stroke-width:1.76;stroke-miterlimit:10;" d="M110.5,136.8c0,0-2.2,3.4-5.5,4
			s-6.6-1.7-6.6-1.7s2.2-3.4,5.6-4S110.5,136.8,110.5,136.8z"/>
		<path style="fill:#009A3D;" d="M109.8,128.5c0,0-2.2,3.4-5.5,4s-6.6-1.7-6.6-1.7s2.2-3.3,5.5-4S109.8,128.5,109.8,128.5"/>
		<path style="fill:none;stroke:#000000;stroke-width:1.76;stroke-miterlimit:10;" d="M109.8,128.5c0,0-2.2,3.4-5.5,4
			s-6.6-1.7-6.6-1.7s2.2-3.3,5.5-4S109.8,128.5,109.8,128.5z"/>
		<path style="fill:#009A3D;" d="M120.1,109.2c0,0-0.1,4-2.6,6.3s-6.5,2.1-6.5,2.1s0.1-4,2.6-6.3S120.1,109.2,120.1,109.2"/>
		<path style="fill:none;stroke:#000000;stroke-width:1.76;stroke-miterlimit:10;" d="M120.1,109.2c0,0-0.1,4-2.6,6.3
			s-6.5,2.1-6.5,2.1s0.1-4,2.6-6.3S120.1,109.2,120.1,109.2z"/>
		<path style="fill:#009A3D;" d="M110,107.7c0,0-0.1,4-2.6,6.3s-6.5,2.1-6.5,2.1s0.1-4,2.6-6.3S110,107.7,110,107.7"/>
		<path style="fill:none;stroke:#000000;stroke-width:1.76;stroke-miterlimit:10;" d="M110,107.7c0,0-0.1,4-2.6,6.3
			s-6.5,2.1-6.5,2.1s0.1-4,2.6-6.3S110,107.7,110,107.7z"/>
		<path style="fill:#009A3D;" d="M102.3,104.5c0,0-0.1,4-2.6,6.3s-6.5,2.1-6.5,2.1s0.1-4,2.6-6.3S102.3,104.5,102.3,104.5"/>
		<path style="fill:none;stroke:#000000;stroke-width:1.76;stroke-miterlimit:10;" d="M102.3,104.5c0,0-0.1,4-2.6,6.3
			s-6.5,2.1-6.5,2.1s0.1-4,2.6-6.3S102.3,104.5,102.3,104.5z"/>
		<path style="fill:#009A3D;" d="M101.4,99.5c0,0-2.5,3.1-5.9,3.4s-6.4-2.3-6.4-2.3s2.5-3.1,5.9-3.4S101.4,99.5,101.4,99.5"/>
		<path style="fill:none;stroke:#000000;stroke-width:1.76;stroke-miterlimit:10;" d="M101.4,99.5c0,0-2.5,3.1-5.9,3.4
			s-6.4-2.3-6.4-2.3s2.5-3.1,5.9-3.4S101.4,99.5,101.4,99.5z"/>
		<path style="fill:#009A3D;" d="M96.3,88.7c0,0-0.7,3.9-3.6,5.8s-6.8,1-6.8,1s0.7-3.9,3.6-5.8S96.3,88.7,96.3,88.7"/>
		<path style="fill:none;stroke:#000000;stroke-width:1.76;stroke-miterlimit:10;" d="M96.3,88.7c0,0-0.7,3.9-3.6,5.8s-6.8,1-6.8,1
			s0.7-3.9,3.6-5.8S96.3,88.7,96.3,88.7z"/>
		<path style="fill:#009A3D;" d="M88.4,81.3c0,0,0.1,4-2.3,6.5s-6.4,2.4-6.4,2.4s-0.1-4,2.2-6.4S88.4,81.3,88.4,81.3"/>
		<path style="fill:none;stroke:#000000;stroke-width:1.76;stroke-miterlimit:10;" d="M88.4,81.3c0,0,0.1,4-2.3,6.5
			s-6.4,2.4-6.4,2.4s-0.1-4,2.2-6.4S88.4,81.3,88.4,81.3z"/>
		<path style="fill:#009A3D;" d="M78.1,78.8c0,0,1.2,3.8-0.4,6.8s-5.5,4.1-5.5,4.1s-1.2-3.8,0.4-6.8S78.1,78.8,78.1,78.8"/>
		<path style="fill:none;stroke:#000000;stroke-width:1.76;stroke-miterlimit:10;" d="M78.1,78.8c0,0,1.2,3.8-0.4,6.8
			s-5.5,4.1-5.5,4.1s-1.2-3.8,0.4-6.8S78.1,78.8,78.1,78.8z"/>
		<path style="fill:#009A3D;" d="M74,60.6c0,0,1.2,3.8-0.4,6.8s-5.5,4.1-5.5,4.1s-1.2-3.8,0.4-6.8S74,60.6,74,60.6"/>
		<path style="fill:none;stroke:#000000;stroke-width:1.76;stroke-miterlimit:10;" d="M74,60.6c0,0,1.2,3.8-0.4,6.8
			s-5.5,4.1-5.5,4.1s-1.2-3.8,0.4-6.8S74,60.6,74,60.6z"/>
		<path style="fill:#009A3D;" d="M80,67.9c0,0,0.3,4-2.1,6.5S71.6,77,71.6,77s-0.3-4,2.1-6.5S80,67.9,80,67.9"/>
		<path style="fill:none;stroke:#000000;stroke-width:1.76;stroke-miterlimit:10;" d="M80,67.9c0,0,0.3,4-2.1,6.5S71.6,77,71.6,77
			s-0.3-4,2.1-6.5S80,67.9,80,67.9z"/>
		<path style="fill:#009A3D;" d="M88.7,72c0,0,0.3,4-2.1,6.5s-6.3,2.6-6.3,2.6s-0.3-4,2.1-6.5S88.7,72,88.7,72"/>
		<path style="fill:none;stroke:#000000;stroke-width:1.76;stroke-miterlimit:10;" d="M88.7,72c0,0,0.3,4-2.1,6.5s-6.3,2.6-6.3,2.6
			s-0.3-4,2.1-6.5S88.7,72,88.7,72z"/>
		<path style="fill:#009A3D;" d="M94.7,68.9c0,0,2.6,3,2.3,6.4s-3.4,5.9-3.4,5.9s-2.6-3-2.3-6.4S94.7,68.9,94.7,68.9"/>
		<path style="fill:none;stroke:#000000;stroke-width:1.76;stroke-miterlimit:10;" d="M94.7,68.9c0,0,2.6,3,2.3,6.4
			s-3.4,5.9-3.4,5.9s-2.6-3-2.3-6.4S94.7,68.9,94.7,68.9z"/>
		<path style="fill:#009A3D;" d="M59.5,142.5c0,0,2.8-2.8,6.3-2.7c3.4,0.1,6.1,3.1,6.1,3.1s-2.8,2.8-6.3,2.7S59.5,142.5,59.5,142.5"
			/>
		<path style="fill:none;stroke:#000000;stroke-width:1.76;stroke-miterlimit:10;" d="M59.5,142.5c0,0,2.8-2.8,6.3-2.7
			c3.4,0.1,6.1,3.1,6.1,3.1s-2.8,2.8-6.3,2.7S59.5,142.5,59.5,142.5z"/>
		<path style="fill:#009A3D;" d="M57.1,137.8c0,0,1.3-3.8,4.4-5.2s6.8,0,6.8,0s-1.3,3.8-4.4,5.2S57.1,137.8,57.1,137.8"/>
		<path style="fill:none;stroke:#000000;stroke-width:1.76;stroke-miterlimit:10;" d="M57.1,137.8c0,0,1.3-3.8,4.4-5.2s6.8,0,6.8,0
			s-1.3,3.8-4.4,5.2S57.1,137.8,57.1,137.8z"/>
		<path style="fill:#009A3D;" d="M48.8,134.2c0,0,1.3-3.8,4.4-5.2s6.8,0,6.8,0s-1.3,3.8-4.4,5.2S48.8,134.2,48.8,134.2"/>
		<path style="fill:none;stroke:#000000;stroke-width:1.76;stroke-miterlimit:10;" d="M48.8,134.2c0,0,1.3-3.8,4.4-5.2s6.8,0,6.8,0
			s-1.3,3.8-4.4,5.2S48.8,134.2,48.8,134.2z"/>
	</g>
</g>
</svg>
