<?xml version="1.0" encoding="utf-8"?>
<!-- Generator: Adobe Illustrator 23.0.2, SVG Export Plug-In . SVG Version: 6.00 Build 0)  -->
<svg version="1.1" id="Réteg_1" xmlns="http://www.w3.org/2000/svg" xmlns:xlink="http://www.w3.org/1999/xlink" x="0px" y="0px"
	 viewBox="0 0 156.7 212.6" style="enable-background:new 0 0 156.7 212.6;" xml:space="preserve">
<title>cimerkep_10</title>
<g>
	<g>
		<polygon style="fill-rule:evenodd;clip-rule:evenodd;fill:#0039A6;" points="51.1,24.7 79.1,0.9 108.3,28.1 106,35.8 100.6,41.9 
			56.1,41.9 46.5,31.2 		"/>
		<polygon style="fill:none;stroke:#000000;stroke-width:1.76;stroke-linecap:round;stroke-linejoin:round;" points="51.1,24.7 
			79.1,0.9 108.3,28.1 106,35.8 100.6,41.9 56.1,41.9 46.5,31.2 		"/>
		<path style="fill-rule:evenodd;clip-rule:evenodd;fill:#FFD200;" d="M78.3,56.8c-42.8,0-77.5,34.7-77.5,77.5s34.7,77.5,77.5,77.5
			s77.5-34.7,77.5-77.5S121.1,56.8,78.3,56.8C78.4,56.8,78.4,56.8,78.3,56.8 M78.3,199.9c-34.9,0-63.2-28.3-63.2-63.2
			c0-34.9,28.3-63.2,63.2-63.2c34.9,0,63.2,28.3,63.2,63.2c0,0,0,0,0,0C141.5,171.7,113.3,200,78.3,199.9
			C78.4,200,78.4,200,78.3,199.9"/>
		<path style="fill:none;stroke:#000000;stroke-width:1.76;stroke-linecap:round;stroke-linejoin:round;" d="M78.3,56.8
			c-42.8,0-77.5,34.7-77.5,77.5s34.7,77.5,77.5,77.5s77.5-34.7,77.5-77.5S121.1,56.8,78.3,56.8C78.4,56.8,78.4,56.8,78.3,56.8z
			 M78.3,199.9c-34.9,0-63.2-28.3-63.2-63.2c0-34.9,28.3-63.2,63.2-63.2c34.9,0,63.2,28.3,63.2,63.2c0,0,0,0,0,0
			C141.5,171.7,113.3,200,78.3,199.9C78.4,200,78.4,200,78.3,199.9L78.3,199.9z"/>
		<polygon style="fill-rule:evenodd;clip-rule:evenodd;fill:#FFD200;" points="41,31.4 68,65.7 87.6,65.7 113.3,31.2 109,21.6 
			101,21.6 104.1,30.8 86.8,53.2 81.9,51.4 87.8,26.8 79.1,17.8 69.4,27.1 74.8,51.6 70.2,53.4 51,30.9 55.3,22 46.9,22 		"/>
		<polygon style="fill:none;stroke:#000000;stroke-width:1.76;stroke-linecap:round;stroke-linejoin:round;" points="41,31.4 
			68,65.7 87.6,65.7 113.3,31.2 109,21.6 101,21.6 104.1,30.8 86.8,53.2 81.9,51.4 87.8,26.8 79.1,17.8 69.4,27.1 74.8,51.6 
			70.2,53.4 51,30.9 55.3,22 46.9,22 		"/>
		<line style="fill:none;" x1="58.9" y1="27.1" x2="79.1" y2="9.9"/>
		
			<line style="fill:none;stroke:#000000;stroke-width:1.76;stroke-linecap:round;stroke-linejoin:round;" x1="58.9" y1="27.1" x2="79.1" y2="9.9"/>
		<line style="fill:none;" x1="75" y1="28.6" x2="78.6" y2="46.5"/>
		
			<line style="fill:none;stroke:#000000;stroke-width:1.76;stroke-linecap:round;stroke-linejoin:round;" x1="75" y1="28.6" x2="78.6" y2="46.5"/>
		<line style="fill:none;" x1="70.7" y1="59" x2="85.3" y2="59"/>
		
			<line style="fill:none;stroke:#000000;stroke-width:1.76;stroke-linecap:round;stroke-linejoin:round;" x1="70.7" y1="59" x2="85.3" y2="59"/>
		<path style="fill:none;stroke:#000000;stroke-width:1.76;stroke-linecap:round;stroke-linejoin:round;" d="M58.4,67
			c0,0-33.5,7.4-47.3,45.8c-6.2,17.1-4,32.8,0.8,45.4"/>
		<path style="fill:none;stroke:#000000;stroke-width:1.76;stroke-linecap:round;stroke-linejoin:round;" d="M146.6,119.4
			c0,0,5.4,22.6-1.9,40.6s-16.1,23.8-16.1,23.8"/>
	</g>
</g>
</svg>
