<?xml version="1.0" encoding="utf-8"?>
<!-- Generator: Adobe Illustrator 23.0.2, SVG Export Plug-In . SVG Version: 6.00 Build 0)  -->
<svg version="1.1" id="Réteg_1" xmlns="http://www.w3.org/2000/svg" xmlns:xlink="http://www.w3.org/1999/xlink" x="0px" y="0px"
	 viewBox="0 0 206.2 297.7" style="enable-background:new 0 0 206.2 297.7;" xml:space="preserve">
<title>cimerkep_25</title>
<g>
	<g>
		<path style="fill-rule:evenodd;clip-rule:evenodd;fill:#FFD200;" d="M121.2,227.7l1.8,12c0,0-8.9,1-12.5,6.1
			c-2.1,2.9-2.1,6.8,0,9.7l3.8,0.8c0,0-1.3-5.4,1.8-8.2s9.7-2.8,9.7-2.8c0.4,2.6,1.5,5,3.1,7.2c1.2,1.6,2.5,3.1,4.1,4.4l3.8-1.8
			c-1.2-1.8-1.8-4-1.8-6.1c0-3.6,1.3-3.6,1.3-3.6s8.2,1,11.5,3.6c2,1.6,3.7,3.6,4.9,5.9c1.2,0.1,2.4,0.1,3.6-0.3
			c2.1-0.5,1.5-4.3-1.3-6.6c-3.8-3.3-4.6-3.8-4.6-3.8s5.4,0.3,6.4,1.5l1,1.3l1.5-4.4c0,0-4.9-7.4-8.7-8.4s-8.4,1.3-9.5,2.3
			c-1.2,1-2.5,2-3.8,2.8c0,0-2.8,0.3-4-4.9c-0.7-3.3-1.1-6.6-1.1-10L121.2,227.7z"/>
		<path style="fill:none;stroke:#000000;stroke-width:1.76;stroke-linecap:round;stroke-linejoin:round;" d="M121.2,227.7l1.8,12
			c0,0-8.9,1-12.5,6.1c-2.1,2.9-2.1,6.8,0,9.7l3.8,0.8c0,0-1.3-5.4,1.8-8.2s9.7-2.8,9.7-2.8c0.4,2.6,1.5,5,3.1,7.2
			c1.2,1.6,2.5,3.1,4.1,4.4l3.8-1.8c-1.2-1.8-1.8-4-1.8-6.1c0-3.6,1.3-3.6,1.3-3.6s8.2,1,11.5,3.6c2,1.6,3.7,3.6,4.9,5.9
			c1.2,0.1,2.4,0.1,3.6-0.3c2.1-0.5,1.5-4.3-1.3-6.6c-3.8-3.3-4.6-3.8-4.6-3.8s5.4,0.3,6.4,1.5l1,1.3l1.5-4.4c0,0-4.9-7.4-8.7-8.4
			s-8.4,1.3-9.5,2.3c-1.2,1-2.5,2-3.8,2.8c0,0-2.8,0.3-4-4.9c-0.7-3.3-1.1-6.6-1.1-10L121.2,227.7z"/>
		<path style="fill-rule:evenodd;clip-rule:evenodd;" d="M110.5,256.9c0,0,0.3,4,3.6,5.5c1.8,0.9,3.9,0.9,5.7-0.1c0,0-4.3-2-4.7-4
			l-0.4-2L110.5,256.9z"/>
		<path style="fill:none;stroke:#000000;stroke-width:1.76;stroke-linecap:round;stroke-linejoin:round;" d="M110.5,256.9
			c0,0,0.3,4,3.6,5.5c1.8,0.9,3.9,0.9,5.7-0.1c0,0-4.3-2-4.7-4l-0.4-2L110.5,256.9z"/>
		<path style="fill-rule:evenodd;clip-rule:evenodd;" d="M131.9,256.1c0,0,2.3,1,2.3,4.9s-1,4.9-1,4.9s5.6-3.1,5.6-6.1
			c0-1.8-0.7-3.4-2.1-4.6L131.9,256.1z"/>
		<path style="fill:none;stroke:#000000;stroke-width:1.76;stroke-linecap:round;stroke-linejoin:round;" d="M131.9,256.1
			c0,0,2.3,1,2.3,4.9s-1,4.9-1,4.9s5.6-3.1,5.6-6.1c0-1.8-0.7-3.4-2.1-4.6L131.9,256.1z"/>
		<path style="fill-rule:evenodd;clip-rule:evenodd;" d="M152.6,254.8c0,0,2.3,3.6,1.5,6.1c-0.4,1.5-1,3-1.8,4.3
			c0,0,5.1-1.5,6.1-5.9c0.7-2.3,0.3-4.9-1-6.9L152.6,254.8z"/>
		<path style="fill:none;stroke:#000000;stroke-width:1.76;stroke-linecap:round;stroke-linejoin:round;" d="M152.6,254.8
			c0,0,2.3,3.6,1.5,6.1c-0.4,1.5-1,3-1.8,4.3c0,0,5.1-1.5,6.1-5.9c0.7-2.3,0.3-4.9-1-6.9L152.6,254.8z"/>
		<path style="fill-rule:evenodd;clip-rule:evenodd;" d="M156.7,245.6c0,0,2,2.3,2.3,3.6s-1.3,5.9-1.3,5.9c2.1-0.8,3.7-2.6,4.1-4.9
			c0.8-3.8-2.6-7.7-2.6-7.7L156.7,245.6z"/>
		<path style="fill:none;stroke:#000000;stroke-width:1.76;stroke-linecap:round;stroke-linejoin:round;" d="M156.7,245.6
			c0,0,2,2.3,2.3,3.6s-1.3,5.9-1.3,5.9c2.1-0.8,3.7-2.6,4.1-4.9c0.8-3.8-2.6-7.7-2.6-7.7L156.7,245.6z"/>
		<path style="fill-rule:evenodd;clip-rule:evenodd;fill:#8C6239;" d="M146,70.2c0,0-5.4,12.7-8.4,12.7s-6.9-8.8-24.6,3.8
			s-41.8,42.2-53.3,60.6s-18.4,29.1-18.4,29.1S27.5,181,19.4,191c-5.2,6.5-9.8,13.4-13.8,20.7c0,0,5.8-2.3,6.9-2.3
			c1.3-0.1,2.6-0.4,3.8-0.8c0,0-5.8,6.1-6.1,14.6s0.4,10.4-0.8,13.8l-1.1,3.4c0,0,5-0.4,7.7-2.7l2.7-2.3c0,0-6.9,10.4-10,19.2
			S2.6,280,1,281.9s9.6-1.5,11.9-4.6c1.1-1.6,2.4-3,3.8-4.2c0,0-3.1,7.3-3.1,12.3s0.8,11.5,0.8,11.5S42.1,276.5,52,265
			s30.3-29.9,35.7-32.2c3.5-1.7,6.5-4.2,8.8-7.3c0,0,6.1-0.8,8.4-2.7l2.3-1.9c0,0-1.2,0.8,4.2,6.5s8.8,5,8.8,5v3.8l4.6-5l4.6,5.4
			l0.4-6.5l3.4,4.2l2.3-8.4c0,0,4.2-2.7,4.2-11.1s3.4-18.8,3.4-18.8s29.5-19.2,41.4-44.5s15.7-36.8,15.7-54.1s-6.9-33.8-6.9-33.8
			s-17.3-9.6-28.4-6.1S146,70.2,146,70.2"/>
		<path style="fill:none;stroke:#000000;stroke-width:1.76;stroke-linecap:round;stroke-linejoin:round;" d="M146,70.2
			c0,0-5.4,12.7-8.4,12.7s-6.9-8.8-24.6,3.8s-41.8,42.2-53.3,60.6s-18.4,29.1-18.4,29.1S27.5,181,19.4,191
			c-5.2,6.5-9.8,13.4-13.8,20.7c0,0,5.8-2.3,6.9-2.3c1.3-0.1,2.6-0.4,3.8-0.8c0,0-5.8,6.1-6.1,14.6s0.4,10.4-0.8,13.8l-1.1,3.4
			c0,0,5-0.4,7.7-2.7l2.7-2.3c0,0-6.9,10.4-10,19.2S2.6,280,1,281.9s9.6-1.5,11.9-4.6c1.1-1.6,2.4-3,3.8-4.2c0,0-3.1,7.3-3.1,12.3
			s0.8,11.5,0.8,11.5S42.1,276.5,52,265s30.3-29.9,35.7-32.2c3.5-1.7,6.5-4.2,8.8-7.3c0,0,6.1-0.8,8.4-2.7l2.3-1.9
			c0,0-1.2,0.8,4.2,6.5s8.8,5,8.8,5v3.8l4.6-5l4.6,5.4l0.4-6.5l3.4,4.2l2.3-8.4c0,0,4.2-2.7,4.2-11.1s3.4-18.8,3.4-18.8
			s29.5-19.2,41.4-44.5s15.7-36.8,15.7-54.1s-6.9-33.8-6.9-33.8s-17.3-9.6-28.4-6.1S146,70.2,146,70.2z"/>
		<path style="fill-rule:evenodd;clip-rule:evenodd;fill:#FFFFFF;" d="M131.4,10.6c0,0,4.6-8.9,22.3-9.7s27.9,13.6,32.2,24
			s15.1,45.3,16.9,49.9s2.6,5.4,2.6,5.4l-6.4-3.3c-0.6,1.2-0.8,2.5-0.8,3.8c0,1.3-0.3,4.3-0.3,4.3s-7.9-5.9-9.5-10
			c-0.9-2.5-2.1-4.9-3.6-7.2c-0.3,2.1-0.4,4.3-0.3,6.4c0.3,2.6,0.5,3.8,0.5,3.8s-9.5-5.9-13-9.7l-3.6-3.8c0,0-0.5,6.1,1,7.7l1.5,1.5
			c-2.7,0-5.2-1.2-6.9-3.3l-2.8-3.6c0,0-3.1,2.8-3.1,6.6v4.9c0,0-3.1-2.6-3.1-3.6v-1c0,0-3.1,4.6-3.1,6.9c0,1.6-0.2,3.3-0.5,4.9
			c0,0-4.4-3.8-4.9-7.7s-0.3-4.6-0.3-4.6s-0.1,0.7-2,3.1c-1.7,1.9-3.8,3.4-6.1,4.3c0,0,5.6-14.6,6.1-21.5c0.3-4.9,0.3-9.7,0-14.6
			c0,0-7.7-7.4-10.2-10.2s-6.4-8.7-5.6-15.3C129.4,12.4,131.4,10.6,131.4,10.6"/>
		<path style="fill:none;stroke:#000000;stroke-width:1.76;stroke-linecap:round;stroke-linejoin:round;" d="M131.4,10.6
			c0,0,4.6-8.9,22.3-9.7s27.9,13.6,32.2,24s15.1,45.3,16.9,49.9s2.6,5.4,2.6,5.4l-6.4-3.3c-0.6,1.2-0.8,2.5-0.8,3.8
			c0,1.3-0.3,4.3-0.3,4.3s-7.9-5.9-9.5-10c-0.9-2.5-2.1-4.9-3.6-7.2c-0.3,2.1-0.4,4.3-0.3,6.4c0.3,2.6,0.5,3.8,0.5,3.8
			s-9.5-5.9-13-9.7l-3.6-3.8c0,0-0.5,6.1,1,7.7l1.5,1.5c-2.7,0-5.2-1.2-6.9-3.3l-2.8-3.6c0,0-3.1,2.8-3.1,6.6v4.9
			c0,0-3.1-2.6-3.1-3.6v-1c0,0-3.1,4.6-3.1,6.9c0,1.6-0.2,3.3-0.5,4.9c0,0-4.4-3.8-4.9-7.7s-0.3-4.6-0.3-4.6s-0.1,0.7-2,3.1
			c-1.7,1.9-3.8,3.4-6.1,4.3c0,0,5.6-14.6,6.1-21.5c0.3-4.9,0.3-9.7,0-14.6c0,0-7.7-7.4-10.2-10.2s-6.4-8.7-5.6-15.3
			C129.4,12.4,131.4,10.6,131.4,10.6z"/>
		<path style="fill-rule:evenodd;clip-rule:evenodd;fill:#FFD200;" d="M132.2,10.4c0,0-11.8,1.5-14.3,10.7s5.6,17.9,5.6,17.9
			s2-8.2,4.6-9.7s11.8,1,16.6,0.5s9.2-7.2,9.2-7.2l-10.2-0.5c0,0-0.8-6.1-3.6-8.7S132.2,10.4,132.2,10.4"/>
		<path style="fill:none;stroke:#000000;stroke-width:1.76;stroke-linecap:round;stroke-linejoin:round;" d="M132.2,10.4
			c0,0-11.8,1.5-14.3,10.7s5.6,17.9,5.6,17.9s2-8.2,4.6-9.7s11.8,1,16.6,0.5s9.2-7.2,9.2-7.2l-10.2-0.5c0,0-0.8-6.1-3.6-8.7
			S132.2,10.4,132.2,10.4z"/>
		<path style="fill:none;stroke:#000000;stroke-width:1.76;stroke-linecap:round;stroke-linejoin:round;" d="M127.2,29.7
			c0,0,3.2-6.1,6.3-7.1s6.9,1.3,6.9,1.3l3.3-1.8"/>
		<path style="fill-rule:evenodd;clip-rule:evenodd;fill:#E6E6E6;" d="M146.6,13.1c0,0,1-5,6-5s6.1,2.9,6.1,2.9
			c-1,2.2-3,3.8-5.4,4.4C149.4,16.2,146.6,13.1,146.6,13.1"/>
		<path style="fill:none;stroke:#000000;stroke-width:1.76;stroke-linecap:round;stroke-linejoin:round;" d="M146.6,13.1
			c0,0,1-5,6-5s6.1,2.9,6.1,2.9c-1,2.2-3,3.8-5.4,4.4C149.4,16.1,146.6,13.1,146.6,13.1z"/>
		<path style="fill-rule:evenodd;clip-rule:evenodd;fill:#736357;" d="M154.6,11.7c0,1.2-0.9,2.1-2.1,2.1c-1.2,0-2.1-0.9-2.1-2.1
			s0.9-2.1,2.1-2.1S154.6,10.5,154.6,11.7C154.6,11.7,154.6,11.7,154.6,11.7"/>
		<path style="fill:none;stroke:#000000;stroke-width:1.76;stroke-linecap:round;stroke-linejoin:round;" d="M154.6,11.7
			c0,1.2-0.9,2.1-2.1,2.1c-1.2,0-2.1-0.9-2.1-2.1s0.9-2.1,2.1-2.1S154.6,10.5,154.6,11.7C154.6,11.7,154.6,11.7,154.6,11.7z"/>
		<path style="fill-rule:evenodd;clip-rule:evenodd;fill:#FFD200;" d="M131.4,15.2c0,0,2.9-0.4,4.4,1.1c0.6,0.6,1.2,1.2,1.7,1.9"/>
		<path style="fill:none;stroke:#000000;stroke-width:1.76;stroke-linecap:round;stroke-linejoin:round;" d="M131.4,15.2
			c0,0,2.9-0.4,4.4,1.1c0.6,0.6,1.2,1.2,1.7,1.9"/>
		<path style="fill:none;stroke:#000000;stroke-width:1.76;stroke-linecap:round;stroke-linejoin:round;" d="M112.5,114.9
			c0,0-26.1,13.6-37.1,26.3s-17.4,32-18.4,35s-1,11.3-1,11.3s6.4-0.3,10.5-3.8s10.2-12.3,10.2-12.3s-5.4,6.6-4.6,11.3l0.8,4.6
			c0,0,11-6.1,15.3-11s8.7-14.8,8.7-14.8"/>
		<path style="fill:none;stroke:#000000;stroke-width:1.76;stroke-linecap:round;stroke-linejoin:round;" d="M56,181.2
			c0,0-16.6,30.2-17.9,39.4s-14.6,24-13,26.3s16.6-5.9,20.7-8.9l4.1-3.1c0,0,3.6,6.9,14.3,1.3c6.9-3.8,13-8.7,18.2-14.6
			c0,0,0.3,1,4.3,1.5s5.6-0.5,5.6-0.5c0.3,1.2,1.1,2.2,2.3,2.6c1.4,0.4,2.9,0.4,4.3,0"/>
		<path style="fill:none;stroke:#000000;stroke-width:1.76;stroke-linecap:round;stroke-linejoin:round;" d="M16.8,273.1
			c3.1-4.5,6.5-8.8,10.1-12.9c4.6-4.9,9.2-10.5,12.5-13.6"/>
		<path style="fill:none;stroke:#000000;stroke-width:1.76;stroke-linecap:round;stroke-linejoin:round;" d="M18.7,235.5
			c0,0,5.1-9.6,8.7-15.7s4.6-14.3,7.9-19.4c1.9-2.9,4-5.7,6.4-8.2"/>
		<path style="fill:none;stroke:#000000;stroke-width:1.76;stroke-linecap:round;stroke-linejoin:round;" d="M15.3,209.3
			c0,0,5.9-3.1,9.2-6.9c2.4-2.9,4.6-6,6.6-9.2"/>
		<path style="fill:none;stroke:#000000;stroke-width:1.76;stroke-linecap:round;stroke-linejoin:round;" d="M49.9,234.9
			c4-3.8,7.5-8.1,10.5-12.8c4.1-6.9,3.3-11,3.3-11"/>
		<path style="fill:none;stroke:#000000;stroke-width:1.76;stroke-linecap:round;stroke-linejoin:round;" d="M72.9,212.6
			c0,0,4.3-1.5,9.5-7.7c3.2-4.1,5.1-8.9,5.7-14.1"/>
		<path style="fill:none;stroke:#000000;stroke-width:1.76;stroke-linecap:round;stroke-linejoin:round;" d="M82.3,221.6
			c0,0,6.7-5.6,9-11.8c1.3-3.4,2.2-6.9,2.6-10.5"/>
		<path style="fill:none;stroke:#000000;stroke-width:1.76;stroke-linecap:round;stroke-linejoin:round;" d="M92.3,222.6
			c0,0,5.1-0.3,12.5-11.8s7.7-21,7.7-21"/>
		<path style="fill:none;stroke:#000000;stroke-width:1.76;stroke-linecap:round;stroke-linejoin:round;" d="M107.3,220.9
			c0,0,4.7-3.2,12.7-14.7s10-25.6,10-25.6"/>
		<path style="fill:none;stroke:#000000;stroke-width:1.76;stroke-linecap:round;stroke-linejoin:round;" d="M129.1,204.7
			c0,0,8.4-10.5,11-16.6l2.6-6.1c0,0,22-14.6,31.4-31.2s10.2-39.1,5.9-48.1s-13-11.8-16.4-11.8s-5.9,3.6-12,4.1s-7.9,1.5-7.9,1.5"/>
		<path style="fill-rule:evenodd;clip-rule:evenodd;fill:#8C6239;" d="M175.1,118.9c0,0,0.8,11.1-5.4,24.2
			c-4.1,8.3-9.8,15.6-16.9,21.5"/>
		<path style="fill:none;stroke:#000000;stroke-width:1.76;stroke-linecap:round;stroke-linejoin:round;" d="M175.1,118.9
			c0,0,0.8,11.1-5.4,24.2c-4.1,8.3-9.8,15.6-16.9,21.5"/>
		<path style="fill-rule:evenodd;clip-rule:evenodd;fill:#8C6239;" d="M23.3,278.5c0,0,0.4-3.8,10-14.6s19.6-21.1,19.6-21.1"/>
		<path style="fill:none;stroke:#000000;stroke-width:1.76;stroke-linecap:round;stroke-linejoin:round;" d="M23.3,278.5
			c0,0,0.4-3.8,10-14.6s19.6-21.1,19.6-21.1"/>
		<path style="fill-rule:evenodd;clip-rule:evenodd;fill:#8C6239;" d="M40.1,268.1c0,0,10-12.3,18-18.8S70.1,239,70.1,239"/>
		<path style="fill:none;stroke:#000000;stroke-width:1.76;stroke-linecap:round;stroke-linejoin:round;" d="M40.1,268.1
			c0,0,10-12.3,18-18.8S70.1,239,70.1,239"/>
		<path style="fill-rule:evenodd;clip-rule:evenodd;fill:#8C6239;" d="M124.9,231.3c0,0-5-2.7-6.9-5.8"/>
		<path style="fill:none;stroke:#000000;stroke-width:1.76;stroke-linecap:round;stroke-linejoin:round;" d="M124.9,231.3
			c0,0-5-2.7-6.9-5.8"/>
		<path style="fill-rule:evenodd;clip-rule:evenodd;fill:#8C6239;" d="M129.9,230.1c0,0-0.4-6.5-0.4-10.4c0.1-2.1-0.3-4.2-1.1-6.1"
			/>
		<path style="fill:none;stroke:#000000;stroke-width:1.76;stroke-linecap:round;stroke-linejoin:round;" d="M129.9,230.1
			c0,0-0.4-6.5-0.4-10.4c0.1-2.1-0.3-4.2-1.1-6.1"/>
		<path style="fill-rule:evenodd;clip-rule:evenodd;fill:#8C6239;" d="M92.7,116.2c0,0,14.2-16.1,23.4-23s13.8-5,13.8-5"/>
		<path style="fill:none;stroke:#000000;stroke-width:1.76;stroke-linecap:round;stroke-linejoin:round;" d="M92.7,116.2
			c0,0,14.2-16.1,23.4-23s13.8-5,13.8-5"/>
		<path style="fill-rule:evenodd;clip-rule:evenodd;fill:#8C6239;" d="M189,127.7c3.1-7,4.7-14.6,4.6-22.3c0-13-2.3-16.5-2.3-16.5"
			/>
		<path style="fill:none;stroke:#000000;stroke-width:1.76;stroke-linecap:round;stroke-linejoin:round;" d="M189,127.7
			c3.1-7,4.7-14.6,4.6-22.3c0-13-2.3-16.5-2.3-16.5"/>
		<path style="fill-rule:evenodd;clip-rule:evenodd;fill:#8C6239;" d="M152.1,245.6c-1.4-1.2-2.9-2.3-4.6-3.1l-2.3-1"/>
		<path style="fill:none;stroke:#000000;stroke-width:1.76;stroke-linecap:round;stroke-linejoin:round;" d="M152.1,245.6
			c-1.4-1.2-2.9-2.3-4.6-3.1l-2.3-1"/>
		<path style="fill:none;stroke:#000000;stroke-width:1.76;stroke-linecap:round;stroke-linejoin:round;" d="M146.5,73.3
			c0,0,3-7.6,3.1-12.1"/>
		<path style="fill:none;stroke:#000000;stroke-width:1.76;stroke-linecap:round;stroke-linejoin:round;" d="M161.3,66.9
			c0,0-3.3-4.3-2.9-9.3"/>
		<path style="fill:none;stroke:#000000;stroke-width:1.76;stroke-linecap:round;stroke-linejoin:round;" d="M168.5,64.6
			c0,0-2.2-2.2-3.9-10.1l-1.7-7.9"/>
		<path style="fill:none;stroke:#000000;stroke-width:1.76;stroke-linecap:round;stroke-linejoin:round;" d="M198.9,76.8
			c-1.1-0.9-2.9-1.9-5.8-6.3s-5.6-14.2-5.6-14.2"/>
		<path style="fill:none;stroke:#000000;stroke-width:1.76;stroke-linecap:round;stroke-linejoin:round;" d="M170.5,53.7
			c0.8,3.5,2.2,6.8,4.2,9.8c3.1,4,4.2,4.6,4.2,4.6"/>
		<path style="fill:none;stroke:#000000;stroke-width:1.76;stroke-linecap:round;stroke-linejoin:round;" d="M174.8,16.9
			c3.5,4.2,6.1,9,7.9,14.2c2.7,8.3,3.6,12.1,3.6,12.1"/>
	</g>
</g>
</svg>
