<?xml version="1.0" encoding="utf-8"?>
<!-- Generator: Adobe Illustrator 23.0.2, SVG Export Plug-In . SVG Version: 6.00 Build 0)  -->
<svg version="1.1" id="Réteg_1" xmlns="http://www.w3.org/2000/svg" xmlns:xlink="http://www.w3.org/1999/xlink" x="0px" y="0px"
	 viewBox="0 0 184.7 321.8" style="enable-background:new 0 0 184.7 321.8;" xml:space="preserve">
<title>cimerkep_05</title>
<g>
	<g>
		<path style="fill:#FFD200;" d="M57.3,35c0,0,0.3-3.6-0.5-5.4s1.3-5.6,7.7-6.4s13.3-5.1,16.4-8.7s3.3-4.9,6.4-5.1s7.7-2.6,11.5-5.9
			s14.8-3.8,19.7,0s7.2,2.3,7.2,2.3s0.3,1.8-1,2s-2.8,0.5-2.8,0.5s4.6,1.5,6.9,4.1c2.3,2.6,3.8,3.3,7.7,3.3h3.8c0,0,0.3,2-3.1,3.3
			c-2.1,0.8-4.4,1-6.6,0.8c1.9,0.7,3.4,2.1,4.4,3.8c1.8,3.1,1.3,6.9,4.9,7.7c1.9,0.5,3.8,0.4,5.6-0.3c0,0,1.8,0.9-1.6,3.9
			s-5.4,2.8-7.9,3.1s-5.1,0.3-5.1,0.3s4.9,0.5,7.2,4.1s2.8,6.7,6.4,7.2s4.4,0.5,4.4,0.5s1.3,2.6-3.6,4.3s-8.2,0-8.2,0
			c1.5,2.6,2.2,5.7,1.8,8.7c-0.8,4.6-3.1,10.7-2.6,13.6l0.5,2.8c-1.5-0.6-3-1.3-4.4-2.3c-1.1-1.1-2-2.4-2.6-3.8c0,0,2.3,10,1,14.6
			s-6.1,7.9-6.1,11.5c0,1.7,0,3.4,0.3,5.1c0,0-3.1,0.3-4.3-2c-0.9-1.7-1.5-3.5-1.8-5.4c0,0,0.3,4.8-2,7.7s-10.5,9.2-10.5,11.8v2.6
			c0,0-3.3-0.5-3.8-1.8l-0.5-1.3c-1,1.6-2.3,3-3.8,4.1c-2,1.3-3.3,0.8-3.3,0.8c3.4,3,6.1,6.7,8.2,10.7c3.1,6.4,6.9,18.4,13,21.2
			s16.4,4.9,21,11.3s6.1,14.8,11.2,17.6s8.4,6.1,15.3,4.1s13-14.1,6.9-23.5s-33.5-19.4-40.4-33.2s-4.8-28.1,3.4-33.7s12-1.8,12-1.8
			s5.4-3.1,13-0.8s7.7,6.7,9.2,12.5s5.9,4.6,8.7,9.7c1.7,2.9,1.9,6.4,0.5,9.5c0,0-3.1-3.8-5.1-3.8s-14.6,5.9-21,0.3
			s-7.2-14.1-5.6-17.1s0.5-5.1,0.5-5.1s-10-2.6-11,8.4s0.8,18.9,10.2,26.6s36.6,16.9,38.9,36.8s-11.8,29.4-20.7,29.9
			s-11.8,0.3-13.3,2.3s3.8,10,3.3,16.6s-3.8,12,4.2,18.6s15.1,4.6,16.9,7.7s-0.5,3.3-1.5,9c-1,5.7-1.3,23.8,1,27.1s9.7,11,5.1,16.1
			s-7.7,2.8-11.5,6.9c-1.5,1.5-3,3.2-4.4,4.9l-6.4-0.5c-0.6-1.5-0.9-3-0.8-4.6l0.3-2.3c-2.2,1.4-4.1,3.2-5.7,5.3
			c-0.9,1.3-1.7,2.6-2.3,4l-3-0.3c0,0-1.8-2.3-1.5-4.3S142,300,142,300c-1.3-0.3-2.5-0.8-3.6-1.6c-1.8-1.3-2.3-7.4,2.6-10.7
			s8.7,1.3,13-0.3s3.6-7.4,3.8-12.5s-2.6-11.3-11-15.6s-19.4-5.6-24-18.1c-2.9-7.9-6.5-15.6-10.5-23c0,0-3.1,0.8-8.7-1
			s-7.4-4.1-7.4-4.1s-0.8,4.9-4.3,5.9c-1.8,0.5-3.6,1.1-5.4,1.8c0,0,3.3,6.4,1.5,12.8s-2.6,11.2-1.8,13.6s0.5,3.1-3.8,4.3
			s-14.3,10-16.9,11.3s-7.9,1-11-1s-8.2,0.8-8.2,0.8l-3.8-3.1l0.8-3.8l-2.8,2.6l-3.6-3.8c0,0-1.8-3.1,0.8-5.4l2.6-2.3l-3.8,0.3
			l-1.8-5.6c0,0,5.6-4.9,9.5-5.1s7.7,5.9,10.2,9.5s6.4,1.5,10-1.3c2.2-1.8,4-3.8,5.6-6.2c0,0,0-8.9-1-13.8s-6.4-12.8-4.8-22
			c1.1-5.7,4-10.8,8.4-14.6c0,0-10.5-4.4-15.9-12.8s-5.9-11-5.9-11s-12-1-15.1,0.5s-9.7,7.7-13.3,9.2s-7.7-2.6-7.7-2.6v-4
			c0,0-4.1,0.3-5.6-1.5S8.2,160,8.2,160s-2.3-2.8-3.8-4.6s-2.3-6.3,3.6-11.2s9.5-5.6,11.8-2s-0.8,3.6,2.6,4.6c2.2,0.8,4.2,2,5.9,3.6
			c3-1.4,5.8-3.1,8.4-5.1c3.8-3.1,3.1-8.2,4.3-12c0.6-2,1.4-3.9,2.5-5.6c-4.1,1.3-8.6,0.4-12-2.3c-6.1-4.6-7.4-9.7-9.2-11.3
			s-5.6-1.3-5.6-1.3s2-4.3,3.6-4.8l1.5-0.5c0,0-4.9-2.8-7.4-2.8h-2.6c0,0,2.8-4.3,4.9-4.6l2-0.3c0,0-4.6-5.7-6.1-5.4
			c-1,0.1-2.1,0.1-3.1-0.3c0.8-1.2,2-2,3.3-2.3l2.3-0.5c0,0-3.8-7.7-3.1-14.8s3.8-19.7,2.8-23.8s-5.1-4.6-4.8-9.5
			c0.1-2.9,1-5.7,2.5-8.2c0,0,7.4-5.6,10-7.4s3.8-4.4,7.7-2s9.2,7.9,9.2,14.1s-4.1,8.2-7.7,12.3s-4.3,8.7-2.8,15.6
			s7.7,14.6,8.7,15.6s4.1-0.5,7.4-0.5s4.6,1.5,4.6,1.5s3.6-12,11.8-12.3s15.1,2.6,19.9-1.5s2-12,2-12c-3.2,1.2-6.4,2.5-9.5,4.1
			c-2.2,1.4-4.1,3.1-5.8,5.1c0,0,0-4.9-2-6.1s-4.6-4.6-4.8-6.7c-0.1-1.6,0-3.3,0.3-4.8c0,0,2.8,4.1,4.9,4.1s8.2-3.3,10.2-4.1
			c1.3-0.5,2.7-0.5,4.1-0.3c0,0-4.7-2-4.7-3.6c0.1-1.2,0.6-2.3,1.3-3.3c0,0-1.3,3.6-3.8,3.8s-10.2-1.8-10.5-0.8s-0.5,3.1-0.5,3.1
			s-3.1-2.5-3.1-4.8s-3.1-4.3-2.8-6.1C56.6,36.9,56.9,35.9,57.3,35"/>
		<path style="fill:none;stroke:#000000;stroke-width:1.76;stroke-linecap:round;stroke-linejoin:round;" d="M57.3,35
			c0,0,0.3-3.6-0.5-5.4s1.3-5.6,7.7-6.4s13.3-5.1,16.4-8.7s3.3-4.9,6.4-5.1s7.7-2.6,11.5-5.9s14.8-3.8,19.7,0s7.2,2.3,7.2,2.3
			s0.3,1.8-1,2s-2.8,0.5-2.8,0.5s4.6,1.5,6.9,4.1c2.3,2.6,3.8,3.3,7.7,3.3h3.8c0,0,0.3,2-3.1,3.3c-2.1,0.8-4.4,1-6.6,0.8
			c1.9,0.7,3.4,2.1,4.4,3.8c1.8,3.1,1.3,6.9,4.9,7.7c1.9,0.5,3.8,0.4,5.6-0.3c0,0,1.8,0.9-1.6,3.9s-5.4,2.8-7.9,3.1
			s-5.1,0.3-5.1,0.3s4.9,0.5,7.2,4.1s2.8,6.7,6.4,7.2s4.4,0.5,4.4,0.5s1.3,2.6-3.6,4.3s-8.2,0-8.2,0c1.5,2.6,2.2,5.7,1.8,8.7
			c-0.8,4.6-3.1,10.7-2.6,13.6l0.5,2.8c-1.5-0.6-3-1.3-4.4-2.3c-1.1-1.1-2-2.4-2.6-3.8c0,0,2.3,10,1,14.6s-6.1,7.9-6.1,11.5
			c0,1.7,0,3.4,0.3,5.1c0,0-3.1,0.3-4.3-2c-0.9-1.7-1.5-3.5-1.8-5.4c0,0,0.3,4.8-2,7.7s-10.5,9.2-10.5,11.8v2.6c0,0-3.3-0.5-3.8-1.8
			l-0.5-1.3c-1,1.6-2.3,3-3.8,4.1c-2,1.3-3.3,0.8-3.3,0.8c3.4,3,6.1,6.7,8.2,10.7c3.1,6.4,6.9,18.4,13,21.2s16.4,4.9,21,11.3
			s6.1,14.8,11.2,17.6s8.4,6.1,15.3,4.1s13-14.1,6.9-23.5s-33.5-19.4-40.4-33.2s-4.8-28.1,3.4-33.7s12-1.8,12-1.8s5.4-3.1,13-0.8
			s7.7,6.7,9.2,12.5s5.9,4.6,8.7,9.7c1.7,2.9,1.9,6.4,0.5,9.5c0,0-3.1-3.8-5.1-3.8s-14.6,5.9-21,0.3s-7.2-14.1-5.6-17.1
			s0.5-5.1,0.5-5.1s-10-2.6-11,8.4s0.8,18.9,10.2,26.6s36.6,16.9,38.9,36.8s-11.8,29.4-20.7,29.9s-11.8,0.3-13.3,2.3
			s3.8,10,3.3,16.6s-3.8,12,4.2,18.6s15.1,4.6,16.9,7.7s-0.5,3.3-1.5,9c-1,5.7-1.3,23.8,1,27.1s9.7,11,5.1,16.1s-7.7,2.8-11.5,6.9
			c-1.5,1.5-3,3.2-4.4,4.9l-6.4-0.5c-0.6-1.5-0.9-3-0.8-4.6l0.3-2.3c-2.2,1.4-4.1,3.2-5.7,5.3c-0.9,1.3-1.7,2.6-2.3,4l-3-0.3
			c0,0-1.8-2.3-1.5-4.3S142,300,142,300c-1.3-0.3-2.5-0.8-3.6-1.6c-1.8-1.3-2.3-7.4,2.6-10.7s8.7,1.3,13-0.3s3.6-7.4,3.8-12.5
			s-2.6-11.3-11-15.6s-19.4-5.6-24-18.1c-2.9-7.9-6.5-15.6-10.5-23c0,0-3.1,0.8-8.7-1s-7.4-4.1-7.4-4.1s-0.8,4.9-4.3,5.9
			c-1.8,0.5-3.6,1.1-5.4,1.8c0,0,3.3,6.4,1.5,12.8s-2.6,11.2-1.8,13.6s0.5,3.1-3.8,4.3s-14.3,10-16.9,11.3s-7.9,1-11-1
			s-8.2,0.8-8.2,0.8l-3.8-3.1l0.8-3.8l-2.8,2.6l-3.6-3.8c0,0-1.8-3.1,0.8-5.4l2.6-2.3l-3.8,0.3l-1.8-5.6c0,0,5.6-4.9,9.5-5.1
			s7.7,5.9,10.2,9.5s6.4,1.5,10-1.3c2.2-1.8,4-3.8,5.6-6.2c0,0,0-8.9-1-13.8s-6.4-12.8-4.8-22c1.1-5.7,4-10.8,8.4-14.6
			c0,0-10.5-4.4-15.9-12.8s-5.9-11-5.9-11s-12-1-15.1,0.5s-9.7,7.7-13.3,9.2s-7.7-2.6-7.7-2.6v-4c0,0-4.1,0.3-5.6-1.5
			S8.2,160,8.2,160s-2.3-2.8-3.8-4.6s-2.3-6.3,3.6-11.2s9.5-5.6,11.8-2s-0.8,3.6,2.6,4.6c2.2,0.8,4.2,2,5.9,3.6
			c3-1.4,5.8-3.1,8.4-5.1c3.8-3.1,3.1-8.2,4.3-12c0.6-2,1.4-3.9,2.5-5.6c-4.1,1.3-8.6,0.4-12-2.3c-6.1-4.6-7.4-9.7-9.2-11.3
			s-5.6-1.3-5.6-1.3s2-4.3,3.6-4.8l1.5-0.5c0,0-4.9-2.8-7.4-2.8h-2.6c0,0,2.8-4.3,4.9-4.6l2-0.3c0,0-4.6-5.7-6.1-5.4
			c-1,0.1-2.1,0.1-3.1-0.3c0.8-1.2,2-2,3.3-2.3l2.3-0.5c0,0-3.8-7.7-3.1-14.8s3.8-19.7,2.8-23.8s-5.1-4.6-4.8-9.5
			c0.1-2.9,1-5.7,2.5-8.2c0,0,7.4-5.6,10-7.4s3.8-4.4,7.7-2s9.2,7.9,9.2,14.1s-4.1,8.2-7.7,12.3s-4.3,8.7-2.8,15.6
			s7.7,14.6,8.7,15.6s4.1-0.5,7.4-0.5s4.6,1.5,4.6,1.5s3.6-12,11.8-12.3s15.1,2.6,19.9-1.5s2-12,2-12c-3.2,1.2-6.4,2.5-9.5,4.1
			c-2.2,1.4-4.1,3.1-5.8,5.1c0,0,0-4.9-2-6.1s-4.6-4.6-4.8-6.7c-0.1-1.6,0-3.3,0.3-4.8c0,0,2.8,4.1,4.9,4.1s8.2-3.3,10.2-4.1
			c1.3-0.5,2.7-0.5,4.1-0.3c0,0-4.7-2-4.7-3.6c0.1-1.2,0.6-2.3,1.3-3.3c0,0-1.3,3.6-3.8,3.8s-10.2-1.8-10.5-0.8s-0.5,3.1-0.5,3.1
			s-3.1-2.5-3.1-4.8s-3.1-4.3-2.8-6.1C56.6,36.9,56.9,35.9,57.3,35z"/>
		<path d="M26.8,24.8c0,0-5.9-3.3-8.7-3.8c-1.8-0.3-3.6-0.4-5.4-0.3c0,0,6.7,3.3,7.4,5.1s1.3,3.3,1.3,3.3L26.8,24.8z"/>
		<path style="fill:none;stroke:#000000;stroke-width:1.76;stroke-linecap:round;stroke-linejoin:round;" d="M26.8,24.8
			c0,0-5.9-3.3-8.7-3.8c-1.8-0.3-3.6-0.4-5.4-0.3c0,0,6.7,3.3,7.4,5.1s1.3,3.3,1.3,3.3L26.8,24.8z"/>
		<path d="M3.3,154.2c0,0-2.3,6.3-2.4,9.2c0,1.8,0.2,3.6,0.6,5.3c0,0,2.2-7.1,3.8-8.1s3.1-1.8,3.1-1.8L3.3,154.2z"/>
		<path style="fill:none;stroke:#000000;stroke-width:1.76;stroke-linecap:round;stroke-linejoin:round;" d="M3.3,154.2
			c0,0-2.3,6.3-2.4,9.2c0,1.8,0.2,3.6,0.6,5.3c0,0,2.2-7.1,3.8-8.1s3.1-1.8,3.1-1.8L3.3,154.2z"/>
		<path d="M33.9,241.6c0,0-4.2,5.3-5.1,8c-0.6,1.7-0.9,3.5-1.1,5.3c0,0,4.3-6.1,6.2-6.5s3.5-0.8,3.5-0.8L33.9,241.6z"/>
		<path style="fill:none;stroke:#000000;stroke-width:1.76;stroke-linecap:round;stroke-linejoin:round;" d="M33.9,241.6
			c0,0-4.2,5.3-5.1,8c-0.6,1.7-0.9,3.5-1.1,5.3c0,0,4.3-6.1,6.2-6.5s3.5-0.8,3.5-0.8L33.9,241.6z"/>
		<path d="M137.1,295.4c0,0-2,6.5-1.9,9.3c0.1,1.8,0.4,3.6,0.9,5.3c0,0,1.8-7.2,3.4-8.3s3-2,3-2L137.1,295.4z"/>
		<path style="fill:none;stroke:#000000;stroke-width:1.76;stroke-linecap:round;stroke-linejoin:round;" d="M137.1,295.4
			c0,0-2,6.5-1.9,9.3c0.1,1.8,0.4,3.6,0.9,5.3c0,0,1.8-7.2,3.4-8.3s3-2,3-2L137.1,295.4z"/>
		<path d="M142.9,307.3c0,0,1,6.7,2.4,9.2c0.9,1.6,1.9,3,3.1,4.4c0,0-1.5-7.3-0.6-9s1.8-3.1,1.8-3.1L142.9,307.3z"/>
		<path style="fill:none;stroke:#000000;stroke-width:1.76;stroke-linecap:round;stroke-linejoin:round;" d="M142.9,307.3
			c0,0,1,6.7,2.4,9.2c0.9,1.6,1.9,3,3.1,4.4c0,0-1.5-7.3-0.6-9s1.8-3.1,1.8-3.1L142.9,307.3z"/>
		<path d="M155.2,307.3c0,0,1,6.7,2.4,9.2c0.9,1.6,1.9,3,3.1,4.4c0,0-1.5-7.3-0.6-9s1.8-3.1,1.8-3.1L155.2,307.3z"/>
		<path style="fill:none;stroke:#000000;stroke-width:1.76;stroke-linecap:round;stroke-linejoin:round;" d="M155.2,307.3
			c0,0,1,6.7,2.4,9.2c0.9,1.6,1.9,3,3.1,4.4c0,0-1.5-7.3-0.6-9s1.8-3.1,1.8-3.1L155.2,307.3z"/>
		<path d="M36.7,250.7c0,0-3.4,5.9-3.9,8.7c-0.3,1.8-0.4,3.6-0.3,5.4c0,0,3.4-6.6,5.2-7.4s3.4-1.2,3.4-1.2L36.7,250.7z"/>
		<path style="fill:none;stroke:#000000;stroke-width:1.76;stroke-linecap:round;stroke-linejoin:round;" d="M36.7,250.7
			c0,0-3.4,5.9-3.9,8.7c-0.3,1.8-0.4,3.6-0.3,5.4c0,0,3.4-6.6,5.2-7.4s3.4-1.2,3.4-1.2L36.7,250.7z"/>
		<path d="M41.5,258.5c0,0-1.7,6.5-1.4,9.4c0.2,1.8,0.6,3.5,1.2,5.2c0,0,1.5-7.3,3-8.5s2.9-2.1,2.9-2.1L41.5,258.5z"/>
		<path style="fill:none;stroke:#000000;stroke-width:1.76;stroke-linecap:round;stroke-linejoin:round;" d="M41.5,258.5
			c0,0-1.7,6.5-1.4,9.4c0.2,1.8,0.6,3.5,1.2,5.2c0,0,1.5-7.3,3-8.5s2.9-2.1,2.9-2.1L41.5,258.5z"/>
		<path d="M8.6,162.3c0,0-1.8,6.5-1.7,9.4c0.1,1.8,0.4,3.6,1,5.3c0,0,1.7-7.3,3.2-8.4s2.9-2,2.9-2L8.6,162.3z"/>
		<path style="fill:none;stroke:#000000;stroke-width:1.76;stroke-linecap:round;stroke-linejoin:round;" d="M8.6,162.3
			c0,0-1.8,6.5-1.7,9.4c0.1,1.8,0.4,3.6,1,5.3c0,0,1.7-7.3,3.2-8.4s2.9-2,2.9-2L8.6,162.3z"/>
		<path d="M15.2,169.2c0,0-1.9,6.5-1.7,9.4c0.1,1.8,0.4,3.6,1,5.3c0,0,1.7-7.2,3.2-8.4s2.9-2,2.9-2L15.2,169.2z"/>
		<path style="fill:none;stroke:#000000;stroke-width:1.76;stroke-linecap:round;stroke-linejoin:round;" d="M15.2,169.2
			c0,0-1.9,6.5-1.7,9.4c0.1,1.8,0.4,3.6,1,5.3c0,0,1.7-7.2,3.2-8.4s2.9-2,2.9-2L15.2,169.2z"/>
		<path d="M17.1,34.5c-1.7-2-3.9-3.5-6.4-4.3c-2.2-0.6-4.6-0.7-6.9-0.3c0,0,4.1,2.1,5.1,4.1c0.7,1.5,1.3,3,1.8,4.6
			c0.7-1.3,1.9-2.3,3.3-2.8C15.1,35.5,16.1,35,17.1,34.5"/>
		<path style="fill:none;stroke:#000000;stroke-width:1.76;stroke-linecap:round;stroke-linejoin:round;" d="M17.1,34.5
			c-1.7-2-3.9-3.5-6.4-4.3c-2.2-0.6-4.6-0.7-6.9-0.3c0,0,4.1,2.1,5.1,4.1c0.7,1.5,1.3,3,1.8,4.6c0.7-1.3,1.9-2.3,3.3-2.8
			C15.1,35.5,16.1,35,17.1,34.5z"/>
		<path d="M22,30.4c-1.7-2-3.9-3.5-6.4-4.3c-2.2-0.6-4.6-0.7-6.9-0.3c0,0,4.1,2,5.1,4.1c0.7,1.5,1.3,3,1.8,4.6
			c0.7-1.3,1.9-2.3,3.3-2.8C20,31.4,21,31,22,30.4"/>
		<path style="fill:none;stroke:#000000;stroke-width:1.76;stroke-linecap:round;stroke-linejoin:round;" d="M22,30.4
			c-1.7-2-3.9-3.5-6.4-4.3c-2.2-0.6-4.6-0.7-6.9-0.3c0,0,4.1,2,5.1,4.1c0.7,1.5,1.3,3,1.8,4.6c0.7-1.3,1.9-2.3,3.3-2.8
			C20,31.4,21,31,22,30.4z"/>
		<path d="M57.3,30.9l3.6,2.8c0,0,0.5-1.3,3.6-1.5c3.1-0.3,2.8,2,4.9,1l2-1"/>
		<path style="fill:none;stroke:#000000;stroke-width:1.76;stroke-linecap:round;stroke-linejoin:round;" d="M57.3,30.9l3.6,2.8
			c0,0,0.5-1.3,3.6-1.5c3.1-0.3,2.8,2,4.9,1l2-1"/>
		<path style="fill:none;stroke:#000000;stroke-width:1.76;stroke-linecap:round;stroke-linejoin:round;" d="M83.6,22.7
			c0,0,3.1-3.8,7.4-3.3c2.7,0.4,5.1,2,6.7,4.4c0,0-2.1,2-6.4,2.3S83.6,22.7,83.6,22.7z"/>
		<path style="fill:none;stroke:#000000;stroke-width:1.76;stroke-linecap:round;stroke-linejoin:round;" d="M80.8,23.8
			c1.8-1.4,3.7-2.7,5.6-3.8c2.8-1.5,6.9-1,9.7-2.8s2.8-3.6,2.8-3.6"/>
		<path style="fill:#F7931E;" d="M92.8,22.9c0,1.2-1,2.2-2.2,2.2c-1.2,0-2.2-1-2.2-2.2s1-2.2,2.2-2.2c0,0,0,0,0,0
			C91.8,20.7,92.8,21.7,92.8,22.9"/>
		<path style="fill:none;stroke:#000000;stroke-width:1.76;stroke-linecap:round;stroke-linejoin:round;" d="M92.8,22.9
			c0,1.2-1,2.2-2.2,2.2c-1.2,0-2.2-1-2.2-2.2s1-2.2,2.2-2.2c0,0,0,0,0,0C91.8,20.7,92.8,21.7,92.8,22.9z"/>
		<path style="fill:none;stroke:#000000;stroke-width:1.76;stroke-linecap:round;stroke-linejoin:round;" d="M130.6,38.3
			c0,0-7.6-0.3-10.7-4.3c-1.7-2.2-3.1-4.6-4.1-7.2"/>
		<path style="fill:none;stroke:#000000;stroke-width:1.76;stroke-linecap:round;stroke-linejoin:round;" d="M121.7,8.4
			c-1.8-0.8-3.7-1.2-5.6-1c-1.9,0.1-3.8,0.5-5.6,1"/>
		<path style="fill:none;stroke:#000000;stroke-width:1.76;stroke-linecap:round;stroke-linejoin:round;" d="M130.4,19.9
			c0,0-2.6,0-6.1-2.8c-2.5-1.8-5.4-2.7-8.4-2.8"/>
		<path style="fill:none;stroke:#000000;stroke-width:1.76;stroke-linecap:round;stroke-linejoin:round;" d="M136.8,54.5
			c0,0-7.7-1.8-10.2-5.1s-8.4-3.1-8.4-3.1"/>
		<path style="fill:none;stroke:#000000;stroke-width:1.76;stroke-linecap:round;stroke-linejoin:round;" d="M129.6,73.4
			c0,0-2.1-1-2.1-5.1s-2.8-8.7-2.8-8.7"/>
		<path style="fill:none;stroke:#000000;stroke-width:1.76;stroke-linecap:round;stroke-linejoin:round;" d="M17.1,34.5
			c0,0,1.5,0.8,3.6,3.8s1.5,5.1,1.5,5.1"/>
		<path style="fill:none;stroke:#000000;stroke-width:1.76;stroke-linecap:round;stroke-linejoin:round;" d="M22,30.4
			c1.5,1.2,2.9,2.6,4.1,4.1c1.8,2.3,1.8,3.8,1.8,3.8"/>
		<path style="fill:none;stroke:#000000;stroke-width:1.76;stroke-linecap:round;stroke-linejoin:round;" d="M6.9,158
			c0,0,0.8-2.1,4.9-5.4s5.6-2.3,5.6-2.3"/>
		<path style="fill:none;stroke:#000000;stroke-width:1.76;stroke-linecap:round;stroke-linejoin:round;" d="M14.1,166.5
			c0,0,2.8-6.5,5.6-7.5c1.6-0.6,3.3-0.6,4.9,0"/>
		<path style="fill:none;stroke:#000000;stroke-width:1.76;stroke-linecap:round;stroke-linejoin:round;" d="M43.4,127.6
			c0,0,1.5-5.9,6.1-7.9c2.3-1.1,4.7-1.9,7.2-2.6"/>
		<path style="fill:none;stroke:#000000;stroke-width:1.76;stroke-linecap:round;stroke-linejoin:round;" d="M50.6,163.9
			c2.6,0.7,5.4-0.4,6.9-2.6c3.1-3.8,4.3-12,6.1-14.8c0.9-1.6,2.5-2.7,4.4-3.1"/>
		<path style="fill:none;stroke:#000000;stroke-width:1.76;stroke-linecap:round;stroke-linejoin:round;" d="M65.9,171
			c0,0,5.1,7.7,17.1,7.2s12.3-1.5,12.3-1.5"/>
		<path style="fill:none;stroke:#000000;stroke-width:1.76;stroke-linecap:round;stroke-linejoin:round;" d="M72.3,187.7
			c0,0,4.1,2.6,7.2,1.8s2.3,6.9,9.2,9.2s6.4,7.2,7.2,11l0.3,3.3"/>
		<path style="fill:none;stroke:#000000;stroke-width:1.76;stroke-linecap:round;stroke-linejoin:round;" d="M112.2,218.1
			c0,0-1.3-2.6-0.8-9.2s-5.4-10-5.4-10"/>
		<path style="fill:none;stroke:#000000;stroke-width:1.76;stroke-linecap:round;stroke-linejoin:round;" d="M149.6,202.7
			c0,0-5.1,0-6.1-9s1.5-10,1.5-10"/>
		<path style="fill:none;stroke:#000000;stroke-width:1.76;stroke-linecap:round;stroke-linejoin:round;" d="M151.6,194.8
			c0,0,6.6,3.8,16.6-1.8s10.5-14,10.5-14"/>
		<path style="fill:none;stroke:#000000;stroke-width:1.76;stroke-linecap:round;stroke-linejoin:round;" d="M150.1,107.1
			c0,0-1.8,2.8,2.1,7.9s10.5,4.1,10.5,4.1"/>
		<path style="fill:none;stroke:#000000;stroke-width:1.76;stroke-linecap:round;stroke-linejoin:round;" d="M151.1,97.2
			c0,0,2.3-0.5,7.7,3.1s3.1,10,5.9,13.6s5.4,2.6,5.4,2.6"/>
		<path style="fill:none;stroke:#000000;stroke-width:1.76;stroke-linecap:round;stroke-linejoin:round;" d="M28.4,113.3
			c1.3,2,2.7,3.9,4.3,5.6c2.8,3.1,5.6,3.1,5.6,3.1"/>
		<path style="fill:none;stroke:#000000;stroke-width:1.76;stroke-linecap:round;stroke-linejoin:round;" d="M26.6,48.8
			c0,0-3.1,2.8-3.3,9.2c-0.1,4,0.3,8.1,1.3,12"/>
		<path style="fill:none;stroke:#000000;stroke-width:1.76;stroke-linecap:round;stroke-linejoin:round;" d="M38.8,83.8
			c0,0-5.8,2.8-6.9,5.2l-1,2.3"/>
		<path style="fill:none;stroke:#000000;stroke-width:1.76;stroke-linecap:round;stroke-linejoin:round;" d="M49.6,84.1l-1,4.8
			c-1.7,0.9-3.2,2.1-4.3,3.6c-2,2.6-2.8,6.9-2.8,6.9"/>
		<path style="fill:none;stroke:#000000;stroke-width:1.76;stroke-linecap:round;stroke-linejoin:round;" d="M72.3,150.6
			c0,0,0.8-3.8,7.7-8.1s3.1-13.8,3.1-13.8"/>
		<path style="fill:none;stroke:#000000;stroke-width:1.76;stroke-linecap:round;stroke-linejoin:round;" d="M87.7,184.7
			c0,0,4.6,3.4,13,1.9s9.2-2.7,9.2-2.7"/>
		<path style="fill:none;stroke:#000000;stroke-width:1.76;stroke-linecap:round;stroke-linejoin:round;" d="M98.8,138.7
			c0,0,1.2,14.2,8.8,18.8s13.8,3.1,19.6,7.3"/>
		<path style="fill:none;stroke:#000000;stroke-width:1.76;stroke-linecap:round;stroke-linejoin:round;" d="M75,105.3
			c0,0,0.8-4.2,10.7-2.3s16.5-1.2,20.3-6.9"/>
		<path style="fill:none;stroke:#000000;stroke-width:1.76;stroke-linecap:round;stroke-linejoin:round;" d="M86.9,88.4
			c0,0,3.8-4.6,15-5s13.8-7.7,13.8-12.7"/>
		<path style="fill:none;stroke:#000000;stroke-width:1.76;stroke-linecap:round;stroke-linejoin:round;" d="M87.3,46.3
			c0,0-2.7-5,3.8-8.1s12.3-3.1,13.4-6.9"/>
		<path style="fill:none;stroke:#000000;stroke-width:1.76;stroke-linecap:round;stroke-linejoin:round;" d="M92.7,56.2
			c0,0,7.7,1.5,11.5-3.5s4.2-9.2,4.2-9.2"/>
		<path style="fill:none;stroke:#000000;stroke-width:1.76;stroke-linecap:round;stroke-linejoin:round;" d="M146.4,236.1
			c0,0,3.8,8.8,10.7,11.5s8.1,1.9,8.1,1.9c-0.7,2.4-0.7,4.9,0,7.3"/>
		<path style="fill:none;stroke:#000000;stroke-width:1.76;stroke-linecap:round;stroke-linejoin:round;" d="M81.2,227.3
			c0,0-1.9,8.1-1.2,13.4l0.8,5.4c0,0-1.9-0.8-5.8,1.9"/>
		<path style="fill:none;stroke:#000000;stroke-width:1.76;stroke-linecap:round;stroke-linejoin:round;" d="M118.6,97.2
			c0.5-7.2,2.8-6.4,2.4-14.4"/>
		<path style="fill:none;stroke:#000000;stroke-width:1.76;stroke-linecap:round;stroke-linejoin:round;" d="M44,157.5
			c2.5,1.6,5.7,1.9,8.4,0.8c3.4-1.3,3.8-9.6,3.8-9.6"/>
		<path style="fill:#FFD200;" d="M53.9,89.6c0,0,1.9-6.5,7.3-10s5.4-0.8,11.9-1.5"/>
		<path style="fill:none;stroke:#000000;stroke-width:1.76;stroke-linecap:round;stroke-linejoin:round;" d="M53.9,89.6
			c0,0,1.9-6.5,7.3-10s5.4-0.8,11.9-1.5"/>
		<path style="fill:#FFD200;" d="M142.5,299.7c0,0-0.4-3,3.4-4.9s5-0.4,5-0.4"/>
		<path style="fill:none;stroke:#000000;stroke-width:1.76;stroke-linecap:round;stroke-linejoin:round;" d="M142.5,299.7
			c0,0-0.4-3,3.4-4.9s5-0.4,5-0.4"/>
		<path style="fill:#FFD200;" d="M155.7,302.2c1.4-1.5,2.9-3,4.5-4.3c3.4-3.1,5-1.9,5-1.9"/>
		<path style="fill:none;stroke:#000000;stroke-width:1.76;stroke-linecap:round;stroke-linejoin:round;" d="M155.7,302.2
			c1.4-1.5,2.9-3,4.5-4.3c3.4-3.1,5-1.9,5-1.9"/>
		<path style="fill:#FFD200;" d="M40.1,246.5c0,0,2.7-2.3,5-1.5c1.3,0.4,2.5,1,3.5,1.9"/>
		<path style="fill:none;stroke:#000000;stroke-width:1.76;stroke-linecap:round;stroke-linejoin:round;" d="M40.1,246.5
			c0,0,2.7-2.3,5-1.5c1.3,0.4,2.5,1,3.5,1.9"/>
		<path style="fill:#FFD200;" d="M43.2,255.4c0,0,2.7-2.8,5.8-2.8c1.8,0,3.5,0.5,5,1.5"/>
		<path style="fill:none;stroke:#000000;stroke-width:1.76;stroke-linecap:round;stroke-linejoin:round;" d="M43.2,255.4
			c0,0,2.7-2.8,5.8-2.8c1.8,0,3.5,0.5,5,1.5"/>
		<path style="fill:#FFD200;" d="M117.8,210.9c0,0-2,4.1,1.5,8.7s7.7,17.9,7.7,17.9"/>
		<path style="fill:none;stroke:#000000;stroke-width:1.76;stroke-linecap:round;stroke-linejoin:round;" d="M117.8,210.9
			c0,0-2,4.1,1.5,8.7s7.7,17.9,7.7,17.9"/>
		<path style="fill:#FFD200;" d="M75.4,193c0,0-5.1,1-5.6,9.7s2.6,12.8,2.6,12.8"/>
		<path style="fill:none;stroke:#000000;stroke-width:1.76;stroke-linecap:round;stroke-linejoin:round;" d="M75.4,193
			c0,0-5.1,1-5.6,9.7s2.6,12.8,2.6,12.8"/>
	</g>
</g>
</svg>
