<?xml version="1.0" encoding="utf-8"?>
<!-- Generator: Adobe Illustrator 23.0.2, SVG Export Plug-In . SVG Version: 6.00 Build 0)  -->
<svg version="1.1" id="Réteg_1" xmlns="http://www.w3.org/2000/svg" xmlns:xlink="http://www.w3.org/1999/xlink" x="0px" y="0px"
	 viewBox="0 0 269.1 269.1" style="enable-background:new 0 0 269.1 269.1;" xml:space="preserve">
<title>cimerkep_03</title>
<g>
	<g>
		<path style="fill:#FFD200;" d="M141.3,61.7c-4.4-0.4-8.9-0.4-13.3,0c-0.3-6.2,1.9-17,4.8-22.7c5.6-10.8,9.8-21.8,7.3-35.7
			c6.1,7.6,7.8,23.5,4.2,32.1c-3.7,8.8-5.6,15.5-5.4,20.5C139.1,59.2,139.9,60.5,141.3,61.7"/>
		<path style="fill:none;stroke:#000000;stroke-width:1.76;stroke-miterlimit:10;" d="M141.3,61.7c-4.4-0.4-8.9-0.4-13.3,0
			c-0.3-6.2,1.9-17,4.8-22.7c5.6-10.8,9.8-21.8,7.3-35.7c6.1,7.6,7.8,23.5,4.2,32.1c-3.7,8.8-5.6,15.5-5.4,20.5
			C139.1,59.2,139.9,60.5,141.3,61.7z"/>
		<path style="fill:#FFD200;" d="M148.1,62.6l12.8-30.3l-4.2,32.5C153.9,63.9,151,63.2,148.1,62.6"/>
		<path style="fill:none;stroke:#000000;stroke-width:1.76;stroke-miterlimit:10;" d="M148.1,62.6l12.8-30.3l-4.2,32.5
			C153.9,63.9,151,63.2,148.1,62.6z"/>
		<path style="fill:#FFD200;" d="M104,68c-4,1.9-7.9,4.1-11.5,6.7c-3.5-5.2-6.9-15.6-7.2-22C84.8,40.5,82.9,28.8,73.8,18
			c9.1,3.6,18.5,16.5,19.7,25.7c1.2,9.4,2.9,16.2,5.6,20.4C100.8,67,102.2,67.7,104,68"/>
		<path style="fill:none;stroke:#000000;stroke-width:1.76;stroke-miterlimit:10;" d="M104,68c-4,1.9-7.9,4.1-11.5,6.7
			c-3.5-5.2-6.9-15.6-7.2-22C84.8,40.5,82.9,28.8,73.8,18c9.1,3.6,18.5,16.5,19.7,25.7c1.2,9.4,2.9,16.2,5.6,20.4
			C100.8,67,102.2,67.7,104,68z"/>
		<path style="fill:#FFD200;" d="M110.3,65.4l-4.1-32.6L118.8,63C116,63.6,113.1,64.4,110.3,65.4"/>
		<path style="fill:none;stroke:#000000;stroke-width:1.76;stroke-miterlimit:10;" d="M110.3,65.4l-4.1-32.6L118.8,63
			C116,63.7,113.1,64.5,110.3,65.4z"/>
		<path style="fill:#FFD200;" d="M74.8,92.2c-2.6,3.6-4.8,7.5-6.7,11.5c-5.5-2.8-13.8-10.1-17.2-15.5C44.4,78,36.9,68.8,23.7,64
			c9.7-1.5,24.3,5,29.9,12.4C59.3,84,64.1,89,68.6,91.4C71.6,92.9,73.1,92.8,74.8,92.2"/>
		<path style="fill:none;stroke:#000000;stroke-width:1.76;stroke-miterlimit:10;" d="M74.8,92.2c-2.6,3.6-4.8,7.5-6.7,11.5
			c-5.5-2.8-13.8-10.1-17.2-15.5C44.4,78,36.9,68.8,23.7,64c9.7-1.5,24.3,5,29.9,12.4C59.3,84,64.1,89,68.6,91.4
			C71.6,92.9,73.1,92.8,74.8,92.2z"/>
		<path style="fill:#FFD200;" d="M79,86.8L59.1,60.6l26.1,19.9C83,82.4,80.9,84.6,79,86.8"/>
		<path style="fill:none;stroke:#000000;stroke-width:1.76;stroke-miterlimit:10;" d="M79,86.8L59.1,60.6l26.1,19.9
			C83,82.4,80.9,84.6,79,86.8z"/>
		<path style="fill:#FFD200;" d="M61.7,127.8c-0.4,4.4-0.4,8.9,0,13.3c-6.2,0.3-17-1.9-22.7-4.8c-10.8-5.6-21.8-9.8-35.7-7.3
			c7.6-6.1,23.5-7.8,32.1-4.2c8.8,3.7,15.5,5.6,20.5,5.4C59.2,129.9,60.5,129.2,61.7,127.8"/>
		<path style="fill:none;stroke:#000000;stroke-width:1.76;stroke-miterlimit:10;" d="M61.7,127.8c-0.4,4.4-0.4,8.9,0,13.3
			c-6.2,0.3-17-1.9-22.7-4.8c-10.8-5.6-21.8-9.8-35.7-7.3c7.6-6.1,23.5-7.8,32.1-4.2c8.8,3.7,15.5,5.6,20.5,5.4
			C59.2,129.9,60.5,129.1,61.7,127.8z"/>
		<path style="fill:#FFD200;" d="M62.6,121l-30.3-12.8l32.5,4.2C63.9,115.2,63.1,118.1,62.6,121"/>
		<path style="fill:none;stroke:#000000;stroke-width:1.76;stroke-miterlimit:10;" d="M62.6,121l-30.3-12.8l32.5,4.2
			C63.9,115.2,63.1,118.1,62.6,121z"/>
		<path style="fill:#FFD200;" d="M68,165.1c1.8,4.1,4.1,7.9,6.7,11.6c-5.3,3.4-15.6,6.9-22.1,7.1c-12.1,0.5-23.8,2.4-34.6,11.5
			c3.6-9.1,16.5-18.5,25.7-19.7c9.4-1.2,16.2-2.9,20.4-5.6C66.9,168.2,67.7,166.9,68,165.1"/>
		<path style="fill:none;stroke:#000000;stroke-width:1.76;stroke-miterlimit:10;" d="M68,165.1c1.8,4.1,4.1,7.9,6.7,11.6
			c-5.3,3.4-15.6,6.9-22.1,7.1c-12.1,0.5-23.8,2.4-34.6,11.5c3.6-9.1,16.5-18.5,25.7-19.7c9.4-1.2,16.2-2.9,20.4-5.6
			C67,168.2,67.7,166.9,68,165.1z"/>
		<path style="fill:#FFD200;" d="M65.4,158.8l-32.6,4.1L63,150.2C63.6,153.1,64.4,155.9,65.4,158.8"/>
		<path style="fill:none;stroke:#000000;stroke-width:1.76;stroke-miterlimit:10;" d="M65.4,158.8l-32.6,4.1L63,150.2
			C63.6,153.1,64.5,155.9,65.4,158.8z"/>
		<path style="fill:#FFD200;" d="M92.2,194.3c3.6,2.6,7.5,4.8,11.5,6.7c-2.8,5.6-10.1,13.8-15.5,17.2c-10.2,6.5-19.4,14-24.2,27.3
			c-1.5-9.6,5-24.3,12.4-29.9c7.6-5.8,12.6-10.6,14.9-15.1C92.9,197.5,92.8,196,92.2,194.3"/>
		<path style="fill:none;stroke:#000000;stroke-width:1.76;stroke-miterlimit:10;" d="M92.2,194.3c3.6,2.6,7.5,4.8,11.5,6.7
			c-2.8,5.6-10.1,13.8-15.5,17.2c-10.2,6.5-19.4,14-24.2,27.3c-1.5-9.6,5-24.3,12.4-29.9c7.6-5.8,12.6-10.6,14.9-15.1
			C92.9,197.5,92.8,196,92.2,194.3z"/>
		<path style="fill:#FFD200;" d="M86.8,190.1l-26.2,19.9l19.9-26.1C82.4,186,84.6,188.1,86.8,190.1"/>
		<path style="fill:none;stroke:#000000;stroke-width:1.76;stroke-miterlimit:10;" d="M86.8,190.1l-26.2,19.9l19.9-26.1
			C82.4,186,84.6,188.1,86.8,190.1z"/>
		<path style="fill:#FFD200;" d="M127.8,207.4c4.4,0.4,8.9,0.4,13.3,0c0.3,6.2-1.9,17-4.8,22.7c-5.6,10.8-9.8,21.8-7.3,35.7
			c-6.1-7.6-7.8-23.5-4.2-32.1c3.7-8.8,5.6-15.4,5.4-20.5C129.9,209.9,129.2,208.6,127.8,207.4"/>
		<path style="fill:none;stroke:#000000;stroke-width:1.76;stroke-miterlimit:10;" d="M127.8,207.4c4.4,0.4,8.9,0.4,13.3,0
			c0.3,6.2-1.9,17-4.8,22.7c-5.6,10.8-9.8,21.8-7.3,35.7c-6.1-7.6-7.8-23.5-4.2-32.1c3.7-8.8,5.6-15.4,5.4-20.5
			C129.9,209.9,129.1,208.6,127.8,207.4z"/>
		<path style="fill:#FFD200;" d="M121,206.5l-12.8,30.3l4.2-32.5C115.2,205.2,118.1,205.9,121,206.5"/>
		<path style="fill:none;stroke:#000000;stroke-width:1.76;stroke-miterlimit:10;" d="M121,206.5l-12.8,30.3l4.2-32.5
			C115.2,205.2,118.1,205.9,121,206.5z"/>
		<path style="fill:#FFD200;" d="M165.1,201c4.1-1.8,7.9-4.1,11.6-6.7c3.4,5.2,6.9,15.6,7.1,22.1c0.5,12.1,2.4,23.8,11.5,34.6
			c-9.1-3.6-18.5-16.5-19.7-25.7c-1.2-9.4-2.9-16.2-5.6-20.4C168.2,202.1,166.9,201.3,165.1,201"/>
		<path style="fill:none;stroke:#000000;stroke-width:1.76;stroke-miterlimit:10;" d="M165.1,201c4.1-1.8,7.9-4.1,11.6-6.7
			c3.4,5.2,6.9,15.6,7.1,22.1c0.5,12.1,2.4,23.8,11.5,34.6c-9.1-3.6-18.5-16.5-19.7-25.7c-1.2-9.4-2.9-16.2-5.6-20.4
			C168.2,202.1,166.9,201.3,165.1,201z"/>
		<path style="fill:#FFD200;" d="M158.8,203.6l4.1,32.7L150.2,206C153.1,205.4,155.9,204.6,158.8,203.6"/>
		<path style="fill:none;stroke:#000000;stroke-width:1.76;stroke-miterlimit:10;" d="M158.8,203.6l4.1,32.7L150.2,206
			C153.1,205.4,155.9,204.6,158.8,203.6z"/>
		<path style="fill:#FFD200;" d="M194.3,176.8c2.6-3.6,4.8-7.5,6.7-11.5c5.6,2.8,13.8,10.1,17.2,15.5c6.5,10.2,14,19.4,27.3,24.2
			c-9.6,1.4-24.3-5-29.9-12.4c-5.8-7.6-10.6-12.6-15.1-14.9C197.5,176.2,196,176.2,194.3,176.8"/>
		<path style="fill:none;stroke:#000000;stroke-width:1.76;stroke-miterlimit:10;" d="M194.3,176.8c2.6-3.6,4.8-7.5,6.7-11.5
			c5.6,2.8,13.8,10.1,17.2,15.5c6.5,10.2,14,19.4,27.3,24.2c-9.6,1.4-24.3-5-29.9-12.4c-5.8-7.6-10.6-12.6-15.1-14.9
			C197.5,176.2,196,176.2,194.3,176.8z"/>
		<path style="fill:#FFD200;" d="M190.1,182.2l19.9,26.2l-26.1-19.9C186,186.6,188.1,184.5,190.1,182.2"/>
		<path style="fill:none;stroke:#000000;stroke-width:1.76;stroke-miterlimit:10;" d="M190.1,182.2l19.9,26.2l-26.1-19.9
			C186,186.6,188.1,184.5,190.1,182.2z"/>
		<path style="fill:#FFD200;" d="M207.4,141.3c0.4-4.4,0.4-8.9,0-13.3c6.2-0.3,17,1.9,22.7,4.8c10.8,5.6,21.8,9.8,35.7,7.3
			c-7.6,6.1-23.5,7.8-32.1,4.2c-8.8-3.7-15.4-5.6-20.5-5.4C209.9,139.1,208.6,139.9,207.4,141.3"/>
		<path style="fill:none;stroke:#000000;stroke-width:1.76;stroke-miterlimit:10;" d="M207.4,141.3c0.4-4.4,0.4-8.9,0-13.3
			c6.2-0.3,17,1.9,22.7,4.8c10.8,5.6,21.8,9.8,35.7,7.3c-7.6,6.1-23.5,7.8-32.1,4.2c-8.8-3.7-15.4-5.6-20.5-5.4
			C209.9,139.1,208.6,139.9,207.4,141.3z"/>
		<path style="fill:#FFD200;" d="M206.5,148.1l30.3,12.8l-32.5-4.2C205.2,153.9,205.9,151,206.5,148.1"/>
		<path style="fill:none;stroke:#000000;stroke-width:1.76;stroke-miterlimit:10;" d="M206.5,148.1l30.3,12.8l-32.5-4.2
			C205.2,153.9,205.9,151,206.5,148.1z"/>
		<path style="fill:#FFD200;" d="M201,104c-1.8-4.1-4.1-7.9-6.7-11.5c5.2-3.4,15.6-6.9,22.1-7.2c12.1-0.5,23.8-2.4,34.6-11.5
			c-3.6,9.1-16.5,18.5-25.7,19.7c-9.4,1.2-16.2,2.9-20.4,5.6C202.1,100.9,201.3,102.2,201,104"/>
		<path style="fill:none;stroke:#000000;stroke-width:1.76;stroke-miterlimit:10;" d="M201,104c-1.8-4.1-4.1-7.9-6.7-11.5
			c5.2-3.4,15.6-6.9,22.1-7.2c12.1-0.5,23.8-2.4,34.6-11.5c-3.6,9.1-16.5,18.5-25.7,19.7c-9.4,1.2-16.2,2.9-20.4,5.6
			C202.1,100.8,201.3,102.2,201,104z"/>
		<path style="fill:#FFD200;" d="M203.6,110.3l32.7-4.1L206,118.8C205.4,116,204.6,113.1,203.6,110.3"/>
		<path style="fill:none;stroke:#000000;stroke-width:1.76;stroke-miterlimit:10;" d="M203.6,110.3l32.7-4.1L206,118.8
			C205.4,116,204.6,113.1,203.6,110.3z"/>
		<path style="fill:#FFD200;" d="M176.8,74.8c-3.6-2.6-7.5-4.8-11.5-6.7c2.9-5.6,10.1-13.8,15.5-17.2c10.2-6.5,19.4-14,24.2-27.3
			c1.4,9.7-5,24.3-12.4,29.9c-7.6,5.8-12.6,10.6-14.9,15.1C176.2,71.6,176.2,73.1,176.8,74.8"/>
		<path style="fill:none;stroke:#000000;stroke-width:1.76;stroke-miterlimit:10;" d="M176.8,74.8c-3.6-2.6-7.5-4.8-11.5-6.7
			c2.9-5.6,10.1-13.8,15.5-17.2c10.2-6.5,19.4-14,24.2-27.3c1.4,9.7-5,24.3-12.4,29.9c-7.6,5.8-12.6,10.6-14.9,15.1
			C176.2,71.6,176.2,73.1,176.8,74.8z"/>
		<path style="fill:#FFD200;" d="M182.2,79l26.2-19.9l-19.9,26.1C186.6,83,184.5,80.9,182.2,79"/>
		<path style="fill:none;stroke:#000000;stroke-width:1.76;stroke-miterlimit:10;" d="M182.2,79l26.2-19.9l-19.9,26.1
			C186.6,83,184.5,80.9,182.2,79z"/>
		<path style="fill:#FFD200;" d="M212.1,135.9c0,42.1-34.1,76.3-76.3,76.3S59.6,178,59.6,135.9s34.1-76.3,76.3-76.3
			C178,59.6,212.1,93.8,212.1,135.9C212.1,135.9,212.1,135.9,212.1,135.9"/>
		<circle style="fill:none;stroke:#000000;stroke-width:1.76;stroke-miterlimit:10;" cx="135.9" cy="135.9" r="76.3"/>
		<path style="fill:#FFD200;" d="M106.8,77.7c0,0-31.4,5.6-37.9,53.6s44.4,68.4,44.4,68.4"/>
		<path style="fill:none;stroke:#000000;stroke-width:1.76;stroke-miterlimit:10;" d="M106.8,77.7c0,0-31.4,5.6-37.9,53.6
			s44.4,68.4,44.4,68.4"/>
		<path style="fill:#FFD200;" d="M200.1,116c0,0,10.2,20.8-2.8,49s-29.6,28.6-29.6,28.6"/>
		<path style="fill:none;stroke:#000000;stroke-width:1.76;stroke-miterlimit:10;" d="M200.1,116c0,0,10.2,20.8-2.8,49
			s-29.6,28.6-29.6,28.6"/>
		<path style="fill:#FFD200;" d="M109.8,118.7c0,1-0.8,1.7-1.7,1.7c-1,0-1.7-0.8-1.7-1.7c0-1,0.8-1.7,1.7-1.7c0,0,0,0,0,0
			C109,116.9,109.8,117.7,109.8,118.7"/>
		<path style="fill:none;stroke:#000000;stroke-width:1.76;stroke-miterlimit:10;" d="M109.8,118.7c0,1-0.8,1.7-1.7,1.7
			c-1,0-1.7-0.8-1.7-1.7c0-1,0.8-1.7,1.7-1.7c0,0,0,0,0,0C109,116.9,109.8,117.7,109.8,118.7z"/>
		<path style="fill:#FFD200;" d="M167.1,120c0,1-0.8,1.7-1.7,1.7c-1,0-1.7-0.8-1.7-1.7c0-1,0.8-1.7,1.7-1.7c0,0,0,0,0,0
			C166.4,118.3,167.1,119,167.1,120"/>
		<path style="fill:none;stroke:#000000;stroke-width:1.76;stroke-miterlimit:10;" d="M167.1,120c0,1-0.8,1.7-1.7,1.7
			c-1,0-1.7-0.8-1.7-1.7c0-1,0.8-1.7,1.7-1.7c0,0,0,0,0,0C166.4,118.3,167.1,119,167.1,120z"/>
		<path style="fill:none;stroke:#000000;stroke-width:1.76;stroke-linecap:round;stroke-linejoin:round;" d="M86.7,105.6
			c0,0,6.5-8.3,21.5-8.6s19,7.9,21,14.1c3.5,10.6-5.1,36.7,2.1,41.8s12.7,1.2,13.6-5.3s-3-27-0.9-37.9s12.5-14.6,21.5-13.6
			s18.3,8.3,18.3,8.3"/>
		<path style="fill:none;stroke:#000000;stroke-width:1.76;stroke-linecap:round;stroke-linejoin:round;" d="M85.7,119
			c0,0,8.6-3.2,13.2-8.3s15.3-4.6,20.1-1.2s8.1,10.6,8.1,10.6s-3.7,5.6-14.1,7.6c-10.4,2.1-15-1.2-19-2.5S85.7,119,85.7,119z"/>
		<path style="fill:none;stroke:#000000;stroke-width:1.76;stroke-linecap:round;stroke-linejoin:round;" d="M147,119
			c3.2-3.2,6.8-6,10.6-8.3c6.7-4.2,14.1-3,19.2,2.8s9.5,6.9,9.5,6.9s-3.5,7.9-15,8.8s-13.4-1.6-18.3-3.7
			C149.8,124.1,147,119,147,119z"/>
		<path style="fill:none;stroke:#000000;stroke-width:1.76;stroke-linecap:round;stroke-linejoin:round;" d="M147,119
			c4.7-0.8,9.4-2,14-3.5c6.6-2.3,12.3,1.1,16.3,3.2c2.8,1.3,5.9,1.9,8.9,1.6"/>
		<path style="fill:none;stroke:#000000;stroke-width:1.76;stroke-linecap:round;stroke-linejoin:round;" d="M86.3,119.1
			c0,0,10.9,2.9,16.6,4.8s13.3-0.5,17.3-1.8c2.3-0.8,4.6-1.4,6.9-1.8c0,0-6.6-3.8-10.3-5.5s-9.7-2.3-16.2,1.1S85.7,119,85.7,119"/>
		<path style="fill:none;stroke:#000000;stroke-width:1.76;stroke-linecap:round;stroke-linejoin:round;" d="M148.2,119.3
			c0,0,6,5.9,18.2,5.9s17.7-4.5,17.7-4.5"/>
		<path style="fill:none;stroke:#000000;stroke-width:1.76;stroke-linecap:round;stroke-linejoin:round;" d="M128.9,150
			c0,0-4.6,7.4-9.2,4.3s-3.3-7.4-1.3-9.4s5.5-1.7,5.5-1.7s-0.8-7.3,0.3-11c0.6-1.5,0.9-3,1.2-4.6"/>
		<path style="fill:none;stroke:#000000;stroke-width:1.76;stroke-linecap:round;stroke-linejoin:round;" d="M143.8,150.6
			c0,0,5.7,7.7,10.8,2.5c5.7-5.8-3-10.3-5.7-9.7"/>
		<path style="fill:none;stroke:#000000;stroke-width:1.76;stroke-linecap:round;stroke-linejoin:round;" d="M110.6,160.2
			c0,0-1.8,3.9,2.2,5.4s10.8-4.5,16.3-2s5.2,3.7,8.5,1.7s8.2-3.7,12.8-1.1s8.6,0.6,9.2-1.5s-0.1-2.9-0.1-2.9"/>
		<path style="fill:none;stroke:#000000;stroke-width:1.76;stroke-linecap:round;stroke-linejoin:round;" d="M103.8,169.9
			c1.4-1.2,2.9-2.2,4.6-2.9c1.8-0.7,3.8-0.8,5.7-0.3c0.5,0,10.3,7.1,21.3,7.1s20-8,20-8c4,0.1,5.4,0.3,7.7,3.1s2,2.3,2,2.3"/>
		<path style="fill:none;stroke:#000000;stroke-width:1.76;stroke-linecap:round;stroke-linejoin:round;" d="M113.4,166.4
			c0,0,2.8,15.7,19.7,17.3s23.1-18.2,23.1-18.2"/>
		<path style="fill:none;stroke:#000000;stroke-width:1.76;stroke-linecap:round;stroke-linejoin:round;" d="M121.9,192.3
			c0,0,4.6-3.9,13.4-3.2s13.1,3.2,13.1,3.2"/>
		<path style="fill:none;stroke:#000000;stroke-width:1.76;stroke-linecap:round;stroke-linejoin:round;" d="M105.6,114
			c-3.3,1.6-4.4,4-3.1,6.1s1.5,3.9,6,3.9s5.8-3.1,5-6.5s-1.3-4.2-3.2-4.2C108.7,113.5,107.1,113.7,105.6,114z"/>
		<path style="fill:none;stroke:#000000;stroke-width:1.76;stroke-linecap:round;stroke-linejoin:round;" d="M162.9,115.5
			c-3.2,1.5-4.2,3.8-3,5.8s1.4,3.7,5.8,3.7s5.6-3,4.8-6.1s-1.2-3.9-3.1-3.9C165.8,115.1,164.3,115.2,162.9,115.5z"/>
		<path style="fill:none;stroke:#000000;stroke-width:1.76;stroke-linecap:round;stroke-linejoin:round;" d="M93.4,94.1
			c0,0,11.3-7.4,22.9-4.4s13.4,7.8,13.4,7.8"/>
	</g>
</g>
</svg>
