<?xml version="1.0" encoding="utf-8"?>
<!-- Generator: Adobe Illustrator 23.0.2, SVG Export Plug-In . SVG Version: 6.00 Build 0)  -->
<svg version="1.1" id="Réteg_1" xmlns="http://www.w3.org/2000/svg" xmlns:xlink="http://www.w3.org/1999/xlink" x="0px" y="0px"
	 viewBox="0 0 147.9 192.6" style="enable-background:new 0 0 147.9 192.6;" xml:space="preserve">
<title>cimerkep_12</title>
<g>
	<g>
		<path style="fill-rule:evenodd;clip-rule:evenodd;fill:#FFD200;" d="M10.8,26.8c0.5-1.8,1.1-3.7,1.7-6c-5,0.5-10,0.8-11.4-6.1
			c-0.9-4.3,0.7-7.8,4.3-9.7c5.3-2.8,8.1,1.4,11.1,5.3c0.9-2.1,1.8-4,2.9-6.4c3.1,1.7,6.1,3.2,9,4.8C48,19.1,68,17.9,88.2,10.8
			c7.7-2.7,15.3-6,23.1-8.4c16.3-5,25.7,2.6,26.7,21.2c0,0.6,0.2,1.1,0.3,2.1c0.7,0.2,1.5,0.5,2.3,0.6c3.7,0.7,6.4,2.8,6.5,7.2
			s-2.5,6.4-6.3,7.3c-1.4,0.3-3.2,2.9-3.3,4.5c-0.5,12.8-0.6,25.5-0.9,38.3c-0.4,20.6-0.9,41.3-1,61.9c0,3.6,1.2,7.3,2.4,10.8
			c1.7,5.2-1.6,12.1-7.1,14.4c-1.7,15.2-10.2,23-22.7,20.8c-5.6-1-10.4-7.1-10.5-13.6c-0.3-5.3,3.2-10.1,8.4-11.3
			c1.7-0.5,3.5-0.4,5.1,0.3c1.4,0.7,3,2.7,3,4.1c0,1.2-2.1,2.5-3.4,3.6s-2.8,2.1-4.2,3.2c1.8,1.3,3.5,3.6,5.4,3.8
			c3.9,0.4,6.8-1.9,7.8-6.4c1.1-4.9-1.1-10.1-5.1-11.7c-1.8-0.8-3.9-1.6-5.7-1.3c-13.2,2.6-23.7-5.1-34-11.7
			c-27.3-17.6-46.5-43.3-55.8-77c-3.4-12.2-3.6-25.4-5.4-38.2c-0.4-2.8-1.2-5.5-1.9-8.2l-1-0.4 M103.9,147.9
			c-23-36.7-45.7-73-69.2-110.5C29.7,93.5,69.9,137.3,103.9,147.9 M43.6,36c21.4,34.1,42.2,67.4,63,100.7c2.1-8.9,6.8-17.1-0.3-25.6
			c-4.6-5.6-7.9-12.5-11.8-18.8C83.4,74.5,72.2,56.7,61,38.8c-0.9-1.5-2.5-3.3-3.9-3.4C53,35.2,48.8,35.7,43.6,36 M67.4,33.4
			l45.2,72c1.2-8,2.2-14.1,2.9-20.3c0-1.3-0.3-2.7-1.1-3.8c-10.3-16.6-20.8-33.1-31.2-49.6c-1-1.3-2.6-2.1-4.2-2
			C75.4,30.4,71.9,31.9,67.4,33.4 M89,25.1l27.4,43.6c0.5-0.1,1-0.2,1.4-0.3c1.1-7.8,2.1-15.7,3.2-23.5c0.5-3.4,0.2-5.7-3.5-7
			c-1.7-0.6-3.6-4.1-3.5-6.2s2.3-4.5,4-5.9c1.4-1.1,3.6-0.9,5.3-1.2c1.6-11-0.6-13.5-9.5-10.2C105.5,17.3,97.5,21.4,89,25.1"/>
		<path style="fill:none;stroke:#000000;stroke-width:1.76;stroke-linecap:round;stroke-linejoin:round;" d="M10.8,26.8
			c0.5-1.8,1.1-3.7,1.7-6c-5,0.5-10,0.8-11.4-6.1c-0.9-4.3,0.7-7.8,4.3-9.7c5.3-2.8,8.1,1.4,11.1,5.3c0.9-2.1,1.8-4,2.9-6.4
			c3.1,1.7,6.1,3.2,9,4.8C48,19.1,68,17.9,88.2,10.8c7.7-2.7,15.3-6,23.1-8.4c16.3-5,25.7,2.6,26.7,21.2c0,0.6,0.2,1.1,0.3,2.1
			c0.7,0.2,1.5,0.5,2.3,0.6c3.7,0.7,6.4,2.8,6.5,7.2s-2.5,6.4-6.3,7.3c-1.4,0.3-3.2,2.9-3.3,4.5c-0.5,12.8-0.6,25.5-0.9,38.3
			c-0.4,20.6-0.9,41.3-1,61.9c0,3.6,1.2,7.3,2.4,10.8c1.7,5.2-1.6,12.1-7.1,14.4c-1.7,15.2-10.2,23-22.7,20.8
			c-5.6-1-10.4-7.1-10.5-13.6c-0.3-5.3,3.2-10.1,8.4-11.3c1.7-0.5,3.5-0.4,5.1,0.3c1.4,0.7,3,2.7,3,4.1c0,1.2-2.1,2.5-3.4,3.6
			s-2.8,2.1-4.2,3.2c1.8,1.3,3.5,3.6,5.4,3.8c3.9,0.4,6.8-1.9,7.8-6.4c1.1-4.9-1.1-10.1-5.1-11.7c-1.8-0.8-3.9-1.6-5.7-1.3
			c-13.2,2.6-23.7-5.1-34-11.7c-27.3-17.6-46.5-43.3-55.8-77c-3.4-12.2-3.6-25.4-5.4-38.2c-0.4-2.8-1.2-5.5-1.9-8.2L10.8,26.8z
			 M103.8,148c-23-36.7-45.7-73-69.2-110.5C29.5,93.4,69.8,137.4,103.8,148L103.8,148z M43.6,36c21.4,34.1,42.2,67.4,63,100.7
			c2.1-8.9,6.8-17.1-0.3-25.6c-4.6-5.6-7.9-12.5-11.8-18.8C83.4,74.5,72.2,56.7,61,38.8c-0.9-1.5-2.5-3.3-3.9-3.4
			C53,35.2,48.8,35.7,43.6,36z M67.4,33.3l45.2,72c1.2-8,2.2-14.1,2.9-20.3c0-1.3-0.3-2.7-1.1-3.8c-10.3-16.6-20.8-33.1-31.2-49.6
			c-1-1.3-2.6-2.1-4.2-2C75.4,30.4,71.9,31.8,67.4,33.3L67.4,33.3z M89,25.1l27.4,43.6c0.5-0.1,1-0.2,1.4-0.3
			c1.1-7.8,2.1-15.7,3.2-23.5c0.5-3.4,0.2-5.7-3.5-7c-1.7-0.6-3.6-4.1-3.5-6.2s2.3-4.5,4-5.9c1.4-1.1,3.6-0.9,5.3-1.2
			c1.6-11-0.6-13.5-9.5-10.2C105.5,17.3,97.5,21.3,89,25.1z"/>
		<line style="fill:none;" x1="130.3" y1="26.5" x2="126.7" y2="148.1"/>
		
			<line style="fill:none;stroke:#000000;stroke-width:1.76;stroke-linecap:round;stroke-linejoin:round;" x1="130.3" y1="26.5" x2="126.7" y2="148.1"/>
		<path style="fill:none;stroke:#000000;stroke-width:1.76;stroke-linecap:round;stroke-linejoin:round;" d="M22.9,36.7
			c0,0,0,45,22,76.2S98,154.3,98,154.3"/>
		<path style="fill:none;stroke:#000000;stroke-width:1.76;stroke-linecap:round;stroke-linejoin:round;" d="M28,16.5
			c9.4,4.2,19.6,6.3,29.9,6.1c21.5-0.3,27.6-4.3,27.6-4.3"/>
		
			<line style="fill:none;stroke:#000000;stroke-width:1.76;stroke-linecap:round;stroke-linejoin:round;" x1="119.5" y1="106.2" x2="114.7" y2="147.1"/>
		<path style="fill:none;stroke:#000000;stroke-width:1.76;stroke-linecap:round;stroke-linejoin:round;" d="M108.3,156.1
			c0,0,8.8-0.7,13.3,4.4c5.9,6.6,3.1,13,3.1,13"/>
	</g>
</g>
</svg>
