<?xml version="1.0" encoding="utf-8"?>
<!-- Generator: Adobe Illustrator 23.0.2, SVG Export Plug-In . SVG Version: 6.00 Build 0)  -->
<svg version="1.1" id="Réteg_1" xmlns="http://www.w3.org/2000/svg" xmlns:xlink="http://www.w3.org/1999/xlink" x="0px" y="0px"
	 viewBox="0 0 192.1 298" style="enable-background:new 0 0 192.1 298;" xml:space="preserve">
<title>cimerkep_27</title>
<g>
	<g>
		<path style="fill-rule:evenodd;clip-rule:evenodd;fill:#CCCCCC;" d="M149.1,180.3c0,0,9.6,1.4,13.8,6.3s3,10.6,4.3,14
			s5.5,5.1,5.5,5.1s-2.4,2-3,1.8l-0.6-0.2c0,0-0.2,4.5,3.5,6.7s7.1,7.9,6.9,14.6s-2,15.9,1.6,18.1s7.9,0.4,7.9,0.4s0.6,2.9-3.5,4.1
			l-4.1,1.2c0,0-0.6,2.8,1.2,3.3l1.8,0.6c0,0-1,2.4-3.1,2.6L179,259c0,0-0.2,3,4.5,5.1s7.7,1.4,7.7,1.4s-8.5,4.3-16.5,0.4
			s-10.6-9.4-10.8-13.6s0.6-8.3-2.4-11.8s-6.1-9.4-2.8-16.9s0-9.6-1-15.3s0.8-6.3-0.8-11.4s-7.3-5.1-7.3-5.1L149.1,180.3z"/>
		<path style="fill:none;stroke:#000000;stroke-width:1.76;stroke-linecap:round;stroke-linejoin:round;" d="M149.1,180.3
			c0,0,9.6,1.4,13.8,6.3s3,10.6,4.3,14s5.5,5.1,5.5,5.1s-2.4,2-3,1.8l-0.6-0.2c0,0-0.2,4.5,3.5,6.7s7.1,7.9,6.9,14.6
			s-2,15.9,1.6,18.1s7.9,0.4,7.9,0.4s0.6,2.9-3.5,4.1l-4.1,1.2c0,0-0.6,2.8,1.2,3.3l1.8,0.6c0,0-1,2.4-3.1,2.6L179,259
			c0,0-0.2,3,4.5,5.1s7.7,1.4,7.7,1.4s-8.5,4.3-16.5,0.4s-10.6-9.4-10.8-13.6s0.6-8.3-2.4-11.8s-6.1-9.4-2.8-16.9s0-9.6-1-15.3
			s0.8-6.3-0.8-11.4s-7.3-5.1-7.3-5.1L149.1,180.3z"/>
		<path style="fill-rule:evenodd;clip-rule:evenodd;fill:#B3B3B3;" d="M57,22.1c-1.8,0.6-3.4,1.8-4.5,3.3c-1.5,2.2-2.5,4.7-3,7.3
			l-4.1-1.6c0.4-4.1,1.9-8.1,4.3-11.4c4.1-5.7,9.2-5.7,9.2-5.7L57,22.1z"/>
		<path style="fill:none;stroke:#000000;stroke-width:1.76;stroke-linecap:round;stroke-linejoin:round;" d="M57,22.1
			c-1.8,0.6-3.4,1.8-4.5,3.3c-1.5,2.2-2.5,4.7-3,7.3l-4.1-1.6c0.4-4.1,1.9-8.1,4.3-11.4c4.1-5.7,9.2-5.7,9.2-5.7L57,22.1z"/>
		<path style="fill-rule:evenodd;clip-rule:evenodd;fill:#A67C52;" d="M61.4,9c-0.4,1.5-0.9,3-1.6,4.5c-0.8,1.3-5,3.7-3.9,6.6
			s6.8,7.1,11.5,7.9s2.9,3.7,8.1,6.6c3.8,2,7.8,3.9,11.8,5.5c0,0-11.3,9.2-16.5,14.7s-6.5,14.7-14.7,19.1S39.9,84.2,39.9,88.7
			s0.5,15.7,0.5,15.7S31,111.5,26,111s-14.1-3.1-17.3-0.8s-7.9,8.7-7.9,10s4.4,8.6,4.4,8.6v17.6c0,5.3,9.4,16.3,9.4,18.1
			s-0.3,3.5,0.7,6.1s1.6,2.6,1.6,2.6s5-4.9,7.1-9.6s1.2-7.5,1.2-7.5s-6.1-6-6.9-7.5s-1.3-14.9-0.5-18.1s5.5-6,9.2-6
			s20.2,2.6,20.2,2.6c3.7,9.9,9.1,19,16,27C74.8,167.3,90,183.8,90,183.8s2.4,5.8,0.3,7.1s-4.7,9.7-3.4,15.2s10,35.4,9.7,38.3
			s-2.1,10.8-3.4,12.1c-1.3,1.3-15.5,17.3-15.5,17.3l-9.9,1c-1.9,1.2-3.4,2.8-4.5,4.7c-1.1,1.8-1.6,3.8-1.6,5.9h13.4
			c5.5,0,7.9-1.9,9.4-4s16.8-23.6,22.3-27.8s6.6-6.6,6-9.2s-5.8-2.9-5.8-10.8s-0.3-10.2-0.3-10.2s4.2-1.3,6.6-3.9s4.2-5,4.2-5
			s7.6,13.4,13.9,19.1c6.3,5.8,4.7,11,4.4,12.8s-13.4,21.7-13.6,23.1s-1.3,14.7-0.3,16.8c0.9,1.9,2,3.6,3.4,5.1
			c0.9,1.3,2.1,2.4,3.3,3.3c0,0,8-6.9,7.5-12.4s-3-4.2-2.2-7.6s0.5-9.7,2.6-11.3s15.5-22.8,15.5-25.2s-4.2-2.9-6.6-5.5
			s-5.8-7.1-6.6-10s0.5-9.4,0.5-9.4c5.3-4.8,9.1-10.9,11-17.8c3.1-11.5-0.8-27-5.8-35.4s-18.1-20.7-22.8-25.9s-13.4-11-14.4-23.1
			s4.4-30.1,7.1-40.6s11-33.5,7.1-46.7S107.8,4.8,104.1,4.8S87.4,5.6,80.3,8s-11.5,3.1-13.1,2.1S61.4,9,61.4,9"/>
		<path style="fill:none;stroke:#000000;stroke-width:1.76;stroke-linecap:round;stroke-linejoin:round;" d="M61.4,9
			c-0.4,1.5-0.9,3-1.6,4.5c-0.8,1.3-5,3.7-3.9,6.6s6.8,7.1,11.5,7.9s2.9,3.7,8.1,6.6c3.8,2,7.8,3.9,11.8,5.5c0,0-11.3,9.2-16.5,14.7
			s-6.5,14.7-14.7,19.1S39.9,84.2,39.9,88.7s0.5,15.7,0.5,15.7S31,111.5,26,111s-14.1-3.1-17.3-0.8s-7.9,8.7-7.9,10s4.4,8.6,4.4,8.6
			v17.6c0,5.3,9.4,16.3,9.4,18.1s-0.3,3.5,0.7,6.1s1.6,2.6,1.6,2.6s5-4.9,7.1-9.6s1.2-7.5,1.2-7.5s-6.1-6-6.9-7.5
			s-1.3-14.9-0.5-18.1s5.5-6,9.2-6s20.2,2.6,20.2,2.6c3.7,9.9,9.1,19,16,27C74.8,167.3,90,183.8,90,183.8s2.4,5.8,0.3,7.1
			s-4.7,9.7-3.4,15.2s10,35.4,9.7,38.3s-2.1,10.8-3.4,12.1c-1.3,1.3-15.5,17.3-15.5,17.3l-9.9,1c-1.9,1.2-3.4,2.8-4.5,4.7
			c-1.1,1.8-1.6,3.8-1.6,5.9h13.4c5.5,0,7.9-1.9,9.4-4s16.8-23.6,22.3-27.8s6.6-6.6,6-9.2s-5.8-2.9-5.8-10.8s-0.3-10.2-0.3-10.2
			s4.2-1.3,6.6-3.9s4.2-5,4.2-5s7.6,13.4,13.9,19.1c6.3,5.8,4.7,11,4.4,12.8s-13.4,21.7-13.6,23.1s-1.3,14.7-0.3,16.8
			c0.9,1.9,2,3.6,3.4,5.1c0.9,1.3,2.1,2.4,3.3,3.3c0,0,8-6.9,7.5-12.4s-3-4.2-2.2-7.6s0.5-9.7,2.6-11.3s15.5-22.8,15.5-25.2
			s-4.2-2.9-6.6-5.5s-5.8-7.1-6.6-10s0.5-9.4,0.5-9.4c5.3-4.8,9.1-10.9,11-17.8c3.1-11.5-0.8-27-5.8-35.4s-18.1-20.7-22.8-25.9
			s-13.4-11-14.4-23.1s4.4-30.1,7.1-40.6s11-33.5,7.1-46.7S107.8,4.8,104.1,4.8S87.4,5.6,80.3,8s-11.5,3.1-13.1,2.1S61.4,9,61.4,9z"
			/>
		<path style="fill-rule:evenodd;clip-rule:evenodd;fill:#CCCCCC;" d="M109.1,2.2c3.1,1.3,6.5,1.5,9.7,0.8c0,0-1,3.4-2.1,3.7l-1,0.3
			c2.3,1.1,4.8,1.6,7.3,1.6c1.9,0.1,3.8,0,5.8-0.3c-0.6,1.9-1.8,3.5-3.4,4.7c-2,1.4-2.6,1-2.6,1c1.1,3.6,2.6,7,4.5,10.3
			c2.9,5,6,4.5,6,4.5c-0.9,1.5-2.5,2.5-4.2,2.9l-2.9,0.5c1.2,2.6,2.2,5.2,3.1,7.9c1.3,3.9,3.9,16,7.3,17.3l3.4,1.3
			c0,0,0.5,2.1-3.1,2.4c-2.3,0.1-4.6-0.2-6.8-1c0,0,1.6,1.3,0.8,5.8s-3.1,10.5,0.8,15.2s6,14.4,3.9,21.2s-3.1,12.6,0.5,13.9
			s5,0.5,5,0.5s-5.2,6.3-11.5,3.1s-8.7-10-7.6-14.7s-3.7-8.6-3.7-8.6c0.9,2.6,0.4,5.5-1.3,7.6c-2.9,3.4,2.1,10.7,2.1,10.7
			c-2.3-0.3-4.5-1.2-6.3-2.6c-2.9-2.4-4.5-8.7-4.5-8.7s-1.6-8.1-1-11s1.4-3.4,1.4-3.4s-5,1.3-6.9,4.7c-1.1,2.2-1.7,4.6-1.8,7.1
			c0,0-5-5.5-3.4-9.4s6.6-7.9,6.6-7.9s-2.9,1-5-2.1S97.6,78,97.6,78s4.2,3.2,5.8,0.3s-2.4-9.4,0.3-13.6s0.5-12.3,5.5-18.6
			s10.2-11,8.9-16s-6-4.7-6-11.8s-2.2-9.9-5-11.5c-2.5-1.4-5.3-2.1-8.1-1.9c0,0,2.4-3.9,5-3.9C105.7,1,107.5,1.4,109.1,2.2"/>
		<path style="fill:none;stroke:#000000;stroke-width:1.76;stroke-linecap:round;stroke-linejoin:round;" d="M109.1,2.2
			c3.1,1.3,6.5,1.5,9.7,0.8c0,0-1,3.4-2.1,3.7l-1,0.3c2.3,1.1,4.8,1.6,7.3,1.6c1.9,0.1,3.8,0,5.8-0.3c-0.6,1.9-1.8,3.5-3.4,4.7
			c-2,1.4-2.6,1-2.6,1c1.1,3.6,2.6,7,4.5,10.3c2.9,5,6,4.5,6,4.5c-0.9,1.5-2.5,2.5-4.2,2.9l-2.9,0.5c1.2,2.6,2.2,5.2,3.1,7.9
			c1.3,3.9,3.9,16,7.3,17.3l3.4,1.3c0,0,0.5,2.1-3.1,2.4c-2.3,0.1-4.6-0.2-6.8-1c0,0,1.6,1.3,0.8,5.8s-3.1,10.5,0.8,15.2
			s6,14.4,3.9,21.2s-3.1,12.6,0.5,13.9s5,0.5,5,0.5s-5.2,6.3-11.5,3.1s-8.7-10-7.6-14.7s-3.7-8.6-3.7-8.6c0.9,2.6,0.4,5.5-1.3,7.6
			c-2.9,3.4,2.1,10.7,2.1,10.7c-2.3-0.3-4.5-1.2-6.3-2.6c-2.9-2.4-4.5-8.7-4.5-8.7s-1.6-8.1-1-11s1.4-3.4,1.4-3.4s-5,1.3-6.9,4.7
			c-1.1,2.2-1.7,4.6-1.8,7.1c0,0-5-5.5-3.4-9.4s6.6-7.9,6.6-7.9s-2.9,1-5-2.1S97.6,78,97.6,78s4.2,3.2,5.8,0.3s-2.4-9.4,0.3-13.6
			s0.5-12.3,5.5-18.6s10.2-11,8.9-16s-6-4.7-6-11.8s-2.2-9.9-5-11.5c-2.5-1.4-5.3-2.1-8.1-1.9c0,0,2.4-3.9,5-3.9
			C105.7,1,107.5,1.4,109.1,2.2z"/>
		<path style="fill-rule:evenodd;clip-rule:evenodd;fill:#B3B3B3;" d="M62.3,20.7c1.8,0.6,3.2,2.1,3.7,3.9
			c1.4,5.1-6.1,11.6-8.7,13.4l3.4,4c0,0,9-6.3,10.6-11.8s-0.5-9.2-1.8-10.4c-1-0.9-2.1-1.6-3.2-2.3L62.3,20.7z"/>
		<path style="fill:none;stroke:#000000;stroke-width:1.76;stroke-linecap:round;stroke-linejoin:round;" d="M62.3,20.7
			c1.8,0.6,3.2,2.1,3.7,3.9c1.4,5.1-6.1,11.6-8.7,13.4l3.4,4c0,0,9-6.3,10.6-11.8s-0.5-9.2-1.8-10.4c-1-0.9-2.1-1.6-3.2-2.3
			L62.3,20.7z"/>
		<path style="fill-rule:evenodd;clip-rule:evenodd;fill:#B3B3B3;" d="M89.2,11.3c2.1-0.8,4.4-1.1,6.6-1c3.9,0.1,6.5,5.1,6.5,5.1
			c-2.1,1.3-4.6,1.8-7,1.3C91.3,15.8,89.3,11.2,89.2,11.3"/>
		<path style="fill:none;stroke:#000000;stroke-width:1.76;stroke-linecap:round;stroke-linejoin:round;" d="M89.2,11.3
			c2.1-0.8,4.4-1.1,6.6-1c3.9,0.1,6.5,5.1,6.5,5.1c-2.1,1.3-4.6,1.8-7,1.3C91.3,15.8,89.2,11.3,89.2,11.3z"/>
		<path style="fill-rule:evenodd;clip-rule:evenodd;fill:#B3B3B3;" d="M87.4,39.9c0,0,1,1,6.3,0.3s6.7-1.6,6.7-1.6"/>
		<path style="fill:none;stroke:#000000;stroke-width:1.76;stroke-linecap:round;stroke-linejoin:round;" d="M87.4,39.9
			c0,0,1,1,6.3,0.3s6.7-1.6,6.7-1.6"/>
		<path style="fill:none;stroke:#000000;stroke-width:1.76;stroke-linecap:round;stroke-linejoin:round;" d="M86.8,47.9
			c0,0-10.2,7.9-13,12.4s-3.2,7.7-6.1,11"/>
		<path style="fill:none;stroke:#000000;stroke-width:1.76;stroke-linecap:round;stroke-linejoin:round;" d="M5.3,128.8
			c0.9-2.9,1.3-8.4,7.4-12.1s14.9-2.8,14.9-2.8c6.3-0.6,16.7-2.6,18.5-5.1c1-1.5,2.3-2.7,3.7-3.7c-0.4-2.5-0.6-5-0.6-7.5
			c0.2-3,0.4-5.5,0.4-5.5"/>
		
			<line style="fill:none;stroke:#000000;stroke-width:1.76;stroke-linecap:round;stroke-linejoin:round;" x1="40.5" y1="104.4" x2="42" y2="111.2"/>
		<path style="fill:none;stroke:#000000;stroke-width:1.76;stroke-linecap:round;stroke-linejoin:round;" d="M47.3,126.9
			c0,0,7.5-0.3,9.7,1.9c2.2,2.2,8.8,0.6,11-2.4c1.8-2.2,3.9-4.3,6.1-6.1"/>
		<path style="fill:none;stroke:#000000;stroke-width:1.76;stroke-linecap:round;stroke-linejoin:round;" d="M56.4,135.7
			c0,0,6.7,11.6,11.4,16.9s8.1,8.9,8.1,8.9"/>
		<path style="fill:none;stroke:#000000;stroke-width:1.76;stroke-linecap:round;stroke-linejoin:round;" d="M90.6,161.3
			c3.3,0.8,11.8,0.4,16.9,5.1s16.5-0.6,16.5-0.6"/>
		<path style="fill:none;stroke:#000000;stroke-width:1.76;stroke-linecap:round;stroke-linejoin:round;" d="M123.4,181.1
			c0,0,3.3-4.7,6.7-7.1c1.8-1.3,3.8-2.4,5.9-3"/>
		<path style="fill:none;stroke:#000000;stroke-width:1.76;stroke-linecap:round;stroke-linejoin:round;" d="M90,183.8
			c0,0,4.9,4.2,5.5,7.3s-4.3,5.1-0.4,8.1s6.3,0,7.9,4.5s7,1.6,7,1.6"/>
		<path style="fill:none;stroke:#000000;stroke-width:1.76;stroke-linecap:round;stroke-linejoin:round;" d="M108.9,182.5
			c0,0,4.1,4.9,1.6,9.2s-3.5,7.7-1.8,9.6s2.4,4.5,4.5,7.5s4.3,5.6,4.3,5.6"/>
		<path style="fill-rule:evenodd;clip-rule:evenodd;" d="M13.7,163.2c-0.6,2-0.9,4-0.8,6.1c0.2,3.1,2.8,6.5,2.8,6.5
			c4.2-2,7.5-5.5,9.2-9.8c2.6-7.1,0.6-9,0.6-9s-1.4,7-5.5,7.6S13.7,163.2,13.7,163.2"/>
		<path style="fill:none;stroke:#000000;stroke-width:1.76;stroke-linecap:round;stroke-linejoin:round;" d="M13.7,163.2
			c-0.6,2-0.9,4-0.8,6.1c0.2,3.1,2.8,6.5,2.8,6.5c4.2-2,7.5-5.5,9.2-9.8c2.6-7.1,0.6-9,0.6-9s-1.4,7-5.5,7.6S13.7,163.2,13.7,163.2z
			"/>
		<path style="fill-rule:evenodd;clip-rule:evenodd;" d="M68.6,274.9c0.1,2.1,0.9,4.2,2.2,5.9c2.2,2.8,7.3,4.5,7.3,4.5
			c-4.1,0.8-8.4,1.2-12.6,1.2c-5.5-0.2-6.3-0.8-6.3-0.8s0-5.7,3-8.6C63.8,275.3,66.2,274.5,68.6,274.9"/>
		<path style="fill:none;stroke:#000000;stroke-width:1.76;stroke-linecap:round;stroke-linejoin:round;" d="M68.6,274.9
			c0.1,2.1,0.9,4.2,2.2,5.9c2.2,2.8,7.3,4.5,7.3,4.5c-4.1,0.8-8.4,1.2-12.6,1.2c-5.5-0.2-6.3-0.8-6.3-0.8s0-5.7,3-8.6
			C63.8,275.3,66.2,274.5,68.6,274.9z"/>
		<path style="fill-rule:evenodd;clip-rule:evenodd;" d="M122,286.3c0.4,2,1.1,4,2,5.9c1.6,3.1,2.4,4.9,2.4,4.9
			c3.3-1.9,6-4.6,7.9-7.9c2.9-5.3,2-7.9,1.8-9s-2.2-3.5-2.2-3.5s-0.4,5.7-4.3,7.7C127.2,285.6,124.6,286.2,122,286.3"/>
		<path style="fill:none;stroke:#000000;stroke-width:1.76;stroke-linecap:round;stroke-linejoin:round;" d="M122,286.3
			c0.4,2,1.1,4,2,5.9c1.6,3.1,2.4,4.9,2.4,4.9c3.3-1.9,6-4.6,7.9-7.9c2.9-5.3,2-7.9,1.8-9s-2.2-3.5-2.2-3.5s-0.4,5.7-4.3,7.7
			C127.2,285.5,124.6,286.2,122,286.3z"/>
		<path style="fill:none;stroke:#000000;stroke-width:1.76;stroke-linecap:round;stroke-linejoin:round;" d="M59.3,93.8
			c1.7-1.6,3.6-3,5.7-4.1c3.9-2.4,6.3-2,7.3-3.3c0.9-1.6,1.7-3.3,2.4-5.1"/>
		<path style="fill:none;stroke:#000000;stroke-width:1.76;stroke-linecap:round;stroke-linejoin:round;" d="M59.8,13.5
			c0,0,0.1,2.7,2.4,3.4c1.3,0.4,2.7,0.6,4.1,0.6"/>
		<path style="fill:none;stroke:#000000;stroke-width:1.76;stroke-linecap:round;stroke-linejoin:round;" d="M58.9,14.1
			c0,0-0.5,3.3,0.7,4.7c0.8,0.8,1.7,1.5,2.7,2"/>
		<path style="fill:none;stroke:#000000;stroke-width:1.76;stroke-linecap:round;stroke-linejoin:round;" d="M98.1,12.4
			c0.3,1.1-0.4,2.2-1.5,2.4c-1.1,0.3-2.2-0.4-2.4-1.5c0-0.1-0.1-0.3-0.1-0.4c-0.3-1.1,0.4-2.2,1.5-2.4s2.2,0.4,2.4,1.5
			C98.1,12.2,98.1,12.3,98.1,12.4L98.1,12.4z"/>
		<path style="fill:none;stroke:#000000;stroke-width:1.76;stroke-linecap:round;stroke-linejoin:round;" d="M61.2,11.4
			c0,0,2.6,3.5,4.2,2.5s0.1-4.2,0.1-4.2"/>
		<path style="fill:none;stroke:#000000;stroke-width:1.76;stroke-linecap:round;stroke-linejoin:round;" d="M84.3,152.6
			c2.1,2.3,5.1,3.7,8.3,3.7c3.6,0.1,7.1,0.8,10.4,2"/>
		<path style="fill-rule:evenodd;clip-rule:evenodd;fill:#B3B3B3;" d="M69.7,22.8c0,0.8-0.6,1.5-1.4,1.5c-0.8,0-1.5-0.6-1.5-1.4
			c0-0.8,0.6-1.5,1.4-1.5c0,0,0,0,0,0C69,21.3,69.7,22,69.7,22.8C69.7,22.8,69.7,22.8,69.7,22.8"/>
		<path style="fill:none;stroke:#000000;stroke-width:1.76;stroke-linecap:round;stroke-linejoin:round;" d="M69.7,22.8
			c0,0.8-0.6,1.5-1.4,1.5c-0.8,0-1.5-0.6-1.5-1.4c0-0.8,0.6-1.5,1.4-1.5c0,0,0,0,0,0C69,21.3,69.7,22,69.7,22.8
			C69.7,22.8,69.7,22.8,69.7,22.8z"/>
		<path style="fill-rule:evenodd;clip-rule:evenodd;fill:#B3B3B3;" d="M69.4,30.4c0,0.8-0.6,1.4-1.4,1.4c-0.8,0-1.4-0.6-1.4-1.4
			c0-0.8,0.6-1.4,1.4-1.4c0,0,0,0,0,0C68.8,28.9,69.4,29.6,69.4,30.4C69.4,30.3,69.4,30.4,69.4,30.4"/>
		<path style="fill:none;stroke:#000000;stroke-width:1.76;stroke-linecap:round;stroke-linejoin:round;" d="M69.4,30.4
			c0,0.8-0.6,1.4-1.4,1.4c-0.8,0-1.4-0.6-1.4-1.4c0-0.8,0.6-1.4,1.4-1.4c0,0,0,0,0,0C68.8,28.9,69.4,29.6,69.4,30.4z"/>
		<path style="fill-rule:evenodd;clip-rule:evenodd;fill:#B3B3B3;" d="M64.6,36.4c0,0.8-0.6,1.5-1.4,1.5c-0.8,0-1.5-0.6-1.5-1.4
			c0-0.8,0.6-1.5,1.4-1.5c0,0,0,0,0,0C63.9,35,64.6,35.6,64.6,36.4C64.6,36.4,64.6,36.4,64.6,36.4"/>
		<path style="fill:none;stroke:#000000;stroke-width:1.76;stroke-linecap:round;stroke-linejoin:round;" d="M64.6,36.4
			c0,0.8-0.6,1.5-1.4,1.5c-0.8,0-1.5-0.6-1.5-1.4c0-0.8,0.6-1.5,1.4-1.5c0,0,0,0,0,0C63.9,35,64.5,35.6,64.6,36.4z"/>
		<path style="fill-rule:evenodd;clip-rule:evenodd;fill:#B3B3B3;" d="M50,27.4c0,0.8-0.6,1.4-1.4,1.4c-0.8,0-1.4-0.6-1.4-1.4
			c0-0.8,0.6-1.4,1.4-1.4l0,0C49.4,25.9,50,26.6,50,27.4"/>
		<path style="fill:none;stroke:#000000;stroke-width:1.76;stroke-linecap:round;stroke-linejoin:round;" d="M50,27.4
			c0,0.8-0.6,1.4-1.4,1.4c-0.8,0-1.4-0.6-1.4-1.4c0-0.8,0.6-1.4,1.4-1.4l0,0C49.4,25.9,50,26.6,50,27.4z"/>
		<path style="fill-rule:evenodd;clip-rule:evenodd;fill:#B3B3B3;" d="M53.8,21.3c0,0.8-0.6,1.4-1.4,1.4c-0.8,0-1.4-0.6-1.4-1.4
			c0-0.8,0.6-1.4,1.4-1.4l0,0C53.2,19.9,53.8,20.5,53.8,21.3"/>
		<path style="fill:none;stroke:#000000;stroke-width:1.76;stroke-linecap:round;stroke-linejoin:round;" d="M53.8,21.3
			c0,0.8-0.6,1.4-1.4,1.4c-0.8,0-1.4-0.6-1.4-1.4c0-0.8,0.6-1.4,1.4-1.4l0,0C53.2,19.9,53.8,20.5,53.8,21.3z"/>
		<path style="fill-rule:evenodd;clip-rule:evenodd;fill:#B3B3B3;" d="M93.7,187.4c1.4,2,3.2,3.7,5.3,4.9c3.1,1.6,4.9,1.2,4.9,1.2"
			/>
		<path style="fill:none;stroke:#000000;stroke-width:1.76;stroke-linecap:round;stroke-linejoin:round;" d="M93.7,187.4
			c1.4,2,3.2,3.7,5.3,4.9c3.1,1.6,4.9,1.2,4.9,1.2"/>
		<path style="fill:none;stroke:#000000;stroke-width:1.76;stroke-linecap:round;stroke-linejoin:round;" d="M152.3,184.9
			c0,0,6.1,1.6,8.6,6.3s1.2,8.4,2.9,11.4"/>
		<path style="fill:none;stroke:#000000;stroke-width:1.76;stroke-linecap:round;stroke-linejoin:round;" d="M152.3,188.6
			c0,0,1.8-0.8,4.9,3.1"/>
		<path style="fill:none;stroke:#000000;stroke-width:1.76;stroke-linecap:round;stroke-linejoin:round;" d="M162.7,211.8
			c1.4,2.9,2,6.2,1.6,9.4c-0.8,4.9-2.9,6.5-1.8,11s4.9,5.5,5.9,10.2s-0.2,5.7,0.2,8.9"/>
		<path style="fill:none;stroke:#000000;stroke-width:1.76;stroke-linecap:round;stroke-linejoin:round;" d="M181.4,252.3
			c0,0-3.9,0.8-6.1-4.1s-1.4-8.3-1.4-11.6"/>
		<path style="fill:none;stroke:#000000;stroke-width:1.76;stroke-linecap:round;stroke-linejoin:round;" d="M169.8,218.1
			c0,0,2.8,1.6,3.3,6.1s0.4,5.7,0.4,5.7"/>
		<path style="fill-rule:evenodd;clip-rule:evenodd;fill:#0039A6;" d="M122.8,14c0,0-3.5,0.9-6-1.1"/>
		<path style="fill:none;stroke:#000000;stroke-width:1.76;stroke-linecap:round;stroke-linejoin:round;" d="M122.8,14
			c0,0-3.5,0.9-6-1.1"/>
		<path style="fill:none;stroke:#000000;stroke-width:1.76;stroke-linecap:round;stroke-linejoin:round;" d="M130.7,59.8
			c-2.6-0.6-4.7-2.5-5.7-4.9c-2-4.3-1.4-7.3-2.9-10.6"/>
		<path style="fill:none;stroke:#000000;stroke-width:1.76;stroke-linecap:round;stroke-linejoin:round;" d="M107.9,89.5
			c6.7-2.4,7.9-10.2,7.7-15.7c-0.2-3.9,0-7.8,0.7-11.6"/>
		<path style="fill:none;stroke:#000000;stroke-width:1.76;stroke-linecap:round;stroke-linejoin:round;" d="M103.1,83.4
			c2.7-0.5,5.1-2.3,6.2-4.9c2.2-4.5-2-6.7,0-11.6"/>
		<path style="fill:none;stroke:#000000;stroke-width:1.76;stroke-linecap:round;stroke-linejoin:round;" d="M124.2,72
			c0,0-2.6,5.5,1.6,11.8s5.7,9.4,4.9,14.9s-1.6,7.3-1.6,7.3"/>
		<path style="fill:none;stroke:#000000;stroke-width:1.76;stroke-linecap:round;stroke-linejoin:round;" d="M80.6,30.8
			c0,0,4.7,5,10.2,4.4c3.8-0.4,7.4-1.3,11-2.6"/>
		<path style="fill:none;stroke:#000000;stroke-width:1.76;stroke-linecap:round;stroke-linejoin:round;" d="M73.5,14
			c3-0.3,5.9-1.1,8.6-2.4"/>
		<path style="fill:none;stroke:#000000;stroke-width:1.76;stroke-linecap:round;stroke-linejoin:round;" d="M103.1,108.3
			c-0.9,5.9,0.5,11.9,3.9,16.8c5.8,7.9,10.8,11.8,16.3,17.3"/>
		<path style="fill:none;stroke:#000000;stroke-width:1.76;stroke-linecap:round;stroke-linejoin:round;" d="M25.1,117.6
			c0,0-7.1,0.4-11.8,5.1s-2.8,12.6-2.8,12.6"/>
		<path style="fill:none;stroke:#000000;stroke-width:1.76;stroke-linecap:round;stroke-linejoin:round;" d="M98.4,231.3
			c0,0,3.9,10.5,3.4,14.4c-0.5,2.9-1.5,5.8-2.9,8.4"/>
		<path style="fill:none;stroke:#000000;stroke-width:1.76;stroke-linecap:round;stroke-linejoin:round;" d="M132.7,227.3
			c0,0,8.4,7.9,8.4,13.4c0,3.2-0.8,6.4-2.4,9.2"/>
	</g>
</g>
</svg>
