<?xml version="1.0" encoding="utf-8"?>
<!-- Generator: Adobe Illustrator 23.0.2, SVG Export Plug-In . SVG Version: 6.00 Build 0)  -->
<svg version="1.1" id="Réteg_1" xmlns="http://www.w3.org/2000/svg" xmlns:xlink="http://www.w3.org/1999/xlink" x="0px" y="0px"
	 viewBox="0 0 179.5 228.4" style="enable-background:new 0 0 179.5 228.4;" xml:space="preserve">
<title>cimerkep_32</title>
<g>
	<g>
		<path style="fill:#DC281E;" d="M82.5,57.7C60,59.2,36.4,51.6,10.4,91S18,200.9,39.5,213.2S68.7,230,84,224.9s18.4,9.7,40.9-2.1
			s58.8-50.1,52.2-108.4s-56.3-62.4-67.5-62.4S82.5,57.7,82.5,57.7"/>
		<path style="fill:none;stroke:#000000;stroke-width:1.76;stroke-linecap:round;stroke-linejoin:round;" d="M82.5,57.7
			C60,59.2,36.4,51.6,10.4,91S18,200.9,39.5,213.2S68.7,230,84,224.9s18.4,9.7,40.9-2.1s58.8-50.1,52.2-108.4s-56.3-62.4-67.5-62.4
			S82.5,57.7,82.5,57.7z"/>
		<path style="fill:#009A3D;" d="M61.5,10.7c1.3,9.3,3.7,18.4,7.2,27.1c5.6,13.8,9.7,18.9,10.7,25s0.5,7.7,0.5,7.7l7.2,1.6
			c0,0-1.1-10-1.5-11.8c-0.8-3.3-4.1-10-4.1-10s7.3-17.9,12.3-24.8c2.6-3.6,5-8.3,14.8,1.5c6.7,6.7,14.3,12.3,28.1,12.3
			s13.3,11.3,20.5,13.3s7.2,10.7,12.8,14.8s8.7,3.6,8.7,3.6c-3.9-7.8-6.4-16.3-7.1-25c-1-13.8,1.5-24.5-10.2-32.2S138.2-2.1,128,2
			s-12.8,10.2-12.8,10.2c-5-1.8-10.5-1.6-15.3,0.5c-8.2,3.6-19.9,31.2-19.9,31.2s-9.2-16.4-9.2-23c0.2-4.5,1.2-8.9,3.1-13
			c0,0-1.9-0.9-5.4,1.2C66.3,10.3,63.9,10.9,61.5,10.7"/>
		<path style="fill:none;stroke:#000000;stroke-width:1.76;stroke-linecap:round;stroke-linejoin:round;" d="M61.5,10.7
			c1.3,9.3,3.7,18.4,7.2,27.1c5.6,13.8,9.7,18.9,10.7,25s0.5,7.7,0.5,7.7l7.2,1.6c0,0-1.1-10-1.5-11.8c-0.8-3.3-4.1-10-4.1-10
			s7.3-17.9,12.3-24.8c2.6-3.6,5-8.3,14.8,1.5c6.7,6.7,14.3,12.3,28.1,12.3s13.3,11.3,20.5,13.3s7.2,10.7,12.8,14.8s8.7,3.6,8.7,3.6
			c-3.9-7.8-6.4-16.3-7.1-25c-1-13.8,1.5-24.5-10.2-32.2S138.2-2.1,128,2s-12.8,10.2-12.8,10.2c-5-1.8-10.5-1.6-15.3,0.5
			c-8.2,3.6-19.9,31.2-19.9,31.2s-9.2-16.4-9.2-23c0.2-4.5,1.2-8.9,3.1-13c0,0-1.9-0.9-5.4,1.2C66.3,10.3,63.9,10.9,61.5,10.7z"/>
		<path style="fill:none;stroke:#000000;stroke-width:1.76;stroke-linecap:round;stroke-linejoin:round;" d="M67.9,67.9
			c0,0,6.4,1,12,2.6s7.2,1.5,7.2,1.5s4.6-0.3,7.4-2s6.4-4.6,9.5-4.6"/>
		<path style="fill:none;stroke:#000000;stroke-width:1.76;stroke-linecap:round;stroke-linejoin:round;" d="M115.2,12.2
			c0,0,3.6,5.1,12,6.7s13-1.5,21.2,3.8s2.8,8.2,9.7,11s7.7,10.5,8.4,16.4s4.1,12,6.1,15.6c1.4,2.3,3.5,4.1,5.9,5.4"/>
		<path style="fill:none;stroke:#000000;stroke-width:1.76;stroke-linecap:round;stroke-linejoin:round;" d="M35.4,75.6
			c0,0-22,12.8-25,47s22,68.5,22,68.5"/>
		<path style="fill:none;stroke:#000000;stroke-width:1.76;stroke-linecap:round;stroke-linejoin:round;" d="M72.2,219.8
			c0,0,8.2-7.2,18.4-4.6s11.8,7.7,23,4.1s16.4-8.7,16.4-8.7"/>
		<path style="fill:none;stroke:#000000;stroke-width:1.76;stroke-linecap:round;stroke-linejoin:round;" d="M28.3,104.8
			c0,0-7.7,9.7-5.6,31.2s6.6,29.7,6.6,29.7"/>
		<path style="fill:none;stroke:#000000;stroke-width:1.76;stroke-linecap:round;stroke-linejoin:round;" d="M143.8,195.3
			c0,0,16.9-16.9,22.5-40.4s2.6-35.8,2.6-35.8"/>
		<path style="fill:none;stroke:#000000;stroke-width:1.76;stroke-linecap:round;stroke-linejoin:round;" d="M117.2,14.8
			c0,0,4.6,4.1,2.6,8.7l-2.1,4.6"/>
		<path style="fill:none;stroke:#000000;stroke-width:1.76;stroke-linecap:round;stroke-linejoin:round;" d="M138.2,33.7l-2-7.2
			c-1.1-4.2-4.7-7.2-9-7.7c0,0,7.9,0.5,10.7-3.8s3.1-6.1,5.9-6.6"/>
		<path style="fill:none;stroke:#000000;stroke-width:1.76;stroke-linecap:round;stroke-linejoin:round;" d="M150,39.6l1.8-6.1
			c1.8-6.1-4.4-11-4.4-11c1.7-2.9,4.8-4.6,8.2-4.3c5.6,0.5,6.6,1,6.6,1"/>
		<path style="fill:none;stroke:#000000;stroke-width:1.76;stroke-linecap:round;stroke-linejoin:round;" d="M158.9,49.5
			c0.5-2.2,1.4-4.2,2.8-5.9c2.3-2.8-0.5-7.9-0.5-7.9c1.7-1.1,3.9-1.1,5.6,0c3.1,1.8,4.4,7.4,4.4,7.4"/>
		<path style="fill:#DC281E;" d="M78.4,75.9c0,0,2.6,2.3,10,1.3s10.7-3.3,10.7-3.3"/>
		<path style="fill:none;stroke:#000000;stroke-width:1.76;stroke-linecap:round;stroke-linejoin:round;" d="M78.4,75.9
			c0,0,2.6,2.3,10,1.3s10.7-3.3,10.7-3.3"/>
		<path style="fill:none;stroke:#000000;stroke-width:1.76;stroke-linecap:round;stroke-linejoin:round;" d="M88.7,96.8
			c0,0,31.3,4.1,43.7-8.8c7.3-7.6,5.5-10.2,5.5-10.2"/>
		<path style="fill:none;stroke:#000000;stroke-width:1.76;stroke-linecap:round;stroke-linejoin:round;" d="M103.9,104.8
			c0,0,14.6,1.8,26.1-5.4"/>
	</g>
</g>
</svg>
