<?xml version="1.0" encoding="utf-8"?>
<!-- Generator: Adobe Illustrator 23.0.2, SVG Export Plug-In . SVG Version: 6.00 Build 0)  -->
<svg version="1.1" id="Réteg_1" xmlns="http://www.w3.org/2000/svg" xmlns:xlink="http://www.w3.org/1999/xlink" x="0px" y="0px"
	 viewBox="0 0 152.9 253.8" style="enable-background:new 0 0 152.9 253.8;" xml:space="preserve">
<title>cimerkep_16</title>
<g>
	<g>
		<path style="fill-rule:evenodd;clip-rule:evenodd;fill:#BDD1DB;" d="M104.6,5.4c0,0-13.3-2.6-18.4-1.5s-7.7-3.1-10.7,1
			s2,6.1,2,6.1c-0.8,1.6-1.4,3.4-1.6,5.2c-0.6,3.7,1,7.5,4.2,9.6c9.7,6.9,17.8,11.9,16.6,16.1s-13.4,14.2-15,13.8
			s-12.3-2.3-18.4,2.3c-5,3.9-9.7,8.2-14.1,12.6c0,0-20,3.8-23.4,7.3s-7.7,5.8-10.7,5.8s-6.5-6.9-12.3-3.1s3.8,13,8.1,15
			s10.7-4.2,15.3-3.8s13.8-1.2,13.8-1.2s-9.6,7.3-10.7,8s-8.4-4.6-11.9,1.9s8.8,11.5,11.9,13s11.5-6.9,11.5-6.9
			c2.7-0.8,0.8,4.6,5.8,12.7l5,8.1c0,0-2.7,24.2,4.2,44.1s21.5,37.6,21.5,37.6s-4.2,5-8.4,5s-14.2-2.3-15.3,3.8s8.1,7.7,13,6.9
			s7.7-6.9,12.3-5.4s8-1.9,8-1.9s-1.2,5,1.5,7.3s2.7,3.4,2.7,3.4s-4.6,4.2-8.8,4.6s-15.7,4.6-14.6,9.2s7.3,7.7,12.7,4.6
			s6.5-6.1,11.1-6.9s11.9-4.2,14.6-7.7s8.8-10,13-12.7c2.7-1.8,4.8-4.3,6.1-7.3c0,0,7.3,5,2.3,10.4s-11.9,10-15.3,18
			s2.3,12.3,2.3,12.3s-1.2-11.1,8.1-16.9s17.3-9.6,16.5-19.9s-11.9-12.7-11.9-12.7s1.2-12.6-1.8-21.4c-1.7-5-4-9.8-6.9-14.2
			c0,0-2.3-21.9-5.8-33.8s-7.3-29.5,1.9-45.6s13.8-22.6,13.8-22.6s20.7,1.5,23.4-11.9S145,26.3,145,26.3s2.7-8.1-9.2-17.6
			s-18.4-8.4-23.4-6.1C109.9,3.7,107.2,4.7,104.6,5.4"/>
		<path style="fill:none;stroke:#000000;stroke-width:1.76;stroke-linecap:round;stroke-linejoin:round;" d="M104.6,5.4
			c0,0-13.3-2.6-18.4-1.5s-7.7-3.1-10.7,1s2,6.1,2,6.1c-0.8,1.6-1.4,3.4-1.6,5.2c-0.6,3.7,1,7.5,4.2,9.6
			c9.7,6.9,17.8,11.9,16.6,16.1s-13.4,14.2-15,13.8s-12.3-2.3-18.4,2.3c-5,3.9-9.7,8.2-14.1,12.6c0,0-20,3.8-23.4,7.3
			s-7.7,5.8-10.7,5.8s-6.5-6.9-12.3-3.1s3.8,13,8.1,15s10.7-4.2,15.3-3.8s13.8-1.2,13.8-1.2s-9.6,7.3-10.7,8s-8.4-4.6-11.9,1.9
			s8.8,11.5,11.9,13s11.5-6.9,11.5-6.9c2.7-0.8,0.8,4.6,5.8,12.7l5,8.1c0,0-2.7,24.2,4.2,44.1s21.5,37.6,21.5,37.6s-4.2,5-8.4,5
			s-14.2-2.3-15.3,3.8s8.1,7.7,13,6.9s7.7-6.9,12.3-5.4s8-1.9,8-1.9s-1.2,5,1.5,7.3s2.7,3.4,2.7,3.4s-4.6,4.2-8.8,4.6
			s-15.7,4.6-14.6,9.2s7.3,7.7,12.7,4.6s6.5-6.1,11.1-6.9s11.9-4.2,14.6-7.7s8.8-10,13-12.7c2.7-1.8,4.8-4.3,6.1-7.3
			c0,0,7.3,5,2.3,10.4s-11.9,10-15.3,18s2.3,12.3,2.3,12.3s-1.2-11.1,8.1-16.9s17.3-9.6,16.5-19.9s-11.9-12.7-11.9-12.7
			s1.2-12.6-1.8-21.4c-1.7-5-4-9.8-6.9-14.2c0,0-2.3-21.9-5.8-33.8s-7.3-29.5,1.9-45.6s13.8-22.6,13.8-22.6s20.7,1.5,23.4-11.9
			S145,26.3,145,26.3s2.7-8.1-9.2-17.6s-18.4-8.4-23.4-6.1C109.9,3.7,107.2,4.7,104.6,5.4z"/>
		<path style="fill:none;stroke:#000000;stroke-width:1.76;stroke-linecap:round;stroke-linejoin:round;" d="M76.1,16.4
			c0,0,0.6,3.8,10.9,7.9s13.8,4.1,15.1,6.9"/>
		<path style="fill:none;stroke:#000000;stroke-width:1.76;stroke-linecap:round;stroke-linejoin:round;" d="M134,21
			c0,0,1.8,4.6-2.6,9s-20.2,15.9-19.2,24.3s15.9,11.5,15.9,11.5"/>
		<path style="fill-rule:evenodd;clip-rule:evenodd;fill:#736357;" d="M114.3,11.5c-1.2,0-2.5,3.5,1.7,4.1s2.1-4.4,0.8-4.4
			C115.9,11.3,115.1,11.4,114.3,11.5"/>
		<path style="fill:none;stroke:#000000;stroke-width:1.76;stroke-linecap:round;stroke-linejoin:round;" d="M114.3,11.5
			c-1.2,0-2.5,3.5,1.7,4.1s2.1-4.4,0.8-4.4C115.9,11.3,115.1,11.4,114.3,11.5z"/>
		<path style="fill:none;stroke:#000000;stroke-width:1.76;stroke-linecap:round;stroke-linejoin:round;" d="M39.9,90.7
			c0,0,6.9-5.5,11.8-5.5s12.3,4.6,16.9,2.8s10.7-9.7,10.7-9.7"/>
		<path style="fill:none;stroke:#000000;stroke-width:1.76;stroke-linecap:round;stroke-linejoin:round;" d="M49.1,70.8
			c-1.4,3-2,6.3-1.8,9.6l0.5,5.1"/>
		<path style="fill:none;stroke:#000000;stroke-width:1.76;stroke-linecap:round;stroke-linejoin:round;" d="M40.6,106.8
			c0,0,7.4-7.6,9.7-7.3s9.7,10.7,16.1,12.3s12.5,0.8,16.1-1.8"/>
		<path style="fill:none;stroke:#000000;stroke-width:1.76;stroke-linecap:round;stroke-linejoin:round;" d="M94.6,184.4
			c-3.7,2.9-5.7,7.5-5.4,12.3c0.5,8.2,2,11.5,0.3,14.1c-1.3,2.1-2.2,4.5-2.8,6.9"/>
		<path style="fill:none;stroke:#000000;stroke-width:1.76;stroke-linecap:round;stroke-linejoin:round;" d="M77.1,209.2
			c0,0,1.9,1.8,7,1.8h5.1"/>
		<path style="fill:none;stroke:#000000;stroke-width:1.76;stroke-linecap:round;stroke-linejoin:round;" d="M57.9,137.9
			c0,0-1.9,17.4,3.2,31.2s11.2,21.5,11.2,21.5"/>
		<path style="fill:none;stroke:#000000;stroke-width:1.76;stroke-linecap:round;stroke-linejoin:round;" d="M141.9,32.5
			c0,0,5.6,9.2,3.6,17.9l-2.1,8.7"/>
		<path style="fill:none;stroke:#000000;stroke-width:1.76;stroke-linecap:round;stroke-linejoin:round;" d="M56,75.5
			c0,0,4.6-9.2,12.3-11.8c4.6-1.5,9.5-1.9,14.3-1"/>
		<path style="fill:none;stroke:#000000;stroke-width:1.76;stroke-linecap:round;stroke-linejoin:round;" d="M90.9,228.4
			c2.4,0.9,5,1.1,7.5,0.5"/>
		<path style="fill-rule:evenodd;clip-rule:evenodd;" d="M79,3.8c-1.7-0.6-3.6,0.3-4.3,2c-0.7,2,0.3,4.2,2.3,5
			c0.3,0.1,0.5,0.2,0.8,0.2c2.4,0.2,4.9-3.4,4.6-5.3S79,3.8,79,3.8"/>
		<path style="fill:none;stroke:#000000;stroke-width:1.76;stroke-linecap:round;stroke-linejoin:round;" d="M79,3.8
			c-1.7-0.6-3.6,0.3-4.3,2c-0.7,2,0.3,4.2,2.3,5c0.3,0.1,0.5,0.2,0.8,0.2c2.4,0.2,4.9-3.4,4.6-5.3S79,3.8,79,3.8z"/>
		<path style="fill:none;stroke:#000000;stroke-width:1.76;stroke-linecap:round;stroke-linejoin:round;" d="M103.2,92.6
			c0,0-4.2,6.5-2.3,24.2s5,23.8,5,23.8"/>
		<path style="fill:none;stroke:#000000;stroke-width:1.76;stroke-linecap:round;stroke-linejoin:round;" d="M95.1,201.9
			c0,0-2.3-5.4,3.1-11.9s10-6.1,10-6.1"/>
		<path style="fill:none;stroke:#000000;stroke-width:1.76;stroke-linecap:round;stroke-linejoin:round;" d="M40.3,98.7
			c0,0,8.1-10.3,14.2-5.4s4.6,5.8,8.8,8.8"/>
		<path style="fill:none;stroke:#000000;stroke-width:1.76;stroke-linecap:round;stroke-linejoin:round;" d="M29.9,86.1
			c2.7-0.9,5.6-1.6,8.4-1.9c3.3-0.5,6.3-1.8,9-3.8"/>
		<path style="fill:none;stroke:#000000;stroke-width:1.76;stroke-linecap:round;stroke-linejoin:round;" d="M128.1,42
			c0,0-6.9,4.2-8.8,10.7s10.3,5.8,10.3,5.8"/>
	</g>
</g>
</svg>
