<?xml version="1.0" encoding="utf-8"?>
<!-- Generator: Adobe Illustrator 23.0.2, SVG Export Plug-In . SVG Version: 6.00 Build 0)  -->
<svg version="1.1" id="Réteg_1" xmlns="http://www.w3.org/2000/svg" xmlns:xlink="http://www.w3.org/1999/xlink" x="0px" y="0px"
	 viewBox="0 0 276.2 299.9" style="enable-background:new 0 0 276.2 299.9;" xml:space="preserve">
<title>cimerkep_11</title>
<g>
	<g>
		<path style="fill:#8C6239;" d="M171.6,197.9c0,0-23.8,9.7-40.1,13.4s-19.9,1.7-24.3,3.9s-19,4.9-25.1,7.5s-14.8,4.4-18.3,4.4
			s-15.3,3.6-19.2,1.7s-29.8-2.6-29.8-2.6s-2.4,0.7-3.9,4.1c-4.8,11.1,23.4,7.1,33.1,8.3s17.3-1.3,24.9-2.3s22.1-3.6,22.1-3.6
			c5.2-2.7,10.9-4.3,16.8-4.9c10-1,22.9-2.9,33.6-4.1s14.4-6.1,22.1-7.5s21.4-5.8,21.4-5.8L171.6,197.9z"/>
		<path style="fill:none;stroke:#000000;stroke-width:1.76;stroke-linecap:round;stroke-linejoin:round;" d="M171.6,197.9
			c0,0-23.8,9.7-40.1,13.4s-19.9,1.7-24.3,3.9s-19,4.9-25.1,7.5s-14.8,4.4-18.3,4.4s-15.3,3.6-19.2,1.7s-29.8-2.6-29.8-2.6
			s-2.4,0.7-3.9,4.1c-4.8,11.1,23.4,7.1,33.1,8.3s17.3-1.3,24.9-2.3s22.1-3.6,22.1-3.6c5.2-2.7,10.9-4.3,16.8-4.9
			c10-1,22.9-2.9,33.6-4.1s14.4-6.1,22.1-7.5s21.4-5.8,21.4-5.8L171.6,197.9z"/>
		<path style="fill:#666666;" d="M123.5,178.4l-30.4,31.1c0,0-14.6,4.4-17,5.6s-3.9,2-4.4,4.6s-1.5,6.1-1.5,6.1l4.9-1.2
			c0,0,1.2-4.9,2-4.9s8-2.4,11.4-2.2s4.9,6.8,4.9,6.8l-0.7,7.3c0,0,1,1.5,0.2,2.4s-3.9,2-3.9,2s5.6,0.5,6.8-2.4l1.2-3
			c0.6-2.3,1.1-4.7,1.5-7.1c0-1.5-2.4-5.6-1-8.8s32.8-32.8,32.8-32.8L123.5,178.4z"/>
		<path style="fill:none;stroke:#000000;stroke-width:1.76;stroke-linecap:round;stroke-linejoin:round;" d="M123.5,178.4
			l-30.4,31.1c0,0-14.6,4.4-17,5.6s-3.9,2-4.4,4.6s-1.5,6.1-1.5,6.1l4.9-1.2c0,0,1.2-4.9,2-4.9s8-2.4,11.4-2.2s4.9,6.8,4.9,6.8
			l-0.7,7.3c0,0,1,1.5,0.2,2.4s-3.9,2-3.9,2s5.6,0.5,6.8-2.4l1.2-3c0.6-2.3,1.1-4.7,1.5-7.1c0-1.5-2.4-5.6-1-8.8
			s32.8-32.8,32.8-32.8L123.5,178.4z"/>
		<path style="fill:#666666;" d="M154.1,178.4l-19.5,26.5c0,0-5.6,3.4-6.8,3.6s-2,4.6-2,4.6l9.7-3.2c1.3-0.7,2.8-0.7,4.1,0
			c1.9,1.2,1.5,5.8,2.7,7.3c0.6,0.7,1.2,1.4,1.7,2.2c0.1,1.2-0.4,2.3-1.2,3.2c-0.8,0.8-1.7,1.5-2.7,2c0,0,4.4,1.2,5.6-0.5
			c0.9-1.4,1.5-2.8,1.9-4.4l-2.4-7.8c-2.6-8.4-3.6-5.6-3.9-7.8s17-23.6,17-23.6L154.1,178.4z"/>
		<path style="fill:none;stroke:#000000;stroke-width:1.76;stroke-linecap:round;stroke-linejoin:round;" d="M154.1,178.4
			l-19.5,26.5c0,0-5.6,3.4-6.8,3.6s-2,4.6-2,4.6l9.7-3.2c1.3-0.7,2.8-0.7,4.1,0c1.9,1.2,1.5,5.8,2.7,7.3c0.6,0.7,1.2,1.4,1.7,2.2
			c0.1,1.2-0.4,2.3-1.2,3.2c-0.8,0.8-1.7,1.5-2.7,2c0,0,4.4,1.2,5.6-0.5c0.9-1.4,1.5-2.8,1.9-4.4l-2.4-7.8c-2.6-8.4-3.6-5.6-3.9-7.8
			s17-23.6,17-23.6L154.1,178.4z"/>
		<path style="fill:#1A1A1A;" d="M112.8,158.7c-0.7,2.9-0.4,6,0.7,8.8c2,4.6,6.1,7.3,7.3,10s-1.5,4.1-1.5,4.1l3.7-0.5
			c0,0-1.2,4.4,0.5,4.1c1.4-0.3,2.7-0.9,3.9-1.7l-0.2,2.9c0,0,4.6-5.8,8.5-7.8s7.3-5.4,7.1-9s-1.9-4.1-1.9-4.1l5.6,1.9
			c-0.8,2.2-0.6,4.6,0.7,6.6c2.2,3.2,4.6,2.4,5.4,4.6l0.7,2.2l2.4-1l2.7,3.2l3.9-5.8l-13.6-18.5H112.8z"/>
		<path style="fill:none;stroke:#000000;stroke-width:1.76;stroke-linecap:round;stroke-linejoin:round;" d="M112.8,158.7
			c-0.7,2.9-0.4,6,0.7,8.8c2,4.6,6.1,7.3,7.3,10s-1.5,4.1-1.5,4.1l3.7-0.5c0,0-1.2,4.4,0.5,4.1c1.4-0.3,2.7-0.9,3.9-1.7l-0.2,2.9
			c0,0,4.6-5.8,8.5-7.8s7.3-5.4,7.1-9s-1.9-4.1-1.9-4.1l5.6,1.9c-0.8,2.2-0.6,4.6,0.7,6.6c2.2,3.2,4.6,2.4,5.4,4.6l0.7,2.2l2.4-1
			l2.7,3.2l3.9-5.8l-13.6-18.5H112.8z"/>
		<path style="fill:#666666;" d="M214.4,254.5c8.8,9.5,14.4,12.4,19,11.7s-1.4-11.9-1.4-11.9s30.4,44,41.1,44.8
			s-19.9-47.2-19.9-47.2s8,6.3,6.6-0.7s-54.3-82.7-54.3-82.7l-78.1-31.1C127.4,137.3,205.7,245,214.4,254.5"/>
		<path style="fill:none;stroke:#000000;stroke-width:1.76;stroke-linecap:round;stroke-linejoin:round;" d="M214.4,254.5
			c8.8,9.5,14.4,12.4,19,11.7s-1.4-11.9-1.4-11.9s30.4,44,41.1,44.8s-19.9-47.2-19.9-47.2s8,6.3,6.6-0.7s-54.3-82.7-54.3-82.7
			l-78.1-31.1C127.4,137.3,205.7,245.1,214.4,254.5z"/>
		<path style="fill:#FFFFFF;" d="M70.9,77.7c0,0-0.7,13.9,5.8,37.7s19.5,40.9,40.9,49.1s82.5,6.8,82.5,6.8s-13.6-50.1-19.5-64.5
			s-15.6-28.9-23.6-37.5s-25.3-17-25.3-17s-22.1-9-41.1,0.5S70.9,77.7,70.9,77.7"/>
		<path style="fill:none;stroke:#000000;stroke-width:1.76;stroke-linecap:round;stroke-linejoin:round;" d="M70.9,77.7
			c0,0-0.7,13.9,5.8,37.7s19.5,40.9,40.9,49.1s82.5,6.8,82.5,6.8s-13.6-50.1-19.5-64.5s-15.6-28.9-23.6-37.5s-25.3-17-25.3-17
			s-22.1-9-41.1,0.5S70.9,77.7,70.9,77.7z"/>
		<path style="fill:#666666;" d="M42.6,17.2c0,0-8.8,2.6-14.6,6.9c-3.2,2.3-6,4.9-8.4,8c0,0,9.1,2.6,13.9,2.6h18.2
			c2.3-1.9,4.8-3.5,7.5-4.7c2-0.9,4-1.7,6.1-2.4c0,0-4.6-4.1-9.7-5.6s-7.3,1-10.5-1.2S42.6,17.3,42.6,17.2"/>
		<path style="fill:none;stroke:#000000;stroke-width:1.76;stroke-linecap:round;stroke-linejoin:round;" d="M42.6,17.2
			c0,0-8.8,2.6-14.6,6.9c-3.2,2.3-6,4.9-8.4,8c0,0,9.1,2.6,13.9,2.6h18.2c2.3-1.9,4.8-3.5,7.5-4.7c2-0.9,4-1.7,6.1-2.4
			c0,0-4.6-4.1-9.7-5.6s-7.3,1-10.5-1.2S42.6,17.2,42.6,17.2z"/>
		<path style="fill:none;stroke:#000000;stroke-width:1.76;stroke-linecap:round;stroke-linejoin:round;" d="M19.6,32.2
			c7.4-2.4,15.1-3.8,22.9-4.1c12.6-0.5,21.4-0.5,21.4-0.5"/>
		<path style="fill:#1A1A1A;" d="M42.6,17.2c0,0,5.2-13.5,30.8-16.2s36.7,23.8,43,31.1s10.7,14.8,17.3,19c6.6,4.2,9.2,5.8,9.2,5.8
			s3.4,3.2,0.7,4.6s-3.2,0.5-3.2,0.5s7.3,7.1,6.1,10s-5.6,0.5-5.6,0.5s4.6,4.1,3.4,6.3s-6.8-1-6.8-1s8.5,9.7,4.4,12.7
			s-9.5-4.1-9.5-4.1s3.2,4.4,0.7,5.8s-16.1-12.7-16.1-12.7s2.7,2.9-0.7,4.6s-11.2-11-11.2-11s2.9,7.5-0.7,7.5s-8-6.6-8-6.6
			s-1.2,2.4-5.1,2.2s-3.2-8.4-9.3-6.5s-8.3,12.9-8.3,18.7c-0.1,4.2-0.4,8.3-1,12.4c-2.6-11.2-4.6-22.6-5.9-34
			c-1.7-16.8-10.7-28.5-12.6-30.2s-6.8-4.1-10.5-10.2S42.6,17.2,42.6,17.2"/>
		<path style="fill:none;stroke:#000000;stroke-width:1.76;stroke-linecap:round;stroke-linejoin:round;" d="M42.6,17.2
			c0,0,5.2-13.5,30.8-16.2s36.7,23.8,43,31.1s10.7,14.8,17.3,19c6.6,4.2,9.2,5.8,9.2,5.8s3.4,3.2,0.7,4.6s-3.2,0.5-3.2,0.5
			s7.3,7.1,6.1,10s-5.6,0.5-5.6,0.5s4.6,4.1,3.4,6.3s-6.8-1-6.8-1s8.5,9.7,4.4,12.7s-9.5-4.1-9.5-4.1s3.2,4.4,0.7,5.8
			s-16.1-12.7-16.1-12.7s2.7,2.9-0.7,4.6s-11.2-11-11.2-11s2.9,7.5-0.7,7.5s-8-6.6-8-6.6s-1.2,2.4-5.1,2.2s-3.2-8.4-9.3-6.5
			s-8.3,12.9-8.3,18.7c-0.1,4.2-0.4,8.3-1,12.4c-2.6-11.2-4.6-22.6-5.9-34c-1.7-16.8-10.7-28.5-12.6-30.2s-6.8-4.1-10.5-10.2
			S42.6,17.2,42.6,17.2z"/>
		<path style="fill:#CCCCCC;" d="M75,14.2c0,2.8-2.2,5-5,5s-5-2.2-5-5s2.2-5,5-5S75,11.4,75,14.2"/>
		<path style="fill:none;stroke:#000000;stroke-width:1.76;stroke-linecap:round;stroke-linejoin:round;" d="M75,14.2
			c0,2.8-2.2,5-5,5s-5-2.2-5-5s2.2-5,5-5S75,11.4,75,14.2z"/>
		<path d="M71.5,14.2c0,0.9-0.7,1.6-1.6,1.6s-1.6-0.7-1.6-1.6c0-0.9,0.7-1.6,1.6-1.6c0,0,0,0,0,0C70.9,12.6,71.6,13.3,71.5,14.2
			C71.6,14.2,71.6,14.2,71.5,14.2"/>
		<path style="fill:#1A1A1A;" d="M138.6,148.2c0,0,33.6,46.5,39.6,49.9s4.6-6.6,4.6-6.6s9.5,14.4,15.1,18.5s2.4-9.2,2.4-9.2
			s10.2,15.6,16.3,12.4s-2.9-16.1-2.9-16.1s3.4,4.9,7.1,2.7s-16.5-29.4-16.5-29.4l-69.8-30.9L138.6,148.2z"/>
		<path style="fill:none;stroke:#000000;stroke-width:1.76;stroke-linecap:round;stroke-linejoin:round;" d="M138.6,148.2
			c0,0,33.6,46.5,39.6,49.9s4.6-6.6,4.6-6.6s9.5,14.4,15.1,18.5s2.4-9.2,2.4-9.2s10.2,15.6,16.3,12.4s-2.9-16.1-2.9-16.1
			s3.4,4.9,7.1,2.7s-16.5-29.4-16.5-29.4l-69.8-30.9L138.6,148.2z"/>
		<path style="fill:#FFD200;" d="M35.3,28.6c0,0,7.1,2.4,5.8,12.2c-1.8,13.7-10.8,12.8-10.8,12.8s-4.9-4.4-3.6-10.5s2.5-8.2,2.5-8.2
			l-4-1.1c-2.5,3.6-3.6,8-3.1,12.4c0.7,7.5,3.3,10,7.5,11.5s12.5,0,16.4-9.1C51.6,35.7,44.3,28,44.3,28L35.3,28.6z"/>
		<path style="fill:none;stroke:#000000;stroke-width:1.76;stroke-linecap:round;stroke-linejoin:round;" d="M35.3,28.6
			c0,0,7.1,2.4,5.8,12.2c-1.8,13.7-10.8,12.8-10.8,12.8s-4.9-4.4-3.6-10.5s2.5-8.2,2.5-8.2l-4-1.1c-2.5,3.6-3.6,8-3.1,12.4
			c0.7,7.5,3.3,10,7.5,11.5s12.5,0,16.4-9.1C51.6,35.7,44.3,28,44.3,28L35.3,28.6z"/>
		<path style="fill:none;stroke:#000000;stroke-width:1.76;stroke-linecap:round;stroke-linejoin:round;" d="M30.2,53.4
			c0,0-2.4,0.4-5.5-3.1c-1.8-2-2.8-4.7-2.7-7.5"/>
		<polygon style="fill:#0039A6;" points="22.7,59.6 18.7,63.8 21.6,70.3 28.7,72.9 35.1,68.1 33.8,60.5 29.6,57.6 		"/>
		<polygon style="fill:none;stroke:#000000;stroke-width:1.76;stroke-linecap:round;stroke-linejoin:round;" points="22.7,59.6 
			18.7,63.8 21.6,70.3 28.7,72.9 35.1,68.1 33.8,60.5 29.6,57.6 		"/>
		<path style="fill:#FFD200;" d="M25.6,55l-5,5l6.9-0.5L28,64l3.8-3.3l3.6,5.1l-0.3-9c-1.8,0.2-3.6,0.1-5.4-0.2
			C28,56,25.6,55,25.6,55"/>
		<path style="fill:none;stroke:#000000;stroke-width:1.76;stroke-linecap:round;stroke-linejoin:round;" d="M25.6,55l-5,5l6.9-0.5
			L28,64l3.8-3.3l3.6,5.1l-0.3-9c-1.8,0.2-3.6,0.1-5.4-0.2C28,56,25.6,55,25.6,55z"/>
		<path style="fill:#666666;" d="M85.5,86c0,0,0.5,13.6,2.2,20.9s2.9,8.5,5.3,8.5s2.9-4.2,2.9-4.2s1,7.3,3.9,11.7
			c1.7,2.6,4.5,4.4,7.5,4.9c0,0,4.6,10.5,10.7,15.1s8,0.5,8,0.5s1,3.9,7.1,7.5s5.4,0.7,5.4,0.7s3.9,5.4,7.5,5.4s5.1-1.2,5.1-1.2
			s0,2.4,4.4,4.6s4.6,0.2,4.6,0.2c2,2.6,4.7,4.6,7.8,5.6c4.9,1.5,6.6-0.5,6.6-0.5s7.5,6.3,14.6,7.8s1.9-5.4,1.9-5.4
			s10.2,8.5,17,10.7s5.1-3.2,3.4-5.6s-10-10.2-10-10.2s-3.2-8.8-8.3-24.8s-10-31.9-16-43s-15.8-20.7-15.8-20.7s4.9,8.3,3.9,11.2
			s-3.6,0.2-3.6,0.2s4.6,8.5,4.1,11.7s-4.4-1.2-4.4-1.2s4.6,9.7,3.2,11s-3.4-1-3.4-1s2.2,3.4,0.5,5.1s-4.9-1-4.9-1s-2.2,3.2-4.9,2.7
			s-8.5-4.9-8.5-4.9s-0.3,3.7-3.6,3.2s-6.3-3.6-6.3-3.6s-0.5,3.9-3.9,3.4c-2.1-0.4-4-1.6-5.1-3.4c0,0-1.9,2.4-6.3,0.7
			s-8.3-7.8-8.3-7.8s-0.3,4.1-3.7,3.7s-6.8-6.3-6.8-6.3s0.5,3.4-3.7,0.7S85.5,86,85.5,86"/>
		<path style="fill:none;stroke:#000000;stroke-width:1.76;stroke-linecap:round;stroke-linejoin:round;" d="M85.5,86
			c0,0,0.5,13.6,2.2,20.9s2.9,8.5,5.3,8.5s2.9-4.2,2.9-4.2s1,7.3,3.9,11.7c1.7,2.6,4.5,4.4,7.5,4.9c0,0,4.6,10.5,10.7,15.1
			s8,0.5,8,0.5s1,3.9,7.1,7.5s5.4,0.7,5.4,0.7s3.9,5.4,7.5,5.4s5.1-1.2,5.1-1.2s0,2.4,4.4,4.6s4.6,0.2,4.6,0.2
			c2,2.6,4.7,4.6,7.8,5.6c4.9,1.5,6.6-0.5,6.6-0.5s7.5,6.3,14.6,7.8s1.9-5.4,1.9-5.4s10.2,8.5,17,10.7s5.1-3.2,3.4-5.6
			s-10-10.2-10-10.2s-3.2-8.8-8.3-24.8s-10-31.9-16-43s-15.8-20.7-15.8-20.7s4.9,8.3,3.9,11.2s-3.6,0.2-3.6,0.2s4.6,8.5,4.1,11.7
			s-4.4-1.2-4.4-1.2s4.6,9.7,3.2,11s-3.4-1-3.4-1s2.2,3.4,0.5,5.1s-4.9-1-4.9-1s-2.2,3.2-4.9,2.7s-8.5-4.9-8.5-4.9s-0.3,3.7-3.6,3.2
			s-6.3-3.6-6.3-3.6s-0.5,3.9-3.9,3.4c-2.1-0.4-4-1.6-5.1-3.4c0,0-1.9,2.4-6.3,0.7s-8.3-7.8-8.3-7.8s-0.3,4.1-3.7,3.7
			s-6.8-6.3-6.8-6.3s0.5,3.4-3.7,0.7S85.5,86,85.5,86z"/>
		<path style="fill:none;stroke:#000000;stroke-width:1.76;stroke-linecap:round;stroke-linejoin:round;" d="M15.6,232
			c0,0,13.4,0.8,19.2,1.5s8.1,0,16.8,0s17.5-1.6,23.9-2.3c4.1-0.5,8.2-1.3,12.2-2.4"/>
		<path style="fill:#8C6239;" d="M103.3,224.4c5.9-1.3,11.8-2.2,17.8-2.7c6-0.5,11.9-1.4,17.8-2.7"/>
		<path style="fill:none;stroke:#000000;stroke-width:1.76;stroke-linecap:round;stroke-linejoin:round;" d="M103.3,224.4
			c5.9-1.3,11.8-2.2,17.8-2.7c6-0.5,11.9-1.4,17.8-2.7"/>
		<path style="fill:#8C6239;" d="M151,216.4c0,0,10.5-5.1,15.8-6.1s11.7-2.9,11.7-2.9"/>
		<path style="fill:none;stroke:#000000;stroke-width:1.76;stroke-linecap:round;stroke-linejoin:round;" d="M151,216.4
			c0,0,10.5-5.1,15.8-6.1s11.7-2.9,11.7-2.9"/>
		<path style="fill:none;stroke:#000000;stroke-width:1.76;stroke-linecap:round;stroke-linejoin:round;" d="M113.8,188.6
			c-0.2,0.9,0.3,1.9,1.1,2.3c1.5,1,2.1,0.6,2.1,0.6"/>
		<path style="fill:none;stroke:#000000;stroke-width:1.76;stroke-linecap:round;stroke-linejoin:round;" d="M108.9,193.5
			c-0.2,1,0.3,1.9,1.1,2.4c1.4,1,2,0.6,2,0.6"/>
		<path style="fill:none;stroke:#000000;stroke-width:1.76;stroke-linecap:round;stroke-linejoin:round;" d="M101.3,201.1
			c-0.1,0.9,0.2,1.8,0.9,2.4c1.2,1,1.7,0.6,1.7,0.6"/>
		<path style="fill:none;stroke:#000000;stroke-width:1.76;stroke-linecap:round;stroke-linejoin:round;" d="M97.4,205.2
			c-0.1,0.9,0.2,1.8,0.9,2.4c1.2,1,1.7,0.6,1.7,0.6"/>
		<path style="fill:none;stroke:#000000;stroke-width:1.76;stroke-linecap:round;stroke-linejoin:round;" d="M93.5,209.3
			c-0.1,0.9,0.2,1.8,0.9,2.4c1.2,1,1.7,0.6,1.7,0.6"/>
		
			<line style="fill:none;stroke:#000000;stroke-width:1.76;stroke-linecap:round;stroke-linejoin:round;" x1="182.8" y1="191.5" x2="167.6" y2="171.9"/>
		
			<line style="fill:none;stroke:#000000;stroke-width:1.76;stroke-linecap:round;stroke-linejoin:round;" x1="200.4" y1="200.8" x2="184.4" y2="178.2"/>
		
			<line style="fill:none;stroke:#000000;stroke-width:1.76;stroke-linecap:round;stroke-linejoin:round;" x1="213.7" y1="197.1" x2="201.9" y2="181.8"/>
		
			<line style="fill:none;stroke:#000000;stroke-width:1.76;stroke-linecap:round;stroke-linejoin:round;" x1="232" y1="254.3" x2="206.4" y2="219.4"/>
		
			<line style="fill:none;stroke:#000000;stroke-width:1.76;stroke-linecap:round;stroke-linejoin:round;" x1="253.1" y1="251.9" x2="225.4" y2="216.8"/>
		<path style="fill:none;stroke:#000000;stroke-width:1.76;stroke-linecap:round;stroke-linejoin:round;" d="M201.6,163.1
			c0,0-24.6-21.1-36.2-34.5"/>
		
			<line style="fill:none;stroke:#000000;stroke-width:1.76;stroke-linecap:round;stroke-linejoin:round;" x1="194" y1="155.9" x2="185.6" y2="136.4"/>
		<path style="fill:#666666;" d="M191.1,168.2c0,0-19.9-19.9-26.1-27.6s-12.1-16.7-12.1-16.7"/>
		<path style="fill:none;stroke:#000000;stroke-width:1.76;stroke-linecap:round;stroke-linejoin:round;" d="M191.1,168.2
			c0,0-19.9-19.9-26.1-27.6s-12.1-16.7-12.1-16.7"/>
		<path style="fill:#666666;" d="M174.6,165.8c0,0-20.3-25.8-23.6-31.6s-9.3-14.7-9.3-14.7"/>
		<path style="fill:none;stroke:#000000;stroke-width:1.76;stroke-linecap:round;stroke-linejoin:round;" d="M174.6,165.8
			c0,0-20.3-25.8-23.6-31.6s-9.3-14.7-9.3-14.7"/>
		<path style="fill:#666666;" d="M160.2,160.6c0,0-15.3-23-18.7-28.8L138,126"/>
		<path style="fill:none;stroke:#000000;stroke-width:1.76;stroke-linecap:round;stroke-linejoin:round;" d="M160.2,160.6
			c0,0-15.3-23-18.7-28.8L138,126"/>
		<path style="fill:#666666;" d="M170.1,114.1c0,0,7.9,17,9.7,20.8s4.7,12.6,4.7,12.6"/>
		<path style="fill:none;stroke:#000000;stroke-width:1.76;stroke-linecap:round;stroke-linejoin:round;" d="M170.1,114.1
			c0,0,7.9,17,9.7,20.8s4.7,12.6,4.7,12.6"/>
		<path style="fill:none;stroke:#000000;stroke-width:1.76;stroke-linecap:round;stroke-linejoin:round;" d="M151.2,155.8
			c0,0-11.4-17-12.2-18.7l-0.7-1.7"/>
		<path style="fill:none;stroke:#000000;stroke-width:1.76;stroke-linecap:round;stroke-linejoin:round;" d="M138.6,151.6
			c-3-4.5-5.3-9.4-7.1-14.6c-2.4-7.8-3.9-13.6-3.9-13.6"/>
		<path style="fill:none;stroke:#000000;stroke-width:1.76;stroke-linecap:round;stroke-linejoin:round;" d="M126.2,143.4
			c0,0-4.9-12.2-6.3-19.5l-1.5-7.3"/>
		<path style="fill:none;stroke:#000000;stroke-width:1.76;stroke-linecap:round;stroke-linejoin:round;" d="M107.4,127.8
			c0,0-3.9-8.3-4.9-13.6l-1-5.3"/>
		
			<line style="fill:none;stroke:#000000;stroke-width:1.76;stroke-linecap:round;stroke-linejoin:round;" x1="96" y1="111.3" x2="94.8" y2="103.2"/>
		
			<line style="fill:none;stroke:#000000;stroke-width:1.76;stroke-linecap:round;stroke-linejoin:round;" x1="15.7" y1="57.6" x2="8.4" y2="49"/>
		
			<line style="fill:none;stroke:#000000;stroke-width:1.76;stroke-linecap:round;stroke-linejoin:round;" x1="11.5" y1="68.8" x2="0.9" y2="69"/>
		
			<line style="fill:none;stroke:#000000;stroke-width:1.76;stroke-linecap:round;stroke-linejoin:round;" x1="15.7" y1="75.4" x2="9.5" y2="79.9"/>
		
			<line style="fill:none;stroke:#000000;stroke-width:1.76;stroke-linecap:round;stroke-linejoin:round;" x1="24" y1="79.4" x2="24" y2="90.3"/>
		
			<line style="fill:none;stroke:#000000;stroke-width:1.76;stroke-linecap:round;stroke-linejoin:round;" x1="31.3" y1="79.9" x2="33.7" y2="86.4"/>
		
			<line style="fill:none;stroke:#000000;stroke-width:1.76;stroke-linecap:round;stroke-linejoin:round;" x1="38.6" y1="74.3" x2="50.8" y2="80.6"/>
		
			<line style="fill:none;stroke:#000000;stroke-width:1.76;stroke-linecap:round;stroke-linejoin:round;" x1="40" y1="66" x2="47.1" y2="65.8"/>
		<path style="fill:none;stroke:#000000;stroke-width:1.76;stroke-linecap:round;stroke-linejoin:round;" d="M86.8,123.4
			c0,0,5.5,17.5,18.6,27.4s31,11.7,31,11.7"/>
		<path style="fill:none;stroke:#000000;stroke-width:1.76;stroke-linecap:round;stroke-linejoin:round;" d="M86.8,10.3
			c0,0,7.7,2.2,17.9,16.4s13.9,20.4,19,24.5c5.1,4,8.4,6.2,8.4,6.2"/>
		<path style="fill:none;stroke:#000000;stroke-width:1.76;stroke-linecap:round;stroke-linejoin:round;" d="M63,37
			c0,0,6.2,8,8,17.5s2.6,15,2.6,15"/>
		<path style="fill:none;stroke:#000000;stroke-width:1.76;stroke-linecap:round;stroke-linejoin:round;" d="M61.8,16.1
			c0,0-0.2,7.7,8.2,7.5c4.6,0.2,8.5-3.3,8.9-7.8"/>
		<path style="fill:none;stroke:#000000;stroke-width:1.76;stroke-linecap:round;stroke-linejoin:round;" d="M61.6,10
			c0,0,0.9-3.1,5.1-4.2c2.5-0.7,5.2-0.6,7.7,0.2"/>
		<path style="fill:none;stroke:#000000;stroke-width:1.76;stroke-linecap:round;stroke-linejoin:round;" d="M169.4,91
			c3.9,6,7.1,12.3,9.7,19c4.6,11.7,5.7,16.6,5.7,16.6"/>
		<path style="fill:none;stroke:#000000;stroke-width:1.76;stroke-linecap:round;stroke-linejoin:round;" d="M182,204.6
			c0,0,20.6,28.3,26.4,35.9c4.2,5.3,8.6,10.5,13.3,15.3"/>
		<path style="fill:none;stroke:#000000;stroke-width:1.76;stroke-linecap:round;stroke-linejoin:round;" d="M222.1,232.2
			c0,0,21,31.4,27.4,38.5s14.2,16.2,14.2,16.2"/>
	</g>
</g>
</svg>
