<?xml version="1.0" encoding="utf-8"?>
<!-- Generator: Adobe Illustrator 23.0.2, SVG Export Plug-In . SVG Version: 6.00 Build 0)  -->
<svg version="1.1" id="Réteg_1" xmlns="http://www.w3.org/2000/svg" xmlns:xlink="http://www.w3.org/1999/xlink" x="0px" y="0px"
	 viewBox="0 0 302.2 405.4" style="enable-background:new 0 0 302.2 405.4;" xml:space="preserve">
<title>forma_06</title>
<g>
	<g>
		<path class="color_1" style="fill:#009A3D;" d="M151.1,403.5c19-16.7,38-38.2,69.1-59.5c38.1-26.2,81-50,81-50s-16.5-54.2-16.7-125.1H151.1V403.5z
			"/>
		<path style="fill:none;stroke:#000000;stroke-width:1.76;stroke-miterlimit:10;" d="M151.1,403.5c19-16.7,38-38.2,69.1-59.5
			c38.1-26.2,81-50,81-50s-16.5-54.2-16.7-125.1H151.1V403.5z"/>
		<path class="color_2" style="fill:#FFD200;" d="M298.8,43.8c0,0-14.3,0-47.6-11.9s-47.6-31-47.6-31h-52.4v168h133.4c0-0.4,0-0.8,0-1.2
			C284.5,96.2,298.8,43.8,298.8,43.8"/>
		<path style="fill:none;stroke:#000000;stroke-width:1.76;stroke-miterlimit:10;" d="M298.8,43.8c0,0-14.3,0-47.6-11.9
			s-47.6-31-47.6-31h-52.4v168h133.4c0-0.4,0-0.8,0-1.2C284.5,96.2,298.8,43.8,298.8,43.8z"/>
		<path class="color_2" style="fill:#FFD200;" d="M151.1,403.5c-19.1-16.7-38-38.2-69.1-59.6c-38.1-26.2-81-50-81-50s16.5-54.2,16.7-125.1h133.5
			v234.7H151.1z"/>
		<path style="fill:none;stroke:#000000;stroke-width:1.76;stroke-miterlimit:10;" d="M151.1,403.5c-19.1-16.7-38-38.2-69.1-59.6
			c-38.1-26.2-81-50-81-50s16.5-54.2,16.7-125.1h133.5v234.7H151.1z"/>
		<path class="color_1" style="fill:#009A3D;" d="M3.4,43.8c0,0,14.3,0,47.6-11.9s47.6-31,47.6-31H151v167.9H17.7c0-0.4,0-0.8,0-1.2
			C17.7,96.2,3.4,43.8,3.4,43.8"/>
		<path style="fill:none;stroke:#000000;stroke-width:1.76;stroke-miterlimit:10;" d="M3.4,43.8c0,0,14.3,0,47.6-11.9
			s47.6-31,47.6-31H151v167.9H17.7c0-0.4,0-0.8,0-1.2C17.7,96.2,3.4,43.8,3.4,43.8z"/>
	</g>
</g>
</svg>
