<?xml version="1.0" encoding="utf-8"?>
<!-- Generator: Adobe Illustrator 23.0.2, SVG Export Plug-In . SVG Version: 6.00 Build 0)  -->
<svg version="1.1" id="Réteg_1" xmlns="http://www.w3.org/2000/svg" xmlns:xlink="http://www.w3.org/1999/xlink" x="0px" y="0px"
	 viewBox="0 0 315.3 351.1" style="enable-background:new 0 0 315.3 351.1;" xml:space="preserve">
<title>forma_01</title>
<g>
	<g>
		<path class="color_1" style="fill:#0039A6;" d="M179.6,351.1c0,0,57.2-19.1,95.3-69.1s35.7-81,35.7-81s-21.4-38.1-21.4-92.9s26.2-92.9,26.2-92.9
			S257-14.5,154.6,11.7L179.6,351.1z"/>
		<path style="fill:none;stroke:#000000;stroke-width:1.76;stroke-miterlimit:10;" d="M179.6,351.1c0,0,57.2-19.1,95.3-69.1
			s35.7-81,35.7-81s-21.4-38.1-21.4-92.9s26.2-92.9,26.2-92.9S257-14.5,154.6,11.7L179.6,351.1z"/>
		<path class="color_2" style="fill:#FFD200;" d="M154.6,11.7C42.9,40.2,2.1,76,0.9,108.1c-1.1,30.1,26.2,40.5,26.2,40.5s19,2.4,21.4,31
			S20,232,20,232s16.7,7.1,26.2,35.7s23.8,47.6,59.5,57.2s33.4,9.5,42.9,11.9c19.1,4.8,31,14.3,31,14.3L154.6,11.7z"/>
		<path style="fill:none;stroke:#000000;stroke-width:1.76;stroke-miterlimit:10;" d="M154.6,11.7C42.9,40.2,2.1,76,0.9,108.1
			c-1.1,30.1,26.2,40.5,26.2,40.5s19,2.4,21.4,31S20,232,20,232s16.7,7.1,26.2,35.7s23.8,47.6,59.5,57.2s33.4,9.5,42.9,11.9
			c19.1,4.8,31,14.3,31,14.3L154.6,11.7z"/>
	</g>
</g>
</svg>
