<?xml version="1.0" encoding="utf-8"?>
<!-- Generator: Adobe Illustrator 23.0.2, SVG Export Plug-In . SVG Version: 6.00 Build 0)  -->
<svg version="1.1" id="Réteg_1" xmlns="http://www.w3.org/2000/svg" xmlns:xlink="http://www.w3.org/1999/xlink" x="0px" y="0px"
	 viewBox="0 0 275.3 368.7" style="enable-background:new 0 0 275.3 368.7;" xml:space="preserve">
<title>forma_02</title>
<g>
	<g>
		<path class="color_2" d="M138.4,0.9H137C130.6,107.1,82.1,193,19.3,212.3c1,3.7,2.1,7.3,3.3,11.1c16.6,52.8,57,112.3,115.1,144.3
			c58-32.1,98.4-91.5,115.1-144.3c1.2-3.7,2.3-7.4,3.3-11.1C193.3,193,144.8,107.1,138.4,0.9"/>
		<path style="fill:none;stroke:#000000;stroke-width:1.76;stroke-miterlimit:10;" d="M138.4,0.9H137
			C130.6,107.1,82.1,193,19.3,212.3c1,3.7,2.1,7.3,3.3,11.1c16.6,52.8,57,112.3,115.1,144.3c58-32.1,98.4-91.5,115.1-144.3
			c1.2-3.7,2.3-7.4,3.3-11.1C193.3,193,144.8,107.1,138.4,0.9z"/>
		<path class="color_1" style="fill:#DC281E;" d="M274.5,0.9H138.4C144.8,107.1,193.3,193,256,212.3c16-56.6,16.4-106,16.4-106L274.5,0.9z"/>
		<path style="fill:none;stroke:#000000;stroke-width:1.76;stroke-miterlimit:10;" d="M274.5,0.9H138.4
			C144.8,107.1,193.3,193,256,212.3c16-56.6,16.4-106,16.4-106L274.5,0.9z"/>
		<path class="color_1" style="fill:#DC281E;" d="M137,0.9H0.9l2,105.4c0,0,0.4,49.4,16.4,106C82.1,193,130.6,107.1,137,0.9"/>
		<path style="fill:none;stroke:#000000;stroke-width:1.76;stroke-miterlimit:10;" d="M137,0.9H0.9l2,105.4c0,0,0.4,49.4,16.4,106
			C82.1,193,130.6,107.1,137,0.9z"/>
	</g>
</g>
</svg>
