<?xml version="1.0" encoding="utf-8"?>
<!-- Generator: Adobe Illustrator 23.0.2, SVG Export Plug-In . SVG Version: 6.00 Build 0)  -->
<svg version="1.1" id="Réteg_1" xmlns="http://www.w3.org/2000/svg" xmlns:xlink="http://www.w3.org/1999/xlink" x="0px" y="0px"
	 viewBox="0 0 293 395.6" style="enable-background:new 0 0 293 395.6;" xml:space="preserve">
<title>forma_03</title>
<g>
	<g>
		<path class="color_1" style="fill:#DC281E;" d="M10.5,358.3c7,9.6,17.1,15.7,28.3,15.7h89.4c7.8,0,15.8,8.9,18.2,18.2c2.5-9.4,10.4-18.2,18.2-18.2
			h89.4c21,0,38-20.9,38-46.7V2.5L10.5,358.3z"/>
		<path style="fill:none;stroke:#000000;stroke-width:1.76;stroke-miterlimit:10;" d="M10.5,358.3c7,9.6,17.1,15.7,28.3,15.7h89.4
			c7.8,0,15.8,8.9,18.2,18.2c2.5-9.4,10.4-18.2,18.2-18.2h89.4c21,0,38-20.9,38-46.7V2.5L10.5,358.3z"/>
		<path class="color_2" style="fill:#0039A6;" d="M292.1,2.1H0.9v325.2c-0.1,11.1,3.3,21.9,9.7,31L292.1,2.5V2.1z"/>
		<path style="fill:none;stroke:#000000;stroke-width:1.76;stroke-miterlimit:10;" d="M292.1,2.1H0.9v325.2
			c-0.1,11.1,3.3,21.9,9.7,31L292.1,2.5V2.1z"/>
	</g>
</g>
</svg>
