<?xml version="1.0" encoding="utf-8"?>
<!-- Generator: Adobe Illustrator 23.0.2, SVG Export Plug-In . SVG Version: 6.00 Build 0)  -->
<svg version="1.1" id="Réteg_1" xmlns="http://www.w3.org/2000/svg" xmlns:xlink="http://www.w3.org/1999/xlink" x="0px" y="0px"
	 viewBox="0 0 336.6 372.3" style="enable-background:new 0 0 336.6 372.3;" xml:space="preserve">
<title>forma_07</title>
<g>
	<g>
		<path class="color_1" style="fill:#009A3D;" d="M296.9,116.2c1.9-42.9,35.7-66.7,35.7-66.7L308.9,4.2c0,0-14.3,11.9-40.5,9.5s-31-16.7-59.6-11.9
			C175.2,7.5,168.3,28,168.3,28s-6.9-20.6-40.5-26.2c-28.6-4.8-33.4,9.5-59.6,11.9S27.8,4.2,27.8,4.2L4,49.5
			c0,0,33.9,23.8,35.7,66.7c0.4,10.2-0.6,18.4-2.6,25h262.4C297.5,134.6,296.5,126.4,296.9,116.2"/>
		<path style="fill:none;stroke:#000000;stroke-width:1.76;stroke-miterlimit:10;" d="M296.9,116.2c1.9-42.9,35.7-66.7,35.7-66.7
			L308.9,4.2c0,0-14.3,11.9-40.5,9.5s-31-16.7-59.6-11.9C175.2,7.5,168.3,28,168.3,28s-6.9-20.6-40.5-26.2
			c-28.6-4.8-33.4,9.5-59.6,11.9S27.8,4.2,27.8,4.2L4,49.5c0,0,33.9,23.8,35.7,66.7c0.4,10.2-0.6,18.4-2.6,25h262.4
			C297.5,134.6,296.5,126.4,296.9,116.2z"/>
		<path class="color_1" style="fill:#009A3D;" d="M15.9,235.3c3.9,40.6,9.5,62.7,40.5,83.4c21.4,14.3,40.5,14.3,69.1,26.2s42.9,26.2,42.9,26.2
			s14.3-14.3,42.9-26.2s47.6-11.9,69.1-26.2c31-20.6,36.6-42.8,40.5-83.4c0.4-3.8,0.8-7.3,1.2-10.7H14.7
			C15.1,228,15.5,231.6,15.9,235.3"/>
		<path style="fill:none;stroke:#000000;stroke-width:1.76;stroke-miterlimit:10;" d="M15.9,235.3c3.9,40.6,9.5,62.7,40.5,83.4
			c21.4,14.3,40.5,14.3,69.1,26.2s42.9,26.2,42.9,26.2s14.3-14.3,42.9-26.2s47.6-11.9,69.1-26.2c31-20.6,36.6-42.8,40.5-83.4
			c0.4-3.8,0.8-7.3,1.2-10.7H14.7C15.1,228,15.5,231.5,15.9,235.3z"/>
		<path class="color_2" style="fill:#0039A6;" d="M299.5,141.2H37.1c-8.7,29-35.5,27.4-35.5,27.4s8.1,14.3,13.1,56h307.2c5-41.7,13.1-56,13.1-56
			S308.2,170.2,299.5,141.2"/>
		<path style="fill:none;stroke:#000000;stroke-width:1.76;stroke-miterlimit:10;" d="M299.5,141.2H37.1
			c-8.7,29-35.5,27.4-35.5,27.4s8.1,14.3,13.1,56h307.2c5-41.7,13.1-56,13.1-56S308.2,170.2,299.5,141.2z"/>
	</g>
</g>
</svg>
