<?xml version="1.0" encoding="utf-8"?>
<!-- Generator: Adobe Illustrator 23.0.2, SVG Export Plug-In . SVG Version: 6.00 Build 0)  -->
<svg version="1.1" id="Réteg_1" xmlns="http://www.w3.org/2000/svg" xmlns:xlink="http://www.w3.org/1999/xlink" x="0px" y="0px"
	 viewBox="0 0 564.2 70" style="enable-background:new 0 0 564.2 70;" xml:space="preserve">
<title>szalag_06</title>
<g>
	<g>
		<path style="fill:#D1BC9D;" d="M0.9,0.9h160.7v54.4H26.8c-18.1,0-23.3-5.2-23.3-5.2s15.6,0,36.3-7.8c14.2-5.3,15.5-13,15.5-13
			S34.6,26.8,21.6,19C13.7,14.2,6.7,8.1,0.9,0.9"/>
		<path style="fill:none;stroke:#000000;stroke-width:1.76;stroke-linecap:round;stroke-linejoin:round;" d="M0.9,0.9h160.7v54.4
			H26.8c-18.1,0-23.3-5.2-23.3-5.2s15.6,0,36.3-7.8c14.2-5.3,15.5-13,15.5-13S34.6,26.8,21.6,19C13.7,14.2,6.7,8.1,0.9,0.9z"/>
		<polygon style="fill:#998675;" points="125.3,14.5 161.6,0.9 161.6,14.5 		"/>
		<polygon style="fill:none;stroke:#000000;stroke-width:1.76;stroke-linecap:round;stroke-linejoin:round;" points="125.3,14.5 
			161.6,0.9 161.6,14.5 		"/>
		<path style="fill:#D1BC9D;" d="M563.3,0.9H402.6v54.4h134.8c18.2,0,23.3-5.2,23.3-5.2s-15.5,0-36.3-7.8c-14.1-5.3-15.5-13-15.5-13
			s20.7-2.6,33.7-10.4C550.5,14.2,557.5,8.1,563.3,0.9"/>
		<path style="fill:none;stroke:#000000;stroke-width:1.76;stroke-linecap:round;stroke-linejoin:round;" d="M563.3,0.9H402.6v54.4
			h134.8c18.2,0,23.3-5.2,23.3-5.2s-15.5,0-36.3-7.8c-14.1-5.3-15.5-13-15.5-13s20.7-2.6,33.7-10.4C550.5,14.2,557.5,8.1,563.3,0.9z
			"/>
		<polygon style="fill:#998675;" points="438.9,14.5 402.6,0.9 402.6,14.5 		"/>
		<polygon style="fill:none;stroke:#000000;stroke-width:1.76;stroke-linecap:round;stroke-linejoin:round;" points="438.9,14.5 
			402.6,0.9 402.6,14.5 		"/>
		<path style="fill:#D1BC9D;" d="M435.4,69.1H128.8c-1.9,0-3.5-1.6-3.5-3.5v0v-51h313.6v51C438.9,67.5,437.4,69.1,435.4,69.1
			L435.4,69.1"/>
		<path style="fill:none;stroke:#000000;stroke-width:1.76;stroke-linecap:round;stroke-linejoin:round;" d="M435.4,69.1H128.8
			c-1.9,0-3.5-1.6-3.5-3.5v0v-51h313.6v51C438.9,67.5,437.4,69.1,435.4,69.1L435.4,69.1z"/>
	</g>
</g>
</svg>
