<?xml version="1.0" encoding="utf-8"?>
<!-- Generator: Adobe Illustrator 23.0.2, SVG Export Plug-In . SVG Version: 6.00 Build 0)  -->
<svg version="1.1" id="Réteg_1" xmlns="http://www.w3.org/2000/svg" xmlns:xlink="http://www.w3.org/1999/xlink" x="0px" y="0px"
	 viewBox="0 0 555 105.3" style="enable-background:new 0 0 555 105.3;" xml:space="preserve">
<title>szalag_04</title>
<g>
	<g>
		<path style="fill:#D1BC9D;" d="M412.1,25.5c0,0-1.9-3.1,20.6-11.7s35.1-14.5,39.4-12.6s14.5,22.2,14.5,22.2l1.5,4.3
			c0,0-42.2,19.7-45.6,21.6S419.2,56,419.2,56s-2.8-16.9-4.6-22.2C413.6,31.1,412.8,28.3,412.1,25.5"/>
		<path style="fill:none;stroke:#000000;stroke-width:1.76;stroke-linecap:round;stroke-linejoin:round;" d="M412.1,25.5
			c0,0-1.9-3.1,20.6-11.7s35.1-14.5,39.4-12.6s14.5,22.2,14.5,22.2l1.5,4.3c0,0-42.2,19.7-45.6,21.6S419.2,56,419.2,56
			s-2.8-16.9-4.6-22.2C413.6,31.1,412.8,28.4,412.1,25.5z"/>
		<path style="fill:#998675;" d="M412.1,25.5c0,0,0.5,5.2,9.7,5.2s22.3-2.1,22.3-2.1s3.1,4-4,9.6s-24,6.8-24,6.8L412.1,25.5z"/>
		<path style="fill:none;stroke:#000000;stroke-width:1.76;stroke-linecap:round;stroke-linejoin:round;" d="M412.1,25.5
			c0,0,0.5,5.2,9.7,5.2s22.3-2.1,22.3-2.1s3.1,4-4,9.6s-24,6.8-24,6.8L412.1,25.5z"/>
		<path style="fill:#998675;" d="M471.4,1.1c0,0,6.3,4.8-0.1,9.7s-12.8,3.8-16.2,9.7s3.2,10.3,3.2,10.3s6.6,2.5,16.2-2.1
			s11.4-9.4,11.4-9.4S479.2,8.3,478,6.2C475.4,1.4,471.4,1.1,471.4,1.1"/>
		<path style="fill:none;stroke:#000000;stroke-width:1.76;stroke-linecap:round;stroke-linejoin:round;" d="M471.4,1.1
			c0,0,6.3,4.8-0.1,9.7s-12.8,3.8-16.2,9.7s3.2,10.3,3.2,10.3s6.6,2.5,16.2-2.1s11.4-9.4,11.4-9.4S479.2,8.3,478,6.2
			C475.4,1.4,471.4,1.1,471.4,1.1z"/>
		<path style="fill:#D1BC9D;" d="M397.7,42.2c0,0,25.5-2.8,35.4-7.1s11.1-6.5,11.1-6.5l18.2,34.2c0,0-4,6.5-16.6,10.8
			s-46.8,6.2-46.8,6.2L397.7,42.2z"/>
		<path style="fill:none;stroke:#000000;stroke-width:1.76;stroke-linecap:round;stroke-linejoin:round;" d="M397.7,42.2
			c0,0,25.5-2.8,35.4-7.1s11.1-6.5,11.1-6.5l18.2,34.2c0,0-4,6.5-16.6,10.8s-46.8,6.2-46.8,6.2L397.7,42.2z"/>
		<path style="fill:#D1BC9D;" d="M454.6,26.5l17.5,25.9c0,0,8.6,4.3,19.1-2.5s13.2-19.1,26.8-28c16.9-11.1,36-7.7,36-7.7
			c-13.3-5.2-27.7-6.9-41.9-4.9c-22.8,3.4-30.4,8.5-38.5,13.7C458.9,32.5,454.6,26.5,454.6,26.5"/>
		<path style="fill:none;stroke:#000000;stroke-width:1.76;stroke-linecap:round;stroke-linejoin:round;" d="M454.6,26.5l17.5,25.9
			c0,0,8.6,4.3,19.1-2.5s13.2-19.1,26.8-28c16.9-11.1,36-7.7,36-7.7c-13.3-5.2-27.7-6.9-41.9-4.9c-22.8,3.4-30.4,8.5-38.5,13.7
			C459,32.5,454.6,26.5,454.6,26.5z"/>
		<path style="fill:#D1BC9D;" d="M142.9,25.5c0,0,1.9-3.1-20.6-11.7S87.1-0.6,82.8,1.2S68.3,23.4,68.3,23.4l-1.5,4.3
			c0,0,42.2,19.7,45.6,21.6s23.4,6.7,23.4,6.7s2.8-16.9,4.6-22.2C141.4,31.1,142.2,28.3,142.9,25.5"/>
		<path style="fill:none;stroke:#000000;stroke-width:1.76;stroke-linecap:round;stroke-linejoin:round;" d="M142.9,25.5
			c0,0,1.9-3.1-20.6-11.7S87.1-0.6,82.8,1.2S68.3,23.4,68.3,23.4l-1.5,4.3c0,0,42.2,19.7,45.6,21.6s23.4,6.7,23.4,6.7
			s2.8-16.9,4.6-22.2C141.4,31.1,142.2,28.4,142.9,25.5z"/>
		<path style="fill:#998675;" d="M142.9,25.5c0,0-0.5,5.2-9.7,5.2s-22.3-2.1-22.3-2.1s-3.1,4,4,9.6s24,6.8,24,6.8L142.9,25.5z"/>
		<path style="fill:none;stroke:#000000;stroke-width:1.76;stroke-linecap:round;stroke-linejoin:round;" d="M142.9,25.5
			c0,0-0.5,5.2-9.7,5.2s-22.3-2.1-22.3-2.1s-3.1,4,4,9.6s24,6.8,24,6.8L142.9,25.5z"/>
		<path style="fill:#998675;" d="M83.6,1.1c0,0-6.3,4.8,0.2,9.7s12.8,3.8,16.2,9.7s-3.2,10.3-3.2,10.3s-6.7,2.5-16.2-2.1
			s-11.4-9.4-11.4-9.4s6.7-10.9,7.9-13.1C79.6,1.4,83.6,1.1,83.6,1.1"/>
		<path style="fill:none;stroke:#000000;stroke-width:1.76;stroke-linecap:round;stroke-linejoin:round;" d="M83.6,1.1
			c0,0-6.3,4.8,0.2,9.7s12.8,3.8,16.2,9.7s-3.2,10.3-3.2,10.3s-6.7,2.5-16.2-2.1s-11.4-9.4-11.4-9.4s6.7-10.9,7.9-13.1
			C79.6,1.4,83.6,1.1,83.6,1.1z"/>
		<path style="fill:#D1BC9D;" d="M157.3,42.2c0,0-25.6-2.8-35.4-7.1s-11.1-6.5-11.1-6.5L92.7,62.8c0,0,4,6.5,16.6,10.8
			s46.8,6.2,46.8,6.2L157.3,42.2z"/>
		<path style="fill:none;stroke:#000000;stroke-width:1.76;stroke-linecap:round;stroke-linejoin:round;" d="M157.3,42.2
			c0,0-25.6-2.8-35.4-7.1s-11.1-6.5-11.1-6.5L92.7,62.8c0,0,4,6.5,16.6,10.8s46.8,6.2,46.8,6.2L157.3,42.2z"/>
		<path style="fill:#D1BC9D;" d="M100.3,26.5L82.8,52.3c0,0-8.6,4.3-19.1-2.5s-13.2-19.1-26.8-28c-16.9-11.1-36-7.7-36-7.7
			C14.2,9,28.6,7.3,42.8,9.2c22.8,3.4,30.4,8.5,38.5,13.7C96,32.5,100.3,26.5,100.3,26.5"/>
		<path style="fill:none;stroke:#000000;stroke-width:1.76;stroke-linecap:round;stroke-linejoin:round;" d="M100.3,26.5L82.8,52.3
			c0,0-8.6,4.3-19.1-2.5s-13.2-19.1-26.8-28c-16.9-11.1-36-7.7-36-7.7C14.2,9,28.6,7.3,42.8,9.2c22.8,3.4,30.4,8.5,38.5,13.7
			C96,32.5,100.3,26.5,100.3,26.5z"/>
		<polygon style="fill:#998675;" points="120.3,50 156.6,42.2 156.6,50 		"/>
		<polygon style="fill:none;stroke:#000000;stroke-width:1.76;stroke-linecap:round;stroke-linejoin:round;" points="120.3,50 
			156.6,42.2 156.6,50 		"/>
		<polygon style="fill:#998675;" points="434,50 397.7,42.2 397.7,50 		"/>
		<polygon style="fill:none;stroke:#000000;stroke-width:1.76;stroke-linecap:round;stroke-linejoin:round;" points="434,50 
			397.7,42.2 397.7,50 		"/>
		<path style="fill:#D1BC9D;" d="M430.5,104.4H123.8c-1.9,0-3.5-1.6-3.5-3.5v0V50H434v50.9C434,102.9,432.4,104.4,430.5,104.4
			L430.5,104.4"/>
		<path style="fill:none;stroke:#000000;stroke-width:1.76;stroke-linecap:round;stroke-linejoin:round;" d="M430.5,104.4H123.8
			c-1.9,0-3.5-1.6-3.5-3.5v0V50H434v50.9C434,102.9,432.4,104.4,430.5,104.4C430.5,104.4,430.5,104.4,430.5,104.4z"/>
	</g>
</g>
</svg>
