<?xml version="1.0" encoding="utf-8"?>
<!-- Generator: Adobe Illustrator 23.0.2, SVG Export Plug-In . SVG Version: 6.00 Build 0)  -->
<svg version="1.1" id="Réteg_1" xmlns="http://www.w3.org/2000/svg" xmlns:xlink="http://www.w3.org/1999/xlink" x="0px" y="0px"
	 viewBox="0 0 421 78.1" style="enable-background:new 0 0 421 78.1;" xml:space="preserve">
<title>szalag_02</title>
<g>
	<g>
		<path style="fill:#998675;" d="M9.2,57.9c0,0-4.8,9.2,10,16.6s30-2.3,31.4-6.3s-9.5-23.9-9.5-23.9s-18.5,0.8-24,4.3
			C13.6,51,10.9,54.2,9.2,57.9"/>
		<path style="fill:none;stroke:#000000;stroke-width:1.76;stroke-linecap:round;stroke-linejoin:round;" d="M9.2,57.9
			c0,0-4.8,9.2,10,16.6s30-2.3,31.4-6.3s-9.5-23.9-9.5-23.9s-18.5,0.8-24,4.3C13.6,51,10.9,54.2,9.2,57.9z"/>
		<path style="fill:#D1BC9D;" d="M25.5,43.9l2.6,16c0,0,7.1-3.2,14.3-0.5s8.2,8.8,8.2,8.8c0.4-4.7-0.1-9.4-1.4-13.9
			c-1.4-4.5-3.4-8.7-6-12.6L25.5,43.9z"/>
		<path style="fill:none;stroke:#000000;stroke-width:1.76;stroke-linecap:round;stroke-linejoin:round;" d="M25.5,43.9l2.6,16
			c0,0,7.1-3.2,14.3-0.5s8.2,8.8,8.2,8.8c0.4-4.7-0.1-9.4-1.4-13.9c-1.4-4.5-3.4-8.7-6-12.6L25.5,43.9z"/>
		<path style="fill:#D1BC9D;" d="M90,3c0,0-27.5-3.9-53.1-1.1s-36,12.6-36,12.6S10.7,23.1,11,36c0.3,7.3-0.3,14.7-1.8,21.9
			c0,0,8.3-7.1,22.2-8.6s33.9,2.5,33.9,2.5L90,3z"/>
		<path style="fill:none;stroke:#000000;stroke-width:1.76;stroke-linecap:round;stroke-linejoin:round;" d="M90,3
			c0,0-27.5-3.9-53.1-1.1s-36,12.6-36,12.6S10.7,23.1,11,36c0.3,7.3-0.3,14.7-1.8,21.9c0,0,8.3-7.1,22.2-8.6s33.9,2.5,33.9,2.5L90,3
			z"/>
		<path style="fill:#998675;" d="M411.8,57.9c0,0,4.8,9.2-10,16.6s-30-2.3-31.4-6.3s9.5-23.9,9.5-23.9s18.5,0.8,24,4.3
			C407.4,51,410.1,54.2,411.8,57.9"/>
		<path style="fill:none;stroke:#000000;stroke-width:1.76;stroke-linecap:round;stroke-linejoin:round;" d="M411.8,57.9
			c0,0,4.8,9.2-10,16.6s-30-2.3-31.4-6.3s9.5-23.9,9.5-23.9s18.5,0.8,24,4.3C407.4,51,410.1,54.2,411.8,57.9z"/>
		<path style="fill:#D1BC9D;" d="M395.5,43.9l-2.6,16c0,0-7.1-3.2-14.3-0.5s-8.2,8.8-8.2,8.8c-0.4-4.7,0.1-9.4,1.4-13.9
			c1.4-4.5,3.4-8.7,6-12.6L395.5,43.9z"/>
		<path style="fill:none;stroke:#000000;stroke-width:1.76;stroke-linecap:round;stroke-linejoin:round;" d="M395.5,43.9l-2.6,16
			c0,0-7.1-3.2-14.3-0.5s-8.2,8.8-8.2,8.8c-0.4-4.7,0.1-9.4,1.4-13.9c1.4-4.5,3.4-8.7,6-12.6L395.5,43.9z"/>
		<path style="fill:#D1BC9D;" d="M331,3c0,0,27.5-3.9,53.1-1.1s36,12.6,36,12.6s-9.9,8.6-10.2,21.6c-0.2,7.3,0.4,14.7,1.9,21.9
			c0,0-8.3-7.1-22.2-8.6s-33.9,2.5-33.9,2.5L331,3z"/>
		<path style="fill:none;stroke:#000000;stroke-width:1.76;stroke-linecap:round;stroke-linejoin:round;" d="M331,3
			c0,0,27.5-3.9,53.1-1.1s36,12.6,36,12.6s-9.9,8.6-10.2,21.6c-0.2,7.3,0.4,14.7,1.9,21.9c0,0-8.3-7.1-22.2-8.6s-33.9,2.5-33.9,2.5
			L331,3z"/>
		<polygon style="fill:#998675;" points="53.7,10.8 90,3 90,10.8 		"/>
		<polygon style="fill:none;stroke:#000000;stroke-width:1.76;stroke-linecap:round;stroke-linejoin:round;" points="53.7,10.8 
			90,3 90,10.8 		"/>
		<polygon style="fill:#998675;" points="367.3,10.8 331,3 331,10.8 		"/>
		<polygon style="fill:none;stroke:#000000;stroke-width:1.76;stroke-linecap:round;stroke-linejoin:round;" points="367.3,10.8 
			331,3 331,10.8 		"/>
		<path style="fill:#D1BC9D;" d="M363.8,65.2H57.2c-1.9,0-3.5-1.6-3.5-3.5v-51h313.6v51C367.3,63.7,365.8,65.3,363.8,65.2
			L363.8,65.2"/>
		<path style="fill:none;stroke:#000000;stroke-width:1.76;stroke-linecap:round;stroke-linejoin:round;" d="M363.8,65.2H57.2
			c-1.9,0-3.5-1.6-3.5-3.5v-51h313.6v51C367.3,63.7,365.7,65.2,363.8,65.2z"/>
	</g>
</g>
</svg>
