<?xml version="1.0" encoding="utf-8"?>
<!-- Generator: Adobe Illustrator 23.0.2, SVG Export Plug-In . SVG Version: 6.00 Build 0)  -->
<svg version="1.1" id="Réteg_1" xmlns="http://www.w3.org/2000/svg" xmlns:xlink="http://www.w3.org/1999/xlink" x="0px" y="0px"
	 viewBox="0 0 552.3 114.4" style="enable-background:new 0 0 552.3 114.4;" xml:space="preserve">
<title>szalag_05</title>
<g>
	<g>
		<path style="fill:#998675;" d="M11,40.5c0,0-10.1,7.7-10.1,15.5c0,13,9.5,16,17.3,16s13-7.8,15.5-10.4s10.4-10.4,10.4-10.4
			S28.6,35.7,23.4,35.7S11,40.5,11,40.5"/>
		<path style="fill:none;stroke:#000000;stroke-width:1.76;stroke-linecap:round;stroke-linejoin:round;" d="M11,40.5
			c0,0-10.1,7.7-10.1,15.5c0,13,9.5,16,17.3,16s13-7.8,15.5-10.4s10.4-10.4,10.4-10.4S28.6,35.7,23.4,35.7S11,40.5,11,40.5z"/>
		<path style="fill:#D1BC9D;" d="M27,39.1L11.3,52.5c0,0,9-0.7,12.9,5.3s0,12.7,0,12.7l16.2-15.5c-1.3-4-3.5-7.6-6.5-10.6
			C29.1,39.6,27,39.1,27,39.1"/>
		<path style="fill:none;stroke:#000000;stroke-width:1.76;stroke-linecap:round;stroke-linejoin:round;" d="M27,39.1L11.3,52.5
			c0,0,9-0.7,12.9,5.3s0,12.7,0,12.7l16.2-15.5c-1.3-4-3.5-7.6-6.5-10.6C29.1,39.6,27,39.1,27,39.1z"/>
		<path style="fill:#D1BC9D;" d="M7.8,43.5l33.7-31.1c0,0,7.8-5.2,15.5,0S75.2,28,83,33.1c5.5,3.9,10.7,8.2,15.6,13L72.6,79.8
			c0,0-5.2,2.6-15.5-2.6S33.7,48.7,26,43.5S7.9,43.5,7.8,43.5"/>
		<path style="fill:none;stroke:#000000;stroke-width:1.76;stroke-linecap:round;stroke-linejoin:round;" d="M7.8,43.5l33.7-31.1
			c0,0,7.8-5.2,15.5,0S75.2,28,83,33.1c5.5,3.9,10.7,8.2,15.6,13L72.6,79.8c0,0-5.2,2.6-15.5-2.6S33.7,48.7,26,43.5
			S7.8,43.5,7.8,43.5z"/>
		<path style="fill:#998675;" d="M72.6,79.8c0,0,7.8-7.8,0-18.1s-15.6-5.2-20.7-15.6S57.1,28,57.1,28s10.4-13,31.1,7.8
			c9.2,9.2,10.4,13,10.4,13L72.6,79.8z"/>
		<path style="fill:none;stroke:#000000;stroke-width:1.76;stroke-linecap:round;stroke-linejoin:round;" d="M72.6,79.8
			c0,0,7.8-7.8,0-18.1s-15.6-5.2-20.7-15.6S57.1,28,57.1,28s10.4-13,31.1,7.8c9.2,9.2,10.4,13,10.4,13L72.6,79.8z"/>
		<path style="fill:#D1BC9D;" d="M155.6,51.3c0,0-22.1-13.8-37.3-28.1C108.8,14.3,101.1,4.6,96,2s-7.8,0-7.8,0L57.1,28
			c0,0,5.2-5.2,18.1,5.2c10.1,8.1,20.7,20.7,31.1,28.5s18.2,13,18.2,13L155.6,51.3z"/>
		<path style="fill:none;stroke:#000000;stroke-width:1.76;stroke-linecap:round;stroke-linejoin:round;" d="M155.6,51.3
			c0,0-22.1-13.8-37.3-28.1C108.8,14.3,101.1,4.6,96,2s-7.8,0-7.8,0L57.1,28c0,0,5.2-5.2,18.1,5.2c10.1,8.1,20.7,20.7,31.1,28.5
			s18.2,13,18.2,13L155.6,51.3z"/>
		<path style="fill:#998675;" d="M541.3,40.5c0,0,10.2,7.7,10.2,15.5c0,13-9.5,16-17.3,16s-13-7.8-15.5-10.4l-10.4-10.3
			c0,0,15.6-15.5,20.8-15.5S541.3,40.5,541.3,40.5"/>
		<path style="fill:none;stroke:#000000;stroke-width:1.76;stroke-linecap:round;stroke-linejoin:round;" d="M541.3,40.5
			c0,0,10.2,7.7,10.2,15.5c0,13-9.5,16-17.3,16s-13-7.8-15.5-10.4l-10.4-10.3c0,0,15.6-15.5,20.8-15.5S541.3,40.5,541.3,40.5z"/>
		<path style="fill:#D1BC9D;" d="M525.3,39.1l15.7,13.4c0,0-9-0.7-12.9,5.3s0,12.7,0,12.7l-16.2-15.5c1.3-4,3.5-7.6,6.5-10.6
			C523.3,39.6,525.3,39.1,525.3,39.1"/>
		<path style="fill:none;stroke:#000000;stroke-width:1.76;stroke-linecap:round;stroke-linejoin:round;" d="M525.3,39.1l15.7,13.4
			c0,0-9-0.7-12.9,5.3s0,12.7,0,12.7l-16.2-15.5c1.3-4,3.5-7.6,6.5-10.6C523.3,39.6,525.3,39.1,525.3,39.1z"/>
		<path style="fill:#D1BC9D;" d="M544.5,43.5l-33.7-31.1c0,0-7.8-5.2-15.5,0S477.1,28,469.3,33.1c-5.5,3.9-10.7,8.2-15.5,13
			l25.9,33.7c0,0,5.2,2.6,15.5-2.6s23.3-28.5,31.1-33.7S544.5,43.5,544.5,43.5"/>
		<path style="fill:none;stroke:#000000;stroke-width:1.76;stroke-linecap:round;stroke-linejoin:round;" d="M544.5,43.5l-33.7-31.1
			c0,0-7.8-5.2-15.5,0S477.1,28,469.3,33.1c-5.5,3.9-10.7,8.2-15.5,13l25.9,33.7c0,0,5.2,2.6,15.5-2.6s23.3-28.5,31.1-33.7
			S544.5,43.5,544.5,43.5z"/>
		<path style="fill:#998675;" d="M479.7,79.8c0,0-7.8-7.8,0-18.1s15.5-5.2,20.7-15.6S495.3,28,495.3,28s-10.4-13-31.1,7.8
			c-9.2,9.2-10.4,13-10.4,13L479.7,79.8z"/>
		<path style="fill:none;stroke:#000000;stroke-width:1.76;stroke-linecap:round;stroke-linejoin:round;" d="M479.7,79.8
			c0,0-7.8-7.8,0-18.1s15.5-5.2,20.7-15.6S495.3,28,495.3,28s-10.4-13-31.1,7.8c-9.2,9.2-10.4,13-10.4,13L479.7,79.8z"/>
		<path style="fill:#D1BC9D;" d="M396.8,51.3c0,0,22.1-13.8,37.4-28.1c9.4-8.9,17.1-18.6,22.3-21.2s7.8,0,7.8,0l31.1,26
			c0,0-5.2-5.2-18.1,5.2c-10.1,8-20.7,20.7-31.1,28.5s-18.1,13-18.1,13L396.8,51.3z"/>
		<path style="fill:none;stroke:#000000;stroke-width:1.76;stroke-linecap:round;stroke-linejoin:round;" d="M396.8,51.3
			c0,0,22.1-13.8,37.4-28.1c9.4-8.9,17.1-18.6,22.3-21.2s7.8,0,7.8,0l31.1,26c0,0-5.2-5.2-18.1,5.2c-10.1,8-20.7,20.7-31.1,28.5
			s-18.1,13-18.1,13L396.8,51.3z"/>
		<polygon style="fill:#998675;" points="119.3,59 155.6,51.3 155.6,59 		"/>
		<polygon style="fill:none;stroke:#000000;stroke-width:1.76;stroke-linecap:round;stroke-linejoin:round;" points="119.3,59 
			155.6,51.3 155.6,59 		"/>
		<polygon style="fill:#998675;" points="432.9,59 396.6,51.3 396.6,59 		"/>
		<polygon style="fill:none;stroke:#000000;stroke-width:1.76;stroke-linecap:round;stroke-linejoin:round;" points="432.9,59 
			396.6,51.3 396.6,59 		"/>
		<path style="fill:#D1BC9D;" d="M429.4,113.5H122.8c-1.9,0-3.5-1.6-3.5-3.5v0V59h313.6v51C432.9,112,431.3,113.5,429.4,113.5
			L429.4,113.5"/>
		<path style="fill:none;stroke:#000000;stroke-width:1.76;stroke-linecap:round;stroke-linejoin:round;" d="M429.4,113.5H122.8
			c-1.9,0-3.5-1.6-3.5-3.5v0V59h313.6v51C432.9,112,431.3,113.5,429.4,113.5z"/>
	</g>
</g>
</svg>
