<?xml version="1.0" encoding="utf-8"?>
<!-- Generator: Adobe Illustrator 23.0.2, SVG Export Plug-In . SVG Version: 6.00 Build 0)  -->
<svg version="1.1" id="Réteg_1" xmlns="http://www.w3.org/2000/svg" xmlns:xlink="http://www.w3.org/1999/xlink" x="0px" y="0px"
	 viewBox="0 0 483.7 140.2" style="enable-background:new 0 0 483.7 140.2;" xml:space="preserve">
<title>szalag_03</title>
<g>
	<g>
		<path style="fill:#D1BC9D;" d="M116.4,29c0,0-36.6-8.9-77.9,2.8S1,57.9,1,57.9c4.7,8.1,7,17.4,6.7,26.8C7.1,99.8,4,110,6.8,119.2
			s15.7,21,39.1,20c28.5-1.2,39.3-17.8,39.1-29.8c-0.3-15.3-23.4-42.8-23.4-42.8c8.7-2.8,17.7-4.2,26.8-4.3
			c15.7-0.3,32.7,0.8,32.7,0.8L116.4,29z M28.1,82.9l10.2-7.4L41.3,90L28.1,82.9z"/>
		<path style="fill:none;stroke:#000000;stroke-width:1.76;stroke-linecap:round;stroke-linejoin:round;" d="M116.4,29
			c0,0-36.6-8.9-77.9,2.8S1,57.9,1,57.9c4.7,8.1,7,17.4,6.7,26.8C7.1,99.8,4,110,6.8,119.2s15.7,21,39.1,20
			c28.5-1.2,39.3-17.8,39.1-29.8c-0.3-15.3-23.4-42.8-23.4-42.8c8.7-2.8,17.7-4.2,26.8-4.3c15.7-0.3,32.7,0.8,32.7,0.8L116.4,29z
			 M28.1,82.9l10.2-7.4L41.3,90L28.1,82.9z"/>
		<path style="fill:#998675;" d="M28.1,82.9L41.3,90l2.8,10.2c0,0,9.7-9.6,23.3-6.5s15.2,18,10.3,25.9c-5.4,8.7-18.5,15.1-34.2,14.8
			c-21.6-0.4-31.6-14.4-31.1-23.7C13.3,94.6,28.1,82.9,28.1,82.9"/>
		<path style="fill:none;stroke:#000000;stroke-width:1.76;stroke-linecap:round;stroke-linejoin:round;" d="M28.1,82.9L41.3,90
			l2.8,10.2c0,0,9.7-9.6,23.3-6.5s15.2,18,10.3,25.9c-5.4,8.7-18.5,15.1-34.2,14.8c-21.6-0.4-31.6-14.4-31.1-23.7
			C13.3,94.6,28.1,82.9,28.1,82.9z"/>
		<path style="fill:#D1BC9D;" d="M38.2,75.5c3.6-2.1,7.4-3.9,11.4-5.2c7.1-2.5,12-3.7,12-3.7"/>
		<path style="fill:none;stroke:#000000;stroke-width:1.76;stroke-linecap:round;stroke-linejoin:round;" d="M38.2,75.5
			c3.6-2.1,7.4-3.9,11.4-5.2c7.1-2.5,12-3.7,12-3.7"/>
		<path style="fill:#D1BC9D;" d="M362.6,63.1c0,0,17-1.2,32.7-0.8c9.1,0.1,18.1,1.6,26.8,4.3c0,0-23.1,27.6-23.4,42.8
			c-0.2,12,10.6,28.6,39.1,29.9c23.4,1,36.3-10.8,39.1-20s-0.3-19.4-0.9-34.5c-0.2-9.4,2.1-18.7,6.8-26.8c0,0,3.7-14.5-37.6-26.2
			S367.3,29,367.3,29L362.6,63.1z M442.4,90l3.1-14.5l10.2,7.4L442.4,90z"/>
		<path style="fill:none;stroke:#000000;stroke-width:1.76;stroke-linecap:round;stroke-linejoin:round;" d="M362.6,63.1
			c0,0,17-1.2,32.7-0.8c9.1,0.1,18.1,1.6,26.8,4.3c0,0-23.1,27.6-23.4,42.8c-0.2,12,10.6,28.6,39.1,29.9c23.4,1,36.3-10.8,39.1-20
			s-0.3-19.4-0.9-34.5c-0.2-9.4,2.1-18.7,6.8-26.8c0,0,3.7-14.5-37.6-26.2S367.3,29,367.3,29L362.6,63.1z M442.4,90l3.1-14.5
			l10.2,7.4L442.4,90z"/>
		<path style="fill:#998675;" d="M455.7,82.9L442.4,90l-2.8,10.2c0,0-9.7-9.6-23.3-6.5s-15.2,18-10.3,25.9
			c5.5,8.7,18.5,15.1,34.2,14.8c21.6-0.4,31.6-14.4,31.1-23.7C470.5,94.6,455.7,82.9,455.7,82.9"/>
		<path style="fill:none;stroke:#000000;stroke-width:1.76;stroke-linecap:round;stroke-linejoin:round;" d="M455.7,82.9L442.4,90
			l-2.8,10.2c0,0-9.7-9.6-23.3-6.5s-15.2,18-10.3,25.9c5.5,8.7,18.5,15.1,34.2,14.8c21.6-0.4,31.6-14.4,31.1-23.7
			C470.5,94.6,455.7,82.9,455.7,82.9z"/>
		<path style="fill:#D1BC9D;" d="M445.5,75.5c-3.6-2.1-7.4-3.9-11.4-5.2c-7.1-2.5-12-3.7-12-3.7"/>
		<path style="fill:none;stroke:#000000;stroke-width:1.76;stroke-linecap:round;stroke-linejoin:round;" d="M445.5,75.5
			c-3.6-2.1-7.4-3.9-11.4-5.2c-7.1-2.5-12-3.7-12-3.7"/>
		<polygon style="fill:#998675;" points="84.9,55.3 121.2,63.1 121.2,55.3 		"/>
		<polygon style="fill:none;stroke:#000000;stroke-width:1.76;stroke-linecap:round;stroke-linejoin:round;" points="84.9,55.3 
			121.2,63.1 121.2,55.3 		"/>
		<polygon style="fill:#998675;" points="398.5,55.3 362.2,63.1 362.2,55.3 		"/>
		<polygon style="fill:none;stroke:#000000;stroke-width:1.76;stroke-linecap:round;stroke-linejoin:round;" points="398.5,55.3 
			362.2,63.1 362.2,55.3 		"/>
		<path style="fill:#D1BC9D;" d="M395,0.9H88.3c-1.9,0-3.5,1.6-3.5,3.5c0,0,0,0,0,0v51h313.6v-51C398.5,2.4,396.9,0.9,395,0.9
			C395,0.9,395,0.9,395,0.9"/>
		<path style="fill:none;stroke:#000000;stroke-width:1.76;stroke-linecap:round;stroke-linejoin:round;" d="M395,0.9H88.3
			c-1.9,0-3.5,1.6-3.5,3.5c0,0,0,0,0,0v51h313.6v-51C398.5,2.4,396.9,0.9,395,0.9C395,0.9,395,0.9,395,0.9z"/>
	</g>
</g>
</svg>
