<?xml version="1.0" encoding="utf-8"?>
<!-- Generator: Adobe Illustrator 23.0.2, SVG Export Plug-In . SVG Version: 6.00 Build 0)  -->
<svg version="1.1" id="Réteg_1" xmlns="http://www.w3.org/2000/svg" xmlns:xlink="http://www.w3.org/1999/xlink" x="0px" y="0px"
	 viewBox="0 0 529.7 126.8" style="enable-background:new 0 0 529.7 126.8;" xml:space="preserve">
<title>szalag_01</title>
<g>
	<g>
		<path style="fill:#998675;" d="M5.8,112.9c0,0,1.2,5.2,16,9.6s19.7,3.4,19.7,3.4c-2.1-7-2.8-14.4-2-21.7
			c1.4-12.5,3.2-16.2,3.2-16.2s-11.1,4-22.5,7.4s-12.9,6.5-14.8,9.5S5.8,112.9,5.8,112.9"/>
		<path style="fill:none;stroke:#000000;stroke-width:1.76;stroke-linecap:round;stroke-linejoin:round;" d="M5.8,112.9
			c0,0,1.2,5.2,16,9.6s19.7,3.4,19.7,3.4c-2.1-7-2.8-14.4-2-21.7c1.4-12.5,3.2-16.2,3.2-16.2s-11.1,4-22.5,7.4s-12.9,6.5-14.8,9.5
			S5.8,112.9,5.8,112.9z"/>
		<path style="fill:#D1BC9D;" d="M118.8,90.4c0,0,0.6,8.3-28.3,9.6s-61.9-2.2-73.9,1.8S5.8,112.9,5.8,112.9s-5.2-2.1-4.9-22.5
			S4,66.1,8,63s16.3-3.1,28.6-2.8s46.9-1.7,52.4-3.1c4.6-1.2,9.2-2.7,13.6-4.6c0,0,7.7,11.7,10.8,20.6S118.9,90.4,118.8,90.4"/>
		<path style="fill:none;stroke:#000000;stroke-width:1.76;stroke-linecap:round;stroke-linejoin:round;" d="M118.8,90.4
			c0,0,0.6,8.3-28.3,9.6s-61.9-2.2-73.9,1.8S5.8,112.9,5.8,112.9s-5.2-2.1-4.9-22.5S4,66.1,8,63s16.3-3.1,28.6-2.8
			s46.9-1.7,52.4-3.1c4.6-1.2,9.2-2.7,13.6-4.6c0,0,7.7,11.7,10.8,20.6S118.8,90.4,118.8,90.4z"/>
		<path style="fill:#998675;" d="M60.6,87c0,0,0.7,4.9,21.9,3.7s23.6-7.9,32.1-4.8c2.1,0.6,3.7,2.4,4.2,4.5c0,0-4-15.7-5.5-19.4
			s-5.6-12-5.6-12s-7.3-1.9-24.9,4.3C50.5,74.7,60.6,87,60.6,87"/>
		<path style="fill:none;stroke:#000000;stroke-width:1.76;stroke-linecap:round;stroke-linejoin:round;" d="M60.6,87
			c0,0,0.7,4.9,21.9,3.7s23.6-7.9,32.1-4.8c2.1,0.6,3.7,2.4,4.2,4.5c0,0-4-15.7-5.5-19.4s-5.6-12-5.6-12s-7.3-1.9-24.9,4.3
			C50.5,74.7,60.6,87,60.6,87z"/>
		<path style="fill:#D1BC9D;" d="M134.9,27.6c-15.9-2-32-0.8-47.4,3.4c-25,7-29.3,10.8-31.4,14.8s-0.1,21.1,0.9,30.5
			c0.5,3.7,1.8,7.2,3.8,10.3c0,0-2.9-6.9,18-14.6s44-9.9,50.8-10.2c4.8-0.1,9.6,0.4,14.3,1.3L134.9,27.6z"/>
		<path style="fill:none;stroke:#000000;stroke-width:1.76;stroke-linecap:round;stroke-linejoin:round;" d="M134.9,27.6
			c-15.9-2-32-0.8-47.4,3.4c-25,7-29.3,10.8-31.4,14.8s-0.1,21.1,0.9,30.5c0.5,3.7,1.8,7.2,3.8,10.3c0,0-2.9-6.9,18-14.6
			s44-9.9,50.8-10.2c4.8-0.1,9.6,0.4,14.3,1.3L134.9,27.6z"/>
		<path style="fill:#998675;" d="M523.9,112.9c0,0-1.2,5.2-16,9.6s-19.7,3.4-19.7,3.4c2.1-7,2.8-14.4,2-21.7
			c-1.4-12.5-3.2-16.2-3.2-16.2s11.1,4,22.5,7.4s12.9,6.5,14.8,9.6S523.9,112.9,523.9,112.9"/>
		<path style="fill:none;stroke:#000000;stroke-width:1.76;stroke-linecap:round;stroke-linejoin:round;" d="M523.9,112.9
			c0,0-1.2,5.2-16,9.6s-19.7,3.4-19.7,3.4c2.1-7,2.8-14.4,2-21.7c-1.4-12.5-3.2-16.2-3.2-16.2s11.1,4,22.5,7.4s12.9,6.5,14.8,9.6
			S523.9,112.9,523.9,112.9z"/>
		<path style="fill:#D1BC9D;" d="M410.9,90.4c0,0-0.6,8.3,28.3,9.6s61.9-2.2,73.9,1.8s10.8,11.1,10.8,11.1s5.2-2.2,4.9-22.5
			s-3.1-24.3-7.1-27.4s-16.3-3.1-28.6-2.8s-46.9-1.7-52.4-3.1c-4.6-1.2-9.2-2.7-13.5-4.6c0,0-7.7,11.7-10.8,20.6
			S410.9,90.4,410.9,90.4"/>
		<path style="fill:none;stroke:#000000;stroke-width:1.76;stroke-linecap:round;stroke-linejoin:round;" d="M410.9,90.4
			c0,0-0.6,8.3,28.3,9.6s61.9-2.2,73.9,1.8s10.8,11.1,10.8,11.1s5.2-2.2,4.9-22.5s-3.1-24.3-7.1-27.4s-16.3-3.1-28.6-2.8
			s-46.9-1.7-52.4-3.1c-4.6-1.2-9.2-2.7-13.5-4.6c0,0-7.7,11.7-10.8,20.6S410.9,90.4,410.9,90.4z"/>
		<path style="fill:#998675;" d="M469.1,87c0,0-0.7,4.9-21.9,3.7s-23.6-7.9-32.1-4.8c-2.1,0.6-3.7,2.4-4.2,4.5c0,0,4-15.7,5.5-19.4
			s5.5-12,5.5-12s7.3-1.9,25,4.3C479.2,74.7,469.1,87,469.1,87"/>
		<path style="fill:none;stroke:#000000;stroke-width:1.76;stroke-linecap:round;stroke-linejoin:round;" d="M469.1,87
			c0,0-0.7,4.9-21.9,3.7s-23.6-7.9-32.1-4.8c-2.1,0.6-3.7,2.4-4.2,4.5c0,0,4-15.7,5.5-19.4s5.5-12,5.5-12s7.3-1.9,25,4.3
			C479.2,74.7,469.1,87,469.1,87z"/>
		<path style="fill:#D1BC9D;" d="M394.8,27.6c15.9-2,32-0.8,47.4,3.4c24.9,7.1,29.3,10.8,31.4,14.8s0.1,21.1-0.9,30.5
			c-0.5,3.7-1.8,7.2-3.9,10.3c0,0,2.9-6.9-18-14.6s-44-9.9-50.8-10.2c-4.8-0.1-9.6,0.4-14.3,1.3L394.8,27.6z"/>
		<path style="fill:none;stroke:#000000;stroke-width:1.76;stroke-linecap:round;stroke-linejoin:round;" d="M394.8,27.6
			c15.9-2,32-0.8,47.4,3.4c24.9,7.1,29.3,10.8,31.4,14.8s0.1,21.1-0.9,30.5c-0.5,3.7-1.8,7.2-3.9,10.3c0,0,2.9-6.9-18-14.6
			s-44-9.9-50.8-10.2c-4.8-0.1-9.6,0.4-14.3,1.3L394.8,27.6z"/>
		<polygon style="fill:#998675;" points="107.6,55.3 143.9,63.1 143.9,55.3 		"/>
		<polygon style="fill:none;stroke:#000000;stroke-width:1.76;stroke-linecap:round;stroke-linejoin:round;" points="107.6,55.3 
			143.9,63.1 143.9,55.3 		"/>
		<polygon style="fill:#998675;" points="421.2,55.3 384.9,63.1 384.9,55.3 		"/>
		<polygon style="fill:none;stroke:#000000;stroke-width:1.76;stroke-linecap:round;stroke-linejoin:round;" points="421.2,55.3 
			384.9,63.1 384.9,55.3 		"/>
		<path style="fill:#D1BC9D;" d="M417.7,0.9H111.1c-1.9,0-3.5,1.6-3.5,3.5c0,0,0,0,0,0v51h313.6v-51C421.2,2.4,419.7,0.9,417.7,0.9"
			/>
		<path style="fill:none;stroke:#000000;stroke-width:1.76;stroke-linecap:round;stroke-linejoin:round;" d="M417.7,0.9H111.1
			c-1.9,0-3.5,1.6-3.5,3.5c0,0,0,0,0,0v51h313.6v-51C421.2,2.4,419.7,0.9,417.7,0.9z"/>
	</g>
</g>
</svg>
