<?xml version="1.0" encoding="utf-8"?>
<!-- Generator: Adobe Illustrator 23.0.2, SVG Export Plug-In . SVG Version: 6.00 Build 0)  -->
<svg version="1.1" id="Réteg_1" xmlns="http://www.w3.org/2000/svg" xmlns:xlink="http://www.w3.org/1999/xlink" x="0px" y="0px"
	 viewBox="0 0 137.7 83" style="enable-background:new 0 0 137.7 83;" xml:space="preserve">
<title>sisakdisz_02</title>
<g>
	<g>
		<path style="fill:#FFD200;" d="M11.3,43.5l-4.9-37c0,0,6.1,34,12.5,32.1S17.4,6.4,17.4,6.4s7,33,13.5,35c4.7,1.5,1-35,1-35
			s3.5,38.3,12.4,38.2S51,6.4,51,6.4s1.5,38.8,9.5,39.4S70,6.4,70,6.4s-0.3,37.3,6.6,39.4S87.8,6.4,87.8,6.4s-1.9,36.4,5.3,38.2
			S105,6.4,105,6.4s-2.6,35.5,2.4,35.9s12.2-35.9,12.2-35.9s-5.8,33.3-1,32.7s12.6-32.7,12.6-32.7l-5.3,37c0,0-20.4,21.3-58.1,19.3
			S11.3,43.5,11.3,43.5"/>
		<path style="fill:none;stroke:#000000;stroke-width:1.76;stroke-linecap:round;stroke-linejoin:round;" d="M11.3,43.5l-4.9-37
			c0,0,6.1,34,12.5,32.1S17.4,6.4,17.4,6.4s7,33,13.5,35c4.7,1.5,1-35,1-35s3.5,38.3,12.4,38.2S51,6.4,51,6.4s1.5,38.8,9.5,39.4
			S70,6.4,70,6.4s-0.3,37.3,6.6,39.4S87.8,6.4,87.8,6.4s-1.9,36.4,5.3,38.2S105,6.4,105,6.4s-2.6,35.5,2.4,35.9s12.2-35.9,12.2-35.9
			s-5.8,33.3-1,32.7s12.6-32.7,12.6-32.7l-5.3,37c0,0-20.4,21.3-58.1,19.3S11.3,43.5,11.3,43.5z"/>
		<path style="fill:#FFD200;" d="M11.3,43.5v22.9c0,0,6.8,15.8,59,15.8c49.5,0,55.7-16.4,55.7-16.4V43.5c0,0-17,11-57.3,11
			S11.4,43.5,11.3,43.5"/>
		<path style="fill:none;stroke:#000000;stroke-width:1.76;stroke-linecap:round;stroke-linejoin:round;" d="M11.3,43.5v22.9
			c0,0,6.8,15.8,59,15.8c49.5,0,55.7-16.4,55.7-16.4V43.5c0,0-17,11-57.3,11S11.3,43.5,11.3,43.5z"/>
		<path style="fill:none;stroke:#000000;stroke-width:1.76;stroke-linecap:round;stroke-linejoin:round;" d="M126,48.8
			c0,0-13.8,11.6-57.7,11.6s-57-11.6-57-11.6l6.8-2.2"/>
		<path style="fill:none;stroke:#000000;stroke-width:1.76;stroke-linecap:round;stroke-linejoin:round;" d="M11.3,61.1
			c0,0,13.1,15,57,15s57.7-15,57.7-15"/>
		
			<line style="fill:none;stroke:#000000;stroke-width:1.76;stroke-linecap:round;stroke-linejoin:round;" x1="17.8" y1="52.5" x2="25.9" y2="49.3"/>
		
			<line style="fill:none;stroke:#000000;stroke-width:1.76;stroke-linecap:round;stroke-linejoin:round;" x1="24.8" y1="55.1" x2="33.9" y2="51.2"/>
		
			<line style="fill:none;stroke:#000000;stroke-width:1.76;stroke-linecap:round;stroke-linejoin:round;" x1="32.9" y1="57.2" x2="43.3" y2="52.8"/>
		
			<line style="fill:none;stroke:#000000;stroke-width:1.76;stroke-linecap:round;stroke-linejoin:round;" x1="42.6" y1="58.9" x2="53.3" y2="53.9"/>
		
			<line style="fill:none;stroke:#000000;stroke-width:1.76;stroke-linecap:round;stroke-linejoin:round;" x1="53.9" y1="60" x2="64.3" y2="54.5"/>
		
			<line style="fill:none;stroke:#000000;stroke-width:1.76;stroke-linecap:round;stroke-linejoin:round;" x1="64.8" y1="60.4" x2="75.2" y2="54.5"/>
		
			<line style="fill:none;stroke:#000000;stroke-width:1.76;stroke-linecap:round;stroke-linejoin:round;" x1="76.6" y1="60.3" x2="86.7" y2="53.7"/>
		
			<line style="fill:none;stroke:#000000;stroke-width:1.76;stroke-linecap:round;stroke-linejoin:round;" x1="87.8" y1="59.6" x2="96.3" y2="52.5"/>
		
			<line style="fill:none;stroke:#000000;stroke-width:1.76;stroke-linecap:round;stroke-linejoin:round;" x1="98.6" y1="58.2" x2="105" y2="50.9"/>
		
			<line style="fill:none;stroke:#000000;stroke-width:1.76;stroke-linecap:round;stroke-linejoin:round;" x1="107.4" y1="56.4" x2="112.3" y2="49"/>
		
			<line style="fill:none;stroke:#000000;stroke-width:1.76;stroke-linecap:round;stroke-linejoin:round;" x1="115.3" y1="54.1" x2="118.6" y2="46.9"/>
		
			<line style="fill:none;stroke:#000000;stroke-width:1.76;stroke-linecap:round;stroke-linejoin:round;" x1="122" y1="51.2" x2="125.1" y2="43.9"/>
		
			<line style="fill:none;stroke:#000000;stroke-width:1.76;stroke-linecap:round;stroke-linejoin:round;" x1="12.1" y1="67.5" x2="16" y2="64.7"/>
		
			<line style="fill:none;stroke:#000000;stroke-width:1.76;stroke-linecap:round;stroke-linejoin:round;" x1="15.1" y1="70.4" x2="20.6" y2="67.3"/>
		
			<line style="fill:none;stroke:#000000;stroke-width:1.76;stroke-linecap:round;stroke-linejoin:round;" x1="19" y1="73" x2="25.4" y2="69.4"/>
		
			<line style="fill:none;stroke:#000000;stroke-width:1.76;stroke-linecap:round;stroke-linejoin:round;" x1="24.4" y1="75.6" x2="31.8" y2="71.6"/>
		
			<line style="fill:none;stroke:#000000;stroke-width:1.76;stroke-linecap:round;stroke-linejoin:round;" x1="30.9" y1="77.7" x2="39.1" y2="73.4"/>
		
			<line style="fill:none;stroke:#000000;stroke-width:1.76;stroke-linecap:round;stroke-linejoin:round;" x1="38.6" y1="79.5" x2="47.9" y2="74.8"/>
		
			<line style="fill:none;stroke:#000000;stroke-width:1.76;stroke-linecap:round;stroke-linejoin:round;" x1="47.5" y1="80.9" x2="57.1" y2="75.7"/>
		
			<line style="fill:none;stroke:#000000;stroke-width:1.76;stroke-linecap:round;stroke-linejoin:round;" x1="57.7" y1="81.8" x2="67.9" y2="76.1"/>
		
			<line style="fill:none;stroke:#000000;stroke-width:1.76;stroke-linecap:round;stroke-linejoin:round;" x1="68.2" y1="82.1" x2="77.8" y2="75.8"/>
		
			<line style="fill:none;stroke:#000000;stroke-width:1.76;stroke-linecap:round;stroke-linejoin:round;" x1="79.4" y1="81.9" x2="87.8" y2="74.9"/>
		
			<line style="fill:none;stroke:#000000;stroke-width:1.76;stroke-linecap:round;stroke-linejoin:round;" x1="89.2" y1="81.2" x2="96.3" y2="73.6"/>
		
			<line style="fill:none;stroke:#000000;stroke-width:1.76;stroke-linecap:round;stroke-linejoin:round;" x1="99.2" y1="79.7" x2="105" y2="71.6"/>
		
			<line style="fill:none;stroke:#000000;stroke-width:1.76;stroke-linecap:round;stroke-linejoin:round;" x1="107.8" y1="77.2" x2="112.3" y2="69.1"/>
		
			<line style="fill:none;stroke:#000000;stroke-width:1.76;stroke-linecap:round;stroke-linejoin:round;" x1="115.5" y1="74.5" x2="118.6" y2="66.2"/>
		
			<line style="fill:none;stroke:#000000;stroke-width:1.76;stroke-linecap:round;stroke-linejoin:round;" x1="122" y1="70.4" x2="123.6" y2="63.1"/>
		<path style="fill:#DC281E;" d="M73.5,68.4c0,3.1-2.5,5.6-5.6,5.6c-3.1,0-5.6-2.5-5.6-5.6c0-3.1,2.5-5.6,5.6-5.6l0,0
			C71,62.8,73.5,65.3,73.5,68.4"/>
		
			<circle style="fill:none;stroke:#000000;stroke-width:1.76;stroke-linecap:round;stroke-linejoin:round;" cx="67.9" cy="68.4" r="5.6"/>
		<path style="fill:#DC281E;" d="M35,63.8c0,2.7-1.8,5-4.1,5s-4.1-2.2-4.1-5s1.8-5,4.1-5S35,61.1,35,63.8"/>
		<path style="fill:none;stroke:#000000;stroke-width:1.76;stroke-linecap:round;stroke-linejoin:round;" d="M35,63.8
			c0,2.7-1.8,5-4.1,5s-4.1-2.2-4.1-5s1.8-5,4.1-5S35,61.1,35,63.8z"/>
		<polygon style="fill:#0039A6;" points="57.5,72.6 53,72.3 53,62.7 57.5,63.1 		"/>
		<polygon style="fill:none;stroke:#000000;stroke-width:1.76;stroke-linecap:round;stroke-linejoin:round;" points="57.5,72.6 
			53,72.3 53,62.7 57.5,63.1 		"/>
		<polygon style="fill:#0039A6;" points="49.8,71.6 45.8,71.2 45.8,62.3 49.8,62.7 		"/>
		<polygon style="fill:none;stroke:#000000;stroke-width:1.76;stroke-linecap:round;stroke-linejoin:round;" points="49.8,71.6 
			45.8,71.2 45.8,62.3 49.8,62.7 		"/>
		<polygon style="fill:#0039A6;" points="23.6,65.5 20.7,64.1 20.7,56.7 23.6,58 		"/>
		<polygon style="fill:none;stroke:#000000;stroke-width:1.76;stroke-linecap:round;stroke-linejoin:round;" points="23.6,65.5 
			20.7,64.1 20.7,56.7 23.6,58 		"/>
		<polygon style="fill:#0039A6;" points="17.4,62.3 14.5,61 14.5,53.6 17.4,54.9 		"/>
		<polygon style="fill:none;stroke:#000000;stroke-width:1.76;stroke-linecap:round;stroke-linejoin:round;" points="17.4,62.3 
			14.5,61 14.5,53.6 17.4,54.9 		"/>
		<polygon style="fill:#0039A6;" points="42.5,70.8 38.6,70.4 38.6,61.5 42.5,61.9 		"/>
		<polygon style="fill:none;stroke:#000000;stroke-width:1.76;stroke-linecap:round;stroke-linejoin:round;" points="42.5,70.8 
			38.6,70.4 38.6,61.5 42.5,61.9 		"/>
		<path style="fill:#DC281E;" d="M100.4,64.3c0,2.8,1.8,5,4.1,5s4.1-2.2,4.1-5s-1.8-5-4.1-5S100.4,61.6,100.4,64.3"/>
		
			<ellipse style="fill:none;stroke:#000000;stroke-width:1.76;stroke-linecap:round;stroke-linejoin:round;" cx="104.5" cy="64.3" rx="4.1" ry="5"/>
		<polygon style="fill:#0039A6;" points="78.1,72.6 82.6,72.3 82.6,62.7 78.1,63.1 		"/>
		<polygon style="fill:none;stroke:#000000;stroke-width:1.76;stroke-linecap:round;stroke-linejoin:round;" points="78.1,72.6 
			82.6,72.3 82.6,62.7 78.1,63.1 		"/>
		<polygon style="fill:#0039A6;" points="85.8,71.6 89.8,71.2 89.8,62.3 85.8,62.7 		"/>
		<polygon style="fill:none;stroke:#000000;stroke-width:1.76;stroke-linecap:round;stroke-linejoin:round;" points="85.8,71.6 
			89.8,71.2 89.8,62.3 85.8,62.7 		"/>
		<polygon style="fill:#0039A6;" points="111.9,66.2 114.9,64.9 114.9,57.5 111.9,58.8 		"/>
		<polygon style="fill:none;stroke:#000000;stroke-width:1.76;stroke-linecap:round;stroke-linejoin:round;" points="111.9,66.2 
			114.9,64.9 114.9,57.5 111.9,58.8 		"/>
		<polygon style="fill:#0039A6;" points="118.2,63.1 121.1,61.7 121.1,54.3 118.2,55.7 		"/>
		<polygon style="fill:none;stroke:#000000;stroke-width:1.76;stroke-linecap:round;stroke-linejoin:round;" points="118.2,63.1 
			121.1,61.7 121.1,54.3 118.2,55.7 		"/>
		<polygon style="fill:#0039A6;" points="93.1,70.8 97,70.4 97,61.5 93.1,61.9 		"/>
		<polygon style="fill:none;stroke:#000000;stroke-width:1.76;stroke-linecap:round;stroke-linejoin:round;" points="93.1,70.8 
			97,70.4 97,61.5 93.1,61.9 		"/>
		<path style="fill:#E6E6E6;" d="M75.2,6.8c0,3.1-2.5,5.6-5.6,5.6s-5.6-2.5-5.6-5.6s2.5-5.6,5.6-5.6l0,0C72.7,1.3,75.2,3.7,75.2,6.8
			"/>
		<path style="fill:none;stroke:#000000;stroke-width:1.76;stroke-linecap:round;stroke-linejoin:round;" d="M75.2,6.8
			c0,3.1-2.5,5.6-5.6,5.6s-5.6-2.5-5.6-5.6s2.5-5.6,5.6-5.6l0,0C72.7,1.3,75.2,3.7,75.2,6.8z"/>
		<path style="fill:#E6E6E6;" d="M70,4.2c-1.7,0.1-2.9,1.5-2.8,3.2c0,0,0,0,0,0.1"/>
		<path style="fill:none;stroke:#000000;stroke-width:1.76;stroke-linecap:round;stroke-linejoin:round;" d="M70,4.2
			c-1.7,0.1-2.9,1.5-2.8,3.2c0,0,0,0,0,0.1"/>
		<path style="fill:#E6E6E6;" d="M93.3,6.8c0,3.1-2.5,5.6-5.6,5.6s-5.6-2.5-5.6-5.6s2.5-5.6,5.6-5.6l0,0C90.8,1.3,93.3,3.7,93.3,6.8
			"/>
		<path style="fill:none;stroke:#000000;stroke-width:1.76;stroke-linecap:round;stroke-linejoin:round;" d="M93.3,6.8
			c0,3.1-2.5,5.6-5.6,5.6s-5.6-2.5-5.6-5.6s2.5-5.6,5.6-5.6l0,0C90.8,1.3,93.3,3.7,93.3,6.8z"/>
		<path style="fill:#E6E6E6;" d="M88.1,4.2c-1.7,0.1-2.9,1.5-2.8,3.2c0,0,0,0,0,0.1"/>
		<path style="fill:none;stroke:#000000;stroke-width:1.76;stroke-linecap:round;stroke-linejoin:round;" d="M88.1,4.2
			c-1.7,0.1-2.9,1.5-2.8,3.2c0,0,0,0,0,0.1"/>
		<path style="fill:#E6E6E6;" d="M110.5,6.8c0,3.1-2.5,5.6-5.6,5.6c-3.1,0-5.6-2.5-5.6-5.6c0-3.1,2.5-5.6,5.6-5.6c0,0,0,0,0,0
			C108.1,1.3,110.6,3.7,110.5,6.8"/>
		<path style="fill:none;stroke:#000000;stroke-width:1.76;stroke-linecap:round;stroke-linejoin:round;" d="M110.5,6.8
			c0,3.1-2.5,5.6-5.6,5.6c-3.1,0-5.6-2.5-5.6-5.6c0-3.1,2.5-5.6,5.6-5.6c0,0,0,0,0,0C108.1,1.3,110.5,3.8,110.5,6.8z"/>
		<path style="fill:#E6E6E6;" d="M105.3,4.2c-1.7,0.1-2.9,1.5-2.8,3.2c0,0,0,0,0,0.1"/>
		<path style="fill:none;stroke:#000000;stroke-width:1.76;stroke-linecap:round;stroke-linejoin:round;" d="M105.3,4.2
			c-1.7,0.1-2.9,1.5-2.8,3.2c0,0,0,0,0,0.1"/>
		<path style="fill:#E6E6E6;" d="M136.8,6.8c0,3.1-2.5,5.6-5.6,5.6c-3.1,0-5.6-2.5-5.6-5.6s2.5-5.6,5.6-5.6
			C134.3,1.2,136.8,3.7,136.8,6.8C136.8,6.8,136.8,6.8,136.8,6.8"/>
		<path style="fill:none;stroke:#000000;stroke-width:1.76;stroke-linecap:round;stroke-linejoin:round;" d="M136.8,6.8
			c0,3.1-2.5,5.6-5.6,5.6c-3.1,0-5.6-2.5-5.6-5.6s2.5-5.6,5.6-5.6C134.3,1.2,136.8,3.7,136.8,6.8C136.8,6.8,136.8,6.8,136.8,6.8z"/>
		<path style="fill:#E6E6E6;" d="M131.6,4.2c-1.7,0.1-2.9,1.5-2.8,3.2c0,0,0,0,0,0.1"/>
		<path style="fill:none;stroke:#000000;stroke-width:1.76;stroke-linecap:round;stroke-linejoin:round;" d="M131.6,4.2
			c-1.7,0.1-2.9,1.5-2.8,3.2c0,0,0,0,0,0.1"/>
		<path style="fill:#E6E6E6;" d="M56.3,6.8c0,3.1-2.5,5.6-5.6,5.6s-5.6-2.5-5.6-5.6s2.5-5.6,5.6-5.6l0,0C53.8,1.3,56.3,3.7,56.3,6.8
			"/>
		<path style="fill:none;stroke:#000000;stroke-width:1.76;stroke-linecap:round;stroke-linejoin:round;" d="M56.3,6.8
			c0,3.1-2.5,5.6-5.6,5.6s-5.6-2.5-5.6-5.6s2.5-5.6,5.6-5.6l0,0C53.8,1.3,56.3,3.7,56.3,6.8z"/>
		<path style="fill:#E6E6E6;" d="M51.1,4.2c-1.7,0.1-2.9,1.5-2.8,3.2c0,0,0,0,0,0.1"/>
		<path style="fill:none;stroke:#000000;stroke-width:1.76;stroke-linecap:round;stroke-linejoin:round;" d="M51.1,4.2
			c-1.7,0.1-2.9,1.5-2.8,3.2c0,0,0,0,0,0.1"/>
		<path style="fill:#E6E6E6;" d="M37.4,6.8c0,3.1-2.5,5.6-5.6,5.6c-3.1,0-5.6-2.5-5.6-5.6c0-3.1,2.5-5.6,5.6-5.6c0,0,0,0,0,0
			C34.9,1.2,37.4,3.7,37.4,6.8C37.4,6.8,37.4,6.8,37.4,6.8"/>
		<path style="fill:none;stroke:#000000;stroke-width:1.76;stroke-linecap:round;stroke-linejoin:round;" d="M37.4,6.8
			c0,3.1-2.5,5.6-5.6,5.6c-3.1,0-5.6-2.5-5.6-5.6c0-3.1,2.5-5.6,5.6-5.6c0,0,0,0,0,0C34.9,1.2,37.4,3.7,37.4,6.8
			C37.4,6.8,37.4,6.8,37.4,6.8z"/>
		<path style="fill:#E6E6E6;" d="M32.2,4.2c-1.7,0.1-2.9,1.5-2.8,3.2c0,0,0,0,0,0.1"/>
		<path style="fill:none;stroke:#000000;stroke-width:1.76;stroke-linecap:round;stroke-linejoin:round;" d="M32.2,4.2
			c-1.7,0.1-2.9,1.5-2.8,3.2c0,0,0,0,0,0.1"/>
		<path style="fill:#E6E6E6;" d="M12,6.4C12,9.5,9.5,12,6.4,12c-3.1,0-5.6-2.5-5.6-5.6s2.5-5.6,5.6-5.6c0,0,0,0,0,0
			C9.5,0.9,12,3.4,12,6.4"/>
		<path style="fill:none;stroke:#000000;stroke-width:1.76;stroke-linecap:round;stroke-linejoin:round;" d="M12,6.4
			C12,9.5,9.5,12,6.4,12c-3.1,0-5.6-2.5-5.6-5.6s2.5-5.6,5.6-5.6c0,0,0,0,0,0C9.5,0.9,12,3.4,12,6.4z"/>
		<path style="fill:#E6E6E6;" d="M6.8,3.8C5.2,3.9,3.9,5.3,4,7C4,7,4,7,4,7.1"/>
		<path style="fill:none;stroke:#000000;stroke-width:1.76;stroke-linecap:round;stroke-linejoin:round;" d="M6.8,3.8
			C5.2,3.9,3.9,5.3,4,7C4,7,4,7,4,7.1"/>
		<path style="fill:#E6E6E6;" d="M23,6.4c0,3.1-2.5,5.6-5.6,5.6s-5.6-2.5-5.6-5.6s2.5-5.6,5.6-5.6c0,0,0,0,0,0
			C20.5,0.9,23,3.4,23,6.4"/>
		<path style="fill:none;stroke:#000000;stroke-width:1.76;stroke-linecap:round;stroke-linejoin:round;" d="M23,6.4
			c0,3.1-2.5,5.6-5.6,5.6s-5.6-2.5-5.6-5.6s2.5-5.6,5.6-5.6c0,0,0,0,0,0C20.5,0.9,23,3.4,23,6.4z"/>
		<path style="fill:#E6E6E6;" d="M17.8,3.8C16.1,3.9,14.9,5.3,15,7c0,0,0,0,0,0.1"/>
		<path style="fill:none;stroke:#000000;stroke-width:1.76;stroke-linecap:round;stroke-linejoin:round;" d="M17.8,3.8
			C16.1,3.9,14.9,5.3,15,7c0,0,0,0,0,0.1"/>
		<path style="fill:#E6E6E6;" d="M125.2,6.8c0,3.1-2.5,5.6-5.6,5.6s-5.6-2.5-5.6-5.6s2.5-5.6,5.6-5.6l0,0
			C122.7,1.3,125.2,3.7,125.2,6.8"/>
		<path style="fill:none;stroke:#000000;stroke-width:1.76;stroke-linecap:round;stroke-linejoin:round;" d="M125.2,6.8
			c0,3.1-2.5,5.6-5.6,5.6s-5.6-2.5-5.6-5.6s2.5-5.6,5.6-5.6l0,0C122.7,1.3,125.2,3.7,125.2,6.8z"/>
		<path style="fill:#E6E6E6;" d="M120,4.2c-1.7,0.1-2.9,1.5-2.8,3.2c0,0,0,0,0,0.1"/>
		<path style="fill:none;stroke:#000000;stroke-width:1.76;stroke-linecap:round;stroke-linejoin:round;" d="M120,4.2
			c-1.7,0.1-2.9,1.5-2.8,3.2c0,0,0,0,0,0.1"/>
		<path style="fill:none;stroke:#000000;stroke-width:1.76;stroke-linecap:round;stroke-linejoin:round;" d="M14,40
			c1,1.4,2.7,2.3,4.4,2.3c3.2,0.2,5.2-3.3,5.2-3.3"/>
		<path style="fill:none;stroke:#000000;stroke-width:1.76;stroke-linecap:round;stroke-linejoin:round;" d="M25.9,41.9
			c0,0,0.6,3.5,5,4s5.3-4,5.3-4"/>
		<path style="fill:none;stroke:#000000;stroke-width:1.76;stroke-linecap:round;stroke-linejoin:round;" d="M38.6,45.4
			c0,0,0.3,2.5,4.7,3.1s7.8-4,7.8-4"/>
		<path style="fill:none;stroke:#000000;stroke-width:1.76;stroke-linecap:round;stroke-linejoin:round;" d="M54.3,46.5
			c1.1,2.4,3.6,4,6.3,4c4.6,0,6.7-4.5,6.7-4.5"/>
		<path style="fill:none;stroke:#000000;stroke-width:1.76;stroke-linecap:round;stroke-linejoin:round;" d="M71.1,45.4
			c0,0,1.8,4.7,6.8,4.7s6.5-5.6,6.5-5.6"/>
		<path style="fill:none;stroke:#000000;stroke-width:1.76;stroke-linecap:round;stroke-linejoin:round;" d="M88.1,44.9
			c0,0,0,3,4.6,3.7s6.7-3.7,6.7-3.7"/>
		<path style="fill:none;stroke:#000000;stroke-width:1.76;stroke-linecap:round;stroke-linejoin:round;" d="M103,43.5
			c0,0,0,3,3.9,3c2.3,0,4.4-1.4,5.3-3.5"/>
		<path style="fill:none;stroke:#000000;stroke-width:1.76;stroke-linecap:round;stroke-linejoin:round;" d="M115.5,41.4
			c0,0,0.4,1.6,3.6,1.6c2.3,0,3.6-3.2,3.6-3.2"/>
	</g>
</g>
</svg>
