<?xml version="1.0" encoding="utf-8"?>
<!-- Generator: Adobe Illustrator 23.0.2, SVG Export Plug-In . SVG Version: 6.00 Build 0)  -->
<svg version="1.1" id="Réteg_1" xmlns="http://www.w3.org/2000/svg" xmlns:xlink="http://www.w3.org/1999/xlink" x="0px" y="0px"
	 viewBox="0 0 124.6 167.3" style="enable-background:new 0 0 124.6 167.3;" xml:space="preserve">
<title>sisakdisz_05</title>
<g>
	<g>
		<path style="fill:#8FA3B9;" d="M31.9,122.8v6.8c0,0-14.4,6.2-18.3,15.3c-5.1,12-2.6,19.5-2.6,19.5s23.2,4.2,61.9,0.4
			s48.5-17,48.5-17l-21.7-20.4c0,0,16.6-18.3,21.7-50.9s0-29.7,0-29.7s7.5-36.5-24.3-44.6S50.4,24.6,50.4,24.6l-4.6-1.3L32.3,49.4
			c0,0-6.8,2.5-18.7,11.4S0.9,75.7,0.9,75.7l26.7,48L31.9,122.8z"/>
		<path style="fill:none;stroke:#000000;stroke-width:1.76;stroke-linecap:round;stroke-linejoin:round;" d="M31.9,122.8v6.8
			c0,0-14.4,6.2-18.3,15.3c-5.1,12-2.6,19.5-2.6,19.5s23.2,4.2,61.9,0.4s48.5-17,48.5-17l-21.7-20.4c0,0,16.6-18.3,21.7-50.9
			s0-29.7,0-29.7s7.5-36.5-24.3-44.6S50.4,24.6,50.4,24.6l-4.6-1.3L32.3,49.4c0,0-6.8,2.5-18.7,11.4S0.9,75.7,0.9,75.7l26.7,48
			L31.9,122.8z"/>
		<path style="fill:none;stroke:#000000;stroke-width:1.76;stroke-linecap:round;stroke-linejoin:round;" d="M31.9,122.8
			c0,0,37.5-11,40.3-11.3s26.3-29,33.4-39.3s15-22.4,11.3-29s-6-1.4-17,5.9S67.4,70.4,47.9,74.1S14.1,78.3,8,77.8s-7.1-2.1-7.1-2.1"
			/>
		<path style="fill:none;stroke:#000000;stroke-width:1.76;stroke-linecap:round;stroke-linejoin:round;" d="M11.1,164.4
			c0,0,1.8-7.8,11.7-19.3S38,133,38,133s8.5,2.2,30.3,2.2s24.8-3.6,24.8-3.6"/>
		<path style="fill:none;stroke:#000000;stroke-width:1.76;stroke-linecap:round;stroke-linejoin:round;" d="M50.4,24.6l5.1,2.5
			c0,0,17.6-0.6,31.1,2s25.1,11.7,25.1,11.7"/>
		
			<line style="fill:none;stroke:#000000;stroke-width:1.76;stroke-linecap:round;stroke-linejoin:round;" x1="53.4" y1="26.1" x2="42.8" y2="47.8"/>
		<path style="fill:#1A1A1A;" d="M32.3,49.4c0,0-1.1,4.9,8.2,5.8s24.9-2.9,24.9-2.9s-21.5,10-31.7,7.7s-11.5-5.1-11.5-5.1L32.3,49.4
			z"/>
		<path style="fill:none;stroke:#000000;stroke-width:1.76;stroke-linecap:round;stroke-linejoin:round;" d="M32.3,49.4
			c0,0-1.1,4.9,8.2,5.8s24.9-2.9,24.9-2.9s-21.5,10-31.7,7.7s-11.5-5.1-11.5-5.1L32.3,49.4z"/>
		<polygon style="fill:#1A1A1A;" points="20.8,93.7 28.7,109 33.3,106.9 26.3,92.2 		"/>
		<polygon style="fill:none;stroke:#000000;stroke-width:1.76;stroke-linecap:round;stroke-linejoin:round;" points="20.8,93.7 
			28.7,109 33.3,106.9 26.3,92.2 		"/>
		<polygon style="fill:#1A1A1A;" points="44.8,86.8 52.8,102.1 57.3,100 50.4,85.3 		"/>
		<polygon style="fill:none;stroke:#000000;stroke-width:1.76;stroke-linecap:round;stroke-linejoin:round;" points="44.8,86.8 
			52.8,102.1 57.3,100 50.4,85.3 		"/>
		<polygon style="fill:#1A1A1A;" points="67.6,78.4 75.5,93.7 80,91.6 73.1,76.9 		"/>
		<polygon style="fill:none;stroke:#000000;stroke-width:1.76;stroke-linecap:round;stroke-linejoin:round;" points="67.6,78.4 
			75.5,93.7 80,91.6 73.1,76.9 		"/>
		<polygon style="fill:#1A1A1A;" points="29.9,85.9 36.1,96.7 40.6,94.6 35.4,84.3 		"/>
		<polygon style="fill:none;stroke:#000000;stroke-width:1.76;stroke-linecap:round;stroke-linejoin:round;" points="29.9,85.9 
			36.1,96.7 40.6,94.6 35.4,84.3 		"/>
		<polygon style="fill:#1A1A1A;" points="38,100.4 44.2,111.2 48.7,109.1 43.5,98.9 		"/>
		<polygon style="fill:none;stroke:#000000;stroke-width:1.76;stroke-linecap:round;stroke-linejoin:round;" points="38,100.4 
			44.2,111.2 48.7,109.1 43.5,98.9 		"/>
		<polygon style="fill:#1A1A1A;" points="54,80.3 60.3,91.1 64.8,89 59.6,78.8 		"/>
		<polygon style="fill:none;stroke:#000000;stroke-width:1.76;stroke-linecap:round;stroke-linejoin:round;" points="54,80.3 
			60.3,91.1 64.8,89 59.6,78.8 		"/>
		<polygon style="fill:#1A1A1A;" points="62.2,94.8 68.4,105.6 72.9,103.5 67.7,93.3 		"/>
		<polygon style="fill:none;stroke:#000000;stroke-width:1.76;stroke-linecap:round;stroke-linejoin:round;" points="62.2,94.8 
			68.4,105.6 72.9,103.5 67.7,93.3 		"/>
		<path style="fill:#1A1A1A;" d="M114.3,48.7c0,1.4-1.2,2.6-2.6,2.6c-1.4,0-2.6-1.2-2.6-2.6c0-1.4,1.2-2.6,2.6-2.6c0,0,0,0,0,0
			C113.2,46.1,114.3,47.3,114.3,48.7L114.3,48.7"/>
		<path style="fill:none;stroke:#000000;stroke-width:1.76;stroke-linecap:round;stroke-linejoin:round;" d="M114.3,48.7
			c0,1.4-1.2,2.6-2.6,2.6c-1.4,0-2.6-1.2-2.6-2.6c0-1.4,1.2-2.6,2.6-2.6c0,0,0,0,0,0C113.2,46.1,114.3,47.3,114.3,48.7L114.3,48.7z"
			/>
		<path style="fill:none;stroke:#000000;stroke-width:1.76;stroke-linecap:round;stroke-linejoin:round;" d="M59.4,21.8
			c4.4-7.2,11.7-12.2,20-13.9c13.8-2.6,17.5,0,17.5,0"/>
		<path style="fill:none;stroke:#000000;stroke-width:1.76;stroke-linecap:round;stroke-linejoin:round;" d="M22.2,70.5
			c0,0,18.3-0.4,31.2-4.3s26-11.3,26-11.3"/>
		<path style="fill:none;stroke:#000000;stroke-width:1.76;stroke-linecap:round;stroke-linejoin:round;" d="M40.9,138.9
			c-8.3,4.1-15,11-18.7,19.5"/>
	</g>
</g>
</svg>
