<?xml version="1.0" encoding="utf-8"?>
<!-- Generator: Adobe Illustrator 23.0.2, SVG Export Plug-In . SVG Version: 6.00 Build 0)  -->
<svg version="1.1" id="Réteg_1" xmlns="http://www.w3.org/2000/svg" xmlns:xlink="http://www.w3.org/1999/xlink" x="0px" y="0px"
	 viewBox="0 0 145.8 95.6" style="enable-background:new 0 0 145.8 95.6;" xml:space="preserve">
<title>sisakdisz_03</title>
<g>
	<g>
		<path style="fill:#FFD200;" d="M14.5,56.1L0.9,22.2c0,0,2.9-2.8,6.8,0c2.3,1.6,3.9,4,4.5,6.8c0,0,0.9-11,7.4-12.2
			s12.9,10.8,12.9,10.8s-0.2-13.9,10.3-13.3s13.7,11,13.7,11S58.1,12,71.8,12s16,12.8,16,12.8s2.3-11,14-11s8.8,13.2,8.8,13.2
			s7.6-13.3,14.6-10.5s5.6,11.6,5.6,11.6s1.1-5.9,5.9-8.2s5.7-0.3,5.7-0.3l-13.3,36.5c0,0-10.8,18.5-55.9,18.5S14.5,56.1,14.5,56.1"
			/>
		<path style="fill:none;stroke:#000000;stroke-width:1.76;stroke-linecap:round;stroke-linejoin:round;" d="M14.5,56.1L0.9,22.2
			c0,0,2.9-2.8,6.8,0c2.3,1.6,3.9,4,4.5,6.8c0,0,0.9-11,7.4-12.2s12.9,10.8,12.9,10.8s-0.2-13.9,10.3-13.3s13.7,11,13.7,11
			S58.1,12,71.8,12s16,12.8,16,12.8s2.3-11,14-11s8.8,13.2,8.8,13.2s7.6-13.3,14.6-10.5s5.6,11.6,5.6,11.6s1.1-5.9,5.9-8.2
			s5.7-0.3,5.7-0.3l-13.3,36.5c0,0-10.8,18.5-55.9,18.5S14.5,56.1,14.5,56.1z"/>
		<path style="fill:#FFD200;" d="M14.5,56.1V79c0,0,6.8,15.8,59,15.8c49.5,0,55.6-16.4,55.6-16.4V56.1c0,0-17,11-57.3,11
			S14.5,56.1,14.5,56.1"/>
		<path style="fill:none;stroke:#000000;stroke-width:1.76;stroke-linecap:round;stroke-linejoin:round;" d="M14.5,56.1V79
			c0,0,6.8,15.8,59,15.8c49.5,0,55.6-16.4,55.6-16.4V56.1c0,0-17,11-57.3,11S14.5,56.1,14.5,56.1z"/>
		<path style="fill:none;stroke:#000000;stroke-width:1.76;stroke-linecap:round;stroke-linejoin:round;" d="M14.5,74.6
			c0,0,13.1,15.8,57,15.8c48,0,57.7-15.8,57.7-15.8"/>
		
			<line style="fill:none;stroke:#000000;stroke-width:1.76;stroke-linecap:round;stroke-linejoin:round;" x1="21" y1="65.2" x2="29" y2="61.9"/>
		
			<line style="fill:none;stroke:#000000;stroke-width:1.76;stroke-linecap:round;stroke-linejoin:round;" x1="27.9" y1="67.8" x2="37" y2="63.9"/>
		
			<line style="fill:none;stroke:#000000;stroke-width:1.76;stroke-linecap:round;stroke-linejoin:round;" x1="36" y1="69.8" x2="46.5" y2="65.5"/>
		
			<line style="fill:none;stroke:#000000;stroke-width:1.76;stroke-linecap:round;stroke-linejoin:round;" x1="45.8" y1="71.5" x2="56.4" y2="66.6"/>
		
			<line style="fill:none;stroke:#000000;stroke-width:1.76;stroke-linecap:round;stroke-linejoin:round;" x1="57" y1="72.6" x2="67.5" y2="67.2"/>
		
			<line style="fill:none;stroke:#000000;stroke-width:1.76;stroke-linecap:round;stroke-linejoin:round;" x1="68" y1="73.1" x2="78.4" y2="67.2"/>
		
			<line style="fill:none;stroke:#000000;stroke-width:1.76;stroke-linecap:round;stroke-linejoin:round;" x1="79.8" y1="72.9" x2="89.9" y2="66.3"/>
		
			<line style="fill:none;stroke:#000000;stroke-width:1.76;stroke-linecap:round;stroke-linejoin:round;" x1="90.9" y1="72.2" x2="99.4" y2="65.2"/>
		
			<line style="fill:none;stroke:#000000;stroke-width:1.76;stroke-linecap:round;stroke-linejoin:round;" x1="101.8" y1="70.8" x2="108.2" y2="63.5"/>
		
			<line style="fill:none;stroke:#000000;stroke-width:1.76;stroke-linecap:round;stroke-linejoin:round;" x1="110.6" y1="69.1" x2="115.4" y2="61.7"/>
		
			<line style="fill:none;stroke:#000000;stroke-width:1.76;stroke-linecap:round;stroke-linejoin:round;" x1="118.4" y1="66.7" x2="121.8" y2="59.5"/>
		
			<line style="fill:none;stroke:#000000;stroke-width:1.76;stroke-linecap:round;stroke-linejoin:round;" x1="125.2" y1="63.9" x2="128.3" y2="56.6"/>
		<path style="fill:#E6E6E6;" d="M77.2,6.4c0,3.1-2.5,5.6-5.6,5.6c-3.1,0-5.6-2.5-5.6-5.6s2.5-5.6,5.6-5.6c0,0,0,0,0,0
			C74.7,0.9,77.2,3.4,77.2,6.4C77.2,6.4,77.2,6.4,77.2,6.4"/>
		<path style="fill:none;stroke:#000000;stroke-width:1.76;stroke-linecap:round;stroke-linejoin:round;" d="M77.2,6.4
			c0,3.1-2.5,5.6-5.6,5.6c-3.1,0-5.6-2.5-5.6-5.6s2.5-5.6,5.6-5.6c0,0,0,0,0,0C74.7,0.9,77.2,3.4,77.2,6.4
			C77.2,6.4,77.2,6.4,77.2,6.4z"/>
		<path style="fill:#E6E6E6;" d="M72,3.8c-1.7,0.1-2.9,1.5-2.8,3.2c0,0,0,0,0,0.1"/>
		<path style="fill:none;stroke:#000000;stroke-width:1.76;stroke-linecap:round;stroke-linejoin:round;" d="M72,3.8
			c-1.7,0.1-2.9,1.5-2.8,3.2c0,0,0,0,0,0.1"/>
		<path style="fill:#E6E6E6;" d="M45.8,8.1c0,2.8-2.3,5.1-5.1,5.1c-2.8,0-5.1-2.3-5.1-5.1s2.3-5.1,5.1-5.1S45.8,5.3,45.8,8.1
			L45.8,8.1"/>
		<path style="fill:none;stroke:#000000;stroke-width:1.76;stroke-linecap:round;stroke-linejoin:round;" d="M45.8,8.1
			c0,2.8-2.3,5.1-5.1,5.1c-2.8,0-5.1-2.3-5.1-5.1s2.3-5.1,5.1-5.1S45.8,5.3,45.8,8.1L45.8,8.1z"/>
		<path style="fill:#E6E6E6;" d="M41.1,5.8c-1.5,0.1-2.7,1.4-2.5,2.9c0,0,0,0,0,0.1"/>
		<path style="fill:none;stroke:#000000;stroke-width:1.76;stroke-linecap:round;stroke-linejoin:round;" d="M41.1,5.8
			c-1.5,0.1-2.7,1.4-2.5,2.9c0,0,0,0,0,0.1"/>
		<path style="fill:#E6E6E6;" d="M22.1,11.9c0,2.6-2.1,4.6-4.6,4.6s-4.6-2.1-4.6-4.6s2.1-4.6,4.6-4.6l0,0C20,7.3,22.1,9.4,22.1,11.9
			"/>
		<path style="fill:none;stroke:#000000;stroke-width:1.76;stroke-linecap:round;stroke-linejoin:round;" d="M22.1,11.9
			c0,2.6-2.1,4.6-4.6,4.6s-4.6-2.1-4.6-4.6s2.1-4.6,4.6-4.6l0,0C20,7.3,22.1,9.4,22.1,11.9z"/>
		<path style="fill:#E6E6E6;" d="M17.8,9.7c-1.4,0.1-2.4,1.3-2.3,2.7c0,0,0,0,0,0"/>
		<path style="fill:none;stroke:#000000;stroke-width:1.76;stroke-linecap:round;stroke-linejoin:round;" d="M17.8,9.7
			c-1.4,0.1-2.4,1.3-2.3,2.7c0,0,0,0,0,0"/>
		<path style="fill:#E6E6E6;" d="M107.9,8.7c0,2.8-2.3,5.1-5.1,5s-5.1-2.3-5-5.1c0-2.8,2.3-5,5.1-5C105.7,3.6,107.9,5.9,107.9,8.7"
			/>
		<path style="fill:none;stroke:#000000;stroke-width:1.76;stroke-linecap:round;stroke-linejoin:round;" d="M107.9,8.7
			c0,2.8-2.3,5.1-5.1,5s-5.1-2.3-5-5.1c0-2.8,2.3-5,5.1-5C105.7,3.6,107.9,5.9,107.9,8.7z"/>
		<path style="fill:#E6E6E6;" d="M103.2,6.3c-1.5,0.1-2.7,1.4-2.5,2.9c0,0,0,0,0,0.1"/>
		<path style="fill:none;stroke:#000000;stroke-width:1.76;stroke-linecap:round;stroke-linejoin:round;" d="M103.2,6.3
			c-1.5,0.1-2.7,1.4-2.5,2.9c0,0,0,0,0,0.1"/>
		<path style="fill:#E6E6E6;" d="M129.8,11.1c0,2.6-2.1,4.6-4.6,4.6s-4.6-2.1-4.6-4.6s2.1-4.6,4.6-4.6l0,0
			C127.8,6.5,129.8,8.5,129.8,11.1"/>
		<path style="fill:none;stroke:#000000;stroke-width:1.76;stroke-linecap:round;stroke-linejoin:round;" d="M129.8,11.1
			c0,2.6-2.1,4.6-4.6,4.6s-4.6-2.1-4.6-4.6s2.1-4.6,4.6-4.6l0,0C127.8,6.5,129.8,8.5,129.8,11.1z"/>
		<path style="fill:#E6E6E6;" d="M125.5,8.9c-1.4,0.1-2.4,1.3-2.3,2.7c0,0,0,0,0,0"/>
		<path style="fill:none;stroke:#000000;stroke-width:1.76;stroke-linecap:round;stroke-linejoin:round;" d="M125.5,8.9
			c-1.4,0.1-2.4,1.3-2.3,2.7c0,0,0,0,0,0"/>
		<path style="fill:#E6E6E6;" d="M144.9,14.5c0,2.2-1.8,4-4,4s-4-1.8-4-4s1.8-4,4-4S144.9,12.3,144.9,14.5"/>
		<path style="fill:none;stroke:#000000;stroke-width:1.76;stroke-linecap:round;stroke-linejoin:round;" d="M144.9,14.5
			c0,2.2-1.8,4-4,4s-4-1.8-4-4s1.8-4,4-4S144.9,12.3,144.9,14.5z"/>
		<path style="fill:#E6E6E6;" d="M141.2,12.7c-1.2,0.1-2.1,1.1-2,2.3c0,0,0,0,0,0"/>
		<path style="fill:none;stroke:#000000;stroke-width:1.76;stroke-linecap:round;stroke-linejoin:round;" d="M141.2,12.7
			c-1.2,0.1-2.1,1.1-2,2.3c0,0,0,0,0,0"/>
		<path style="fill:#B60A9B;" d="M80.8,85.6H64c-0.7,0-1.3-0.6-1.3-1.3c0,0,0,0,0,0v-4.9c0-0.7,0.6-1.3,1.3-1.3h16.8
			c0.7,0,1.3,0.6,1.3,1.3v4.9C82.1,85,81.6,85.6,80.8,85.6C80.8,85.6,80.8,85.6,80.8,85.6"/>
		<path style="fill:none;stroke:#000000;stroke-width:1.76;stroke-miterlimit:10;" d="M64,78.1h16.9c0.7,0,1.3,0.6,1.3,1.3v4.9
			c0,0.7-0.6,1.3-1.3,1.3H64c-0.7,0-1.3-0.6-1.3-1.3v-4.9C62.7,78.7,63.2,78.1,64,78.1z"/>
		<path style="fill:#009A3D;" d="M48.8,84.3l-6.1-1.1c-1.9-0.7-3.1-1.4-3.1-3.1v-1.3c0-1.7,1.4-3.1,3.1-3.1l0,0l6.1,1.1
			c1.7,0,3.1,1.4,3.1,3.1c0,0,0,0,0,0v1.3C52,82.9,50.6,84.3,48.8,84.3"/>
		<path style="fill:none;stroke:#000000;stroke-width:1.76;stroke-linecap:round;stroke-linejoin:round;" d="M48.8,84.3l-6.1-1.1
			c-1.9-0.7-3.1-1.4-3.1-3.1v-1.3c0-1.7,1.4-3.1,3.1-3.1l0,0l6.1,1.1c1.7,0,3.1,1.4,3.1,3.1c0,0,0,0,0,0v1.3
			C52,83,50.6,84.4,48.8,84.3C48.9,84.4,48.9,84.4,48.8,84.3z"/>
		<path style="fill:#B60A9B;" d="M27.6,79.1l-4.1-1.6c-1.3-0.8-2-1.6-1.8-3.3l0.1-1.3c0.2-1.7,1.4-3,2.5-2.8l4.1,1.6
			c1.2,0.2,2,1.7,1.8,3.4l-0.1,1.3C29.9,78,28.8,79.3,27.6,79.1"/>
		<path style="fill:none;stroke:#000000;stroke-width:1.76;stroke-miterlimit:10;" d="M27.6,79.1l-4.1-1.6c-1.3-0.8-2-1.6-1.8-3.3
			l0.1-1.3c0.2-1.7,1.4-3,2.5-2.8l4.1,1.6c1.2,0.2,2,1.7,1.8,3.4l-0.1,1.3C29.9,78,28.8,79.3,27.6,79.1z"/>
		<path style="fill:none;stroke:#000000;stroke-width:1.76;stroke-linecap:round;stroke-linejoin:round;" d="M59.1,78.8
			c0,1.2-1,2.1-2.1,2.1c-1.2,0-2.1-1-2.1-2.1c0-1.2,0.9-2.1,2.1-2.1C58.2,76.7,59.1,77.6,59.1,78.8C59.1,78.8,59.1,78.8,59.1,78.8z"
			/>
		<path style="fill:none;stroke:#000000;stroke-width:1.76;stroke-linecap:round;stroke-linejoin:round;" d="M59.1,84.9
			c0,1.2-1,2.1-2.1,2.1c-1.2,0-2.1-1-2.1-2.1c0-1.2,0.9-2.1,2.1-2.1C58.2,82.8,59.1,83.7,59.1,84.9C59.1,84.9,59.1,84.9,59.1,84.9z"
			/>
		<path style="fill:none;stroke:#000000;stroke-width:1.76;stroke-linecap:round;stroke-linejoin:round;" d="M36.8,74.9
			c0,1.1-0.9,2-2,2s-2-0.9-2-2s0.9-2,2-2S36.8,73.8,36.8,74.9z"/>
		<path style="fill:none;stroke:#000000;stroke-width:1.76;stroke-linecap:round;stroke-linejoin:round;" d="M36.8,80.6
			c0,1.1-0.9,2-2,2s-2-0.9-2-2s0.9-2,2-2S36.8,79.5,36.8,80.6z"/>
		
			<ellipse style="fill:none;stroke:#000000;stroke-width:1.76;stroke-linecap:round;stroke-linejoin:round;" cx="17.9" cy="68" rx="1.7" ry="2"/>
		
			<ellipse style="fill:none;stroke:#000000;stroke-width:1.76;stroke-linecap:round;stroke-linejoin:round;" cx="17.9" cy="73.7" rx="1.7" ry="2"/>
		<path style="fill:#009A3D;" d="M95.9,84.3l6.1-1.1c1.9-0.7,3.1-1.4,3.1-3.1v-1.3c0-1.7-1.4-3.1-3.1-3.1c0,0,0,0,0,0l-6.1,1.1
			c-1.7,0-3.1,1.4-3.1,3.1l0,0v1.3C92.8,82.9,94.2,84.3,95.9,84.3"/>
		<path style="fill:none;stroke:#000000;stroke-width:1.76;stroke-linecap:round;stroke-linejoin:round;" d="M95.9,84.3l6.1-1.1
			c1.9-0.7,3.1-1.4,3.1-3.1v-1.3c0-1.7-1.4-3.1-3.1-3.1c0,0,0,0,0,0l-6.1,1.1c-1.7,0-3.1,1.4-3.1,3.1l0,0v1.3
			C92.8,83,94.2,84.4,95.9,84.3C95.9,84.4,95.9,84.4,95.9,84.3z"/>
		<path style="fill:#B60A9B;" d="M117.2,79.1l4.1-1.6c1.3-0.8,2-1.6,1.8-3.3l-0.2-1.3c-0.2-1.7-1.3-3-2.6-2.8l-4.1,1.6
			c-1.2,0.2-2,1.7-1.8,3.4l0.2,1.3C114.8,78,116,79.3,117.2,79.1"/>
		<path style="fill:none;stroke:#000000;stroke-width:1.76;stroke-miterlimit:10;" d="M117.2,79.1l4.1-1.6c1.3-0.8,2-1.6,1.8-3.3
			l-0.2-1.3c-0.2-1.7-1.3-3-2.6-2.8l-4.1,1.6c-1.2,0.2-2,1.7-1.8,3.4l0.2,1.3C114.8,78,116,79.3,117.2,79.1z"/>
		<path style="fill:none;stroke:#000000;stroke-width:1.76;stroke-linecap:round;stroke-linejoin:round;" d="M85.6,78.8
			c0,1.2,1,2.1,2.1,2.1s2.1-1,2.1-2.1c0-1.2-1-2.1-2.1-2.1h0C86.6,76.7,85.6,77.7,85.6,78.8z"/>
		<path style="fill:none;stroke:#000000;stroke-width:1.76;stroke-linecap:round;stroke-linejoin:round;" d="M85.6,84.9
			c0,1.2,1,2.1,2.1,2.1s2.1-1,2.1-2.1c0-1.2-1-2.1-2.1-2.1h0C86.6,82.8,85.6,83.7,85.6,84.9z"/>
		<path style="fill:none;stroke:#000000;stroke-width:1.76;stroke-linecap:round;stroke-linejoin:round;" d="M107.9,74.9
			c0,1.1,0.9,2,2,2s2-0.9,2-2s-0.9-2-2-2S107.9,73.8,107.9,74.9z"/>
		<path style="fill:none;stroke:#000000;stroke-width:1.76;stroke-linecap:round;stroke-linejoin:round;" d="M107.9,80.6
			c0,1.1,0.9,2,2,2s2-0.9,2-2s-0.9-2-2-2S107.9,79.5,107.9,80.6z"/>
		<path style="fill:none;stroke:#000000;stroke-width:1.76;stroke-linecap:round;stroke-linejoin:round;" d="M125.2,68
			c0.2,0.9,1,1.6,2,1.4c0.9-0.2,1.6-1,1.4-2c-0.1-0.8-0.8-1.4-1.7-1.4C125.9,66.1,125.1,67,125.2,68z"/>
		<path style="fill:none;stroke:#000000;stroke-width:1.76;stroke-linecap:round;stroke-linejoin:round;" d="M125.2,73.7
			c0.2,0.9,1,1.6,2,1.4c0.9-0.2,1.6-1,1.4-2c-0.1-0.8-0.8-1.4-1.7-1.4C125.9,71.8,125.1,72.7,125.2,73.7
			C125.2,73.7,125.2,73.7,125.2,73.7z"/>
		<path style="fill:none;stroke:#000000;stroke-width:1.76;stroke-linecap:round;stroke-linejoin:round;" d="M12.2,29l9.1,30.3
			l-6.8,2.2c0,0,13.1,11.6,57,11.6s57.7-11.6,57.7-11.6"/>
		
			<line style="fill:none;stroke:#000000;stroke-width:1.76;stroke-linecap:round;stroke-linejoin:round;" x1="32.5" y1="27.6" x2="39.6" y2="64.4"/>
		
			<line style="fill:none;stroke:#000000;stroke-width:1.76;stroke-linecap:round;stroke-linejoin:round;" x1="56.4" y1="25.3" x2="60.6" y2="66.3"/>
		
			<line style="fill:none;stroke:#000000;stroke-width:1.76;stroke-linecap:round;stroke-linejoin:round;" x1="87.8" y1="24.8" x2="82.1" y2="66.3"/>
		
			<line style="fill:none;stroke:#000000;stroke-width:1.76;stroke-linecap:round;stroke-linejoin:round;" x1="110.6" y1="27" x2="101.8" y2="64.4"/>
		
			<line style="fill:none;stroke:#000000;stroke-width:1.76;stroke-linecap:round;stroke-linejoin:round;" x1="130.8" y1="28.2" x2="119.9" y2="60.2"/>
		<polygon style="fill:#CCCCCC;" points="71.4,18.7 62.9,39.2 71.8,59.7 79.8,39.2 		"/>
		<polygon style="fill:none;stroke:#000000;stroke-width:1.76;stroke-linecap:round;stroke-linejoin:round;" points="71.4,18.7 
			62.9,39.2 71.8,59.7 79.8,39.2 		"/>
		<polygon style="fill:#CCCCCC;" points="43.6,19.8 39.7,40.1 48.4,58.9 51.9,38.7 		"/>
		<polygon style="fill:none;stroke:#000000;stroke-width:1.76;stroke-linecap:round;stroke-linejoin:round;" points="43.6,19.8 
			39.7,40.1 48.4,58.9 51.9,38.7 		"/>
		<polygon style="fill:#CCCCCC;" points="21.2,22.6 20.4,40 28.3,55.6 28.8,38.2 		"/>
		<polygon style="fill:none;stroke:#000000;stroke-width:1.76;stroke-linecap:round;stroke-linejoin:round;" points="21.2,22.6 
			20.4,40 28.3,55.6 28.8,38.2 		"/>
		<polygon style="fill:#CCCCCC;" points="121.8,23.1 121.3,40.6 112.4,55.5 113.1,38.2 		"/>
		<polygon style="fill:none;stroke:#000000;stroke-width:1.76;stroke-linecap:round;stroke-linejoin:round;" points="121.8,23.1 
			121.3,40.6 112.4,55.5 113.1,38.2 		"/>
		<polygon style="fill:#CCCCCC;" points="100,19.8 103.9,40.1 95.2,58.9 91.7,38.7 		"/>
		<polygon style="fill:none;stroke:#000000;stroke-width:1.76;stroke-linecap:round;stroke-linejoin:round;" points="100,19.8 
			103.9,40.1 95.2,58.9 91.7,38.7 		"/>
		<polygon style="fill:#CCCCCC;" points="2.7,27 4.2,43.3 13.3,53 		"/>
		<polygon style="fill:none;stroke:#000000;stroke-width:1.76;stroke-linecap:round;stroke-linejoin:round;" points="2.7,27 
			4.2,43.3 13.3,53 		"/>
		<polygon style="fill:#CCCCCC;" points="141,23.1 139.8,41.6 130.8,51.6 		"/>
		<polygon style="fill:none;stroke:#000000;stroke-width:1.76;stroke-linecap:round;stroke-linejoin:round;" points="141,23.1 
			139.8,41.6 130.8,51.6 		"/>
		<line style="fill:none;" x1="71.4" y1="18.7" x2="71.8" y2="59.7"/>
		
			<line style="fill:none;stroke:#000000;stroke-width:1.76;stroke-linecap:round;stroke-linejoin:round;" x1="71.4" y1="18.7" x2="71.8" y2="59.7"/>
		<line style="fill:none;" x1="43.6" y1="19.8" x2="48.4" y2="58.9"/>
		
			<line style="fill:none;stroke:#000000;stroke-width:1.76;stroke-linecap:round;stroke-linejoin:round;" x1="43.6" y1="19.8" x2="48.4" y2="58.9"/>
		<line style="fill:none;" x1="21.2" y1="22.6" x2="28.3" y2="55.6"/>
		
			<line style="fill:none;stroke:#000000;stroke-width:1.76;stroke-linecap:round;stroke-linejoin:round;" x1="21.2" y1="22.6" x2="28.3" y2="55.6"/>
		<line style="fill:none;" x1="100" y1="19.8" x2="95.2" y2="58.9"/>
		
			<line style="fill:none;stroke:#000000;stroke-width:1.76;stroke-linecap:round;stroke-linejoin:round;" x1="100" y1="19.8" x2="95.2" y2="58.9"/>
		<line style="fill:none;" x1="121.8" y1="23.1" x2="112.4" y2="55.5"/>
		
			<line style="fill:none;stroke:#000000;stroke-width:1.76;stroke-linecap:round;stroke-linejoin:round;" x1="121.8" y1="23.1" x2="112.4" y2="55.5"/>
	</g>
</g>
</svg>
