<?xml version="1.0" encoding="utf-8"?>
<!-- Generator: Adobe Illustrator 23.0.2, SVG Export Plug-In . SVG Version: 6.00 Build 0)  -->
<svg version="1.1" id="Réteg_1" xmlns="http://www.w3.org/2000/svg" xmlns:xlink="http://www.w3.org/1999/xlink" x="0px" y="0px"
	 viewBox="0 0 147.7 148.5" style="enable-background:new 0 0 147.7 148.5;" xml:space="preserve">
<title>sisakdisz_01</title>
<g>
	<g>
		<path style="fill:#DC281E;" d="M59,33.7c-8.5,0.9-16.8,3.1-24.6,6.4c-6.4,2.7-12.2,5.5-14.4,8.4S11.8,55,11.8,55
			C5.8,57.3,1.7,62.7,1,69.1c-1.4,11,7.4,29.4,9.1,32s5.7,13.5,5.7,15s4.5,13.5,4.5,13.5s17,9,56.1,7s48.7-7,48.7-7
			s7.1-19.1,8.2-20.2s10.2-11.9,10.5-20.7s6-14.7,1.4-24.6s-12.7-18.4-21.5-21.3s-13.9-1.4-18.4-5.4s-26.9-4.5-32.1-5.1
			S59.1,33.7,59,33.7"/>
		<path style="fill:none;stroke:#000000;stroke-width:1.76;stroke-linecap:round;stroke-linejoin:round;" d="M59,33.7
			c-8.5,0.9-16.8,3.1-24.6,6.4c-6.4,2.7-12.2,5.5-14.4,8.4S11.8,55,11.8,55C5.8,57.3,1.7,62.7,1,69.1c-1.4,11,7.4,29.4,9.1,32
			s5.7,13.5,5.7,15s4.5,13.5,4.5,13.5s17,9,56.1,7s48.7-7,48.7-7s7.1-19.1,8.2-20.2s10.2-11.9,10.5-20.7s6-14.7,1.4-24.6
			s-12.7-18.4-21.5-21.3s-13.9-1.4-18.4-5.4s-26.9-4.5-32.1-5.1S59,33.7,59,33.7z"/>
		<path style="fill:#FFD200;" d="M42.1,130.2c0,0-9.8-25-8.5-50.9S65,42.8,65,42.8l4.7,3.8c0,0-23.7,10-26.7,31.7s11,56.2,11,56.2
			L42.1,130.2z"/>
		<path style="fill:none;stroke:#000000;stroke-width:1.76;stroke-linecap:round;stroke-linejoin:round;" d="M42.1,130.2
			c0,0-9.8-25-8.5-50.9S65,42.8,65,42.8l4.7,3.8c0,0-23.7,10-26.7,31.7s11,56.2,11,56.2L42.1,130.2z"/>
		<path style="fill:#FFD200;" d="M104.9,130.2c0,0,9.8-25,8.5-50.9S82,42.8,82,42.8l-4.7,3.8c0,0,23.7,10,26.7,31.7
			s-11,56.2-11,56.2L104.9,130.2z"/>
		<path style="fill:none;stroke:#000000;stroke-width:1.76;stroke-linecap:round;stroke-linejoin:round;" d="M104.9,130.2
			c0,0,9.8-25,8.5-50.9S82,42.8,82,42.8l-4.7,3.8c0,0,23.7,10,26.7,31.7s-11,56.2-11,56.2L104.9,130.2z"/>
		<path style="fill:#FFD200;" d="M62.7,39.1c0,0-4.8,14.7,10.3,14.7s10.6-14.7,10.6-14.7s10.2,0.3,10.2-6.5S86.5,21,73.1,21
			s-19.7,3.6-19.7,11.3S62.7,39.1,62.7,39.1"/>
		<path style="fill:none;stroke:#000000;stroke-width:1.76;stroke-linecap:round;stroke-linejoin:round;" d="M62.7,39.1
			c0,0-4.8,14.7,10.3,14.7s10.6-14.7,10.6-14.7s10.2,0.3,10.2-6.5S86.5,21,73.1,21s-19.7,3.6-19.7,11.3S62.7,39.1,62.7,39.1z"/>
		<path style="fill:none;stroke:#000000;stroke-width:1.76;stroke-linecap:round;stroke-linejoin:round;" d="M62.7,39.1l5.2-1.3
			c0,0-0.9,5,5.2,5s5.8-5,5.8-5l4.8,1.3"/>
		<path style="fill:#E6E6E6;" d="M67,23.2c0,0-2,5.1,6.1,5.1s7.5-5.1,7.5-5.1s3,7.6,10.1,2.5s-1.4-10.8-7-16.4
			c-3.1-3.1-6.4-6-10-8.5c0,0-6.7,5.1-12.7,9.9s-9.8,10.2-4.3,14S67,23.2,67,23.2"/>
		<path style="fill:none;stroke:#000000;stroke-width:1.76;stroke-linecap:round;stroke-linejoin:round;" d="M67,23.2
			c0,0-2,5.1,6.1,5.1s7.5-5.1,7.5-5.1s3,7.6,10.1,2.5s-1.4-10.8-7-16.4c-3.1-3.1-6.4-6-10-8.5c0,0-6.7,5.1-12.7,9.9
			s-9.8,10.2-4.3,14S67,23.2,67,23.2z"/>
		<path style="fill:#FFD200;" d="M15.8,117.5v15.7c0,0,6.8,14.4,59,14.4s55.6-15.1,55.6-15.1v-15.1c0,0-17,11-57.3,11
			S15.7,117.5,15.8,117.5"/>
		<path style="fill:none;stroke:#000000;stroke-width:1.76;stroke-linecap:round;stroke-linejoin:round;" d="M15.8,117.5v15.7
			c0,0,6.8,14.4,59,14.4s55.6-15.1,55.6-15.1v-15.1c0,0-17,11-57.3,11S15.8,117.5,15.8,117.5z"/>
		<path style="fill:#E6E6E6;" d="M77.4,118.6c0,3-1.6,5.4-3.6,5.4s-3.7-2.4-3.7-5.4s1.6-5.4,3.7-5.4S77.4,115.6,77.4,118.6"/>
		
			<ellipse style="fill:none;stroke:#000000;stroke-width:1.76;stroke-linecap:round;stroke-linejoin:round;" cx="73.8" cy="118.6" rx="3.7" ry="5.4"/>
		<path style="fill:#E6E6E6;" d="M69.1,120.3c1.8,2.4,2,5.3,0.4,6.5s-4.4,0.3-6.2-2.1s-2-5.3-0.4-6.5S67.3,117.9,69.1,120.3"/>
		<path style="fill:none;stroke:#000000;stroke-width:1.76;stroke-linecap:round;stroke-linejoin:round;" d="M69.1,120.3
			c1.8,2.4,2,5.3,0.4,6.5s-4.4,0.3-6.2-2.1s-2-5.3-0.4-6.5S67.3,118,69.1,120.3z"/>
		<path style="fill:#E6E6E6;" d="M78.5,120.3c-1.8,2.4-2,5.3-0.4,6.5s4.4,0.3,6.2-2.1s2-5.3,0.4-6.5S80.3,117.9,78.5,120.3"/>
		<path style="fill:none;stroke:#000000;stroke-width:1.76;stroke-linecap:round;stroke-linejoin:round;" d="M78.5,120.3
			c-1.8,2.4-2,5.3-0.4,6.5s4.4,0.3,6.2-2.1s2-5.3,0.4-6.5S80.3,118,78.5,120.3z"/>
		<path style="fill:#999999;" d="M80.2,132.1c0,5.3-2.9,9.5-6.4,9.5s-6.4-4.3-6.4-9.5s2.9-9.5,6.4-9.5S80.2,126.8,80.2,132.1"/>
		<path style="fill:none;stroke:#000000;stroke-width:1.76;stroke-linecap:round;stroke-linejoin:round;" d="M80.2,132.1
			c0,5.3-2.9,9.5-6.4,9.5s-6.4-4.3-6.4-9.5s2.9-9.5,6.4-9.5S80.2,126.8,80.2,132.1z"/>
		<path style="fill:#E6E6E6;" d="M16,107.3c0.4,2.5-0.2,4.6-1.3,4.8s-2.4-1.7-2.8-4.1s0.2-4.6,1.3-4.8S15.6,104.8,16,107.3"/>
		<path style="fill:none;stroke:#000000;stroke-width:1.76;stroke-linecap:round;stroke-linejoin:round;" d="M16,107.3
			c0.4,2.5-0.2,4.6-1.3,4.8s-2.4-1.7-2.8-4.1s0.2-4.6,1.3-4.8S15.6,104.8,16,107.3z"/>
		<path style="fill:#E6E6E6;" d="M16.8,108.7c-0.7,2.1-0.4,4.5,0.7,5.4s2.5-0.2,3.2-2.3s0.4-4.5-0.7-5.4S17.5,106.5,16.8,108.7"/>
		<path style="fill:none;stroke:#000000;stroke-width:1.76;stroke-linecap:round;stroke-linejoin:round;" d="M16.8,108.7
			c-0.7,2.1-0.4,4.5,0.7,5.4s2.5-0.2,3.2-2.3s0.4-4.5-0.7-5.4S17.5,106.5,16.8,108.7z"/>
		<path style="fill:#999999;" d="M19.3,118.2c0.7,4.3-0.3,8.1-2.3,8.4s-4.2-2.9-4.9-7.3s0.3-8.1,2.3-8.4S18.6,113.8,19.3,118.2"/>
		<path style="fill:none;stroke:#000000;stroke-width:1.76;stroke-linecap:round;stroke-linejoin:round;" d="M19.3,118.2
			c0.7,4.3-0.3,8.1-2.3,8.4s-4.2-2.9-4.9-7.3s0.3-8.1,2.3-8.4S18.6,113.8,19.3,118.2z"/>
		<path style="fill:#E6E6E6;" d="M131.5,107.3c-0.4,2.5,0.2,4.6,1.3,4.8s2.4-1.7,2.8-4.1s-0.2-4.6-1.3-4.8S131.9,104.8,131.5,107.3"
			/>
		<path style="fill:none;stroke:#000000;stroke-width:1.76;stroke-linecap:round;stroke-linejoin:round;" d="M131.5,107.3
			c-0.4,2.5,0.2,4.6,1.3,4.8s2.4-1.7,2.8-4.1s-0.2-4.6-1.3-4.8S131.9,104.8,131.5,107.3z"/>
		<path style="fill:#E6E6E6;" d="M130.6,108.7c0.7,2.1,0.4,4.5-0.7,5.4s-2.5-0.2-3.2-2.3s-0.4-4.5,0.7-5.4
			C128.5,105.5,129.9,106.5,130.6,108.7"/>
		<path style="fill:none;stroke:#000000;stroke-width:1.76;stroke-linecap:round;stroke-linejoin:round;" d="M130.6,108.7
			c0.7,2.1,0.4,4.5-0.7,5.4s-2.5-0.2-3.2-2.3s-0.4-4.5,0.7-5.4C128.5,105.5,130,106.5,130.6,108.7z"/>
		<path style="fill:#999999;" d="M128.1,118.2c-0.7,4.3,0.3,8.1,2.3,8.4s4.2-2.9,4.9-7.3s-0.3-8.1-2.3-8.4S128.8,113.8,128.1,118.2"
			/>
		<path style="fill:none;stroke:#000000;stroke-width:1.76;stroke-linecap:round;stroke-linejoin:round;" d="M128.1,118.2
			c-0.7,4.3,0.3,8.1,2.3,8.4s4.2-2.9,4.9-7.3s-0.3-8.1-2.3-8.4S128.8,113.8,128.1,118.2z"/>
		<path style="fill:none;stroke:#000000;stroke-width:1.76;stroke-linecap:round;stroke-linejoin:round;" d="M55.1,84.5
			c0,0,8.8,4.1,14.6,1S80,81,84.8,82.7s8.5-0.6,11.6-0.7"/>
		<path style="fill:none;stroke:#000000;stroke-width:1.76;stroke-linecap:round;stroke-linejoin:round;" d="M127,75.6
			c6.2-0.6,10.2,1.7,11.3-3.7s3.8-6,3.7-9.9s-3.3-8.2-3.3-8.2"/>
		<path style="fill:none;stroke:#000000;stroke-width:1.76;stroke-linecap:round;stroke-linejoin:round;" d="M1.5,66.5
			c0,0-2.2,6,3.5,9.1s7.6-0.6,10.8,2.5c2.5,2.4,5.8,3.8,9.3,3.8"/>
		<path style="fill:none;stroke:#000000;stroke-width:1.76;stroke-linecap:round;stroke-linejoin:round;" d="M49.8,41.3
			c0,0-14.4,4.4-20.4,7.5s-4,6-9.9,8.8"/>
		<path style="fill:none;stroke:#000000;stroke-width:1.76;stroke-linecap:round;stroke-linejoin:round;" d="M73.1,8
			c-3.6,2.7-7,5.5-10.3,8.5"/>
	</g>
</g>
</svg>
