<?xml version="1.0" encoding="utf-8"?>
<!-- Generator: Adobe Illustrator 23.0.2, SVG Export Plug-In . SVG Version: 6.00 Build 0)  -->
<svg version="1.1" id="Réteg_1" xmlns="http://www.w3.org/2000/svg" xmlns:xlink="http://www.w3.org/1999/xlink" x="0px" y="0px"
	 viewBox="0 0 470.1 322.7" style="enable-background:new 0 0 470.1 322.7;" xml:space="preserve">
<title>ornamentika_03</title>
<g>
	<g>
		<path style="fill:#009A3D;" d="M95.4,302.7c0,0,0,16.2-17.8,18.9c-15.3,2.3-22.5-11.7-19.3-20s10.4-8.3,10.4-8.3
			s-5.5,6.4,1.1,13.4s19.4,3,21.1-3.2s2-6.5-2.5-13.3c-3.9-5.9,0.8-6,4.2,0.9S95.4,302.7,95.4,302.7"/>
		<path style="fill:none;stroke:#000000;stroke-width:1.76;stroke-linecap:round;stroke-linejoin:round;" d="M95.4,302.7
			c0,0,0,16.2-17.8,18.9c-15.3,2.3-22.5-11.7-19.3-20s10.4-8.3,10.4-8.3s-5.5,6.4,1.1,13.4s19.4,3,21.1-3.2s2-6.5-2.5-13.3
			c-3.9-5.9,0.8-6,4.2,0.9S95.4,302.7,95.4,302.7z"/>
		<path style="fill:#0039A6;" d="M35.4,191c0,0-5.1,17.8,2.5,23.4s15.7-1.3,18.7-6S57,197,57,197s8.1-1.7,10.6,6
			c1.1,3.1,1.2,6.5,0.4,9.8c4.2-1.7,8.9-1.7,13.2,0c6.8,3,10.6,1.7,10.6,1.7S94,219,85.5,225s-20,7.6-20,7.6S80,232,90.1,256.8
			c18,44.1-2.4,60.6-2.4,60.6s11.9-13-7.9-31.7c-8.3-7.8-12.6-15.3-15.6-20c-1.5-2.3-2.8-4.7-3.8-7.2c0,0,3.5,13.3,1,19l-2.5,5.7
			c0,0-3.7-2-5.1-4l-1.4-2c0,0,2.5,6.8-2.8,13.9c-3,3.7-5.4,7.8-7.4,12.2c-4.2-3.1-6.9-7.8-7.3-13c-0.5-5.4-0.1-10.9,1.2-16.2
			c0,0-4.6,3.8-6.3,6.6l-1.7,2.8c0,0-7.1-5.9-3.4-19.5s8.2-11.6,8.2-19.3s-2.3-13-4.5-16.1s-8.2-14.4-2.5-26.6S35.4,191,35.4,191"/>
		<path style="fill:none;stroke:#000000;stroke-width:1.76;stroke-linecap:round;stroke-linejoin:round;" d="M35.4,191
			c0,0-5.1,17.8,2.5,23.4s15.7-1.3,18.7-6S57,197,57,197s8.1-1.7,10.6,6c1.1,3.1,1.2,6.5,0.4,9.8c4.2-1.7,8.9-1.7,13.2,0
			c6.8,3,10.6,1.7,10.6,1.7S94,219,85.5,225s-20,7.6-20,7.6S80,232,90.1,256.8c18,44.1-2.4,60.6-2.4,60.6s11.9-13-7.9-31.7
			c-8.3-7.8-12.6-15.3-15.6-20c-1.5-2.3-2.8-4.7-3.8-7.2c0,0,3.5,13.3,1,19l-2.5,5.7c0,0-3.7-2-5.1-4l-1.4-2c0,0,2.5,6.8-2.8,13.9
			c-3,3.7-5.4,7.8-7.4,12.2c-4.2-3.1-6.9-7.8-7.3-13c-0.5-5.4-0.1-10.9,1.2-16.2c0,0-4.6,3.8-6.3,6.6l-1.7,2.8c0,0-7.1-5.9-3.4-19.5
			s8.2-11.6,8.2-19.3s-2.3-13-4.5-16.1s-8.2-14.4-2.5-26.6S35.4,191,35.4,191z"/>
		<path style="fill:#0039A6;" d="M165.9,56.7c0,0-7.9,7.6,2,20.4s24.1,13,34.5,14.4s14.4,4.8,17.8,10.8s1.4,13.6,1.4,13.6
			s-3.7-16.1-13-17s-25.5,1.1-39.6-6s-18.4-13.6-19.5-23.8S165.9,56.7,165.9,56.7"/>
		<path style="fill:none;stroke:#000000;stroke-width:1.76;stroke-linecap:round;stroke-linejoin:round;" d="M165.9,56.7
			c0,0-7.9,7.6,2,20.4s24.1,13,34.5,14.4s14.4,4.8,17.8,10.8s1.4,13.6,1.4,13.6s-3.7-16.1-13-17s-25.5,1.1-39.6-6
			s-18.4-13.6-19.5-23.8S165.9,56.7,165.9,56.7z"/>
		<path style="fill:#0039A6;" d="M211.1,13.6c0,0-3.4-8.5-10-11.9s-15.1,5.1-15.9,7.6s-4,5.9,1.1,12.1s3.2-0.6,9.1-2.1
			s7.4,2.3,7.4,6.4c0.1,2.2-0.4,4.3-1.5,6.1c0,0,7.9-0.6,10-7.6S211.1,13.6,211.1,13.6"/>
		<path style="fill:none;stroke:#000000;stroke-width:1.76;stroke-linecap:round;stroke-linejoin:round;" d="M211.1,13.6
			c0,0-3.4-8.5-10-11.9s-15.1,5.1-15.9,7.6s-4,5.9,1.1,12.1s3.2-0.6,9.1-2.1s7.4,2.3,7.4,6.4c0.1,2.2-0.4,4.3-1.5,6.1
			c0,0,7.9-0.6,10-7.6S211.1,13.6,211.1,13.6z"/>
		<path style="fill:#009A3D;" d="M153.4,80.5c0,0-4.5-12.5,10.2-15.8s19.8,4,27.2,4h7.4c0,0-5.1-3.4-3.4-7.9s5.7,0,13.6-6.8
			s3.4-5.1,3.4-5.1s-5.1-4-8.5-4.5s11.7-3.4,11.9-14.1c0.3-14.4-7.4-21.6-7.4-21.6s4,11-6.4,15.5c-3.5,1.6-7.6,0.9-10.2-1.9
			c0,0-6.2-11.3-10-6.1c-5.3,7.1-7.4,7.9-7.4,7.9s-7.9,2.3-6.2-5.1l1.7-7.4c0,0-14.7,4.5-16.4,15.8s-6.8,16.9-7.9,28.9
			C143.5,72.3,153.4,80.5,153.4,80.5"/>
		<path style="fill:none;stroke:#000000;stroke-width:1.76;stroke-linecap:round;stroke-linejoin:round;" d="M153.4,80.5
			c0,0-4.5-12.5,10.2-15.8s19.8,4,27.2,4h7.4c0,0-5.1-3.4-3.4-7.9s5.7,0,13.6-6.8s3.4-5.1,3.4-5.1s-5.1-4-8.5-4.5
			s11.7-3.4,11.9-14.1c0.3-14.4-7.4-21.6-7.4-21.6s4,11-6.4,15.5c-3.5,1.6-7.6,0.9-10.2-1.9c0,0-6.2-11.3-10-6.1
			c-5.3,7.1-7.4,7.9-7.4,7.9s-7.9,2.3-6.2-5.1l1.7-7.4c0,0-14.7,4.5-16.4,15.8s-6.8,16.9-7.9,28.9C143.5,72.3,153.4,80.5,153.4,80.5
			z"/>
		<path style="fill:#009A3D;" d="M145.5,65.5c-1.5-5.8-0.4-12.1,3.1-17c5.9-8.5,17-10.5,27.7-8.5c6.6,1.1,13.5,0.1,19.5-2.8"/>
		<path style="fill:none;stroke:#000000;stroke-width:1.76;stroke-linecap:round;stroke-linejoin:round;" d="M145.5,65.5
			c-1.5-5.8-0.4-12.1,3.1-17c5.9-8.5,17-10.5,27.7-8.5c6.6,1.1,13.5,0.1,19.5-2.8"/>
		<path style="fill:#009A3D;" d="M129.9,143.6c0,0-4.2-0.6-3.1-4.8l1.1-4.2c-2.9-0.1-5.7,0.6-8.2,2c-4,2.3-5.1,3.7-5.1,3.7
			s-3.4-0.9-1.4-6s2-7.6,2-7.6s-4.2,2.3-7.4-1.4l-3.1-3.7c0,0,3.4-0.3,6.2-4.5c2.1-3.3,4-6.7,5.7-10.2c0,0-14,6.9-16.4,12.7
			c-2.3,5.4-1.1,9-1.1,9s-3.1,0.6-4.5-1.4l-1.4-2c0,0-5.1,13-2.3,22.1s4.8,15,3.7,20.9l-1.1,5.9c0,0-4.2-2-4.8-3.4l-0.6-1.3
			c0,0,1.1,11.6-1.4,17c-1.9,3.9-4.1,7.7-6.5,11.3c0,0-9.6-6.8-10.8-12.7s-0.3-9.3-0.3-9.3s-3.7,0.9-5.4,2.8l-1.7,2
			c0,0-3.1-2-2.5-7.4c0.2-2.6,0.7-5.2,1.4-7.6c0,0-8.2,3.1-9,10.2s0.3,15-2,19.3S35.7,208.7,34,219.4c-1,5.7-1.5,11.5-1.4,17.3
			c0,0-7.4-8.8-12.2-25.2s-6.2-29.4,7.9-46.7c5.7-6.8,12.5-12.5,20.1-17c0,0-2.2-3.8-9-1.8s-6.8,8.9-12.7,12.1
			c-3.2,1.8-6.8,3.1-10.4,3.8c-1.1-3.1-0.9-6.6,0.6-9.6l2.5-4.7c-5.9,0.4-11.6-2.4-15.1-7.2c-5.9-8.3-2.5-12.7-2.5-12.7
			s3.4,6.6,10.6,4.9s4.7-10.2,14.2-13.4s20.2-2.5,31,0s18.9-5.2,18.9-5.2s-6.4-9.1-12.7-7.4s-3,6.6-16.6,6.6s-13.2-6.8-18.5-8.5
			s-6.4-0.8-6.4-0.8s0.6-3.2,6.6-5.9s7.2-2.8,7.2-2.8S21,91,19.5,76.6C18.6,68.8,18.8,60.3,26,55s11.5-2.8,11.5-2.8s-7,8.7,1.3,21.4
			S57,90.8,66.6,89.8s11.9-8.1,23.6-9.1s22.9,13.2,38,14.7s23.6,0.6,27.8,0l4.2-0.6c0,0-4.9,2.3-8.7,14.2s-8.1,21.9-11.3,26.3
			S129.9,143.6,129.9,143.6"/>
		<path style="fill:none;stroke:#000000;stroke-width:1.76;stroke-linecap:round;stroke-linejoin:round;" d="M129.9,143.6
			c0,0-4.2-0.6-3.1-4.8l1.1-4.2c-2.9-0.1-5.7,0.6-8.2,2c-4,2.3-5.1,3.7-5.1,3.7s-3.4-0.9-1.4-6s2-7.6,2-7.6s-4.2,2.3-7.4-1.4
			l-3.1-3.7c0,0,3.4-0.3,6.2-4.5c2.1-3.3,4-6.7,5.7-10.2c0,0-14,6.9-16.4,12.7c-2.3,5.4-1.1,9-1.1,9s-3.1,0.6-4.5-1.4l-1.4-2
			c0,0-5.1,13-2.3,22.1s4.8,15,3.7,20.9l-1.1,5.9c0,0-4.2-2-4.8-3.4l-0.6-1.3c0,0,1.1,11.6-1.4,17c-1.9,3.9-4.1,7.7-6.5,11.3
			c0,0-9.6-6.8-10.8-12.7s-0.3-9.3-0.3-9.3s-3.7,0.9-5.4,2.8l-1.7,2c0,0-3.1-2-2.5-7.4c0.2-2.6,0.7-5.2,1.4-7.6c0,0-8.2,3.1-9,10.2
			s0.3,15-2,19.3S35.7,208.7,34,219.4c-1,5.7-1.5,11.5-1.4,17.3c0,0-7.4-8.8-12.2-25.2s-6.2-29.4,7.9-46.7
			c5.7-6.8,12.5-12.5,20.1-17c0,0-2.2-3.8-9-1.8s-6.8,8.9-12.7,12.1c-3.2,1.8-6.8,3.1-10.4,3.8c-1.1-3.1-0.9-6.6,0.6-9.6l2.5-4.7
			c-5.9,0.4-11.6-2.4-15.1-7.2c-5.9-8.3-2.5-12.7-2.5-12.7s3.4,6.6,10.6,4.9s4.7-10.2,14.2-13.4s20.2-2.5,31,0s18.9-5.2,18.9-5.2
			s-6.4-9.1-12.7-7.4s-3,6.6-16.6,6.6s-13.2-6.8-18.5-8.5s-6.4-0.8-6.4-0.8s0.6-3.2,6.6-5.9s7.2-2.8,7.2-2.8S21,91,19.5,76.6
			C18.6,68.8,18.8,60.3,26,55s11.5-2.8,11.5-2.8s-7,8.7,1.3,21.4S57,90.8,66.6,89.8s11.9-8.1,23.6-9.1s22.9,13.2,38,14.7
			s23.6,0.6,27.8,0l4.2-0.6c0,0-4.9,2.3-8.7,14.2s-8.1,21.9-11.3,26.3S129.9,143.6,129.9,143.6z"/>
		<path style="fill:#0039A6;" d="M153.8,95.1c0,0-19.5,0.6-28.8-4.1s-21.2-17-33.3-18.3s-12.3,5.1-17.2,5.6l-4.9,0.4
			c0,0,2.8,3,5.5,3.6c2.3,0.4,4.7,0.5,7,0.4l-4.7,2.6c0,0,6.8-0.8,10,0.8s-3.8,6.4-3.8,6.4s2.5,2.3,8.3,1.1s4.7-2.3,12.7,0.4
			s8.7,6.4,22.7,6.6C145.1,100.8,153.9,95.1,153.8,95.1"/>
		<path style="fill:none;stroke:#000000;stroke-width:1.76;stroke-linecap:round;stroke-linejoin:round;" d="M153.8,95.1
			c0,0-19.5,0.6-28.8-4.1s-21.2-17-33.3-18.3s-12.3,5.1-17.2,5.6l-4.9,0.4c0,0,2.8,3,5.5,3.6c2.3,0.4,4.7,0.5,7,0.4l-4.7,2.6
			c0,0,6.8-0.8,10,0.8s-3.8,6.4-3.8,6.4s2.5,2.3,8.3,1.1s4.7-2.3,12.7,0.4s8.7,6.4,22.7,6.6C145.1,100.8,153.8,95.1,153.8,95.1z"/>
		<path style="fill:#0039A6;" d="M163.6,91.2c0,0-9.3,11.3-9.3,19s-0.9,17.5-11.3,26.3s-13,7.1-13,7.1s11.6-7.6,7.4-17
			S125.1,115,125.1,115s6.8-6.8,11-5.1s9.6,4.3,9.9,0.6c0.2-2.1-0.5-4.2-2-5.7c0,0,5.1,3.7,7.4,0.3s7.4-11,9.6-12.4
			C161.8,92.1,162.6,91.6,163.6,91.2"/>
		<path style="fill:none;stroke:#000000;stroke-width:1.76;stroke-linecap:round;stroke-linejoin:round;" d="M163.6,91.2
			c0,0-9.3,11.3-9.3,19s-0.9,17.5-11.3,26.3s-13,7.1-13,7.1s11.6-7.6,7.4-17S125.1,115,125.1,115s6.8-6.8,11-5.1s9.6,4.3,9.9,0.6
			c0.2-2.1-0.5-4.2-2-5.7c0,0,5.1,3.7,7.4,0.3s7.4-11,9.6-12.4C161.8,92.1,162.7,91.6,163.6,91.2z"/>
		<path style="fill:#0039A6;" d="M18.8,69.2c0,0,6.2-14.9,10.6-12.3s0.6,5.9,0.6,5.9s4.4,1.7,7.6,0.4s6.2-2.3,6.2-2.3
			s0.8,3.2-1.9,7.2c-1.5,2.3-4,3.7-6.8,3.6c0,0,1.1,3.4,6.8,1.1s7.4-4.7,7.4-4.7c0,2,1.1,3.9,2.8,5.1c3,2.3,8.9,2.1,9.3,4.7l0.4,2.6
			c0,0,4.5-2.3,3-9.1s-4.3-9.1-4.3-9.1s5.3,1.1,9.1-0.4c2.7-1,5.5-1.8,8.3-2.3c0,0-7.2-5.7-10.2-11.5s-8.1-7.4-15.1-5.7
			s-8.3,4.3-8.3,4.3c-3.8-2.3-8.4-3-12.7-1.9c-6.4,1.7-9.9,7.3-11.7,12.1C18.2,62,18.9,69.2,18.8,69.2"/>
		<path style="fill:none;stroke:#000000;stroke-width:1.76;stroke-linecap:round;stroke-linejoin:round;" d="M18.8,69.2
			c0,0,6.2-14.9,10.6-12.3s0.6,5.9,0.6,5.9s4.4,1.7,7.6,0.4s6.2-2.3,6.2-2.3s0.8,3.2-1.9,7.2c-1.5,2.3-4,3.7-6.8,3.6
			c0,0,1.1,3.4,6.8,1.1s7.4-4.7,7.4-4.7c0,2,1.1,3.9,2.8,5.1c3,2.3,8.9,2.1,9.3,4.7l0.4,2.6c0,0,4.5-2.3,3-9.1s-4.3-9.1-4.3-9.1
			s5.3,1.1,9.1-0.4c2.7-1,5.5-1.8,8.3-2.3c0,0-7.2-5.7-10.2-11.5s-8.1-7.4-15.1-5.7s-8.3,4.3-8.3,4.3c-3.8-2.3-8.4-3-12.7-1.9
			c-6.4,1.7-9.9,7.3-11.7,12.1C18.2,62,18.8,69.2,18.8,69.2z"/>
		<path style="fill:none;stroke:#000000;stroke-width:1.76;stroke-linecap:round;stroke-linejoin:round;" d="M48.4,147.9
			c0,0,3.5-0.6,15.8-6.9s13.6-9.8,13.6-9.8"/>
		<path style="fill:none;stroke:#000000;stroke-width:1.76;stroke-linecap:round;stroke-linejoin:round;" d="M60.8,165.4
			c4.9-2.6,9.2-6.3,12.3-10.9l4.7-7.2"/>
		<path style="fill:none;stroke:#000000;stroke-width:1.76;stroke-linecap:round;stroke-linejoin:round;" d="M69.1,175.6
			c0,0-0.1-3.7,3.7-9.6l3.8-6"/>
		<path style="fill:none;stroke:#000000;stroke-width:1.76;stroke-linecap:round;stroke-linejoin:round;" d="M21,213.5
			c0,0-5-15.7,5.9-32.7c4.9-7.7,11.2-14.3,18.7-19.5"/>
		<path style="fill:none;stroke:#000000;stroke-width:1.76;stroke-linecap:round;stroke-linejoin:round;" d="M19.5,147.7
			c0,0,1.9-5.5,10.8-9.3"/>
		<path style="fill:none;stroke:#000000;stroke-width:1.76;stroke-linecap:round;stroke-linejoin:round;" d="M76.6,114
			c3.9-3.5,8.3-6.3,13.2-8.3"/>
		<path style="fill:none;stroke:#000000;stroke-width:1.76;stroke-linecap:round;stroke-linejoin:round;" d="M36.2,95.1
			c0,0,4.7-1.3,13.2-0.4s19.1,5.5,19.1,5.5"/>
		<path style="fill:none;stroke:#000000;stroke-width:1.76;stroke-linecap:round;stroke-linejoin:round;" d="M44.5,46.5
			c0,0,3.2,0.2,7,10s6,11.9,6,11.9"/>
		<path style="fill:none;stroke:#000000;stroke-width:1.76;stroke-linecap:round;stroke-linejoin:round;" d="M25.6,58.1
			c0,0-3,7.6,1.3,17.4c2.6,5.9,7.3,10.6,13.2,13.2"/>
		<path style="fill:none;stroke:#000000;stroke-width:1.76;stroke-linecap:round;stroke-linejoin:round;" d="M158.5,65.8
			c0,0-3,8.1,5.5,17.4s20.4,10.2,20.4,10.2"/>
		<path style="fill:none;stroke:#000000;stroke-width:1.76;stroke-linecap:round;stroke-linejoin:round;" d="M193.7,10.2
			c2.8-1,5.8-0.8,8.5,0.4c2.6,1.4,4.7,3.7,5.9,6.4"/>
		<path style="fill:none;stroke:#000000;stroke-width:1.76;stroke-linecap:round;stroke-linejoin:round;" d="M33.3,221.1
			c0,0,3,8.9,18.7,17.8s20.8,12.7,25.9,20.4S88,278.9,88,278.9"/>
		<path style="fill:none;stroke:#000000;stroke-width:1.76;stroke-linecap:round;stroke-linejoin:round;" d="M60.4,258.5
			c0,0-4.7-9.3-9.8-12.3c-3.9-2.5-7.6-5.3-11-8.5"/>
		<path style="fill:none;stroke:#000000;stroke-width:1.76;stroke-linecap:round;stroke-linejoin:round;" d="M65.5,232.6
			c0,0-5.5,1.7-13.2-1.3"/>
		<path style="fill:#0039A6;" d="M68.1,212.7c0,0-0.4,3.6-7.4,9.1"/>
		<path style="fill:none;stroke:#000000;stroke-width:1.76;stroke-linecap:round;stroke-linejoin:round;" d="M68.1,212.7
			c0,0-0.4,3.6-7.4,9.1"/>
		<path style="fill:#0039A6;" d="M35.4,278c0.9-4.1,2.5-8.1,4.7-11.7"/>
		<path style="fill:none;stroke:#000000;stroke-width:1.76;stroke-linecap:round;stroke-linejoin:round;" d="M35.4,278
			c0.9-4.1,2.5-8.1,4.7-11.7"/>
		<path style="fill:none;stroke:#000000;stroke-width:1.76;stroke-linecap:round;stroke-linejoin:round;" d="M67.4,293.3
			c0,0-7.1,5.9-3.1,14.4c2.3,5,7.3,8.3,12.8,8.5"/>
		<path style="fill:#009A3D;" d="M374.8,302.7c0,0,0,16.2,17.8,18.9c15.4,2.3,22.5-11.7,19.3-20s-10.4-8.3-10.4-8.3
			s5.5,6.4-1.1,13.4s-19.4,3-21.1-3.2s-2-6.5,2.5-13.3c3.9-5.9-0.9-6-4.3,0.9S374.8,302.7,374.8,302.7"/>
		<path style="fill:none;stroke:#000000;stroke-width:1.76;stroke-linecap:round;stroke-linejoin:round;" d="M374.8,302.7
			c0,0,0,16.2,17.8,18.9c15.4,2.3,22.5-11.7,19.3-20s-10.4-8.3-10.4-8.3s5.5,6.4-1.1,13.4s-19.4,3-21.1-3.2s-2-6.5,2.5-13.3
			c3.9-5.9-0.9-6-4.3,0.9S374.8,302.7,374.8,302.7z"/>
		<path style="fill:#0039A6;" d="M434.8,191c0,0,5.1,17.8-2.5,23.4s-15.7-1.3-18.7-6s-0.4-11.4-0.4-11.4s-8.1-1.7-10.6,6
			c-1.1,3.1-1.2,6.5-0.4,9.8c-4.2-1.7-8.9-1.7-13.2,0c-6.8,3-10.6,1.7-10.6,1.7s-2.1,4.5,6.4,10.5s20,7.6,20,7.6
			s-14.5-0.7-24.6,24.2c-18,44.1,2.4,60.6,2.4,60.6s-11.9-13,7.9-31.7c8.3-7.8,12.6-15.3,15.6-20c1.5-2.3,2.8-4.7,3.8-7.2
			c0,0-3.5,13.3-1,19l2.5,5.7c0,0,3.7-2,5.1-4l1.4-2c0,0-2.5,6.8,2.8,13.9c3,3.7,5.5,7.8,7.4,12.2c4.2-3.1,6.9-7.8,7.4-13
			c0.5-5.4,0.1-10.9-1.2-16.2c0,0,4.6,3.8,6.3,6.6l1.7,2.8c0,0,7.1-5.9,3.4-19.5s-8.2-11.6-8.2-19.3s2.3-13,4.5-16.1
			s8.2-14.4,2.5-26.6S434.8,191,434.8,191"/>
		<path style="fill:none;stroke:#000000;stroke-width:1.76;stroke-linecap:round;stroke-linejoin:round;" d="M434.8,191
			c0,0,5.1,17.8-2.5,23.4s-15.7-1.3-18.7-6s-0.4-11.4-0.4-11.4s-8.1-1.7-10.6,6c-1.1,3.1-1.2,6.5-0.4,9.8c-4.2-1.7-8.9-1.7-13.2,0
			c-6.8,3-10.6,1.7-10.6,1.7s-2.1,4.5,6.4,10.5s20,7.6,20,7.6s-14.5-0.7-24.6,24.2c-18,44.1,2.4,60.6,2.4,60.6s-11.9-13,7.9-31.7
			c8.3-7.8,12.6-15.3,15.6-20c1.5-2.3,2.8-4.7,3.8-7.2c0,0-3.5,13.3-1,19l2.5,5.7c0,0,3.7-2,5.1-4l1.4-2c0,0-2.5,6.8,2.8,13.9
			c3,3.7,5.5,7.8,7.4,12.2c4.2-3.1,6.9-7.8,7.4-13c0.5-5.4,0.1-10.9-1.2-16.2c0,0,4.6,3.8,6.3,6.6l1.7,2.8c0,0,7.1-5.9,3.4-19.5
			s-8.2-11.6-8.2-19.3s2.3-13,4.5-16.1s8.2-14.4,2.5-26.6S434.8,191,434.8,191z"/>
		<path style="fill:#0039A6;" d="M304.3,56.7c0,0,7.9,7.6-2,20.4s-24.1,13-34.5,14.4s-14.4,4.8-17.8,10.8s-1.4,13.6-1.4,13.6
			s3.7-16.1,13-17c9.3-0.9,25.5,1.1,39.6-6s18.4-13.6,19.5-23.8S304.2,56.7,304.3,56.7"/>
		<path style="fill:none;stroke:#000000;stroke-width:1.76;stroke-linecap:round;stroke-linejoin:round;" d="M304.3,56.7
			c0,0,7.9,7.6-2,20.4s-24.1,13-34.5,14.4s-14.4,4.8-17.8,10.8s-1.4,13.6-1.4,13.6s3.7-16.1,13-17c9.3-0.9,25.5,1.1,39.6-6
			s18.4-13.6,19.5-23.8S304.3,56.7,304.3,56.7z"/>
		<path style="fill:#0039A6;" d="M259,13.6c0,0,3.4-8.5,10-11.9s15.1,5.1,15.9,7.6s4,5.9-1.1,12.1s-3.2-0.6-9.1-2.1
			s-7.4,2.3-7.4,6.4c-0.1,2.1,0.4,4.3,1.5,6.1c0,0-7.9-0.6-10-7.6S259,13.6,259,13.6"/>
		<path style="fill:none;stroke:#000000;stroke-width:1.76;stroke-linecap:round;stroke-linejoin:round;" d="M259,13.6
			c0,0,3.4-8.5,10-11.9s15.1,5.1,15.9,7.6s4,5.9-1.1,12.1s-3.2-0.6-9.1-2.1s-7.4,2.3-7.4,6.4c-0.1,2.1,0.4,4.3,1.5,6.1
			c0,0-7.9-0.6-10-7.6S259,13.6,259,13.6z"/>
		<path style="fill:#009A3D;" d="M316.7,80.5c0,0,4.5-12.5-10.2-15.8s-19.8,4-27.2,4H272c0,0,5.1-3.4,3.4-7.9s-5.7,0-13.6-6.8
			s-3.4-5.1-3.4-5.1s5.1-4,8.5-4.5s-11.7-3.4-11.9-14.2c-0.3-14.4,7.4-21.6,7.4-21.6s-4,11,6.4,15.5c3.5,1.7,7.6,0.9,10.3-1.9
			c0,0,6.1-11.2,10-6c5.3,7.1,7.4,7.9,7.4,7.9s7.9,2.3,6.2-5.1l-1.7-7.4c0,0,14.7,4.5,16.4,15.8s6.9,16.9,7.9,28.9
			C326.6,72.3,316.7,80.5,316.7,80.5"/>
		<path style="fill:none;stroke:#000000;stroke-width:1.76;stroke-linecap:round;stroke-linejoin:round;" d="M316.7,80.5
			c0,0,4.5-12.5-10.2-15.8s-19.8,4-27.2,4H272c0,0,5.1-3.4,3.4-7.9s-5.7,0-13.6-6.8s-3.4-5.1-3.4-5.1s5.1-4,8.5-4.5
			s-11.7-3.4-11.9-14.2c-0.3-14.4,7.4-21.6,7.4-21.6s-4,11,6.4,15.5c3.5,1.7,7.6,0.9,10.3-1.9c0,0,6.1-11.2,10-6
			c5.3,7.1,7.4,7.9,7.4,7.9s7.9,2.3,6.2-5.1l-1.7-7.4c0,0,14.7,4.5,16.4,15.8s6.9,16.9,7.9,28.9C326.6,72.3,316.7,80.5,316.7,80.5z"
			/>
		<path style="fill:#009A3D;" d="M324.7,65.5c1.5-5.8,0.4-12.1-3.1-17c-6-8.5-17-10.5-27.7-8.5c-6.6,1.1-13.5,0.1-19.5-2.8"/>
		<path style="fill:none;stroke:#000000;stroke-width:1.76;stroke-linecap:round;stroke-linejoin:round;" d="M324.7,65.5
			c1.5-5.8,0.4-12.1-3.1-17c-6-8.5-17-10.5-27.7-8.5c-6.6,1.1-13.5,0.1-19.5-2.8"/>
		<path style="fill:#009A3D;" d="M340.2,143.6c0,0,4.2-0.6,3.1-4.8l-1.1-4.2c2.9-0.1,5.7,0.6,8.2,2c4,2.3,5.1,3.7,5.1,3.7
			s3.4-0.9,1.4-6s-2-7.6-2-7.6s4.3,2.3,7.4-1.4l3.1-3.7c0,0-3.4-0.3-6.2-4.5c-2.1-3.3-4-6.7-5.7-10.2c0,0,13.9,6.9,16.4,12.7
			c2.3,5.4,1.1,9,1.1,9s3.1,0.6,4.5-1.4l1.4-2c0,0,5.1,13,2.3,22.1s-4.8,15-3.7,20.9l1.1,5.9c0,0,4.3-2,4.8-3.4l0.6-1.4
			c0,0-1.1,11.6,1.4,17c1.9,3.9,4.1,7.7,6.5,11.4c0,0,9.6-6.8,10.8-12.7s0.3-9.3,0.3-9.3s3.7,0.9,5.4,2.8l1.7,2c0,0,3.1-2,2.5-7.4
			c-0.2-2.6-0.7-5.2-1.4-7.6c0,0,8.2,3.1,9.1,10.2s-0.3,15,2,19.3s14.1,13.9,15.9,24.6c1,5.7,1.5,11.5,1.4,17.3
			c0,0,7.4-8.8,12.2-25.2s6.2-29.4-7.9-46.7c-5.7-6.8-12.5-12.5-20.1-17c0,0,2.2-3.8,9-1.8s6.8,8.9,12.7,12.1
			c3.2,1.8,6.8,3.1,10.4,3.8c1.1-3.1,0.9-6.6-0.6-9.6l-2.5-4.7c5.9,0.4,11.6-2.4,15.1-7.2c6-8.3,2.5-12.7,2.5-12.7
			s-3.4,6.6-10.6,4.9s-4.7-10.2-14.2-13.4s-20.2-2.5-31,0s-18.9-5.3-18.9-5.3s6.4-9.1,12.7-7.4s3,6.6,16.6,6.6s13.2-6.8,18.5-8.5
			s6.4-0.8,6.4-0.8s-0.6-3.2-6.6-5.9s-7.2-2.8-7.2-2.8s15.2-4.1,16.8-18.5c0.9-7.8,0.6-16.3-6.6-21.7s-11.5-2.8-11.5-2.8
			s7,8.7-1.3,21.4s-18.3,17.2-27.8,16.1s-11.9-8.1-23.5-9.1s-22.9,13.2-38,14.7s-23.6,0.6-27.8,0l-4.3-0.6c0,0,4.9,2.3,8.7,14.2
			s8.1,21.9,11.3,26.3S340.2,143.6,340.2,143.6"/>
		<path style="fill:none;stroke:#000000;stroke-width:1.76;stroke-linecap:round;stroke-linejoin:round;" d="M340.2,143.6
			c0,0,4.2-0.6,3.1-4.8l-1.1-4.2c2.9-0.1,5.7,0.6,8.2,2c4,2.3,5.1,3.7,5.1,3.7s3.4-0.9,1.4-6s-2-7.6-2-7.6s4.3,2.3,7.4-1.4l3.1-3.7
			c0,0-3.4-0.3-6.2-4.5c-2.1-3.3-4-6.7-5.7-10.2c0,0,13.9,6.9,16.4,12.7c2.3,5.4,1.1,9,1.1,9s3.1,0.6,4.5-1.4l1.4-2
			c0,0,5.1,13,2.3,22.1s-4.8,15-3.7,20.9l1.1,5.9c0,0,4.3-2,4.8-3.4l0.6-1.4c0,0-1.1,11.6,1.4,17c1.9,3.9,4.1,7.7,6.5,11.4
			c0,0,9.6-6.8,10.8-12.7s0.3-9.3,0.3-9.3s3.7,0.9,5.4,2.8l1.7,2c0,0,3.1-2,2.5-7.4c-0.2-2.6-0.7-5.2-1.4-7.6c0,0,8.2,3.1,9.1,10.2
			s-0.3,15,2,19.3s14.1,13.9,15.9,24.6c1,5.7,1.5,11.5,1.4,17.3c0,0,7.4-8.8,12.2-25.2s6.2-29.4-7.9-46.7
			c-5.7-6.8-12.5-12.5-20.1-17c0,0,2.2-3.8,9-1.8s6.8,8.9,12.7,12.1c3.2,1.8,6.8,3.1,10.4,3.8c1.1-3.1,0.9-6.6-0.6-9.6l-2.5-4.7
			c5.9,0.4,11.6-2.4,15.1-7.2c6-8.3,2.5-12.7,2.5-12.7s-3.4,6.6-10.6,4.9s-4.7-10.2-14.2-13.4s-20.2-2.5-31,0s-18.9-5.3-18.9-5.3
			s6.4-9.1,12.7-7.4s3,6.6,16.6,6.6s13.2-6.8,18.5-8.5s6.4-0.8,6.4-0.8s-0.6-3.2-6.6-5.9s-7.2-2.8-7.2-2.8s15.2-4.1,16.8-18.5
			c0.9-7.8,0.6-16.3-6.6-21.7s-11.5-2.8-11.5-2.8s7,8.7-1.3,21.4s-18.3,17.2-27.8,16.1s-11.9-8.1-23.5-9.1s-22.9,13.2-38,14.7
			s-23.6,0.6-27.8,0l-4.3-0.6c0,0,4.9,2.3,8.7,14.2s8.1,21.9,11.3,26.3S340.2,143.6,340.2,143.6z"/>
		<path style="fill:#0039A6;" d="M316.3,95.1c0,0,19.5,0.6,28.9-4s21.2-17,33.3-18.3s12.3,5.1,17.2,5.5l4.9,0.4c0,0-2.8,3-5.5,3.6
			c-2.3,0.4-4.7,0.5-7,0.4l4.7,2.6c0,0-6.8-0.8-10,0.8s3.8,6.4,3.8,6.4s-2.5,2.3-8.3,1.1s-4.7-2.3-12.7,0.4s-8.7,6.4-22.7,6.6
			C325,100.8,316.3,95.1,316.3,95.1"/>
		<path style="fill:none;stroke:#000000;stroke-width:1.76;stroke-linecap:round;stroke-linejoin:round;" d="M316.3,95.1
			c0,0,19.5,0.6,28.9-4s21.2-17,33.3-18.3s12.3,5.1,17.2,5.5l4.9,0.4c0,0-2.8,3-5.5,3.6c-2.3,0.4-4.7,0.5-7,0.4l4.7,2.6
			c0,0-6.8-0.8-10,0.8s3.8,6.4,3.8,6.4s-2.5,2.3-8.3,1.1s-4.7-2.3-12.7,0.4s-8.7,6.4-22.7,6.6C325,100.8,316.3,95.1,316.3,95.1z"/>
		<path style="fill:#0039A6;" d="M306.5,91.2c0,0,9.3,11.3,9.3,19s0.8,17.5,11.3,26.3s13,7.1,13,7.1s-11.6-7.6-7.4-17
			S345,115,345,115s-6.8-6.8-11-5.1s-9.6,4.3-9.9,0.6c-0.2-2.1,0.5-4.2,2-5.7c0,0-5.1,3.7-7.4,0.3s-7.4-11-9.6-12.4
			C308.3,92.1,307.5,91.6,306.5,91.2"/>
		<path style="fill:none;stroke:#000000;stroke-width:1.76;stroke-linecap:round;stroke-linejoin:round;" d="M306.5,91.2
			c0,0,9.3,11.3,9.3,19s0.8,17.5,11.3,26.3s13,7.1,13,7.1s-11.6-7.6-7.4-17S345,115,345,115s-6.8-6.8-11-5.1s-9.6,4.3-9.9,0.6
			c-0.2-2.1,0.5-4.2,2-5.7c0,0-5.1,3.7-7.4,0.3s-7.4-11-9.6-12.4C308.3,92.1,307.5,91.6,306.5,91.2z"/>
		<path style="fill:#0039A6;" d="M451.3,69.2c0,0-6.2-14.9-10.6-12.3s-0.6,5.9-0.6,5.9s-4.5,1.7-7.6,0.4s-6.2-2.3-6.2-2.3
			s-0.9,3.2,1.9,7.2c1.5,2.3,4.1,3.7,6.8,3.6c0,0-1.1,3.4-6.8,1.1s-7.4-4.7-7.4-4.7c0,2-1.1,3.9-2.7,5.1c-3,2.3-8.9,2.1-9.3,4.7
			l-0.4,2.6c0,0-4.5-2.3-3-9.1s4.2-9.1,4.2-9.1s-5.3,1.1-9.1-0.4c-2.7-1-5.5-1.8-8.3-2.3c0,0,7.2-5.7,10.2-11.5s8.1-7.4,15.1-5.7
			s8.3,4.3,8.3,4.3c3.8-2.3,8.4-3,12.7-1.9c6.4,1.7,9.9,7.3,11.7,12.1C451.9,62,451.3,69.2,451.3,69.2"/>
		<path style="fill:none;stroke:#000000;stroke-width:1.76;stroke-linecap:round;stroke-linejoin:round;" d="M451.3,69.2
			c0,0-6.2-14.9-10.6-12.3s-0.6,5.9-0.6,5.9s-4.5,1.7-7.6,0.4s-6.2-2.3-6.2-2.3s-0.9,3.2,1.9,7.2c1.5,2.3,4.1,3.7,6.8,3.6
			c0,0-1.1,3.4-6.8,1.1s-7.4-4.7-7.4-4.7c0,2-1.1,3.9-2.7,5.1c-3,2.3-8.9,2.1-9.3,4.7l-0.4,2.6c0,0-4.5-2.3-3-9.1s4.2-9.1,4.2-9.1
			s-5.3,1.1-9.1-0.4c-2.7-1-5.5-1.8-8.3-2.3c0,0,7.2-5.7,10.2-11.5s8.1-7.4,15.1-5.7s8.3,4.3,8.3,4.3c3.8-2.3,8.4-3,12.7-1.9
			c6.4,1.7,9.9,7.3,11.7,12.1C452,62,451.3,69.2,451.3,69.2z"/>
		<path style="fill:none;stroke:#000000;stroke-width:1.76;stroke-linecap:round;stroke-linejoin:round;" d="M421.7,147.9
			c0,0-3.5-0.6-15.8-6.9s-13.6-9.8-13.6-9.8"/>
		<path style="fill:none;stroke:#000000;stroke-width:1.76;stroke-linecap:round;stroke-linejoin:round;" d="M409.3,165.4
			c-4.9-2.6-9.1-6.3-12.3-10.9l-4.7-7.2"/>
		<path style="fill:none;stroke:#000000;stroke-width:1.76;stroke-linecap:round;stroke-linejoin:round;" d="M401.1,175.6
			c0,0,0.1-3.7-3.7-9.6l-3.8-6"/>
		<path style="fill:none;stroke:#000000;stroke-width:1.76;stroke-linecap:round;stroke-linejoin:round;" d="M449.2,213.5
			c0,0,5-15.7-6-32.7c-4.9-7.7-11.2-14.3-18.7-19.5"/>
		<path style="fill:none;stroke:#000000;stroke-width:1.76;stroke-linecap:round;stroke-linejoin:round;" d="M450.7,147.7
			c0,0-1.9-5.5-10.8-9.3"/>
		<path style="fill:none;stroke:#000000;stroke-width:1.76;stroke-linecap:round;stroke-linejoin:round;" d="M393.6,114
			c-3.9-3.5-8.3-6.3-13.2-8.3"/>
		<path style="fill:none;stroke:#000000;stroke-width:1.76;stroke-linecap:round;stroke-linejoin:round;" d="M433.9,95.1
			c0,0-4.7-1.3-13.2-0.4s-19.1,5.5-19.1,5.5"/>
		<path style="fill:none;stroke:#000000;stroke-width:1.76;stroke-linecap:round;stroke-linejoin:round;" d="M425.6,46.5
			c0,0-3.2,0.2-7,10s-5.9,11.9-5.9,11.9"/>
		<path style="fill:none;stroke:#000000;stroke-width:1.76;stroke-linecap:round;stroke-linejoin:round;" d="M444.5,58.1
			c0,0,3,7.6-1.3,17.4c-2.6,5.9-7.3,10.6-13.2,13.2"/>
		<path style="fill:none;stroke:#000000;stroke-width:1.76;stroke-linecap:round;stroke-linejoin:round;" d="M311.6,65.8
			c0,0,3,8.1-5.5,17.4s-20.4,10.2-20.4,10.2"/>
		<path style="fill:none;stroke:#000000;stroke-width:1.76;stroke-linecap:round;stroke-linejoin:round;" d="M276.4,10.2
			c-2.8-1-5.8-0.8-8.5,0.4c-2.6,1.4-4.7,3.7-5.9,6.4"/>
		<path style="fill:none;stroke:#000000;stroke-width:1.76;stroke-linecap:round;stroke-linejoin:round;" d="M436.9,221.1
			c0,0-3,8.9-18.7,17.8s-20.8,12.7-25.9,20.4s-10.2,19.5-10.2,19.5"/>
		<path style="fill:none;stroke:#000000;stroke-width:1.76;stroke-linecap:round;stroke-linejoin:round;" d="M409.7,258.5
			c0,0,4.7-9.3,9.8-12.3c3.9-2.5,7.6-5.3,11-8.5"/>
		<path style="fill:none;stroke:#000000;stroke-width:1.76;stroke-linecap:round;stroke-linejoin:round;" d="M404.6,232.6
			c0,0,5.5,1.7,13.2-1.3"/>
		<path style="fill:#0039A6;" d="M402.1,212.7c0,0,0.4,3.6,7.4,9.1"/>
		<path style="fill:none;stroke:#000000;stroke-width:1.76;stroke-linecap:round;stroke-linejoin:round;" d="M402.1,212.7
			c0,0,0.4,3.6,7.4,9.1"/>
		<path style="fill:#0039A6;" d="M434.8,278c-0.9-4.1-2.5-8.1-4.7-11.7"/>
		<path style="fill:none;stroke:#000000;stroke-width:1.76;stroke-linecap:round;stroke-linejoin:round;" d="M434.8,278
			c-0.9-4.1-2.5-8.1-4.7-11.7"/>
		<path style="fill:none;stroke:#000000;stroke-width:1.76;stroke-linecap:round;stroke-linejoin:round;" d="M402.8,293.3
			c0,0,7.1,5.9,3.1,14.4c-2.3,5-7.2,8.2-12.7,8.5"/>
	</g>
</g>
</svg>
