<?xml version="1.0" encoding="utf-8"?>
<!-- Generator: Adobe Illustrator 23.0.2, SVG Export Plug-In . SVG Version: 6.00 Build 0)  -->
<svg version="1.1" id="Réteg_1" xmlns="http://www.w3.org/2000/svg" xmlns:xlink="http://www.w3.org/1999/xlink" x="0px" y="0px"
	 viewBox="0 0 596.1 324.2" style="enable-background:new 0 0 596.1 324.2;" xml:space="preserve">
<title>ornamentika_01</title>
<g>
	<g>
		<path style="fill:#DC281E;" d="M193.9,99.3c-10.7-14.5-40.5,7.6-40.5,7.6s-5.1-9.6-14.5-9.9s-12.4,2.8-12.4,2.8
			s15.3,2.6,15.3,13.6c0,9.2-6.5,15.4-19.8,13.8l0,0c0.2,2.3,0.9,4.6,2.3,6.5c2.3,3.4,8.2,4.5,8.2,4.5s-2.5,5.7-10.2,3.4
			c-4.6-1.4-8.4-4.5-10.8-8.7l-2.8,3.4c-2.8,3.4-11.6,4-11.6,4s2.3-4,1.4-7.1c-1.1-4-2-6.5-2-6.5L94,129c-2.5,2.3-11,2.3-11,2.3
			v-5.4c0-2.3,2-6.5,2-6.5s-6,0.3-13.9-3.1s-5.9-13-5.9-13c3.5,2.8,7.9,4.5,12.4,4.7c7.4,0.3,8.8-7.1,8.8-7.1l0.3-0.2
			c-0.7-2.2-1-4.6-0.8-6.9c0.8-9.3-5.1-14.4-14.4-16.1S64.5,64,70.5,62.5c4.5-1.1,6,1.7,6,1.7S78.7,54,66.3,52.3
			c-10.1-1.4-15,4.2-16.7,11.9s-0.3,9.3-0.3,9.3s-7.7,0-7.7-11s2.5-16.1,2.5-16.1S29.1,46.2,22.1,58c-5.7,9.6-2.5,18.1-2.5,18.1
			S1.8,77.8,0.9,93S17,107.5,17,107.5s-8.5-13.6,5.1-13.6s13.6,23.8,13.6,23.8s-16.1,0.5-25.5,14.3c-1.2,3.6-4.3,16.6,9.7,28.2
			c16.5,13.6,32.9,21.5,38.8,30.3s4.8,14.1,4.8,14.1s-5.7-5.1-9.3-5.9l-3.7-0.9c0,0,6.5,8.2,6.8,15s-2.8,8.8-2.8,8.8
			s-1.1-4.8-3.7-6.8l-2.5-2c0,0,2.5,9.6-6.2,14.7c-7.4,4.3-13,2-14.5,1.1c-8.8-2-2.7-14.1-2.7-14.1s-10.2-1.7-11,10.2
			S27.2,245,27.2,245s-3.4,14.4,7.6,21.2s12.7,17,12.7,17s10.2-7.6,11-16.1c0.5-4.9,0.1-9.9-1.1-14.7c0,0,5.4-1.4,11.3,4.5
			s6.8,9.3,6.8,9.3s7.9-0.9,6.8-11.9c-1.1-10.4-5.1-12.7-5.1-12.7s2.5-2.3,11,3.4c6,4,6.8,9.3,6.8,9.3s4.5-3.7,3.4-15.3
			c-0.9-8.8-4.2-11.9-4.2-11.9s15.3-5.1,25.5,17s-4.3,32.3-4.3,32.3s-5.1,2-9-1.1s-2.8-11.9-2.8-11.9s-5.1,2-6.2,6.8S96,277,96,277
			s-10.8-6.5-19.8-0.3S72,289.5,72,289.5s4.5-8.2,11.6-2.8s-3.1,10.5-3.1,18.1s6.2,7.9,6.2,7.9s-4.5-6.5,4.5-9.9s16.1,6.2,16.1,10.5
			s-5.7,7.1-5.7,7.1s7.7,5.1,15.8,2s8.2-15,8.2-15s7.9,7.6,17.8,1.1s5.1-19.5,5.1-19.5s1.7,9.1-7.4,10.8s-13.9-8.8-14.4-19.3
			s6-16.1,2.8-35.4s-14.2-24.9-20.9-28.3s-23.8-6-23.8-6s3.4-8.5,15.8-7.9s19.8,13.3,19.8,13.3s3.1-5.9,2.8-11.6l-0.3-5.7
			c0,0,16.4-3.1,20.4-10.5s0.9-10.5,0.9-10.5s-2.8,8.2-10.8,10.2s-17-6.8-15.3-15s14.7,0.9,14.7,0.9s3.4-7.9-5.1-13
			s-22.9,6.8-22.9,6.8s-5.4-12.5-21.3-12.8s-15,12.5-15,12.5s7.1-7.4,16.4-2.8s2.3,16.7-11.9,14.1s-29.4-14.7-27.7-30.3
			s19-12.7,23.2-11s18.4,12.2,44.2,11.9s32.8-13,39.1-22.1s19.3-20.7,29.1-21.8s4.3,11.3,4.3,11.3S201.9,110.1,193.9,99.3"/>
		<path style="fill:none;stroke:#000000;stroke-width:1.76;stroke-linecap:round;stroke-linejoin:round;" d="M193.9,99.3
			c-10.7-14.5-40.5,7.6-40.5,7.6s-5.1-9.6-14.5-9.9s-12.4,2.8-12.4,2.8s15.3,2.6,15.3,13.6c0,9.2-6.5,15.4-19.8,13.8l0,0
			c0.2,2.3,0.9,4.6,2.3,6.5c2.3,3.4,8.2,4.5,8.2,4.5s-2.5,5.7-10.2,3.4c-4.6-1.4-8.4-4.5-10.8-8.7l-2.8,3.4c-2.8,3.4-11.6,4-11.6,4
			s2.3-4,1.4-7.1c-1.1-4-2-6.5-2-6.5L94,129c-2.5,2.3-11,2.3-11,2.3v-5.4c0-2.3,2-6.5,2-6.5s-6,0.3-13.9-3.1s-5.9-13-5.9-13
			c3.5,2.8,7.9,4.5,12.4,4.7c7.4,0.3,8.8-7.1,8.8-7.1l0.3-0.2c-0.7-2.2-1-4.6-0.8-6.9c0.8-9.3-5.1-14.4-14.4-16.1S64.5,64,70.5,62.5
			c4.5-1.1,6,1.7,6,1.7S78.7,54,66.3,52.3c-10.1-1.4-15,4.2-16.7,11.9s-0.3,9.3-0.3,9.3s-7.7,0-7.7-11s2.5-16.1,2.5-16.1
			S29.1,46.2,22.1,58c-5.7,9.6-2.5,18.1-2.5,18.1S1.8,77.8,0.9,93S17,107.5,17,107.5s-8.5-13.6,5.1-13.6s13.6,23.8,13.6,23.8
			s-16.1,0.5-25.5,14.3c-1.2,3.6-4.3,16.6,9.7,28.2c16.5,13.6,32.9,21.5,38.8,30.3s4.8,14.1,4.8,14.1s-5.7-5.1-9.3-5.9l-3.7-0.9
			c0,0,6.5,8.2,6.8,15s-2.8,8.8-2.8,8.8s-1.1-4.8-3.7-6.8l-2.5-2c0,0,2.5,9.6-6.2,14.7c-7.4,4.3-13,2-14.5,1.1
			c-8.8-2-2.7-14.1-2.7-14.1s-10.2-1.7-11,10.2S27.2,245,27.2,245s-3.4,14.4,7.6,21.2s12.7,17,12.7,17s10.2-7.6,11-16.1
			c0.5-4.9,0.1-9.9-1.1-14.7c0,0,5.4-1.4,11.3,4.5s6.8,9.3,6.8,9.3s7.9-0.9,6.8-11.9c-1.1-10.4-5.1-12.7-5.1-12.7s2.5-2.3,11,3.4
			c6,4,6.8,9.3,6.8,9.3s4.5-3.7,3.4-15.3c-0.9-8.8-4.2-11.9-4.2-11.9s15.3-5.1,25.5,17s-4.3,32.3-4.3,32.3s-5.1,2-9-1.1
			s-2.8-11.9-2.8-11.9s-5.1,2-6.2,6.8S96,277,96,277s-10.8-6.5-19.8-0.3S72,289.5,72,289.5s4.5-8.2,11.6-2.8s-3.1,10.5-3.1,18.1
			s6.2,7.9,6.2,7.9s-4.5-6.5,4.5-9.9s16.1,6.2,16.1,10.5s-5.7,7.1-5.7,7.1s7.7,5.1,15.8,2s8.2-15,8.2-15s7.9,7.6,17.8,1.1
			s5.1-19.5,5.1-19.5s1.7,9.1-7.4,10.8s-13.9-8.8-14.4-19.3s6-16.1,2.8-35.4s-14.2-24.9-20.9-28.3s-23.8-6-23.8-6s3.4-8.5,15.8-7.9
			s19.8,13.3,19.8,13.3s3.1-5.9,2.8-11.6l-0.3-5.7c0,0,16.4-3.1,20.4-10.5s0.9-10.5,0.9-10.5s-2.8,8.2-10.8,10.2s-17-6.8-15.3-15
			s14.7,0.9,14.7,0.9s3.4-7.9-5.1-13s-22.9,6.8-22.9,6.8s-5.4-12.5-21.3-12.8s-15,12.5-15,12.5s7.1-7.4,16.4-2.8s2.3,16.7-11.9,14.1
			s-29.4-14.7-27.7-30.3s19-12.7,23.2-11s18.4,12.2,44.2,11.9s32.8-13,39.1-22.1s19.3-20.7,29.1-21.8s4.3,11.3,4.3,11.3
			S201.9,110.1,193.9,99.3z"/>
		<path style="fill:#FFD200;" d="M77.6,108c-4.6-0.3-8.9-1.9-12.4-4.8c0,0-2,9.6,5.9,13s13.9,3.2,13.9,3.2s-2,4.3-2,6.5v5.4
			c0,0,8.5,0,11-2.3l2.6-2.3c0,0,0.8,2.5,2,6.5c0.9,3-1.4,7.1-1.4,7.1s8.8-0.6,11.6-4l2.8-3.4c2.3,4.2,6.2,7.4,10.8,8.8
			c7.7,2.3,10.2-3.4,10.2-3.4s-5.9-1.1-8.2-4.5c-1.3-1.9-2.1-4.2-2.3-6.5l0,0c-3.1-0.4-6.1-1-9.1-1.9c-15.3-4.7-23.8-15.5-26.3-24.5
			l-0.3,0.2C86.4,101,85,108.3,77.6,108"/>
		<path style="fill:none;stroke:#000000;stroke-width:1.76;stroke-linecap:round;stroke-linejoin:round;" d="M77.6,108
			c-4.6-0.3-8.9-1.9-12.4-4.8c0,0-2,9.6,5.9,13s13.9,3.2,13.9,3.2s-2,4.3-2,6.5v5.4c0,0,8.5,0,11-2.3l2.6-2.3c0,0,0.8,2.5,2,6.5
			c0.9,3-1.4,7.1-1.4,7.1s8.8-0.6,11.6-4l2.8-3.4c2.3,4.2,6.2,7.4,10.8,8.8c7.7,2.3,10.2-3.4,10.2-3.4s-5.9-1.1-8.2-4.5
			c-1.3-1.9-2.1-4.2-2.3-6.5l0,0c-3.1-0.4-6.1-1-9.1-1.9c-15.3-4.7-23.8-15.5-26.3-24.5l-0.3,0.2C86.4,101,85,108.3,77.6,108z"/>
		<path style="fill:#FFD200;" d="M42,227.5c8.8-5.1,6.2-14.7,6.2-14.7l2.5,2c2.5,2,3.7,6.8,3.7,6.8s3.1-2,2.8-8.8s-6.8-15-6.8-15
			l3.7,0.9c3.7,0.9,9.3,5.9,9.3,5.9s1.1-5.4-4.8-14.1s-22.4-16.7-38.8-30.3c-14-11.6-10.9-24.6-9.7-28.2c-1.3,1.9-2.5,3.9-3.4,6.1
			c-11.2,27,13.6,44.1,22.1,61.1s9.6,29.9,0.9,29.7c-0.8,0-1.6-0.1-2.4-0.3C29,229.4,34.5,231.7,42,227.5"/>
		<path style="fill:none;stroke:#000000;stroke-width:1.76;stroke-linecap:round;stroke-linejoin:round;" d="M42,227.5
			c8.8-5.1,6.2-14.7,6.2-14.7l2.5,2c2.5,2,3.7,6.8,3.7,6.8s3.1-2,2.8-8.8s-6.8-15-6.8-15l3.7,0.9c3.7,0.9,9.3,5.9,9.3,5.9
			s1.1-5.4-4.8-14.1s-22.4-16.7-38.8-30.3c-14-11.6-10.9-24.6-9.7-28.2c-1.3,1.9-2.5,3.9-3.4,6.1c-11.2,27,13.6,44.1,22.1,61.1
			s9.6,29.9,0.9,29.7c-0.8,0-1.6-0.1-2.4-0.3C29,229.4,34.5,231.8,42,227.5z"/>
		<path style="fill:#DC281E;" d="M122.3,19.2c0,0-2,11.4,5.1,12.3c5.7,0.7,9.1-3.8,9.6-9.2s6-5.4,6-5.4s-5.7,6.8,3.7,9.9
			s16.1-6.5,13.3-12.5S148.1,9,148.1,9s0.9-3.1,9.6-3.7s13.9,6.8,13.9,19s-8.8,8.7-7.1,22s15.9,15.3,39.6,14.4s29.4-4,43.9-6.8
			s20.1-2.3,20.1-2.3s-5.9-5.9,1.1-13s13.9-4.5,13.9-4.5s-8.2,3.4-7.1,9.6s19.8,9,19.5,29.7s-20.9,23.8-30,18.1s-4.4-13.8-1.4-16.7
			c4.2-4.3,8.8,0,8.8,0s-5.9,1.4-5.9,7.6s19.8,4.8,17.5-7.6s-17.5-11.6-25-9.1s-15.4,11.3-16.7,15.8c-2.8,9.6,1.7,14.2,1.7,14.2
			s-7.9,0.3-12.2-8.5s-4.3-11.9-4.3-11.9s-5.7,9.3-19,11s-15-2.8-15-2.8s11.6,0.6,8.8-9.6s-22-4.8-25.7-3s-5.9,10.2,1.4,11.9
			s8.2-2.5,8.2-2.5s-2,11.3-18.4,5.1s-7.1-13.9-7.1-13.9s-13.6,1.4-20.9-6s-3.1-11.3-3.1-11.3s6.8,11.9,15.9,10.2s-1.2-9.1-6.2-15.8
			s-4.8-11-4.8-11s-12.5,9.3-20.9,2C112.2,31.8,122.4,19.2,122.3,19.2"/>
		<path style="fill:none;stroke:#000000;stroke-width:1.76;stroke-linecap:round;stroke-linejoin:round;" d="M122.3,19.2
			c0,0-2,11.4,5.1,12.3c5.7,0.7,9.1-3.8,9.6-9.2s6-5.4,6-5.4s-5.7,6.8,3.7,9.9s16.1-6.5,13.3-12.5S148.1,9,148.1,9s0.9-3.1,9.6-3.7
			s13.9,6.8,13.9,19s-8.8,8.7-7.1,22s15.9,15.3,39.6,14.4s29.4-4,43.9-6.8s20.1-2.3,20.1-2.3s-5.9-5.9,1.1-13s13.9-4.5,13.9-4.5
			s-8.2,3.4-7.1,9.6s19.8,9,19.5,29.7s-20.9,23.8-30,18.1s-4.4-13.8-1.4-16.7c4.2-4.3,8.8,0,8.8,0s-5.9,1.4-5.9,7.6
			s19.8,4.8,17.5-7.6s-17.5-11.6-25-9.1s-15.4,11.3-16.7,15.8c-2.8,9.6,1.7,14.2,1.7,14.2s-7.9,0.3-12.2-8.5s-4.3-11.9-4.3-11.9
			s-5.7,9.3-19,11s-15-2.8-15-2.8s11.6,0.6,8.8-9.6s-22-4.8-25.7-3s-5.9,10.2,1.4,11.9s8.2-2.5,8.2-2.5s-2,11.3-18.4,5.1
			s-7.1-13.9-7.1-13.9s-13.6,1.4-20.9-6s-3.1-11.3-3.1-11.3s6.8,11.9,15.9,10.2s-1.2-9.1-6.2-15.8s-4.8-11-4.8-11s-12.5,9.3-20.9,2
			C112.2,31.8,122.3,19.2,122.3,19.2z"/>
		<path style="fill:#FFD200;" d="M166.1,7.7c0,0,4.9,11.5,1.9,19.1c-1.8,4.5-2.9,9.3-3.4,14.2c2.1-3,5.2-5.3,8.7-6.4
			c5.9-1.9,12.1,1.3,12.5,6.6c0.3,3-1.4,5.8-4.2,6.8c0,0,9.1,2.8,13.8-3c2.4-2.7,3.2-6.3,2.3-9.8c0,0,8.1,3.8,13.2-2.1
			s1.3-10.4,1.3-10.4s-1.9,8.1-12.5,5.3s-4.9-10.8-10.2-19.5s-13.6-7.6-13.6-7.6s7.9,8.9,3,13S166.1,7.8,166.1,7.7"/>
		<path style="fill:none;stroke:#000000;stroke-width:1.76;stroke-linecap:round;stroke-linejoin:round;" d="M166.1,7.7
			c0,0,4.9,11.5,1.9,19.1c-1.8,4.5-2.9,9.3-3.4,14.2c2.1-3,5.2-5.3,8.7-6.4c5.9-1.9,12.1,1.3,12.5,6.6c0.3,3-1.4,5.8-4.2,6.8
			c0,0,9.1,2.8,13.8-3c2.4-2.7,3.2-6.3,2.3-9.8c0,0,8.1,3.8,13.2-2.1s1.3-10.4,1.3-10.4s-1.9,8.1-12.5,5.3s-4.9-10.8-10.2-19.5
			s-13.6-7.6-13.6-7.6s7.9,8.9,3,13S166.1,7.7,166.1,7.7z"/>
		<path style="fill:none;stroke:#000000;stroke-width:1.76;stroke-linecap:round;stroke-linejoin:round;" d="M198.1,35.3
			c0,0-9.6-2.5-14.6-10.2"/>
		<path style="fill:none;stroke:#000000;stroke-width:1.76;stroke-linecap:round;stroke-linejoin:round;" d="M50.4,197.8
			c0,0-7.9-8.2-13.6-13"/>
		<path style="fill:none;stroke:#000000;stroke-width:1.76;stroke-linecap:round;stroke-linejoin:round;" d="M48.2,212.8
			c0,0-1.4-7.1-9.6-17S25.3,181.3,19,175.4"/>
		<path style="fill:none;stroke:#000000;stroke-width:1.76;stroke-linecap:round;stroke-linejoin:round;" d="M125.7,307.3
			c0,0-5.5-6.2-5.5-14.3c-0.1-4.6,0.5-9.2,1.7-13.6"/>
		<path style="fill:none;stroke:#000000;stroke-width:1.76;stroke-linecap:round;stroke-linejoin:round;" d="M96,277
			c0,0-0.2,7.5,8.1,10.5s12.1-3,12.1-3"/>
		<path style="fill:none;stroke:#000000;stroke-width:1.76;stroke-linecap:round;stroke-linejoin:round;" d="M108.5,222.5
			c6.2,3.6,11.2,9,14.2,15.5c4.7,10.6,4,16.1,4,16.1"/>
		<path style="fill:none;stroke:#000000;stroke-width:1.76;stroke-linecap:round;stroke-linejoin:round;" d="M123.2,198.9
			c0,0-1.3-7.4-11.5-12.9s-16.6-3.6-16.6-3.6"/>
		<path style="fill:none;stroke:#000000;stroke-width:1.76;stroke-linecap:round;stroke-linejoin:round;" d="M19.6,76.1
			c0,0,4.5-0.6,14,2.1s18,14.8,18,14.8"/>
		<path style="fill:#DC281E;" d="M153.5,106.9c0,0,2,3.5,0.7,9.1"/>
		<path style="fill:none;stroke:#000000;stroke-width:1.76;stroke-linecap:round;stroke-linejoin:round;" d="M153.5,106.9
			c0,0,2,3.5,0.7,9.1"/>
		<path style="fill:#DC281E;" d="M35.7,117.7c0,0,4.8-0.8,15,2.3"/>
		<path style="fill:none;stroke:#000000;stroke-width:1.76;stroke-linecap:round;stroke-linejoin:round;" d="M35.7,117.7
			c0,0,4.8-0.8,15,2.3"/>
		<path style="fill:#DC281E;" d="M158,111.4c0,0,9.9-9.6,18.4-11s11-0.3,11-0.3"/>
		<path style="fill:none;stroke:#000000;stroke-width:1.76;stroke-linecap:round;stroke-linejoin:round;" d="M158,111.4
			c0,0,9.9-9.6,18.4-11s11-0.3,11-0.3"/>
		<path style="fill:#DC281E;" d="M7.7,99c0,0-4.2-5.7,3.7-12.7S32,85.4,32,85.4"/>
		<path style="fill:none;stroke:#000000;stroke-width:1.76;stroke-linecap:round;stroke-linejoin:round;" d="M7.7,99
			c0,0-4.2-5.7,3.7-12.7S32,85.4,32,85.4"/>
		<path style="fill:none;stroke:#000000;stroke-width:1.76;stroke-linecap:round;stroke-linejoin:round;" d="M44.8,168
			c0,0,4.8,9.6,19.8,16.1s23.2-0.6,23.2-0.6"/>
		<path style="fill:none;stroke:#000000;stroke-width:1.76;stroke-linecap:round;stroke-linejoin:round;" d="M247.1,61.6
			c0,0,11.3-6,27.4-3.4s15.6,19,15.6,19"/>
		<path style="fill:none;stroke:#000000;stroke-width:1.76;stroke-linecap:round;stroke-linejoin:round;" d="M158.6,32.2
			c0,0-4.8,9.9,1.7,21.5s19,11.6,19,11.6"/>
		<path style="fill:#DC281E;" d="M402.2,99.3c10.7-14.5,40.5,7.6,40.5,7.6s5.1-9.6,14.4-9.9s12.5,2.8,12.5,2.8s-15.3,2.6-15.3,13.6
			c0,9.2,6.5,15.4,19.8,13.8l0,0c-0.2,2.3-0.9,4.6-2.3,6.5c-2.3,3.4-8.2,4.5-8.2,4.5s2.5,5.7,10.2,3.4c4.6-1.4,8.4-4.5,10.7-8.7
			l2.8,3.4c2.8,3.4,11.6,4,11.6,4s-2.3-4-1.4-7.1c1.1-4,2-6.5,2-6.5l2.5,2.3c2.5,2.3,11,2.3,11,2.3v-5.4c0-2.3-2-6.5-2-6.5
			s6,0.3,13.9-3.1s5.9-13,5.9-13c-3.5,2.8-7.9,4.5-12.4,4.7c-7.4,0.3-8.8-7.1-8.8-7.1l-0.3-0.2c0.7-2.2,1-4.6,0.8-6.9
			c-0.8-9.3,5.1-14.4,14.4-16.1s6.8-13.8,0.8-15.3c-4.5-1.1-6,1.7-6,1.7s-2.2-10.1,10.2-11.8c10.1-1.4,15,4.2,16.7,11.9
			s0.3,9.3,0.3,9.3s7.6,0,7.6-11s-2.5-16.1-2.5-16.1S567,46.2,574,58c5.7,9.6,2.5,18.1,2.5,18.1s17.8,1.7,18.7,17
			s-16.1,14.4-16.1,14.4S587.6,94,574,94s-13.6,23.8-13.6,23.8s16.1,0.5,25.5,14.3c1.2,3.6,4.3,16.6-9.7,28.2
			c-16.4,13.6-32.8,21.5-38.8,30.3s-4.8,14.1-4.8,14.1s5.7-5.1,9.3-5.9l3.7-0.9c0,0-6.5,8.2-6.8,15s2.8,8.8,2.8,8.8s1.1-4.8,3.7-6.8
			l2.5-2c0,0-2.5,9.6,6.2,14.7c7.4,4.3,13,2,14.5,1.1c8.8-2,2.7-14.1,2.7-14.1s10.2-1.7,11,10.2S568.9,245,568.9,245
			s3.4,14.4-7.6,21.2s-12.7,17-12.7,17s-10.2-7.6-11-16.1c-0.5-4.9-0.1-9.9,1.1-14.7c0,0-5.4-1.4-11.3,4.5s-6.8,9.3-6.8,9.3
			s-7.9-0.9-6.8-11.9c1.1-10.4,5.1-12.7,5.1-12.7s-2.5-2.3-11,3.4c-6,4-6.8,9.3-6.8,9.3s-4.5-3.7-3.4-15.3
			c0.9-8.8,4.2-11.9,4.2-11.9s-15.3-5.1-25.5,17s4.3,32.3,4.3,32.3s5.1,2,9-1.1s2.8-11.9,2.8-11.9s5.1,2,6.2,6.8s1.4,6.8,1.4,6.8
			s10.8-6.5,19.8-0.3s4.2,12.7,4.2,12.7s-4.5-8.2-11.6-2.8s3.1,10.5,3.1,18.1s-6.2,7.9-6.2,7.9s4.5-6.5-4.5-9.9s-16.1,6.2-16.1,10.5
			s5.7,7.1,5.7,7.1s-7.6,5.1-15.9,2s-8.2-15-8.2-15s-7.9,7.6-17.8,1.1s-5.1-19.5-5.1-19.5s-1.7,9.1,7.4,10.8s13.9-8.8,14.4-19.3
			s-6-16.1-2.8-35.4s14.1-24.9,20.9-28.3s23.8-5.9,23.8-5.9s-3.4-8.5-15.9-7.9s-19.8,13.3-19.8,13.3s-3.1-5.9-2.8-11.6l0.3-5.7
			c0,0-16.4-3.1-20.4-10.5s-0.9-10.5-0.9-10.5s2.8,8.2,10.8,10.2s17-6.8,15.3-15s-14.7,0.9-14.7,0.9s-3.4-7.9,5.1-13
			s22.9,6.8,22.9,6.8s5.4-12.4,21.2-12.7s15,12.5,15,12.5s-7.1-7.4-16.4-2.8s-2.3,16.7,11.9,14.1c14.2-2.5,29.4-14.7,27.7-30.3
			s-19-12.7-23.2-11s-18.4,12.2-44.2,11.9s-32.8-13-39-22.1s-19.3-20.7-29.1-21.8s-4.3,11.3-4.3,11.3S394.3,110.2,402.2,99.3"/>
		<path style="fill:none;stroke:#000000;stroke-width:1.76;stroke-linecap:round;stroke-linejoin:round;" d="M402.2,99.3
			c10.7-14.5,40.5,7.6,40.5,7.6s5.1-9.6,14.4-9.9s12.5,2.8,12.5,2.8s-15.3,2.6-15.3,13.6c0,9.2,6.5,15.4,19.8,13.8l0,0
			c-0.2,2.3-0.9,4.6-2.3,6.5c-2.3,3.4-8.2,4.5-8.2,4.5s2.5,5.7,10.2,3.4c4.6-1.4,8.4-4.5,10.7-8.7l2.8,3.4c2.8,3.4,11.6,4,11.6,4
			s-2.3-4-1.4-7.1c1.1-4,2-6.5,2-6.5l2.5,2.3c2.5,2.3,11,2.3,11,2.3v-5.4c0-2.3-2-6.5-2-6.5s6,0.3,13.9-3.1s5.9-13,5.9-13
			c-3.5,2.8-7.9,4.5-12.4,4.7c-7.4,0.3-8.8-7.1-8.8-7.1l-0.3-0.2c0.7-2.2,1-4.6,0.8-6.9c-0.8-9.3,5.1-14.4,14.4-16.1
			s6.8-13.8,0.8-15.3c-4.5-1.1-6,1.7-6,1.7s-2.2-10.1,10.2-11.8c10.1-1.4,15,4.2,16.7,11.9s0.3,9.3,0.3,9.3s7.6,0,7.6-11
			s-2.5-16.1-2.5-16.1S567,46.2,574,58c5.7,9.6,2.5,18.1,2.5,18.1s17.8,1.7,18.7,17s-16.1,14.4-16.1,14.4S587.6,94,574,94
			s-13.6,23.8-13.6,23.8s16.1,0.5,25.5,14.3c1.2,3.6,4.3,16.6-9.7,28.2c-16.4,13.6-32.8,21.5-38.8,30.3s-4.8,14.1-4.8,14.1
			s5.7-5.1,9.3-5.9l3.7-0.9c0,0-6.5,8.2-6.8,15s2.8,8.8,2.8,8.8s1.1-4.8,3.7-6.8l2.5-2c0,0-2.5,9.6,6.2,14.7c7.4,4.3,13,2,14.5,1.1
			c8.8-2,2.7-14.1,2.7-14.1s10.2-1.7,11,10.2S568.9,245,568.9,245s3.4,14.4-7.6,21.2s-12.7,17-12.7,17s-10.2-7.6-11-16.1
			c-0.5-4.9-0.1-9.9,1.1-14.7c0,0-5.4-1.4-11.3,4.5s-6.8,9.3-6.8,9.3s-7.9-0.9-6.8-11.9c1.1-10.4,5.1-12.7,5.1-12.7s-2.5-2.3-11,3.4
			c-6,4-6.8,9.3-6.8,9.3s-4.5-3.7-3.4-15.3c0.9-8.8,4.2-11.9,4.2-11.9s-15.3-5.1-25.5,17s4.3,32.3,4.3,32.3s5.1,2,9-1.1
			s2.8-11.9,2.8-11.9s5.1,2,6.2,6.8s1.4,6.8,1.4,6.8s10.8-6.5,19.8-0.3s4.2,12.7,4.2,12.7s-4.5-8.2-11.6-2.8s3.1,10.5,3.1,18.1
			s-6.2,7.9-6.2,7.9s4.5-6.5-4.5-9.9s-16.1,6.2-16.1,10.5s5.7,7.1,5.7,7.1s-7.6,5.1-15.9,2s-8.2-15-8.2-15s-7.9,7.6-17.8,1.1
			s-5.1-19.5-5.1-19.5s-1.7,9.1,7.4,10.8s13.9-8.8,14.4-19.3s-6-16.1-2.8-35.4s14.1-24.9,20.9-28.3s23.8-5.9,23.8-5.9
			s-3.4-8.5-15.9-7.9s-19.8,13.3-19.8,13.3s-3.1-5.9-2.8-11.6l0.3-5.7c0,0-16.4-3.1-20.4-10.5s-0.9-10.5-0.9-10.5s2.8,8.2,10.8,10.2
			s17-6.8,15.3-15s-14.7,0.9-14.7,0.9s-3.4-7.9,5.1-13s22.9,6.8,22.9,6.8s5.4-12.4,21.2-12.7s15,12.5,15,12.5s-7.1-7.4-16.4-2.8
			s-2.3,16.7,11.9,14.1c14.2-2.5,29.4-14.7,27.7-30.3s-19-12.7-23.2-11s-18.4,12.2-44.2,11.9s-32.8-13-39-22.1s-19.3-20.7-29.1-21.8
			s-4.3,11.3-4.3,11.3S394.2,110.1,402.2,99.3z"/>
		<path style="fill:#FFD200;" d="M518.5,108c4.6-0.2,8.9-1.9,12.5-4.8c0,0,2,9.6-5.9,13s-13.9,3.1-13.9,3.1s2,4.3,2,6.5v5.4
			c0,0-8.5,0-11-2.3l-2.5-2.3c0,0-0.9,2.5-2,6.5c-0.9,3,1.4,7.1,1.4,7.1s-8.8-0.6-11.6-4l-2.9-3.3c-2.3,4.2-6.2,7.4-10.8,8.8
			c-7.6,2.3-10.2-3.4-10.2-3.4s5.9-1.1,8.2-4.5c1.3-1.9,2.1-4.2,2.3-6.5l0,0c3.1-0.4,6.1-1,9-1.9c15.3-4.7,23.8-15.5,26.4-24.5
			l0.3,0.2c0,0,1.4,7.3,8.8,7.1"/>
		<path style="fill:none;stroke:#000000;stroke-width:1.76;stroke-linecap:round;stroke-linejoin:round;" d="M518.5,108
			c4.6-0.2,8.9-1.9,12.5-4.8c0,0,2,9.6-5.9,13s-13.9,3.1-13.9,3.1s2,4.3,2,6.5v5.4c0,0-8.5,0-11-2.3l-2.5-2.3c0,0-0.9,2.5-2,6.5
			c-0.9,3,1.4,7.1,1.4,7.1s-8.8-0.6-11.6-4l-2.9-3.3c-2.3,4.2-6.2,7.4-10.8,8.8c-7.6,2.3-10.2-3.4-10.2-3.4s5.9-1.1,8.2-4.5
			c1.3-1.9,2.1-4.2,2.3-6.5l0,0c3.1-0.4,6.1-1,9-1.9c15.3-4.7,23.8-15.5,26.4-24.5l0.3,0.2C509.8,101.1,511.2,108.3,518.5,108z"/>
		<path style="fill:#FFD200;" d="M554.2,227.5c-8.8-5.1-6.2-14.7-6.2-14.7l-2.5,2c-2.5,2-3.7,6.8-3.7,6.8s-3.1-2-2.8-8.8
			s6.8-15,6.8-15l-3.7,0.9c-3.7,0.9-9.3,5.9-9.3,5.9s-1.1-5.4,4.8-14.1s22.4-16.7,38.8-30.3c14-11.6,10.9-24.6,9.7-28.2
			c1.3,1.9,2.4,4,3.3,6.1c11.2,27-13.6,44.1-22.1,61.1s-9.6,29.9-0.8,29.7c0.8,0,1.6-0.1,2.4-0.3
			C567.2,229.4,561.6,231.8,554.2,227.5"/>
		<path style="fill:none;stroke:#000000;stroke-width:1.76;stroke-linecap:round;stroke-linejoin:round;" d="M554.2,227.5
			c-8.8-5.1-6.2-14.7-6.2-14.7l-2.5,2c-2.5,2-3.7,6.8-3.7,6.8s-3.1-2-2.8-8.8s6.8-15,6.8-15l-3.7,0.9c-3.7,0.9-9.3,5.9-9.3,5.9
			s-1.1-5.4,4.8-14.1s22.4-16.7,38.8-30.3c14-11.6,10.9-24.6,9.7-28.2c1.3,1.9,2.4,4,3.3,6.1c11.2,27-13.6,44.1-22.1,61.1
			s-9.6,29.9-0.8,29.7c0.8,0,1.6-0.1,2.4-0.3C567.2,229.4,561.6,231.8,554.2,227.5z"/>
		<path style="fill:#DC281E;" d="M473.8,19.2c0,0,2,11.4-5.1,12.3c-5.7,0.7-9.1-3.8-9.6-9.2s-6-5.4-6-5.4s5.7,6.8-3.7,9.9
			s-16.1-6.5-13.3-12.5S448,9,448,9s-0.9-3.1-9.6-3.7s-13.9,6.8-13.9,19s8.8,8.8,7.1,22.1S415.8,61.6,392,60.8s-29.4-4-43.9-6.8
			S328,51.7,328,51.7s5.9-5.9-1.1-13S313,34.2,313,34.2s8.2,3.4,7.1,9.6s-19.8,9-19.5,29.7s20.9,23.8,30,18.1s4.4-13.8,1.4-16.7
			c-4.2-4.3-8.8,0-8.8,0s5.9,1.4,5.9,7.6s-19.8,4.8-17.5-7.6s17.5-11.6,24.9-9.1s15.4,11.3,16.7,15.8c2.8,9.6-1.7,14.2-1.7,14.2
			s7.9,0.3,12.2-8.5s4.3-11.9,4.3-11.9s5.7,9.3,19,11s15-2.8,15-2.8s-11.6,0.6-8.8-9.6s22-4.8,25.7-3s5.9,10.2-1.4,11.9
			s-8.2-2.5-8.2-2.5s2,11.3,18.4,5.1s7.1-13.9,7.1-13.9s13.6,1.4,20.9-5.9s3.1-11.3,3.1-11.3S452,66.2,443,64.5s1.1-9.1,6.2-15.8
			s4.8-11,4.8-11s12.5,9.3,21,2C484,31.8,473.8,19.2,473.8,19.2"/>
		<path style="fill:none;stroke:#000000;stroke-width:1.76;stroke-linecap:round;stroke-linejoin:round;" d="M473.8,19.2
			c0,0,2,11.4-5.1,12.3c-5.7,0.7-9.1-3.8-9.6-9.2s-6-5.4-6-5.4s5.7,6.8-3.7,9.9s-16.1-6.5-13.3-12.5S448,9,448,9s-0.9-3.1-9.6-3.7
			s-13.9,6.8-13.9,19s8.8,8.8,7.1,22.1S415.8,61.6,392,60.8s-29.4-4-43.9-6.8S328,51.7,328,51.7s5.9-5.9-1.1-13S313,34.2,313,34.2
			s8.2,3.4,7.1,9.6s-19.8,9-19.5,29.7s20.9,23.8,30,18.1s4.4-13.8,1.4-16.7c-4.2-4.3-8.8,0-8.8,0s5.9,1.4,5.9,7.6
			s-19.8,4.8-17.5-7.6s17.5-11.6,24.9-9.1s15.4,11.3,16.7,15.8c2.8,9.6-1.7,14.2-1.7,14.2s7.9,0.3,12.2-8.5s4.3-11.9,4.3-11.9
			s5.7,9.3,19,11s15-2.8,15-2.8s-11.6,0.6-8.8-9.6s22-4.8,25.7-3s5.9,10.2-1.4,11.9s-8.2-2.5-8.2-2.5s2,11.3,18.4,5.1
			s7.1-13.9,7.1-13.9s13.6,1.4,20.9-5.9s3.1-11.3,3.1-11.3S452,66.2,443,64.5s1.1-9.1,6.2-15.8s4.8-11,4.8-11s12.5,9.3,21,2
			C483.9,31.8,473.8,19.2,473.8,19.2z"/>
		<path style="fill:#FFD200;" d="M430.1,7.7c0,0-4.9,11.5-1.9,19.1c1.8,4.5,2.9,9.3,3.4,14.2c-2.1-3-5.2-5.3-8.7-6.4
			c-5.9-1.9-12.1,1.3-12.5,6.6c-0.3,3,1.4,5.8,4.2,6.8c0,0-9.1,2.8-13.8-3c-2.4-2.7-3.2-6.3-2.3-9.8c0,0-8.1,3.8-13.2-2.1
			S384,22.8,384,22.8s1.9,8.1,12.5,5.3s4.9-10.8,10.2-19.5s13.6-7.6,13.6-7.6s-7.9,8.9-3,13S430,7.8,430.1,7.7"/>
		<path style="fill:none;stroke:#000000;stroke-width:1.76;stroke-linecap:round;stroke-linejoin:round;" d="M430.1,7.7
			c0,0-4.9,11.5-1.9,19.1c1.8,4.5,2.9,9.3,3.4,14.2c-2.1-3-5.2-5.3-8.7-6.4c-5.9-1.9-12.1,1.3-12.5,6.6c-0.3,3,1.4,5.8,4.2,6.8
			c0,0-9.1,2.8-13.8-3c-2.4-2.7-3.2-6.3-2.3-9.8c0,0-8.1,3.8-13.2-2.1S384,22.8,384,22.8s1.9,8.1,12.5,5.3s4.9-10.8,10.2-19.5
			s13.6-7.6,13.6-7.6s-7.9,8.9-3,13S430.1,7.7,430.1,7.7z"/>
		<path style="fill:none;stroke:#000000;stroke-width:1.76;stroke-linecap:round;stroke-linejoin:round;" d="M398,35.3
			c0,0,9.5-2.5,14.6-10.2"/>
		<path style="fill:none;stroke:#000000;stroke-width:1.76;stroke-linecap:round;stroke-linejoin:round;" d="M545.7,197.8
			c0,0,7.9-8.2,13.6-13"/>
		<path style="fill:none;stroke:#000000;stroke-width:1.76;stroke-linecap:round;stroke-linejoin:round;" d="M548,212.8
			c0,0,1.4-7.1,9.6-17s13.3-14.4,19.5-20.4"/>
		<path style="fill:none;stroke:#000000;stroke-width:1.76;stroke-linecap:round;stroke-linejoin:round;" d="M470.4,307.3
			c0,0,5.5-6.2,5.5-14.3c0.1-4.6-0.5-9.2-1.7-13.6"/>
		<path style="fill:none;stroke:#000000;stroke-width:1.76;stroke-linecap:round;stroke-linejoin:round;" d="M500.1,277
			c0,0,0.2,7.5-8.1,10.5s-12.1-3-12.1-3"/>
		<path style="fill:none;stroke:#000000;stroke-width:1.76;stroke-linecap:round;stroke-linejoin:round;" d="M487.6,222.5
			c-6.2,3.6-11.2,9-14.2,15.5c-4.7,10.6-4,16.1-4,16.1"/>
		<path style="fill:none;stroke:#000000;stroke-width:1.76;stroke-linecap:round;stroke-linejoin:round;" d="M473,198.9
			c0,0,1.3-7.4,11.5-12.9s16.5-3.6,16.5-3.6"/>
		<path style="fill:none;stroke:#000000;stroke-width:1.76;stroke-linecap:round;stroke-linejoin:round;" d="M576.5,76.1
			c0,0-4.5-0.6-14,2.1s-18,14.9-18,14.9"/>
		<path style="fill:#DC281E;" d="M442.7,106.9c0,0-2,3.5-0.7,9.1"/>
		<path style="fill:none;stroke:#000000;stroke-width:1.76;stroke-linecap:round;stroke-linejoin:round;" d="M442.7,106.9
			c0,0-2,3.5-0.7,9.1"/>
		<path style="fill:#DC281E;" d="M560.4,117.7c0,0-4.8-0.8-15,2.3"/>
		<path style="fill:none;stroke:#000000;stroke-width:1.76;stroke-linecap:round;stroke-linejoin:round;" d="M560.4,117.7
			c0,0-4.8-0.8-15,2.3"/>
		<path style="fill:#DC281E;" d="M438.1,111.4c0,0-9.9-9.6-18.4-11s-11-0.3-11-0.3"/>
		<path style="fill:none;stroke:#000000;stroke-width:1.76;stroke-linecap:round;stroke-linejoin:round;" d="M438.1,111.4
			c0,0-9.9-9.6-18.4-11s-11-0.3-11-0.3"/>
		<path style="fill:#DC281E;" d="M588.4,99c0,0,4.2-5.7-3.7-12.7s-20.7-0.8-20.7-0.8"/>
		<path style="fill:none;stroke:#000000;stroke-width:1.76;stroke-linecap:round;stroke-linejoin:round;" d="M588.4,99
			c0,0,4.2-5.7-3.7-12.7s-20.7-0.8-20.7-0.8"/>
		<path style="fill:none;stroke:#000000;stroke-width:1.76;stroke-linecap:round;stroke-linejoin:round;" d="M551.3,168
			c0,0-4.8,9.6-19.8,16.1s-23.2-0.6-23.2-0.6"/>
		<path style="fill:none;stroke:#000000;stroke-width:1.76;stroke-linecap:round;stroke-linejoin:round;" d="M349,61.6
			c0,0-11.3-6-27.5-3.4s-15.6,19-15.6,19"/>
		<path style="fill:none;stroke:#000000;stroke-width:1.76;stroke-linecap:round;stroke-linejoin:round;" d="M437.6,32.2
			c0,0,4.8,9.9-1.7,21.5s-19,11.6-19,11.6"/>
	</g>
</g>
</svg>
