<?xml version="1.0" encoding="utf-8"?>
<!-- Generator: Adobe Illustrator 23.0.2, SVG Export Plug-In . SVG Version: 6.00 Build 0)  -->
<svg version="1.1" id="Réteg_1" xmlns="http://www.w3.org/2000/svg" xmlns:xlink="http://www.w3.org/1999/xlink" x="0px" y="0px"
	 viewBox="0 0 532.8 369.5" style="enable-background:new 0 0 532.8 369.5;" xml:space="preserve">
<title>ornamentika_02</title>
<g>
	<g>
		<path style="fill:#0039A6;" d="M230.3,156.6c0,0-29.4-23.2-51.5-15.9S151,159.4,151,159.4s-4.5-9.6-13-3.4
			c-5.1,3.7-8.7,9.2-10.2,15.3c0,0-5.1-9.1,1.1-20.9s16.4-13,16.4-13s-10.2-10.8-24.4-7.4s-18.7,9.6-16.4,22.1s-16.4,8.5-23.8,6.8
			s-25.5-32.3-25.5-32.3S35,145.8,35,157.7c-0.1,27.4-21.2,10.5-21.2,10.5s-12.7-9.9,1.4-32s45.8-41.9,64-47s30.6-0.6,37.9-11.9
			s1.1-5.1-4.5-11.9c-3.3-3.8-5.3-8.6-5.7-13.6c0,0-1.1,8.5-5.1,10.8l-4,2.3c0,0-4.5-4-5.1-7.9l-0.6-4c0,0-8.5,4.5-12.4,4.5
			s-11.5-17-7.1-25.2c3.7-6.8,19.5-7.6,19.5-7.6s-11.3-9.1-6.8-17s6.2-6.7,6.2-6.7c-1.2,4.5,0.9,9.3,5.1,11.3
			c7.4,4,15.3,0.6,15.3-3.4v-4c0,0,11.3,6.8,14.2,15.8c2.8,9.1,2.8,23.2,10.8,26s-4,7.9,9.1,12.5s31.7,5.1,31.7,5.1
			s0.6,10.8-7.9,14.7S155,85.8,155,85.8s-0.6,6.8,7.4,6.2s9.1-2.8,9.1-2.8s-7.9,5.7,1.1,7.3s13-10.2,13-10.2s-1.1,15.3,7.9,14.2
			s7.4-12.5,7.4-12.5s2.3,23.2,15.3,30.6s36.2,7.3,36.2,7.3s-4,5.1-13,7.4c-6.1,1.4-12.4,2-18.7,1.7c3.3,2.8,6.1,6.3,7.9,10.2
			C230.3,148.8,230.9,152.7,230.3,156.6"/>
		<path style="fill:none;stroke:#000000;stroke-width:1.76;stroke-linecap:round;stroke-linejoin:round;" d="M230.3,156.6
			c0,0-29.4-23.2-51.5-15.9S151,159.4,151,159.4s-4.5-9.6-13-3.4c-5.1,3.7-8.7,9.2-10.2,15.3c0,0-5.1-9.1,1.1-20.9s16.4-13,16.4-13
			s-10.2-10.8-24.4-7.4s-18.7,9.6-16.4,22.1s-16.4,8.5-23.8,6.8s-25.5-32.3-25.5-32.3S35,145.8,35,157.7
			c-0.1,27.4-21.2,10.5-21.2,10.5s-12.7-9.9,1.4-32s45.8-41.9,64-47s30.6-0.6,37.9-11.9s1.1-5.1-4.5-11.9c-3.3-3.8-5.3-8.6-5.7-13.6
			c0,0-1.1,8.5-5.1,10.8l-4,2.3c0,0-4.5-4-5.1-7.9l-0.6-4c0,0-8.5,4.5-12.4,4.5s-11.5-17-7.1-25.2c3.7-6.8,19.5-7.6,19.5-7.6
			s-11.3-9.1-6.8-17s6.2-6.7,6.2-6.7c-1.2,4.5,0.9,9.3,5.1,11.3c7.4,4,15.3,0.6,15.3-3.4v-4c0,0,11.3,6.8,14.2,15.8
			c2.8,9.1,2.8,23.2,10.8,26s-4,7.9,9.1,12.5s31.7,5.1,31.7,5.1s0.6,10.8-7.9,14.7S155,85.8,155,85.8s-0.6,6.8,7.4,6.2
			s9.1-2.8,9.1-2.8s-7.9,5.7,1.1,7.3s13-10.2,13-10.2s-1.1,15.3,7.9,14.2s7.4-12.5,7.4-12.5s2.3,23.2,15.3,30.6s36.2,7.3,36.2,7.3
			s-4,5.1-13,7.4c-6.1,1.4-12.4,2-18.7,1.7c3.3,2.8,6.1,6.3,7.9,10.2C230.3,148.8,230.9,152.7,230.3,156.6z"/>
		<path style="fill:#FFD200;" d="M83.2,57c0,0-1.7,5.5-9.3,2.5s-8.9-9-8.9-9s-4.7,3-4.7,5.5v2.5c0,0-5.1,1.3-6.8-6.4
			s1.7-8.9,1.7-8.9s-9.8-1.7-5.1-10.2s9.7-7.2,9.7-7.2s-3.8,5.5,1.7,6.4s2.9-0.9,9.8-4.7c13.4-7.5,18-2.4,18-2.4s-10.3,2.8-7.8,7.9
			c1.6,3.1,4.6,5.1,8.1,5.5c0,0-1.3,5.5-6.8,5.5h-5.5c-0.7,2.5-0.2,5.1,1.3,7.2C80,53.4,81.6,55.3,83.2,57"/>
		<path style="fill:none;stroke:#000000;stroke-width:1.76;stroke-linecap:round;stroke-linejoin:round;" d="M83.2,57
			c0,0-1.7,5.5-9.3,2.5s-8.9-9-8.9-9s-4.7,3-4.7,5.5v2.5c0,0-5.1,1.3-6.8-6.4s1.7-8.9,1.7-8.9s-9.8-1.7-5.1-10.2s9.7-7.2,9.7-7.2
			s-3.8,5.5,1.7,6.4s2.9-0.9,9.8-4.7c13.4-7.5,18-2.4,18-2.4s-10.3,2.8-7.8,7.9c1.6,3.1,4.6,5.1,8.1,5.5c0,0-1.3,5.5-6.8,5.5h-5.5
			c-0.7,2.5-0.2,5.1,1.3,7.2C80,53.4,81.6,55.3,83.2,57z"/>
		<path style="fill:#FFD200;" d="M112.5,65.5c0,0-5.9,11.5,0,14s-7.6,3.8,0,8.1s5.5,1.7,5.5,1.7s-1.7,7.6,4.2,7.6
			c5.9,0,5.5-1.3,5.5-1.3s-0.8,13.2,19.1,27.2s43.7,14.9,55.6,15.7s31-4.2,31-4.2s-51.8,4.7-74.3-13.2c-19.6-15.6-17-28.9-16.1-39.1
			s3.4-14.4,3.4-14.4c1.5,2.9,5,4.1,8,2.6c0,0,0.1,0,0.1-0.1c5.5-2.5,3.4-5.9,3.4-5.9s0,8.1,3.4,8.1c2.3-0.1,4.5-0.8,6.4-2.1
			c0,0-1.7,5.1,1.3,6.4c1.6,0.8,3.5,0.8,5.1,0l3-7.2c0,0,2.1,5.1,5.1-0.4s-4.2-8.1-4.2-8.1s2.1-5.1,0.4-8.9s-0.4-8.9-0.4-8.9
			s-6.8,0-9.8,4.7l-3,4.7c0,0,0.9-8.5-3.8-11.9l-4.7-3.4c0,0,4.3,5.1,0.9,8.9s-0.9,9.8-5.1,10.6s-5.5-3-5.1-8.1s-4.2-10.6-9.8-15.3
			s-11.5-12.5-11.5-12.5c-2.6,5.2-3.8,10.9-3.4,16.7c0.8,8.9,5.5,5.5,8.1,10.6l2.6,5.1c0,0-6.8-6.4-8.9,0.8s-6.8-0.4-8.1,4.3
			C115.7,60.9,114.4,63.4,112.5,65.5"/>
		<path style="fill:none;stroke:#000000;stroke-width:1.76;stroke-linecap:round;stroke-linejoin:round;" d="M112.5,65.5
			c0,0-5.9,11.5,0,14s-7.6,3.8,0,8.1s5.5,1.7,5.5,1.7s-1.7,7.6,4.2,7.6c5.9,0,5.5-1.3,5.5-1.3s-0.8,13.2,19.1,27.2
			s43.7,14.9,55.6,15.7s31-4.2,31-4.2s-51.8,4.7-74.3-13.2c-19.6-15.6-17-28.9-16.1-39.1s3.4-14.4,3.4-14.4c1.5,2.9,5,4.1,8,2.6
			c0,0,0.1,0,0.1-0.1c5.5-2.5,3.4-5.9,3.4-5.9s0,8.1,3.4,8.1c2.3-0.1,4.5-0.8,6.4-2.1c0,0-1.7,5.1,1.3,6.4c1.6,0.8,3.5,0.8,5.1,0
			l3-7.2c0,0,2.1,5.1,5.1-0.4s-4.2-8.1-4.2-8.1s2.1-5.1,0.4-8.9s-0.4-8.9-0.4-8.9s-6.8,0-9.8,4.7l-3,4.7c0,0,0.9-8.5-3.8-11.9
			l-4.7-3.4c0,0,4.3,5.1,0.9,8.9s-0.9,9.8-5.1,10.6s-5.5-3-5.1-8.1s-4.2-10.6-9.8-15.3s-11.5-12.5-11.5-12.5
			c-2.6,5.2-3.8,10.9-3.4,16.7c0.8,8.9,5.5,5.5,8.1,10.6l2.6,5.1c0,0-6.8-6.4-8.9,0.8s-6.8-0.4-8.1,4.3
			C115.7,60.9,114.4,63.4,112.5,65.5z"/>
		<path style="fill:#FFD200;" d="M84.1,87.5c0,0-43,6.2-56.2,40.2c-1.8,4.7-9.1,17-9.1,17s8.9-5.4,7.4,2.8
			c-1.8,10.1,0.5,16.7-0.3,23.2c-1.3,10.2-20.8,28.9-20.8,28.9s-0.4,3,3,3h3.4c0,0,1.3,5.5-3.4,11s-5.9,4.3,0,5.9s6.4-3.4,7.2-0.9
			s-0.4,6.4,5.1,5.5s0,0.9,7.2,7.2s6.4,8.1,6.4,8.1s5.1-4.3,7.6-8.9c1.8-3,4.2-5.5,7.2-7.2c0,0-4.7,5.5-4.2,15.3s9.3,14.9,10.2,22.1
			c0.5,4.5,0.5,9.1,0,13.6c0,0,8.5-4.7,10.2-12.3s5.5-8,5.5-8s-4.7,11,0.8,18.3s6.8,12.7,15.3,17s5.5,13.6,5.5,13.6
			s10.6-4.2,10.2-14.9s-9.3-8.5-10.2-19.1s8.1-15.3,3.4-30.1S67.1,209,67.1,209s9.3,4.7,11.5,0.4s7.2-0.4,7.6-4.7s-10.2-8.1-8.5-14
			s8.1-2.6,6.8-10.2s-12.3,0-20.8-6.4s-10.2-14.5-4.7-15.3s2.1,8.9,10.2,8.9s7.6-8.9,7.6-8.9s11.5,5.9,19.6,2.1s4.2-9.3,4.2-9.3
			s-7.2,6.4-14,0.4s0.4-7.6,3-13.2s-3.4-11.5-8.5-11.5s-11.9-1.3-12.7-5.5s-4.7,6-8.5-3.8C55.7,107.1,84.1,87.6,84.1,87.5"/>
		<path style="fill:none;stroke:#000000;stroke-width:1.76;stroke-linecap:round;stroke-linejoin:round;" d="M84.1,87.5
			c0,0-43,6.2-56.2,40.2c-1.8,4.7-9.1,17-9.1,17s8.9-5.4,7.4,2.8c-1.8,10.1,0.5,16.7-0.3,23.2c-1.3,10.2-20.8,28.9-20.8,28.9
			s-0.4,3,3,3h3.4c0,0,1.3,5.5-3.4,11s-5.9,4.3,0,5.9s6.4-3.4,7.2-0.9s-0.4,6.4,5.1,5.5s0,0.9,7.2,7.2s6.4,8.1,6.4,8.1
			s5.1-4.3,7.6-8.9c1.8-3,4.2-5.5,7.2-7.2c0,0-4.7,5.5-4.2,15.3s9.3,14.9,10.2,22.1c0.5,4.5,0.5,9.1,0,13.6c0,0,8.5-4.7,10.2-12.3
			s5.5-8,5.5-8s-4.7,11,0.8,18.3s6.8,12.7,15.3,17s5.5,13.6,5.5,13.6s10.6-4.2,10.2-14.9s-9.3-8.5-10.2-19.1s8.1-15.3,3.4-30.1
			S67.1,209,67.1,209s9.3,4.7,11.5,0.4s7.2-0.4,7.6-4.7s-10.2-8.1-8.5-14s8.1-2.6,6.8-10.2s-12.3,0-20.8-6.4s-10.2-14.5-4.7-15.3
			s2.1,8.9,10.2,8.9s7.6-8.9,7.6-8.9s11.5,5.9,19.6,2.1s4.2-9.3,4.2-9.3s-7.2,6.4-14,0.4s0.4-7.6,3-13.2s-3.4-11.5-8.5-11.5
			s-11.9-1.3-12.7-5.5s-4.7,6-8.5-3.8C55.6,107.1,84.1,87.5,84.1,87.5z"/>
		<path style="fill:#0039A6;" d="M79.4,218.3c0,0,24.6,20.8,29.7,51.3s-1.7,30.6-1.3,41.2s5.1,14.9,5.1,14.9s-4.2,1.7-6.8,0
			l-2.6-1.7c0,0,1.3,11,7.2,17.8s5.5,9.8,5.5,9.8s-4.7,2.1-8.5,0.4l-3.8-1.7c1,3.7,1.1,7.7,0.4,11.5c-0.6,3.2-2.9,5.7-5.9,6.8
			c0,0-1.7-9.3-4.3-11l-2.5-1.7c0,0-5.1-0.4-9.8,5.1c-1.8,2.1-2.4,5-1.7,7.6c-3.7-0.5-6.8-3.2-7.7-6.8c-1.8-6.6,0.4-6.8,0.4-6.8
			s-8.9,6.8-14,6.8s-20.8-0.4-31.8-20s-10.6-33.1-16.1-36.1c-3.1-1.8-6.8-2.3-10.2-1.3c0,0,20.4-4.7,27.6-11.5s19.5-11.5,28.4-10.2
			s14.4,13.6,24.6,23.8s16.1-12.3,16.1-17.8s-24.5-8.3-15.3-29.3C92.2,237.2,79.4,218.3,79.4,218.3"/>
		<path style="fill:none;stroke:#000000;stroke-width:1.76;stroke-linecap:round;stroke-linejoin:round;" d="M79.4,218.3
			c0,0,24.6,20.8,29.7,51.3s-1.7,30.6-1.3,41.2s5.1,14.9,5.1,14.9s-4.2,1.7-6.8,0l-2.6-1.7c0,0,1.3,11,7.2,17.8s5.5,9.8,5.5,9.8
			s-4.7,2.1-8.5,0.4l-3.8-1.7c1,3.7,1.1,7.7,0.4,11.5c-0.6,3.2-2.9,5.7-5.9,6.8c0,0-1.7-9.3-4.3-11l-2.5-1.7c0,0-5.1-0.4-9.8,5.1
			c-1.8,2.1-2.4,5-1.7,7.6c-3.7-0.5-6.8-3.2-7.7-6.8c-1.8-6.6,0.4-6.8,0.4-6.8s-8.9,6.8-14,6.8s-20.8-0.4-31.8-20
			s-10.6-33.1-16.1-36.1c-3.1-1.8-6.8-2.3-10.2-1.3c0,0,20.4-4.7,27.6-11.5s19.5-11.5,28.4-10.2s14.4,13.6,24.6,23.8
			s16.1-12.3,16.1-17.8s-24.5-8.3-15.3-29.3C92.2,237.2,79.4,218.3,79.4,218.3z"/>
		<path style="fill:#FFD200;" d="M0.9,304.5c0,0,6.8,2.1,8.1,12.7s14.9,10.6,20.8,8.9s5.9-4.2,5.9-4.2c3.5,3.1,5.1,7.7,4.2,12.3
			c-1.3,8.1-6.4,11.5-6.4,17.4s3,13.6,3,13.6s2.1,0.4,13.2-0.4s12.7-7.2,11.5-13.6S59,339.3,59,339.3s-7.6,0.4-10.6-0.4l-3-0.9
			c0,0,8.1-4.7,6.4-10.2s3.8-2.5,11,2.5s16.6,0,16.6-3.8v-3.8c0,0-6,1.7-10.2-1.7s-6-5.1-6-5.1c0.6,1.8,1,3.6,1.3,5.5
			c0.8,4.7-5.1,2.5-5.1,2.5s-5.5-2.1-5.9-6.8s-1.3-9.3-1.3-9.3s-0.8,2.1-5.5,3.4c-2.9,0.8-5.8,2-8.5,3.4c0,0-6.2-4.2-1.1-11.5
			s2.5-8.5-0.4-9.3s-12.7,3-12.7,3S8.5,303.6,6,303.6C4.3,303.7,2.6,304,0.9,304.5"/>
		<path style="fill:none;stroke:#000000;stroke-width:1.76;stroke-linecap:round;stroke-linejoin:round;" d="M0.9,304.5
			c0,0,6.8,2.1,8.1,12.7s14.9,10.6,20.8,8.9s5.9-4.2,5.9-4.2c3.5,3.1,5.1,7.7,4.2,12.3c-1.3,8.1-6.4,11.5-6.4,17.4s3,13.6,3,13.6
			s2.1,0.4,13.2-0.4s12.7-7.2,11.5-13.6S59,339.3,59,339.3s-7.6,0.4-10.6-0.4l-3-0.9c0,0,8.1-4.7,6.4-10.2s3.8-2.5,11,2.5
			s16.6,0,16.6-3.8v-3.8c0,0-6,1.7-10.2-1.7s-6-5.1-6-5.1c0.6,1.8,1,3.6,1.3,5.5c0.8,4.7-5.1,2.5-5.1,2.5s-5.5-2.1-5.9-6.8
			s-1.3-9.3-1.3-9.3s-0.8,2.1-5.5,3.4c-2.9,0.8-5.8,2-8.5,3.4c0,0-6.2-4.2-1.1-11.5s2.5-8.5-0.4-9.3s-12.7,3-12.7,3
			S8.5,303.6,6,303.6C4.3,303.7,2.5,303.9,0.9,304.5z"/>
		<path style="fill:#FFD200;" d="M71.2,90.9c0,0-14.7,2.8-26,23.8"/>
		<path style="fill:none;stroke:#000000;stroke-width:1.76;stroke-linecap:round;stroke-linejoin:round;" d="M71.2,90.9
			c0,0-14.7,2.8-26,23.8"/>
		<path style="fill:#FFD200;" d="M25.9,170.8c1.1,15.3,8.5,35.7,32.8,53.3s24.9,31.1,24.9,31.1"/>
		<path style="fill:none;stroke:#000000;stroke-width:1.76;stroke-linecap:round;stroke-linejoin:round;" d="M25.9,170.8
			c1.1,15.3,8.5,35.7,32.8,53.3s24.9,31.1,24.9,31.1"/>
		<path style="fill:#FFD200;" d="M28,183.9c0,0,4.2,7.2-0.4,19.1s-6.8,11-6.8,11"/>
		<path style="fill:none;stroke:#000000;stroke-width:1.76;stroke-linecap:round;stroke-linejoin:round;" d="M28,183.9
			c0,0,4.2,7.2-0.4,19.1s-6.8,11-6.8,11"/>
		<path style="fill:#FFD200;" d="M34.8,158.9c0,0-0.8,11.5,5.1,30.1S65,218.7,65,218.7"/>
		<path style="fill:none;stroke:#000000;stroke-width:1.76;stroke-linecap:round;stroke-linejoin:round;" d="M34.8,158.9
			c0,0-0.8,11.5,5.1,30.1S65,218.7,65,218.7"/>
		<path style="fill:#FFD200;" d="M77.7,159.3c0,0-11-4.2-13.6-15.7"/>
		<path style="fill:none;stroke:#000000;stroke-width:1.76;stroke-linecap:round;stroke-linejoin:round;" d="M77.7,159.3
			c0,0-11-4.2-13.6-15.7"/>
		<path style="fill:none;stroke:#000000;stroke-width:1.76;stroke-linecap:round;stroke-linejoin:round;" d="M109.1,302.4
			c-4.7,26.3-25.5,43.7-25.5,43.7"/>
		<path style="fill:none;stroke:#000000;stroke-width:1.76;stroke-linecap:round;stroke-linejoin:round;" d="M91.7,239.5
			c0,0,8.1,11,8.9,22.9c0.8,11.9-0.4,14.9-0.4,14.9"/>
		<path style="fill:none;stroke:#000000;stroke-width:1.76;stroke-linecap:round;stroke-linejoin:round;" d="M159.5,105.1
			c0,0,2.6,12.3,23.5,18.5s36.1,4.7,36.1,4.7"/>
		<path style="fill:none;stroke:#000000;stroke-width:1.76;stroke-linecap:round;stroke-linejoin:round;" d="M98.4,141.3
			c0,0,0.6-12.4,12.4-17.6s26.6,0.6,26.6,0.6"/>
		<path style="fill:none;stroke:#000000;stroke-width:1.76;stroke-linecap:round;stroke-linejoin:round;" d="M75.7,25.8
			c0,0-7.4,6.8-8.5,11.9s-0.6,6.8-0.6,6.8"/>
		<path style="fill:none;stroke:#000000;stroke-width:1.76;stroke-linecap:round;stroke-linejoin:round;" d="M92.2,24.7
			c0,0,10.8,0,18.1,10.8S121,50.2,121,50.2"/>
		<path style="fill:none;stroke:#000000;stroke-width:1.76;stroke-linecap:round;stroke-linejoin:round;" d="M127.5,96.9
			c0,0-1.4-7.6,0.6-21.2"/>
		<path style="fill:none;stroke:#000000;stroke-width:1.76;stroke-linecap:round;stroke-linejoin:round;" d="M53.7,174.1
			c2.1,4.4,6.1,7.7,10.8,9.1c7.9,2.3,9.6,1.1,9.6,1.1"/>
		<path style="fill:none;stroke:#000000;stroke-width:1.76;stroke-linecap:round;stroke-linejoin:round;" d="M67.3,102.3
			c0,0,11.3-6.2,15.8,0s2.8,11.3,2.8,11.3s12.4,1.1,15.8-7.4s6.8-8.5,6.8-8.5s0,6.8,4,10.2c3,2.4,6.2,4.5,9.6,6.2
			c-2-2-2.2-5.1-0.6-7.4c1.5-2.3,4-3.8,6.8-4"/>
		<path style="fill:#0039A6;" d="M302.6,156.6c0,0,29.4-23.2,51.5-15.9s27.7,18.7,27.7,18.7s4.5-9.6,13-3.4
			c5.1,3.7,8.7,9.2,10.2,15.3c0,0,5.1-9.1-1.1-20.9s-16.4-13-16.4-13s10.2-10.8,24.3-7.4c14.1,3.4,18.7,9.6,16.4,22.1
			s16.4,8.5,23.8,6.8s25.5-32.3,25.5-32.3s20.3,19.2,20.4,31.1c0.1,27.4,21.2,10.5,21.2,10.5s12.7-9.9-1.4-32s-45.9-41.9-64-47
			s-30.6-0.6-37.9-11.9s-1.1-5.1,4.5-11.9c3.3-3.8,5.4-8.5,5.8-13.6c0,0,1.1,8.5,5.1,10.8l4,2.3c0,0,4.5-4,5.1-7.9l0.6-4
			c0,0,8.5,4.5,12.5,4.5s11.5-17,7.1-25.2c-3.7-6.8-19.5-7.6-19.5-7.6s11.3-9.1,6.8-17s-6.2-6.8-6.2-6.8c1.2,4.5-0.9,9.3-5.1,11.3
			c-7.4,4-15.3,0.6-15.3-3.4v-4c0,0-11.3,6.8-14.1,15.9S403.9,44,396,46.8s4,7.9-9.1,12.5s-31.7,5.1-31.7,5.1s-0.6,10.8,7.9,14.7
			s14.7,6.8,14.7,6.8s0.6,6.8-7.4,6.2s-9.1-2.8-9.1-2.8s7.9,5.7-1.1,7.3s-13-10.2-13-10.2s1.1,15.3-7.9,14.2S332,88.1,332,88.1
			s-2.3,23.2-15.3,30.6s-36.2,7.3-36.2,7.3s4,5.1,13,7.4c6.1,1.4,12.4,2,18.7,1.7c-3.3,2.8-6.1,6.3-7.9,10.2
			C302.6,148.8,302,152.7,302.6,156.6"/>
		<path style="fill:none;stroke:#000000;stroke-width:1.76;stroke-linecap:round;stroke-linejoin:round;" d="M302.6,156.6
			c0,0,29.4-23.2,51.5-15.9s27.7,18.7,27.7,18.7s4.5-9.6,13-3.4c5.1,3.7,8.7,9.2,10.2,15.3c0,0,5.1-9.1-1.1-20.9s-16.4-13-16.4-13
			s10.2-10.8,24.3-7.4c14.1,3.4,18.7,9.6,16.4,22.1s16.4,8.5,23.8,6.8s25.5-32.3,25.5-32.3s20.3,19.2,20.4,31.1
			c0.1,27.4,21.2,10.5,21.2,10.5s12.7-9.9-1.4-32s-45.9-41.9-64-47s-30.6-0.6-37.9-11.9s-1.1-5.1,4.5-11.9c3.3-3.8,5.4-8.5,5.8-13.6
			c0,0,1.1,8.5,5.1,10.8l4,2.3c0,0,4.5-4,5.1-7.9l0.6-4c0,0,8.5,4.5,12.5,4.5s11.5-17,7.1-25.2c-3.7-6.8-19.5-7.6-19.5-7.6
			s11.3-9.1,6.8-17s-6.2-6.8-6.2-6.8c1.2,4.5-0.9,9.3-5.1,11.3c-7.4,4-15.3,0.6-15.3-3.4v-4c0,0-11.3,6.8-14.1,15.9
			S403.9,44,396,46.8s4,7.9-9.1,12.5s-31.7,5.1-31.7,5.1s-0.6,10.8,7.9,14.7s14.7,6.8,14.7,6.8s0.6,6.8-7.4,6.2s-9.1-2.8-9.1-2.8
			s7.9,5.7-1.1,7.3s-13-10.2-13-10.2s1.1,15.3-7.9,14.2S332,88.1,332,88.1s-2.3,23.2-15.3,30.6s-36.2,7.3-36.2,7.3s4,5.1,13,7.4
			c6.1,1.4,12.4,2,18.7,1.7c-3.3,2.8-6.1,6.3-7.9,10.2C302.6,148.8,302,152.7,302.6,156.6z"/>
		<path style="fill:#FFD200;" d="M449.6,57c0,0,1.7,5.5,9.3,2.5s8.9-8.9,8.9-8.9s4.7,3,4.7,5.5v2.5c0,0,5.1,1.3,6.8-6.4
			s-1.7-8.9-1.7-8.9s9.8-1.7,5.1-10.2S473,26,473,26s3.8,5.5-1.7,6.4s-2.9-0.9-9.8-4.7c-13.4-7.5-18-2.4-18-2.4s10.3,2.8,7.8,7.9
			c-1.6,3.1-4.6,5.1-8.1,5.5c0,0,1.3,5.5,6.8,5.5h5.5c0.7,2.5,0.2,5.1-1.3,7.2C452.9,53.4,451.3,55.3,449.6,57"/>
		<path style="fill:none;stroke:#000000;stroke-width:1.76;stroke-linecap:round;stroke-linejoin:round;" d="M449.6,57
			c0,0,1.7,5.5,9.3,2.5s8.9-8.9,8.9-8.9s4.7,3,4.7,5.5v2.5c0,0,5.1,1.3,6.8-6.4s-1.7-8.9-1.7-8.9s9.8-1.7,5.1-10.2S473,26,473,26
			s3.8,5.5-1.7,6.4s-2.9-0.9-9.8-4.7c-13.4-7.5-18-2.4-18-2.4s10.3,2.8,7.8,7.9c-1.6,3.1-4.6,5.1-8.1,5.5c0,0,1.3,5.5,6.8,5.5h5.5
			c0.7,2.5,0.2,5.1-1.3,7.2C452.9,53.4,451.3,55.3,449.6,57z"/>
		<path style="fill:#FFD200;" d="M420.3,65.5c0,0,5.9,11.5,0,14s7.6,3.8,0,8.1s-5.5,1.7-5.5,1.7s1.7,7.6-4.2,7.6s-5.6-1.3-5.6-1.3
			s0.9,13.2-19.1,27.2s-43.7,14.9-55.6,15.7s-31-4.2-31-4.2s51.8,4.7,74.3-13.2c19.6-15.6,17-28.9,16.1-39.1s-3.4-14.4-3.4-14.4
			c-1.5,2.9-5,4.1-8,2.6c0,0-0.1,0-0.1-0.1c-5.5-2.5-3.4-5.9-3.4-5.9s0,8.1-3.4,8.1c-2.3-0.1-4.5-0.8-6.4-2.1c0,0,1.7,5.1-1.3,6.4
			c-1.6,0.8-3.5,0.8-5.1,0l-3-7.2c0,0-2.1,5.1-5.1-0.4s4.2-8.1,4.2-8.1s-2.1-5.1-0.4-8.9s0.4-8.9,0.4-8.9s6.8,0,9.8,4.7l3,4.7
			c0,0-0.9-8.5,3.8-11.9l4.7-3.4c0,0-4.2,5.1-0.9,8.9s0.9,9.8,5.1,10.6s5.5-3,5.1-8.1s4.3-10.6,9.8-15.3s11.5-12.5,11.5-12.5
			c2.6,5.2,3.8,10.9,3.4,16.7c-0.9,8.9-5.5,5.5-8.1,10.6l-2.5,5.1c0,0,6.8-6.4,8.9,0.8s6.8-0.4,8.1,4.3
			C417.1,60.9,418.4,63.4,420.3,65.5"/>
		<path style="fill:none;stroke:#000000;stroke-width:1.76;stroke-linecap:round;stroke-linejoin:round;" d="M420.3,65.5
			c0,0,5.9,11.5,0,14s7.6,3.8,0,8.1s-5.5,1.7-5.5,1.7s1.7,7.6-4.2,7.6s-5.6-1.3-5.6-1.3s0.9,13.2-19.1,27.2s-43.7,14.9-55.6,15.7
			s-31-4.2-31-4.2s51.8,4.7,74.3-13.2c19.6-15.6,17-28.9,16.1-39.1s-3.4-14.4-3.4-14.4c-1.5,2.9-5,4.1-8,2.6c0,0-0.1,0-0.1-0.1
			c-5.5-2.5-3.4-5.9-3.4-5.9s0,8.1-3.4,8.1c-2.3-0.1-4.5-0.8-6.4-2.1c0,0,1.7,5.1-1.3,6.4c-1.6,0.8-3.5,0.8-5.1,0l-3-7.2
			c0,0-2.1,5.1-5.1-0.4s4.2-8.1,4.2-8.1s-2.1-5.1-0.4-8.9s0.4-8.9,0.4-8.9s6.8,0,9.8,4.7l3,4.7c0,0-0.9-8.5,3.8-11.9l4.7-3.4
			c0,0-4.2,5.1-0.9,8.9s0.9,9.8,5.1,10.6s5.5-3,5.1-8.1s4.3-10.6,9.8-15.3s11.5-12.5,11.5-12.5c2.6,5.2,3.8,10.9,3.4,16.7
			c-0.9,8.9-5.5,5.5-8.1,10.6l-2.5,5.1c0,0,6.8-6.4,8.9,0.8s6.8-0.4,8.1,4.3C417.1,60.9,418.5,63.4,420.3,65.5z"/>
		<path style="fill:#FFD200;" d="M448.8,87.5c0,0,43,6.2,56.2,40.2c1.8,4.7,9.1,17,9.1,17s-8.9-5.4-7.4,2.8
			c1.8,10.1-0.5,16.7,0.3,23.2c1.3,10.2,20.8,28.9,20.8,28.9s0.4,3-3,3h-3.4c0,0-1.3,5.5,3.4,11s6,4.3,0,5.9s-6.4-3.4-7.2-0.9
			s0.4,6.4-5.1,5.5s0,0.9-7.2,7.2s-6.4,8.1-6.4,8.1s-5.1-4.3-7.6-8.9c-1.8-3-4.2-5.5-7.2-7.2c0,0,4.7,5.5,4.2,15.3
			s-9.3,14.9-10.2,22.1c-0.5,4.5-0.5,9.1,0,13.6c0,0-8.5-4.7-10.2-12.3s-5.5-8.1-5.5-8.1s4.7,11-0.9,18.3s-6.8,12.7-15.3,17
			s-5.5,13.6-5.5,13.6s-10.6-4.2-10.2-14.9s9.3-8.5,10.2-19.1s-8.1-15.3-3.4-30.1s28.5-29.7,28.5-29.7s-9.3,4.7-11.5,0.4
			s-7.2-0.4-7.6-4.7s10.2-8.1,8.5-14s-8.1-2.6-6.8-10.2s12.3,0,20.8-6.4s10.2-14.4,4.7-15.3s-2.1,8.9-10.2,8.9s-7.6-8.9-7.6-8.9
			s-11.5,5.9-19.5,2.1s-4.2-9.3-4.2-9.3s7.2,6.4,14,0.4s-0.4-7.6-3-13.2s3.4-11.5,8.5-11.5s11.9-1.3,12.7-5.5s4.7,6,8.5-3.8
			C477.2,107.2,448.7,87.6,448.8,87.5"/>
		<path style="fill:none;stroke:#000000;stroke-width:1.76;stroke-linecap:round;stroke-linejoin:round;" d="M448.8,87.5
			c0,0,43,6.2,56.2,40.2c1.8,4.7,9.1,17,9.1,17s-8.9-5.4-7.4,2.8c1.8,10.1-0.5,16.7,0.3,23.2c1.3,10.2,20.8,28.9,20.8,28.9
			s0.4,3-3,3h-3.4c0,0-1.3,5.5,3.4,11s6,4.3,0,5.9s-6.4-3.4-7.2-0.9s0.4,6.4-5.1,5.5s0,0.9-7.2,7.2s-6.4,8.1-6.4,8.1
			s-5.1-4.3-7.6-8.9c-1.8-3-4.2-5.5-7.2-7.2c0,0,4.7,5.5,4.2,15.3s-9.3,14.9-10.2,22.1c-0.5,4.5-0.5,9.1,0,13.6
			c0,0-8.5-4.7-10.2-12.3s-5.5-8.1-5.5-8.1s4.7,11-0.9,18.3s-6.8,12.7-15.3,17s-5.5,13.6-5.5,13.6s-10.6-4.2-10.2-14.9
			s9.3-8.5,10.2-19.1s-8.1-15.3-3.4-30.1s28.5-29.7,28.5-29.7s-9.3,4.7-11.5,0.4s-7.2-0.4-7.6-4.7s10.2-8.1,8.5-14
			s-8.1-2.6-6.8-10.2s12.3,0,20.8-6.4s10.2-14.4,4.7-15.3s-2.1,8.9-10.2,8.9s-7.6-8.9-7.6-8.9s-11.5,5.9-19.5,2.1s-4.2-9.3-4.2-9.3
			s7.2,6.4,14,0.4s-0.4-7.6-3-13.2s3.4-11.5,8.5-11.5s11.9-1.3,12.7-5.5s4.7,6,8.5-3.8C477.2,107.1,448.8,87.5,448.8,87.5z"/>
		<path style="fill:#0039A6;" d="M453.4,218.3c0,0-24.6,20.8-29.7,51.3s1.7,30.6,1.3,41.2s-5.1,14.9-5.1,14.9s4.2,1.7,6.8,0l2.5-1.7
			c0,0-1.2,11-7.2,17.8s-5.5,9.8-5.5,9.8s4.7,2.1,8.5,0.4l3.8-1.7c-1,3.7-1.1,7.7-0.4,11.5c0.6,3.2,2.9,5.7,5.9,6.8
			c0,0,1.7-9.3,4.3-11l2.5-1.7c0,0,5.1-0.4,9.8,5.1c1.8,2.1,2.4,5,1.7,7.6c3.7-0.5,6.8-3.2,7.6-6.8c1.8-6.6-0.4-6.8-0.4-6.8
			s8.9,6.8,14,6.8s20.8-0.4,31.8-20c11-19.5,10.6-33.1,16.1-36.1c3.1-1.8,6.8-2.3,10.3-1.3c0,0-20.4-4.7-27.6-11.5
			s-19.5-11.5-28.5-10.2s-14.4,13.6-24.6,23.8s-16.1-12.3-16.1-17.8s24.5-8.3,15.3-29.3C440.6,237.2,453.4,218.3,453.4,218.3"/>
		<path style="fill:none;stroke:#000000;stroke-width:1.76;stroke-linecap:round;stroke-linejoin:round;" d="M453.4,218.3
			c0,0-24.6,20.8-29.7,51.3s1.7,30.6,1.3,41.2s-5.1,14.9-5.1,14.9s4.2,1.7,6.8,0l2.5-1.7c0,0-1.2,11-7.2,17.8s-5.5,9.8-5.5,9.8
			s4.7,2.1,8.5,0.4l3.8-1.7c-1,3.7-1.1,7.7-0.4,11.5c0.6,3.2,2.9,5.7,5.9,6.8c0,0,1.7-9.3,4.3-11l2.5-1.7c0,0,5.1-0.4,9.8,5.1
			c1.8,2.1,2.4,5,1.7,7.6c3.7-0.5,6.8-3.2,7.6-6.8c1.8-6.6-0.4-6.8-0.4-6.8s8.9,6.8,14,6.8s20.8-0.4,31.8-20
			c11-19.5,10.6-33.1,16.1-36.1c3.1-1.8,6.8-2.3,10.3-1.3c0,0-20.4-4.7-27.6-11.5s-19.5-11.5-28.5-10.2s-14.4,13.6-24.6,23.8
			s-16.1-12.3-16.1-17.8s24.5-8.3,15.3-29.3C440.6,237.2,453.4,218.3,453.4,218.3z"/>
		<path style="fill:#FFD200;" d="M532,304.5c0,0-6.8,2.1-8.1,12.7s-14.9,10.6-20.8,8.9s-5.9-4.2-5.9-4.2c-3.5,3.1-5.1,7.7-4.3,12.3
			c1.3,8.1,6.4,11.5,6.4,17.4s-3,13.6-3,13.6s-2.1,0.4-13.2-0.4s-12.7-7.2-11.5-13.6s2.1-11.9,2.1-11.9s7.6,0.4,10.6-0.4l3-0.9
			c0,0-8.1-4.7-6.4-10.2s-3.8-2.5-11,2.5s-16.6,0-16.6-3.8v-3.8c0,0,6,1.7,10.2-1.7s6-5.1,6-5.1c-0.6,1.8-1,3.6-1.3,5.5
			c-0.9,4.7,5.1,2.5,5.1,2.5s5.5-2.1,5.9-6.8s1.3-9.3,1.3-9.3s0.9,2.1,5.5,3.4c2.9,0.8,5.8,2,8.5,3.4c0,0,6.4-4.3,1.3-11.5
			s-2.5-8.5,0.4-9.3s12.7,3,12.7,3s15.3,6.8,17.8,6.8C528.7,303.7,530.4,304,532,304.5"/>
		<path style="fill:none;stroke:#000000;stroke-width:1.76;stroke-linecap:round;stroke-linejoin:round;" d="M532,304.5
			c0,0-6.8,2.1-8.1,12.7s-14.9,10.6-20.8,8.9s-5.9-4.2-5.9-4.2c-3.5,3.1-5.1,7.7-4.3,12.3c1.3,8.1,6.4,11.5,6.4,17.4s-3,13.6-3,13.6
			s-2.1,0.4-13.2-0.4s-12.7-7.2-11.5-13.6s2.1-11.9,2.1-11.9s7.6,0.4,10.6-0.4l3-0.9c0,0-8.1-4.7-6.4-10.2s-3.8-2.5-11,2.5
			s-16.6,0-16.6-3.8v-3.8c0,0,6,1.7,10.2-1.7s6-5.1,6-5.1c-0.6,1.8-1,3.6-1.3,5.5c-0.9,4.7,5.1,2.5,5.1,2.5s5.5-2.1,5.9-6.8
			s1.3-9.3,1.3-9.3s0.9,2.1,5.5,3.4c2.9,0.8,5.8,2,8.5,3.4c0,0,6.4-4.3,1.3-11.5s-2.5-8.5,0.4-9.3s12.7,3,12.7,3s15.3,6.8,17.8,6.8
			C528.7,303.7,530.4,304,532,304.5z"/>
		<path style="fill:#FFD200;" d="M461.6,90.9c0,0,14.7,2.8,26,23.8"/>
		<path style="fill:none;stroke:#000000;stroke-width:1.76;stroke-linecap:round;stroke-linejoin:round;" d="M461.6,90.9
			c0,0,14.7,2.8,26,23.8"/>
		<path style="fill:#FFD200;" d="M506.9,170.8c-1.1,15.3-8.5,35.7-32.8,53.2s-24.9,31.1-24.9,31.1"/>
		<path style="fill:none;stroke:#000000;stroke-width:1.76;stroke-linecap:round;stroke-linejoin:round;" d="M506.9,170.8
			c-1.1,15.3-8.5,35.7-32.8,53.2s-24.9,31.1-24.9,31.1"/>
		<path style="fill:#FFD200;" d="M504.8,183.9c0,0-4.2,7.2,0.4,19.1s6.8,11,6.8,11"/>
		<path style="fill:none;stroke:#000000;stroke-width:1.76;stroke-linecap:round;stroke-linejoin:round;" d="M504.8,183.9
			c0,0-4.2,7.2,0.4,19.1s6.8,11,6.8,11"/>
		<path style="fill:#FFD200;" d="M498,158.9c0,0,0.9,11.5-5.1,30.1s-25,29.7-25,29.7"/>
		<path style="fill:none;stroke:#000000;stroke-width:1.76;stroke-linecap:round;stroke-linejoin:round;" d="M498,158.9
			c0,0,0.9,11.5-5.1,30.1s-25,29.7-25,29.7"/>
		<path style="fill:#FFD200;" d="M455.1,159.3c0,0,11-4.2,13.6-15.7"/>
		<path style="fill:none;stroke:#000000;stroke-width:1.76;stroke-linecap:round;stroke-linejoin:round;" d="M455.1,159.3
			c0,0,11-4.2,13.6-15.7"/>
		<path style="fill:none;stroke:#000000;stroke-width:1.76;stroke-linecap:round;stroke-linejoin:round;" d="M423.7,302.4
			c4.7,26.3,25.5,43.7,25.5,43.7"/>
		<path style="fill:none;stroke:#000000;stroke-width:1.76;stroke-linecap:round;stroke-linejoin:round;" d="M441.1,239.5
			c0,0-8.1,11-8.9,22.9c-0.9,11.9,0.4,14.9,0.4,14.9"/>
		<path style="fill:none;stroke:#000000;stroke-width:1.76;stroke-linecap:round;stroke-linejoin:round;" d="M373.3,105.1
			c0,0-2.5,12.3-23.5,18.5s-36.1,4.7-36.1,4.7"/>
		<path style="fill:none;stroke:#000000;stroke-width:1.76;stroke-linecap:round;stroke-linejoin:round;" d="M434.5,141.3
			c0,0-0.6-12.4-12.5-17.6s-26.6,0.6-26.6,0.6"/>
		<path style="fill:none;stroke:#000000;stroke-width:1.76;stroke-linecap:round;stroke-linejoin:round;" d="M457.1,25.8
			c0,0,7.4,6.8,8.5,11.9s0.6,6.8,0.6,6.8"/>
		<path style="fill:none;stroke:#000000;stroke-width:1.76;stroke-linecap:round;stroke-linejoin:round;" d="M440.7,24.7
			c0,0-10.8,0-18.1,10.8s-10.8,14.7-10.8,14.7"/>
		<path style="fill:none;stroke:#000000;stroke-width:1.76;stroke-linecap:round;stroke-linejoin:round;" d="M405.3,96.9
			c0,0,1.4-7.6-0.6-21.2"/>
		<path style="fill:none;stroke:#000000;stroke-width:1.76;stroke-linecap:round;stroke-linejoin:round;" d="M479.2,174.1
			c-2.1,4.4-6.1,7.7-10.8,9.1c-7.9,2.3-9.6,1.1-9.6,1.1"/>
		<path style="fill:none;stroke:#000000;stroke-width:1.76;stroke-linecap:round;stroke-linejoin:round;" d="M465.6,102.3
			c0,0-11.3-6.2-15.9,0s-2.8,11.3-2.8,11.3s-12.5,1.1-15.8-7.4s-6.8-8.5-6.8-8.5s0,6.8-4,10.2c-3,2.4-6.2,4.5-9.6,6.2
			c2-2,2.2-5.1,0.6-7.4c-1.5-2.3-4-3.8-6.8-4"/>
	</g>
</g>
</svg>
