<?xml version="1.0" encoding="utf-8"?>
<!-- Generator: Adobe Illustrator 23.0.2, SVG Export Plug-In . SVG Version: 6.00 Build 0)  -->
<svg version="1.1" id="Réteg_1" xmlns="http://www.w3.org/2000/svg" xmlns:xlink="http://www.w3.org/1999/xlink" x="0px" y="0px"
	 viewBox="0 0 567.2 376.2" style="enable-background:new 0 0 567.2 376.2;" xml:space="preserve">
<title>ornamentika_04</title>
<g>
	<g>
		<path style="fill:#FFD200;" d="M121,299.3c0,0-14,3.4-30.1-7.6s-12.7-25.5-12.7-25.5s-11.9,8.9-5.9,28.4c0.4,1.1,0.8,2.2,1.4,3.2
			c-6.2,1.3-12.2,3.6-17.6,7c-25.5,15.3-25.5,31.4-25.5,38.6s6.8,15.3,6.8,15.3s-3-11.9,11-26.8c8.9-9.4,25.8-19,37-24.8
			c2.8,1.2,5.8,2.1,8.8,2.7c0,0-2.5,0.4-8.9,7.2S70.1,338,68.8,352.4s11.5,22.9,11.5,22.9s-1.7-3,3.8-16.5s29.3-14.9,36.5-32.3
			S121,299.3,121,299.3"/>
		<path style="fill:none;stroke:#000000;stroke-width:1.76;stroke-linecap:round;stroke-linejoin:round;" d="M121,299.3
			c0,0-14,3.4-30.1-7.6s-12.7-25.5-12.7-25.5s-11.9,8.9-5.9,28.4c0.4,1.1,0.8,2.2,1.4,3.2c-6.2,1.3-12.2,3.6-17.6,7
			c-25.5,15.3-25.5,31.4-25.5,38.6s6.8,15.3,6.8,15.3s-3-11.9,11-26.8c8.9-9.4,25.8-19,37-24.8c2.8,1.2,5.8,2.1,8.8,2.7
			c0,0-2.5,0.4-8.9,7.2S70.1,338,68.8,352.4s11.5,22.9,11.5,22.9s-1.7-3,3.8-16.5s29.3-14.9,36.5-32.3S121,299.3,121,299.3z"/>
		<path style="fill:#FFD200;" d="M201.2,104.5c0,0-8.5,11.5-34,12.3s-42.9,11.5-42.9,11.5s5.9-8.1,7.2-13.2s-0.4-13.2-0.4-13.2
			s-3,17-16.6,10.2s-13.2-8.1-22.1-9.3s-39,3-45.4,7.6s-32.3,4.7-38.2,21.2s6.4,25.9,27.6,30.6c10.4,2.3,34.4-2.1,34.4-2.1
			s-24.9,9.4-26.3,25.5c-2.5,28.4,25.5,31,25.5,31s-1.3-14,12.7-23.4s28.4-15.3,34.4-19.5c3.4-2.4,6.3-5.4,8.5-8.9
			c0,0,6.8,6.4,0.4,16.1S107.4,194,110.4,211c1.8,10,8.5,18.5,17.8,22.5c0,0-4.2-4.7,1.3-16.1c5.5-11.5,13.2-9.8,11.5-23.8
			s-7.6-18.7-7.6-18.7c3.9,1.5,8.2,1.4,11.9-0.4c6.4-3,14.9-14,28-11s23.4,2.1,31.4-3.8s8.1-13.6,8.1-13.6s-10.6,11-19.9,10.6
			s-10.6-3-10.6-3s20-5.9,22.9-25.1S201.2,104.4,201.2,104.5"/>
		<path style="fill:none;stroke:#000000;stroke-width:1.76;stroke-linecap:round;stroke-linejoin:round;" d="M201.2,104.5
			c0,0-8.5,11.5-34,12.3s-42.9,11.5-42.9,11.5s5.9-8.1,7.2-13.2s-0.4-13.2-0.4-13.2s-3,17-16.6,10.2s-13.2-8.1-22.1-9.3
			s-39,3-45.4,7.6s-32.3,4.7-38.2,21.2s6.4,25.9,27.6,30.6c10.4,2.3,34.4-2.1,34.4-2.1s-24.9,9.4-26.3,25.5
			c-2.5,28.4,25.5,31,25.5,31s-1.3-14,12.7-23.4s28.4-15.3,34.4-19.5c3.4-2.4,6.3-5.4,8.5-8.9c0,0,6.8,6.4,0.4,16.1
			S107.4,194,110.4,211c1.8,10,8.5,18.5,17.8,22.5c0,0-4.2-4.7,1.3-16.1c5.5-11.5,13.2-9.8,11.5-23.8s-7.6-18.7-7.6-18.7
			c3.9,1.5,8.2,1.4,11.9-0.4c6.4-3,14.9-14,28-11s23.4,2.1,31.4-3.8s8.1-13.6,8.1-13.6s-10.6,11-19.9,10.6s-10.6-3-10.6-3
			s20-5.9,22.9-25.1S201.2,104.5,201.2,104.5z"/>
		<path style="fill:#009A3D;" d="M28.5,160.1c0,0-17.8-5.1-12.7-24.6c3.3-12.5,19.1-10.6,23.8-6.4s3,11,0.4,14
			c-1.6,1.8-3.9,2.9-6.4,3c0,0,3.4,8.9,17.4,4.7c7.9-2.2,13.6-9.2,14-17.4c0,0,4.7,20.4,22.9,27.6s31.8,2.5,31.8,2.5
			s-18.7-8.1-21.7-22.5s-2.5-21.7-14-31s-22.5-10.6-32.3-9.3s-13.6,7.2-13.6,7.2s-25-0.8-32.7,12.3c-10.8,18.6,0,28,4.7,31.8
			C15.5,156.3,21.8,159.1,28.5,160.1"/>
		<path style="fill:none;stroke:#000000;stroke-width:1.76;stroke-linecap:round;stroke-linejoin:round;" d="M28.5,160.1
			c0,0-17.8-5.1-12.7-24.6c3.3-12.5,19.1-10.6,23.8-6.4s3,11,0.4,14c-1.6,1.8-3.9,2.9-6.4,3c0,0,3.4,8.9,17.4,4.7
			c7.9-2.2,13.6-9.2,14-17.4c0,0,4.7,20.4,22.9,27.6s31.8,2.5,31.8,2.5s-18.7-8.1-21.7-22.5s-2.5-21.7-14-31s-22.5-10.6-32.3-9.3
			s-13.6,7.2-13.6,7.2s-25-0.8-32.7,12.3c-10.8,18.6,0,28,4.7,31.8C15.5,156.3,21.8,159.1,28.5,160.1z"/>
		<path style="fill:#009A3D;" d="M70.9,160.1c0,0-31.2,3.4-40.3,31.4c-7.2,22.1,6,36.5,6,36.5s-13.2,5.9-5.1,22.1s11,25,7.6,36.1
			s-17,14.4-17,14.4s19.5,3.8,32.3-10.2s11.5-40.8,11.5-40.8s19.1,8.5,34,14.9s18.3,20.8,14.4,24.2s-16.1,1.3-20-7.6
			c-2.3-5.5-3-11.5-2.1-17.4c0,0-12.7,0.9-14,15.7s7.6,19.5,7.6,19.5s-25.5,3-39.9,23.4s-8.5,36.5-8.5,36.5s1.7-14.9,22.9-23.4
			s58.2-13.2,75.1-36.5s8.5-39.9-0.4-48.4s-43.3-20.8-43.3-20.8s18.2-1.3,22.5-18.7s-16.6-22.9-16.6-22.9s5.1,8.9-4.3,20
			s-36.3,2.5-41.2-11.5C44.6,175,70.9,160.1,70.9,160.1"/>
		<path style="fill:none;stroke:#000000;stroke-width:1.76;stroke-linecap:round;stroke-linejoin:round;" d="M70.9,160.1
			c0,0-31.2,3.4-40.3,31.4c-7.2,22.1,6,36.5,6,36.5s-13.2,5.9-5.1,22.1s11,25,7.6,36.1s-17,14.4-17,14.4s19.5,3.8,32.3-10.2
			s11.5-40.8,11.5-40.8s19.1,8.5,34,14.9s18.3,20.8,14.4,24.2s-16.1,1.3-20-7.6c-2.3-5.5-3-11.5-2.1-17.4c0,0-12.7,0.9-14,15.7
			s7.6,19.5,7.6,19.5s-25.5,3-39.9,23.4s-8.5,36.5-8.5,36.5s1.7-14.9,22.9-23.4s58.2-13.2,75.1-36.5s8.5-39.9-0.4-48.4
			s-43.3-20.8-43.3-20.8s18.2-1.3,22.5-18.7s-16.6-22.9-16.6-22.9s5.1,8.9-4.3,20s-36.3,2.5-41.2-11.5
			C44.6,174.9,70.9,160.1,70.9,160.1z"/>
		<path style="fill:#009A3D;" d="M38.2,107.9c0,0,12.8,1.3,20.4,8.5c4.6,4.4,6.9,10.7,6.4,17"/>
		<path style="fill:none;stroke:#000000;stroke-width:1.76;stroke-linecap:round;stroke-linejoin:round;" d="M38.2,107.9
			c0,0,12.8,1.3,20.4,8.5c4.6,4.4,6.9,10.7,6.4,17"/>
		<path style="fill:none;stroke:#000000;stroke-width:1.76;stroke-linecap:round;stroke-linejoin:round;" d="M21.7,158
			c0,0-16.6-2.1-12.3-25"/>
		<path style="fill:none;stroke:#000000;stroke-width:1.76;stroke-linecap:round;stroke-linejoin:round;" d="M56.9,106.2
			c0,0,16.1-1.3,23.8,16.6s4.2,22.5,18.3,32.7"/>
		<path style="fill:none;stroke:#000000;stroke-width:1.76;stroke-linecap:round;stroke-linejoin:round;" d="M91.7,229.7
			c-11.9,0.9-23.8-1.6-34.4-7.2c-17.4-9.3-17-27.6-17-27.6"/>
		<path style="fill:none;stroke:#000000;stroke-width:1.76;stroke-linecap:round;stroke-linejoin:round;" d="M36.5,228
			c3.9,4.9,8.5,9.2,13.6,12.7c4.9,3.5,10.2,6.5,15.7,8.9"/>
		<path style="fill:#009A3D;" d="M85.8,298.9c0,0,7.1,6.2,21.2,4.7c15.3-1.7,18.4-12.9,18.4-12.9"/>
		<path style="fill:none;stroke:#000000;stroke-width:1.76;stroke-linecap:round;stroke-linejoin:round;" d="M85.8,298.9
			c0,0,7.1,6.2,21.2,4.7c15.3-1.7,18.4-12.9,18.4-12.9"/>
		<path style="fill:#FFD200;" d="M183,0.9c0,0,9.2,13,0.1,24.3S166.7,36,168.4,54.1s1.7,14.1,1.7,14.1s-12.4,8.5-9.1,20.9
			s11.9,17,27.7,19.3s34-2.8,34-2.8s8.5,6.2,24.9,4s16.4-18.1,16.4-18.1s-6.8,10.8-13.6,9.6s-7.4-6.8-7.4-6.8s-4,6.8-10.8,2.8
			s-4-17.5-4-17.5s-11.9,0.6-13.6,9s1.2,12.5,1.2,12.5s-15.3,4.5-26.6-6.2s-14.1-35.1-4-49.2s12.5-16.4,10.8-27.7S183,0.9,183,0.9"
			/>
		<path style="fill:none;stroke:#000000;stroke-width:1.76;stroke-linecap:round;stroke-linejoin:round;" d="M183,0.9
			c0,0,9.2,13,0.1,24.3S166.7,36,168.4,54.1s1.7,14.1,1.7,14.1s-12.4,8.5-9.1,20.9s11.9,17,27.7,19.3s34-2.8,34-2.8s8.5,6.2,24.9,4
			s16.4-18.1,16.4-18.1s-6.8,10.8-13.6,9.6s-7.4-6.8-7.4-6.8s-4,6.8-10.8,2.8s-4-17.5-4-17.5s-11.9,0.6-13.6,9s1.2,12.5,1.2,12.5
			s-15.3,4.5-26.6-6.2s-14.1-35.1-4-49.2s12.5-16.4,10.8-27.7S183,0.9,183,0.9z"/>
		<path style="fill:#009A3D;" d="M171.1,103.6c0,0-20.4-8.1-12.3-34.8c4.9-16.4,22.9-22.9,38.2-24.2s30.6,7.6,30.6,7.6
			c-2.2,3.5-5.1,6.5-8.5,8.9c-5.5,3.8-14.9,2.5-14.9,2.5s7.2,5.1,8.5,13.6s-7.2,14-7.2,14s0.4-12.3-8.5-17s-24.1-4.8-29.7,3.8
			C158.4,91.7,171.1,103.6,171.1,103.6"/>
		<path style="fill:none;stroke:#000000;stroke-width:1.76;stroke-linecap:round;stroke-linejoin:round;" d="M171.1,103.6
			c0,0-20.4-8.1-12.3-34.8c4.9-16.4,22.9-22.9,38.2-24.2s30.6,7.6,30.6,7.6c-2.2,3.5-5.1,6.5-8.5,8.9c-5.5,3.8-14.9,2.5-14.9,2.5
			s7.2,5.1,8.5,13.6s-7.2,14-7.2,14s0.4-12.3-8.5-17s-24.1-4.8-29.7,3.8C158.4,91.7,171.1,103.6,171.1,103.6z"/>
		<path style="fill:none;stroke:#000000;stroke-width:1.76;stroke-linecap:round;stroke-linejoin:round;" d="M157.1,85.8
			c-1.2-8,2.5-16,9.3-20.4c11.9-8.1,22.5-6,22.5-6"/>
		<path style="fill:none;stroke:#000000;stroke-width:1.76;stroke-linecap:round;stroke-linejoin:round;" d="M182.1,153.7
			c0,0-8.1-10.7-28.4-10.2"/>
		<path style="fill:none;stroke:#000000;stroke-width:1.76;stroke-linecap:round;stroke-linejoin:round;" d="M118,148.1
			c0,0,5.7-15.3,34-17.6s39.6-11.3,39.6-11.3"/>
		<path style="fill:none;stroke:#000000;stroke-width:1.76;stroke-linecap:round;stroke-linejoin:round;" d="M59.2,204.6
			c0,0-5.1-9.6,2.3-20.9s20.4-17.6,20.4-17.6"/>
		<path style="fill:none;stroke:#000000;stroke-width:1.76;stroke-linecap:round;stroke-linejoin:round;" d="M124.4,128.2
			c0,0-4.7,6.2-9.8,9.6l-5.1,3.4"/>
		<path style="fill:none;stroke:#000000;stroke-width:1.76;stroke-linecap:round;stroke-linejoin:round;" d="M169,75.6
			c0,0-1.7,6.2,4,14.2c3.5,4.8,8.2,8.7,13.6,11.3"/>
		<path style="fill:none;stroke:#000000;stroke-width:1.76;stroke-linecap:round;stroke-linejoin:round;" d="M105,243.7
			c0,0,9.6,1.1,19.2,9.6c9.6,8.5,8.5,18.1,8.5,18.1"/>
		<path style="fill:none;stroke:#000000;stroke-width:1.76;stroke-linecap:round;stroke-linejoin:round;" d="M42.8,253.9
			c0,0,5.7,4,5.7,18.7s-6.2,19.2-6.2,19.2"/>
		<path style="fill:#FFD200;" d="M446.2,299.3c0,0,14,3.4,30.1-7.6s12.7-25.5,12.7-25.5s11.9,8.9,5.9,28.4c-0.4,1.1-0.8,2.2-1.5,3.2
			c6.2,1.3,12.2,3.6,17.6,7c25.5,15.3,25.5,31.4,25.5,38.6s-6.8,15.3-6.8,15.3s3-11.9-11-26.8c-8.9-9.4-25.8-19-37-24.8
			c-2.8,1.2-5.8,2.1-8.8,2.7c0,0,2.5,0.4,8.9,7.2s15.3,20.8,16.5,35.2S487,375.3,487,375.3s1.7-3-3.8-16.5s-29.3-14.9-36.5-32.3
			S446.2,299.3,446.2,299.3"/>
		<path style="fill:none;stroke:#000000;stroke-width:1.76;stroke-linecap:round;stroke-linejoin:round;" d="M446.2,299.3
			c0,0,14,3.4,30.1-7.6s12.7-25.5,12.7-25.5s11.9,8.9,5.9,28.4c-0.4,1.1-0.8,2.2-1.5,3.2c6.2,1.3,12.2,3.6,17.6,7
			c25.5,15.3,25.5,31.4,25.5,38.6s-6.8,15.3-6.8,15.3s3-11.9-11-26.8c-8.9-9.4-25.8-19-37-24.8c-2.8,1.2-5.8,2.1-8.8,2.7
			c0,0,2.5,0.4,8.9,7.2s15.3,20.8,16.5,35.2S487,375.3,487,375.3s1.7-3-3.8-16.5s-29.3-14.9-36.5-32.3S446.2,299.3,446.2,299.3z"/>
		<path style="fill:#FFD200;" d="M366,104.5c0,0,8.5,11.5,34,12.3s42.9,11.5,42.9,11.5s-5.9-8.1-7.2-13.2s0.4-13.2,0.4-13.2
			s3,17,16.6,10.2s13.2-8.1,22.1-9.3s39.1,3,45.4,7.6s32.3,4.7,38.2,21.2s-6.4,25.9-27.6,30.6c-10.4,2.3-34.4-2.1-34.4-2.1
			s24.9,9.4,26.3,25.5c2.5,28.4-25.5,31-25.5,31s1.3-14-12.7-23.4S456,177.9,450,173.7c-3.4-2.3-6.3-5.4-8.5-8.9
			c0,0-6.8,6.4-0.4,16.1s18.7,13.1,15.7,30.1c-1.8,10-8.5,18.5-17.8,22.5c0,0,4.3-4.7-1.3-16.1s-13.2-9.8-11.5-23.8
			s7.6-18.7,7.6-18.7c-3.9,1.5-8.2,1.4-11.9-0.4c-6.4-3-14.9-14-28-11s-23.4,2.1-31.4-3.8s-8.1-13.6-8.1-13.6s10.6,11,20,10.6
			s10.6-3,10.6-3s-20-5.9-22.9-25.1S366,104.5,366,104.5"/>
		<path style="fill:none;stroke:#000000;stroke-width:1.76;stroke-linecap:round;stroke-linejoin:round;" d="M366,104.5
			c0,0,8.5,11.5,34,12.3s42.9,11.5,42.9,11.5s-5.9-8.1-7.2-13.2s0.4-13.2,0.4-13.2s3,17,16.6,10.2s13.2-8.1,22.1-9.3
			s39.1,3,45.4,7.6s32.3,4.7,38.2,21.2s-6.4,25.9-27.6,30.6c-10.4,2.3-34.4-2.1-34.4-2.1s24.9,9.4,26.3,25.5
			c2.5,28.4-25.5,31-25.5,31s1.3-14-12.7-23.4S456,177.9,450,173.7c-3.4-2.3-6.3-5.4-8.5-8.9c0,0-6.8,6.4-0.4,16.1
			s18.7,13.1,15.7,30.1c-1.8,10-8.5,18.5-17.8,22.5c0,0,4.3-4.7-1.3-16.1s-13.2-9.8-11.5-23.8s7.6-18.7,7.6-18.7
			c-3.9,1.5-8.2,1.4-11.9-0.4c-6.4-3-14.9-14-28-11s-23.4,2.1-31.4-3.8s-8.1-13.6-8.1-13.6s10.6,11,20,10.6s10.6-3,10.6-3
			s-20-5.9-22.9-25.1S366,104.5,366,104.5z"/>
		<path style="fill:#009A3D;" d="M538.8,160.1c0,0,17.8-5.1,12.7-24.6c-3.3-12.5-19.1-10.6-23.8-6.4s-3,11-0.4,14
			c1.6,1.8,3.9,2.9,6.4,3c0,0-3.4,8.9-17.4,4.7c-7.9-2.2-13.6-9.2-14-17.4c0,0-4.7,20.4-22.9,27.6s-31.8,2.5-31.8,2.5
			s18.7-8.1,21.6-22.5s2.5-21.7,14-31s22.5-10.6,32.3-9.3c9.8,1.3,13.6,7.2,13.6,7.2s25-0.8,32.7,12.3c10.8,18.6,0,28-4.7,31.8
			C551.8,156.3,545.5,159.1,538.8,160.1"/>
		<path style="fill:none;stroke:#000000;stroke-width:1.76;stroke-linecap:round;stroke-linejoin:round;" d="M538.8,160.1
			c0,0,17.8-5.1,12.7-24.6c-3.3-12.5-19.1-10.6-23.8-6.4s-3,11-0.4,14c1.6,1.8,3.9,2.9,6.4,3c0,0-3.4,8.9-17.4,4.7
			c-7.9-2.2-13.6-9.2-14-17.4c0,0-4.7,20.4-22.9,27.6s-31.8,2.5-31.8,2.5s18.7-8.1,21.6-22.5s2.5-21.7,14-31s22.5-10.6,32.3-9.3
			c9.8,1.3,13.6,7.2,13.6,7.2s25-0.8,32.7,12.3c10.8,18.6,0,28-4.7,31.8C551.8,156.3,545.5,159.1,538.8,160.1z"/>
		<path style="fill:#009A3D;" d="M496.3,160.1c0,0,31.2,3.4,40.3,31.4c7.2,22.1-5.9,36.5-5.9,36.5s13.2,5.9,5.1,22.1
			s-11,25-7.6,36.1s17,14.4,17,14.4s-19.5,3.8-32.3-10.2s-11.5-40.8-11.5-40.8s-19.1,8.5-34,14.9s-18.3,20.8-14.4,24.2
			s16.1,1.3,20-7.6c2.3-5.5,3-11.5,2.1-17.4c0,0,12.7,0.9,14,15.7s-7.6,19.5-7.6,19.5s25.5,3,39.9,23.4c14.4,20.4,8.5,36.5,8.5,36.5
			s-1.7-14.9-22.9-23.4s-58.2-13.2-75.1-36.5s-8.5-39.9,0.4-48.4s43.3-20.8,43.3-20.8s-18.3-1.3-22.5-18.7s16.6-22.9,16.6-22.9
			s-5.1,8.9,4.2,20s36.3,2.5,41.2-11.5C522.6,175,496.3,160.1,496.3,160.1"/>
		<path style="fill:none;stroke:#000000;stroke-width:1.76;stroke-linecap:round;stroke-linejoin:round;" d="M496.3,160.1
			c0,0,31.2,3.4,40.3,31.4c7.2,22.1-5.9,36.5-5.9,36.5s13.2,5.9,5.1,22.1s-11,25-7.6,36.1s17,14.4,17,14.4s-19.5,3.8-32.3-10.2
			s-11.5-40.8-11.5-40.8s-19.1,8.5-34,14.9s-18.3,20.8-14.4,24.2s16.1,1.3,20-7.6c2.3-5.5,3-11.5,2.1-17.4c0,0,12.7,0.9,14,15.7
			s-7.6,19.5-7.6,19.5s25.5,3,39.9,23.4c14.4,20.4,8.5,36.5,8.5,36.5s-1.7-14.9-22.9-23.4s-58.2-13.2-75.1-36.5s-8.5-39.9,0.4-48.4
			s43.3-20.8,43.3-20.8s-18.3-1.3-22.5-18.7s16.6-22.9,16.6-22.9s-5.1,8.9,4.2,20s36.3,2.5,41.2-11.5
			C522.6,174.9,496.3,160.1,496.3,160.1z"/>
		<path style="fill:#009A3D;" d="M529,107.9c0,0-12.7,1.3-20.4,8.5c-4.6,4.4-6.9,10.7-6.4,17"/>
		<path style="fill:none;stroke:#000000;stroke-width:1.76;stroke-linecap:round;stroke-linejoin:round;" d="M529,107.9
			c0,0-12.7,1.3-20.4,8.5c-4.6,4.4-6.9,10.7-6.4,17"/>
		<path style="fill:none;stroke:#000000;stroke-width:1.76;stroke-linecap:round;stroke-linejoin:round;" d="M545.5,158
			c0,0,16.5-2.1,12.3-25"/>
		<path style="fill:none;stroke:#000000;stroke-width:1.76;stroke-linecap:round;stroke-linejoin:round;" d="M510.3,106.2
			c0,0-16.1-1.3-23.8,16.6s-4.3,22.5-18.3,32.7"/>
		<path style="fill:none;stroke:#000000;stroke-width:1.76;stroke-linecap:round;stroke-linejoin:round;" d="M475.5,229.7
			c11.9,0.9,23.8-1.6,34.4-7.2c17.4-9.3,17-27.6,17-27.6"/>
		<path style="fill:none;stroke:#000000;stroke-width:1.76;stroke-linecap:round;stroke-linejoin:round;" d="M530.7,228
			c-3.9,4.9-8.5,9.2-13.6,12.7c-4.9,3.5-10.2,6.5-15.7,8.9"/>
		<path style="fill:#009A3D;" d="M481.4,298.9c0,0-7.1,6.2-21.2,4.7c-15.3-1.7-18.4-12.9-18.4-12.9"/>
		<path style="fill:none;stroke:#000000;stroke-width:1.76;stroke-linecap:round;stroke-linejoin:round;" d="M481.4,298.9
			c0,0-7.1,6.2-21.2,4.7c-15.3-1.7-18.4-12.9-18.4-12.9"/>
		<path style="fill:#FFD200;" d="M384.2,0.9c0,0-9.2,13-0.1,24.3s16.4,10.8,14.7,28.9s-1.7,14.1-1.7,14.1s12.5,8.5,9.1,20.9
			s-11.9,17-27.7,19.3s-34-2.8-34-2.8s-8.5,6.2-24.9,4s-16.4-18.1-16.4-18.1s6.8,10.8,13.6,9.6s7.4-6.8,7.4-6.8s4,6.8,10.8,2.8
			s4-17.5,4-17.5s11.9,0.6,13.6,9s-1.1,12.5-1.1,12.5s15.3,4.5,26.6-6.2s14.1-35.1,4-49.2s-12.5-16.4-10.8-27.7S384.3,0.9,384.2,0.9
			"/>
		<path style="fill:none;stroke:#000000;stroke-width:1.76;stroke-linecap:round;stroke-linejoin:round;" d="M384.2,0.9
			c0,0-9.2,13-0.1,24.3s16.4,10.8,14.7,28.9s-1.7,14.1-1.7,14.1s12.5,8.5,9.1,20.9s-11.9,17-27.7,19.3s-34-2.8-34-2.8
			s-8.5,6.2-24.9,4s-16.4-18.1-16.4-18.1s6.8,10.8,13.6,9.6s7.4-6.8,7.4-6.8s4,6.8,10.8,2.8s4-17.5,4-17.5s11.9,0.6,13.6,9
			s-1.1,12.5-1.1,12.5s15.3,4.5,26.6-6.2s14.1-35.1,4-49.2s-12.5-16.4-10.8-27.7S384.2,0.9,384.2,0.9z"/>
		<path style="fill:#009A3D;" d="M396.1,103.6c0,0,20.4-8.1,12.3-34.8c-4.9-16.4-22.9-22.9-38.2-24.2s-30.6,7.6-30.6,7.6
			c2.2,3.5,5.1,6.5,8.5,8.9c5.5,3.8,14.9,2.5,14.9,2.5s-7.2,5.1-8.5,13.6s7.2,14,7.2,14s-0.4-12.3,8.5-17s24.1-4.8,29.7,3.8
			C408.9,91.7,396.1,103.6,396.1,103.6"/>
		<path style="fill:none;stroke:#000000;stroke-width:1.76;stroke-linecap:round;stroke-linejoin:round;" d="M396.1,103.6
			c0,0,20.4-8.1,12.3-34.8c-4.9-16.4-22.9-22.9-38.2-24.2s-30.6,7.6-30.6,7.6c2.2,3.5,5.1,6.5,8.5,8.9c5.5,3.8,14.9,2.5,14.9,2.5
			s-7.2,5.1-8.5,13.6s7.2,14,7.2,14s-0.4-12.3,8.5-17s24.1-4.8,29.7,3.8C408.9,91.7,396.1,103.6,396.1,103.6z"/>
		<path style="fill:none;stroke:#000000;stroke-width:1.76;stroke-linecap:round;stroke-linejoin:round;" d="M410.1,85.8
			c0,0,2.5-12.3-9.3-20.4s-22.5-6-22.5-6"/>
		<path style="fill:none;stroke:#000000;stroke-width:1.76;stroke-linecap:round;stroke-linejoin:round;" d="M385.1,153.7
			c0,0,8.1-10.8,28.4-10.2"/>
		<path style="fill:none;stroke:#000000;stroke-width:1.76;stroke-linecap:round;stroke-linejoin:round;" d="M449.2,148.1
			c0,0-5.7-15.3-34-17.6s-39.6-11.3-39.6-11.3"/>
		<path style="fill:none;stroke:#000000;stroke-width:1.76;stroke-linecap:round;stroke-linejoin:round;" d="M508,204.6
			c0,0,5.1-9.6-2.3-20.9s-20.4-17.6-20.4-17.6"/>
		<path style="fill:none;stroke:#000000;stroke-width:1.76;stroke-linecap:round;stroke-linejoin:round;" d="M442.8,128.2
			c0,0,4.7,6.2,9.8,9.6l5.1,3.4"/>
		<path style="fill:none;stroke:#000000;stroke-width:1.76;stroke-linecap:round;stroke-linejoin:round;" d="M398.2,75.6
			c0,0,1.7,6.2-4,14.2c-3.5,4.8-8.2,8.7-13.6,11.3"/>
		<path style="fill:none;stroke:#000000;stroke-width:1.76;stroke-linecap:round;stroke-linejoin:round;" d="M462.2,243.7
			c0,0-9.6,1.1-19.3,9.6c-9.6,8.5-8.5,18.1-8.5,18.1"/>
		<path style="fill:none;stroke:#000000;stroke-width:1.76;stroke-linecap:round;stroke-linejoin:round;" d="M524.5,253.9
			c0,0-5.7,4-5.7,18.7s6.2,19.2,6.2,19.2"/>
	</g>
</g>
</svg>
