# Export for compatibility
mtllib model.mtl
g 1
usemtl flwhite
v 0.74085 0.50116 1.22691
v 0.64109 -0.41884 1.23388
v 0.74085 -0.41884 1.22691
v 0.64109 0.50116 1.23388
v 0.699 -0.41884 0.62837
v 0.59924 0.50116 0.63534
v 0.699 0.50116 0.62837
v 0.59924 -0.41884 0.63534
vn 0.06969987 0.0 0.997568
vn -0.06969987 0.0 -0.997568
vn -0.99756455 0.0 0.06975032
vn 0.99756455 0.0 -0.06975032
vn 0.0 1.0 0.0
vn 0.0 -1.0 0.0
f 1//1 2//1 3//1
f 2//1 1//1 4//1
f 5//2 6//2 7//2
f 5//2 8//2 6//2
f 2//3 6//3 8//3
f 2//3 4//3 6//3
f 5//4 1//4 3//4
f 5//4 7//4 1//4
f 4//5 7//5 6//5
f 4//5 1//5 7//5
f 8//6 3//6 2//6
f 8//6 5//6 3//6
g 2
usemtl flwhite
v 0.40005 -0.41884 0.04112
v -0.63995 0.50116 0.16112
v -0.63995 -0.41884 0.16112
v 0.40005 0.50116 0.04112
v 0.38005 0.50116 -0.05888
v -0.63995 -0.41884 0.06112
v -0.63995 0.50116 0.06112
v 0.38005 -0.41884 -0.05888
vn 0.11461993 0.0 0.9934094
vn -0.11684008 0.0 -0.9931507
vn -1.0 0.0 0.0
vn 0.9805799 0.0 -0.19611998
f 9//7 10//7 11//7
f 10//7 9//7 12//7
f 13//8 14//8 15//8
f 13//8 16//8 14//8
f 14//9 10//9 15//9
f 14//9 11//9 10//9
f 9//10 13//10 12//10
f 9//10 16//10 13//10
f 15//5 12//5 13//5
f 15//5 10//5 12//5
f 11//6 16//6 9//6
f 11//6 14//6 16//6
g 3
usemtl flwhite
v 0.54005 -0.41884 0.23112
v 0.44005 0.50116 0.23112
v 0.44005 -0.41884 0.23112
v 0.54005 0.50116 0.23112
v 0.48005 0.50116 -0.06888
v 0.48005 -0.41884 -0.06888
vn 0.0 0.0 1.0
vn -0.099499755 0.0 -0.99503756
vn -0.9792595 0.0 0.2026099
f 17//11 18//11 19//11
f 18//11 17//11 20//11
f 21//12 16//12 13//12
f 21//12 22//12 16//12
f 16//13 18//13 13//13
f 16//13 19//13 18//13
f 17//10 21//10 20//10
f 17//10 22//10 21//10
f 13//5 20//5 21//5
f 13//5 18//5 20//5
f 19//6 22//6 17//6
f 19//6 16//6 22//6
g 4
usemtl flwhite
v 0.63005 0.50116 0.43112
v 0.53005 -0.41884 0.43112
v 0.63005 -0.41884 0.43112
v 0.53005 0.50116 0.43112
vn 0.0 0.0 -1.0
vn -0.91192305 0.0 0.41036138
vn 0.91192305 0.0 -0.41036138
f 23//11 24//11 25//11
f 24//11 23//11 26//11
f 17//14 18//14 20//14
f 17//14 19//14 18//14
f 24//15 18//15 19//15
f 24//15 26//15 18//15
f 17//16 23//16 25//16
f 17//16 20//16 23//16
f 26//5 20//5 18//5
f 26//5 23//5 20//5
f 19//6 25//6 24//6
f 19//6 17//6 25//6
g 5
usemtl flwhite
v 0.84005 0.50116 0.83112
v 0.74005 -0.41884 0.83112
v 0.84005 -0.41884 0.83112
v 0.74005 0.50116 0.83112
vn -0.88539994 0.0 0.46482998
vn 0.88539994 0.0 -0.46482998
f 27//11 28//11 29//11
f 28//11 27//11 30//11
f 25//14 26//14 23//14
f 25//14 24//14 26//14
f 28//17 26//17 24//17
f 28//17 30//17 26//17
f 25//18 27//18 29//18
f 25//18 23//18 27//18
f 30//5 23//5 26//5
f 30//5 27//5 23//5
f 24//6 29//6 28//6
f 24//6 25//6 29//6
g 6
usemtl flwhite
v 0.84005 0.50116 1.23112
v 0.74005 -0.41884 1.23112
v 0.84005 -0.41884 1.23112
v 0.74005 0.50116 1.23112
vn 1.0 0.0 0.0
f 31//11 32//11 33//11
f 32//11 31//11 34//11
f 29//14 30//14 27//14
f 29//14 28//14 30//14
f 32//9 30//9 28//9
f 32//9 34//9 30//9
f 29//19 31//19 33//19
f 29//19 27//19 31//19
f 34//5 27//5 30//5
f 34//5 31//5 27//5
f 28//6 33//6 32//6
f 28//6 29//6 33//6
g 7
usemtl lighttan
v 0.5942 -0.63884 0.42112
v 0.7039 -0.51884 0.56175
v 0.5942 -0.51884 0.42112
v 0.7039 -0.63884 0.56175
v 0.62789 -0.51884 0.40112
v 0.74281 -0.63884 0.54175
v 0.62789 -0.63884 0.40112
v 0.74281 -0.51884 0.54175
vn -0.78848016 0.0 0.6150601
vn 0.77433985 0.0 -0.63276994
vn -0.5104725 0.0 -0.8598942
vn 0.45714986 0.0 0.8893897
f 35//20 36//20 37//20
f 36//20 35//20 38//20
f 39//21 40//21 41//21
f 39//21 42//21 40//21
f 39//22 35//22 37//22
f 39//22 41//22 35//22
f 36//23 40//23 42//23
f 36//23 38//23 40//23
f 42//5 37//5 36//5
f 42//5 39//5 37//5
f 38//6 41//6 40//6
f 38//6 35//6 41//6
g 8
usemtl lighttan
v 0.49312 -0.51884 0.36112
v 0.49312 -0.63884 0.36112
v 0.49312 -0.63884 0.32112
v 0.49312 -0.51884 0.32112
vn -0.5104371 0.0 0.8599151
vn 0.5104489 0.0 -0.8599081
vn 0.5104725 0.0 0.8598942
f 43//24 35//24 37//24
f 35//24 43//24 44//24
f 45//25 39//25 41//25
f 45//25 46//25 39//25
f 43//9 45//9 44//9
f 43//9 46//9 45//9
f 39//26 35//26 41//26
f 39//26 37//26 35//26
f 37//5 46//5 43//5
f 37//5 39//5 46//5
f 41//6 44//6 45//6
f 41//6 35//6 44//6
g 9
usemtl lighttan
v 0.79635 -0.51884 -0.60888
v 0.66159 0.60116 -0.60888
v 0.66159 -0.51884 -0.60888
v 0.79635 0.60116 -0.60888
v 0.79635 0.60116 -0.62888
v 0.66159 -0.51884 -0.62888
v 0.66159 0.60116 -0.62888
v 0.79635 -0.51884 -0.62888
f 47//11 48//11 49//11
f 48//11 47//11 50//11
f 51//14 52//14 53//14
f 51//14 54//14 52//14
f 52//9 48//9 53//9
f 52//9 49//9 48//9
f 47//19 51//19 50//19
f 47//19 54//19 51//19
f 53//5 50//5 51//5
f 53//5 48//5 50//5
f 49//6 54//6 47//6
f 49//6 52//6 54//6
g 10
usemtl lighttan
v -0.45026 0.60116 -0.59888
v 0.83005 0.72116 -0.59888
v -0.45026 0.72116 -0.59888
v 0.83005 0.60116 -0.59888
v -0.49518 0.72116 -0.63888
v 0.83005 0.60116 -0.63888
v -0.49518 0.60116 -0.63888
v 0.83005 0.72116 -0.63888
vn -0.6650228 0.0 0.7468231
f 55//11 56//11 57//11
f 56//11 55//11 58//11
f 59//14 60//14 61//14
f 59//14 62//14 60//14
f 59//27 55//27 57//27
f 59//27 61//27 55//27
f 56//19 60//19 62//19
f 56//19 58//19 60//19
f 62//5 57//5 56//5
f 62//5 59//5 57//5
f 58//6 61//6 60//6
f 58//6 55//6 61//6
g 11
usemtl lighttan
v -0.62995 0.60116 -0.51888
v -0.58503 0.72116 -0.47888
v -0.62995 0.72116 -0.51888
v -0.58503 0.60116 -0.47888
vn 0.6650228 0.0 -0.7468231
vn -0.6649967 0.0 -0.74684626
vn 0.6649967 0.0 0.74684626
f 63//27 64//27 65//27
f 64//27 63//27 66//27
f 59//28 55//28 61//28
f 59//28 57//28 55//28
f 59//29 63//29 65//29
f 59//29 61//29 63//29
f 64//30 55//30 57//30
f 55//30 64//30 66//30
f 57//5 65//5 64//5
f 57//5 59//5 65//5
f 66//6 61//6 55//6
f 66//6 63//6 61//6
g 12
usemtl lighttan
v -0.62995 0.60116 0.20112
v -0.62995 0.72116 0.20112
v -0.58503 0.72116 0.16112
v -0.58503 0.60116 0.16112
vn 0.6650228 0.0 0.7468231
f 65//9 67//9 68//9
f 67//9 65//9 63//9
f 66//19 69//19 70//19
f 66//19 64//19 69//19
f 65//28 66//28 63//28
f 65//28 64//28 66//28
f 69//31 67//31 70//31
f 69//31 68//31 67//31
f 68//5 64//5 65//5
f 68//5 69//5 64//5
f 70//6 63//6 66//6
f 70//6 67//6 63//6
g 13
usemtl lighttan
v -0.49518 0.60116 0.32112
v -0.45026 0.72116 0.28112
v -0.49518 0.72116 0.32112
v -0.45026 0.60116 0.28112
vn -0.6650228 -0.0 -0.7468231
vn -0.6649967 0.0 0.74684626
vn 0.6649967 0.0 -0.74684626
f 71//31 72//31 73//31
f 72//31 71//31 74//31
f 68//32 70//32 67//32
f 68//32 69//32 70//32
f 68//33 71//33 73//33
f 68//33 67//33 71//33
f 72//34 70//34 69//34
f 72//34 74//34 70//34
f 69//5 73//5 72//5
f 69//5 68//5 73//5
f 74//6 67//6 70//6
f 74//6 71//6 67//6
g 14
usemtl lighttan
v 0.49312 0.72116 0.36112
v 0.49312 0.60116 0.36112
v -0.46168 0.72116 0.28248
v 0.49312 0.60116 0.32112
v -0.46168 0.60116 0.28248
v 0.49312 0.72116 0.32112
vn -0.040440083 0.0 0.99918205
vn 0.040440083 0.0 -0.99918205
vn -0.7555739 0.0 -0.65506345
f 71//35 75//35 73//35
f 75//35 71//35 76//35
f 77//36 78//36 79//36
f 77//36 80//36 78//36
f 77//37 71//37 73//37
f 77//37 79//37 71//37
f 75//19 78//19 80//19
f 75//19 76//19 78//19
f 80//5 73//5 75//5
f 80//5 77//5 73//5
f 76//6 79//6 78//6
f 76//6 71//6 79//6
g 15
usemtl lighttan
v 0.5942 0.60116 0.42112
v 0.7039 0.72116 0.56175
v 0.5942 0.72116 0.42112
v 0.7039 0.60116 0.56175
v 0.62789 0.72116 0.40112
v 0.74281 0.60116 0.54175
v 0.62789 0.60116 0.40112
v 0.74281 0.72116 0.54175
f 81//20 82//20 83//20
f 82//20 81//20 84//20
f 85//21 86//21 87//21
f 85//21 88//21 86//21
f 85//22 81//22 83//22
f 85//22 87//22 81//22
f 82//23 86//23 88//23
f 82//23 84//23 86//23
f 88//5 83//5 82//5
f 88//5 85//5 83//5
f 84//6 87//6 86//6
f 84//6 81//6 87//6
g 16
usemtl lighttan
f 75//24 81//24 83//24
f 81//24 75//24 76//24
f 78//25 85//25 87//25
f 78//25 80//25 85//25
f 75//9 78//9 76//9
f 75//9 80//9 78//9
f 85//26 81//26 87//26
f 85//26 83//26 81//26
f 83//5 80//5 75//5
f 83//5 85//5 80//5
f 87//6 76//6 78//6
f 87//6 81//6 76//6
g 17
usemtl lighttan
v 0.48005 -0.51884 -0.06888
v 0.52005 -0.41884 -0.06888
v 0.52005 -0.51884 -0.06888
v 0.45005 -0.41884 -0.10888
v 0.50005 -0.51884 -0.09888
v 0.45005 -0.51884 -0.10888
v 0.50005 -0.41884 -0.09888
vn 0.19611998 0.0 -0.9805799
vn -0.8 0.0 0.6
vn 0.8320503 0.0 -0.5547002
f 89//11 90//11 22//11
f 90//11 89//11 91//11
f 92//38 93//38 94//38
f 92//38 95//38 93//38
f 92//39 89//39 22//39
f 92//39 94//39 89//39
f 90//40 93//40 95//40
f 90//40 91//40 93//40
f 95//5 22//5 90//5
f 95//5 92//5 22//5
f 91//6 94//6 93//6
f 91//6 89//6 94//6
g 18
usemtl lighttan
v 0.58005 -0.41884 0.23112
v 0.54005 -0.51884 0.23112
v 0.58005 -0.51884 0.23112
vn -0.9805799 0.0 0.19611998
f 96//11 97//11 98//11
f 97//11 96//11 17//11
f 91//14 22//14 90//14
f 91//14 89//14 22//14
f 97//41 22//41 89//41
f 97//41 17//41 22//41
f 91//10 96//10 98//10
f 91//10 90//10 96//10
f 17//5 90//5 22//5
f 17//5 96//5 90//5
f 89//6 98//6 97//6
f 89//6 91//6 98//6
g 19
usemtl lighttan
v 0.73005 -0.41884 0.53112
v 0.69005 -0.51884 0.53112
v 0.73005 -0.51884 0.53112
v 0.69005 -0.41884 0.53112
vn -0.8944292 0.0 0.44720963
vn 0.8944292 0.0 -0.44720963
f 99//11 100//11 101//11
f 100//11 99//11 102//11
f 98//14 17//14 96//14
f 98//14 97//14 17//14
f 100//42 17//42 97//42
f 100//42 102//42 17//42
f 98//43 99//43 101//43
f 98//43 96//43 99//43
f 102//5 96//5 17//5
f 102//5 99//5 96//5
f 97//6 101//6 100//6
f 97//6 98//6 101//6
g 20
usemtl lighttan
v 0.88005 -0.41884 0.83112
v 0.84005 -0.51884 0.83112
v 0.88005 -0.51884 0.83112
f 103//11 104//11 105//11
f 104//11 103//11 29//11
f 101//14 102//14 99//14
f 101//14 100//14 102//14
f 104//42 102//42 100//42
f 104//42 29//42 102//42
f 101//43 103//43 105//43
f 101//43 99//43 103//43
f 29//5 99//5 102//5
f 29//5 103//5 99//5
f 100//6 105//6 104//6
f 100//6 101//6 105//6
g 21
usemtl lighttan
v 0.88005 -0.41884 1.22112
v 0.84005 -0.51884 1.22112
v 0.88005 -0.51884 1.22112
v 0.84005 -0.41884 1.22112
f 106//11 107//11 108//11
f 107//11 106//11 109//11
f 105//14 29//14 103//14
f 105//14 104//14 29//14
f 107//9 29//9 104//9
f 107//9 109//9 29//9
f 105//19 106//19 108//19
f 105//19 103//19 106//19
f 109//5 103//5 29//5
f 109//5 106//5 103//5
f 104//6 108//6 107//6
f 104//6 105//6 108//6
g 22
usemtl lighttan
v -0.60995 -0.51884 0.02063
v -0.60995 0.60116 0.07112
v -0.60995 0.60116 0.02063
v -0.60995 -0.51884 0.07112
v 0.45005 0.60116 -0.10888
v 0.48011 -0.51884 -0.06838
v 0.48011 0.60116 -0.06838
vn 0.8029864 0.0 -0.59599733
vn -0.1212798 0.0 -0.9926183
vn 0.12694006 0.0 0.99191046
f 110//9 111//9 112//9
f 111//9 110//9 113//9
f 114//44 115//44 94//44
f 114//44 116//44 115//44
f 114//45 110//45 112//45
f 114//45 94//45 110//45
f 111//46 115//46 116//46
f 111//46 113//46 115//46
f 116//5 112//5 111//5
f 116//5 114//5 112//5
f 113//6 94//6 115//6
f 113//6 110//6 94//6
g 23
usemtl lighttan
v 0.52005 0.60116 -0.06888
v 0.48005 0.60116 -0.06888
v 0.52005 0.50116 -0.06888
v 0.50005 0.50116 -0.09888
v 0.45005 0.50116 -0.10888
v 0.50005 0.60116 -0.09888
f 21//11 117//11 118//11
f 117//11 21//11 119//11
f 114//38 120//38 121//38
f 114//38 122//38 120//38
f 114//39 21//39 118//39
f 114//39 121//39 21//39
f 117//40 120//40 122//40
f 117//40 119//40 120//40
f 122//5 118//5 117//5
f 122//5 114//5 118//5
f 119//6 121//6 120//6
f 119//6 21//6 121//6
g 24
usemtl lighttan
v 0.58005 0.60116 0.23112
v 0.58005 0.50116 0.23112
v 0.54005 0.60116 0.23112
f 123//11 20//11 124//11
f 20//11 123//11 125//11
f 119//14 118//14 117//14
f 119//14 21//14 118//14
f 20//41 118//41 21//41
f 20//41 125//41 118//41
f 119//10 123//10 124//10
f 119//10 117//10 123//10
f 125//5 117//5 118//5
f 125//5 123//5 117//5
f 21//6 124//6 20//6
f 21//6 119//6 124//6
g 25
usemtl lighttan
v 0.73005 0.60116 0.53112
v 0.69005 0.50116 0.53112
v 0.73005 0.50116 0.53112
v 0.69005 0.60116 0.53112
f 126//11 127//11 128//11
f 127//11 126//11 129//11
f 124//14 125//14 123//14
f 124//14 20//14 125//14
f 127//42 125//42 20//42
f 127//42 129//42 125//42
f 124//43 126//43 128//43
f 124//43 123//43 126//43
f 129//5 123//5 125//5
f 129//5 126//5 123//5
f 20//6 128//6 127//6
f 20//6 124//6 128//6
g 26
usemtl lighttan
v 0.88005 0.60116 0.83112
v 0.88005 0.50116 0.83112
v 0.84005 0.60116 0.83112
f 130//11 27//11 131//11
f 27//11 130//11 132//11
f 128//14 129//14 126//14
f 128//14 127//14 129//14
f 27//42 129//42 127//42
f 27//42 132//42 129//42
f 128//43 130//43 131//43
f 128//43 126//43 130//43
f 132//5 126//5 129//5
f 132//5 130//5 126//5
f 127//6 131//6 27//6
f 127//6 128//6 131//6
g 27
usemtl lighttan
v 0.88005 0.60116 1.22112
v 0.84005 0.50116 1.22112
v 0.88005 0.50116 1.22112
v 0.84005 0.60116 1.22112
f 133//11 134//11 135//11
f 134//11 133//11 136//11
f 131//14 132//14 130//14
f 131//14 27//14 132//14
f 134//9 132//9 27//9
f 134//9 136//9 132//9
f 131//19 133//19 135//19
f 131//19 130//19 133//19
f 136//5 130//5 132//5
f 136//5 133//5 130//5
f 27//6 135//6 134//6
f 27//6 131//6 135//6
g 28
usemtl lighttan
v 0.57155 0.50116 0.1748
v 0.53274 -0.41884 0.18448
v 0.57155 -0.41884 0.1748
v 0.53274 0.50116 0.18448
v 0.54736 -0.41884 0.07777
v 0.50854 0.50116 0.08745
v 0.54736 0.50116 0.07777
v 0.50854 -0.41884 0.08745
vn 0.24201089 0.0 0.97027355
vn -0.2419497 0.0 -0.9702888
vn -0.97027886 0.0 0.24198972
vn 0.97030115 0.0 -0.24190028
f 137//47 138//47 139//47
f 138//47 137//47 140//47
f 141//48 142//48 143//48
f 141//48 144//48 142//48
f 138//49 142//49 144//49
f 138//49 140//49 142//49
f 141//50 137//50 139//50
f 141//50 143//50 137//50
f 140//5 143//5 142//5
f 140//5 137//5 143//5
f 144//6 139//6 138//6
f 144//6 141//6 139//6
g 29
usemtl lighttan
v 0.71087 0.50116 0.49624
v 0.67539 -0.41884 0.51471
v 0.71087 -0.41884 0.49624
v 0.67539 0.50116 0.51471
v 0.6647 -0.41884 0.40754
v 0.62922 0.50116 0.42601
v 0.6647 0.50116 0.40754
v 0.62922 -0.41884 0.42601
vn 0.46175006 0.0 0.8870101
vn -0.46175006 0.0 -0.8870101
vn -0.8870307 0.0 0.4617104
vn 0.8870307 0.0 -0.4617104
f 145//51 146//51 147//51
f 146//51 145//51 148//51
f 149//52 150//52 151//52
f 149//52 152//52 150//52
f 146//53 150//53 152//53
f 146//53 148//53 150//53
f 149//54 145//54 147//54
f 149//54 151//54 145//54
f 148//5 151//5 150//5
f 148//5 145//5 151//5
f 152//6 147//6 146//6
f 152//6 149//6 147//6
g 30
usemtl lighttan
v 0.88237 0.50116 0.81443
v 0.84772 -0.41884 0.83443
v 0.88237 -0.41884 0.81443
v 0.84772 0.50116 0.83443
v 0.83237 -0.41884 0.72782
v 0.79773 0.50116 0.74782
v 0.83237 0.50116 0.72782
v 0.79773 -0.41884 0.74782
vn 0.49990138 0.0 0.8660824
vn -0.50000983 0.0 -0.8660197
vn -0.86608917 0.0 0.49988952
vn 0.8660421 0.0 -0.49997118
f 153//55 154//55 155//55
f 154//55 153//55 156//55
f 157//56 158//56 159//56
f 157//56 160//56 158//56
f 154//57 158//57 160//57
f 154//57 156//57 158//57
f 157//58 153//58 155//58
f 157//58 159//58 153//58
f 156//5 159//5 158//5
f 156//5 153//5 159//5
f 160//6 155//6 154//6
f 160//6 157//6 155//6
g 31
usemtl lighttan
v 0.88005 0.50116 1.19112
v 0.84005 -0.41884 1.19112
v 0.88005 -0.41884 1.19112
v 0.84005 0.50116 1.19112
v 0.88005 -0.41884 1.09112
v 0.84005 0.50116 1.09112
v 0.88005 0.50116 1.09112
v 0.84005 -0.41884 1.09112
f 161//11 162//11 163//11
f 162//11 161//11 164//11
f 165//14 166//14 167//14
f 165//14 168//14 166//14
f 162//9 166//9 168//9
f 162//9 164//9 166//9
f 165//19 161//19 163//19
f 165//19 167//19 161//19
f 164//5 167//5 166//5
f 164//5 161//5 167//5
f 168//6 163//6 162//6
f 168//6 165//6 163//6
g 32
usemtl lighttan
v -0.45026 -0.63884 -0.59888
v 0.83005 -0.51884 -0.59888
v -0.45026 -0.51884 -0.59888
v 0.83005 -0.63884 -0.59888
v -0.49518 -0.51884 -0.63888
v 0.83005 -0.63884 -0.63888
v -0.49518 -0.63884 -0.63888
v 0.83005 -0.51884 -0.63888
f 169//11 170//11 171//11
f 170//11 169//11 172//11
f 173//14 174//14 175//14
f 173//14 176//14 174//14
f 173//27 169//27 171//27
f 173//27 175//27 169//27
f 170//19 174//19 176//19
f 170//19 172//19 174//19
f 176//5 171//5 170//5
f 176//5 173//5 171//5
f 172//6 175//6 174//6
f 172//6 169//6 175//6
g 33
usemtl lighttan
v -0.62995 -0.63884 -0.51888
v -0.58503 -0.51884 -0.47888
v -0.62995 -0.51884 -0.51888
v -0.58503 -0.63884 -0.47888
f 177//27 178//27 179//27
f 178//27 177//27 180//27
f 173//28 169//28 175//28
f 173//28 171//28 169//28
f 173//29 177//29 179//29
f 173//29 175//29 177//29
f 178//30 169//30 171//30
f 169//30 178//30 180//30
f 171//5 179//5 178//5
f 171//5 173//5 179//5
f 180//6 175//6 169//6
f 180//6 177//6 175//6
g 34
usemtl lighttan
v -0.62995 -0.63884 0.20112
v -0.62995 -0.51884 0.20112
v -0.58503 -0.51884 0.16112
v -0.58503 -0.63884 0.16112
f 179//9 181//9 182//9
f 181//9 179//9 177//9
f 180//19 183//19 184//19
f 180//19 178//19 183//19
f 179//28 180//28 177//28
f 179//28 178//28 180//28
f 183//31 181//31 184//31
f 183//31 182//31 181//31
f 182//5 178//5 179//5
f 182//5 183//5 178//5
f 184//6 177//6 180//6
f 184//6 181//6 177//6
g 35
usemtl lighttan
v -0.49518 -0.63884 0.32112
v -0.45026 -0.51884 0.28112
v -0.49518 -0.51884 0.32112
v -0.45026 -0.63884 0.28112
f 185//31 186//31 187//31
f 186//31 185//31 188//31
f 182//32 184//32 181//32
f 182//32 183//32 184//32
f 182//33 185//33 187//33
f 182//33 181//33 185//33
f 186//34 184//34 183//34
f 186//34 188//34 184//34
f 183//5 187//5 186//5
f 183//5 182//5 187//5
f 188//6 181//6 184//6
f 188//6 185//6 181//6
g 36
usemtl lighttan
v -0.46168 -0.51884 0.28248
v -0.46168 -0.63884 0.28248
f 185//35 43//35 187//35
f 43//35 185//35 44//35
f 189//36 45//36 190//36
f 189//36 46//36 45//36
f 189//37 185//37 187//37
f 189//37 190//37 185//37
f 43//19 45//19 46//19
f 43//19 44//19 45//19
f 46//5 187//5 43//5
f 46//5 189//5 187//5
f 44//6 190//6 45//6
f 44//6 185//6 190//6
g 37
usemtl lighttan
v -0.59626 -0.51884 -0.03888
v -0.61872 0.60116 -0.03888
v -0.61872 -0.51884 -0.03888
v -0.59626 0.60116 -0.03888
v -0.59626 0.60116 -0.15888
v -0.61872 -0.51884 -0.15888
v -0.61872 0.60116 -0.15888
v -0.59626 -0.51884 -0.15888
f 191//11 192//11 193//11
f 192//11 191//11 194//11
f 195//14 196//14 197//14
f 195//14 198//14 196//14
f 196//9 192//9 197//9
f 196//9 193//9 192//9
f 191//19 195//19 194//19
f 191//19 198//19 195//19
f 197//5 194//5 195//5
f 197//5 192//5 194//5
f 193//6 198//6 191//6
f 193//6 196//6 198//6
