# Export for compatibility
mtllib model.mtl
g Tour_Fenetre_1
usemtl white
v 0.39685 0.91791 0.13484
v -0.39685 0.91791 0.13484
v 0.0 0.91791 -0.00016
v 0.39685 0.91791 -0.13516
v -0.39685 0.91791 -0.13516
v 0.39685 1.53431 -0.00016
v 0.39685 2.15071 -0.13516
v 0.39685 2.15071 0.13484
v -0.39685 1.53431 -0.00016
v -0.39685 2.15071 0.13484
v -0.39685 2.15071 -0.13516
v 0.0 2.15071 -0.00016
v 0.28543 0.92839 0.13484
v 0.35662 0.92839 0.13484
v 0.19446 0.92839 0.13484
v -0.19446 0.92839 0.13484
v 0.38891 2.09096 0.13484
v 0.38891 2.13839 0.13484
v 0.38891 1.09166 0.13484
v 0.38891 1.23135 0.13484
v -0.38891 2.13839 0.13484
v -0.38891 2.14024 0.13484
v -0.19446 2.14024 0.13484
v 0.19446 2.14024 0.13484
v -0.38891 1.05265 0.13484
v -0.38891 0.96526 0.13484
v -0.38891 1.23135 0.13484
v -0.26077 0.92839 -0.13516
v -0.37657 0.92839 -0.13516
v 0.19446 0.92839 -0.13516
v -0.38891 1.9896 -0.13516
v -0.38891 2.13176 -0.13516
v -0.38891 1.23135 -0.13516
v 0.24383 2.14024 -0.13516
v 0.37634 2.14024 -0.13516
v 0.19446 2.14024 -0.13516
v 0.38891 1.12697 -0.13516
v 0.38891 1.23135 -0.13516
v 0.38891 0.97896 0.13484
v 0.26935 2.14024 0.13484
v 0.23262 2.14024 0.13484
v -0.38891 2.10437 0.13484
v -0.38637 0.92839 -0.13516
v 0.38872 0.92839 -0.13516
v 0.38568 0.92839 -0.13516
v 0.37892 0.92839 -0.13516
v -0.38891 2.13839 -0.13516
v -0.38891 0.93024 -0.13516
v -0.38891 0.93787 -0.13516
v -0.38568 2.14024 -0.13516
v -0.38485 2.14024 -0.13516
v 0.38891 0.94365 -0.13516
v 0.38891 0.93024 -0.13516
v 0.38891 2.13839 -0.13516
v 0.38891 2.12627 -0.13516
v 0.38872 0.92839 0.13484
v 0.38891 0.92839 0.13484
v -0.38637 0.92839 0.13484
v -0.38891 0.92839 0.13484
v -0.38689 0.92839 -0.13516
v 0.38755 2.14024 -0.13516
v 0.38787 2.14024 -0.13516
v -0.38137 2.14024 -0.13516
v -0.37364 2.14024 -0.13516
v 0.38891 2.14024 0.13484
v 0.38888 0.92839 -0.13516
v 0.38891 0.92839 -0.13516
v 0.38891 1.83728 0.13484
v -0.38485 2.14024 0.13484
v -0.38891 1.83728 0.13484
v -0.19446 0.92839 -0.13516
v -0.38891 1.83728 -0.13516
v -0.19446 2.14024 -0.13516
v 0.38891 1.83728 -0.13516
v -0.38891 0.93024 0.13484
v 0.37815 0.92839 -0.13516
v -0.38891 0.94068 -0.13516
v 0.38891 0.98282 -0.13516
v 0.38558 0.92839 0.13484
v -0.35426 0.92839 0.13484
v -0.3848 0.92839 0.13484
v 0.34055 2.14024 0.13484
v 0.35081 2.14024 0.13484
v -0.38891 0.93155 0.13484
v 0.38891 2.13962 -0.13516
v 0.38891 2.14024 -0.13516
v 0.38891 0.93348 0.13484
v 0.38891 0.93024 0.13484
v 0.38472 2.14024 0.13484
v 0.38755 2.14024 0.13484
v 0.38885 0.92839 -0.13516
v -0.38891 2.14024 -0.13516
v -0.38891 2.13962 -0.13516
v -0.38891 0.92839 -0.13516
v -0.38806 0.92839 -0.13516
v -0.3462 0.92839 0.13484
v -0.38784 2.14024 0.13484
v 0.38846 2.14024 -0.13516
v 0.38891 0.92901 0.13484
v -0.38855 2.14024 -0.13516
v 0.38876 2.14024 0.13484
v -0.38891 0.92901 -0.13516
v 0.38891 2.12381 -0.13516
v 0.35442 0.92839 -0.13516
v -0.38891 0.96981 -0.13516
v -0.38756 2.14024 0.13484
v 0.0 0.92839 -0.00016
v 0.38891 1.53431 -0.00016
v -0.38891 1.53431 -0.00016
v 0.0 2.14024 -0.00016
vn 0.0 -1.0 0.0
vn 1.0 0.0 0.0
vn -1.0 0.0 0.0
vn 0.0 1.0 0.0
vn 0.0 0.0 1.0
vn 0.0 0.0 -1.0
f 1//1 2//1 3//1
f 4//1 1//1 3//1
f 5//1 4//1 3//1
f 2//1 5//1 3//1
f 1//2 4//2 6//2
f 4//2 7//2 6//2
f 7//2 8//2 6//2
f 8//2 1//2 6//2
f 5//3 2//3 9//3
f 2//3 10//3 9//3
f 10//3 11//3 9//3
f 11//3 5//3 9//3
f 10//4 8//4 12//4
f 8//4 7//4 12//4
f 7//4 11//4 12//4
f 11//4 10//4 12//4
f 13//5 1//5 14//5
f 1//5 15//5 16//5
f 1//5 16//5 2//5
f 17//5 8//5 18//5
f 19//5 1//5 20//5
f 1//5 8//5 20//5
f 10//5 21//5 22//5
f 10//5 23//5 24//5
f 10//5 24//5 8//5
f 25//5 2//5 26//5
f 2//5 25//5 27//5
f 10//5 2//5 27//5
f 28//6 5//6 29//6
f 4//6 5//6 30//6
f 31//6 11//6 32//6
f 5//6 11//6 33//6
f 34//6 7//6 35//6
f 7//6 34//6 36//6
f 11//6 7//6 36//6
f 4//6 37//6 38//6
f 7//6 4//6 38//6
f 39//5 1//5 19//5
f 40//5 8//5 41//5
f 21//5 10//5 42//5
f 29//6 5//6 43//6
f 44//6 4//6 45//6
f 45//6 4//6 46//6
f 32//6 11//6 47//6
f 48//6 5//6 49//6
f 50//6 11//6 51//6
f 52//6 4//6 53//6
f 54//6 7//6 55//6
f 56//5 1//5 57//5
f 2//5 58//5 59//5
f 43//6 5//6 60//6
f 35//6 7//6 61//6
f 61//6 7//6 62//6
f 63//6 11//6 64//6
f 51//6 11//6 63//6
f 18//5 8//5 65//5
f 4//6 66//6 67//6
f 1//5 13//5 15//5
f 8//5 17//5 68//5
f 20//5 8//5 68//5
f 10//5 69//5 23//5
f 41//5 8//5 24//5
f 10//5 27//5 70//5
f 30//6 5//6 71//6
f 11//6 31//6 72//6
f 33//6 11//6 72//6
f 11//6 36//6 73//6
f 7//6 38//6 74//6
f 75//5 2//5 59//5
f 53//6 4//6 67//6
f 42//5 10//5 70//5
f 5//6 28//6 71//6
f 64//6 11//6 73//6
f 76//6 46//6 4//6
f 77//6 49//6 5//6
f 52//6 78//6 4//6
f 78//6 37//6 4//6
f 56//5 79//5 1//5
f 79//5 14//5 1//5
f 80//5 81//5 2//5
f 81//5 58//5 2//5
f 40//5 82//5 8//5
f 82//5 83//5 8//5
f 75//5 84//5 2//5
f 84//5 26//5 2//5
f 54//6 85//6 7//6
f 85//6 86//6 7//6
f 39//5 87//5 1//5
f 87//5 88//5 1//5
f 83//5 89//5 8//5
f 89//5 90//5 8//5
f 44//6 91//6 4//6
f 91//6 66//6 4//6
f 92//6 93//6 11//6
f 93//6 47//6 11//6
f 94//6 95//6 5//6
f 95//6 60//6 5//6
f 16//5 96//5 2//5
f 96//5 80//5 2//5
f 22//5 97//5 10//5
f 86//6 98//6 7//6
f 98//6 62//6 7//6
f 88//5 99//5 1//5
f 99//5 57//5 1//5
f 50//6 100//6 11//6
f 100//6 92//6 11//6
f 90//5 101//5 8//5
f 101//5 65//5 8//5
f 48//6 102//6 5//6
f 102//6 94//6 5//6
f 74//6 103//6 7//6
f 103//6 55//6 7//6
f 30//6 104//6 4//6
f 104//6 76//6 4//6
f 33//6 105//6 5//6
f 105//6 77//6 5//6
f 97//5 106//5 10//5
f 106//5 69//5 10//5
f 107//4 16//4 15//4
f 107//4 30//4 71//4
f 20//3 108//3 19//3
f 108//3 74//3 38//3
f 108//3 20//3 68//3
f 109//2 70//2 27//2
f 109//2 33//2 72//2
f 110//1 24//1 23//1
f 110//1 73//1 36//1
f 76//4 14//4 46//4
f 104//4 13//4 76//4
f 76//4 13//4 14//4
f 30//4 107//4 104//4
f 104//4 107//4 13//4
f 107//4 15//4 13//4
f 81//4 29//4 58//4
f 29//4 81//4 80//4
f 28//4 29//4 80//4
f 16//4 107//4 96//4
f 96//4 107//4 28//4
f 107//4 71//4 28//4
f 19//3 78//3 52//3
f 78//3 19//3 37//3
f 19//3 108//3 37//3
f 85//3 18//3 86//3
f 18//3 85//3 54//3
f 17//3 18//3 54//3
f 74//3 108//3 103//3
f 103//3 108//3 17//3
f 108//3 68//3 17//3
f 77//2 26//2 49//2
f 105//2 25//2 77//2
f 77//2 25//2 26//2
f 33//2 109//2 105//2
f 105//2 109//2 25//2
f 109//2 27//2 25//2
f 92//2 22//2 93//2
f 93//2 22//2 21//2
f 32//2 21//2 31//2
f 31//2 21//2 109//2
f 109//2 21//2 42//2
f 89//1 35//1 90//1
f 82//1 34//1 83//1
f 34//1 35//1 83//1
f 34//1 82//1 40//1
f 110//1 34//1 40//1
f 110//1 36//1 34//1
f 97//1 50//1 106//1
f 106//1 50//1 51//1
f 64//1 110//1 63//1
f 63//1 110//1 51//1
f 106//1 51//1 69//1
f 51//1 110//1 69//1
f 46//4 79//4 56//4
f 79//4 46//4 14//4
f 58//4 29//4 43//4
f 96//4 28//4 80//4
f 19//3 52//3 39//3
f 108//3 38//3 37//3
f 65//3 86//3 18//3
f 17//3 54//3 55//3
f 49//2 84//2 75//2
f 84//2 49//2 26//2
f 21//2 32//2 47//2
f 109//2 72//2 31//2
f 70//2 109//2 42//2
f 90//1 35//1 61//1
f 35//1 89//1 83//1
f 110//1 40//1 41//1
f 100//1 97//1 92//1
f 92//1 97//1 22//1
f 97//1 100//1 50//1
f 73//1 110//1 64//1
f 110//1 23//1 69//1
f 45//4 56//4 44//4
f 46//4 56//4 45//4
f 94//4 59//4 95//4
f 95//4 59//4 58//4
f 58//4 43//4 60//4
f 52//3 87//3 39//3
f 87//3 52//3 88//3
f 52//3 53//3 88//3
f 99//3 53//3 57//3
f 103//3 17//3 55//3
f 49//2 75//2 48//2
f 93//2 21//2 47//2
f 101//1 98//1 65//1
f 65//1 98//1 86//1
f 98//1 101//1 90//1
f 90//1 61//1 62//1
f 24//1 110//1 41//1
f 56//4 91//4 44//4
f 91//4 56//4 66//4
f 56//4 57//4 66//4
f 95//4 58//4 60//4
f 53//3 99//3 88//3
f 67//3 57//3 53//3
f 75//2 102//2 48//2
f 102//2 75//2 94//2
f 94//2 75//2 59//2
f 98//1 90//1 62//1
f 57//4 67//4 66//4
g Fenetre_1_2
usemtl white
v 0.39132 0.92748 0.02067
v -0.39132 0.92748 0.02067
v 0.0 0.92748 0.0006
v 0.39132 0.92748 -0.01946
v -0.39132 0.92748 -0.01946
v 0.39132 1.53249 0.0006
v 0.39132 2.1375 -0.01946
v 0.39132 2.1375 0.02067
v -0.39132 1.53249 0.0006
v -0.39132 2.1375 0.02067
v -0.39132 2.1375 -0.01946
v 0.0 2.1375 0.0006
v 0.13442 0.96762 0.02067
v -0.13442 0.96762 0.02067
v 0.35 0.99136 0.02067
v 0.35 1.31581 0.02067
v 0.35 2.07362 0.02067
v 0.35 2.09824 0.02067
v -0.35 0.99136 0.02067
v -0.35 1.31581 0.02067
v 0.14652 0.96762 -0.01946
v 0.35 0.96762 -0.01946
v -0.35 0.99136 -0.01946
v -0.35 1.29628 -0.01946
v 0.35 2.09824 -0.01946
v 0.35 0.99136 -0.01946
v 0.35 1.29628 -0.01946
v 0.35 0.96762 0.02067
v -0.35 0.96762 0.02067
v 0.35 1.75005 0.02067
v -0.35 2.07362 0.02067
v -0.35 2.09824 0.02067
v -0.35 1.75005 0.02067
v -0.14652 0.96762 -0.01946
v -0.35 2.07362 -0.01946
v -0.35 1.76958 -0.01946
v 0.35 1.76958 -0.01946
v -0.13442 2.09824 0.02067
v 0.13442 2.09824 0.02067
v -0.35 0.96762 -0.01946
v 0.14652 2.09824 -0.01946
v 0.35 2.07362 -0.01946
v -0.14652 2.09824 -0.01946
v 0.35 2.0879 -0.01946
v 0.35 0.97759 -0.01946
v -0.35 2.09824 -0.01946
v -0.35 2.0879 -0.01946
v 0.35 0.97195 0.02067
v -0.35 0.97759 -0.01946
v -0.25945 2.09824 -0.01946
v 0.0 0.96762 0.00147
v 0.35 1.53293 0.00147
v -0.35 1.53293 0.00147
v 0.0 2.09824 0.00147
f 111//1 112//1 113//1
f 114//1 111//1 113//1
f 115//1 114//1 113//1
f 112//1 115//1 113//1
f 111//2 114//2 116//2
f 114//2 117//2 116//2
f 117//2 118//2 116//2
f 118//2 111//2 116//2
f 115//3 112//3 119//3
f 112//3 120//3 119//3
f 120//3 121//3 119//3
f 121//3 115//3 119//3
f 120//4 118//4 122//4
f 118//4 117//4 122//4
f 117//4 121//4 122//4
f 121//4 120//4 122//4
f 111//5 123//5 124//5
f 111//5 124//5 112//5
f 125//5 111//5 126//5
f 111//5 118//5 126//5
f 127//5 118//5 128//5
f 118//5 120//5 128//5
f 112//5 129//5 130//5
f 120//5 112//5 130//5
f 114//6 131//6 132//6
f 114//6 115//6 131//6
f 133//6 115//6 134//6
f 115//6 121//6 134//6
f 121//6 117//6 135//6
f 114//6 136//6 137//6
f 117//6 114//6 137//6
f 123//5 111//5 138//5
f 112//5 124//5 139//5
f 118//5 127//5 140//5
f 126//5 118//5 140//5
f 120//5 141//5 142//5
f 120//5 130//5 143//5
f 131//6 115//6 144//6
f 121//6 145//6 146//6
f 134//6 121//6 146//6
f 117//6 137//6 147//6
f 129//5 112//5 139//5
f 142//5 148//5 120//5
f 148//5 149//5 120//5
f 149//5 128//5 120//5
f 141//5 120//5 143//5
f 144//6 115//6 150//6
f 135//6 151//6 121//6
f 152//6 117//6 147//6
f 151//6 153//6 121//6
f 152//6 154//6 117//6
f 154//6 135//6 117//6
f 132//6 155//6 114//6
f 155//6 136//6 114//6
f 156//6 157//6 121//6
f 157//6 145//6 121//6
f 125//5 158//5 111//5
f 158//5 138//5 111//5
f 133//6 159//6 115//6
f 159//6 150//6 115//6
f 153//6 160//6 121//6
f 160//6 156//6 121//6
f 161//4 124//4 123//4
f 131//4 161//4 132//4
f 161//4 131//4 144//4
f 124//4 161//4 139//4
f 126//3 162//3 125//3
f 162//3 147//3 137//3
f 162//3 126//3 140//3
f 163//2 130//2 129//2
f 163//2 143//2 130//2
f 163//2 134//2 146//2
f 164//1 149//1 148//1
f 149//1 164//1 128//1
f 164//1 153//1 151//1
f 138//4 132//4 123//4
f 123//4 132//4 161//4
f 150//4 139//4 144//4
f 144//4 139//4 161//4
f 162//3 137//3 136//3
f 125//3 162//3 136//3
f 154//3 127//3 135//3
f 135//3 127//3 128//3
f 162//3 140//3 127//3
f 127//3 154//3 152//3
f 162//3 127//3 152//3
f 134//2 163//2 133//2
f 163//2 129//2 133//2
f 156//2 142//2 157//2
f 157//2 142//2 141//2
f 163//2 146//2 145//2
f 141//2 163//2 145//2
f 143//2 163//2 141//2
f 135//1 128//1 151//1
f 151//1 128//1 164//1
f 160//1 148//1 156//1
f 156//1 148//1 142//1
f 153//1 164//1 160//1
f 160//1 164//1 148//1
f 158//3 155//3 138//3
f 138//3 155//3 132//3
f 155//3 158//3 125//3
f 155//3 125//3 136//3
f 147//3 162//3 152//3
f 129//2 159//2 133//2
f 159//2 129//2 150//2
f 150//2 129//2 139//2
f 157//2 141//2 145//2
g sweethome3d_window_pane_3
usemtl flltgrey
v 0.355 0.96198 0.00475
v -0.355 0.96198 0.00475
v 0.0 0.96198 -0.00025
v 0.355 0.96198 -0.00525
v -0.355 0.96198 -0.00525
v 0.355 1.53734 -0.00025
v 0.355 2.11269 -0.00525
v 0.355 2.11269 0.00475
v 0.0 1.53734 0.00475
v -0.355 2.11269 0.00475
v -0.355 1.53734 -0.00025
v -0.355 2.11269 -0.00525
v 0.0 2.11269 -0.00025
v 0.0 1.53734 -0.00525
f 165//1 166//1 167//1
f 168//1 165//1 167//1
f 169//1 168//1 167//1
f 166//1 169//1 167//1
f 165//2 168//2 170//2
f 168//2 171//2 170//2
f 171//2 172//2 170//2
f 172//2 165//2 170//2
f 166//5 165//5 173//5
f 165//5 172//5 173//5
f 172//5 174//5 173//5
f 174//5 166//5 173//5
f 169//3 166//3 175//3
f 166//3 174//3 175//3
f 174//3 176//3 175//3
f 176//3 169//3 175//3
f 174//4 172//4 177//4
f 172//4 171//4 177//4
f 171//4 176//4 177//4
f 176//4 174//4 177//4
f 168//6 169//6 178//6
f 169//6 176//6 178//6
f 176//6 171//6 178//6
f 171//6 168//6 178//6
