# Export for compatibility
mtllib model.mtl
g 1
usemtl black
v 0.67 0.18 -0.67
v 0.71 0.18 -0.71
v 0.67 0.18 -0.71
v 0.71 0.18 -0.67
v 0.67 -0.64 -0.71
v 0.71 -0.64 -0.67
v 0.67 -0.64 -0.67
v 0.71 -0.64 -0.71
vn 0.0 1.0 0.0
vn 0.0 -1.0 0.0
vn 1.0 0.0 0.0
vn -1.0 0.0 0.0
vn 0.0 0.0 1.0
vn 0.0 0.0 -1.0
f 1//1 2//1 3//1
f 1//1 4//1 2//1
f 5//2 6//2 7//2
f 5//2 8//2 6//2
f 2//3 6//3 8//3
f 2//3 4//3 6//3
f 5//4 1//4 3//4
f 5//4 7//4 1//4
f 4//5 7//5 6//5
f 4//5 1//5 7//5
f 8//6 3//6 2//6
f 8//6 5//6 3//6
g 2
usemtl black
v -0.63 0.19 -0.67
v -0.59 0.19 -0.71
v -0.63 0.19 -0.71
v -0.59 0.19 -0.67
v -0.63 -0.63 -0.71
v -0.59 -0.63 -0.67
v -0.63 -0.63 -0.67
v -0.59 -0.63 -0.71
f 9//1 10//1 11//1
f 9//1 12//1 10//1
f 13//2 14//2 15//2
f 13//2 16//2 14//2
f 10//3 14//3 16//3
f 10//3 12//3 14//3
f 13//4 9//4 11//4
f 13//4 15//4 9//4
f 12//5 15//5 14//5
f 12//5 9//5 15//5
f 16//6 11//6 10//6
f 16//6 13//6 11//6
g 3
usemtl black
v -0.64 0.24 0.64
v -0.58 0.24 -0.72
v -0.64 0.24 -0.72
v -0.58 0.24 0.64
v -0.64 0.18 -0.72
v -0.58 0.18 0.64
v -0.64 0.18 0.64
v -0.58 0.18 -0.72
f 17//1 18//1 19//1
f 17//1 20//1 18//1
f 21//2 22//2 23//2
f 21//2 24//2 22//2
f 21//4 17//4 19//4
f 21//4 23//4 17//4
f 23//5 20//5 17//5
f 23//5 22//5 20//5
f 24//6 19//6 18//6
f 24//6 21//6 19//6
f 22//3 18//3 20//3
f 22//3 24//3 18//3
g 4
usemtl black
v 0.66 0.24 0.64
v -0.58 0.24 0.58
v 0.66 0.24 0.58
v 0.66 0.18 0.64
v -0.58 0.18 0.58
v 0.66 0.18 0.58
f 25//1 26//1 20//1
f 25//1 27//1 26//1
f 28//2 29//2 30//2
f 28//2 22//2 29//2
f 22//5 25//5 20//5
f 22//5 28//5 25//5
f 28//3 27//3 25//3
f 28//3 30//3 27//3
f 29//4 20//4 26//4
f 29//4 22//4 20//4
f 30//6 26//6 27//6
f 30//6 29//6 26//6
g 5
usemtl black
v 0.72 0.24 -0.72
v 0.72 0.24 0.64
v 0.66 0.24 -0.72
v 0.72 0.18 0.64
v 0.66 0.18 -0.72
v 0.72 0.18 -0.72
f 31//1 25//1 32//1
f 31//1 33//1 25//1
f 34//2 35//2 36//2
f 34//2 28//2 35//2
f 34//3 31//3 32//3
f 34//3 36//3 31//3
f 28//5 32//5 25//5
f 28//5 34//5 32//5
f 36//6 33//6 31//6
f 36//6 35//6 33//6
f 35//4 25//4 33//4
f 35//4 28//4 25//4
g 6
usemtl black
v -0.58 0.24 -0.66
v 0.66 0.24 -0.66
v -0.58 0.18 -0.66
v 0.66 0.18 -0.66
f 33//1 37//1 38//1
f 33//1 18//1 37//1
f 35//2 39//2 24//2
f 35//2 40//2 39//2
f 35//6 18//6 33//6
f 35//6 24//6 18//6
f 40//3 33//3 38//3
f 40//3 35//3 33//3
f 24//4 37//4 18//4
f 24//4 39//4 37//4
f 39//5 38//5 37//5
f 39//5 40//5 38//5
g 7
usemtl black
v 0.67781 -0.24 0.62761
v -0.59313 -0.24 -0.66
v -0.6 -0.24 -0.65311
v 0.68468 -0.24 0.62072
v -0.6 -0.3 -0.65311
v 0.68468 -0.3 0.62072
v 0.67781 -0.3 0.62761
v -0.59313 -0.3 -0.66
vn 0.7079114 0.0 -0.7063014
vn -0.7079114 0.0 0.7063014
vn 0.70786136 0.0 0.7063514
vn -0.7079214 0.0 -0.7062914
f 41//1 42//1 43//1
f 41//1 44//1 42//1
f 45//2 46//2 47//2
f 45//2 48//2 46//2
f 42//7 46//7 48//7
f 42//7 44//7 46//7
f 45//8 41//8 43//8
f 45//8 47//8 41//8
f 44//9 47//9 46//9
f 44//9 41//9 47//9
f 48//10 43//10 42//10
f 48//10 45//10 43//10
g 8
usemtl black
v 0.5 -0.24 0.45
v -0.44 -0.24 -0.49
v -0.44 -0.24 0.45
v 0.5 -0.24 -0.49
v 0.5 -0.3 -0.49
v -0.44 -0.3 0.45
v -0.44 -0.3 -0.49
v 0.5 -0.3 0.45
f 49//1 50//1 51//1
f 49//1 52//1 50//1
f 53//2 54//2 55//2
f 53//2 56//2 54//2
f 56//3 52//3 49//3
f 56//3 53//3 52//3
f 55//4 51//4 50//4
f 55//4 54//4 51//4
f 54//5 49//5 51//5
f 54//5 56//5 49//5
f 53//6 50//6 52//6
f 53//6 55//6 50//6
g 9
usemtl black
v -0.6 -0.24 0.59313
v 0.68761 -0.24 -0.67781
v 0.68072 -0.24 -0.68468
v -0.59311 -0.24 0.6
v 0.68072 -0.3 -0.68468
v -0.59311 -0.3 0.6
v -0.6 -0.3 0.59313
v 0.68761 -0.3 -0.67781
vn 0.7063014 0.0 0.7079114
vn -0.7063014 0.0 -0.7079114
vn -0.7062914 0.0 0.7079214
vn 0.7063514 0.0 -0.70786136
f 57//1 58//1 59//1
f 57//1 60//1 58//1
f 61//2 62//2 63//2
f 61//2 64//2 62//2
f 58//11 62//11 64//11
f 58//11 60//11 62//11
f 61//12 57//12 59//12
f 61//12 63//12 57//12
f 60//13 63//13 62//13
f 60//13 57//13 63//13
f 64//14 59//14 58//14
f 64//14 61//14 59//14
g 10
usemtl black
v 0.67 0.18 0.63
v 0.71 0.18 0.59
v 0.67 0.18 0.59
v 0.71 0.18 0.63
v 0.67 -0.64 0.59
v 0.71 -0.64 0.63
v 0.67 -0.64 0.63
v 0.71 -0.64 0.59
f 65//1 66//1 67//1
f 65//1 68//1 66//1
f 69//2 70//2 71//2
f 69//2 72//2 70//2
f 66//3 70//3 72//3
f 66//3 68//3 70//3
f 69//4 65//4 67//4
f 69//4 71//4 65//4
f 68//5 71//5 70//5
f 68//5 65//5 71//5
f 72//6 67//6 66//6
f 72//6 69//6 67//6
g 11
usemtl black
v -0.63 0.19 0.63
v -0.59 0.19 0.59
v -0.63 0.19 0.59
v -0.59 0.19 0.63
v -0.63 -0.63 0.59
v -0.59 -0.63 0.63
v -0.63 -0.63 0.63
v -0.59 -0.63 0.59
f 73//1 74//1 75//1
f 73//1 76//1 74//1
f 77//2 78//2 79//2
f 77//2 80//2 78//2
f 74//3 78//3 80//3
f 74//3 76//3 78//3
f 77//4 73//4 75//4
f 77//4 79//4 73//4
f 76//5 79//5 78//5
f 76//5 73//5 79//5
f 80//6 75//6 74//6
f 80//6 77//6 75//6
g sweethome3d_window_pane_12
usemtl glasstransparent
v -0.64324 0.25407 0.63582
v 0.71676 0.25407 -0.72418
v -0.64324 0.25407 -0.72418
v 0.71676 0.25407 0.63582
v -0.64324 0.2455 -0.72418
v 0.71676 0.2455 0.63582
v -0.64324 0.2455 0.63582
v 0.71676 0.2455 -0.72418
f 81//1 82//1 83//1
f 81//1 84//1 82//1
f 85//2 86//2 87//2
f 85//2 88//2 86//2
f 85//4 81//4 83//4
f 85//4 87//4 81//4
f 87//5 84//5 81//5
f 87//5 86//5 84//5
f 88//6 83//6 82//6
f 88//6 85//6 83//6
f 86//3 82//3 84//3
f 86//3 88//3 82//3
