# Export for compatibility
mtllib model.mtl
g Plateau_1
usemtl flblonde
v 1.0 0.6 1.0
v -1.0 0.6 1.0
v 0.0 0.6 0.0
v 1.0 0.6 -1.0
v -1.0 0.6 -1.0
v 1.0 0.65 0.0
v 1.0 0.7 -1.0
v 1.0 0.7 1.0
v 0.0 0.65 1.0
v -1.0 0.7 1.0
v -1.0 0.65 0.0
v -1.0 0.7 -1.0
v 0.0 0.7 0.0
v 0.0 0.65 -1.0
vn 0.0 -1.0 0.0
vn 1.0 0.0 0.0
vn 0.0 0.0 1.0
vn -1.0 0.0 0.0
vn 0.0 1.0 0.0
vn 0.0 0.0 -1.0
f 1//1 2//1 3//1
f 4//1 1//1 3//1
f 5//1 4//1 3//1
f 2//1 5//1 3//1
f 1//2 4//2 6//2
f 4//2 7//2 6//2
f 7//2 8//2 6//2
f 8//2 1//2 6//2
f 2//3 1//3 9//3
f 1//3 8//3 9//3
f 8//3 10//3 9//3
f 10//3 2//3 9//3
f 5//4 2//4 11//4
f 2//4 10//4 11//4
f 10//4 12//4 11//4
f 12//4 5//4 11//4
f 10//5 8//5 13//5
f 8//5 7//5 13//5
f 7//5 12//5 13//5
f 12//5 10//5 13//5
f 4//6 5//6 14//6
f 5//6 12//6 14//6
f 12//6 7//6 14//6
f 7//6 4//6 14//6
g Pied_2
usemtl flblonde
v 0.88536 -0.6 0.76464
v 0.9 -0.6 0.8
v 0.85 -0.6 0.8
v 0.85 -0.6 0.75
v 0.81464 -0.6 0.76464
v 0.8 -0.6 0.8
v 0.81464 -0.6 0.83536
v 0.85 -0.6 0.85
v 0.88536 -0.6 0.83536
v 0.9 0.6 0.8
v 0.88536 0.6 0.76464
v 0.85 0.6 0.75
v 0.81464 0.6 0.76464
v 0.8 0.6 0.8
v 0.81464 0.6 0.83536
v 0.85 0.6 0.85
v 0.88536 0.6 0.83536
v 0.85 0.6 0.8
vn 0.70710677 0.0 -0.70710677
vn -0.70710677 0.0 -0.70710677
vn -0.70710677 0.0 0.70710677
vn 0.70710677 0.0 0.70710677
f 15//1 16//1 17//1
f 18//1 15//1 17//1
f 19//1 18//1 17//1
f 20//1 19//1 17//1
f 21//1 20//1 17//1
f 22//1 21//1 17//1
f 23//1 22//1 17//1
f 16//1 23//1 17//1
f 24//2 16//2 15//7
f 25//7 15//7 18//6
f 26//6 18//6 19//8
f 27//8 19//8 20//4
f 28//4 20//4 21//9
f 29//9 21//9 22//3
f 30//3 22//3 23//10
f 31//10 23//10 16//2
f 24//2 15//7 25//7
f 25//7 18//6 26//6
f 26//6 19//8 27//8
f 27//8 20//4 28//4
f 28//4 21//9 29//9
f 29//9 22//3 30//3
f 30//3 23//10 31//10
f 31//10 16//2 24//2
f 32//5 24//5 25//5
f 32//5 25//5 26//5
f 32//5 26//5 27//5
f 32//5 27//5 28//5
f 32//5 28//5 29//5
f 32//5 29//5 30//5
f 32//5 30//5 31//5
f 32//5 31//5 24//5
g Pied_1_3
usemtl flblonde
v -0.81464 -0.6 0.76464
v -0.8 -0.6 0.8
v -0.85 -0.6 0.8
v -0.85 -0.6 0.75
v -0.88536 -0.6 0.76464
v -0.9 -0.6 0.8
v -0.88536 -0.6 0.83536
v -0.85 -0.6 0.85
v -0.81464 -0.6 0.83536
v -0.8 0.6 0.8
v -0.81464 0.6 0.76464
v -0.85 0.6 0.75
v -0.88536 0.6 0.76464
v -0.9 0.6 0.8
v -0.88536 0.6 0.83536
v -0.85 0.6 0.85
v -0.81464 0.6 0.83536
v -0.85 0.6 0.8
f 33//1 34//1 35//1
f 36//1 33//1 35//1
f 37//1 36//1 35//1
f 38//1 37//1 35//1
f 39//1 38//1 35//1
f 40//1 39//1 35//1
f 41//1 40//1 35//1
f 34//1 41//1 35//1
f 42//2 34//2 33//7
f 43//7 33//7 36//6
f 44//6 36//6 37//8
f 45//8 37//8 38//4
f 46//4 38//4 39//9
f 47//9 39//9 40//3
f 48//3 40//3 41//10
f 49//10 41//10 34//2
f 42//2 33//7 43//7
f 43//7 36//6 44//6
f 44//6 37//8 45//8
f 45//8 38//4 46//4
f 46//4 39//9 47//9
f 47//9 40//3 48//3
f 48//3 41//10 49//10
f 49//10 34//2 42//2
f 50//5 42//5 43//5
f 50//5 43//5 44//5
f 50//5 44//5 45//5
f 50//5 45//5 46//5
f 50//5 46//5 47//5
f 50//5 47//5 48//5
f 50//5 48//5 49//5
f 50//5 49//5 42//5
g Pied_2_4
usemtl flblonde
v -0.81464 -0.6 -0.83536
v -0.8 -0.6 -0.8
v -0.85 -0.6 -0.8
v -0.85 -0.6 -0.85
v -0.88536 -0.6 -0.83536
v -0.9 -0.6 -0.8
v -0.88536 -0.6 -0.76464
v -0.85 -0.6 -0.75
v -0.81464 -0.6 -0.76464
v -0.8 0.6 -0.8
v -0.81464 0.6 -0.83536
v -0.85 0.6 -0.85
v -0.88536 0.6 -0.83536
v -0.9 0.6 -0.8
v -0.88536 0.6 -0.76464
v -0.85 0.6 -0.75
v -0.81464 0.6 -0.76464
v -0.85 0.6 -0.8
f 51//1 52//1 53//1
f 54//1 51//1 53//1
f 55//1 54//1 53//1
f 56//1 55//1 53//1
f 57//1 56//1 53//1
f 58//1 57//1 53//1
f 59//1 58//1 53//1
f 52//1 59//1 53//1
f 60//2 52//2 51//7
f 61//7 51//7 54//6
f 62//6 54//6 55//8
f 63//8 55//8 56//4
f 64//4 56//4 57//9
f 65//9 57//9 58//3
f 66//3 58//3 59//10
f 67//10 59//10 52//2
f 60//2 51//7 61//7
f 61//7 54//6 62//6
f 62//6 55//8 63//8
f 63//8 56//4 64//4
f 64//4 57//9 65//9
f 65//9 58//3 66//3
f 66//3 59//10 67//10
f 67//10 52//2 60//2
f 68//5 60//5 61//5
f 68//5 61//5 62//5
f 68//5 62//5 63//5
f 68//5 63//5 64//5
f 68//5 64//5 65//5
f 68//5 65//5 66//5
f 68//5 66//5 67//5
f 68//5 67//5 60//5
g Pied_3_5
usemtl flblonde
v 0.88536 -0.6 -0.83536
v 0.9 -0.6 -0.8
v 0.85 -0.6 -0.8
v 0.85 -0.6 -0.85
v 0.81464 -0.6 -0.83536
v 0.8 -0.6 -0.8
v 0.81464 -0.6 -0.76464
v 0.85 -0.6 -0.75
v 0.88536 -0.6 -0.76464
v 0.9 0.6 -0.8
v 0.88536 0.6 -0.83536
v 0.85 0.6 -0.85
v 0.81464 0.6 -0.83536
v 0.8 0.6 -0.8
v 0.81464 0.6 -0.76464
v 0.85 0.6 -0.75
v 0.88536 0.6 -0.76464
v 0.85 0.6 -0.8
f 69//1 70//1 71//1
f 72//1 69//1 71//1
f 73//1 72//1 71//1
f 74//1 73//1 71//1
f 75//1 74//1 71//1
f 76//1 75//1 71//1
f 77//1 76//1 71//1
f 70//1 77//1 71//1
f 78//2 70//2 69//7
f 79//7 69//7 72//6
f 80//6 72//6 73//8
f 81//8 73//8 74//4
f 82//4 74//4 75//9
f 83//9 75//9 76//3
f 84//3 76//3 77//10
f 85//10 77//10 70//2
f 78//2 69//7 79//7
f 79//7 72//6 80//6
f 80//6 73//8 81//8
f 81//8 74//4 82//4
f 82//4 75//9 83//9
f 83//9 76//3 84//3
f 84//3 77//10 85//10
f 85//10 70//2 78//2
f 86//5 78//5 79//5
f 86//5 79//5 80//5
f 86//5 80//5 81//5
f 86//5 81//5 82//5
f 86//5 82//5 83//5
f 86//5 83//5 84//5
f 86//5 84//5 85//5
f 86//5 85//5 78//5
