# Export for compatibility
mtllib model.mtl
g Cube_3_1
usemtl white
v -4.70896 -2.53602 2.32076
v -4.70896 -2.53602 -1.62291
v -4.49578 -2.53602 0.34892
v -4.28261 -2.53602 2.32076
v -4.28261 -2.53602 -1.62291
v -4.49578 1.23222 2.32076
v -4.28261 5.00046 2.32076
v -4.70896 5.00046 2.32076
v -4.70896 1.23222 0.34892
v -4.70896 5.00046 -1.62291
v -4.49578 1.23222 -1.62291
v -4.28261 5.00046 -1.62291
v -4.49578 5.00046 0.34892
v -4.28261 1.23222 0.34892
vn 0.0 -1.0 0.0
vn 0.0 0.0 1.0
vn -1.0 0.0 0.0
vn 0.0 0.0 -1.0
vn 0.0 1.0 0.0
vn 1.0 0.0 0.0
f 1//1 2//1 3//1
f 4//1 1//1 3//1
f 5//1 4//1 3//1
f 2//1 5//1 3//1
f 1//2 4//2 6//2
f 4//2 7//2 6//2
f 7//2 8//2 6//2
f 8//2 1//2 6//2
f 2//3 1//3 9//3
f 1//3 8//3 9//3
f 8//3 10//3 9//3
f 10//3 2//3 9//3
f 5//4 2//4 11//4
f 2//4 10//4 11//4
f 10//4 12//4 11//4
f 12//4 5//4 11//4
f 10//5 8//5 13//5
f 8//5 7//5 13//5
f 7//5 12//5 13//5
f 12//5 10//5 13//5
f 4//6 5//6 14//6
f 5//6 12//6 14//6
f 12//6 7//6 14//6
f 7//6 4//6 14//6
g Cube_3_1_2
usemtl white
v 5.82702 -2.52054 2.31074
v 5.82702 -2.52054 -1.65751
v 6.04019 -2.52054 0.32662
v 6.25336 -2.52054 2.31074
v 6.25336 -2.52054 -1.65751
v 6.04019 1.24766 2.31074
v 6.25336 5.01586 2.31074
v 5.82702 5.01586 2.31074
v 5.82702 1.24766 0.32662
v 5.82702 5.01586 -1.65751
v 6.04019 1.24766 -1.65751
v 6.25336 5.01586 -1.65751
v 6.04019 5.01586 0.32662
v 6.25336 1.24766 0.32662
f 15//1 16//1 17//1
f 18//1 15//1 17//1
f 19//1 18//1 17//1
f 16//1 19//1 17//1
f 15//2 18//2 20//2
f 18//2 21//2 20//2
f 21//2 22//2 20//2
f 22//2 15//2 20//2
f 16//3 15//3 23//3
f 15//3 22//3 23//3
f 22//3 24//3 23//3
f 24//3 16//3 23//3
f 19//4 16//4 25//4
f 16//4 24//4 25//4
f 24//4 26//4 25//4
f 26//4 19//4 25//4
f 24//5 22//5 27//5
f 22//5 21//5 27//5
f 21//5 26//5 27//5
f 26//5 24//5 27//5
f 18//6 19//6 28//6
f 19//6 26//6 28//6
f 26//6 21//6 28//6
f 21//6 18//6 28//6
g Cube_4_3
usemtl white
v 6.24067 3.29166 2.31574
v -4.61538 3.29166 2.31574
v 0.81265 3.17281 2.31574
v 6.24067 3.05397 2.31574
v -4.61538 3.05397 2.31574
v 6.24067 3.17281 0.33858
v 6.24067 3.05397 -1.63858
v 6.24067 3.29166 -1.63858
v 0.81265 3.29166 0.33858
v -4.61538 3.29166 -1.63858
v -4.61538 3.17281 0.33858
v -4.61538 3.05397 -1.63858
v 0.81265 3.17281 -1.63858
v 0.81265 3.05397 0.33858
f 29//2 30//2 31//2
f 32//2 29//2 31//2
f 33//2 32//2 31//2
f 30//2 33//2 31//2
f 29//6 32//6 34//6
f 32//6 35//6 34//6
f 35//6 36//6 34//6
f 36//6 29//6 34//6
f 30//5 29//5 37//5
f 29//5 36//5 37//5
f 36//5 38//5 37//5
f 38//5 30//5 37//5
f 33//3 30//3 39//3
f 30//3 38//3 39//3
f 38//3 40//3 39//3
f 40//3 33//3 39//3
f 38//4 36//4 41//4
f 36//4 35//4 41//4
f 35//4 40//4 41//4
f 40//4 38//4 41//4
f 32//1 33//1 42//1
f 33//1 40//1 42//1
f 40//1 35//1 42//1
f 35//1 32//1 42//1
g Cube_4_1_4
usemtl white
v 6.24067 -0.67357 2.3158
v -4.54276 -0.67357 2.3158
v 0.84896 -0.79241 2.3158
v 6.24067 -0.91126 2.3158
v -4.54276 -0.91126 2.3158
v 6.24067 -0.79241 0.32783
v 6.24067 -0.91126 -1.66013
v 6.24067 -0.67357 -1.66013
v 0.84896 -0.67357 0.32783
v -4.54276 -0.67357 -1.66013
v -4.54276 -0.79241 0.32783
v -4.54276 -0.91126 -1.66013
v 0.84896 -0.79241 -1.66013
v 0.84896 -0.91126 0.32783
f 43//2 44//2 45//2
f 46//2 43//2 45//2
f 47//2 46//2 45//2
f 44//2 47//2 45//2
f 43//6 46//6 48//6
f 46//6 49//6 48//6
f 49//6 50//6 48//6
f 50//6 43//6 48//6
f 44//5 43//5 51//5
f 43//5 50//5 51//5
f 50//5 52//5 51//5
f 52//5 44//5 51//5
f 47//3 44//3 53//3
f 44//3 52//3 53//3
f 52//3 54//3 53//3
f 54//3 47//3 53//3
f 52//4 50//4 55//4
f 50//4 49//4 55//4
f 49//4 54//4 55//4
f 54//4 52//4 55//4
f 46//1 47//1 56//1
f 47//1 54//1 56//1
f 54//1 49//1 56//1
f 49//1 46//1 56//1
g Cube_4_2_5
usemtl white
v 6.24067 1.3306 2.31574
v -4.54276 1.3306 2.31574
v 0.84896 1.21175 2.31574
v 6.24067 1.0929 2.31574
v -4.54276 1.0929 2.31574
v 6.24067 1.21175 0.33858
v 6.24067 1.0929 -1.63858
v 6.24067 1.3306 -1.63858
v 0.84896 1.3306 0.33858
v -4.54276 1.3306 -1.63858
v -4.54276 1.21175 0.33858
v -4.54276 1.0929 -1.63858
v 0.84896 1.21175 -1.63858
v 0.84896 1.0929 0.33858
f 57//2 58//2 59//2
f 60//2 57//2 59//2
f 61//2 60//2 59//2
f 58//2 61//2 59//2
f 57//6 60//6 62//6
f 60//6 63//6 62//6
f 63//6 64//6 62//6
f 64//6 57//6 62//6
f 58//5 57//5 65//5
f 57//5 64//5 65//5
f 64//5 66//5 65//5
f 66//5 58//5 65//5
f 61//3 58//3 67//3
f 58//3 66//3 67//3
f 66//3 68//3 67//3
f 68//3 61//3 67//3
f 66//4 64//4 69//4
f 64//4 63//4 69//4
f 63//4 68//4 69//4
f 68//4 66//4 69//4
f 60//1 61//1 70//1
f 61//1 68//1 70//1
f 68//1 63//1 70//1
f 63//1 60//1 70//1
g Cube_4_3_6
usemtl white
v 6.24777 5.01306 2.31574
v -4.70784 5.01306 2.31574
v 0.76997 4.92164 2.31574
v 6.24777 4.83022 2.31574
v -4.70784 4.83022 2.31574
v 6.24777 4.92164 0.33858
v 6.24777 4.83022 -1.63858
v 6.24777 5.01306 -1.63858
v 0.76997 5.01306 0.33858
v -4.70784 5.01306 -1.63858
v -4.70784 4.92164 0.33858
v -4.70784 4.83022 -1.63858
v 0.76997 4.92164 -1.63858
v 0.76997 4.83022 0.33858
f 71//2 72//2 73//2
f 74//2 71//2 73//2
f 75//2 74//2 73//2
f 72//2 75//2 73//2
f 71//6 74//6 76//6
f 74//6 77//6 76//6
f 77//6 78//6 76//6
f 78//6 71//6 76//6
f 72//5 71//5 79//5
f 71//5 78//5 79//5
f 78//5 80//5 79//5
f 80//5 72//5 79//5
f 75//3 72//3 81//3
f 72//3 80//3 81//3
f 80//3 82//3 81//3
f 82//3 75//3 81//3
f 80//4 78//4 83//4
f 78//4 77//4 83//4
f 77//4 82//4 83//4
f 82//4 80//4 83//4
f 74//1 75//1 84//1
f 75//1 82//1 84//1
f 82//1 77//1 84//1
f 77//1 74//1 84//1
g Cube_4_4_7
usemtl white
v 6.24901 -2.29614 2.31574
v -4.68934 -2.29614 2.31574
v 0.77984 -2.41499 2.31574
v 6.24901 -2.53383 2.31574
v -4.68934 -2.53383 2.31574
v 6.24901 -2.41499 0.33858
v 6.24901 -2.53383 -1.63858
v 6.24901 -2.29614 -1.63858
v 0.77984 -2.29614 0.33858
v -4.68934 -2.29614 -1.63858
v -4.68934 -2.41499 0.33858
v -4.68934 -2.53383 -1.63858
v 0.77984 -2.41499 -1.63858
v 0.77984 -2.53383 0.33858
f 85//2 86//2 87//2
f 88//2 85//2 87//2
f 89//2 88//2 87//2
f 86//2 89//2 87//2
f 85//6 88//6 90//6
f 88//6 91//6 90//6
f 91//6 92//6 90//6
f 92//6 85//6 90//6
f 86//5 85//5 93//5
f 85//5 92//5 93//5
f 92//5 94//5 93//5
f 94//5 86//5 93//5
f 89//3 86//3 95//3
f 86//3 94//3 95//3
f 94//3 96//3 95//3
f 96//3 89//3 95//3
f 94//4 92//4 97//4
f 92//4 91//4 97//4
f 91//4 96//4 97//4
f 96//4 94//4 97//4
f 88//1 89//1 98//1
f 89//1 96//1 98//1
f 96//1 91//1 98//1
f 91//1 88//1 98//1
g Cube_3_2_8
usemtl white
v 2.43271 3.11171 2.32076
v 2.43271 3.11171 -1.62291
v 2.64588 3.11171 0.34892
v 2.85905 3.11171 2.32076
v 2.85905 3.11171 -1.62291
v 2.64588 4.05609 2.32076
v 2.85905 5.00046 2.32076
v 2.43271 5.00046 2.32076
v 2.43271 4.05609 0.34892
v 2.43271 5.00046 -1.62291
v 2.64588 4.05609 -1.62291
v 2.85905 5.00046 -1.62291
v 2.64588 5.00046 0.34892
v 2.85905 4.05609 0.34892
f 99//1 100//1 101//1
f 102//1 99//1 101//1
f 103//1 102//1 101//1
f 100//1 103//1 101//1
f 99//2 102//2 104//2
f 102//2 105//2 104//2
f 105//2 106//2 104//2
f 106//2 99//2 104//2
f 100//3 99//3 107//3
f 99//3 106//3 107//3
f 106//3 108//3 107//3
f 108//3 100//3 107//3
f 103//4 100//4 109//4
f 100//4 108//4 109//4
f 108//4 110//4 109//4
f 110//4 103//4 109//4
f 108//5 106//5 111//5
f 106//5 105//5 111//5
f 105//5 110//5 111//5
f 110//5 108//5 111//5
f 102//6 103//6 112//6
f 103//6 110//6 112//6
f 110//6 105//6 112//6
f 105//6 102//6 112//6
g Cube_3_3_9
usemtl white
v -1.26782 3.11171 2.32076
v -1.26782 3.11171 -1.62291
v -1.05465 3.11171 0.34892
v -0.84148 3.11171 2.32076
v -0.84148 3.11171 -1.62291
v -1.05465 4.05609 2.32076
v -0.84148 5.00046 2.32076
v -1.26782 5.00046 2.32076
v -1.26782 4.05609 0.34892
v -1.26782 5.00046 -1.62291
v -1.05465 4.05609 -1.62291
v -0.84148 5.00046 -1.62291
v -1.05465 5.00046 0.34892
v -0.84148 4.05609 0.34892
f 113//1 114//1 115//1
f 116//1 113//1 115//1
f 117//1 116//1 115//1
f 114//1 117//1 115//1
f 113//2 116//2 118//2
f 116//2 119//2 118//2
f 119//2 120//2 118//2
f 120//2 113//2 118//2
f 114//3 113//3 121//3
f 113//3 120//3 121//3
f 120//3 122//3 121//3
f 122//3 114//3 121//3
f 117//4 114//4 123//4
f 114//4 122//4 123//4
f 122//4 124//4 123//4
f 124//4 117//4 123//4
f 122//5 120//5 125//5
f 120//5 119//5 125//5
f 119//5 124//5 125//5
f 124//5 122//5 125//5
f 116//6 117//6 126//6
f 117//6 124//6 126//6
f 124//6 119//6 126//6
f 119//6 116//6 126//6
g Cube_3_4_10
usemtl white
v 0.71196 1.11327 2.32076
v 0.71196 1.11327 -1.62291
v 0.92513 1.11327 0.34892
v 1.1383 1.11327 2.32076
v 1.1383 1.11327 -1.62291
v 0.92513 2.15949 2.32076
v 1.1383 3.20571 2.32076
v 0.71196 3.20571 2.32076
v 0.71196 2.15949 0.34892
v 0.71196 3.20571 -1.62291
v 0.92513 2.15949 -1.62291
v 1.1383 3.20571 -1.62291
v 0.92513 3.20571 0.34892
v 1.1383 2.15949 0.34892
f 127//1 128//1 129//1
f 130//1 127//1 129//1
f 131//1 130//1 129//1
f 128//1 131//1 129//1
f 127//2 130//2 132//2
f 130//2 133//2 132//2
f 133//2 134//2 132//2
f 134//2 127//2 132//2
f 128//3 127//3 135//3
f 127//3 134//3 135//3
f 134//3 136//3 135//3
f 136//3 128//3 135//3
f 131//4 128//4 137//4
f 128//4 136//4 137//4
f 136//4 138//4 137//4
f 138//4 131//4 137//4
f 136//5 134//5 139//5
f 134//5 133//5 139//5
f 133//5 138//5 139//5
f 138//5 136//5 139//5
f 130//6 131//6 140//6
f 131//6 138//6 140//6
f 138//6 133//6 140//6
f 133//6 130//6 140//6
g Cube_3_5_11
usemtl white
v -2.21146 1.13178 2.32076
v -2.21146 1.13178 -1.62291
v -1.99829 1.13178 0.34892
v -1.78512 1.13178 2.32076
v -1.78512 1.13178 -1.62291
v -1.99829 2.16874 2.32076
v -1.78512 3.20571 2.32076
v -2.21146 3.20571 2.32076
v -2.21146 2.16874 0.34892
v -2.21146 3.20571 -1.62291
v -1.99829 2.16874 -1.62291
v -1.78512 3.20571 -1.62291
v -1.99829 3.20571 0.34892
v -1.78512 2.16874 0.34892
f 141//1 142//1 143//1
f 144//1 141//1 143//1
f 145//1 144//1 143//1
f 142//1 145//1 143//1
f 141//2 144//2 146//2
f 144//2 147//2 146//2
f 147//2 148//2 146//2
f 148//2 141//2 146//2
f 142//3 141//3 149//3
f 141//3 148//3 149//3
f 148//3 150//3 149//3
f 150//3 142//3 149//3
f 145//4 142//4 151//4
f 142//4 150//4 151//4
f 150//4 152//4 151//4
f 152//4 145//4 151//4
f 150//5 148//5 153//5
f 148//5 147//5 153//5
f 147//5 152//5 153//5
f 152//5 150//5 153//5
f 144//6 145//6 154//6
f 145//6 152//6 154//6
f 152//6 147//6 154//6
f 147//6 144//6 154//6
g Cube_3_6_12
usemtl white
v 0.47143 -2.43894 2.32076
v 0.47143 -2.43894 -1.62291
v 0.6846 -2.43894 0.34892
v 0.89777 -2.43894 2.32076
v 0.89777 -2.43894 -1.62291
v 0.6846 -1.58715 2.32076
v 0.89777 -0.73536 2.32076
v 0.47143 -0.73536 2.32076
v 0.47143 -1.58715 0.34892
v 0.47143 -0.73536 -1.62291
v 0.6846 -1.58715 -1.62291
v 0.89777 -0.73536 -1.62291
v 0.6846 -0.73536 0.34892
v 0.89777 -1.58715 0.34892
f 155//1 156//1 157//1
f 158//1 155//1 157//1
f 159//1 158//1 157//1
f 156//1 159//1 157//1
f 155//2 158//2 160//2
f 158//2 161//2 160//2
f 161//2 162//2 160//2
f 162//2 155//2 160//2
f 156//3 155//3 163//3
f 155//3 162//3 163//3
f 162//3 164//3 163//3
f 164//3 156//3 163//3
f 159//4 156//4 165//4
f 156//4 164//4 165//4
f 164//4 166//4 165//4
f 166//4 159//4 165//4
f 164//5 162//5 167//5
f 162//5 161//5 167//5
f 161//5 166//5 167//5
f 166//5 164//5 167//5
f 158//6 159//6 168//6
f 159//6 166//6 168//6
f 166//6 161//6 168//6
f 161//6 158//6 168//6
g Cube_3_7_13
usemtl white
v 3.52437 1.13177 2.32076
v 3.52437 1.13177 -1.62291
v 3.73754 1.13177 0.34892
v 3.95071 1.13177 2.32076
v 3.95071 1.13177 -1.62291
v 3.73754 2.17799 2.32076
v 3.95071 3.22421 2.32076
v 3.52437 3.22421 2.32076
v 3.52437 2.17799 0.34892
v 3.52437 3.22421 -1.62291
v 3.73754 2.17799 -1.62291
v 3.95071 3.22421 -1.62291
v 3.73754 3.22421 0.34892
v 3.95071 2.17799 0.34892
f 169//1 170//1 171//1
f 172//1 169//1 171//1
f 173//1 172//1 171//1
f 170//1 173//1 171//1
f 169//2 172//2 174//2
f 172//2 175//2 174//2
f 175//2 176//2 174//2
f 176//2 169//2 174//2
f 170//3 169//3 177//3
f 169//3 176//3 177//3
f 176//3 178//3 177//3
f 178//3 170//3 177//3
f 173//4 170//4 179//4
f 170//4 178//4 179//4
f 178//4 180//4 179//4
f 180//4 173//4 179//4
f 178//5 176//5 181//5
f 176//5 175//5 181//5
f 175//5 180//5 181//5
f 180//5 178//5 181//5
f 172//6 173//6 182//6
f 173//6 180//6 182//6
f 180//6 175//6 182//6
f 175//6 172//6 182//6
g Cube_3_8_14
usemtl white
v -1.30483 -0.86656 2.32076
v -1.30483 -0.86656 -1.62291
v -1.09166 -0.86656 0.34892
v -0.87849 -0.86656 2.32076
v -0.87849 -0.86656 -1.62291
v -1.09166 0.20743 2.32076
v -0.87849 1.28143 2.32076
v -1.30483 1.28143 2.32076
v -1.30483 0.20743 0.34892
v -1.30483 1.28143 -1.62291
v -1.09166 0.20743 -1.62291
v -0.87849 1.28143 -1.62291
v -1.09166 1.28143 0.34892
v -0.87849 0.20743 0.34892
f 183//1 184//1 185//1
f 186//1 183//1 185//1
f 187//1 186//1 185//1
f 184//1 187//1 185//1
f 183//2 186//2 188//2
f 186//2 189//2 188//2
f 189//2 190//2 188//2
f 190//2 183//2 188//2
f 184//3 183//3 191//3
f 183//3 190//3 191//3
f 190//3 192//3 191//3
f 192//3 184//3 191//3
f 187//4 184//4 193//4
f 184//4 192//4 193//4
f 192//4 194//4 193//4
f 194//4 187//4 193//4
f 192//5 190//5 195//5
f 190//5 189//5 195//5
f 189//5 194//5 195//5
f 194//5 192//5 195//5
f 186//6 187//6 196//6
f 187//6 194//6 196//6
f 194//6 189//6 196//6
f 189//6 186//6 196//6
g Cube_3_9_15
usemtl white
v 2.46971 -0.88507 2.32076
v 2.46971 -0.88507 -1.62291
v 2.68289 -0.88507 0.34892
v 2.89606 -0.88507 2.32076
v 2.89606 -0.88507 -1.62291
v 2.68289 0.18893 2.32076
v 2.89606 1.26293 2.32076
v 2.46971 1.26293 2.32076
v 2.46971 0.18893 0.34892
v 2.46971 1.26293 -1.62291
v 2.68289 0.18893 -1.62291
v 2.89606 1.26293 -1.62291
v 2.68289 1.26293 0.34892
v 2.89606 0.18893 0.34892
f 197//1 198//1 199//1
f 200//1 197//1 199//1
f 201//1 200//1 199//1
f 198//1 201//1 199//1
f 197//2 200//2 202//2
f 200//2 203//2 202//2
f 203//2 204//2 202//2
f 204//2 197//2 202//2
f 198//3 197//3 205//3
f 197//3 204//3 205//3
f 204//3 206//3 205//3
f 206//3 198//3 205//3
f 201//4 198//4 207//4
f 198//4 206//4 207//4
f 206//4 208//4 207//4
f 208//4 201//4 207//4
f 206//5 204//5 209//5
f 204//5 203//5 209//5
f 203//5 208//5 209//5
f 208//5 206//5 209//5
f 200//6 201//6 210//6
f 201//6 208//6 210//6
f 208//6 203//6 210//6
f 203//6 200//6 210//6
g Cube_3_10_16
usemtl white
v 3.54287 -2.43898 2.32076
v 3.54287 -2.43898 -1.62291
v 3.75604 -2.43898 0.34892
v 3.96921 -2.43898 2.32076
v 3.96921 -2.43898 -1.62291
v 3.75604 -1.55942 2.32076
v 3.96921 -0.67985 2.32076
v 3.54287 -0.67985 2.32076
v 3.54287 -1.55942 0.34892
v 3.54287 -0.67985 -1.62291
v 3.75604 -1.55942 -1.62291
v 3.96921 -0.67985 -1.62291
v 3.75604 -0.67985 0.34892
v 3.96921 -1.55942 0.34892
f 211//1 212//1 213//1
f 214//1 211//1 213//1
f 215//1 214//1 213//1
f 212//1 215//1 213//1
f 211//2 214//2 216//2
f 214//2 217//2 216//2
f 217//2 218//2 216//2
f 218//2 211//2 216//2
f 212//3 211//3 219//3
f 211//3 218//3 219//3
f 218//3 220//3 219//3
f 220//3 212//3 219//3
f 215//4 212//4 221//4
f 212//4 220//4 221//4
f 220//4 222//4 221//4
f 222//4 215//4 221//4
f 220//5 218//5 223//5
f 218//5 217//5 223//5
f 217//5 222//5 223//5
f 222//5 220//5 223//5
f 214//6 215//6 224//6
f 215//6 222//6 224//6
f 222//6 217//6 224//6
f 217//6 214//6 224//6
g Cube_3_11_17
usemtl white
v -2.32248 -2.45749 2.32076
v -2.32248 -2.45749 -1.62291
v -2.1093 -2.45749 0.34892
v -1.89613 -2.45749 2.32076
v -1.89613 -2.45749 -1.62291
v -2.1093 -1.57792 2.32076
v -1.89613 -0.69836 2.32076
v -2.32248 -0.69836 2.32076
v -2.32248 -1.57792 0.34892
v -2.32248 -0.69836 -1.62291
v -2.1093 -1.57792 -1.62291
v -1.89613 -0.69836 -1.62291
v -2.1093 -0.69836 0.34892
v -1.89613 -1.57792 0.34892
f 225//1 226//1 227//1
f 228//1 225//1 227//1
f 229//1 228//1 227//1
f 226//1 229//1 227//1
f 225//2 228//2 230//2
f 228//2 231//2 230//2
f 231//2 232//2 230//2
f 232//2 225//2 230//2
f 226//3 225//3 233//3
f 225//3 232//3 233//3
f 232//3 234//3 233//3
f 234//3 226//3 233//3
f 229//4 226//4 235//4
f 226//4 234//4 235//4
f 234//4 236//4 235//4
f 236//4 229//4 235//4
f 234//5 232//5 237//5
f 232//5 231//5 237//5
f 231//5 236//5 237//5
f 236//5 234//5 237//5
f 228//6 229//6 238//6
f 229//6 236//6 238//6
f 236//6 231//6 238//6
f 231//6 228//6 238//6
