# 3D model import /Users/manu/Developer/Java/SweetHome3D/deploy/models/contributions/capa/capa_Scene.obj
mtllib capa_Scene.mtl
g 1
usemtl 1
v 1.0 -0.165231 -1.0
v 1.0 -0.165231 1.0
v -1.0 -0.165231 1.0
v -1.0 -0.165231 -1.0
v 1.0 0.026103 -0.999999
v -1.0 0.026103 -1.0
v -1.0 0.026103 1.0
v 0.999999 0.026103 1.000001
v 1.32547 -0.077349 -0.999999
v 1.274531 -0.261779 -1.0
v 1.274531 -0.261779 1.0
v 1.325469 -0.077349 1.000001
v -1.263552 -0.258017 -1.0
v -1.336447 -0.081112 -1.0
v -1.336448 -0.081112 1.0
v -1.263553 -0.258017 1.0
vn -0.16828232 -0.9857388 0.0
vn -0.09241901 -0.54135734 0.8356979
vn 0.16844666 -0.98571074 0.0
vn 0.2242325 -0.9745357 0.0000001
vn 0.14354953 0.68856364 -0.7108261
vn -0.15363632 0.98812747 0.0
vn -0.20457359 0.9788512 -0
vn 0.15327105 0.98818415 0.0000001
vn -0.0000012 -0.0000049 1.0
vn -0.0000002 -0.0000025 1.0
vn 0.0 0.0 1.0
vn 0.0000011 0.0000052 -1.0
vn 0.0000002 0.0000018 -1.0
vn 0.0000002 0.0 -1.0
vn 0.5139144 0.2786121 -0.81133676
vn 0.0000018 0.000005 -1.0
vn -0.14837089 -0.42188784 0.89442533
vn -0.0000015 -0.0000048 1.0
vn 0.87912065 0.47659945 0.0000003
vn -0.33176482 -0.9433621 0.0
vn 0.9639105 -0.26622647 0.0000002
vn 0.9639111 -0.26622412 0.0
vn -0.23980568 -0.5359617 -0.8094679
vn -0.8269718 -0.34075978 -0.44721392
vn -0.30362412 0.95279187 -0.0000001
vn -0.30362374 0.952792 -0.0000001
vn -0.40841383 -0.9127969 -0.0000003
vn -0.92458296 -0.38098082 -0.0000004
f 1//1 2//2 3//3
f 1//1 3//3 4//4
f 5//5 6//6 7//7
f 5//5 7//7 8//8
f 2//2 8//9 7//10
f 2//2 7//10 3//11
f 5//5 1//12 4//13
f 5//5 4//13 6//14
f 1//12 5//5 9//15
f 1//12 9//15 10//16
f 8//9 2//2 11//17
f 8//9 11//17 12//18
f 5//5 8//8 12//19
f 5//5 12//19 9//15
f 2//2 1//1 10//20
f 2//2 10//20 11//17
f 10//21 9//15 12//19
f 10//21 12//19 11//22
f 6//14 4//13 13//23
f 6//14 13//23 14//24
f 3//11 7//10 15//11
f 3//11 15//11 16//11
f 7//7 6//6 14//25
f 7//7 14//25 15//26
f 4//4 3//3 16//27
f 4//4 16//27 13//23
f 16//27 15//28 14//24
f 16//27 14//24 13//23
g Circle_Circle_17
usemtl Circle_Circle_17
v 0.0 0.0 0.0
v 0.354848 0.0 -0.354848
v 0.484731 0.0 -0.129883
v 0.484731 0.0 0.129883
v 0.354848 0.0 0.354848
v 0.129883 0.0 0.484731
v -0.129883 0.0 0.484731
v -0.354848 0.0 0.354848
v -0.484731 0.0 0.129883
v -0.484731 0.0 -0.129883
v -0.354848 0.0 -0.354848
v -0.129884 0.0 -0.484731
v 0.129883 0.0 -0.484731
v 0.129883 2.2 -0.484731
v 0.354848 2.2 -0.354848
v -0.129884 2.2 -0.484731
v -0.354848 2.2 -0.354848
v -0.484731 2.2 -0.129883
v -0.484731 2.2 0.129883
v -0.354848 2.2 0.354848
v -0.129883 2.2 0.484731
v 0.129883 2.2 0.484731
v 0.354848 2.2 0.354848
v 0.484731 2.2 0.129883
v 0.484731 2.2 -0.129883
v 0.0 2.2 0.0
vn 0.0 -1.0 0.0
vn 0.70710677 0.0 -0.70710677
vn 0.25881806 0.0 -0.9659261
vn -0.25881898 0.0 -0.9659259
vn -0.7071074 0.0 -0.7071062
vn -0.9659261 0.0 -0.25881806
vn -0.9659261 0.0 0.25881806
vn -0.70710677 0.0 0.70710677
vn -0.25881806 0.0 0.9659261
vn 0.25881806 0.0 0.9659261
vn 0.70710677 0.0 0.70710677
vn 0.9659261 0.0 0.25881806
vn 0.9659261 0.0 -0.25881806
vn 0.0 1.0 0.0
f 17//29 18//29 19//29
f 17//29 19//29 20//29
f 17//29 20//29 21//29
f 17//29 21//29 22//29
f 17//29 22//29 23//29
f 17//29 23//29 24//29
f 17//29 24//29 25//29
f 17//29 25//29 26//29
f 17//29 26//29 27//29
f 17//29 27//29 28//29
f 17//29 28//29 29//29
f 29//29 18//29 17//29
f 18//30 29//31 30//31
f 18//30 30//31 31//30
f 29//31 28//32 32//32
f 29//31 32//32 30//31
f 28//32 27//33 33//33
f 28//32 33//33 32//32
f 27//33 26//34 34//34
f 27//33 34//34 33//33
f 26//34 25//35 35//35
f 26//34 35//35 34//34
f 25//35 24//36 36//36
f 25//35 36//36 35//35
f 24//36 23//37 37//37
f 24//36 37//37 36//36
f 23//37 22//38 38//38
f 23//37 38//38 37//37
f 22//38 21//39 39//39
f 22//38 39//39 38//38
f 21//39 20//40 40//40
f 21//39 40//40 39//39
f 20//40 19//41 41//41
f 20//40 41//41 40//40
f 19//41 18//30 31//30
f 19//41 31//30 41//41
f 41//42 31//42 42//42
f 40//42 41//42 42//42
f 39//42 40//42 42//42
f 38//42 39//42 42//42
f 37//42 38//42 42//42
f 36//42 37//42 42//42
f 35//42 36//42 42//42
f 34//42 35//42 42//42
f 33//42 34//42 42//42
f 32//42 33//42 42//42
f 30//42 32//42 42//42
f 31//42 30//42 42//42
